<?xml version="1.0" encoding="utf-8"?>
<!-- Generator: Adobe Illustrator 26.5.0, SVG Export Plug-In . SVG Version: 6.00 Build 0)  -->
<svg version="1.1" id="Vrstva_1" xmlns="http://www.w3.org/2000/svg" xmlns:xlink="http://www.w3.org/1999/xlink" x="0px" y="0px"
	 viewBox="0 0 285.24 285.24" style="enable-background:new 0 0 285.24 285.24;" xml:space="preserve">
<style type="text/css">
	.st0{fill:#FFFFFF;}
</style>
<g>
	<path d="M24.09,100.99c0.17,0.23,0.32,0.43,0.56,0.75c0.34-1.14,0.06-2.24,0.64-3.37c-0.46,0.04-0.68,0.06-1.02,0.09
		c0.05-0.87,0.07-1.7,0.16-2.52c0.13-1.21-0.22-2.43,0.17-3.63c0.21-0.64,0.26-1.32,0.44-1.97c0.35-1.27,0.41-2.56,0.44-3.86
		c0-0.19,0.1-0.38,0.26-0.54c-0.03,0.76-0.07,1.51-0.1,2.27c0.89-0.67,1.1-1.52,1-2.49c-0.09-0.79-0.22-1.58-0.22-2.38
		c0-0.71,0.04-1.45,0.25-2.12c0.19-0.63,0.46-1.19,0.01-1.8c-0.04-0.06-0.05-0.16-0.04-0.23c0.13-0.87,0.28-1.74,0.45-2.83
		c0.3,0.89,0.32,1.62,0.46,2.39c0.1-0.33,0.33-0.69,0.27-0.99c-0.23-1.26,0.36-2.4,0.47-3.61c0.05-0.53,0.32-1.04,0.45-1.56
		c0.08-0.33,0.09-0.68,0.11-1.03c0.05-0.92,0.21-1.11,1.18-1.28c0,1.28,0,2.56,0,3.83c0.08,0,0.22,0,0.22,0
		c0.07-1.1,1.16-1.68,1.34-2.74c0.11-0.61,0.59-0.92,1.26-0.82c0.19,0.03,0.39,0,0.61,0c0.5-0.79,1-1.56,1.47-2.34
		c0.1-0.16,0.1-0.38,0.12-0.57c0.12-1.18,0.2-2.36,0.36-3.53c0.05-0.37,0.27-0.73,0.45-1.08c0.52-1,1.08-1.97,0.83-3.19
		c-0.05-0.24,0.17-0.6,0.36-0.82c0.59-0.71,0.92-1.45,0.82-2.41c-0.04-0.34,0.15-0.77,0.38-1.05c0.79-0.95,1.64-1.84,2.47-2.76
		c1.34-1.48,2.69-2.94,4-4.43c1.39-1.58,2.72-3.21,4.12-4.78c0.24-0.27,0.67-0.4,1.04-0.55c0.92-0.37,1.85-0.72,2.78-1.06
		c0.18-0.07,0.37-0.1,0.56-0.11c0.42-0.02,0.88,0.1,1.25-0.04c0.99-0.37,1.93-0.85,2.9-1.28c0.25-0.11,0.54-0.16,0.78-0.28
		c0.42-0.22,0.82-0.46,1.23-0.71c0.39-0.24,0.77-0.5,1.17-0.73c0.68-0.38,1.47-0.67,1.32-1.66c0.5-0.29,0.96-0.59,1.45-0.83
		c0.22-0.1,0.52-0.11,0.77-0.07c0.39,0.07,0.76,0.22,1.34,0.4c-0.82,0.17-1.47,0.3-2.13,0.44c-0.01,0.06-0.01,0.13-0.02,0.19
		c0.19,0.08,0.39,0.23,0.58,0.23c1.63-0.03,3.27,0,4.89-0.16c2.02-0.19,4.02-0.51,6.02-0.84c1.48-0.25,2.94-0.61,4.41-0.9
		c0.85-0.17,1.66-0.33,2.58-0.14c0.99,0.2,2.06,0.05,3.08-0.02c1.79-0.12,3.58-0.29,5.36-0.43c0.12-0.01,0.24-0.03,0.36-0.02
		c1.95,0.28,3.75-0.37,5.59-0.82c0.68-0.16,1.43-0.14,2.14-0.1c0.82,0.05,1.64,0.21,2.46,0.31c0.74,0.09,1.49,0.1,2.21,0.26
		c2.03,0.47,4.06,0.06,6.08,0.02c0.53-0.01,1.05-0.33,1.59-0.46c0.46-0.1,1.04-0.32,1.41-0.15c1.53,0.71,2.89-0.23,4.33-0.3
		c0.9-0.04,1.78-0.35,2.68-0.47c1.25-0.17,2.44-0.76,3.75-0.57c0.67,0.1,1.35,0.15,2.02,0.23c1.86,0.22,3.65-0.34,5.47-0.46
		c1.22-0.09,2.43-0.26,3.64-0.43c0.58-0.08,1.14-0.25,1.71-0.38c0.27-0.07,0.53-0.18,0.81-0.22c1.61-0.22,3.21-0.48,4.82-0.61
		c0.76-0.06,1.55,0.15,2.33,0.23c0.2,0.02,0.42,0.05,0.59-0.01c1.96-0.75,4.02-0.25,6.03-0.47c0.3-0.03,0.62,0.06,0.94,0.1
		c0.19,0.02,0.4,0.13,0.57,0.07c2.01-0.64,4.09-0.43,6.15-0.55c1.11-0.06,2.22-0.25,3.33-0.38c1.34-0.16,2.72-0.58,4.02-0.41
		c1.53,0.21,2.9,0.09,4.27-0.55c0.99,0.49,1.81-0.43,2.74-0.34c1.93,0.18,3.67-0.75,5.54-0.91c0.44-0.04,0.87-0.13,1.31-0.12
		c2.08,0.07,4.08-0.32,6.08-0.85c2.26-0.6,4.56-1.08,6.86-1.54c1.6-0.32,3.22-0.52,4.83-0.78c0.12-0.02,0.25,0.01,0.36-0.03
		c0.36-0.14,0.72-0.44,1.07-0.43c2.18,0.07,4.37-0.39,6.55,0.12c0.42,0.1,0.87,0.15,1.3,0.12c1.7-0.1,3.39-0.24,5.09-0.34
		c0.79-0.05,1.59-0.05,2.38-0.08c1.1-0.04,2.21-0.05,3.3-0.13c0.53-0.04,1.04-0.32,1.56-0.35c1.35-0.1,2.7-0.12,4.05-0.17
		c0.12,0,0.25-0.01,0.36,0.02c0.97,0.31,1.92,0.21,2.93,0.07c1.05-0.15,2.14,0,3.21,0.03c1.15,0.04,2.36-0.12,3.44,0.18
		c1.78,0.49,3.64,0.04,5.4,0.69c1.37,0.5,2.92,0.57,4.2,1.22c1.41,0.72,3.01,0.55,4.39,1.32c1.07,0.59,1.95,1.25,2.6,2.34
		c0.74,1.24,1.33,2.52,1.93,3.82c0.54,1.17,1.32,2.22,1.98,3.33c0.24,0.41,0.53,0.82,0.63,1.27c0.19,0.89,0.78,1.42,1.52,2.11
		c0.11-0.55,0.19-0.94,0.29-1.43c0.39,0.2,0.72,0.38,1.14,0.6c0.12-0.45,0.22-0.84,0.34-1.32c0.39,0.17,0.69,0.3,1.05,0.46
		c0.07-0.15,0.16-0.28,0.19-0.42c0.16-0.71,0.15-0.71,0.97-1.1c0.21,0.25,0.41,0.53,0.65,0.78c0.39,0.4,0.77,0.35,1.03-0.15
		c0.2-0.38,0.35-0.79,0.59-1.33c0.31,0.31,0.63,0.51,0.76,0.8c0.37,0.87,0.89,1.69,0.9,2.71c0.01,0.45,0.21,0.93,0.4,1.35
		c0.32,0.71,0.75,1.3,0.49,2.22c-0.16,0.56,0.15,1.35,0.46,1.93c0.73,1.34,0.5,2.79,0.67,4.19c0.22,1.85,0.36,3.72,0.49,5.58
		c0.09,1.35,0.56,2.69,0.23,4.07c-0.04,0.18-0.03,0.43,0.06,0.59c0.47,0.85,0.29,1.68-0.02,2.52c-0.07,0.18-0.1,0.43-0.02,0.58
		c0.59,1.12,0.34,2.36,0.27,3.49c-0.07,1.2,0.37,2.31,0.22,3.49c-0.13,1-0.2,2.02-0.24,3.03c-0.05,1.13-0.05,2.27-0.04,3.4
		c0,0.21,0.21,0.42,0.24,0.64c0.04,0.33,0.13,0.78-0.04,0.98c-0.55,0.66-0.5,1.44-0.47,2.17c0.03,0.7,0.21,1.36,0.04,2.1
		c-0.14,0.63,0.05,1.33,0.11,2c0.02,0.28,0.17,0.59,0.09,0.82c-0.38,1.07,0.22,2.14-0.09,3.22c-0.15,0.53-0.03,1.13-0.03,1.9
		c0.26,0.19,0.52,0.55,0.52,1.2c-0.01,1.12,0.44,2.22,0.14,3.37c-0.1,0.37,0.03,0.79,0.05,1.19c0.09,1.51,0.2,3.01,0.27,4.52
		c0.09,1.78,0.01,3.59,0.26,5.35c0.2,1.45,0.02,2.89,0.22,4.3c0.14,1.01-0.29,2.02,0.2,3.03c0.18,0.37-0.08,0.93-0.05,1.4
		c0.12,1.98,0.27,3.96,0.42,5.94c0.03,0.4,0.13,0.79,0.19,1.18c0.03,0.2,0.16,0.44,0.09,0.58c-0.56,1.14,0.08,2.27,0.02,3.39
		c-0.05,0.99-0.27,1.98-0.28,2.97c-0.02,1.26,0.13,2.52,0.15,3.78c0.03,1.38,0,2.77-0.01,4.16c0,0.12-0.06,0.26-0.02,0.36
		c0.66,1.61-0.15,3.26,0.13,4.89c0.12,0.68-0.1,1.41-0.09,2.11c0,0.35-0.34,0.9,0.39,1.01c0.04,0.01,0.05,0.22,0.06,0.33
		c0.06,1.07,0.11,2.14,0.17,3.23c-0.24,0.22-0.66,0.42-0.7,0.68c-0.11,0.73-0.23,1.52-0.05,2.21c0.29,1.07,0.32,2.07,0.02,3.13
		c-0.25,0.88,0.16,1.69,0.59,2.51c0.09-0.58,0.18-1.15,0.29-1.82c0.6,0.34,0.36,0.87,0.35,1.27c-0.02,1.82-0.04,1.82-0.57,2.32
		c0-0.38,0-0.7,0-1.04c-0.12,0.04-0.23,0.06-0.23,0.08c-0.11,1.82-0.43,3.67-0.24,5.46c0.21,2.04,0.32,4.07,0.36,6.1
		c0.05,2.13-0.11,4.27-0.13,6.41c-0.01,1.25,0.07,2.5,0.1,3.75c0.01,0.44,0.05,0.9-0.05,1.32c-0.33,1.42,0.28,2.79,0.15,4.2
		c-0.14,1.41-0.19,2.83-0.27,4.25c-0.04,0.66,0.15,1.42-0.13,1.96c-0.62,1.22-0.57,2.51-0.71,3.79c-0.1,0.88-0.39,1.75-0.65,2.61
		c-0.81,2.63-1.23,5.33-1.73,8.03c-0.4,2.12-1.07,4.16-2.08,6.08c-0.14,0.27-0.2,0.59-0.3,0.89c-0.11,0.33-0.22,0.65-0.35,0.97
		c-0.17,0.42-0.35,0.76-0.29,1.31c0.08,0.73-0.21,1.56-0.51,2.27c-0.38,0.91-0.92,1.75-1.43,2.6c-0.3,0.49-0.09,0.73,0.22,0.84
		c-0.35,0.33-0.74,0.69-1.18,1.1c0.31,0.24,0.48,0.37,0.66,0.51c-0.29,0.43-0.54,0.83-0.82,1.21c-0.14,0.18-0.33,0.44-0.51,0.45
		c-1.37,0.1-1.35,1.23-1.63,2.13c-0.12,0.37-0.05,0.81-0.21,1.15c-0.74,1.49-1.33,3.07-2.73,4.15c-0.61,0.47-1.07,1.13-1.58,1.72
		c-1.33,1.54-2.78,2.93-4.58,3.94c-0.83,0.46-1.65,0.97-2.35,1.6c-0.44,0.39-0.7,0.97-1.35,1.15c-0.83,0.23-1.64,0.53-2.47,0.79
		c-0.15,0.05-0.36,0-0.46,0.09c-0.92,0.84-2.21,0.65-3.22,1.18c-1.99,1.06-4.26,1.21-6.34,2.01c-1.25,0.48-2.64,0.56-3.92,0.98
		c-1.55,0.5-3.14,0.89-4.54,1.81c-0.72,0.47-1.61,0.71-2.46,0.93c-2.55,0.64-5.12,1.21-7.68,1.83c-1.07,0.26-2.17,0.39-3.16,1
		c-0.47,0.29-1.15,0.28-1.75,0.32c-1.51,0.1-3.04,0.05-4.54,0.24c-1.62,0.2-3.23,0.52-4.8,0.97c-1.19,0.34-2.35,0.32-3.54,0.26
		c-0.28-0.02-0.58-0.09-0.83-0.01c-1.22,0.36-2.46-0.08-3.66,0.1c-1.9,0.29-3.92-0.34-5.71,0.73c-0.07,0.04-0.16,0.11-0.21,0.09
		c-1.25-0.37-2.48,0.18-3.74,0.06c-1.01-0.1-2.05,0.2-3.07,0.17c-0.98-0.03-1.96,0.31-2.94-0.05c-0.29-0.1-0.65-0.14-0.94-0.06
		c-1.16,0.34-2.34,0.33-3.52,0.25c-1.85-0.14-3.65,0.09-5.47,0.33c-0.58,0.08-1.18,0.07-1.76,0.17c-0.69,0.11-1.38,0.15-1.99,0.64
		c-0.36,0.3-0.96,0.33-1.47,0.42c-0.5,0.09-1.02,0.09-1.59-0.01c0.29-0.14,0.57-0.29,0.86-0.43c-0.02-0.07-0.04-0.15-0.05-0.22
		c-0.8,0.09-1.69-0.01-2.4,0.3c-1.25,0.56-2.53,0.39-3.8,0.52c-1.03,0.11-2.06,0.17-3.09,0.26c-0.13,0.01-0.25,0.1-0.35,0.26
		c2.42,0.33,4.76-0.44,7.18-0.26c-1.09,0.23-2.18,0.53-3.28,0.66c-1.73,0.21-3.47,0.31-5.2,0.44c-0.79,0.06-1.55,0.22-2.37,0.03
		c-0.43-0.1-0.99,0.37-1.44,0.28c-0.51-0.1-0.94-0.28-1.48-0.06c-0.27,0.11-0.65-0.06-0.98-0.11c-0.08-0.01-0.18-0.09-0.22-0.06
		c-0.85,0.65-1.79-0.06-2.7,0.19c-0.9,0.25-1.9,0.17-2.84,0.3c-0.31,0.04-0.42-0.03-0.67-0.19c-0.55-0.37-1.19-0.56-1.84-0.08
		c-0.47,0.34-0.89,0.64-0.06,1.26c-1.63,0.15-3.05,0.3-4.47,0.39c-2.58,0.17-5.17,0.28-7.75,0.45c-3.18,0.22-6.37,0.34-9.55,0.07
		c-1.94-0.16-3.87-0.54-5.8-0.82c-0.43-0.06-0.86-0.12-1.39-0.2c0.22-0.23,0.43-0.44,0.73-0.75c-0.41-0.13-0.7-0.23-1.13-0.37
		c1.85-0.28,3.55,0.19,5.41,0.15c-0.18-0.13-0.25-0.22-0.32-0.23c-1.69-0.19-3.38-0.38-5.07-0.56c-0.73-0.08-0.84,0.44-0.84,1.14
		c-0.25-0.16-0.41-0.25-0.55-0.34c-0.16-0.11-0.32-0.22-0.5-0.35c0.25-0.1,0.46-0.19,0.68-0.27c0-0.08,0-0.15,0-0.23
		c-0.76-0.11-1.53-0.22-2.33-0.34c-0.07,0.53-0.04,0.8,0.45,0.71c0.64-0.11,0.53,0.25,0.43,0.62c-1.87,0.23-2.83,0.13-3.84-0.46
		c0.83-0.2,1.56-0.38,2.47-0.6c-1.13-0.35-2.05-0.59-3.09-0.26c-0.59,0.19-1.26,0.14-1.89,0.16c-0.41,0.01-0.83-0.09-0.82,0.55
		c0,0.12-0.22,0.33-0.36,0.36c-0.65,0.11-1.31,0.18-1.96,0.25c-1.34,0.14-2.68,0.26-4.02,0.41c-1.26,0.13-2.52,0.29-3.78,0.42
		c-0.1,0.01-0.21-0.06-0.34-0.1c1.6-0.84,3.37-0.51,5.03-0.83c1.62-0.31,3.27-0.42,4.91-0.68c-0.57-0.27-1.16-0.22-1.77-0.13
		c-1.05,0.15-2.12,0.22-3.17,0.35c-0.83,0.1-1.65,0.26-2.48,0.33c-1.02,0.09-2.04,0.31-3.06-0.11c-0.23-0.09-0.57,0.15-0.86,0.16
		c-0.59,0-1.12,0.96-1.76,0.11c-1.17,0.25-2.34,0.49-3.5,0.74c-0.01,0-0.01,0.07-0.05,0.27c1.26,0,2.49,0,3.72,0
		c0.02,0.05,0.03,0.1,0.05,0.15c-0.15,0.09-0.32,0.15-0.44,0.26c-0.14,0.13-0.24,0.3-0.4,0.51c-0.52-0.3-1.02-0.35-1.65-0.13
		c-0.89,0.31-1.87,0.41-2.82,0.51c-2.14,0.22-4.31,0.25-6.42,0.61c-2.33,0.4-4.61,0.1-6.9-0.09c-0.24-0.02-0.48-0.1-0.71-0.07
		c-1.12,0.12-2.07-0.39-3.07-0.75c-0.46-0.17-0.91-0.35-1.46-0.55c-0.09,0.33-0.15,0.53-0.21,0.76c-0.6,0.22-1.06-0.05-1.4-0.51
		c-0.95,0.57-3.61,0.19-5.18-0.79c0.77,0.08,1.33,0.14,1.9,0.19c0.02-0.03,0.04-0.07,0.06-0.1c-0.42-0.2-0.83-0.42-1.26-0.6
		c-1.57-0.66-3.15-1.33-4.74-1.95c-1.04-0.41-2.09-0.77-3.15-1.1c-1.64-0.5-3-1.47-4.32-2.49c-1.39-1.06-2.76-2.14-4.04-3.33
		c-0.78-0.72-1.41-1.62-2.02-2.5c-1.14-1.63-2.24-3.3-3.33-4.97c-1.27-1.95-2.09-4.11-2.71-6.34c-0.24-0.88-0.37-1.78-0.97-2.55
		c-0.2-0.26-0.08-0.76-0.18-1.12c-0.31-1.15-0.68-2.28-0.99-3.43c-0.45-1.62-0.87-3.24-1.31-4.86c-0.09-0.35-0.17-0.7-0.28-1.04
		c-0.84-2.66-1.68-5.32-2.52-7.98c-0.34-1.06-0.68-2.12-1.04-3.24c-0.26,0.09-0.47,0.17-0.78,0.28c0.33,0.8,0.9,1.54,0.89,2.27
		c-0.03,1.28,0.82,2.19,1.02,3.34c0.19,1.13,0.52,2.24,0.73,3.38c0.17,0.92,0.26,1.86,0.19,2.89c-0.16-0.17-0.45-0.33-0.47-0.51
		c-0.11-0.92-0.24-1.78-0.83-2.57c-0.25-0.33-0.17-0.91-0.25-1.37c-0.04-0.24-0.03-0.56-0.18-0.68c-1.05-0.87-0.95-2.22-1.43-3.32
		c-0.22-0.49-0.39-1.01-0.61-1.5c-0.05-0.11-0.25-0.15-0.38-0.22c-0.71-0.4-1.28-0.92-1.48-1.76c-0.29-1.24-0.6-2.48-0.89-3.72
		c-0.03-0.14,0.04-0.3,0.06-0.42c0.77-0.41,0.51,0.49,0.99,0.71c-0.17-1.44-0.32-2.75-0.49-4.23c0.31-0.02,0.66-0.05,1-0.07
		c0,0.33,0,0.66,0,0.99c0.21,0.35,0.55,0.71,0.66,1.13c0.31,1.26,1.03,2.39,1.01,3.76c-0.01,0.32,0.09,1.05,0.97,1.13
		c-0.14-0.61-0.21-1.15-0.38-1.66c-1.31-4.11-2.44-8.27-3.17-12.53c-0.22-1.29-0.69-2.53-0.9-3.82c-0.23-1.37-0.29-2.77-0.42-4.15
		c-0.2-2.1-0.49-4.2-0.58-6.3c-0.09-2.14-0.03-4.29,0.03-6.43c0.05-1.74,0.18-3.48,0.34-5.22c0.04-0.46,0.29-0.89,0.46-1.34
		c0.2-0.52,0.24-1.02,0.17-1.61c-0.08-0.73,0.16-1.49,0.26-2.24c0.17-1.22,0.33-2.44,0.52-3.66c0.07-0.47,0.23-0.92,0.33-1.39
		c0.55-2.45,0.98-4.93,1.66-7.34c0.89-3.14,2.02-6.22,2.95-9.35c0.76-2.56,1.4-5.15,2.06-7.73c0.11-0.41,0.01-0.87,0.07-1.3
		c0.43-2.78,0.89-5.56,1.34-8.34c0.06-0.35,0.08-0.7,0.13-1.04c-0.09-0.02-0.18-0.03-0.26-0.05c-0.24,1.24-0.47,2.47-0.73,3.71
		c-0.16,0.78-0.36,1.55-0.53,2.33c-0.22,1.05-0.38,2.11-0.65,3.15c-0.57,2.23-1.17,4.46-1.81,6.68c-0.19,0.64-0.36,1.26-0.4,1.95
		c-0.11,2.14-0.82,4.12-1.8,6c-0.68,1.3-1.18,2.65-1.48,4.1c-0.42,2.02-0.97,4.01-1.47,6.01c-0.05,0.19-0.09,0.39-0.12,0.59
		c-0.26,2.32-1.04,4.56-1.17,6.9c-0.01,0.21-0.15,0.42-0.45,0.62c-0.05-0.65-0.23-1.33-0.11-1.96c0.55-3.12,1.26-6.22,1.77-9.34
		c0.59-3.66,2.16-7,3.14-10.53c0.68-2.45,1.4-4.9,2.06-7.36c0.52-1.96,1-3.93,1.46-5.91c0.21-0.93,0.31-1.89,0.48-2.83
		c0.3-1.68,0.64-3.34,0.9-5.02c0.13-0.81,0.13-1.64,0.2-2.46c0.09-0.99,0.2-1.97,0.32-2.96c0.08-0.7,0.21-1.4,0.27-2.1
		c0.08-1.02,0.11-2.04,0.18-3.06c0.04-0.59,0.15-1.17,0.17-1.75c0.04-1.33-0.12-2.69,0.13-3.98c0.2-1.05,0.26-2.07,0.31-3.11
		c0.02-0.44-0.04-0.77-0.31-1.09C23.71,101.92,23.72,101.49,24.09,100.99z M241.01,72.54c-0.12-0.08-0.3-0.13-0.36-0.24
		c-0.32-0.57-0.05-1.15-0.03-1.73c0.03-1.02-0.18-2.05-0.24-3.07c-0.11-2.03-0.19-4.06-0.29-6.09c-0.01-0.2-0.02-0.4-0.07-0.59
		c-0.34-1.21-0.7-2.42-1.07-3.7c-0.27,0.12-0.54,0.23-0.78,0.34c-0.51-0.69,0.56-0.72,0.4-1.22c-0.23-0.46-0.35-1.08-0.72-1.34
		c-0.52-0.36-0.67-0.84-0.89-1.34c-0.44-1.01-0.94-2-1.43-2.99c-0.06-0.12-0.23-0.22-0.37-0.27c-0.98-0.33-1.94-0.69-2.94-0.94
		c-1.47-0.36-3.04-0.45-4.43-1.01c-1.21-0.49-2.46-0.56-3.67-0.8c-1.51-0.3-3.1-0.24-4.65-0.24c-1.95,0-3.89,0.08-5.84,0.16
		c-0.7,0.03-1.39,0.19-2.09,0.21c-0.63,0.02-1.26-0.15-1.89-0.1c-1.23,0.1-2.46,0.28-3.68,0.44c-0.63,0.09-1.5,0.01-1.82,0.38
		c-0.58,0.69-1.24,0.58-1.91,0.62c-0.87,0.06-1.75,0.04-2.62,0.08c-2.12,0.09-4.23,0.11-6.29-0.57c-0.31-0.1-0.76-0.06-1.03,0.1
		c-0.4,0.24-0.71,0.22-1.11,0.09c-0.26-0.08-0.56-0.08-0.83-0.04c-2.79,0.47-5.61,0.79-8.34,1.5c-2.28,0.59-4.59,1.04-6.89,1.48
		c-3.64,0.7-7.33,1.15-10.99,1.72c-0.27,0.04-0.69,0.06-0.76,0.22c-0.31,0.67-0.91,0.54-1.43,0.63c-0.57,0.11-1.17,0.02-1.7,0.42
		c-0.22,0.16-0.67,0.03-1.07,0.03c0.17-0.23,0.27-0.37,0.54-0.73c-1.21,0.18-2.19,0.32-3.17,0.46c-0.04,0.1-0.08,0.2-0.12,0.3
		c0.19,0.11,0.39,0.23,0.58,0.34c-0.37,0.09-0.7,0.05-1.03,0.03c-0.23-0.01-0.46-0.01-0.68,0.03c-0.76,0.13-1.54,0.45-2.27,0.37
		c-1.6-0.18-3.2-0.04-4.71,0.25c-2.48,0.47-4.9,0.13-7.35,0.04c-0.74-0.03-1.46-0.25-2.13,0.15c-0.99-0.84-1.94-0.93-3.08-0.33
		c-0.32,0.17-0.61,0.39-0.95,0.51c-0.19,0.06-0.6,0-0.62-0.07c-0.15-0.62-0.6-0.43-0.96-0.37c-0.52,0.08-1.12-0.09-1.52,0.42
		c-0.76-0.47-1.52,0-2.23,0.1c-2.16,0.31-4.43,0.29-6.34,1.61c-0.21,0.14-0.56,0.2-0.81,0.15c-1.87-0.39-3.8,0.64-5.64-0.24
		c-1.3,0.1-2.61,0.21-3.91,0.29c-0.64,0.04-1.15,0.26-1.37,0.72c-0.35-0.02-0.72-0.11-0.77-0.02c-0.33,0.57-0.78,0.58-1.34,0.48
		c-0.26-0.05-0.55,0.07-0.82,0.12c-0.66,0.12-1.32,0.33-1.99,0.36c-1.93,0.1-3.87-0.1-5.79,0.22c-0.12,0.02-0.24,0-0.36-0.01
		c-2.5-0.06-5.01-0.12-7.51-0.18c-0.28-0.01-0.6,0.02-0.82-0.11c-0.65-0.37-1.31-0.23-1.98-0.13c-0.04,0.01-0.07,0.12-0.1,0.18
		c0.14,0.07,0.29,0.14,0.43,0.22c-1.85,0.42-3.65,0.7-5.47,0.83c-2.11,0.15-4.22,0.16-6.34,0.24c-0.87,0.03-1.75,0.04-2.61,0.15
		c-1.85,0.25-3.68,0.58-5.53,0.83c-0.7,0.1-1.42,0.02-2.12,0.11c-0.5,0.07-0.97,0.37-1.47,0.42c-1.19,0.12-2.39,0.26-3.58,0.19
		c-1.76-0.09-3.41,0.1-4.93,1.07c-0.4,0.25-0.88,0.37-1.32,0.55c-0.73,0.3-1.52,0.52-2.18,0.93c-0.7,0.43-1.28,1.05-1.91,1.59
		c0.17,0.99,0.34,1.99,0.5,2.95c0.06-0.2,0.12-0.45,0.19-0.69c0.07,1.1-0.02,2.16-0.12,3.23c-0.12,1.27-0.37,2.55-0.34,3.81
		c0.03,1.1-0.14,2.13-0.38,3.18c-0.06,0.26-0.16,0.59-0.05,0.79c0.35,0.67,0.16,1.33,0.07,2c-0.22,1.61-0.44,3.23-0.68,4.84
		c-0.21,1.41-0.45,2.82-0.67,4.24c-0.14,0.94-0.26,1.88-0.37,2.83c-0.05,0.39-0.01,0.8-0.06,1.19c-0.2,1.38-0.4,2.76-0.63,4.13
		c-0.15,0.9-0.42,1.78-0.49,2.68c-0.22,2.72-0.49,5.43-0.42,8.17c0.01,0.22-0.12,0.45-0.18,0.67c-0.08,0.31-0.21,0.61-0.24,0.92
		c-0.12,1.54-0.24,3.09-0.31,4.64c-0.07,1.46-0.63,2.87-0.48,4.35c0.01,0.07-0.05,0.15-0.07,0.23c-0.78,3.66-1.58,7.31-2.32,10.97
		c-0.79,3.92-2.01,7.72-3.26,11.5c-0.89,2.69-1.83,5.36-2.07,8.21c-0.04,0.47-0.22,0.93-0.33,1.39c-0.12,0.49-0.35,0.99-0.35,1.48
		c0.01,1.22-0.02,2.39-0.86,3.39c-0.11,0.13-0.05,0.38-0.1,0.58c-0.7,2.95-0.81,5.97-0.92,8.97c-0.09,2.38,0.11,4.78,0.24,7.17
		c0.13,2.27,0.42,4.53,0.49,6.8c0.07,2.33,0.46,4.6,0.98,6.84c0.78,3.33,1.74,6.62,2.69,9.91c0.67,2.34,1.48,4.63,2.16,6.97
		c0.6,2.1,1.07,4.23,1.66,6.34c0.88,3.15,1.79,6.29,2.73,9.42c0.31,1.02,0.71,2.02,1.15,2.99c0.26,0.57,0.7,1.06,1.04,1.6
		c1.68,2.62,3.71,4.91,6.32,6.63c1.7,1.12,3.47,2.11,5.45,2.7c0.84,0.25,1.69,0.5,2.49,0.84c2.04,0.89,4.2,1.19,6.36,1.56
		c0.63,0.11,1.26,0.22,1.89,0.34c1.06,0.2,2.1,0.44,3.17,0.59c0.94,0.14,1.89,0.2,2.84,0.27c2.74,0.2,5.48,0.51,8.23,0.54
		c2.31,0.03,4.62-0.25,6.93-0.45c3.65-0.31,7.31-0.57,10.94-1.02c4.78-0.59,9.56-0.61,14.35-0.25c3.19,0.24,6.36,0.62,9.55,0.73
		c2.83,0.09,5.67-0.08,8.5-0.18c1.51-0.05,3.04-0.36,4.53-0.21c2.72,0.28,5.42,0.08,8.13,0.03c1.96-0.04,3.91-0.21,5.86-0.37
		c2.85-0.24,5.72,0.05,8.57-0.28c0.19-0.02,0.4,0.04,0.59,0.04c0.71,0,1.44,0.07,2.14-0.02c3.93-0.47,7.89-0.7,11.8-1.36
		c0.39-0.07,0.79-0.11,1.19-0.12c4.79-0.11,9.57-0.2,14.36-0.32c0.4-0.01,0.8-0.16,1.2-0.24c-2.02-0.3-4,0.1-5.98-0.22
		c0.92-0.6,1.98-0.51,2.97-0.59c2.38-0.19,4.77-0.23,7.16-0.34c1.91-0.09,3.83-0.3,5.74-0.25c2.82,0.07,5.56-0.36,8.29-1
		c0.78-0.18,1.64-0.16,2.33-0.51c1.67-0.84,3.7-0.68,5.22-1.92c0.11-0.09,0.31-0.07,0.46-0.11c1.88-0.54,3.76-1.06,5.62-1.62
		c2.21-0.67,4.41-1.39,6.61-2.08c0.15-0.05,0.34-0.06,0.44-0.16c0.69-0.65,1.61-0.63,2.44-0.86c1.42-0.39,2.87-0.7,4.25-1.2
		c1.63-0.6,2.74-1.9,3.74-3.27c0.12-0.16,0.17-0.36,0.25-0.54c0.26-0.57,0.48-1.17,0.81-1.7c0.74-1.18,1.55-2.3,2.29-3.48
		c0.47-0.74,0.81-1.56,1.29-2.29c1.07-1.62,1.65-3.42,2.06-5.28c0.72-3.27,1.38-6.56,2.08-9.84c0.12-0.58,0.43-1.14-0.14-1.67
		c-0.06-0.05,0.02-0.27,0.05-0.41c0.08-0.37,0.2-0.74,0.23-1.12c0.05-0.63,0.07-1.27,0.04-1.91c-0.04-0.94-0.11-1.89-0.22-2.82
		c-0.05-0.43-0.29-0.83-0.34-1.26c-0.32-3.01-0.6-6.03-0.91-9.04c-0.08-0.74-0.28-1.47-0.31-2.2c-0.03-0.87,0.08-1.74,0.1-2.61
		c0-0.19-0.11-0.38-0.16-0.57c-0.09,0.01-0.18,0.01-0.27,0.02c0,0.87,0,1.74,0,2.64c-0.36-0.07-0.55-0.1-0.74-0.14
		c-0.01,0.8,0.3,1.64-0.36,2.38c-0.45-0.28-0.76-0.52-0.59-1.07c0.13-0.44,0.27-0.9,0.28-1.35c0.04-1.11-0.01-2.23,0.01-3.34
		c0.03-1.31,0.11-2.62,0.16-3.92c0-0.07-0.06-0.14-0.12-0.25c-0.22-0.03-0.47-0.07-0.84-0.12c0.11-0.37,0.2-0.66,0.29-0.96
		c0.05-0.18,0.19-0.43,0.12-0.55c-0.64-1.02-0.33-2.19-0.41-3.25c-0.21-2.65-0.11-5.32-0.16-7.98c-0.07-3.33-0.11-6.67-0.26-10
		c-0.09-1.93-0.56-3.83-0.53-5.79c0.03-1.66-0.11-3.33-0.18-5.04c-0.66-0.41-0.9-1.18-0.46-1.93c0.2-0.34,0.42-0.79,0.14-0.95
		c-0.63-0.34-0.37-0.87-0.43-1.3c-0.12-0.79-0.14-1.59-0.2-2.39c-0.08,0.01-0.16,0.01-0.23,0.02c0,0.54-0.02,1.08,0,1.63
		c0.05,1.02,0.14,2.05,0.18,3.07c0.08,2.01,0.13,4.02,0.19,6.04c0,0.12,0.04,0.29-0.02,0.35c-0.7,0.67-0.3,1.39-0.12,2.11
		c0.12,0.46,0.2,0.94,0.28,1.41c0.11,0.63-0.14,1.11-0.68,1.72c-0.24-7.77-0.48-15.3-0.72-23.09c0.42,0.55,0.64,0.84,0.93,1.22
		c0.15-1.2,0.36-2.25,0.39-3.3c0.03-0.95-0.15-1.9-0.18-2.85c-0.04-1.74-0.03-3.49-0.04-5.24c0-0.16,0.04-0.37-0.04-0.47
		c-0.68-0.79-0.4-1.76-0.48-2.63c-0.15-1.57-0.64-3.07-0.54-4.7c0.1-1.6-0.57-3.15-0.49-4.82c0.08-1.44-0.34-2.89-0.44-4.34
		c-0.11-1.5-0.43-2.97-0.2-4.51c0.15-1.05-0.05-2.14-0.05-3.22c0-1.59,0.05-3.17,0.04-4.76c-0.01-0.45-0.18-0.9-0.29-1.44
		c0.1-0.27,0.34-0.64,0.34-1.01c0-1.1,0.27-2.22-0.17-3.31c-0.11-0.28-0.08-0.63-0.09-0.95c-0.03-1.59-0.01-3.17-0.08-4.76
		c-0.08-1.77-0.22-3.55-0.37-5.32c-0.11-1.22-0.59-1.7-1.72-1.87c-0.49,1.07-0.59,2.03-0.38,3.6c0.04,0.3-0.02,0.61-0.03,0.91
		c-0.02,0.43-0.07,0.85-0.07,1.28c0,0.32,0.17,0.65,0.09,0.94c-0.34,1.3-0.23,2.59-0.03,3.89c0.08,0.55,0.27,1.12,0.18,1.65
		c-0.12,0.74,0.01,1.42,0.16,2.12c0.11,0.47,0.19,0.94,0.23,1.42c0.02,0.16-0.11,0.49-0.17,0.49c-0.51-0.01-0.4,0.37-0.48,0.66
		c-0.31,1.14-0.18,2.28-0.11,3.43c0.1,1.58,0.03,3.18,0.13,4.76c0.09,1.51,0.36,3.01,0.46,4.52c0.18,2.77,0.29,5.54,0.44,8.31
		c0.12,2.23,0.25,4.45,0.39,6.68c0.01,0.23,0.15,0.46,0.23,0.69c0.08-0.01,0.16-0.02,0.24-0.03c0-0.64,0-1.28,0-1.92
		c0.24,0.38,0.36,0.77,0.35,1.16c-0.02,0.87,0.06,1.8-0.19,2.61c-0.57,1.81,0.05,3.49,0.32,5.23c-0.12-0.06-0.25-0.12-0.39-0.19
		c0.09,1.14,0.2,2.27,0.28,3.4c0.08,1.14,0.21,2.29,0.19,3.43c-0.02,1.17,0.22,2.37,0.05,3.48c-0.16,1.09,0.22,2.26-0.39,3.36
		c-0.1-0.15-0.18-0.21-0.18-0.28c-0.2-2.89-0.4-5.78-0.58-8.67c-0.19-3.06-0.35-6.13-0.55-9.19c-0.09-1.35-0.29-2.69-0.41-4.04
		c-0.11-1.23-0.15-2.46-0.26-3.69c-0.23-2.46-0.48-4.93-0.76-7.39c-0.07-0.66-0.26-1.32-0.4-1.97c-0.08,0.02-0.17,0.03-0.25,0.05
		c0.2,2.97,0.4,5.93,0.6,8.9c-0.1,0.01-0.2,0.02-0.29,0.03c-0.05-0.48-0.08-0.97-0.15-1.45c-0.12-0.87-0.41-1.75-0.35-2.6
		c0.15-2.26-0.3-4.44-0.66-6.63c-0.15-0.88-0.35-1.77,0.08-2.85c0.98,1.04,0.23,2.4,1.06,3.41c0.02-0.49,0.07-0.86,0.05-1.24
		c-0.08-1.63-0.24-3.26-0.27-4.9c-0.04-2.42-0.01-4.85,0.02-7.27c0.01-1.07,0.2-2.15,0.08-3.21c-0.22-1.97-0.36-3.93-0.25-5.91
		c0.03-0.59-0.21-1.2-0.32-1.81c-0.08-0.01-0.17-0.03-0.25-0.04c-0.11,0.21-0.32,0.43-0.31,0.64c0.04,0.71,0.17,1.42,0.24,2.13
		c0.03,0.3-0.04,0.6-0.06,0.91C240.99,72.55,241.01,72.54,241.01,72.54z M36.22,246.63c-0.05,0.06-0.11,0.11-0.16,0.17
		c0.16,0.17,0.31,0.34,0.47,0.51c0.52,0.55,1.15,1.03,1.53,1.66c0.4,0.65,0.93,1.07,1.55,1.44c0.24,0.14,0.55,0.22,0.71,0.42
		c1.51,1.79,3.77,2.29,5.74,3.26c1.37,0.67,2.93,0.94,4.36,1.48c2.23,0.84,4.52,1.24,6.89,1.37c3.06,0.17,6.11,0.5,9.17,0.76
		c0.71,0.06,1.42,0.18,2.14,0.2c1.19,0.03,2.38,0,3.57-0.02c0.21,0,0.43-0.09,0.91-0.21c-0.39-0.15-0.51-0.23-0.65-0.24
		c-1.59-0.12-3.17-0.22-4.76-0.35c-0.95-0.08-1.93-0.38-2.85-0.25c-1.81,0.25-3.52-0.32-5.29-0.37c-1.22-0.03-2.44-0.37-3.65-0.64
		c-1.94-0.44-3.88-0.92-5.8-1.41c-0.33-0.08-0.61-0.34-0.92-0.5c-1.12-0.56-2.2-1.21-3.44-1.51c-1.02-0.25-2.07-0.32-2.97-1.1
		c-1.28-1.12-2.72-2.07-4.11-3.07C37.89,247.66,37.04,247.16,36.22,246.63z M197.28,234.55c0,0.12,0,0.25-0.01,0.37
		c1.77,0.06,3.52-0.11,5.27-0.27c0-0.11-0.01-0.21-0.01-0.32C200.78,234.4,199.03,234.47,197.28,234.55z M241.08,67.28
		c0.11-0.02,0.21-0.05,0.32-0.07c-0.12-1.65-0.24-3.29-0.36-4.94c-0.1,0.01-0.2,0.01-0.3,0.02
		C240.85,63.96,240.96,65.62,241.08,67.28z M74.65,257.11c1.49,0.9,1.49,0.9,1.73,0C75.8,257.11,75.23,257.11,74.65,257.11z
		 M248.12,124.5c0,0.99-0.06,1.8,0.03,2.6c0.04,0.36,0.43,0.37,0.83,0.03C247.76,126.6,248.56,125.47,248.12,124.5z M252.83,172
		c-0.14,0.5-0.78,0.92-0.27,1.64C253.04,173.08,253.17,172.58,252.83,172z M32.72,71.6c0.14,0.34,0.35,0.54,0.68,0.26
		c0.08-0.07,0.12-0.33,0.06-0.4C33.17,71.14,32.94,71.34,32.72,71.6z M147.37,255.02c-0.37-0.19-0.74-0.36-1.03,0.29
		C146.77,255.18,147.07,255.1,147.37,255.02z M108.37,256.96c-0.53-0.43-0.53-0.43-1.1-0.19
		C107.71,256.85,108.04,256.9,108.37,256.96z M26.64,88.85c-0.09-0.05-0.18-0.1-0.27-0.14c-0.08,0.3-0.56,0.46-0.15,1.05
		C26.4,89.39,26.52,89.12,26.64,88.85z M248.76,129.26c0.05-0.02,0.1-0.03,0.14-0.05c0.01-0.07,0.05-0.17,0.02-0.21
		c-0.05-0.07-0.15-0.09-0.23-0.14C248.72,129,248.74,129.13,248.76,129.26z"/>
	<path d="M13.49,193.09c-0.15-0.5-0.37-0.99-0.42-1.5c-0.14-1.53-0.17-3.08-0.33-4.61c-0.21-2.05-0.52-4.09-0.77-6.14
		c-0.02-0.18,0.03-0.39,0.09-0.57c0.19-0.59,0.31-1.11-0.33-1.58c-0.28-0.2-0.47-0.68-0.47-1.04c-0.01-0.3,0.21-0.59,0.63-0.82
		c0.59-0.31,0.32-1.6-0.33-2.17c-0.88-0.76-0.94-2.02-0.15-2.86c0.08-0.08,0.15-0.23,0.14-0.33c-0.1-0.8-0.01-1.5,0.79-1.95
		c0.16-0.09,0.28-0.36,0.28-0.55c0-0.13-0.22-0.28-0.37-0.37c-0.09-0.05-0.29,0.03-0.34-0.03c-0.13-0.15-0.22-0.35-0.32-0.53
		c0.23-0.08,0.52-0.28,0.67-0.21c0.77,0.38,0.97,1.11,0.96,1.89c-0.01,1.04-0.05,2.07-0.09,3.1c-0.1,2.49-0.25,4.98,0.04,7.48
		c0.22,1.87,0.51,3.76,0.17,5.67c-0.1,0.56,0.12,1.17,0.16,1.76c0.06,0.89,0.09,1.77,0.13,2.66c0.04,0.88,0.08,1.75,0.12,2.63
		C13.66,193.05,13.57,193.07,13.49,193.09z"/>
	<path d="M25.06,232.34c0.07,0.25,0.15,0.51,0.25,0.88c-0.25-0.04-0.49-0.05-0.5-0.08c-0.03-0.26-0.02-0.53-0.02-0.79
		C24.88,232.35,24.97,232.34,25.06,232.34z"/>
	<path d="M267.61,94.01c-0.07-0.25-0.13-0.51-0.2-0.76c0.09-0.03,0.17-0.06,0.26-0.09c0.1,0.25,0.2,0.5,0.29,0.74
		C267.84,93.93,267.72,93.97,267.61,94.01z"/>
	<path d="M6.21,219.51c-0.22,0.03-0.43,0.05-0.65,0.08c-0.02-0.07-0.03-0.14-0.05-0.22c0.21-0.06,0.41-0.12,0.62-0.18
		C6.16,219.3,6.18,219.4,6.21,219.51z"/>
	<path d="M202.09,23.18c0.2-0.01,0.4-0.02,0.61-0.04c0.01,0.07,0.02,0.15,0.03,0.22c-0.2,0.04-0.4,0.08-0.61,0.12
		C202.12,23.38,202.11,23.28,202.09,23.18z"/>
	<path d="M267.07,65.77c-0.01,0.23-0.02,0.45-0.05,0.68c0,0.01-0.2,0.01-0.2,0c-0.04-0.22-0.06-0.45-0.09-0.68
		C266.85,65.76,266.96,65.76,267.07,65.77z"/>
	<path class="st0" d="M240.99,72.55c0.02-0.3,0.09-0.61,0.06-0.91c-0.06-0.71-0.2-1.42-0.24-2.13c-0.01-0.21,0.2-0.43,0.31-0.64
		c0.08,0.01,0.17,0.03,0.25,0.04c0.12,0.6,0.36,1.21,0.32,1.81c-0.11,1.98,0.03,3.94,0.25,5.91c0.12,1.05-0.07,2.14-0.08,3.21
		c-0.02,2.42-0.06,4.85-0.02,7.27c0.03,1.63,0.18,3.26,0.27,4.9c0.02,0.37-0.03,0.75-0.05,1.24c-0.83-1.01-0.08-2.38-1.06-3.41
		c-0.43,1.08-0.23,1.98-0.08,2.85c0.36,2.2,0.81,4.37,0.66,6.63c-0.06,0.86,0.23,1.73,0.35,2.6c0.07,0.48,0.1,0.96,0.15,1.45
		c0.1-0.01,0.2-0.02,0.29-0.03c-0.2-2.97-0.4-5.93-0.6-8.9c0.08-0.02,0.17-0.03,0.25-0.05c0.14,0.66,0.33,1.31,0.4,1.97
		c0.27,2.46,0.52,4.92,0.76,7.39c0.12,1.23,0.15,2.46,0.26,3.69c0.12,1.35,0.32,2.69,0.41,4.04c0.21,3.06,0.36,6.13,0.55,9.19
		c0.18,2.89,0.38,5.78,0.58,8.67c0,0.07,0.08,0.13,0.18,0.28c0.61-1.09,0.23-2.27,0.39-3.36c0.17-1.11-0.07-2.31-0.05-3.48
		c0.02-1.14-0.11-2.29-0.19-3.43c-0.08-1.13-0.18-2.26-0.28-3.4c0.14,0.07,0.27,0.13,0.39,0.19c-0.27-1.74-0.89-3.42-0.32-5.23
		c0.26-0.81,0.17-1.73,0.19-2.61c0.01-0.39-0.1-0.78-0.35-1.16c0,0.64,0,1.28,0,1.92c-0.08,0.01-0.16,0.02-0.24,0.03
		c-0.08-0.23-0.21-0.45-0.23-0.69c-0.14-2.22-0.27-4.45-0.39-6.68c-0.15-2.77-0.26-5.54-0.44-8.31c-0.1-1.51-0.37-3.01-0.46-4.52
		c-0.1-1.58-0.03-3.18-0.13-4.76c-0.07-1.15-0.19-2.29,0.11-3.43c0.08-0.29-0.03-0.67,0.48-0.66c0.06,0,0.19-0.33,0.17-0.49
		c-0.04-0.48-0.13-0.95-0.23-1.42c-0.16-0.7-0.29-1.38-0.16-2.12c0.09-0.53-0.1-1.1-0.18-1.65c-0.2-1.3-0.31-2.59,0.03-3.89
		c0.07-0.29-0.09-0.63-0.09-0.94c0-0.43,0.04-0.85,0.07-1.28c0.02-0.3,0.07-0.61,0.03-0.91c-0.2-1.57-0.11-2.53,0.38-3.6
		c1.13,0.17,1.61,0.65,1.72,1.87c0.16,1.77,0.29,3.54,0.37,5.32c0.07,1.58,0.05,3.17,0.08,4.76c0.01,0.32-0.03,0.67,0.09,0.95
		c0.44,1.09,0.17,2.21,0.17,3.31c0,0.37-0.24,0.74-0.34,1.01c0.11,0.54,0.29,0.99,0.29,1.44c0.02,1.59-0.04,3.17-0.04,4.76
		c0,1.07,0.2,2.17,0.05,3.22c-0.22,1.53,0.09,3.01,0.2,4.51c0.11,1.45,0.52,2.91,0.44,4.34c-0.09,1.66,0.59,3.22,0.49,4.82
		c-0.1,1.63,0.39,3.13,0.54,4.7c0.08,0.88-0.2,1.85,0.48,2.63c0.08,0.1,0.04,0.31,0.04,0.47c0.01,1.75,0,3.49,0.04,5.24
		c0.02,0.95,0.21,1.9,0.18,2.85c-0.04,1.05-0.24,2.1-0.39,3.3c-0.29-0.38-0.51-0.67-0.93-1.22c0.24,7.8,0.48,15.32,0.72,23.09
		c0.54-0.61,0.8-1.09,0.68-1.72c-0.09-0.47-0.16-0.95-0.28-1.41c-0.18-0.72-0.59-1.43,0.12-2.11c0.06-0.06,0.02-0.23,0.02-0.35
		c-0.06-2.01-0.11-4.03-0.19-6.04c-0.04-1.02-0.13-2.05-0.18-3.07c-0.03-0.54,0-1.08,0-1.63c0.08-0.01,0.16-0.01,0.23-0.02
		c0.06,0.8,0.09,1.6,0.2,2.39c0.07,0.43-0.19,0.96,0.43,1.3c0.29,0.15,0.06,0.6-0.14,0.95c-0.44,0.75-0.2,1.51,0.46,1.93
		c0.07,1.71,0.21,3.37,0.18,5.04c-0.03,1.96,0.44,3.85,0.53,5.79c0.15,3.33,0.2,6.67,0.26,10c0.05,2.66-0.05,5.34,0.16,7.98
		c0.09,1.07-0.22,2.23,0.41,3.25c0.07,0.11-0.06,0.36-0.12,0.55c-0.08,0.29-0.17,0.58-0.29,0.96c0.37,0.05,0.61,0.09,0.84,0.12
		c0.05,0.11,0.12,0.18,0.12,0.25c-0.05,1.31-0.13,2.62-0.16,3.92c-0.03,1.11,0.03,2.23-0.01,3.34c-0.02,0.45-0.15,0.91-0.28,1.35
		c-0.17,0.55,0.14,0.79,0.59,1.07c0.66-0.74,0.36-1.58,0.36-2.38c0.19,0.04,0.38,0.07,0.74,0.14c0-0.89,0-1.77,0-2.64
		c0.09-0.01,0.18-0.01,0.27-0.02c0.06,0.19,0.17,0.38,0.16,0.57c-0.02,0.87-0.13,1.74-0.1,2.61c0.03,0.74,0.23,1.46,0.31,2.2
		c0.31,3.01,0.59,6.03,0.91,9.04c0.04,0.43,0.29,0.83,0.34,1.26c0.11,0.94,0.18,1.88,0.22,2.82c0.03,0.63,0.01,1.27-0.04,1.91
		c-0.03,0.38-0.15,0.74-0.23,1.12c-0.03,0.14-0.11,0.36-0.05,0.41c0.58,0.52,0.27,1.09,0.14,1.67c-0.7,3.28-1.36,6.57-2.08,9.84
		c-0.41,1.86-0.99,3.66-2.06,5.28c-0.48,0.73-0.82,1.55-1.29,2.29c-0.74,1.17-1.56,2.3-2.29,3.48c-0.33,0.53-0.54,1.13-0.81,1.7
		c-0.08,0.18-0.13,0.39-0.25,0.54c-1,1.37-2.12,2.67-3.74,3.27c-1.38,0.51-2.83,0.81-4.25,1.2c-0.83,0.23-1.75,0.21-2.44,0.86
		c-0.11,0.1-0.29,0.11-0.44,0.16c-2.2,0.7-4.4,1.41-6.61,2.08c-1.87,0.57-3.75,1.09-5.62,1.62c-0.15,0.04-0.35,0.02-0.46,0.11
		c-1.52,1.24-3.55,1.07-5.22,1.92c-0.69,0.35-1.55,0.33-2.33,0.51c-2.73,0.63-5.47,1.07-8.29,1c-1.91-0.05-3.83,0.17-5.74,0.25
		c-2.39,0.11-4.78,0.15-7.16,0.34c-0.99,0.08-2.05-0.01-2.97,0.59c1.98,0.31,3.96-0.08,5.98,0.22c-0.4,0.08-0.8,0.23-1.2,0.24
		c-4.79,0.12-9.57,0.21-14.36,0.32c-0.4,0.01-0.8,0.05-1.19,0.12c-3.91,0.67-7.87,0.89-11.8,1.36c-0.7,0.08-1.43,0.02-2.14,0.02
		c-0.2,0-0.4-0.06-0.59-0.04c-2.85,0.33-5.72,0.05-8.57,0.28c-1.95,0.16-3.91,0.33-5.86,0.37c-2.71,0.05-5.41,0.25-8.13-0.03
		c-1.49-0.15-3.02,0.16-4.53,0.21c-2.83,0.09-5.67,0.27-8.5,0.18c-3.19-0.11-6.37-0.49-9.55-0.73c-4.79-0.36-9.57-0.34-14.35,0.25
		c-3.63,0.45-7.29,0.71-10.94,1.02c-2.31,0.2-4.62,0.47-6.93,0.45c-2.74-0.03-5.49-0.34-8.23-0.54c-0.95-0.07-1.9-0.13-2.84-0.27
		c-1.06-0.16-2.11-0.4-3.17-0.59c-0.63-0.12-1.26-0.23-1.89-0.34c-2.16-0.37-4.32-0.67-6.36-1.56c-0.8-0.35-1.65-0.59-2.49-0.84
		c-1.97-0.59-3.74-1.58-5.45-2.7c-2.61-1.72-4.65-4.01-6.32-6.63c-0.34-0.54-0.78-1.03-1.04-1.6c-0.44-0.97-0.84-1.97-1.15-2.99
		c-0.94-3.13-1.85-6.27-2.73-9.42c-0.59-2.1-1.05-4.24-1.66-6.34c-0.67-2.34-1.49-4.63-2.16-6.97c-0.95-3.29-1.91-6.58-2.69-9.91
		c-0.52-2.24-0.91-4.51-0.98-6.84c-0.07-2.27-0.36-4.53-0.49-6.8c-0.13-2.39-0.33-4.79-0.24-7.17c0.11-3,0.22-6.02,0.92-8.97
		c0.05-0.19-0.01-0.45,0.1-0.58c0.84-1,0.87-2.18,0.86-3.39c0-0.49,0.23-0.99,0.35-1.48c0.12-0.46,0.29-0.92,0.33-1.39
		c0.24-2.85,1.18-5.52,2.07-8.21c1.25-3.79,2.47-7.58,3.26-11.5c0.74-3.66,1.54-7.31,2.32-10.97c0.02-0.08,0.08-0.16,0.07-0.23
		c-0.15-1.49,0.41-2.89,0.48-4.35c0.08-1.55,0.19-3.09,0.31-4.64c0.02-0.31,0.15-0.62,0.24-0.92c0.06-0.22,0.19-0.45,0.18-0.67
		c-0.07-2.73,0.2-5.45,0.42-8.17c0.07-0.9,0.34-1.78,0.49-2.68c0.23-1.37,0.43-2.75,0.63-4.13c0.06-0.39,0.02-0.8,0.06-1.19
		c0.11-0.94,0.23-1.89,0.37-2.83c0.21-1.41,0.46-2.82,0.67-4.24c0.24-1.61,0.46-3.22,0.68-4.84c0.09-0.67,0.27-1.33-0.07-2
		c-0.1-0.2-0.01-0.53,0.05-0.79c0.24-1.05,0.41-2.08,0.38-3.18c-0.03-1.27,0.22-2.54,0.34-3.81c0.1-1.06,0.19-2.13,0.12-3.23
		c-0.07,0.24-0.13,0.48-0.19,0.69c-0.16-0.96-0.33-1.96-0.5-2.95c0.63-0.54,1.21-1.16,1.91-1.59c0.66-0.41,1.45-0.63,2.18-0.93
		c0.44-0.18,0.93-0.3,1.32-0.55c1.52-0.98,3.17-1.17,4.93-1.07c1.19,0.06,2.39-0.07,3.58-0.19c0.5-0.05,0.97-0.35,1.47-0.42
		c0.7-0.09,1.42-0.02,2.12-0.11c1.85-0.25,3.68-0.58,5.53-0.83c0.86-0.12,1.74-0.12,2.61-0.15c2.11-0.08,4.23-0.09,6.34-0.24
		c1.82-0.13,3.62-0.41,5.47-0.83c-0.14-0.07-0.29-0.14-0.43-0.22c0.03-0.06,0.06-0.17,0.1-0.18c0.67-0.11,1.32-0.24,1.98,0.13
		c0.22,0.13,0.54,0.1,0.82,0.11c2.5,0.07,5.01,0.12,7.51,0.18c0.12,0,0.24,0.03,0.36,0.01c1.92-0.32,3.86-0.12,5.79-0.22
		c0.67-0.04,1.32-0.24,1.99-0.36c0.27-0.05,0.56-0.16,0.82-0.12c0.56,0.1,1.02,0.08,1.34-0.48c0.05-0.09,0.42,0.01,0.77,0.02
		c0.22-0.46,0.73-0.68,1.37-0.72c1.31-0.08,2.61-0.19,3.91-0.29c1.84,0.87,3.77-0.15,5.64,0.24c0.25,0.05,0.6,0,0.81-0.15
		c1.92-1.32,4.18-1.3,6.34-1.61c0.72-0.1,1.47-0.57,2.23-0.1c0.4-0.51,1-0.34,1.52-0.42c0.35-0.05,0.81-0.25,0.96,0.37
		c0.02,0.07,0.44,0.14,0.62,0.07c0.33-0.12,0.63-0.34,0.95-0.51c1.14-0.6,2.1-0.51,3.08,0.33c0.67-0.4,1.39-0.18,2.13-0.15
		c2.44,0.09,4.87,0.44,7.35-0.04c1.51-0.29,3.11-0.43,4.71-0.25c0.74,0.08,1.51-0.25,2.27-0.37c0.22-0.04,0.46-0.04,0.68-0.03
		c0.33,0.02,0.67,0.06,1.03-0.03c-0.19-0.11-0.39-0.23-0.58-0.34c0.04-0.1,0.08-0.2,0.12-0.3c0.98-0.14,1.96-0.29,3.17-0.46
		c-0.26,0.36-0.37,0.5-0.54,0.73c0.41,0,0.85,0.14,1.07-0.03c0.53-0.4,1.13-0.31,1.7-0.42c0.52-0.1,1.12,0.04,1.43-0.63
		c0.07-0.16,0.49-0.18,0.76-0.22c3.67-0.57,7.35-1.02,10.99-1.72c2.3-0.44,4.6-0.89,6.89-1.48c2.73-0.71,5.55-1.03,8.34-1.5
		c0.27-0.05,0.58-0.05,0.83,0.04c0.4,0.13,0.71,0.16,1.11-0.09c0.27-0.16,0.72-0.2,1.03-0.1c2.06,0.68,4.17,0.66,6.29,0.57
		c0.87-0.04,1.75-0.02,2.62-0.08c0.67-0.05,1.33,0.07,1.91-0.62c0.31-0.37,1.19-0.3,1.82-0.38c1.22-0.17,2.45-0.35,3.68-0.44
		c0.62-0.05,1.26,0.12,1.89,0.1c0.7-0.02,1.39-0.18,2.09-0.21c1.95-0.08,3.89-0.16,5.84-0.16c1.55,0,3.14-0.06,4.65,0.24
		c1.22,0.24,2.47,0.31,3.67,0.8c1.38,0.56,2.96,0.65,4.43,1.01c1,0.25,1.96,0.61,2.94,0.94c0.14,0.05,0.31,0.15,0.37,0.27
		c0.49,0.99,0.99,1.98,1.43,2.99c0.22,0.51,0.37,0.98,0.89,1.34c0.37,0.26,0.49,0.88,0.72,1.34c0.16,0.51-0.91,0.53-0.4,1.22
		c0.25-0.11,0.51-0.22,0.78-0.34c0.37,1.28,0.73,2.48,1.07,3.7c0.05,0.19,0.06,0.39,0.07,0.59c0.1,2.03,0.17,4.06,0.29,6.09
		c0.06,1.03,0.27,2.05,0.24,3.07c-0.02,0.58-0.29,1.16,0.03,1.73c0.06,0.11,0.24,0.16,0.36,0.25c-0.4,1.24-0.4,1.24,0.34,1.63
		C241.22,73.58,241.11,73.06,240.99,72.55z M170.15,235.45c-0.63,0.07-1.25,0.15-1.88,0.22
		C168.96,235.99,169.58,235.91,170.15,235.45c0.53,0.03,1.07,0.06,1.61,0.09c0-0.03,0-0.06,0-0.09
		C171.22,235.45,170.68,235.45,170.15,235.45z M238.46,61.58c0.34-0.35,0.54-0.71,0.11-1.26C238.52,60.83,238.49,61.21,238.46,61.58
		c0.39,0.68,0.41,1.42,0.37,2.18c-0.02,0.55-0.04,1.13,0.11,1.65c0.3,1.02,0.54,2.03,0.56,3.09c0,0.21,0.08,0.42,0.12,0.63
		c0.29-0.89,0.51-1.74,0.1-2.64c-0.17-0.36-0.09-0.85-0.11-1.27c-0.01-0.19,0.12-0.45,0.04-0.57c-0.41-0.62-0.24-1.29-0.21-1.95
		C239.47,61.83,239.46,61.81,238.46,61.58z M209.71,79.52c-0.19-0.05-0.4-0.07-0.57-0.16c-0.59-0.32-1.17-0.66-1.75-0.99
		c0.12-0.97-0.68-0.81-1.21-1.01c-0.25-0.1-0.46-0.3-0.7-0.45c-0.29-0.18-0.58-0.39-0.89-0.53c-1.29-0.55-2.65-0.43-4-0.39
		c-0.84,0.03-1.74,0.16-2.43-0.4c-0.55-0.44-1.07-0.37-1.66-0.27c-1.61,0.27-3.22,0.54-4.83,0.79c-0.86,0.14-1.76,0.12-2.58,0.39
		c-1.11,0.36-2.18,0.72-3.31,0.32c-0.58,0.59-1.18,0.88-1.98,0.57c-0.15,0.83-0.54,1.49-1.25,1.96c-0.33,0.22-0.61,0.51-0.93,0.76
		c-0.55,0.43-0.99,0.92-1.03,1.66c-0.02,0.46-0.25,0.75-0.72,0.82c-0.71,0.1-1.16,0.56-1.4,1.17c-0.16,0.42-0.39,0.65-0.8,0.8
		c-0.24,0.09-0.42,0.34-0.63,0.51c-0.26,0.22-0.48,0.51-0.77,0.65c-0.65,0.29-1.09,0.76-1.49,1.33c-0.31,0.44-0.74,0.81-1.17,1.14
		c-1.03,0.79-1.75,1.8-2.34,2.94c-0.62,1.19-1.27,2.37-1.95,3.52c-0.17,0.29-0.54,0.45-0.71,0.73c-0.33,0.54-0.57,1.14-0.85,1.71
		c-0.76,1.53-1.21,3.11-1.09,4.84c0.1,1.39,0.04,2.8,0.84,4.04c0.04,0.06,0.09,0.15,0.08,0.22c-0.06,1.44,0.56,2.7,1.07,3.99
		c0.08,0.22,0.17,0.45,0.33,0.61c0.69,0.72,1.4,1.42,2.1,2.13c1.03,1.04,2.06,2.08,3.02,3.19c1.15,1.34,2.55,2.48,3.91,3.63
		c0.59,0.5,1.2,1.22,2.19,0.69c0.14-0.08,0.43,0.12,0.65,0.17c1.14,0.28,2.28,0.61,3.43,0.82c1.19,0.21,2.4,0.1,3.63,0.37
		c2.13,0.48,4.31,0.75,6.54,0.58c1.38-0.11,2.79-0.04,4.18,0.04c1.13,0.07,2.2,0.14,3.34-0.16c1.29-0.33,2.69-0.28,4.04-0.32
		c1.73-0.05,3.39-0.27,4.95-1.12c0.7-0.38,1.57-0.47,2.36-0.7c0.49-0.14,1-0.24,1.47-0.44c1.57-0.68,2.53-2.03,3.39-3.38
		c0.79-1.22,1.46-2.57,1.92-3.94c0.68-2.01,1.71-3.83,2.65-5.71c0.26-0.52,0.5-1.06,0.73-1.55c-0.74-0.88-0.74-0.95-0.11-1.77
		c0.1-0.12,0.21-0.24,0.29-0.38c0.68-1.16,1.38-2.31,2.03-3.49c0.3-0.55,0.78-1.16,0.74-1.71c-0.07-0.9,0.2-1.54,0.76-2.08
		c-0.21-0.47-0.4-0.88-0.58-1.29c-0.24-0.54-0.7-1.06-0.23-1.71c0.02-0.03-0.06-0.15-0.12-0.2c-0.6-0.52-0.19-0.96-0.03-1.39
		c-0.08-0.42-0.16-0.83-0.2-1.04c-0.93-0.92-1.75-1.72-2.56-2.52c-0.58,0.39-0.58,0.39-1.36,0.21c-0.1,0.27-0.21,0.55-0.32,0.83
		c-0.26-0.12-0.46-0.22-0.69-0.33c-0.36,0.54-0.69,1.04-1.07,1.6c-0.52,0.14-1.17,0.24-1.28,1.07c-0.02,0.15-0.43,0.29-0.67,0.33
		c-0.11,0.02-0.37-0.36-0.37-0.36c0.66-0.67-0.05-1.05-0.37-1.41c-0.66-0.75-1.34-1.45-1.13-2.57c0.02-0.1-0.06-0.23-0.13-0.33
		c-0.6-0.84-1.18-1.7-1.83-2.51c-1.1-1.35-2.26-2.67-3.39-4c0.41-0.09,0.8,0.4,1.24,0.01c0.08-0.07,0.55,0.13,0.69,0.31
		c0.6,0.83,1.17,1.68,1.7,2.56c0.58,0.95,1.1,1.94,1.68,2.9c0.41,0.66,0.62,0.62,1.1-0.18c-1.55-2.34-2.9-4.86-5.15-6.65
		c-0.78,0.53-0.76,0.49-1.49,0.14c-0.27-0.13-0.65-0.05-0.97-0.06C209.68,79.26,209.69,79.39,209.71,79.52z M84.04,143.41
		c-0.49,0.14-0.81,0.39-0.82,0.97c-0.01,0.59-0.82,1.07-0.24,1.74c-0.59,0.68-0.6,1.81-1.7,2.12c-0.66,0.19-0.75,0.49-0.55,1.2
		c0.08,0.27,0.21,0.53,0.36,0.89c0.56-0.75,0.7-1.6,1.41-2.09c-0.21,0.98-0.51,1.92-0.83,2.85c-0.54,1.57-1.17,3.11-1.36,4.79
		c-0.05,0.44-0.35,0.87-0.59,1.27c-0.06,0.09-0.36,0.03-0.62,0.05c0.65-1.42,1.38-2.7,1.05-4.32c-0.79,0.4-0.31,1.21-0.71,1.7
		c-0.41,0.5-0.53,1.25-1.34,1.36c-0.3-0.73-0.13-1.34,0.16-1.99c0.27-0.62,0.4-1.3,0.64-2.11c-0.85,0.39-0.69,1.06-0.9,1.55
		c-0.17,0.4-0.14,0.95-0.41,1.22c-0.57,0.55-0.61,1.22-0.58,1.87c0.07,1.33-0.16,2.6-0.44,3.88c-0.2,0.92-0.2,1.89-0.28,2.84
		c-0.11,1.3-0.36,2.62-0.26,3.91c0.07,0.87,0.17,1.7-0.09,2.65c-0.11-0.34-0.19-0.6-0.27-0.85c-0.08,0-0.16,0.01-0.24,0.01
		c-0.07,0.56-0.15,1.12-0.23,1.75c0.53,0.16,0.72,0.54,0.61,1.08c-0.01,0.04-0.09,0.07-0.13,0.1c-0.06-0.22-0.12-0.43-0.24-0.87
		c-0.21,0.39-0.43,0.6-0.39,0.75c0.11,0.48,0.27,0.97,0.49,1.41c0.31,0.62,0.4,1.35-0.05,1.77c-0.64,0.6-0.45,1.17-0.19,1.7
		c0.42,0.86,0.31,1.7,0.16,2.56c-0.04,0.23-0.12,0.47-0.06,0.68c0.2,0.77,0.43,1.53,0.68,2.29c0.84,2.5,1.71,4.98,2.52,7.48
		c0.19,0.59,0.16,1.25,0.28,1.86c0.23,1.13,0.49,2.25,0.74,3.37c0.03,0.11,0.13,0.2,0.19,0.3c0.2,0.33,0.37,0.7,0.62,0.99
		c0.61,0.72,0.78,1.81,1.71,2.24c0.79,0.36,1.45,0.81,1.89,1.57c0.09,0.16,0.29,0.25,0.47,0.4c0.1-0.22,0.18-0.37,0.3-0.63
		c0.43,0.59,0.93,1.07,1.17,1.67c0.26,0.63,0.27,1.37,0.36,1.92c0.52,0.34,0.97,0.6,1.4,0.9c0.48,0.33,1.06,0.61,1.38,1.06
		c0.66,0.94,1.53,1.6,2.44,2.24c0.22,0.16,0.47,0.27,0.71,0.41c0.04-0.07,0.08-0.14,0.12-0.2c-0.39-0.32-0.78-0.65-1.18-0.97
		c3.45,2.21,7.16,3.71,11.18,4.9c-0.29-0.48-0.47-0.8-0.73-1.24c0.4,0,0.63-0.04,0.85,0.01c2.92,0.64,5.83,1.3,8.75,1.94
		c0.26,0.06,0.54,0.04,0.81,0.01c0.46-0.05,0.93-0.23,1.38-0.19c1.15,0.1,2.29,0.27,3.43,0.45c0.83,0.14,1.63,0.31,2.4-0.27
		c0.3-0.23,0.76-0.37,1.12-0.34c1.5,0.13,2.94-0.13,4.35-0.61c0.15-0.05,0.31-0.08,0.47-0.09c1.11-0.07,2.22-0.09,3.32-0.2
		c2.42-0.23,4.84-0.49,7.26-0.75c0.67-0.07,1.34-0.34,1.99-0.27c0.78,0.08,1.31-0.1,1.72-0.74c-0.25-0.28-0.51-0.56-0.83-0.92
		c0.4-0.15,0.69-0.31,0.99-0.36c2.12-0.38,4.25-0.69,6.36-1.11c2.29-0.46,4.51-0.96,6.4-2.6c1.66-1.44,3.34-2.82,4.73-4.53
		c0.53-0.65,1.14-1.23,1.72-1.83c1.79-1.88,3.41-3.87,4.39-6.33c0.56-1.4,1.37-2.69,2.07-4.03c0.33-0.63,0.5-1.36,1.25-1.68
		c0.12-0.05,0.25-0.26,0.24-0.38c-0.08-0.68,0.51-1.2,0.5-1.78c-0.02-0.98,1.19-1.85,0.24-2.88c0.12-0.74,0.13-1.53,0.39-2.22
		c0.86-2.3,1.99-4.5,2.54-6.92c0.12-0.52,0.7-1,0.67-1.48c-0.06-1.05,0.62-2.25-0.66-3.11c0.67-0.17,0.93-0.41,0.55-0.93
		c-0.61-0.84-0.67-1.82-0.55-2.78c0.09-0.76,0.12-1.51-0.02-2.25c-0.09-0.51-0.04-0.92,0.29-1.33c0.15-0.19,0.26-0.51,0.21-0.74
		c-0.17-0.77-0.41-1.52-0.64-2.27c-0.15-0.51-0.31-1.02,0.18-1.29c-0.36-0.43-0.93-0.81-0.91-1.16c0.07-1.07-0.59-1.86-0.82-2.81
		c-0.11-0.45-0.27-0.88-0.41-1.32c-0.27-0.81-0.29-1.67-0.7-2.48c-0.45-0.89-1.19-1.76-0.76-2.96c-1.04-0.65-1.41-1.61-1.37-2.76
		c0-0.12,0-0.24-0.03-0.36c-0.27-0.95-1.18-1.75-0.66-2.88c-0.55-1.23-1.11-2.47-1.66-3.7c-0.3-0.66-0.61-1.32-0.95-2.05
		c0.31,0.03,0.44,0.04,0.88,0.09c-0.46-0.39-0.68-0.75-0.93-0.76c-0.77-0.04-1.19-0.5-1.51-1.1c-0.59-1.09-1.19-2.16-2.06-3.05
		c-0.44-0.45-0.96-0.83-1.15-1.46c-0.24-0.79-0.65-1.41-1.42-1.79c-0.25-0.13-0.37-0.49-0.59-0.7c-0.53-0.5-1.08-0.99-1.64-1.46
		c-0.14-0.12-0.5-0.21-0.49-0.28c0.12-0.94-0.76-0.91-1.21-1.23c-0.82-0.59-1.35-1.4-1.99-2.15c-1.07-1.26-2.56-2.07-3.89-3.03
		c-1.37-0.98-3-1.62-4.56-2.33c-1.88-0.84-3.79-1.6-5.69-2.39c-0.88-0.36-1.79-0.66-2.62-1.11c-1.06-0.57-2.18-0.69-3.34-0.77
		c-0.67-0.05-1.4-0.05-1.99-0.32c-0.94-0.42-1.93-0.46-2.91-0.62c-0.2-0.03-0.4-0.04-0.59-0.11c-1.36-0.46-2.75-0.41-4.14-0.32
		c-0.43,0.03-0.88-0.06-1.29,0.05c-0.95,0.25-1.88,0.58-2.8,0.91c-0.33,0.12-0.63,0.3-0.93,0.49c-0.32,0.2-0.59,0.53-0.94,0.64
		c-0.93,0.32-1.79,0.7-2.31,1.61c1.48-0.28,2.95-0.56,4.38-0.83c0.22,0.38,0.39,0.67,0.63,1.08c-1.11-0.47-2.01-0.31-2.82,0.46
		c-0.14,0.14-0.45,0.13-0.68,0.14c-1.32,0.05-2.63,0.06-3.83,0.76c-0.23,0.13-0.54,0.12-0.81,0.19c-0.77,0.2-1.58,0.68-2.28,0.54
		c-1.03-0.21-1.49,0.58-2.22,0.84c-0.41,0.15-0.69,0.63-1.1,0.8c-1.13,0.47-2.27,0.99-3.46,1.22c-0.86,0.17-0.58,1.29-1.42,1.31
		c-0.1,0-0.25,0.24-0.26,0.37c-0.01,0.17,0.11,0.35,0.22,0.67c-0.59,0-1.08,0-1.47,0c-0.01,0.28,0.07,0.57-0.04,0.73
		c-0.4,0.56-0.38,1.08,0.08,1.6c-1.06,0.84-2.09,1.64-3.11,2.45c0.72,0.74,0.73,0.81,0.09,1.42c-0.25,0.24-0.5,0.47-0.75,0.7
		c0.63-0.17,1.22-0.4,1.73-0.75c0.51-0.34,0.93-0.83,1.68-0.63c-0.39,0.39-0.82,0.69-1.27,0.98c-0.16,0.11-0.94,1.44-0.93,1.67
		c0,0.04,0.13,0.07,0.23,0.13c0.83-0.43,1.36-1.4,2.43-1.49c-0.27,0.4-0.59,0.74-0.95,1.02c-1.18,0.88-2.4,1.7-3.57,2.6
		c-0.78,0.6-1.47,1.33-2.26,1.93c-0.39,0.3-0.87,0.53-1.34,0.63c-0.5,0.11-0.92,0.37-0.86,0.82c0.07,0.55-0.31,0.77-0.49,1.14
		c-0.19,0.39-0.43,0.75-0.59,1.15c-0.2,0.51-0.34,1.04-0.52,1.6c0.81-0.03,0.88-0.93,1.44-1.26c0.56-0.33,1.04-0.78,1.56-1.18
		c0.06,0.07,0.12,0.14,0.18,0.2c-0.54,1.06-0.88,2.27-2.23,2.68c-0.05,0.27-0.09,0.5-0.13,0.73c-0.03,0.15-0.11,0.34-0.06,0.45
		c0.31,0.61,0.02,0.74-0.53,0.84c-0.25,0.04-0.44,0.37-0.66,0.56c0.13,0.12,0.26,0.24,0.44,0.4c-0.41,0.64-0.82,1.27-1.27,1.96
		c-0.15-0.22-0.26-0.39-0.5-0.76c-0.31,0.62-0.54,1.09-0.78,1.57L84.04,143.41z M240.1,154.35c0.06,0.35,0.11,0.59,0.53,0.39
		c0.19-0.09,0.58-0.1,0.69,0.02c0.24,0.28,0.5,0.65,0.52,1.01c0.08,1.07,0.09,2.15,0.05,3.23c-0.05,1.44-0.08,2.89-0.27,4.32
		c-0.11,0.81-0.31,1.6-0.3,2.44c0.01,0.75,0.31,1.07,1.05,1.16c0.06-0.28,0.17-0.51,0.16-0.73c-0.04-0.98-0.18-1.97-0.16-2.95
		c0.03-1.33,0.24-2.66,0.25-4c0-0.62,0.05-1.06,0.82-1.14c-0.55-1.11-0.92-2.11-0.36-3.27c0.13-0.27,0.38-1-0.27-1.35
		c-0.28,0.41-0.53,0.77-0.79,1.16C241.37,153.95,240.75,154.05,240.1,154.35z M241.71,122.25c0,0.39-0.02,0.73,0,1.06
		c0.1,1.38,0.21,2.75,0.33,4.13c0.06,0.74-0.02,1.55,0.24,2.21c0.2,0.49,0.35,0.83,0.05,1.29c-0.08,0.12-0.13,0.34-0.07,0.43
		c0.56,0.94-0.1,1.67-0.45,2.57c0.38,0.06,0.72,0.12,1.23,0.2c-0.06-1.08-0.13-1.97-0.17-2.87c-0.03-0.51-0.03-1.03-0.04-1.54
		c-0.03-1.38,0-2.76-0.12-4.13c-0.07-0.85-0.19-1.63,0.7-2.25C242.91,122.89,242.77,122.15,241.71,122.25z M243.62,116.97
		c-0.03-0.38-0.04-0.55-0.06-0.73c-0.12-1.05-0.36-2.11-0.32-3.15c0.03-0.76-0.11-1.4-0.45-2.03c-0.02-0.03-0.12-0.01-0.25-0.03
		c-0.03,0.31-0.06,0.61-0.11,1.17c-0.34-1.02-0.59-1.79-0.85-2.56c-0.06,0-0.13,0-0.19,0c-0.09,1.48-0.19,2.95-0.28,4.43
		c0.05,0,0.1,0.01,0.16,0.01c0.07-0.17,0.13-0.34,0.24-0.61c0.19,0.15,0.3,0.23,0.42,0.32c0.11,0.09,0.22,0.18,0.29,0.24
		c0.22-0.12,0.36-0.2,0.48-0.27C243.14,114.79,242.32,116,243.62,116.97z M242.19,152.83c0.1-0.03,0.21-0.07,0.31-0.1
		c0-0.58,0.06-1.17-0.02-1.74c-0.07-0.56,0.06-0.9,0.65-1.01c0-0.47,0.03-0.95-0.01-1.42c-0.03-0.47-0.12-0.94-0.19-1.41
		c-0.04,0.01-0.07,0.01-0.11,0.02c-0.18,0.79-0.36,1.59-0.54,2.38c-0.49,0-0.9-0.02-0.97,0.62c-0.09,0.94-0.28,1.87-0.42,2.81
		c-0.01,0.06,0.04,0.13,0.09,0.26c0.25-0.29,0.48-0.55,0.7-0.8C241.9,152.59,242.04,152.71,242.19,152.83z M240.09,101.56
		c0.22,0.4,0.45,0.68,0.53,1c0.13,0.53,0.15,1.08,0.24,1.62c0.13,0.78,0.3,1.55,0.43,2.33c0.02,0.14,0,0.36-0.09,0.45
		c-0.67,0.64-0.25,1.03,0.47,1.53c-0.06-1.19-0.1-2.26-0.18-3.33c-0.09-1.15-0.02-2.35-0.38-3.41c-0.35-1.06,0.36-2.21-0.42-3.25
		C240.48,99.61,240.28,100.63,240.09,101.56z M240.05,89.39c-0.08,0.02-0.15,0.03-0.23,0.05c0.21,1.39,0.39,2.77-0.17,4.11
		c-0.04,0.09,0,0.27,0.07,0.33c0.56,0.48,0.5,1.12,0.48,1.76c-0.01,0.67,0,1.33,0,2.05c0.16-0.07,0.34-0.11,0.35-0.16
		c0.06-0.68,0.36-1.33,0.02-2.06c-0.21-0.45-0.1-1.06-0.09-1.59c0.01-0.55,0.17-1.12,0.08-1.64c-0.12-0.69-0.43-1.33-0.23-2.07
		C240.39,89.95,240.15,89.65,240.05,89.39z M251.41,179.56c-0.04,2.17-0.17,4.15,0.68,6.04c0.01-1.07-0.11-2.13-0.16-3.19
		c-0.02-0.37,0.1-0.75,0.18-1.12c0.09-0.41,0.21-0.81,0.3-1.18C252.06,179.91,251.82,179.78,251.41,179.56z M241.36,79.98
		c-0.1,0-0.2,0-0.3-0.01c-0.05,0.23-0.13,0.46-0.13,0.69c-0.04,1.54-0.06,3.08-0.08,4.62c-0.01,0.67-0.05,1.34-0.01,2.01
		c0.01,0.21,0.2,0.42,0.31,0.63c0.08-0.02,0.17-0.05,0.25-0.07c-0.08-1.3-0.22-2.6-0.23-3.9C241.15,82.62,241.28,81.3,241.36,79.98z
		 M240.42,182.17c0.53,1.15,0.63,2.13-0.26,2.69c0.26,0.32,0.52,0.63,0.79,0.96c0.64-0.71,0.65-0.83,0.34-3.19
		c-0.03-0.26-0.13-0.51-0.22-0.85C240.8,181.94,240.61,182.06,240.42,182.17z M242.52,146.22c0.69-0.73,0.87-2.41,0.48-3.74
		c-0.04-0.15-0.26-0.24-0.37-0.33c-0.05,0.69,0.04,1.35-0.17,1.88C242.16,144.77,242.33,145.38,242.52,146.22z M240.08,87.34
		c0-0.77-0.09-1.55,0.03-2.31c0.11-0.72-0.27-0.94-0.75-1.22C238.63,85.21,239.72,86.2,240.08,87.34z M178.76,234.9
		c1.32,0,2.64,0,3.95,0c0-0.08-0.01-0.17-0.01-0.25C181.38,234.72,180.05,234.48,178.76,234.9z M247.16,148.67
		c0.1-0.64,0.16-1.07,0.23-1.49c0.05-0.01,0.1-0.02,0.14-0.03c0.13,0.37,0.26,0.74,0.43,1.23c0.46-0.57,0.14-1.04,0.12-1.35
		c-0.5-0.34-0.88-0.6-1.51-1.03C247.21,146.88,246.42,147.73,247.16,148.67z M241.73,143.97c-0.09,0.94-0.25,1.88,0.17,2.79
		C241.89,145.83,242.4,144.86,241.73,143.97z M241.04,75.86c0.05,1.03,0.09,2.07,0.14,3.1C241.61,77.9,241.79,76.85,241.04,75.86z
		 M242.6,168.77c-0.86,0-0.92,0.04-1.02,0.59c-0.12,0.64-0.04,0.75,0.73,1.01C242.4,169.87,242.49,169.37,242.6,168.77z
		 M242.48,109.46c0.44-0.88,0.63-1.72-0.21-2.64C242.35,107.83,242.42,108.65,242.48,109.46z M87.73,132.9
		c-0.07-0.05-0.13-0.11-0.2-0.16c-1.1,0.62-1.13,0.66-0.83,1.75C87.07,133.92,87.4,133.41,87.73,132.9z M186.87,234.89
		c-0.01-0.08-0.02-0.16-0.03-0.23c-0.92,0-1.83,0-2.75,0c0,0.08,0,0.16,0,0.23C185.02,234.89,185.94,234.89,186.87,234.89z
		 M241.99,140.27c-0.07,0.01-0.14,0.03-0.22,0.04c0,0.71,0,1.42,0,2.13c0.07,0,0.14,0,0.22,0
		C241.99,141.71,241.99,140.99,241.99,140.27z M241.69,139.28c0.44-0.61,0.44-0.75,0-1.55C241.69,138.3,241.69,138.75,241.69,139.28
		z M242.28,177.42c-0.91,0.44-0.29,0.99-0.38,1.51c0.08,0.01,0.16,0.01,0.24,0.02C242.19,178.44,242.23,177.93,242.28,177.42z
		 M90.91,126.65c0.6-0.12,1.13-0.31,1.19-1.07C91.7,125.93,91.3,126.29,90.91,126.65z M243.71,121.81
		c-0.07-0.52-0.16-1.11-0.25-1.73c-0.57,0.17-0.61,0.37-0.36,0.71C243.33,121.11,243.51,121.47,243.71,121.81z M242.39,116.07
		c-0.43,0.07-0.65,0.1-0.92,0.14c0.04,0.31,0.08,0.57,0.12,0.84c0.08,0.02,0.17,0.04,0.25,0.06
		C242,116.81,242.15,116.52,242.39,116.07z M242.53,137c0.14,0,0.28-0.01,0.42-0.01c-0.11-0.46,0.34-0.93-0.34-1.61
		C242.58,136.07,242.56,136.54,242.53,137z M239.48,78.93c0,0.7,0,1.19,0,1.69C239.86,80.09,240.07,79.57,239.48,78.93z
		 M244.76,102.09c-0.09,0.01-0.18,0.02-0.27,0.03c0.14,0.43-0.19,0.95,0.49,1.49C244.89,102.96,244.83,102.53,244.76,102.09z
		 M245.37,93.29c-0.08-0.5-0.17-1-0.25-1.51C244.91,92.32,244.74,92.85,245.37,93.29z M245.08,132.5c0.09-0.01,0.19-0.02,0.28-0.03
		c-0.03-0.25-0.07-0.51-0.1-0.76c-0.06,0-0.12,0.01-0.18,0.01C245.08,131.98,245.08,132.24,245.08,132.5z M245.59,130.13
		c-0.1,0.02-0.19,0.05-0.29,0.07c0.05,0.23,0.1,0.46,0.15,0.69c0.09-0.02,0.18-0.04,0.26-0.06
		C245.67,130.6,245.63,130.36,245.59,130.13z M242.52,140.46c0.11,0.02,0.22,0.04,0.33,0.06c0.06-0.31,0.11-0.61,0.17-0.92
		C242.67,139.85,242.31,140.07,242.52,140.46z M242.4,120.29c-0.26,0.69-0.26,0.69,0.15,1.12
		C242.49,120.97,242.45,120.63,242.4,120.29z M245.36,139.8c0.11-0.01,0.21-0.03,0.32-0.04c-0.04-0.3-0.08-0.59-0.12-0.89
		c-0.09,0.01-0.18,0.02-0.27,0.03C245.31,139.21,245.33,139.5,245.36,139.8z M171.32,172.2c0.12-0.02,0.24-0.04,0.36-0.06
		c-0.01-0.16,0-0.33-0.04-0.48c-0.05-0.14-0.16-0.27-0.24-0.4c-0.06,0.02-0.12,0.04-0.18,0.06
		C171.25,171.62,171.29,171.91,171.32,172.2z M246.82,138.74c-0.4,0.39-0.71,0.76,0.06,1.07
		C246.86,139.39,246.84,139.07,246.82,138.74z M240.98,89.35c0.1-0.02,0.19-0.05,0.29-0.07c-0.06-0.18-0.12-0.37-0.19-0.55
		c-0.06,0.02-0.13,0.04-0.19,0.05C240.92,88.98,240.95,89.16,240.98,89.35z M241.69,136.57c0.02,0,0.04,0,0.06,0c0-0.33,0-0.67,0-1
		c-0.04,0-0.07,0-0.11,0C241.66,135.9,241.67,136.24,241.69,136.57z M239.35,77.02c0.1-0.02,0.19-0.03,0.29-0.05
		c-0.08-0.28-0.17-0.57-0.25-0.85c-0.07,0.02-0.14,0.04-0.21,0.06C239.23,76.46,239.29,76.74,239.35,77.02z M241.96,168.06
		c0.09,0.05,0.18,0.1,0.28,0.15c0.1-0.2,0.21-0.4,0.31-0.61c-0.09-0.05-0.18-0.09-0.26-0.14
		C242.18,167.66,242.07,167.86,241.96,168.06z M252.47,179.03c-0.09,0.03-0.19,0.06-0.28,0.09c0.05,0.16,0.09,0.33,0.15,0.49
		c0,0.01,0.19-0.03,0.19-0.04C252.52,179.38,252.5,179.21,252.47,179.03z M240.66,189.55c0.06,0,0.13-0.01,0.19-0.01
		c0.02-0.13,0.06-0.26,0.04-0.39c-0.01-0.1-0.1-0.19-0.15-0.29c-0.06,0.02-0.12,0.05-0.17,0.07
		C240.6,189.14,240.63,189.34,240.66,189.55z M239.47,89.32c-0.06-0.13-0.1-0.23-0.15-0.33c-0.09,0.09-0.21,0.17-0.26,0.28
		c-0.02,0.04,0.11,0.16,0.17,0.24C239.32,89.44,239.39,89.38,239.47,89.32z M243.73,123.38c0.07-0.03,0.14-0.06,0.21-0.09
		c-0.05-0.14-0.09-0.27-0.14-0.41c-0.06,0.03-0.18,0.07-0.17,0.1C243.65,123.12,243.7,123.25,243.73,123.38z M241.59,118.06
		c-0.08-0.01-0.16-0.02-0.23-0.02c0.03,0.21,0.06,0.43,0.09,0.64c0.07-0.01,0.13-0.02,0.2-0.03
		C241.63,118.45,241.61,118.25,241.59,118.06z"/>
	<path class="st0" d="M36.22,246.63c0.82,0.53,1.66,1.03,2.46,1.6c1.39,0.99,2.82,1.95,4.11,3.07c0.89,0.78,1.94,0.85,2.97,1.1
		c1.24,0.31,2.32,0.95,3.44,1.51c0.31,0.16,0.59,0.42,0.92,0.5c1.93,0.49,3.86,0.97,5.8,1.41c1.21,0.27,2.43,0.61,3.65,0.64
		c1.77,0.04,3.48,0.62,5.29,0.37c0.92-0.13,1.89,0.17,2.85,0.25c1.59,0.13,3.17,0.23,4.76,0.35c0.13,0.01,0.26,0.09,0.65,0.24
		c-0.48,0.11-0.69,0.2-0.91,0.21c-1.19,0.02-2.38,0.05-3.57,0.02c-0.71-0.02-1.42-0.14-2.14-0.2c-3.05-0.26-6.11-0.59-9.17-0.76
		c-2.37-0.13-4.66-0.53-6.89-1.37c-1.44-0.54-3-0.81-4.36-1.48c-1.97-0.97-4.23-1.47-5.74-3.26c-0.17-0.2-0.48-0.28-0.71-0.42
		c-0.62-0.37-1.15-0.79-1.55-1.44c-0.39-0.63-1.01-1.12-1.53-1.66c-0.16-0.17-0.31-0.34-0.47-0.51
		C36.12,246.74,36.17,246.68,36.22,246.63z"/>
	<path class="st0" d="M197.28,234.55c1.75-0.07,3.5-0.15,5.25-0.22c0,0.11,0.01,0.21,0.01,0.32c-1.75,0.17-3.51,0.33-5.27,0.27
		C197.28,234.79,197.28,234.67,197.28,234.55z"/>
	<path class="st0" d="M241.08,67.28c-0.11-1.66-0.23-3.33-0.34-4.99c0.1-0.01,0.2-0.01,0.3-0.02c0.12,1.65,0.24,3.29,0.36,4.94
		C241.29,67.23,241.18,67.26,241.08,67.28z"/>
	<path class="st0" d="M74.65,257.11c0.58,0,1.15,0,1.73,0C76.14,258.01,76.14,258.01,74.65,257.11z"/>
	<path class="st0" d="M248.12,124.5c0.44,0.97-0.36,2.1,0.86,2.62c-0.4,0.35-0.79,0.34-0.83-0.03
		C248.06,126.3,248.12,125.48,248.12,124.5z"/>
	<path class="st0" d="M252.83,172c0.34,0.58,0.21,1.08-0.27,1.64C252.05,172.92,252.68,172.5,252.83,172z"/>
	<path class="st0" d="M32.72,71.6c0.22-0.26,0.45-0.46,0.74-0.14c0.06,0.07,0.02,0.33-0.06,0.4C33.07,72.14,32.86,71.94,32.72,71.6z
		"/>
	<path class="st0" d="M147.37,255.02c-0.3,0.08-0.6,0.16-1.03,0.29C146.62,254.66,146.99,254.83,147.37,255.02z"/>
	<path class="st0" d="M108.37,256.96c-0.33-0.06-0.66-0.12-1.1-0.19C107.84,256.53,107.84,256.53,108.37,256.96z"/>
	<path class="st0" d="M26.64,88.85c-0.12,0.27-0.25,0.54-0.41,0.9c-0.41-0.59,0.06-0.75,0.15-1.05
		C26.46,88.76,26.55,88.8,26.64,88.85z"/>
	<path class="st0" d="M248.76,129.26c-0.02-0.13-0.04-0.26-0.06-0.4c0.08,0.04,0.18,0.07,0.23,0.14c0.03,0.04-0.01,0.14-0.02,0.21
		C248.86,129.23,248.81,129.25,248.76,129.26z"/>
	<path d="M84.03,143.43c0.24-0.48,0.47-0.95,0.78-1.57c0.24,0.36,0.35,0.53,0.5,0.76c0.44-0.69,0.85-1.32,1.27-1.96
		c-0.18-0.16-0.31-0.28-0.44-0.4c0.22-0.2,0.42-0.52,0.66-0.56c0.55-0.1,0.84-0.23,0.53-0.84c-0.06-0.11,0.03-0.3,0.06-0.45
		c0.04-0.23,0.08-0.46,0.13-0.73c1.35-0.41,1.69-1.62,2.23-2.68c-0.06-0.07-0.12-0.14-0.18-0.2c-0.52,0.4-1,0.85-1.56,1.18
		c-0.56,0.33-0.63,1.23-1.44,1.26c0.18-0.57,0.32-1.1,0.52-1.6c0.16-0.4,0.4-0.76,0.59-1.15c0.18-0.36,0.56-0.59,0.49-1.14
		c-0.06-0.45,0.36-0.7,0.86-0.82c0.47-0.11,0.96-0.34,1.34-0.63c0.78-0.6,1.47-1.33,2.26-1.93c1.17-0.9,2.39-1.72,3.57-2.6
		c0.37-0.27,0.68-0.62,0.95-1.02c-1.08,0.09-1.61,1.06-2.43,1.49c-0.11-0.06-0.23-0.09-0.23-0.13c0-0.23,0.77-1.57,0.93-1.67
		c0.44-0.29,0.88-0.6,1.27-0.98c-0.75-0.2-1.17,0.29-1.68,0.63c-0.51,0.34-1.1,0.58-1.73,0.75c0.25-0.23,0.5-0.47,0.75-0.7
		c0.64-0.61,0.63-0.69-0.09-1.42c1.03-0.81,2.05-1.62,3.11-2.45c-0.47-0.52-0.48-1.04-0.08-1.6c0.11-0.16,0.03-0.45,0.04-0.73
		c0.39,0,0.88,0,1.47,0c-0.12-0.32-0.23-0.5-0.22-0.67c0.01-0.13,0.16-0.37,0.26-0.37c0.84-0.03,0.56-1.15,1.42-1.31
		c1.19-0.23,2.33-0.75,3.46-1.22c0.41-0.17,0.69-0.65,1.1-0.8c0.74-0.26,1.19-1.05,2.22-0.84c0.7,0.14,1.51-0.34,2.28-0.54
		c0.27-0.07,0.58-0.05,0.81-0.19c1.2-0.69,2.51-0.71,3.83-0.76c0.23-0.01,0.54,0,0.68-0.14c0.81-0.77,1.71-0.93,2.82-0.46
		c-0.24-0.41-0.41-0.7-0.63-1.08c-1.43,0.27-2.91,0.55-4.38,0.83c0.52-0.91,1.38-1.29,2.31-1.61c0.34-0.12,0.61-0.44,0.94-0.64
		c0.3-0.19,0.6-0.37,0.93-0.49c0.93-0.33,1.85-0.66,2.8-0.91c0.4-0.11,0.86-0.02,1.29-0.05c1.4-0.09,2.79-0.14,4.14,0.32
		c0.19,0.06,0.39,0.07,0.59,0.11c0.98,0.16,1.96,0.2,2.91,0.62c0.59,0.27,1.32,0.27,1.99,0.32c1.16,0.08,2.28,0.2,3.34,0.77
		c0.83,0.45,1.74,0.74,2.62,1.11c1.9,0.79,3.82,1.54,5.69,2.39c1.56,0.7,3.19,1.34,4.56,2.33c1.33,0.95,2.81,1.77,3.89,3.03
		c0.64,0.75,1.16,1.56,1.99,2.15c0.45,0.32,1.34,0.3,1.21,1.23c-0.01,0.07,0.34,0.15,0.49,0.28c0.56,0.48,1.11,0.96,1.64,1.46
		c0.22,0.21,0.34,0.57,0.59,0.7c0.77,0.39,1.18,1,1.42,1.79c0.19,0.63,0.71,1.01,1.15,1.46c0.87,0.89,1.47,1.96,2.06,3.05
		c0.32,0.6,0.74,1.05,1.51,1.1c0.25,0.01,0.48,0.38,0.93,0.76c-0.44-0.04-0.57-0.06-0.88-0.09c0.34,0.74,0.65,1.39,0.95,2.05
		c0.56,1.23,1.11,2.46,1.66,3.7c-0.52,1.13,0.38,1.93,0.66,2.88c0.03,0.11,0.03,0.24,0.03,0.36c-0.03,1.15,0.34,2.12,1.37,2.76
		c-0.44,1.2,0.3,2.07,0.76,2.96c0.41,0.8,0.43,1.66,0.7,2.48c0.14,0.44,0.3,0.87,0.41,1.32c0.23,0.94,0.88,1.74,0.82,2.81
		c-0.02,0.34,0.55,0.73,0.91,1.16c-0.48,0.27-0.33,0.78-0.18,1.29c0.22,0.76,0.47,1.51,0.64,2.27c0.05,0.22-0.06,0.55-0.21,0.74
		c-0.33,0.41-0.38,0.82-0.29,1.33c0.13,0.74,0.1,1.49,0.02,2.25c-0.11,0.96-0.06,1.94,0.55,2.78c0.38,0.52,0.11,0.76-0.55,0.93
		c1.28,0.86,0.6,2.06,0.66,3.11c0.03,0.48-0.56,0.96-0.67,1.48c-0.55,2.42-1.68,4.62-2.54,6.92c-0.26,0.69-0.27,1.48-0.39,2.22
		c0.95,1.03-0.26,1.9-0.24,2.88c0.01,0.57-0.58,1.1-0.5,1.78c0.01,0.12-0.12,0.33-0.24,0.38c-0.75,0.32-0.93,1.06-1.25,1.68
		c-0.7,1.34-1.51,2.63-2.07,4.03c-0.99,2.46-2.6,4.45-4.39,6.33c-0.58,0.61-1.19,1.19-1.72,1.83c-1.4,1.71-3.07,3.09-4.73,4.53
		c-1.89,1.63-4.11,2.14-6.4,2.6c-2.11,0.42-4.24,0.73-6.36,1.11c-0.3,0.05-0.58,0.21-0.99,0.36c0.33,0.36,0.58,0.64,0.83,0.92
		c-0.41,0.64-0.95,0.82-1.72,0.74c-0.65-0.07-1.32,0.2-1.99,0.27c-2.42,0.26-4.84,0.52-7.26,0.75c-1.1,0.1-2.22,0.13-3.32,0.2
		c-0.16,0.01-0.32,0.04-0.47,0.09c-1.41,0.48-2.85,0.74-4.35,0.61c-0.37-0.03-0.83,0.11-1.12,0.34c-0.77,0.59-1.57,0.41-2.4,0.27
		c-1.14-0.19-2.28-0.35-3.43-0.45c-0.45-0.04-0.92,0.14-1.38,0.19c-0.27,0.03-0.55,0.04-0.81-0.01c-2.92-0.64-5.83-1.3-8.75-1.94
		c-0.22-0.05-0.45-0.01-0.85-0.01c0.26,0.44,0.45,0.76,0.73,1.24c-4.02-1.19-7.73-2.69-11.18-4.9c0.39,0.32,0.78,0.65,1.18,0.97
		c-0.04,0.07-0.08,0.14-0.12,0.2c-0.24-0.14-0.49-0.25-0.71-0.41c-0.91-0.64-1.78-1.3-2.44-2.24c-0.32-0.45-0.9-0.73-1.38-1.06
		c-0.43-0.3-0.87-0.57-1.4-0.9c-0.09-0.55-0.11-1.28-0.36-1.92c-0.24-0.59-0.74-1.08-1.17-1.67c-0.12,0.25-0.19,0.41-0.3,0.63
		c-0.18-0.15-0.38-0.25-0.47-0.4c-0.44-0.76-1.11-1.21-1.89-1.57c-0.93-0.43-1.09-1.52-1.71-2.24c-0.25-0.29-0.41-0.66-0.62-0.99
		c-0.06-0.1-0.17-0.19-0.19-0.3c-0.26-1.12-0.52-2.24-0.74-3.37c-0.12-0.61-0.09-1.27-0.28-1.86c-0.81-2.5-1.68-4.99-2.52-7.48
		c-0.25-0.75-0.48-1.52-0.68-2.29c-0.05-0.21,0.02-0.46,0.06-0.68c0.15-0.87,0.26-1.7-0.16-2.56c-0.26-0.53-0.45-1.11,0.19-1.7
		c0.45-0.41,0.36-1.15,0.05-1.77c-0.22-0.44-0.38-0.93-0.49-1.41c-0.03-0.15,0.18-0.36,0.39-0.75c0.12,0.44,0.18,0.64,0.24,0.87
		c0.04-0.03,0.12-0.06,0.13-0.1c0.11-0.54-0.09-0.92-0.61-1.08c0.08-0.63,0.16-1.19,0.23-1.75c0.08,0,0.16-0.01,0.24-0.01
		c0.08,0.25,0.16,0.51,0.27,0.85c0.27-0.95,0.16-1.78,0.09-2.65c-0.1-1.29,0.15-2.61,0.26-3.91c0.08-0.95,0.08-1.92,0.28-2.84
		c0.28-1.29,0.51-2.55,0.44-3.88c-0.04-0.65,0.01-1.32,0.58-1.87c0.27-0.26,0.24-0.82,0.41-1.22c0.21-0.49,0.05-1.15,0.9-1.55
		c-0.24,0.81-0.37,1.49-0.64,2.11c-0.29,0.65-0.46,1.27-0.16,1.99c0.81-0.11,0.93-0.86,1.34-1.36c0.4-0.49-0.08-1.3,0.71-1.7
		c0.34,1.62-0.39,2.9-1.05,4.32c0.25-0.01,0.56,0.05,0.62-0.05c0.24-0.4,0.54-0.83,0.59-1.27c0.19-1.68,0.83-3.22,1.36-4.79
		c0.32-0.93,0.62-1.87,0.83-2.85c-0.7,0.5-0.85,1.35-1.41,2.09c-0.15-0.36-0.28-0.62-0.36-0.89c-0.21-0.71-0.12-1,0.55-1.2
		c1.1-0.32,1.11-1.44,1.7-2.12c-0.57-0.68,0.24-1.16,0.24-1.74c0.01-0.58,0.33-0.83,0.82-0.98c0.26-0.08,0.66,0.36,0.85-0.4
		C84.52,143.19,84.28,143.31,84.03,143.43z M96.25,185.49c0,0.1,0,0.19,0,0.29c0.57,0.05,1.15,0.12,1.72,0.14
		c2.19,0.11,4.39,0.29,6.58,0.28c2.02,0,4.03-0.22,6.05-0.33c2.03-0.11,4.06-0.2,6.09-0.31c0.63-0.03,1.27-0.01,1.89-0.11
		c2.46-0.4,4.92-0.8,7.37-1.27c2.11-0.41,4.21-0.86,6.29-1.39c1.15-0.29,2.26-0.75,3.39-1.14c2.3-0.8,4.35-1.95,5.86-3.94
		c0.55-0.73,1.12-1.52,1.86-2.01c1.46-0.97,2.3-2.36,3.04-3.84c0.61-1.23,1.13-2.51,1.68-3.77c0.11-0.25,0.15-0.53,0.22-0.79
		c0.14-0.54,0.24-1.09,0.44-1.6c0.91-2.37,1.85-4.73,2.77-7.09c0.38-0.96,0.74-1.92,1.12-2.87c0.15-0.39,0.41-0.78,0.44-1.19
		c0.07-0.9,0.14-1.78-0.01-2.71c-0.17-1.11-0.21-2.27,0.19-3.42c0.61-1.77,0.21-2.55-1.37-3.53c-1.64-1.02-3.25-2.11-4.87-3.18
		c-0.16-0.1-0.38-0.25-0.39-0.4c-0.06-0.58-0.58-0.62-0.93-0.82c-0.44-0.26-0.92-0.42-1.38-0.66c-0.88-0.45-1.72-1.04-2.65-1.34
		c-1.03-0.34-2-0.86-3.27-0.52c-0.9,0.24-2.01-0.26-3.02-0.43c-0.55-0.09-1.09-0.23-1.64-0.27c-2.37-0.17-4.68,0.23-6.95,0.86
		c-0.52,0.14-1.03,0.5-1.59,0.05c-0.07-0.06-0.28,0.04-0.41,0.09c-1.27,0.45-2.54,0.92-3.82,1.35c-0.83,0.28-1.67,0.64-2.53,0.7
		c-1.37,0.1-2.52,0.68-3.65,1.33c-1.55,0.89-3.08,1.82-4.62,2.73c-2.29,1.35-4.57,2.74-6.44,4.66c-1.46,1.51-2.85,3.09-4.24,4.67
		c-0.47,0.53-0.95,1.08-1.25,1.71c-0.56,1.17-0.98,2.42-1.48,3.62c-0.87,2.1-1.61,4.24-1.98,6.48c-0.36,2.2-0.86,4.38-0.85,6.63
		c0.01,1.79-0.17,3.59,0.53,5.32c0.76,1.88,1.33,3.82,1.31,5.89c0,0.62,0.07,1.3,0.84,1.56c0.05,0.02,0.06,0.12,0.1,0.19
		C96.53,185.24,96.39,185.36,96.25,185.49z M77.51,156.8c0.41,0.82,0.5,1.44,0.03,2.16c-0.41,0.64-0.45,1.44-0.32,2.33
		c0.36-0.6,0.68-1.07,0.93-1.57c0.13-0.27,0.17-0.6,0.19-0.9c0.03-0.62,0.01-1.23,0.01-1.97C78.13,156.83,77.86,156.81,77.51,156.8z
		 M153.86,148.49c0.11,0.01,0.22,0.03,0.33,0.04c0.46-0.49,0.23-1.08,0.15-1.64c-0.09-0.01-0.17-0.02-0.26-0.03
		C154.01,147.4,153.94,147.94,153.86,148.49z M77.43,163.18c-0.06,0.01-0.12,0.02-0.18,0.02c0,0.25,0,0.51,0,0.76
		c0.05,0,0.1,0,0.15,0C77.4,163.7,77.41,163.44,77.43,163.18z M83.26,145.13c0.07,0.07,0.13,0.15,0.2,0.22
		c0.16-0.17,0.33-0.35,0.49-0.52c-0.05-0.05-0.1-0.11-0.15-0.16C83.63,144.82,83.45,144.98,83.26,145.13z M93.73,131.95
		c-0.07-0.06-0.14-0.12-0.21-0.18c-0.11,0.16-0.22,0.32-0.33,0.49c0.06,0.04,0.12,0.09,0.18,0.13
		C93.49,132.24,93.61,132.1,93.73,131.95z M93.7,130.18c-0.41,0.42-0.57,0.65,0.06,0.88C93.74,130.79,93.72,130.58,93.7,130.18z"/>
	<path d="M210.86,80.11c1.13,1.33,2.29,2.64,3.39,4c0.65,0.8,1.23,1.67,1.83,2.51c0.07,0.09,0.15,0.23,0.13,0.33
		c-0.21,1.12,0.48,1.82,1.13,2.57c0.31,0.36,1.02,0.74,0.37,1.41c0,0,0.26,0.38,0.37,0.36c0.24-0.04,0.65-0.19,0.67-0.33
		c0.11-0.83,0.75-0.94,1.28-1.07c0.38-0.57,0.71-1.06,1.07-1.6c0.23,0.11,0.44,0.21,0.69,0.33c0.11-0.28,0.22-0.56,0.32-0.83
		c0.78,0.19,0.78,0.19,1.36-0.21c0.8,0.79,1.62,1.6,2.56,2.52c0.04,0.21,0.12,0.63,0.2,1.04c-0.17,0.43-0.57,0.87,0.03,1.39
		c0.06,0.05,0.13,0.17,0.12,0.2c-0.47,0.65-0.01,1.16,0.23,1.71c0.18,0.41,0.37,0.82,0.58,1.29c-0.56,0.54-0.83,1.18-0.76,2.08
		c0.04,0.55-0.43,1.16-0.74,1.71c-0.65,1.17-1.35,2.33-2.03,3.49c-0.08,0.14-0.19,0.25-0.29,0.38c-0.63,0.81-0.63,0.88,0.11,1.77
		c-0.23,0.5-0.47,1.03-0.73,1.55c-0.94,1.88-1.98,3.7-2.65,5.71c-0.46,1.38-1.13,2.72-1.92,3.94c-0.87,1.35-1.83,2.7-3.39,3.38
		c-0.47,0.2-0.98,0.3-1.47,0.44c-0.79,0.23-1.65,0.31-2.36,0.7c-1.56,0.85-3.22,1.07-4.95,1.12c-1.35,0.04-2.75-0.01-4.04,0.32
		c-1.15,0.29-2.22,0.22-3.34,0.16c-1.39-0.08-2.8-0.15-4.18-0.04c-2.22,0.18-4.41-0.1-6.54-0.58c-1.22-0.27-2.43-0.16-3.63-0.37
		c-1.16-0.2-2.29-0.54-3.43-0.82c-0.22-0.05-0.5-0.25-0.65-0.17c-0.98,0.53-1.6-0.19-2.19-0.69c-1.36-1.15-2.76-2.29-3.91-3.63
		c-0.96-1.12-1.99-2.15-3.02-3.19c-0.7-0.71-1.41-1.41-2.1-2.13c-0.15-0.16-0.24-0.4-0.33-0.61c-0.5-1.29-1.12-2.55-1.07-3.99
		c0-0.07-0.04-0.15-0.08-0.22c-0.8-1.24-0.74-2.65-0.84-4.04c-0.12-1.74,0.34-3.32,1.09-4.84c0.28-0.57,0.53-1.16,0.85-1.71
		c0.17-0.29,0.55-0.45,0.71-0.73c0.68-1.16,1.33-2.33,1.95-3.52c0.59-1.14,1.31-2.15,2.34-2.94c0.43-0.33,0.86-0.7,1.17-1.14
		c0.4-0.57,0.83-1.04,1.49-1.33c0.3-0.13,0.52-0.43,0.77-0.65c0.21-0.18,0.39-0.42,0.63-0.51c0.41-0.15,0.63-0.38,0.8-0.8
		c0.24-0.61,0.69-1.07,1.4-1.17c0.47-0.07,0.69-0.36,0.72-0.82c0.04-0.74,0.48-1.23,1.03-1.66c0.31-0.25,0.6-0.54,0.93-0.76
		c0.71-0.47,1.1-1.13,1.25-1.96c0.8,0.31,1.4,0.02,1.98-0.57c1.13,0.4,2.2,0.04,3.31-0.32c0.82-0.27,1.72-0.25,2.58-0.39
		c1.61-0.25,3.22-0.52,4.83-0.79c0.59-0.1,1.11-0.18,1.66,0.27c0.69,0.55,1.59,0.42,2.43,0.4c1.35-0.04,2.71-0.17,4,0.39
		c0.32,0.13,0.6,0.34,0.89,0.53c0.24,0.15,0.45,0.35,0.7,0.45c0.53,0.2,1.33,0.04,1.21,1.01c0.58,0.33,1.16,0.68,1.75,0.99
		c0.17,0.09,0.38,0.11,0.57,0.16c0,0-0.06-0.01-0.06-0.01c0.41,0.21,0.83,0.42,1.24,0.63L210.86,80.11z M203.7,103.06
		c-0.35-0.78-0.64-1.45-0.94-2.13c0.8,0.32,0.72,1.49,1.73,1.76c0.05-0.33,0.17-0.6,0.1-0.83c-0.19-0.63-0.36-1.29-0.71-1.84
		c-0.52-0.82-0.72-1.65-0.55-2.33c-0.51-0.7-0.86-1.25-1.28-1.74c-0.56-0.65-1.04-1.35-1.97-1.63c-1.03-0.31-2.23-0.29-3.04-1.22
		c-0.1-0.12-0.38-0.14-0.57-0.13c-0.75,0.01-1.5,0.04-2.25,0.07c-0.47,0.02-1.02,0.23-1.41,0.07c-0.92-0.38-1.61,0.12-2.37,0.38
		c-0.45,0.15-0.84,0.51-1.29,0.61c-1.36,0.28-1.74,1.35-2.04,2.45c-0.24,0.85-0.34,1.73-0.5,2.59c-0.29-0.02-0.44-0.04-0.74-0.06
		c-0.02,1.57,0,3.12-0.08,4.65c-0.05,0.96,0.7,1.27,1.2,1.79c0.35,0.36,0.78,0.77,1.31,0.19c0.05-0.06,0.25-0.04,0.34,0.01
		c1.06,0.63,2.17,0.21,3.26,0.18c0.31-0.01,0.75,0,0.9-0.19c0.67-0.88,1.53-0.66,2.41-0.58c0.33,0.03,0.91-0.02,0.99-0.2
		c0.48-1.06,1.37-0.9,2.24-0.9c0.27,0,0.66,0.02,0.78-0.14c0.53-0.65,1.21-0.48,1.88-0.47C201.9,103.43,202.75,103.56,203.7,103.06z
		"/>
	<path d="M240.1,154.35c0.65-0.3,1.26-0.4,1.91,0.29c0.27-0.39,0.51-0.75,0.79-1.16c0.64,0.35,0.4,1.08,0.27,1.35
		c-0.56,1.16-0.19,2.16,0.36,3.27c-0.77,0.08-0.82,0.51-0.82,1.14c-0.01,1.33-0.22,2.66-0.25,4c-0.02,0.98,0.12,1.97,0.16,2.95
		c0.01,0.22-0.09,0.45-0.16,0.73c-0.75-0.1-1.05-0.41-1.05-1.16c-0.01-0.84,0.19-1.63,0.3-2.44c0.2-1.43,0.23-2.88,0.27-4.32
		c0.03-1.08,0.03-2.16-0.05-3.23c-0.03-0.35-0.28-0.73-0.52-1.01c-0.11-0.12-0.49-0.11-0.69-0.02
		C240.21,154.94,240.16,154.7,240.1,154.35z"/>
	<path d="M241.71,122.25c1.05-0.09,1.19,0.65,1.69,1.11c-0.89,0.61-0.77,1.4-0.7,2.25c0.12,1.37,0.09,2.75,0.12,4.13
		c0.01,0.51,0.01,1.03,0.04,1.54c0.04,0.9,0.11,1.79,0.17,2.87c-0.51-0.08-0.85-0.14-1.23-0.2c0.36-0.9,1.02-1.63,0.45-2.57
		c-0.06-0.1,0-0.32,0.07-0.43c0.3-0.46,0.15-0.79-0.05-1.29c-0.27-0.66-0.18-1.47-0.24-2.21c-0.11-1.38-0.23-2.75-0.33-4.13
		C241.69,122.97,241.71,122.63,241.71,122.25z"/>
	<path d="M209.65,79.51c0,0,0.06,0,0.06,0.01c-0.02-0.13-0.03-0.26-0.05-0.39c0.33,0.01,0.7-0.07,0.97,0.06
		c0.74,0.36,0.72,0.39,1.49-0.14c2.25,1.8,3.59,4.31,5.15,6.65c-0.48,0.8-0.69,0.84-1.1,0.18c-0.58-0.95-1.1-1.94-1.68-2.9
		c-0.53-0.87-1.1-1.73-1.7-2.56c-0.14-0.19-0.6-0.39-0.69-0.31c-0.45,0.39-0.84-0.1-1.24-0.01c0,0,0.03,0.03,0.03,0.03
		C210.59,79.73,210.17,79.52,209.65,79.51z"/>
	<path d="M243.62,116.97c-1.29-0.97-0.47-2.18-0.93-3.2c-0.12,0.06-0.26,0.14-0.48,0.27c-0.07-0.06-0.18-0.15-0.29-0.24
		c-0.11-0.09-0.23-0.18-0.42-0.32c-0.1,0.26-0.17,0.44-0.24,0.61c-0.05,0-0.1-0.01-0.16-0.01c0.09-1.48,0.19-2.95,0.28-4.43
		c0.06,0,0.13,0,0.19,0c0.26,0.77,0.51,1.55,0.85,2.56c0.05-0.56,0.08-0.86,0.11-1.17c0.12,0.01,0.23-0.01,0.25,0.03
		c0.34,0.63,0.48,1.27,0.45,2.03c-0.04,1.05,0.2,2.1,0.32,3.15C243.58,116.41,243.59,116.59,243.62,116.97z"/>
	<path d="M242.19,152.83c-0.15-0.12-0.29-0.24-0.49-0.4c-0.22,0.26-0.45,0.52-0.7,0.8c-0.05-0.13-0.1-0.2-0.09-0.26
		c0.14-0.94,0.32-1.87,0.42-2.81c0.06-0.64,0.48-0.62,0.97-0.62c0.18-0.79,0.36-1.58,0.54-2.38c0.04-0.01,0.07-0.01,0.11-0.02
		c0.07,0.47,0.16,0.94,0.19,1.41c0.03,0.47,0.01,0.95,0.01,1.42c-0.59,0.11-0.72,0.45-0.65,1.01c0.07,0.57,0.02,1.16,0.02,1.74
		C242.4,152.76,242.29,152.8,242.19,152.83z"/>
	<path d="M240.09,101.56c0.18-0.93,0.39-1.95,0.61-3.07c0.77,1.05,0.06,2.19,0.42,3.25c0.36,1.06,0.29,2.27,0.38,3.41
		c0.08,1.07,0.12,2.14,0.18,3.33c-0.72-0.49-1.13-0.88-0.47-1.53c0.09-0.09,0.11-0.3,0.09-0.45c-0.13-0.78-0.29-1.55-0.43-2.33
		c-0.09-0.54-0.11-1.09-0.24-1.62C240.54,102.24,240.31,101.96,240.09,101.56z"/>
	<path d="M238.46,61.58c1.01,0.23,1.02,0.24,0.98,1.11c-0.03,0.66-0.2,1.32,0.21,1.95c0.08,0.13-0.05,0.38-0.04,0.57
		c0.01,0.43-0.06,0.91,0.11,1.27c0.41,0.9,0.19,1.75-0.1,2.64c-0.04-0.21-0.12-0.42-0.12-0.63c-0.01-1.06-0.26-2.08-0.56-3.09
		c-0.15-0.52-0.13-1.1-0.11-1.65C238.87,63,238.85,62.27,238.46,61.58L238.46,61.58z"/>
	<path d="M240.05,89.39c0.1,0.26,0.34,0.56,0.28,0.78c-0.21,0.74,0.11,1.38,0.23,2.07c0.09,0.53-0.07,1.09-0.08,1.64
		c-0.01,0.54-0.12,1.14,0.09,1.59c0.34,0.73,0.05,1.38-0.02,2.06c-0.01,0.05-0.19,0.09-0.35,0.16c0-0.72-0.01-1.38,0-2.05
		c0.01-0.64,0.07-1.28-0.48-1.76c-0.07-0.06-0.11-0.25-0.07-0.33c0.56-1.34,0.38-2.72,0.17-4.11
		C239.89,89.42,239.97,89.4,240.05,89.39z"/>
	<path d="M251.41,179.56c0.41,0.22,0.65,0.35,1,0.55c-0.1,0.37-0.21,0.77-0.3,1.18c-0.08,0.37-0.2,0.75-0.18,1.12
		c0.05,1.06,0.17,2.12,0.16,3.19C251.25,183.71,251.37,181.72,251.41,179.56z"/>
	<path d="M241.36,79.98c-0.07,1.32-0.2,2.64-0.2,3.96c0,1.3,0.15,2.6,0.23,3.9c-0.08,0.02-0.17,0.05-0.25,0.07
		c-0.11-0.21-0.3-0.41-0.31-0.63c-0.03-0.67,0-1.34,0.01-2.01c0.02-1.54,0.04-3.08,0.08-4.62c0.01-0.23,0.09-0.46,0.13-0.69
		C241.15,79.97,241.25,79.97,241.36,79.98z"/>
	<path d="M240.42,182.17c0.19-0.11,0.39-0.23,0.66-0.4c0.09,0.35,0.18,0.6,0.22,0.85c0.31,2.36,0.3,2.48-0.34,3.19
		c-0.27-0.33-0.53-0.64-0.79-0.96C241.05,184.3,240.95,183.33,240.42,182.17z"/>
	<path d="M242.52,146.22c-0.19-0.85-0.36-1.46-0.06-2.19c0.22-0.54,0.12-1.2,0.17-1.88c0.11,0.09,0.33,0.19,0.37,0.33
		C243.39,143.82,243.21,145.49,242.52,146.22z"/>
	<path d="M240.08,87.34c-0.37-1.15-1.46-2.13-0.73-3.53c0.48,0.28,0.86,0.51,0.75,1.22C240,85.79,240.08,86.57,240.08,87.34z"/>
	<path d="M178.76,234.9c1.28-0.42,2.62-0.18,3.95-0.25c0,0.08,0.01,0.17,0.01,0.25C181.4,234.9,180.08,234.9,178.76,234.9z"/>
	<path d="M247.16,148.67c-0.74-0.94,0.05-1.79-0.59-2.67c0.63,0.43,1.01,0.69,1.51,1.03c0.02,0.31,0.34,0.78-0.12,1.35
		c-0.17-0.48-0.3-0.85-0.43-1.23c-0.05,0.01-0.1,0.02-0.14,0.03C247.32,147.61,247.26,148.03,247.16,148.67z"/>
	<path d="M241.73,143.97c0.67,0.89,0.15,1.86,0.17,2.79C241.49,145.86,241.64,144.91,241.73,143.97z"/>
	<path d="M241.04,75.86c0.75,0.99,0.57,2.04,0.14,3.1C241.13,77.93,241.08,76.89,241.04,75.86z"/>
	<path d="M242.6,168.77c-0.11,0.6-0.21,1.1-0.3,1.6c-0.77-0.26-0.85-0.37-0.73-1.01C241.68,168.81,241.74,168.77,242.6,168.77z"/>
	<path d="M242.48,109.46c-0.07-0.81-0.13-1.63-0.21-2.64C243.12,107.74,242.92,108.58,242.48,109.46z"/>
	<path d="M87.73,132.9c-0.33,0.51-0.66,1.02-1.03,1.59c-0.29-1.09-0.27-1.13,0.83-1.75C87.6,132.79,87.67,132.85,87.73,132.9z"/>
	<path d="M186.87,234.89c-0.93,0-1.85,0-2.78,0c0-0.08,0-0.16,0-0.23c0.92,0,1.83,0,2.75,0
		C186.85,234.74,186.86,234.82,186.87,234.89z"/>
	<path d="M241.99,140.27c0,0.72,0,1.44,0,2.17c-0.07,0-0.14,0-0.22,0c0-0.71,0-1.42,0-2.13
		C241.84,140.3,241.92,140.28,241.99,140.27z"/>
	<path d="M241.69,139.28c0-0.52,0-0.98,0-1.55C242.13,138.53,242.13,138.67,241.69,139.28z"/>
	<path d="M242.28,177.42c-0.04,0.51-0.09,1.02-0.13,1.52c-0.08-0.01-0.16-0.01-0.24-0.02C241.99,178.41,241.36,177.86,242.28,177.42
		z"/>
	<path d="M90.91,126.65c0.4-0.36,0.79-0.71,1.19-1.07C92.03,126.33,91.5,126.53,90.91,126.65z"/>
	<path d="M243.71,121.81c-0.2-0.34-0.38-0.7-0.61-1.02c-0.25-0.34-0.21-0.55,0.36-0.71C243.55,120.7,243.63,121.29,243.71,121.81z"
		/>
	<path d="M242.39,116.07c-0.24,0.45-0.39,0.75-0.55,1.04c-0.08-0.02-0.17-0.04-0.25-0.06c-0.04-0.27-0.08-0.53-0.12-0.84
		C241.74,116.17,241.96,116.13,242.39,116.07z"/>
	<path d="M242.53,137c0.02-0.47,0.05-0.94,0.09-1.62c0.68,0.68,0.22,1.15,0.34,1.61C242.82,137,242.67,137,242.53,137z"/>
	<path d="M239.48,78.93c0.6,0.64,0.38,1.16,0,1.69C239.48,80.12,239.48,79.63,239.48,78.93z"/>
	<path d="M244.76,102.09c0.07,0.44,0.13,0.87,0.23,1.52c-0.68-0.54-0.35-1.07-0.49-1.49C244.59,102.11,244.67,102.1,244.76,102.09z"
		/>
	<path d="M170.14,235.45c-0.56,0.45-1.19,0.54-1.88,0.22C168.89,235.6,169.52,235.53,170.14,235.45
		C170.15,235.45,170.14,235.45,170.14,235.45z"/>
	<path d="M240.99,72.55c0.11,0.51,0.22,1.02,0.35,1.62c-0.73-0.39-0.73-0.39-0.34-1.63C241.01,72.54,240.99,72.55,240.99,72.55z"/>
	<path d="M245.37,93.29c-0.63-0.44-0.47-0.97-0.25-1.51C245.21,92.28,245.29,92.78,245.37,93.29z"/>
	<path d="M245.08,132.5c0-0.26,0-0.52,0-0.78c0.06,0,0.12-0.01,0.18-0.01c0.03,0.25,0.07,0.51,0.1,0.76
		C245.27,132.48,245.17,132.49,245.08,132.5z"/>
	<path d="M245.59,130.13c0.04,0.24,0.08,0.47,0.12,0.71c-0.09,0.02-0.18,0.04-0.26,0.06c-0.05-0.23-0.1-0.46-0.15-0.69
		C245.4,130.18,245.49,130.15,245.59,130.13z"/>
	<path d="M242.52,140.46c-0.22-0.39,0.15-0.61,0.5-0.85c-0.06,0.31-0.11,0.61-0.17,0.92C242.74,140.5,242.63,140.48,242.52,140.46z"
		/>
	<path d="M242.4,120.29c0.05,0.34,0.09,0.68,0.15,1.12C242.14,120.98,242.14,120.98,242.4,120.29z"/>
	<path d="M245.36,139.8c-0.02-0.3-0.05-0.6-0.07-0.9c0.09-0.01,0.18-0.02,0.27-0.03c0.04,0.3,0.08,0.59,0.12,0.89
		C245.57,139.77,245.47,139.79,245.36,139.8z"/>
	<path d="M171.32,172.2c-0.04-0.29-0.07-0.58-0.11-0.87c0.06-0.02,0.12-0.04,0.18-0.06c0.08,0.13,0.19,0.25,0.24,0.4
		c0.05,0.15,0.03,0.32,0.04,0.48C171.56,172.17,171.44,172.18,171.32,172.2z"/>
	<path d="M246.82,138.74c0.02,0.32,0.04,0.65,0.06,1.07C246.11,139.5,246.43,139.13,246.82,138.74z"/>
	<path d="M238.46,61.58c0.03-0.38,0.06-0.75,0.1-1.26C239,60.88,238.8,61.24,238.46,61.58C238.46,61.58,238.46,61.58,238.46,61.58z"
		/>
	<path d="M170.15,235.45c0.54,0,1.07,0,1.61,0c0,0.03,0,0.06,0,0.09C171.22,235.51,170.68,235.48,170.15,235.45
		C170.14,235.45,170.15,235.45,170.15,235.45z"/>
	<path d="M240.98,89.35c-0.03-0.19-0.06-0.38-0.09-0.57c0.06-0.02,0.13-0.04,0.19-0.05c0.06,0.18,0.12,0.37,0.19,0.55
		C241.17,89.3,241.07,89.33,240.98,89.35z"/>
	<path d="M241.69,136.57c-0.02-0.33-0.03-0.67-0.05-1c0.04,0,0.07,0,0.11,0c0,0.33,0,0.67,0,1
		C241.73,136.57,241.71,136.57,241.69,136.57z"/>
	<path d="M239.35,77.02c-0.06-0.28-0.11-0.56-0.17-0.84c0.07-0.02,0.14-0.04,0.21-0.06c0.08,0.28,0.17,0.57,0.25,0.85
		C239.54,76.99,239.44,77.01,239.35,77.02z"/>
	<path d="M241.96,168.06c0.11-0.2,0.22-0.4,0.32-0.6c0.09,0.05,0.18,0.09,0.26,0.14c-0.1,0.2-0.21,0.4-0.31,0.61
		C242.15,168.15,242.05,168.11,241.96,168.06z"/>
	<path d="M252.47,179.03c0.02,0.18,0.05,0.36,0.06,0.54c0,0.01-0.19,0.05-0.19,0.04c-0.06-0.16-0.1-0.32-0.15-0.49
		C252.28,179.09,252.38,179.06,252.47,179.03z"/>
	<path d="M240.66,189.55c-0.03-0.21-0.06-0.41-0.09-0.62c0.06-0.02,0.12-0.05,0.17-0.07c0.05,0.1,0.14,0.19,0.15,0.29
		c0.02,0.13-0.02,0.26-0.04,0.39C240.79,189.55,240.73,189.55,240.66,189.55z"/>
	<path d="M239.47,89.32c-0.08,0.07-0.16,0.12-0.23,0.18c-0.06-0.08-0.19-0.19-0.17-0.24c0.05-0.11,0.17-0.19,0.26-0.28
		C239.37,89.08,239.42,89.18,239.47,89.32z"/>
	<path d="M243.73,123.38c-0.04-0.13-0.08-0.26-0.1-0.4c0-0.03,0.11-0.07,0.17-0.1c0.05,0.14,0.09,0.27,0.14,0.41
		C243.87,123.32,243.8,123.35,243.73,123.38z"/>
	<path d="M241.59,118.06c0.02,0.2,0.03,0.39,0.05,0.59c-0.07,0.01-0.13,0.02-0.2,0.03c-0.03-0.21-0.06-0.43-0.09-0.64
		C241.44,118.04,241.51,118.05,241.59,118.06z"/>
	<path class="st0" d="M96.25,185.49c0.14-0.13,0.28-0.25,0.42-0.38c-0.03-0.07-0.05-0.18-0.1-0.19c-0.77-0.25-0.85-0.93-0.84-1.56
		c0.01-2.07-0.55-4-1.31-5.89c-0.7-1.73-0.52-3.53-0.53-5.32c-0.01-2.25,0.49-4.43,0.85-6.63c0.37-2.24,1.11-4.38,1.98-6.48
		c0.5-1.2,0.92-2.45,1.48-3.62c0.3-0.63,0.78-1.18,1.25-1.71c1.39-1.57,2.77-3.16,4.24-4.67c1.87-1.92,4.15-3.3,6.44-4.66
		c1.54-0.91,3.07-1.84,4.62-2.73c1.14-0.65,2.28-1.23,3.65-1.33c0.86-0.06,1.7-0.42,2.53-0.7c1.28-0.43,2.55-0.9,3.82-1.35
		c0.14-0.05,0.34-0.14,0.41-0.09c0.56,0.44,1.07,0.09,1.59-0.05c2.28-0.63,4.58-1.03,6.95-0.86c0.55,0.04,1.09,0.18,1.64,0.27
		c1.01,0.17,2.12,0.67,3.02,0.43c1.27-0.34,2.24,0.18,3.27,0.52c0.93,0.31,1.77,0.89,2.65,1.34c0.45,0.23,0.94,0.4,1.38,0.66
		c0.35,0.21,0.87,0.24,0.93,0.82c0.02,0.15,0.24,0.3,0.39,0.4c1.62,1.07,3.22,2.15,4.87,3.18c1.58,0.98,1.97,1.76,1.37,3.53
		c-0.39,1.15-0.36,2.31-0.19,3.42c0.15,0.93,0.08,1.81,0.01,2.71c-0.03,0.4-0.29,0.79-0.44,1.19c-0.37,0.96-0.74,1.92-1.12,2.87
		c-0.93,2.36-1.86,4.72-2.77,7.09c-0.2,0.51-0.29,1.07-0.44,1.6c-0.07,0.27-0.11,0.55-0.22,0.79c-0.55,1.26-1.07,2.54-1.68,3.77
		c-0.74,1.48-1.58,2.87-3.04,3.84c-0.74,0.49-1.3,1.29-1.86,2.01c-1.51,1.99-3.56,3.14-5.86,3.94c-1.13,0.39-2.24,0.85-3.39,1.14
		c-2.08,0.52-4.18,0.98-6.29,1.39c-2.45,0.47-4.91,0.87-7.37,1.27c-0.62,0.1-1.26,0.08-1.89,0.11c-2.03,0.1-4.06,0.2-6.09,0.31
		c-2.02,0.11-4.04,0.32-6.05,0.33c-2.19,0.01-4.39-0.17-6.58-0.28c-0.57-0.03-1.15-0.09-1.72-0.14
		C96.25,185.68,96.25,185.58,96.25,185.49z"/>
	<path class="st0" d="M77.51,156.8c0.35,0.02,0.62,0.03,0.84,0.04c0,0.74,0.02,1.36-0.01,1.97c-0.01,0.3-0.05,0.63-0.19,0.9
		c-0.25,0.51-0.57,0.98-0.93,1.57c-0.14-0.88-0.1-1.68,0.32-2.33C78.01,158.24,77.92,157.62,77.51,156.8z"/>
	<path class="st0" d="M153.86,148.49c0.07-0.54,0.15-1.09,0.22-1.63c0.09,0.01,0.17,0.02,0.26,0.03c0.09,0.56,0.31,1.15-0.15,1.64
		C154.08,148.52,153.97,148.5,153.86,148.49z"/>
	<path class="st0" d="M77.43,163.18c-0.01,0.26-0.02,0.52-0.03,0.78c-0.05,0-0.1,0-0.15,0c0-0.25,0-0.51,0-0.76
		C77.3,163.2,77.36,163.19,77.43,163.18z"/>
	<path class="st0" d="M83.26,145.13c0.18-0.15,0.37-0.31,0.55-0.46c0.05,0.05,0.1,0.11,0.15,0.16c-0.16,0.17-0.33,0.35-0.49,0.52
		C83.4,145.28,83.33,145.2,83.26,145.13z"/>
	<path class="st0" d="M93.73,131.95c-0.12,0.14-0.24,0.29-0.36,0.43c-0.06-0.04-0.12-0.09-0.18-0.13c0.11-0.16,0.22-0.32,0.33-0.49
		C93.59,131.83,93.66,131.89,93.73,131.95z"/>
	<path class="st0" d="M93.7,130.18c0.03,0.39,0.04,0.61,0.06,0.88C93.13,130.84,93.29,130.61,93.7,130.18z"/>
	<path class="st0" d="M84.03,143.43c0.24-0.12,0.49-0.24,0.86-0.42c-0.19,0.76-0.59,0.32-0.85,0.4
		C84.04,143.41,84.03,143.43,84.03,143.43z"/>
	<path class="st0" d="M203.7,103.06c-0.95,0.5-1.8,0.37-2.62,0.36c-0.67-0.01-1.35-0.18-1.88,0.47c-0.13,0.16-0.52,0.14-0.78,0.14
		c-0.87-0.01-1.76-0.17-2.24,0.9c-0.08,0.18-0.66,0.23-0.99,0.2c-0.88-0.08-1.74-0.3-2.41,0.58c-0.14,0.18-0.59,0.18-0.9,0.19
		c-1.09,0.03-2.2,0.44-3.26-0.18c-0.09-0.05-0.29-0.07-0.34-0.01c-0.54,0.58-0.97,0.17-1.31-0.19c-0.5-0.51-1.25-0.83-1.2-1.79
		c0.09-1.54,0.06-3.08,0.08-4.65c0.3,0.02,0.45,0.04,0.74,0.06c0.16-0.85,0.27-1.74,0.5-2.59c0.3-1.1,0.68-2.17,2.04-2.45
		c0.45-0.09,0.84-0.46,1.29-0.61c0.76-0.26,1.46-0.76,2.37-0.38c0.39,0.16,0.93-0.05,1.41-0.07c0.75-0.03,1.5-0.06,2.25-0.07
		c0.19,0,0.47,0.01,0.57,0.13c0.81,0.93,2,0.91,3.04,1.22c0.94,0.28,1.41,0.98,1.97,1.63c0.42,0.49,0.77,1.04,1.28,1.74
		c-0.17,0.68,0.03,1.51,0.55,2.33c0.34,0.55,0.52,1.21,0.71,1.84c0.07,0.22-0.05,0.5-0.1,0.83c-1.01-0.28-0.93-1.44-1.73-1.76
		C203.06,101.61,203.35,102.28,203.7,103.06z"/>
	<path class="st0" d="M209.65,79.51c0.52,0.01,0.93,0.21,1.24,0.63C210.48,79.93,210.07,79.72,209.65,79.51z"/>
</g>
</svg>
