<?xml version="1.0" encoding="utf-8"?>
<!-- Generator: Adobe Illustrator 26.5.0, SVG Export Plug-In . SVG Version: 6.00 Build 0)  -->
<svg version="1.1" id="Vrstva_1" xmlns="http://www.w3.org/2000/svg" xmlns:xlink="http://www.w3.org/1999/xlink" x="0px" y="0px"
	 viewBox="0 0 143.04 183.84" style="enable-background:new 0 0 143.04 183.84;" xml:space="preserve">
<style type="text/css">
	.st0{fill:#FFFFFF;}
</style>
<g>
	<path d="M125.54,94.32c-0.17,0.34-0.35,0.57-0.4,0.84c-0.1,0.48-0.17,0.97-0.19,1.47c-0.04,1.18-0.04,2.36-0.07,3.54
		c-0.01,0.49-0.02,0.98-0.11,1.46c-0.1,0.5-0.32,0.97-0.48,1.46c-0.05,0.15-0.1,0.31-0.09,0.46c0.02,0.65,0.13,1.3,0.09,1.94
		c-0.03,0.5-0.25,0.99-0.38,1.49c-0.06,0.25-0.11,0.5-0.14,0.75c-0.04,0.43-0.01,0.87-0.1,1.29c-0.18,0.82-0.29,1.63-0.29,2.48
		c0,0.41-0.17,0.89-0.09,1.37c0.06,0.32,0.15,0.65,0.16,0.97c0.01,0.85-0.04,1.7-0.03,2.55c0.01,0.55,0.07,1.1,0.03,1.62
		c-0.09,0.32-0.25,0.64-0.25,0.96c-0.01,0.95,0.06,1.9,0.06,2.85c0,0.24-0.16,0.48-0.23,0.73c-0.06,0.21-0.16,0.42-0.14,0.62
		c0.1,1.07-0.07,2.09-0.39,3.11c-0.04,0.11-0.08,0.23-0.07,0.35c0.04,0.82,0.08,1.65,0.14,2.47c0.02,0.29,0.11,0.53-0.23,0.78
		c-0.21,0.15-0.32,0.57-0.32,0.86c0,0.86,0.08,1.72,0.13,2.57c0.01,0.12,0.09,0.28,0.04,0.34c-0.67,0.82,0,1.74-0.22,2.59
		c-0.05,0.21-0.11,0.42-0.18,0.63c-0.09,0.26-0.25,0.52-0.27,0.78c-0.06,0.67-0.04,1.36-0.09,2.03c-0.03,0.38-0.12,0.77-0.23,1.14
		c-0.1,0.34-0.29,0.66-0.01,1.01c0.03,0.04-0.06,0.29-0.13,0.3c-0.15,0.03-0.32-0.02-0.54-0.05c-0.3,0.46-0.37,0.99-0.06,1.51
		c0.28,0.48,0.41,0.87-0.03,1.37c-0.27,0.31-0.33,0.79-0.53,1.32c-0.03-0.22-0.05-0.34-0.08-0.51c-0.1,0.09-0.21,0.13-0.23,0.21
		c-0.21,0.75-0.43,1.5-0.6,2.27c-0.14,0.61-0.2,1.24-0.31,1.85c-0.17,0.93-0.35,1.86-0.54,2.78c-0.15,0.76-0.33,1.51-0.49,2.27
		c-0.05,0.23-0.09,0.46-0.16,0.69c-0.04,0.14-0.08,0.35-0.18,0.39c-0.69,0.29-0.87,0.88-1.06,1.53c-0.19,0.65-0.49,1.28-0.81,1.88
		c-0.55,1.04-1.14,2.06-1.72,3.08c-0.26,0.46-0.48,0.88-0.5,1.47c-0.02,0.56-0.44,1.13-0.74,1.66c-0.21,0.37-0.76,0.49-0.71,1.08
		c0.01,0.13-0.42,0.31-0.66,0.44c-0.16,0.08-0.34,0.13-0.51,0.16c-0.83,0.16-0.92,0.85-0.96,1.47c-0.02,0.36-0.1,0.46-0.4,0.49
		c-0.63,0.05-1.12,0.3-1.52,0.82c-0.21,0.26-0.63,0.37-0.97,0.52c-0.31,0.13-0.63,0.29-0.95,0.32c-0.73,0.07-1.47,0.05-2.2,0.1
		c-0.47,0.03-0.93,0.16-1.4,0.17c-0.69,0.02-1.39,0-2.09-0.03c-0.74-0.03-1.48-0.09-2.22-0.12c-1.59-0.05-3.17-0.15-4.76-0.12
		c-1.67,0.03-3.35,0.12-5.01,0.31c-0.55,0.06-1.06,0.2-1.59-0.03c-0.06-0.03-0.17-0.01-0.22,0.03c-0.64,0.46-1.28,0.16-1.95,0.08
		c-0.94-0.12-1.9-0.13-2.85-0.16c-1.82-0.05-3.63-0.11-5.45-0.12c-0.64,0-1.28,0.11-1.93,0.28c0.4,0.05,0.79,0.1,1.19,0.15
		c0,0.06-0.01,0.12-0.01,0.18c-0.28,0-0.57,0.03-0.85,0c-1.01-0.12-2.02-0.29-3.03-0.38c-0.65-0.06-1.31-0.04-1.97-0.03
		c-2.05,0.02-4.11,0.09-6.16,0.05c-0.9-0.02-1.79-0.3-2.69-0.42c-0.88-0.11-1.77-0.16-2.65-0.25c-0.99-0.1-1.97-0.2-2.96-0.31
		c-0.9-0.09-1.8-0.17-2.7-0.28c-1.15-0.15-2.3-0.35-3.45-0.51c-0.95-0.13-1.89-0.26-2.69-0.86c-0.08-0.06-0.18-0.09-0.28-0.11
		c-2.44-0.39-4.53-1.76-6.87-2.44c-1.08-0.32-2.11-0.84-3.17-1.23c-0.52-0.19-1.1-0.21-1.61-0.42c-0.92-0.37-1.79-0.88-2.72-1.24
		c-1.88-0.73-3.26-2.03-4.33-3.68c-0.11-0.17-0.06-0.44-0.09-0.66c-0.02-0.14,0-0.33-0.08-0.42c-1.58-1.68-1.89-3.88-2.31-5.99
		c-0.29-1.44-0.28-2.93-0.39-4.4c-0.07-0.89-0.14-1.78-0.14-2.67c0-1.21,0.08-2.42,0.09-3.62c0-0.66-0.07-1.33-0.11-1.99
		c-0.09,0.03-0.17,0.06-0.26,0.1c-0.15-0.2-0.33-0.38-0.46-0.59c-0.41-0.67-0.37-1.54-1.12-2.08c-0.34-0.25-0.36-0.92-0.68-1.23
		c-0.6-0.58-0.51-1.27-0.46-1.95c0.07-0.87,0.25-1.74,0.32-2.61c0.18-1.97,0.3-3.95,0.49-5.92c0.06-0.66,0.32-1.3,0.42-1.95
		c0.34-2.2,0.72-4.39,0.93-6.6c0.14-1.48,0.02-2.99,0.02-4.48c0.01-2.21,0.01-4.43,0.05-6.64c0.02-1.47,0.16-2.95,0.13-4.42
		c-0.03-1.61-0.2-3.22-0.31-4.83c-0.02-0.26-0.13-0.56,0.27-0.69c0.06-0.02,0.09-0.24,0.08-0.36c-0.12-1.45-0.3-2.89-0.37-4.33
		c-0.1-2.31-0.14-4.62-0.17-6.93c-0.02-1.47,0.02-2.94,0.01-4.4c0-1.19-0.05-2.37-0.04-3.56c0.01-0.46,0.13-0.92,0.3-1.37
		c0,0.86,0,1.71,0,2.57c0.04,0,0.08,0.01,0.13,0.01c0.03-0.14,0.08-0.28,0.1-0.42c0.13-1.38,0.28-2.76,0.38-4.14
		c0.04-0.52-0.1-1.06-0.07-1.59c0.06-1.52,0.19-3.04,0.25-4.56c0.06-1.29,0.05-2.58,0.11-3.86c0.08-1.61,0.21-3.21,0.31-4.81
		c0.04-0.74,0.02-1.49,0.07-2.23c0.07-0.92,0.16-1.85,0.28-2.77c0.11-0.84,0.28-1.67,0.42-2.51c0.08-0.52,0.43-1.02,0.05-1.55
		c-0.01-0.01,0-0.04,0-0.06c0.08-0.87,0.64-1.75-0.27-2.6c0.02,0-0.1,0.01-0.25,0.02c0.08-0.35,0.14-0.66,0.24-1.12
		c0.04,0.32,0.07,0.52,0.09,0.71c0.05,0,0.1,0.01,0.15,0.01c0.04-0.36,0.09-0.72,0.13-1.08c-0.3-0.03-0.61-0.06-0.91-0.09
		c0.09-0.1,0.18-0.2,0.32-0.36c-0.19-0.04-0.3-0.07-0.41-0.09c0.05-0.6,0.11-1.2,0.16-1.82c-0.4-0.26-0.76-0.54-0.4-1.14
		c0.14-0.24,0.1-0.6,0.13-0.9c0.03-0.43-0.08-0.92,0.1-1.27c0.43-0.82,0.17-1.58,0.04-2.39c-0.07-0.44,0.05-0.95,0.21-1.38
		c0.19-0.5,0.51-0.94,0.78-1.41c-0.18-0.14-0.36-0.27-0.47-0.36c0.14-0.57,0.27-1.05,0.37-1.54c0.15-0.78,0.55-1.41,1.08-1.98
		c1.38-1.48,3.01-2.65,4.7-3.74c0.62-0.4,1.39-0.59,2.1-0.84c1.45-0.51,2.87-1.1,4.36-1.46c1.8-0.44,3.65-0.71,5.48-1
		c1.08-0.17,2.17-0.21,3.26-0.32c0.33-0.03,0.74-0.23,0.97-0.11c0.59,0.32,1.24,0.02,1.69,0.19c0.52,0.2,0.8,0.07,1.21-0.06
		c0.21-0.06,0.47,0.01,0.7,0.03c0.58,0.05,1.13,0.29,1.74,0.21c0.33-0.04,0.68,0.19,1.03,0.29c0.13,0.04,0.26,0.06,0.4,0.06
		c1.16,0.02,2.32-0.03,3.47,0.07c2.95,0.25,5.88-0.19,8.81-0.15c2,0.03,4,0.1,5.99,0.39c1.53,0.22,3.09,0.24,4.64,0.32
		c2.37,0.12,4.74,0.23,7.11,0.31c0.93,0.03,1.86-0.05,2.79-0.02c0.53,0.02,1.04,0.23,1.57,0.25c1.52,0.05,3.05,0.07,4.57,0.05
		c0.53-0.01,0.65-0.42,0.51-0.87c1.15-0.88,2.43-0.92,3.76-0.69c0.16,0.03,0.31,0.04,0.47,0.06c0.31-0.67,0.59-0.8,1.29-0.63
		c0.92,0.23,1.84,0.55,2.77,0.64c0.45,0.05,0.8,0.05,1.07,0.45c0.05,0.08,0.26,0.07,0.4,0.08c0.49,0.01,1.02,0.14,1.45-0.01
		c1.16-0.41,2.03,0.43,3.05,0.56c0.87,0.11,1.47,0.72,2.16,1.15c0.21,0.14,0.51,0.16,0.77,0.2c0.26,0.03,0.53,0.01,0.79,0.01
		c0.03,0.07,0.05,0.14,0.08,0.21c0.07-0.14,0.15-0.28,0.21-0.4c0.32,0.2,0.57,0.34,0.81,0.5c1.25,0.85,2.5,1.7,3.73,2.58
		c0.23,0.16,0.34,0.47,0.54,0.67c0.32,0.32,0.65,0.62,1.02,0.88c0.1,0.07,0.33-0.06,0.6-0.12c-0.6-0.7-1.12-1.32-1.65-1.93
		c0.05-0.03,0.09-0.07,0.11-0.08c0.36,0.3,0.72,0.58,1.05,0.89c0.12,0.11,0.19,0.29,0.28,0.43c0.25,0.4,0.49,0.8,0.74,1.2
		c0.06,0.1,0.17,0.19,0.2,0.3c0.34,1.27,1.39,2.01,2.16,2.96c0.76,0.96,1.59,1.88,1.69,3.24c0.05,0.77,0.39,1.52,0.55,2.29
		c0.08,0.4,0.08,0.82,0.09,1.23c0.01,0.73-0.08,1.47,0.01,2.18c0.17,1.31-0.05,2.59-0.11,3.89c-0.02,0.46,0.07,0.93,0.08,1.4
		c0,0.24-0.05,0.49-0.09,0.74c-0.02,0.12-0.11,0.23-0.1,0.34c0.04,0.83,0.09,1.66,0.14,2.49c0.02,0.36,0.04,0.71,0.08,1.07
		c0.02,0.17,0.03,0.37,0.13,0.5c0.43,0.56,0.42,0.82,0.05,1.44c-0.11,0.18-0.03,0.5,0,0.75c0.04,0.23,0.19,0.45,0.2,0.67
		c0.04,0.85,0.05,1.7,0.05,2.55c0,0.52-0.06,1.04-0.06,1.56c0,0.53,0.07,1.06,0.07,1.59c0,0.27-0.16,0.53-0.15,0.8
		c0.05,1.22,0.14,2.43,0.2,3.64c0.02,0.51-0.02,1.02,0.02,1.53c0.03,0.29,0.18,0.56,0.26,0.84c0.04,0.13,0.12,0.3,0.07,0.38
		c-0.46,0.72-0.23,1.49-0.16,2.24c0,0.06,0.03,0.12,0.03,0.18c0.01,1.38-0.08,2.78,0.05,4.15c0.1,1.09-0.16,2.2,0.26,3.26
		c0.05,0.12,0.05,0.32-0.03,0.4c-0.43,0.43-0.28,0.91-0.22,1.43c0.1,0.82,0.07,1.66,0.11,2.5c0.02,0.37,0.09,0.75,0.1,1.12
		c0,0.41-0.06,0.81-0.07,1.22c-0.01,0.2-0.04,0.42,0.03,0.59c0.49,1.13,0.2,2.29,0.2,3.45c0,0.08-0.03,0.17-0.01,0.24
		c0.15,0.52,0.35,0.97,0.18,1.58c-0.15,0.53,0.16,1.18,0.23,1.78c0.04,0.32,0.31,0.7-0.17,0.94c-0.04,0.02,0,0.18,0,0.27
		C125.16,94.4,125.27,94.38,125.54,94.32z M35.83,61.74L35.83,61.74c0.04,0.59,0.13,1.18,0.11,1.77c-0.02,0.8-0.12,1.59-0.17,2.39
		c-0.01,0.16,0.02,0.33,0.05,0.63c0.18-0.19,0.3-0.26,0.31-0.35c0.08-0.7,0.17-1.41,0.19-2.12c0.06-1.78,0.09-3.57,0.16-5.35
		c0.01-0.23,0.23-0.46,0.35-0.69c0.05,0.02,0.1,0.05,0.15,0.07c0.02,0.23-0.04,0.51,0.06,0.7c0.51,0.92,0.42,1.93,0.45,2.9
		c0.03,1.23-0.06,2.46-0.09,3.69c-0.06,2.48-0.12,4.96-0.16,7.45c-0.03,1.59-0.04,3.18-0.02,4.77c0.01,1.53,0.07,3.06,0.1,4.59
		c0.05,2.39,0.08,4.78,0.15,7.17c0.04,1.36,0.17,2.72,0.27,4.08c0.04,0.55,0.13,1.1,0.17,1.66c0.04,0.48,0.05,0.95,0.07,1.43
		c0.03,0.77,0.05,1.54,0.08,2.31c0,0.03,0.04,0.07,0.06,0.1c0.53,0.57,0.39,1.32,0.27,1.92c-0.08,0.45-0.1,0.89-0.1,1.33
		c0,0.38,0.07,0.76,0.07,1.13c-0.01,0.78-0.08,1.56-0.08,2.35c0,0.64,0.14,1.29,0.06,1.91c-0.14,1.06-0.24,2.09-0.07,3.16
		c0.08,0.52-0.13,1.09-0.16,1.64c-0.05,0.87-0.06,1.74-0.08,2.61c0,0.17,0,0.39,0.1,0.51c0.31,0.38,0.1,0.64-0.13,0.94
		c-0.13,0.16-0.32,0.45-0.26,0.56c0.33,0.56-0.13,1.05-0.06,1.58c0.02,0.14,0,0.28,0,0.42c0.04,0.84,0.17,1.68,0.12,2.51
		c-0.1,1.43-0.32,2.84-0.48,4.27c-0.11,0.96-0.13,1.91,0.33,2.92c-0.05-1.78,0.18-3.65,0.54-3.92c-0.07,0.53-0.17,0.98-0.18,1.43
		c-0.02,0.87,0.05,1.74,0.02,2.61c-0.01,0.38-0.2,0.75-0.29,1.13c-0.05,0.23-0.13,0.48-0.09,0.7c0.31,1.6-0.61,2.69-1.5,3.82
		c-0.31,0.4-0.68,0.85-0.75,1.32c-0.11,0.8,0.2,1.66-0.38,2.39c-0.02,0.03-0.01,0.08-0.01,0.12c0.06,0.89,0.04,1.79,0.2,2.67
		c0.23,1.27,0.44,2.57,1.44,3.55c0.15,0.15,0.22,0.42,0.25,0.64c0.06,0.66,0.31,1.18,0.91,1.5c0.85,0.44,1.71,0.85,2.55,1.32
		c0.86,0.49,2.03,0.51,2.51,1.6c0.03,0.07,0.17,0.09,0.26,0.13c1.08,0.46,2.15,0.93,3.24,1.37c1.12,0.44,2.23,0.97,3.4,1.23
		c1.92,0.44,3.87,0.74,5.82,1c1.67,0.22,3.37,0.27,5.04,0.46c0.92,0.1,1.83,0.38,2.75,0.47c1.24,0.13,2.5,0.16,3.75,0.24
		c2.37,0.16,4.73,0.36,7.1,0.48c2.01,0.1,4.03,0.13,6.05,0.14c3.87,0.01,7.74,0,11.61-0.03c2.05-0.01,4.1-0.06,6.16-0.11
		c0.17,0,0.35-0.06,0.51-0.11c0.46-0.14,0.91-0.38,1.38-0.41c1.01-0.08,2.02-0.12,3.03-0.05c1.04,0.07,1.48-0.5,1.87-1.32
		c0.49-1.03,0.3-2.33,1.28-3.16c0.02-0.02,0.02-0.08,0.03-0.12c0.4-1.71,0.78-3.42,1.2-5.13c0.16-0.65,0.42-1.27,0.65-1.94
		c0-0.16-0.04-0.41,0.01-0.64c0.25-1.16,0.61-2.3,0.77-3.47c0.09-0.63-0.19-1.3,0.29-1.87c0.07-0.08,0.05-0.23,0.05-0.35
		c0.02-0.51,0.03-1.02,0.06-1.52c0.06-1.13,0.23-2.26,0.16-3.38c-0.03-0.49-0.19-0.86,0.04-1.41c0.31-0.73,0.26-1.62,0.32-2.44
		c0.05-0.71-0.11-1.48,0.09-2.14c0.28-0.92,0.35-1.84,0.37-2.77c0.03-1.36-0.07-2.73,0-4.09c0.08-1.75,0.27-3.49,0.39-5.23
		c0.03-0.41-0.03-0.84,0-1.25c0.08-1.13,0.2-2.26,0.28-3.39c0.09-1.33,0.16-2.66,0.22-3.99c0.07-1.43,0.18-2.85,0.16-4.28
		c-0.03-2.17-0.15-4.33-0.24-6.5c-0.1-2.67-0.21-5.33-0.31-8c-0.05-1.41-0.1-2.83-0.15-4.25c-0.01-0.34,0.03-0.68,0.02-1.02
		c-0.01-1.26,0.02-2.52-0.04-3.78c-0.04-0.91-0.23-1.81-0.29-2.71c-0.08-0.99-0.11-1.99-0.13-2.99c-0.01-0.69,0.01-1.38,0.06-2.07
		c0.03-0.45,0.04-0.93,0.2-1.35c0.24-0.66,0.36-1.25,0.08-1.95c-0.19-0.46-0.21-1-0.24-1.51c-0.07-0.98-0.1-1.97-0.14-2.96
		c-0.04-0.77-0.08-1.54-0.11-2.31c0-0.13,0.09-0.26,0.1-0.39c0.06-0.37,0.12-0.74,0.14-1.11c0.01-0.29-0.05-0.59-0.05-0.88
		c0-0.46,0.17-0.97,0.02-1.36c-0.29-0.76-0.45-1.47-0.25-2.3c0.16-0.65-0.22-1.34,0.03-2.05c0.11-0.33-0.07-0.76-0.13-1.14
		c-0.02-0.12-0.11-0.26-0.07-0.34c0.29-0.51,0.21-1,0.02-1.51c-0.06-0.16,0.02-0.36,0-0.53c-0.05-0.55-0.09-1.1-0.18-1.65
		c-0.04-0.23-0.17-0.44-0.26-0.65c-0.02-0.28-0.34-1.15-0.88-1.41c-0.59-0.29-1.21-0.51-1.81-0.79c-0.19-0.09-0.34-0.25-0.52-0.37
		c-0.43-0.27-0.84-0.66-1.31-0.78c-1.39-0.34-2.84-0.49-4.22-0.87c-0.76-0.21-1.39-0.01-2.07,0.15c-0.08,0.02-0.16,0.07-0.22,0.06
		c-0.76-0.14-1.52-0.28-2.27-0.44c-0.43-0.09-0.77-0.11-0.96,0.4c-0.07,0.18-0.27,0.4-0.44,0.43c-0.76,0.12-1.5,0.49-2.31,0.18
		c-0.42-0.16-0.7,0.08-0.68,0.68c-0.61-0.11-1.17-0.23-1.73-0.31c-1.19-0.19-2.34-0.64-3.59-0.43c-1.44,0.24-2.87-0.07-4.26-0.37
		c-1.18-0.26-2.35-0.19-3.53-0.19c-1.59,0.01-3.16-0.03-4.72-0.42c0.28-0.02,0.55-0.03,0.83-0.05c-0.39-0.25-0.83-0.49-1.21-0.42
		c-1,0.19-2.13-0.59-3.03,0.38c-0.03,0.03-0.12,0.01-0.18,0c-1.26-0.1-2.55-0.07-3.77-0.33c-1.49-0.32-2.94-0.09-4.4-0.04
		c-2.06,0.07-4.13,0.38-6.18,0.29c-2.56-0.11-5.12-0.04-7.68-0.41c-1.85-0.27-3.79-0.17-5.66,0.03c-1.96,0.22-3.9,0.73-5.83,1.18
		c-0.28,0.06-0.49,0.47-0.7,0.75c-0.18,0.25-0.3,0.54-0.47,0.83c-0.02,0.33-0.03,0.72-0.05,1.03c-0.1,0.21-0.24,0.37-0.23,0.53
		c0,0.41,0.01,0.8-0.08,1.21c-0.12,0.6-0.03,1.25-0.05,1.87c-0.06,2.56-0.19,5.12-0.18,7.68c0,2.24,0.14,4.49,0.24,6.73
		c0.01,0.22,0.14,0.44,0.21,0.67c0.06-0.02,0.13-0.04,0.19-0.06c-0.06-0.27-0.13-0.54-0.19-0.82
		C35.49,61.74,35.66,61.74,35.83,61.74z M36.14,66.83c-0.1,0-0.19,0-0.29,0c0,3.56,0,7.12,0,10.69c0.06,0,0.12,0,0.18,0
		c0.01-0.17,0.04-0.34,0.04-0.51c0.03-1.31,0.06-2.63,0.07-3.94C36.14,71,36.14,68.92,36.14,66.83z M36.83,65.66
		c-0.07,0-0.13,0-0.2-0.01c-0.03,0.58-0.05,1.16-0.08,1.74c0.06,0,0.13,0,0.19,0.01C36.77,66.82,36.8,66.24,36.83,65.66z"/>
	<path d="M24.49,50.75c0.14-0.12,0.29-0.25,0.45-0.38c0.05,0.01,0.1,0.03,0.16,0.04c-0.09,0.39-0.19,0.77-0.32,1.32
		C24.66,51.3,24.58,51.06,24.49,50.75z"/>
	<path class="st0" d="M35.83,61.74c-0.17,0-0.34,0-0.48,0c0.06,0.27,0.13,0.55,0.19,0.82c-0.06,0.02-0.13,0.04-0.19,0.06
		c-0.07-0.22-0.2-0.44-0.21-0.67c-0.1-2.24-0.24-4.49-0.24-6.73c0-2.56,0.12-5.12,0.18-7.68c0.02-0.63-0.07-1.27,0.05-1.87
		c0.08-0.42,0.08-0.8,0.08-1.21c0-0.16,0.14-0.32,0.23-0.53c0.01-0.31,0.03-0.71,0.05-1.03c0.16-0.29,0.29-0.58,0.47-0.83
		c0.2-0.28,0.42-0.69,0.7-0.75c1.93-0.45,3.87-0.96,5.83-1.18c1.87-0.2,3.81-0.3,5.66-0.03c2.56,0.37,5.13,0.3,7.68,0.41
		c2.05,0.09,4.12-0.22,6.18-0.29c1.46-0.05,2.91-0.28,4.4,0.04c1.23,0.26,2.51,0.23,3.77,0.33c0.06,0,0.15,0.03,0.18,0
		c0.9-0.97,2.03-0.18,3.03-0.38c0.38-0.07,0.81,0.17,1.21,0.42c-0.28,0.02-0.55,0.03-0.83,0.05c1.56,0.39,3.13,0.43,4.72,0.42
		c1.17-0.01,2.35-0.07,3.53,0.19c1.39,0.3,2.82,0.61,4.26,0.37c1.26-0.21,2.4,0.25,3.59,0.43c0.56,0.09,1.11,0.2,1.73,0.31
		c-0.02-0.6,0.26-0.84,0.68-0.68c0.81,0.31,1.55-0.06,2.31-0.18c0.17-0.03,0.37-0.25,0.44-0.43c0.19-0.51,0.53-0.49,0.96-0.4
		c0.75,0.17,1.51,0.3,2.27,0.44c0.07,0.01,0.15-0.04,0.22-0.06c0.68-0.16,1.31-0.36,2.07-0.15c1.38,0.38,2.82,0.53,4.22,0.87
		c0.47,0.11,0.88,0.5,1.31,0.78c0.18,0.11,0.33,0.28,0.52,0.37c0.6,0.28,1.22,0.5,1.81,0.79c0.54,0.26,0.86,1.13,0.88,1.41
		c0.09,0.22,0.23,0.43,0.26,0.65c0.09,0.54,0.13,1.1,0.18,1.65c0.02,0.18-0.06,0.38,0,0.53c0.18,0.51,0.27,1-0.02,1.51
		c-0.04,0.07,0.05,0.22,0.07,0.34c0.06,0.38,0.24,0.82,0.13,1.14c-0.25,0.71,0.13,1.39-0.03,2.05c-0.2,0.83-0.04,1.53,0.25,2.3
		c0.15,0.39-0.02,0.9-0.02,1.36c0,0.3,0.07,0.59,0.05,0.88c-0.02,0.37-0.08,0.74-0.14,1.11c-0.02,0.13-0.11,0.26-0.1,0.39
		c0.03,0.77,0.07,1.54,0.11,2.31c0.05,0.99,0.07,1.97,0.14,2.96c0.04,0.51,0.06,1.05,0.24,1.51c0.28,0.69,0.16,1.29-0.08,1.95
		c-0.15,0.42-0.17,0.89-0.2,1.35c-0.04,0.69-0.07,1.38-0.06,2.07c0.02,1,0.06,1.99,0.13,2.99c0.07,0.91,0.25,1.81,0.29,2.71
		c0.06,1.26,0.04,2.52,0.04,3.78c0,0.34-0.03,0.68-0.02,1.02c0.04,1.42,0.09,2.83,0.15,4.25c0.1,2.67,0.21,5.33,0.31,8
		c0.08,2.17,0.21,4.33,0.24,6.5c0.02,1.42-0.1,2.85-0.16,4.28c-0.06,1.33-0.13,2.66-0.22,3.99c-0.08,1.13-0.2,2.26-0.28,3.39
		c-0.03,0.41,0.03,0.84,0,1.25c-0.13,1.74-0.31,3.49-0.39,5.23c-0.06,1.36,0.03,2.73,0,4.09c-0.02,0.93-0.09,1.85-0.37,2.77
		c-0.2,0.66-0.04,1.42-0.09,2.14c-0.06,0.82-0.01,1.71-0.32,2.44c-0.24,0.56-0.08,0.92-0.04,1.41c0.07,1.12-0.09,2.25-0.16,3.38
		c-0.03,0.51-0.04,1.01-0.06,1.52c-0.01,0.12,0.01,0.27-0.05,0.35c-0.49,0.58-0.21,1.25-0.29,1.87c-0.16,1.17-0.51,2.31-0.77,3.47
		c-0.05,0.23-0.01,0.47-0.01,0.64c-0.23,0.67-0.49,1.29-0.65,1.94c-0.42,1.7-0.8,3.42-1.2,5.13c-0.01,0.04,0,0.09-0.03,0.12
		c-0.98,0.83-0.79,2.13-1.28,3.16c-0.39,0.82-0.83,1.39-1.87,1.32c-1-0.06-2.02-0.02-3.03,0.05c-0.47,0.04-0.92,0.27-1.38,0.41
		c-0.17,0.05-0.34,0.11-0.51,0.11c-2.05,0.04-4.1,0.09-6.16,0.11c-3.87,0.02-7.74,0.04-11.61,0.03c-2.02-0.01-4.03-0.04-6.05-0.14
		c-2.37-0.12-4.74-0.32-7.1-0.48c-1.25-0.08-2.51-0.11-3.75-0.24c-0.92-0.1-1.83-0.37-2.75-0.47c-1.68-0.18-3.37-0.23-5.04-0.46
		c-1.95-0.26-3.91-0.57-5.82-1c-1.17-0.26-2.28-0.79-3.4-1.23c-1.09-0.43-2.16-0.91-3.24-1.37c-0.09-0.04-0.23-0.06-0.26-0.13
		c-0.48-1.09-1.65-1.12-2.51-1.6c-0.83-0.47-1.7-0.88-2.55-1.32c-0.6-0.31-0.85-0.84-0.91-1.5c-0.02-0.22-0.1-0.49-0.25-0.64
		c-1-0.98-1.21-2.28-1.44-3.55c-0.16-0.87-0.14-1.78-0.2-2.67c0-0.04-0.01-0.09,0.01-0.12c0.58-0.73,0.27-1.59,0.38-2.39
		c0.06-0.47,0.44-0.92,0.75-1.32c0.89-1.13,1.8-2.22,1.5-3.82c-0.04-0.22,0.04-0.47,0.09-0.7c0.09-0.38,0.28-0.75,0.29-1.13
		c0.03-0.87-0.04-1.74-0.02-2.61c0.01-0.45,0.11-0.91,0.18-1.43c-0.36,0.26-0.59,2.13-0.54,3.92c-0.46-1.01-0.44-1.96-0.33-2.92
		c0.16-1.42,0.38-2.84,0.48-4.27c0.06-0.83-0.07-1.67-0.12-2.51c-0.01-0.14,0.02-0.28,0-0.42c-0.07-0.52,0.39-1.02,0.06-1.58
		c-0.06-0.1,0.13-0.39,0.26-0.56c0.23-0.3,0.45-0.55,0.13-0.94c-0.1-0.12-0.1-0.34-0.1-0.51c0.02-0.87,0.03-1.74,0.08-2.61
		c0.03-0.55,0.24-1.11,0.16-1.64c-0.16-1.07-0.06-2.1,0.07-3.16c0.08-0.63-0.06-1.28-0.06-1.91c0.01-0.78,0.07-1.56,0.08-2.35
		c0.01-0.38-0.07-0.76-0.07-1.13c0-0.44,0.02-0.88,0.1-1.33c0.11-0.6,0.26-1.35-0.27-1.92c-0.03-0.03-0.06-0.06-0.06-0.1
		c-0.03-0.77-0.05-1.54-0.08-2.31c-0.02-0.48-0.03-0.95-0.07-1.43c-0.04-0.55-0.13-1.1-0.17-1.66c-0.1-1.36-0.22-2.72-0.27-4.08
		c-0.08-2.39-0.1-4.78-0.15-7.17c-0.03-1.53-0.09-3.06-0.1-4.59c-0.01-1.59,0-3.18,0.02-4.77c0.04-2.48,0.1-4.97,0.16-7.45
		c0.03-1.23,0.12-2.46,0.09-3.69c-0.03-0.98,0.06-1.98-0.45-2.9c-0.1-0.19-0.05-0.46-0.06-0.7c-0.05-0.02-0.1-0.05-0.15-0.07
		c-0.12,0.23-0.34,0.45-0.35,0.69c-0.07,1.78-0.1,3.57-0.16,5.35c-0.03,0.71-0.11,1.41-0.19,2.12c-0.01,0.09-0.14,0.16-0.31,0.35
		c-0.02-0.3-0.06-0.47-0.05-0.63c0.05-0.8,0.15-1.59,0.17-2.39C35.96,62.92,35.87,62.33,35.83,61.74c0.14-1.4,0.32-2.8,0.14-4.2
		c-0.06,0.25,0.06,0.53-0.01,0.75C35.57,59.43,35.75,60.59,35.83,61.74z M91.38,48.6c0.28-0.87-0.4-1.04-0.85-1.41
		c-0.23-0.19-0.55-0.66-0.48-0.77c0.39-0.58,0.35-1.11,0.05-1.68c-0.12-0.24-0.24-0.48-0.32-0.74c-0.27-0.86-0.82-1.19-1.74-1.17
		c-0.9,0.02-1.83,0.08-2.7-0.11c-0.78-0.17-1.49,0-2.22,0.05c-1.33,0.08-2.66,0.2-4,0.2c-1.09,0-2.19-0.28-3.27-0.2
		c-2.49,0.17-4.95-0.04-7.42-0.28c-0.35-0.04-0.72-0.02-1.07,0.02c-0.41,0.04-0.97,0-1.18,0.24c-0.3,0.33-0.58,0.29-0.89,0.29
		c-0.54,0-1.1-0.14-1.61-0.02c-1.39,0.31-2.76,0.72-4.13,1.1c-0.78,0.22-1.58,0.39-2.32,0.7c-0.76,0.32-1.63,0.64-2.13,1.23
		c-0.48,0.58-1.03,0.72-1.63,0.91c-0.19,0.06-0.38,0.12-0.58,0.15c-0.51,0.09-0.84,0.35-0.89,1.04c1.14-0.6,2.28-0.28,3.44-0.24
		c-0.04,0.05-0.06,0.11-0.09,0.11c-0.91,0.09-0.82,0.88-0.99,1.47c-0.02,0.07,0.2,0.26,0.34,0.31c0.54,0.2,1.09,0.38,1.63,0.56
		c-0.02,0.06-0.04,0.11-0.06,0.17c-0.53,0.22-1.06,0.43-1.59,0.65c0.53,0.24,1.02,0.39,1.58,0.17c0.26-0.1,0.6-0.01,0.9,0.03
		c0.17,0.03,0.32,0.15,0.49,0.21c1.11,0.37,2.23,0.73,3.36,1.1c-0.11,0.16-0.2,0.29-0.34,0.49c0.41-0.05,0.73-0.15,1.04-0.12
		c0.7,0.07,1.39,0.21,2.09,0.31c0.18,0.03,0.35,0.06,0.53,0.06c0.88,0.03,1.75,0.1,2.65-0.01c1.64-0.2,3.32-0.12,4.98-0.14
		c1.3-0.02,2.56-0.38,3.89-0.26c1.62,0.14,3.26,0.03,4.9,0.02c1.54-0.01,3.08-0.04,4.62-0.08c0.14,0,0.32-0.08,0.4-0.19
		c0.38-0.53,0.93-0.62,1.51-0.64c0.52-0.02,1.12,0.13,1.54-0.08c0.78-0.38,1.54-0.46,2.37-0.43c0.28,0.01,0.57-0.14,0.8-0.2
		c-0.09-0.36-0.24-0.62-0.17-0.72c0.2-0.27,0.5-0.47,0.71-0.65c-0.25-0.47-0.46-0.88-0.73-1.39C91.81,48.65,91.63,48.63,91.38,48.6z
		 M36.12,55.81c-0.1,0-0.21,0.01-0.31,0.01c0.02,0.42,0.05,0.83,0.07,1.25c0.06,0,0.12-0.01,0.18-0.01
		C36.08,56.64,36.1,56.23,36.12,55.81z"/>
	<path class="st0" d="M36.14,66.83c0,2.08,0.01,4.16,0,6.24c-0.01,1.31-0.04,2.63-0.07,3.94c0,0.17-0.03,0.34-0.04,0.51
		c-0.06,0-0.12,0-0.18,0c0-3.56,0-7.12,0-10.69C35.94,66.83,36.04,66.83,36.14,66.83z"/>
	<path class="st0" d="M36.83,65.66c-0.03,0.58-0.06,1.16-0.08,1.74c-0.06,0-0.13,0-0.19-0.01c0.03-0.58,0.05-1.16,0.08-1.74
		C36.7,65.66,36.76,65.66,36.83,65.66z"/>
	<path d="M91.38,48.6c0.26,0.03,0.43,0.05,0.44,0.05c0.27,0.51,0.48,0.91,0.73,1.39c-0.21,0.18-0.5,0.38-0.71,0.65
		c-0.07,0.1,0.08,0.36,0.17,0.72c-0.23,0.06-0.52,0.21-0.8,0.2c-0.83-0.03-1.59,0.05-2.37,0.43c-0.42,0.21-1.02,0.06-1.54,0.08
		c-0.58,0.02-1.13,0.11-1.51,0.64c-0.08,0.11-0.26,0.19-0.4,0.19c-1.54,0.04-3.08,0.07-4.62,0.08c-1.63,0.02-3.28,0.13-4.9-0.02
		c-1.33-0.12-2.59,0.24-3.89,0.26c-1.66,0.03-3.34-0.05-4.98,0.14c-0.91,0.11-1.77,0.03-2.65,0.01c-0.18-0.01-0.35-0.04-0.53-0.06
		c-0.7-0.11-1.39-0.24-2.09-0.31c-0.31-0.03-0.63,0.07-1.04,0.12c0.14-0.2,0.23-0.33,0.34-0.49c-1.14-0.37-2.25-0.73-3.36-1.1
		c-0.17-0.06-0.32-0.18-0.49-0.21c-0.3-0.04-0.64-0.13-0.9-0.03c-0.56,0.22-1.06,0.07-1.58-0.17c0.53-0.22,1.06-0.43,1.59-0.65
		c0.02-0.06,0.04-0.11,0.06-0.17c-0.54-0.18-1.09-0.36-1.63-0.56c-0.14-0.05-0.36-0.24-0.34-0.31c0.17-0.59,0.08-1.38,0.99-1.47
		c0.03,0,0.05-0.06,0.09-0.11c-1.15-0.04-2.29-0.35-3.44,0.24c0.05-0.69,0.38-0.95,0.89-1.04c0.2-0.03,0.39-0.09,0.58-0.15
		c0.6-0.2,1.14-0.34,1.63-0.91c0.5-0.59,1.37-0.91,2.13-1.23c0.74-0.31,1.54-0.48,2.32-0.7c1.37-0.38,2.74-0.79,4.13-1.1
		c0.51-0.11,1.07,0.03,1.61,0.02c0.32,0,0.6,0.04,0.89-0.29c0.22-0.24,0.77-0.2,1.18-0.24c0.36-0.04,0.72-0.06,1.07-0.02
		c2.47,0.25,4.93,0.46,7.42,0.28c1.08-0.07,2.18,0.2,3.27,0.2c1.33,0,2.66-0.12,4-0.2c0.74-0.05,1.45-0.21,2.22-0.05
		c0.87,0.19,1.8,0.14,2.7,0.11c0.92-0.02,1.47,0.31,1.74,1.17c0.08,0.25,0.2,0.5,0.32,0.74c0.3,0.57,0.34,1.1-0.05,1.68
		c-0.07,0.11,0.24,0.58,0.48,0.77C90.97,47.56,91.66,47.73,91.38,48.6z"/>
	<path d="M35.83,61.74c-0.08-1.16-0.26-2.31,0.13-3.46c0.07-0.21-0.06-0.49,0.01-0.75C36.15,58.94,35.97,60.34,35.83,61.74
		C35.83,61.74,35.83,61.74,35.83,61.74z"/>
	<path d="M36.12,55.81c-0.02,0.42-0.04,0.83-0.06,1.25c-0.06,0-0.12,0.01-0.18,0.01c-0.02-0.42-0.05-0.83-0.07-1.25
		C35.91,55.82,36.01,55.81,36.12,55.81z"/>
</g>
</svg>
