<?xml version="1.0" encoding="utf-8"?>
<!-- Generator: Adobe Illustrator 26.5.0, SVG Export Plug-In . SVG Version: 6.00 Build 0)  -->
<svg version="1.1" id="Vrstva_1" xmlns="http://www.w3.org/2000/svg" xmlns:xlink="http://www.w3.org/1999/xlink" x="0px" y="0px"
	 viewBox="0 0 478.32 480.48" style="enable-background:new 0 0 478.32 480.48;" xml:space="preserve">
<style type="text/css">
	.st0{fill:#FFFFFF;}
</style>
<g>
	<path d="M437.45,422.16c0.12-0.09,0.24-0.17,0.36-0.26c-0.82,0.94-2.4,0.79-2.81,2.17c-0.38-0.04-0.68-0.14-0.93-0.07
		c-0.19,0.06-0.38,0.23-0.26,0.63c0.11,0.38-0.18,0.72-0.78,0.91c-0.87,0.27-1.61,0.95-2.41,1.46c-0.7,0.45-1.34,1-1.98,0.96
		c-0.62,0.43-1.03,0.76-1.48,1.03c-0.65,0.38-1.34,0.67-1.98,1.07c-1.68,1.05-3.5,1.86-5.07,3.12c-1.23,0.99-2.65,1.75-3.97,2.63
		c-0.91,0.62-1.78,1.3-2.69,1.92c-1.44,0.98-2.89,1.93-4.33,2.91c-0.52,0.36-1.01,0.76-1.54,1.12c-0.36,0.24-0.75,0.44-1.13,0.65
		c-0.21,0.11-0.44,0.19-0.63,0.33c-1.58,1.12-3.17,2.24-4.73,3.39c-1.11,0.81-2.13,1.77-3.3,2.48c-0.99,0.6-1.82,1.35-2.68,2.09
		c-0.29,0.25-0.51,0.59-0.79,0.86c-0.22,0.22-0.46,0.44-0.73,0.61c-0.77,0.48-1.55,0.94-2.33,1.41c-0.64,0.38-1.05,0.84-0.66,1.65
		c0.06,0.12-0.01,0.3-0.03,0.56c-0.38-0.16-0.68-0.29-1.02-0.43c-0.97,0.76-1.45,2.12-2.87,2.32c0,0.31,0,0.57,0,0.76
		c-1.29,0.25-2.53,0.39-3.58,1.45c-0.08,0.49,0.06,1.08,0.43,1.71c0.2,0.33,0.03,0.88,0.03,1.37c-0.92-0.8-0.93-0.82-0.47-1.81
		c-0.23-0.06-0.44-0.12-0.65-0.18c0.03-0.16,0.06-0.31,0.11-0.53c-0.24,0-0.46,0-0.75,0c0.15,0.9,0.3,1.78,0.48,2.82
		c-0.61-0.78-1.19-1.42-2.1-0.67c-1.24-0.56-1.38,0.48-1.69,1.29c-0.3-0.14-0.54-0.26-0.78-0.38c-2.01,1.36-4.01,2.78-6.44,3.81
		c0.06-0.35,0.1-0.58,0.14-0.83c-0.5-0.61-0.77-0.07-1.11,0.3c-0.32-0.22-0.63-0.44-0.95-0.68c0.59-0.81,1.13-1.55,1.76-2.41
		c-0.72,0.01-1.17,0.3-1.62,0.83c-0.31-0.77-0.86-0.54-1.38-0.41c-0.52-0.68-0.68-1.31,0.21-1.96c-0.34-0.03-0.51-0.04-0.8-0.07
		c0-0.56,0-1.13,0-1.79c-0.36,0-0.69,0-1,0c-0.06-0.26-0.12-0.54-0.22-0.97c0.24-0.19,0.64-0.53,1.23-1.01
		c-0.53-0.07-0.82-0.11-1.15-0.16c0.03-0.16,0.06-0.34,0.11-0.59c-0.2-0.06-0.41-0.12-0.61-0.18c-0.02-0.07-0.06-0.14-0.06-0.21
		c0.02-0.28,0.18-0.62,0.07-0.81c-0.55-0.93,0.09-1.53,0.59-2.1c0.57-0.66,1.27-1.21,2.01-1.91c-0.17-0.44-0.37-0.9-0.52-1.37
		c-0.42-1.35-1.07-2.58-1.71-3.83c-0.76-1.49-1.65-2.88-2.55-4.27c-0.32-0.5-0.7-0.95-1.03-1.44c-0.15-0.22-0.3-0.46-0.38-0.71
		c-0.26-0.8-0.66-1.51-1.15-2.2c-1.01-1.42-1.89-2.93-2.85-4.39c-1.24-1.89-2.55-3.74-3.76-5.64c-1.13-1.78-2.17-3.62-3.27-5.41
		c-0.56-0.91-1.11-1.84-1.81-2.64c-0.51-0.58-0.65-1.34-1.15-1.88c-0.73-0.78-1.42-1.59-1.88-2.58c-0.87-1.9-2.42-3.37-3.27-5.32
		c-0.63-1.44-1.7-2.68-2.56-4.02c-1.13-1.74-2.25-3.48-3.39-5.21c-1.39-2.12-2.82-4.22-4.2-6.35c-0.8-1.23-1.54-2.5-2.32-3.74
		c-0.68-1.07-1.31-2.19-2.09-3.19c-1.3-1.68-2.08-3.64-3.16-5.45c-0.61-1.03-1.22-2.06-1.85-3.08c-1.35-2.16-2.69-4.32-4.08-6.46
		c-1.02-1.57-2.1-3.1-3.16-4.64c-0.4-0.59-0.8-1.18-1.22-1.76c-1.19-1.66-2.4-3.32-3.58-4.99c-1.64-2.32-3.26-4.64-4.89-6.97
		c-0.07-0.1-0.16-0.19-0.2-0.3c-0.69-1.83-2.1-3.15-3.24-4.67c-0.87-1.14-1.63-2.37-2.47-3.53c-0.67-0.92-1.42-1.79-2.1-2.69
		c-1.18-1.56-2.58-3.02-3.24-4.96c-0.17-0.5-0.64-0.9-0.95-1.36c-2.25-3.43-4.48-6.88-6.74-10.3c-0.72-1.1-1.53-2.14-2.24-3.24
		c-3.11-4.79-6.05-9.68-8.48-14.85c-2.45-5.19-5.66-9.92-8.86-14.66c-5.01-7.42-9.98-14.87-14.99-22.3
		c-0.47-0.69-0.99-1.36-1.55-1.98c-6.96-7.67-13.92-15.34-20.91-22.99c-0.39-0.43-0.92-0.72-1.39-1.07
		c-0.25-0.19-0.54-0.35-0.77-0.56c-4.05-3.8-8.1-7.61-12.15-11.42c-0.12-0.11-0.21-0.23-0.36-0.4c0.11-0.28,0.22-0.56,0.32-0.8
		c-1.35-1.23-2.6-2.5-3.99-3.61c-2.75-2.18-5.54-4.3-8.37-6.38c-3.37-2.48-6.82-4.87-10.18-7.36c-1.24-0.92-2.36-2-3.58-3.05
		c0.16-0.19,0.34-0.42,0.56-0.69c-0.53-0.9-1.01-1.83-0.29-2.91c-0.28-0.24-0.54-0.47-0.88-0.76c0.21-0.42,0.41-0.83,0.65-1.31
		c-0.63-0.46-0.43-1.14-0.15-1.65c0.42-0.79,0.35-1.51,0.01-2.51c0.27-0.21,0.63-0.45,0.95-0.73c0.69-0.59,0.72-0.83,0.28-1.73
		c0.25-0.71,1.1-1.18,0.83-2.12c-0.03-0.1,0.36-0.28,0.45-0.47c0.6-1.21,1.17-2.44,1.74-3.67c0.1-0.21,0.1-0.47,0.21-0.68
		c0.87-1.78,1.52-3.61,1.75-5.61c0.3-2.56,0.84-5.1,1.22-7.65c0.31-2.08,0.74-4.16,0.75-6.25c0.01-1.13,0.57-2.05,0.56-3.15
		c-0.03-2.13,0.23-4.24,0.5-6.36c0.27-2.12,0.38-4.26,0.48-6.39c0.06-1.5-0.02-3-0.04-4.5c-0.02-1.11-0.04-2.22-0.11-3.32
		c-0.05-0.77-0.28-1.51-0.05-2.32c0.15-0.53,0.15-1.2-0.35-1.68c-0.08-0.08-0.21-0.25-0.18-0.29c0.66-0.98-0.32-1.24-0.77-1.65
		c-0.48-0.44-1.09-0.73-1.65-1.09c-0.15-0.67-0.68-0.91-1.17-1.2c-0.05,0.07-0.11,0.14-0.16,0.2c0.45,0.32,0.91,0.64,1.36,0.96
		c0.3,0.4,0.61,0.8,0.91,1.2c-0.06,0.06-0.12,0.12-0.18,0.18c-0.53-0.47-1.06-0.94-1.59-1.42c-1.77-1.6-3.51-3.24-5.33-4.8
		c-0.98-0.84-2.1-1.53-3.12-2.33c-0.69-0.54-1.41-1.09-1.93-1.78c-1.19-1.58-2.88-2.61-4.28-3.94c-1.21-1.14-2.52-2.18-3.8-3.24
		c-0.49-0.4-1.04-0.72-1.73-1.19c0.08,0.59,0.09,0.98,0.2,1.35c0.18,0.6,0.11,1.12-0.1,1.72c-0.25,0.72-0.22,1.54-0.3,2.32
		c-0.09,0.89,0.31,1.78,0.01,2.69c-0.12,0.35,0.03,0.79,0.05,1.18c0.02,0.44,0.1,0.89,0.03,1.31c-0.35,2.06-0.1,4.11,0.14,6.16
		c0.12,1.06,0.28,2.1,0.05,3.18c-0.1,0.48-0.04,1.04,0.1,1.52c0.29,1.03,0.54,2.01,0.38,3.13c-0.1,0.7,0.06,1.56,0.4,2.19
		c0.73,1.34,0.89,2.79,1.15,4.23c0.13,0.7,0.18,1.42,0.28,2.13c0.16,1.1-0.05,2.07-1.14,2.8c0.29,0.27,0.53,0.5,0.85,0.8
		c-0.3,0.62-0.58,1.3-0.95,1.92c-0.21,0.36-0.86,0.45-0.56,1.12c0.03,0.08-0.5,0.44-0.8,0.63c-0.27,0.16-0.48,0.25-0.79-0.11
		c-0.28-0.32-0.82,0.02-0.7,0.52c0.23,0.96-0.15,2.23,1.18,2.84c-0.75,0-1.5,0-2.34,0c-0.52,0.66-1.11,1.48-1.78,2.22
		c-0.24,0.26-0.68,0.41-1.05,0.48c-0.55,0.11-0.95,0.34-1.12,0.81c0.64-0.04,1.29-0.09,2.19-0.15c-0.77,0.4-1.3,0.68-2,1.04
		c0.34,0.16,0.47,0.22,0.75,0.36c-0.21,0.28-0.39,0.63-0.66,0.86c-0.57,0.48-1.16,0.96-1.81,1.33c-0.99,0.56-2.03,1.03-3.09,1.56
		c0-0.2,0-0.31,0-0.43c-0.08,0-0.16-0.02-0.21,0c-0.48,0.27-0.95,0.55-1.42,0.84c-0.2,0.12-0.46,0.19-0.58,0.36
		c-0.54,0.75-1.36,1.04-2.17,1.33c-0.7,0.25-1.35,0.52-1.86,1.15c-0.26,0.31-0.85,0.35-1.3,0.51c-0.05-0.07-0.09-0.13-0.14-0.2
		c-0.42,0.75-0.83,1.51-1.27,2.26c-0.14,0.24-0.33,0.46-0.54,0.63c-1.66,1.4-3.27,2.86-5,4.16c-1.12,0.84-2.1,1.94-3.59,2.26
		c-0.55,0.12-1.12,0.48-1.5,0.9c-0.76,0.84-1.54,0.76-2.45,0.38c-0.27-0.11-0.61-0.12-0.9-0.07c-0.66,0.12-1.26,0.05-1.69-0.28
		c-0.3,0.34-0.56,0.65-0.89,1.02c0.01,0.01,0.17,0.21,0.4,0.49c-0.24,0.04-0.48,0.15-0.59,0.08c-0.45-0.33-0.86-0.7-1.27-1.07
		c-1.6-1.45-3.19-2.9-4.78-4.35c-0.32-0.29-0.65-0.54-0.51-1.11c0.06-0.22-0.2-0.59-0.41-0.79c-1.33-1.25-2.68-2.46-4.03-3.69
		c-1.2-1.1-2.39-2.21-3.61-3.28c-0.67-0.59-1.27-1.22-2.17-1.55c-0.79-0.28-1.48-0.88-2.15-1.42c-0.37-0.3-0.54-0.85-0.91-1.13
		c-2.63-1.93-5.05-4.09-7.32-6.43c-0.26-0.27-0.43-0.63-0.65-0.95c-0.08-0.11-0.17-0.23-0.28-0.31c-0.16-0.11-0.45-0.15-0.49-0.28
		c-0.35-1.09-1.49-1.29-2.19-1.99c-0.73-0.74-1.49-1.44-2.23-2.17c-2.18-2.15-4.39-4.28-6.52-6.48c-2.09-2.17-4.12-4.4-6.13-6.65
		c-2.6-2.91-5.15-5.87-7.71-8.81c-1.44-1.65-2.9-3.28-4.32-4.94c-2.35-2.76-4.7-5.54-7.02-8.33c-1.73-2.08-3.53-4.09-5.65-6.01
		c-1.65,1.55-3.37,2.99-4.87,4.63c-0.87,0.95-1.85,1.72-2.78,2.58c-1.2,1.11-2.4,2.22-3.64,3.29c-1.09,0.93-2.32,1.71-3.35,2.71
		c-1.28,1.25-2.87,1.75-4.47,2.32c-0.25,0.09-0.5,0.29-0.72-0.07c-0.05-0.08-0.24-0.16-0.3-0.12c-0.83,0.52-1.42-0.04-2.1-0.48
		c0.16-0.22,0.31-0.43,0.47-0.64c-1.39-0.4-1.49-0.59-0.84-1.79c-0.64,0.12-1.26,0.05-1.5-0.54c-0.29-0.71,0.08-1.36,0.59-2.06
		c-0.38,0.04-0.65,0.06-0.98,0.09c-0.11-0.93-0.59-1.61-1.41-2.03c-0.14-0.07-0.3-0.15-0.39-0.26c-0.54-0.67-0.94-1.56-1.63-1.97
		c-0.79-0.48-1.24-1.14-1.82-1.78c-0.73-0.8-0.79-1.96-1.73-2.63c-0.35-0.25-0.36-1.02-0.46-1.56c-0.33-1.76-0.66-3.53-0.92-5.3
		c-0.16-1.1-0.17-2.23-0.28-3.34c-0.06-0.62,0.29-1.26-0.35-1.87c-0.27-0.26-0.09-1.06-0.02-1.6c0.68-5.03,1.42-10.04,2.81-14.93
		c0.5-1.76,1.21-3.45,1.82-5.17c0.21-0.6,0.36-1.22,0.58-1.81c0.15-0.4,0.41-0.75,0.57-1.14c1.15-2.8,2.24-5.62,3.44-8.39
		c0.75-1.74,1.64-3.43,2.51-5.13c1.62-3.15,3.24-6.31,4.94-9.41c1.03-1.89,2.15-3.74,3.36-5.52c1.39-2.05,2.9-4.01,4.38-6
		c0.6-0.8,1.3-1.53,1.84-2.36c2.22-3.37,5.01-6.29,7.53-9.42c2-2.48,4.34-4.67,6.49-7.03c2.14-2.35,4.87-3.97,7.32-5.92
		c2.5-1.98,5.05-3.91,7.67-5.72c1.43-0.99,3.03-1.76,4.63-2.47c3.06-1.36,6.15-2.66,9.27-3.88c1.84-0.72,3.76-1.27,5.65-1.86
		c0.25-0.08,0.54-0.01,0.7-0.2c0.16-0.16,0.32-0.44,0.5-0.47c0.59-0.07,1.2-0.03,1.79-0.08c0.63-0.05,1.31-0.03,1.88-0.26
		c2.58-1.07,5.31-1.42,8.01-1.95c0.16-0.03,0.35-0.01,0.47-0.09c1.07-0.77,2.21-0.43,3.35-0.22c0.39,0.07,0.78,0.14,1.18,0.17
		c1.04,0.08,1.98,0.41,2.96,0.77c1.75,0.64,3.56,1.17,5.39,1.56c3.95,0.84,7.82,1.93,11.58,3.4c1.78,0.69,3.64,1.2,5.41,1.91
		c3.78,1.51,7.15,3.67,10.1,6.49c1.29,1.24,2.75,2.3,4.14,3.45c-0.3-0.03-0.59-0.07-0.89-0.1c-0.01,0.06-0.02,0.13-0.03,0.19
		c0.31,0.11,0.63,0.22,0.94,0.33c0.59,0.49,1.19,0.98,1.78,1.47c0.83,0.84,1.65,1.69,2.48,2.52c0.42,0.42,0.83,0.86,1.31,1.2
		c0.46,0.32,0.72,1.12,1.56,0.73c0.14-0.06,0.47,0.23,0.68,0.4c0.87,0.76,1.74,1.51,2.57,2.31c0.34,0.32,0.92,0.57,0.61,1.25
		c-0.04,0.09,0.17,0.34,0.32,0.46c0.79,0.66,1.6,1.3,2.4,1.94c0.29,0.22,0.57,0.44,0.86,0.66c1.96,1.68,3.55,3.71,5.32,5.58
		c0.85,0.9,1.55,2.01,2.55,2.66c1.27,0.83,1.7,2.36,2.99,3.13c0.28,0.16,0.3,0.71,0.53,1.01c0.58,0.76,1.15,1.54,1.83,2.2
		c1.25,1.21,2.51,2.38,3.58,3.76c0.33,0.43,0.85,0.7,1.23,1.1c1.52,1.62,3.01,3.26,4.52,4.88c0.65,0.69,1.32,1.36,1.97,2.04
		c0.85,0.88,1.72,1.75,2.56,2.65c1.16,1.25,2.29,2.52,3.45,3.77c0.48,0.52,1,1,1.5,1.51c1.07,1.11,2.16,2.22,3.21,3.36
		c0.83,0.9,1.6,1.87,2.45,2.76c1.22,1.3,2.46,2.58,3.74,3.82c1.92,1.86,3.89,3.66,5.81,5.51c1.15,1.11,2.24,2.26,3.35,3.4
		c1.66,1.71,3.3,3.44,4.97,5.15c0.33,0.34,0.77,0.56,1.1,0.89c0.55,0.56,1.15,1.1,1.57,1.76c2.05,3.23,3.95,6.57,6.1,9.73
		c1.93,2.84,4.22,5.41,6.93,7.57c1.31,1.04,2.59,2.12,3.89,3.18c0.71,0.57,1.43,1.14,2.16,1.68c0.35,0.26,0.5,0.65,0.74,0.96
		c0.77,1.02,1.52,2.17,3,2.22c-0.1,0.46-0.2,0.92-0.31,1.48c0.54-0.03,0.88-0.06,1.29-0.08c0.11-0.35,0.22-0.72,0.34-1.08
		c0.06-0.01,0.12-0.02,0.18-0.03c0.11,0.39,0.1,0.91,0.35,1.13c0.71,0.62,1.11,1.25,0.74,2.19c0.45,0.65,0.44,1.3-0.05,1.91
		c-0.4,0.49-0.83,0.95-1.2,1.38c0.39,0.27,0.87,0.6,1.3,0.9c-0.16,0.77-0.3,1.45-0.45,2.12c0.06,0.04,0.13,0.08,0.19,0.11
		c0.32-0.42,0.64-0.84,0.99-1.32c-0.3-0.53-0.32-1.08,0.23-1.58c0.62,0.23,0.68,0.69,0.49,1.25c-0.44,1.36-0.85,2.72-1.34,4.06
		c-0.2,0.55-0.54,1.07-0.89,1.55c-0.4,0.55-0.8,1.06-0.84,1.79c-0.01,0.25-0.18,0.54-0.36,0.74c-1.11,1.18-1.9,2.54-2.35,4.1
		c-0.02,0.07-0.07,0.15-0.12,0.2c-0.51,0.39-0.95,0.72-0.86,1.54c0.06,0.53-0.2,1.05,0,1.67c0.16,0.51-0.12,1.16-0.21,1.75
		c-0.05,0.31-0.13,0.62-0.19,0.94c-0.1,0.54,0.01,1.19-0.99,1.17c0.32,0.26,0.43,0.36,0.63,0.52c-0.23,0.41-0.53,0.81-0.7,1.27
		c-0.11,0.3-0.15,0.71-0.04,1c0.47,1.18,1.23,2.19,2.15,3.06c2.16,2.07,4.38,4.08,6.52,6.17c1.59,1.56,3.08,3.23,4.64,4.84
		c1.19,1.22,2.41,2.41,3.62,3.63c0.17,0.17,0.34,0.35,0.45,0.56c0.36,0.7,0.91,1.14,1.6,1.53c0.59,0.33,1.07,0.93,1.5,1.5
		c0.52,0.7,1.03,1.39,1.81,1.83c0.16,0.09,0.29,0.27,0.41,0.43c2.9,4.17,5.79,8.34,8.71,12.54c-0.16,0.24-0.3,0.47-0.5,0.78
		c0.21,0.33,0.43,0.7,0.67,1.06c19.68,29.69,39.37,59.37,59.05,89.06c0.93,1.4,1.85,2.8,2.78,4.2c0.67,1.01,1.18,2.08,1.39,3.29
		c0.06,0.37,0.28,0.75,0.52,1.04c3.25,4.04,6.51,8.08,9.8,12.09c2.99,3.64,5.77,7.43,8.45,11.3c2.34,3.38,4.79,6.68,7.17,10.03
		c1.91,2.7,3.77,5.43,5.68,8.13c0.69,0.98,1.47,1.89,2.2,2.84c1.42,1.86,2.83,3.73,4.09,5.71c0.63,0.99,1.56,1.8,2.32,2.72
		c0.4,0.49,0.73,1.04,1.11,1.55c0.4,0.54,0.82,1.06,1.25,1.58c2.47,3.02,4.95,6.02,7.4,9.05c1.35,1.67,2.67,3.37,3.99,5.07
		c1.26,1.63,2.44,3.31,3.74,4.91c1.93,2.39,3.95,4.71,5.9,7.08c0.6,0.74,1.08,1.57,1.66,2.33c1.2,1.54,2.43,3.06,3.64,4.58
		c0.35,0.44,0.66,0.9,1.03,1.32c0.2,0.22,0.49,0.35,0.75,0.51c0,0-0.04-0.05-0.04-0.05c0.14,0.28,0.23,0.59,0.41,0.83
		c0.89,1.16,1.81,2.3,2.71,3.45c0.09,0.06,0.18,0.11,0.28,0.17c0.08,0.18,0.15,0.36,0.23,0.53c0.16,0.32,0.34,0.24,0.52,0.02
		l-0.02,0.02c0.78,0.73,1.51,1.46,1.67,2.62c0.04,0.32,0.55,0.59,0.87,0.84c0.27,0.21,0.67,0.29,0.85,0.54
		c1.18,1.63,2.33,3.29,3.48,4.94c-0.15-0.02-0.3-0.05-0.62-0.1c0.26,0.31,0.39,0.46,0.63,0.74c0.02-0.3,0.03-0.44,0.05-0.57
		c1.68,1.55,2.77,3.57,4.15,5.36c1.09,1.42,2.1,2.9,3.19,4.41c-0.2,0.11-0.35,0.19-0.57,0.31c0.72,1.07,1.43,2.14,2.14,3.21
		c-0.66,0.6-0.6,0.58-0.28,1.5c0.23,0.67,0.31,1.38,0.86,1.91c0.13,0.13,0.14,0.46,0.11,0.68c-0.12,0.84,0.14,1.55,0.59,2.22
		c0.15,0.23,0.28,0.49,0.36,0.75c0.26,0.85-0.04,1.17-0.94,1.06c-0.93-0.11-1.73,0.65-1.71,1.6c0.01,0.26-0.08,0.51-0.17,1.04
		c-0.65-0.69-1.15-1.21-1.68-1.77c-0.1,0.15-0.66,1.03-0.7,1.11c0.05,0.34,0.12,0.76,0.2,1.26c-0.44,0-0.81,0-1.25,0
		c-0.35-0.37-0.77-0.82-1.16-1.24C437.39,421.37,437.42,421.77,437.45,422.16c-0.51-0.36-0.51-0.36-0.95,0
		C436.86,422.16,437.15,422.16,437.45,422.16z M415.44,390.99c0.09-0.45-0.17-0.6-0.63-0.56c0.22,0.18,0.44,0.36,0.66,0.54
		c0.18,0.38,0.22,0.9,0.86,0.96C416,391.29,416,391.29,415.44,390.99z M260.03,146.51c0.18-0.04,0.44-0.02,0.52-0.13
		c0.44-0.61,0.85-1.24,1.24-1.88c0.27-0.43,0.32-1,0.22-1.43C261.39,144.16,260.71,145.33,260.03,146.51
		c-0.15,0.49-0.3,0.97-0.45,1.46c0.35-0.25,0.6-0.55,0.71-0.89C260.35,146.93,260.13,146.7,260.03,146.51z M356.09,316.24
		c-0.05-1.14-0.05-1.15-0.77-1.51C355.61,315.29,355.85,315.77,356.09,316.24c1.01,1.23,2.02,2.46,3.13,3.82
		c0-0.35,0.07-0.57-0.01-0.71c-0.4-0.66-0.76-1.4-1.31-1.92C357.39,316.95,357.1,315.98,356.09,316.24z M368.68,334.57l0.02-0.04
		c-0.26-0.24-0.61-0.43-0.77-0.73c-0.61-1.11-1.52-1.79-2.67-1.99c-0.09-0.45-0.07-0.87-0.27-1.13c-0.21-0.28-0.62-0.4-0.95-0.6
		c-0.02-0.83-0.05-0.8-0.57-1.23c-0.22-0.18-0.41-0.47-0.47-0.74c-0.15-0.79-0.58-1.28-1.13-1.39c-0.13-0.54-0.15-0.96-0.34-1.29
		c-0.28-0.51-0.6-1.04-1.02-1.44c-1.09-1.04-1.24-2.76-2.66-3.57c-0.28-0.16-0.49-0.54-0.61-0.86c-0.21-0.55-0.23-1.19-0.96-1.37
		c-0.03-0.01,0.06-0.31,0.02-0.45c-0.06-0.23-0.17-0.62-0.27-0.63c-1.15-0.03-1.5-1.04-2.08-1.72c-0.97-1.14-1.82-2.38-2.76-3.55
		c-0.92-1.14-1.91-2.23-2.82-3.37c-1.36-1.7-2.63-3.48-4.04-5.14c-0.7-0.82-1.19-1.88-2.26-2.36c0-0.88-0.7-0.9-1.18-1
		c-0.48-1.07-0.92-2.07-1.4-3.13c-0.08-0.01-0.29-0.04-0.66-0.1c0.31-0.16,0.46-0.25,0.71-0.38c-0.72-0.18-1.31-0.17-1.67-0.45
		c-0.55-0.42-0.95-1.05-1.41-1.59c-0.47-0.54-0.97-1.06-1.39-1.63c-0.5-0.69-1.45-1.03-1.57-2.02c-0.01-0.09-0.13-0.22-0.22-0.24
		c-0.91-0.2-1.28-1.03-1.86-1.6c-0.22-0.22-0.45-0.43-0.71-0.6c-0.96-0.61-1.99-1.11-2.65-2.12c-0.18-0.28-0.54-0.44-0.81-0.65
		c-0.37,0.2-0.67,0.36-1.14,0.6c0.12-0.38,0.19-0.57,0.25-0.77c-1.14-0.66-1.22-0.92-0.66-2.37c-0.34-0.22-0.63-0.47-0.57-1.01
		c0.06-0.6-0.54-1.16-0.21-1.83c-0.65-0.47-0.1-1.21-0.39-1.77c0.52-0.68-0.2-0.84-0.53-1.13c0.16-0.24,0.43-0.48,0.39-0.63
		c-0.27-1,0.03-2.07-0.62-3.04c-4.57-6.81-9.09-13.65-13.62-20.47c-12.04-18.12-24.08-36.23-36.12-54.35
		c-0.29-0.43-0.6-0.84-0.94-1.24c-0.08-0.1-0.29-0.08-0.54-0.14c0.17,0.29,0.27,0.47,0.37,0.64c-0.05,0.06-0.11,0.12-0.16,0.18
		c-0.63-0.44-1.3-0.84-1.89-1.33c-0.61-0.5-1.16-1.08-1.7-1.66c-1.15-1.26-2.29-2.55-3.41-3.84c-1.23-1.41-2.4-2.87-3.66-4.27
		c-1.12-1.24-2.31-2.41-3.46-3.62c-1.45-1.54-2.87-3.1-4.33-4.63c-1.44-1.52-3-2.91-4.49-4.38c-2.3-2.26-4.52-4.6-6.76-6.92
		c-0.32-0.33-0.54-0.75-0.79-1.1c0.28-0.34,0.48-0.57,0.62-0.75c-0.13-0.39-0.4-0.79-0.3-0.95c0.41-0.62,0.2-1.32,0.36-1.94
		c0.59-2.26,1.33-4.48,1.97-6.72c0.49-1.72,1.05-3.44,1.36-5.2c0.34-1.95,1.26-3.64,2.02-5.41c0.98-0.7,1.08-1.92,1.67-2.85
		c0.59-0.92,0.37-1.77-0.33-2.5c-0.63-0.66-1.29-1.3-2-1.88c-2.96-2.43-6.06-4.71-8.54-7.66c-0.87-1.04-1.77-2.06-2.59-3.14
		c-0.76-1-1.43-2.07-2.13-3.12c-1.21-1.83-2.4-3.68-3.61-5.51c-1.35-2.03-2.6-4.12-4.35-5.86c-1.67-1.66-3.25-3.4-4.9-5.08
		c-3.2-3.26-6.38-6.55-9.63-9.76c-1.98-1.96-3.86-4.02-5.77-6.05c-4.59-4.89-9.16-9.79-13.75-14.67c-1.17-1.24-2.43-2.38-3.57-3.65
		c-2.43-2.7-4.81-5.44-7.2-8.17c-3.72-4.27-7.46-8.53-11.55-12.46c-2.73-2.63-5.47-5.26-8.34-7.73c-3.26-2.81-6.64-5.49-10.04-8.12
		c-2.5-1.94-5.22-3.55-8.29-4.45c-1.82-0.53-3.62-1.14-5.39-1.82c-1.02-0.39-2.14-0.53-3.21-0.8c-0.66-0.17-1.29-0.42-1.95-0.57
		c-3.04-0.69-6.08-1.34-9.12-2.03c-1.47-0.33-2.9-0.38-4.35,0.11c-1.09,0.37-2.22,0.61-3.32,0.94c-0.29,0.09-0.56,0.27-0.82,0.43
		c-0.29,0.18-0.53,0.46-0.84,0.56c-0.83,0.26-1.69,0.47-2.54,0.66c-1.01,0.23-2.08,0.27-3.02,0.65c-2.85,1.14-5.63,2.45-8.48,3.59
		c-2.38,0.95-4.39,2.43-6.37,3.99c-2.23,1.75-4.4,3.57-6.7,5.24c-2.74,1.99-5.13,4.33-7.27,6.92c-1.96,2.36-3.75,4.86-5.8,7.13
		c-2.62,2.92-4.93,6.06-7.14,9.29c-2.14,3.13-4.06,6.4-5.67,9.84c-1.13,2.42-2.49,4.73-3.56,7.17c-1.24,2.8-2.27,5.7-3.4,8.55
		c-0.15,0.37-0.36,0.7-0.51,1.07c-0.61,1.43-1.37,2.81-1.79,4.29c-0.69,2.45-1.19,4.96-1.71,7.45c-0.27,1.28-0.43,2.58-0.61,3.87
		c-0.24,1.7-0.45,3.4-0.67,5.09c-0.15,1.17,0,2.31,0.16,3.62c0.56-0.68,1.35-0.91,1.32-1.75c0-0.11,0.19-0.24,0.31-0.35
		c1.54-1.36,3.08-2.71,4.62-4.07c0.23-0.21,0.37-0.6,0.62-0.69c0.9-0.33,1.26-1.37,2.2-1.65c0.26-0.08,0.45-0.38,0.66-0.59
		c0.16-0.16,0.28-0.41,0.47-0.51c1.14-0.58,1.89-1.61,2.78-2.47c0.31-0.3,0.67-0.56,0.97-0.87c0.36-0.36,0.83-0.69,0.99-1.13
		c0.3-0.85,1.08-1.46,1.13-2.44c0.01-0.18,0.35-0.4,0.58-0.5c1.55-0.67,3.24-0.61,4.87-0.84c0.8-0.11,1.68,0.01,2.46,0.23
		c1.51,0.41,2.91,1.08,3.87,2.41c0.37,0.51,0.74,1.03,1.16,1.5c1.5,1.65,3.05,3.26,4.53,4.92c1.24,1.4,2.43,2.84,3.64,4.27
		c0.79,0.94,1.57,1.89,2.34,2.86c0.51,0.63,0.94,1.32,1.47,1.94c0.81,0.95,1.68,1.86,2.52,2.78c0.25,0.28,0.52,0.54,0.74,0.84
		c0.72,1,1.42,2.02,2.15,3.02c0.16,0.22,0.4,0.37,0.6,0.55c0.24,0.2,0.54,0.35,0.71,0.6c0.83,1.26,1.75,2.42,2.91,3.42
		c0.81,0.7,1.47,1.57,2.17,2.39c0.69,0.81,1.21,1.76,2.12,2.41c0.7,0.49,1.08,1.31,1.67,1.94c1.53,1.64,2.91,3.43,4.37,5.14
		c0.64,0.75,1.27,1.52,1.99,2.19c0.98,0.92,2.07,1.71,3.05,2.63c2.97,2.81,5.9,5.65,8.85,8.48c0.17,0.17,0.32,0.35,0.49,0.52
		c1.24,1.22,2.46,2.48,3.74,3.65c1.23,1.13,2.59,2.13,3.81,3.28c2.58,2.43,5.1,4.94,7.87,7.17c1.11,0.9,2.12,1.91,3.2,2.84
		c0.45,0.38,0.97,0.95,1.46,0.95c0.79,0.01,1.69-0.22,2.37-0.64c1.49-0.91,2.83-2.07,4.32-3c2.01-1.26,3.72-2.92,5.94-3.95
		c2.04-0.95,3.79-2.49,5.68-3.76c0.61-0.41,0.71-0.97,0.66-1.66c-0.09-1.26-0.08-2.53-0.14-3.79c-0.01-0.15-0.15-0.3-0.21-0.46
		c-0.17-0.42-0.33-0.84-0.5-1.28c0.21-0.07,0.35-0.12,0.62-0.22c-0.22-2.83-0.44-5.7-0.67-8.57c-0.02-0.28-0.04-0.57-0.15-0.82
		c-0.38-0.94-0.17-1.88-0.13-2.83c0.05-1.21-0.07-2.44-0.11-3.66c-0.01-0.38-0.11-0.79,0-1.14c0.33-1.1,0.26-2.19,0.06-3.3
		c-0.06-0.35-0.08-0.7-0.1-1.06c-0.08-1.27-0.11-2.54-0.26-3.8c-0.17-1.49-0.54-2.96,0.12-4.44c0.16-0.37,0.11-1.06-0.15-1.34
		c-0.61-0.66-0.67-1.51-1.01-2.25c-0.07-0.16,0.01-0.4,0.03-0.6c0.05-0.01,0.11-0.02,0.16-0.02c0.16,0.31,0.33,0.62,0.61,1.16
		c0.05-1.12,0.23-1.99-0.62-2.58c0.13-0.25,0.35-0.46,0.33-0.65c-0.19-1.88-0.43-3.76-0.65-5.63c-0.1-0.86-0.24-1.71-0.32-2.57
		c-0.04-0.49,0.08-1.01,0.02-1.5c-0.21-1.58-0.88-3.1-0.59-4.74c0.02-0.1-0.06-0.24-0.13-0.32c-0.29-0.3-0.11-0.66-0.17-0.97
		c-0.15-0.79,0.19-1.37,0.5-2c0.11-0.23,0.2-0.54,0.15-0.77c-0.17-0.76,0.1-1.31,0.65-1.79c0.08-0.07,0.13-0.18,0.19-0.27
		c-0.16-0.29-0.31-0.54-0.47-0.82c1.51-0.46,1.51-0.46,1.32-1.43c0.52-0.64,0.98-1.2,1.45-1.79c-0.19-0.29-0.36-0.55-0.6-0.91
		c0.7,0.33,0.58-0.35,0.86-0.6c0.16,0.1,0.32,0.16,0.43,0.27c0.47,0.46,0.92,0.76,1.5,0.12c0.1-0.11,0.5,0.04,0.77,0.07
		c0.38-0.42,0.65-1.01,1.38-0.97c0.2,0.22,0.4,0.44,0.63,0.7c0.48-0.3,0.93-0.58,1.42-0.15c0.09,0.07,0.31,0.14,0.31,0.13
		c0.34-0.72,0.62-0.1,0.95,0c0.27,0.08,0.61-0.04,1.03-0.09c0.74,0.72,0.81,0.74,1.52,0.24c0.22,0.32,0.45,0.64,0.66,0.97
		c0.69,1.03,1.29,2.13,2.08,3.07c1.28,1.51,2.66,2.93,4.03,4.35c0.55,0.57,1.21,1.04,1.75,1.62c1.47,1.57,2.89,3.19,4.36,4.76
		c0.63,0.67,1.27,1.35,2,1.88c3,2.19,5.77,4.66,8.51,7.16c1.12,1.02,2.2,2.08,3.31,3.11c1.05,0.98,2.04,2.03,3.18,2.89
		c1.89,1.41,3.64,2.97,5.38,4.56c1.9,1.75,3.64,3.69,5.99,4.9c0.62,0.32,0.9,0.87,0.43,1.59c1.55,0.96,1.04,2.16,0.4,3.32
		c0.3,0.24,0.51,0.41,0.52,0.42c0,0.73,0,1.27,0,1.8c0,0.16,0.06,0.37-0.02,0.46c-0.95,1.16-0.72,2.62-0.74,3.89
		c-0.03,1.66-0.32,3.29-0.24,4.98c0.1,1.95-0.44,3.93-0.61,5.9c-0.1,1.13-0.6,2.21-0.37,3.38c0.1,0.55,0.02,1.15,0.01,1.72
		c0,0.15-0.06,0.3-0.07,0.45c-0.08,1.16-0.11,2.33-0.23,3.49c-0.15,1.42-0.59,2.8-0.53,4.25c0.02,0.47,0.05,0.96-0.05,1.42
		c-0.34,1.62-0.77,3.23-1.09,4.86c-0.19,1.01-0.37,2.06-0.3,3.08c0.04,0.59,0.16,1.15-0.09,1.71c-0.74,1.66-0.8,3.46-1.09,5.21
		c-0.04,0.27-0.1,0.58-0.03,0.83c0.32,1.13-0.08,2.09-0.6,3.05c-0.11,0.21-0.31,0.51-0.24,0.65c0.41,0.77-0.18,1.23-0.46,1.8
		c-0.14,0.28-0.35,0.6-0.33,0.88c0.08,0.86-0.33,1.48-0.92,2.02c0.35,0.24,0.62,0.43,0.86,0.6c-0.5,0.52-0.94,0.99-1.35,1.43
		c0.23,0.38,0.38,0.64,0.49,0.82c-0.77,1.23-1.48,2.37-2.23,3.57c1.29,1.06,2.43,2.11,3.69,3.01c2.83,2.01,5.73,3.92,8.57,5.92
		c1.76,1.24,3.55,2.46,5.17,3.88c2.8,2.44,5.55,4.93,8.61,7.05c0.52,0.36,0.96,0.83,1.4,1.29c0.96,1,1.9,2.03,2.87,3.08
		c-0.08,0.14-0.2,0.33-0.31,0.52c-0.08,0.1-0.15,0.19-0.23,0.29c0.59,0.4,1.18,0.81,1.95,1.33c-0.58,0.33-0.92,0.53-1.16,0.67
		c0.14,0.44,0.25,0.83,0.39,1.21c0.08,0.22,0.16,0.44,0.3,0.62c0.44,0.57,0.9,1.12,1.37,1.67c6.69,7.8,13.4,15.59,20.08,23.4
		c2.13,2.49,4.39,4.91,6.23,7.6c8.6,12.58,17.07,25.24,25.57,37.88c0.53,0.79,0.95,1.66,1.39,2.51c0.35,0.67,0.64,1.36,1.38,1.73
		c0.27,0.13,0.59,0.4,0.65,0.67c0.32,1.37,1.26,2.37,1.93,3.54c0.16,0.27,0.33,0.58,0.58,0.75c1.45,1.02,2.31,2.5,3.19,3.98
		c0.76,1.27,1.56,2.5,2.34,3.76c1.47,2.37,2.93,4.75,4.4,7.13c1.16,1.87,2.25,3.77,3.5,5.58c2.05,2.95,4.22,5.82,6.29,8.75
		c1.08,1.53,2.02,3.17,3.1,4.7c1.72,2.45,3.51,4.85,5.28,7.27c0.97,1.32,1.98,2.6,2.92,3.94c0.8,1.14,1.45,2.38,2.3,3.48
		c1.47,1.89,2.79,3.88,4.05,5.91c1.79,2.87,3.68,5.68,5.49,8.53c1,1.56,1.96,3.15,2.89,4.75c0.42,0.72,0.69,1.52,1.11,2.23
		c0.36,0.61,0.88,1.13,1.24,1.74c0.91,1.56,1.64,3.19,2.83,4.62c1.42,1.69,2.44,3.72,3.63,5.6c0.83,1.3,1.68,2.59,2.5,3.91
		c0.31,0.5,0.56,1.05,0.82,1.58c0.38,0.74,0.56,1.71,1.15,2.18c0.97,0.78,1.52,1.84,2.08,2.82c0.74,1.29,1.64,2.47,2.42,3.73
		c0.99,1.61,2.1,3.14,3.12,4.73c1.3,2.03,2.56,4.09,3.86,6.12c0.34,0.53,0.78,1,1.18,1.49c1.23,1.5,1.92,3.34,3.14,4.86
		c1.05,1.3,1.9,2.77,2.79,4.18c0.76,1.2,1.42,2.47,2.2,3.66c1.76,2.66,3.47,5.35,4.9,8.21c0.65,1.3,1.51,2.5,2.35,3.87
		c2.27-1.75,4.41-3.4,6.55-5.05c0.63-0.49,1.26-0.97,1.89-1.45c2.09-1.6,4.14-3.26,6.3-4.77c3.6-2.52,7.24-4.99,10.91-7.4
		c3.03-1.99,6.15-3.85,9.23-5.77c1.35-0.84,2.66-1.74,4.01-2.56c1.29-0.79,2.61-1.51,3.91-2.28c0.23-0.14,0.41-0.35,0.59-0.52
		c-0.79-1.73-1.03-1.9-2.34-1.6c-0.24-0.28-0.49-0.58-0.88-1.05c0.41,0.11,0.62,0.17,1.01,0.27c-0.29-0.38-0.51-0.64-0.7-0.92
		c-0.15-0.22-0.34-0.46-0.37-0.71c-0.18-1.51-0.78-1.99-2.31-1.74c-0.4-0.51-0.81-1.05-1.23-1.58c-0.26-0.34-0.59-0.64-0.76-1.02
		c-0.42-0.88-0.39-0.89-0.88-1.27c-0.07-0.05-0.05-0.21-0.07-0.3c0.33-0.04,0.64-0.08,0.94-0.12c0.01-0.09,0.01-0.19,0.02-0.28
		c-0.36-0.12-0.72-0.22-1.08-0.36c-0.66-0.25-1.28-0.43-1.5-1.33c-0.17-0.66-0.71-1.35-1.28-1.75c-0.5-0.35-0.78-0.77-1.25-1.29
		c0.7,0.12,1.06,0,1.08-0.58c-0.59-0.84-1.55-1.45-1.57-2.61l-0.04,0.03c0.32,0.3,0.68,0.56,0.95,0.9c1.24,1.55,2.47,3.1,3.68,4.68
		c1.42,1.85,2.82,3.72,4.21,5.6c0.92,1.24,1.89,2.46,2.72,3.77c0.72,1.13,1.56,2.11,2.67,3.17c-0.02-0.39,0.04-0.64-0.05-0.74
		c-0.85-0.84-1.23-2-2.1-2.85c-0.87-0.85-1.48-1.97-2.22-2.95c-1.38-1.84-2.77-3.68-4.17-5.51c-1.16-1.51-2.3-3.05-3.56-4.49
		c-1.36-1.56-2.26-3.44-3.73-4.95c-1.49-1.53-2.72-3.33-3.93-5.1c-0.66-0.97-1.21-2.07-2.04-2.86c-0.96-0.91-1.78-1.89-2.55-2.94
		c-0.91-1.24-2.08-2.28-2.68-3.77c-0.2-0.5-0.69-1.19-1.55-1.04l0.03,0.03c-0.08-0.27-0.09-0.58-0.25-0.79
		c-0.75-1.02-1.54-2.01-2.31-3.01c-0.17-0.22-0.35-0.42-0.5-0.65c-0.55-0.84-0.97-1.79-1.65-2.51c-0.86-0.91-1.53-1.96-2.47-2.84
		c-1.33-1.24-2.34-2.83-3.48-4.28c-0.45-0.58-0.79-1.3-1.36-1.73c-0.45-0.35-0.64-0.77-0.58-1.18c0.09-0.68-0.23-0.79-0.78-0.82
		c0-0.23,0-0.46,0-0.7c-0.62-0.21-1.07-0.48-1.48-1.06c-0.78-1.08-1.83-1.96-2.77-2.92l0.04,0.03c0.02-0.2,0.03-0.4,0.05-0.61
		c-0.71-0.21-1.02-0.8-1.29-1.43c-0.51-1.2-1.2-2.29-2.12-3.21c-1.75-1.76-3.14-3.78-4.4-5.9c-0.2-0.33-0.33-0.71-0.51-1.06
		c-0.16-0.32-0.87-0.32-0.56-0.97c0.03-0.07-0.58-0.43-0.88-0.67c-0.09-0.07-0.17-0.19-0.18-0.29c-0.05-0.53-0.52-0.39-0.82-0.53
		c-0.03-0.03-0.06-0.06-0.1-0.09c0.13-0.26,0.25-0.53,0.38-0.79c-0.52-0.27-1.32-1.09-1.27-1.55c0.08-0.76-0.41-1.04-0.89-1.36
		c-0.34-0.22-0.48-0.48-0.64-0.88c-0.38-0.97-1.14-1.67-2.21-1.96c0.25,0.55,0.58,1.03,0.9,1.51
		C367.89,332.85,368.54,333.58,368.68,334.57z M209.91,74.22c0.76,0.83,1.21,1.89,2.24,2.37c0.03,0.01,0.05,0.06,0.06,0.1
		c0.56,1.28,1.56,2.19,2.62,3.01c1.54,1.19,2.59,2.78,3.86,4.28c-0.29,0.17-0.5,0.29-0.75,0.43c0.89,0.57,1.03-0.17,1.38-0.7
		c-1.69-1.89-3.37-3.77-5.06-5.65c-0.77-0.86-1.51-1.73-2.31-2.56C211.41,74.91,210.97,74.11,209.91,74.22z M213.18,81.16
		c0.26,0.84,1.29,1.22,1.32,2.26c0.01,0.32,1.6,0.79,2.09,0.67c-1.17-1.4-2.32-2.78-3.55-4.25c-0.19,0.01-0.56,0.03-1.14,0.05
		c0.31,0.28,0.46,0.42,0.58,0.53c-0.11,0.23-0.2,0.45-0.3,0.66C212.46,81.1,212.75,81.13,213.18,81.16z M210.88,77.15
		c-0.13,0.95-0.05,1.77,0.78,2.46c0.31-0.25,0.63-0.49,0.96-0.75C212.08,78.18,211.86,77.35,210.88,77.15z M168.9,174.01
		c-0.84,0.29-1.43,0.49-2.17,0.74c-0.07,0.22-0.18,0.59-0.29,0.95C167.18,175.08,168.31,175.13,168.9,174.01z M173.47,165.96
		c-0.32,0.5-0.56,0.77-0.67,1.09c-0.06,0.16,0.15,0.59,0.19,0.58c0.7-0.09,0.13,0.56,0.5,0.73c0.1-0.11,0.34-0.25,0.33-0.36
		C173.75,167.44,173.63,166.87,173.47,165.96z M362.3,324.66c0.31-0.97,0.24-1.08-1-1.63C361.68,323.65,361.99,324.16,362.3,324.66z
		 M218.87,86.39c-0.85-1.13-0.85-1.13-1.67-1.04c0.43,0.35,0.8,0.66,1.18,0.94C218.48,86.36,218.64,86.34,218.87,86.39z
		 M211.79,73.54c-0.08,0.66-0.08,0.66,1.42,1.41C212.76,74.5,212.31,74.05,211.79,73.54z M421.44,404.34
		c-0.3-1.03-0.3-1.03-1.03-0.69C420.54,404.2,420.76,404.59,421.44,404.34z M421.06,397.94c-0.39-0.45-0.77-0.9-1.16-1.34
		C420.18,397.15,420.16,397.94,421.06,397.94z M420.46,392.85c-0.08,0.07-0.17,0.13-0.25,0.2c0.47,0.3,0.45,0.98,1.21,1.06
		C421.1,393.68,420.78,393.27,420.46,392.85z M387.86,355.66c0.59,1.26,0.59,1.26,0.97,1.19
		C388.54,356.49,388.2,356.07,387.86,355.66z M220.12,84.59c-0.07,0.07-0.15,0.15-0.22,0.22c0.4,0.37,0.81,0.75,1.4,1.3
		C221.01,85.3,220.67,84.86,220.12,84.59z M113.48,168.99c-0.09,0.1-0.19,0.21-0.28,0.31c0.22,0.18,0.45,0.36,0.67,0.54
		c0.06-0.07,0.12-0.14,0.18-0.21C113.87,169.42,113.68,169.2,113.48,168.99z M363.66,326.32c-0.25-0.98-0.25-0.98-0.75-1.05
		C363.12,325.56,363.32,325.85,363.66,326.32z M399.15,370.33c0.1-0.08,0.19-0.16,0.29-0.24c-0.21-0.22-0.43-0.44-0.64-0.66
		c-0.07,0.06-0.13,0.12-0.2,0.18C398.78,369.84,398.97,370.09,399.15,370.33z M365.65,328.9c0.03,0.39,0.06,0.77,0.76,0.94
		C366.05,329.4,365.85,329.15,365.65,328.9z M438.11,420.4c0.03-0.09,0.05-0.17,0.08-0.26c-0.25-0.07-0.49-0.16-0.74-0.21
		c-0.07-0.01-0.17,0.12-0.3,0.22C437.51,420.24,437.81,420.32,438.11,420.4z M213.6,85.09c-0.04,0.03-0.07,0.07-0.11,0.1
		c0.08,0.11,0.14,0.24,0.24,0.32c0.11,0.09,0.25,0.12,0.38,0.18c0.02-0.05,0.04-0.1,0.06-0.14C213.98,85.4,213.79,85.25,213.6,85.09
		z M418.37,399.81c-0.56-0.56-0.56-0.56-0.99-0.27C417.64,399.61,417.89,399.68,418.37,399.81z M115.27,171.1
		c-0.19-0.29-0.32-0.49-0.52-0.78C114.45,170.93,114.68,171.06,115.27,171.1z M404.24,376.7c0.05-0.06,0.1-0.11,0.16-0.17
		c-0.16-0.16-0.33-0.31-0.49-0.47c-0.04,0.04-0.08,0.08-0.11,0.12C403.94,376.36,404.09,376.53,404.24,376.7z M381.11,461.49
		c-0.11-0.1-0.19-0.23-0.26-0.22c-0.09,0.01-0.17,0.12-0.25,0.19c0.07,0.08,0.13,0.2,0.21,0.22
		C380.88,461.69,380.98,461.58,381.11,461.49z"/>
	<path d="M168.74,29.08c-0.59-0.49-1.19-0.98-1.78-1.47c-0.02-0.15-0.04-0.31-0.06-0.46c0.64,0.5,1.28,1,1.91,1.51
		c0.14,0.11,0.25,0.26,0.54,0.57C168.99,29.13,168.86,29.1,168.74,29.08z"/>
	<path d="M163.32,178.44c-0.54,0.51-1.07,1.01-1.74,1.65C161.64,179.32,161.95,179.03,163.32,178.44z"/>
	<path d="M181.53,40.56c-0.29-0.22-0.57-0.44-0.86-0.66c-0.25-0.29-0.49-0.59-0.74-0.88C180.84,39.16,181.27,39.77,181.53,40.56z"/>
	<path d="M265.55,133.42c0.05-0.36,0.09-0.71,0.15-1.12C266.21,132.75,266.21,132.75,265.55,133.42z"/>
	<path d="M139.8,192.33c0.44,0.24,0.87,0.48,1.42,0.78c-0.71,0.13-1.12-0.23-1.61-0.36C139.67,192.61,139.74,192.47,139.8,192.33z"
		/>
	<path d="M176.41,166.83c0.24-0.42,0.41-0.7,0.59-1.01C177.44,166.73,177.44,166.73,176.41,166.83z"/>
	<path d="M158.78,180.7c0.36-0.19,0.72-0.37,1.19-0.62c0.1,1.05-0.76,0.58-1.02,0.93C158.9,180.91,158.84,180.8,158.78,180.7z"/>
	<path d="M389.39,459.52c-0.32,0.62-0.63,0.36-1,0.16C388.64,459.08,388.96,459.15,389.39,459.52z"/>
	<path d="M427.21,388.24c-0.09-0.06-0.18-0.11-0.28-0.17c-0.01-0.13-0.02-0.26-0.03-0.51c0.64,0.31,0.94,0.7,1.04,1.26
		c0,0,0.02-0.02,0.02-0.02C427.71,388.61,427.46,388.42,427.21,388.24z"/>
	<path d="M384.02,459.93c0.14,0.23,0.28,0.46,0.43,0.69c-0.06,0.04-0.12,0.09-0.18,0.13c-0.16-0.21-0.32-0.42-0.49-0.62
		C383.86,460.07,383.94,460,384.02,459.93z"/>
	<path d="M388.28,457.54c0.2,0.04,0.39,0.07,0.59,0.11c-0.01,0.06-0.02,0.12-0.03,0.18c-0.2-0.03-0.39-0.05-0.59-0.08
		C388.26,457.68,388.27,457.61,388.28,457.54z"/>
	<path d="M173.26,32.95c-0.18-0.21-0.35-0.42-0.53-0.63c0.04-0.04,0.09-0.07,0.13-0.11c0.18,0.21,0.36,0.41,0.54,0.62
		C173.36,32.87,173.31,32.91,173.26,32.95z"/>
	<path class="st0" d="M166.9,27.14c0.02,0.15,0.04,0.31,0.06,0.46c-0.31-0.11-0.63-0.22-0.94-0.33c0.01-0.06,0.02-0.13,0.03-0.19
		c0.3,0.03,0.59,0.07,0.89,0.1C166.94,27.18,166.9,27.14,166.9,27.14z"/>
	<path class="st0" d="M434.86,397.83c-0.01,0.14-0.02,0.27-0.05,0.57c-0.24-0.28-0.37-0.44-0.63-0.74c0.32,0.05,0.47,0.07,0.62,0.1
		C434.81,397.75,434.86,397.83,434.86,397.83z"/>
	<path d="M384.5,461.39c0.18,0.15,0.37,0.3,0.55,0.44c-0.02,0.05-0.04,0.09-0.06,0.14c-0.15-0.04-0.31-0.05-0.43-0.13
		c-0.1-0.07-0.13-0.22-0.2-0.33C384.41,461.48,384.45,461.44,384.5,461.39z"/>
	<path d="M145.89,191.57c0.21,0.01,0.43,0.02,0.64,0.04c0,0,0,0.19-0.01,0.19c-0.2,0.03-0.41,0.04-0.62,0.05
		C145.9,191.76,145.89,191.67,145.89,191.57z"/>
	<path d="M387.26,459.52c-0.22-0.17-0.44-0.33-0.66-0.5c0.03-0.05,0.06-0.1,0.09-0.14c0.24,0.15,0.47,0.29,0.71,0.44
		C387.35,459.38,387.3,459.45,387.26,459.52z"/>
	<path d="M423.81,383.79c0,0,0.04,0.05,0.04,0.05c0.01-0.1,0.02-0.21,0.03-0.31c0.15,0.15,0.29,0.29,0.44,0.44
		c-0.04,0.05-0.08,0.09-0.12,0.14C424.06,384,423.93,383.9,423.81,383.79z"/>
	<path d="M170.38,30c0.18,0.15,0.36,0.29,0.54,0.44c-0.03,0.05-0.07,0.1-0.1,0.15c-0.21-0.13-0.41-0.25-0.62-0.38
		C170.26,30.13,170.32,30.06,170.38,30z"/>
	<path class="st0" d="M413.85,393.31c0.02,1.16,0.99,1.76,1.57,2.61c-0.03,0.58-0.39,0.71-1.08,0.58c0.47,0.53,0.75,0.94,1.25,1.29
		c0.57,0.4,1.12,1.09,1.28,1.75c0.22,0.9,0.84,1.08,1.5,1.33c0.35,0.13,0.72,0.24,1.08,0.36c-0.01,0.09-0.01,0.19-0.02,0.28
		c-0.31,0.04-0.61,0.08-0.94,0.12c0.02,0.09,0,0.25,0.07,0.3c0.49,0.38,0.47,0.39,0.88,1.27c0.18,0.38,0.5,0.68,0.76,1.02
		c0.41,0.54,0.83,1.07,1.23,1.58c1.53-0.25,2.13,0.23,2.31,1.74c0.03,0.25,0.23,0.49,0.37,0.71c0.19,0.28,0.41,0.54,0.7,0.92
		c-0.38-0.1-0.6-0.16-1.01-0.27c0.4,0.47,0.64,0.77,0.88,1.05c1.3-0.29,1.55-0.13,2.34,1.6c-0.19,0.17-0.36,0.39-0.59,0.52
		c-1.3,0.77-2.62,1.49-3.91,2.28c-1.35,0.83-2.67,1.72-4.01,2.56c-3.07,1.93-6.19,3.79-9.23,5.77c-3.68,2.41-7.31,4.88-10.91,7.4
		c-2.15,1.51-4.2,3.17-6.3,4.77c-0.63,0.48-1.26,0.97-1.89,1.45c-2.14,1.65-4.29,3.3-6.55,5.05c-0.84-1.36-1.7-2.56-2.35-3.87
		c-1.43-2.86-3.14-5.55-4.9-8.21c-0.78-1.19-1.44-2.46-2.2-3.66c-0.9-1.42-1.74-2.89-2.79-4.18c-1.23-1.52-1.91-3.36-3.14-4.86
		c-0.4-0.49-0.84-0.96-1.18-1.49c-1.3-2.03-2.56-4.09-3.86-6.12c-1.02-1.59-2.14-3.12-3.12-4.73c-0.77-1.26-1.67-2.44-2.42-3.73
		c-0.56-0.98-1.1-2.04-2.08-2.82c-0.59-0.47-0.78-1.44-1.15-2.18c-0.27-0.53-0.51-1.07-0.82-1.58c-0.82-1.31-1.67-2.6-2.5-3.91
		c-1.2-1.88-2.22-3.9-3.63-5.6c-1.2-1.43-1.92-3.06-2.83-4.62c-0.36-0.61-0.89-1.13-1.24-1.74c-0.42-0.71-0.69-1.51-1.11-2.23
		c-0.93-1.6-1.89-3.19-2.89-4.75c-1.82-2.85-3.71-5.66-5.49-8.53c-1.26-2.03-2.58-4.01-4.05-5.91c-0.85-1.09-1.5-2.34-2.3-3.48
		c-0.94-1.34-1.95-2.62-2.92-3.94c-1.77-2.41-3.56-4.82-5.28-7.27c-1.08-1.53-2.01-3.17-3.1-4.7c-2.07-2.94-4.25-5.8-6.29-8.75
		c-1.25-1.8-2.35-3.71-3.5-5.58c-1.47-2.37-2.93-4.75-4.4-7.13c-0.78-1.25-1.58-2.49-2.34-3.76c-0.88-1.48-1.74-2.96-3.19-3.98
		c-0.25-0.18-0.43-0.48-0.58-0.75c-0.67-1.16-1.61-2.17-1.93-3.54c-0.06-0.26-0.38-0.53-0.65-0.67c-0.74-0.37-1.04-1.05-1.38-1.73
		c-0.44-0.85-0.86-1.72-1.39-2.51c-8.5-12.64-16.98-25.3-25.57-37.88c-1.84-2.69-4.1-5.11-6.23-7.6
		c-6.68-7.81-13.38-15.6-20.08-23.4c-0.47-0.54-0.93-1.1-1.37-1.67c-0.14-0.18-0.22-0.4-0.3-0.62c-0.14-0.38-0.25-0.78-0.39-1.21
		c0.24-0.14,0.58-0.33,1.16-0.67c-0.76-0.52-1.36-0.92-1.95-1.33c0.08-0.1,0.15-0.19,0.23-0.29c0.11-0.19,0.23-0.38,0.31-0.52
		c-0.97-1.05-1.91-2.07-2.87-3.08c-0.44-0.46-0.88-0.93-1.4-1.29c-3.06-2.12-5.82-4.61-8.61-7.05c-1.62-1.41-3.41-2.64-5.17-3.88
		c-2.84-2-5.74-3.91-8.57-5.92c-1.26-0.9-2.41-1.96-3.69-3.01c0.75-1.21,1.47-2.35,2.23-3.57c-0.11-0.18-0.27-0.45-0.49-0.82
		c0.41-0.44,0.85-0.9,1.35-1.43c-0.24-0.17-0.52-0.36-0.86-0.6c0.6-0.53,1-1.15,0.92-2.02c-0.03-0.28,0.19-0.59,0.33-0.88
		c0.28-0.56,0.87-1.03,0.46-1.8c-0.07-0.14,0.13-0.44,0.24-0.65c0.52-0.95,0.91-1.92,0.6-3.05c-0.07-0.26-0.01-0.56,0.03-0.83
		c0.28-1.75,0.35-3.55,1.09-5.21c0.25-0.56,0.13-1.12,0.09-1.71c-0.07-1.02,0.1-2.07,0.3-3.08c0.31-1.63,0.75-3.23,1.09-4.86
		c0.1-0.46,0.07-0.94,0.05-1.42c-0.06-1.45,0.38-2.83,0.53-4.25c0.12-1.16,0.15-2.32,0.23-3.49c0.01-0.15,0.06-0.3,0.07-0.45
		c0.01-0.57,0.1-1.17-0.01-1.72c-0.22-1.18,0.27-2.25,0.37-3.38c0.18-1.97,0.71-3.95,0.61-5.9c-0.09-1.68,0.21-3.32,0.24-4.98
		c0.03-1.26-0.21-2.73,0.74-3.89c0.08-0.1,0.02-0.31,0.02-0.46c0-0.53,0-1.07,0-1.8c-0.01-0.01-0.22-0.18-0.52-0.42
		c0.65-1.16,1.16-2.36-0.4-3.32c0.47-0.71,0.19-1.27-0.43-1.59c-2.35-1.21-4.08-3.16-5.99-4.9c-1.73-1.59-3.49-3.14-5.38-4.56
		c-1.14-0.85-2.13-1.91-3.18-2.89c-1.11-1.03-2.19-2.09-3.31-3.11c-2.74-2.5-5.51-4.97-8.51-7.16c-0.73-0.54-1.38-1.21-2-1.88
		c-1.47-1.57-2.89-3.19-4.36-4.76c-0.54-0.58-1.21-1.04-1.75-1.62c-1.37-1.43-2.76-2.84-4.03-4.35c-0.79-0.94-1.39-2.04-2.08-3.07
		c-0.22-0.32-0.44-0.64-0.66-0.97c-0.71,0.5-0.78,0.48-1.52-0.24c-0.42,0.05-0.76,0.17-1.03,0.09c-0.34-0.1-0.62-0.72-0.95,0
		c0,0.01-0.23-0.06-0.31-0.13c-0.49-0.42-0.94-0.15-1.42,0.15c-0.23-0.26-0.44-0.48-0.63-0.7c-0.73-0.04-1,0.55-1.38,0.97
		c-0.28-0.03-0.67-0.18-0.77-0.07c-0.59,0.64-1.03,0.35-1.5-0.12c-0.11-0.11-0.26-0.17-0.43-0.27c-0.28,0.24-0.16,0.93-0.86,0.6
		c0.24,0.36,0.41,0.62,0.6,0.91c-0.47,0.58-0.93,1.14-1.45,1.79c0.2,0.97,0.2,0.97-1.32,1.43c0.16,0.27,0.31,0.53,0.47,0.82
		c-0.06,0.09-0.11,0.2-0.19,0.27c-0.55,0.48-0.82,1.04-0.65,1.79c0.05,0.24-0.03,0.54-0.15,0.77c-0.31,0.63-0.65,1.21-0.5,2
		c0.06,0.31-0.12,0.67,0.17,0.97c0.08,0.08,0.15,0.22,0.13,0.32c-0.29,1.64,0.38,3.16,0.59,4.74c0.07,0.49-0.06,1-0.02,1.5
		c0.07,0.86,0.21,1.71,0.32,2.57c0.23,1.88,0.46,3.75,0.65,5.63c0.02,0.19-0.2,0.4-0.33,0.65c0.85,0.59,0.67,1.46,0.62,2.58
		c-0.28-0.53-0.45-0.84-0.61-1.16c-0.05,0.01-0.11,0.02-0.16,0.02c-0.01,0.2-0.1,0.44-0.03,0.6c0.35,0.74,0.41,1.59,1.01,2.25
		c0.25,0.27,0.31,0.97,0.15,1.34c-0.66,1.49-0.29,2.95-0.12,4.44c0.14,1.26,0.17,2.53,0.26,3.8c0.02,0.35,0.04,0.71,0.1,1.06
		c0.2,1.1,0.26,2.19-0.06,3.3c-0.1,0.35-0.01,0.76,0,1.14c0.04,1.22,0.17,2.44,0.11,3.66c-0.04,0.96-0.24,1.9,0.13,2.83
		c0.1,0.25,0.12,0.54,0.15,0.82c0.23,2.87,0.45,5.74,0.67,8.57c-0.27,0.09-0.41,0.14-0.62,0.22c0.17,0.44,0.33,0.86,0.5,1.28
		c0.06,0.16,0.21,0.3,0.21,0.46c0.06,1.26,0.05,2.53,0.14,3.79c0.05,0.69-0.05,1.25-0.66,1.66c-1.89,1.27-3.64,2.82-5.68,3.76
		c-2.22,1.03-3.93,2.69-5.94,3.95c-1.48,0.93-2.82,2.09-4.32,3c-0.68,0.41-1.57,0.65-2.37,0.64c-0.49,0-1.01-0.57-1.46-0.95
		c-1.08-0.93-2.09-1.95-3.2-2.84c-2.76-2.24-5.28-4.74-7.87-7.17c-1.22-1.15-2.57-2.15-3.81-3.28c-1.28-1.18-2.5-2.43-3.74-3.65
		c-0.17-0.17-0.32-0.36-0.49-0.52c-2.95-2.83-5.88-5.67-8.85-8.48c-0.97-0.92-2.07-1.71-3.05-2.63c-0.72-0.67-1.35-1.44-1.99-2.19
		c-1.46-1.71-2.84-3.5-4.37-5.14c-0.59-0.63-0.97-1.45-1.67-1.94c-0.91-0.65-1.43-1.59-2.12-2.41c-0.7-0.82-1.36-1.69-2.17-2.39
		c-1.15-1-2.08-2.16-2.91-3.42c-0.16-0.25-0.47-0.4-0.71-0.6c-0.21-0.18-0.45-0.33-0.6-0.55c-0.73-1-1.42-2.02-2.15-3.02
		c-0.22-0.3-0.49-0.56-0.74-0.84c-0.84-0.93-1.71-1.83-2.52-2.78c-0.53-0.61-0.97-1.3-1.47-1.94c-0.77-0.96-1.55-1.91-2.34-2.86
		c-1.2-1.43-2.39-2.88-3.64-4.27c-1.48-1.66-3.03-3.27-4.53-4.92c-0.42-0.47-0.79-0.98-1.16-1.5c-0.96-1.33-2.36-2-3.87-2.41
		c-0.79-0.22-1.67-0.34-2.46-0.23c-1.63,0.23-3.32,0.17-4.87,0.84c-0.23,0.1-0.57,0.32-0.58,0.5c-0.05,0.97-0.83,1.59-1.13,2.44
		c-0.16,0.44-0.63,0.78-0.99,1.13c-0.31,0.31-0.66,0.56-0.97,0.87c-0.89,0.87-1.63,1.89-2.78,2.47c-0.19,0.1-0.3,0.35-0.47,0.51
		c-0.21,0.21-0.4,0.51-0.66,0.59c-0.94,0.28-1.29,1.32-2.2,1.65c-0.26,0.09-0.39,0.48-0.62,0.69c-1.53,1.36-3.08,2.72-4.62,4.07
		c-0.12,0.1-0.31,0.23-0.31,0.35c0.03,0.85-0.76,1.07-1.32,1.75c-0.16-1.31-0.31-2.46-0.16-3.62c0.22-1.7,0.43-3.4,0.67-5.09
		c0.18-1.29,0.34-2.59,0.61-3.87c0.52-2.49,1.02-5,1.71-7.45c0.42-1.48,1.18-2.87,1.79-4.29c0.16-0.36,0.37-0.7,0.51-1.07
		c1.13-2.85,2.17-5.74,3.4-8.55c1.08-2.44,2.43-4.75,3.56-7.17c1.61-3.45,3.52-6.72,5.67-9.84c2.21-3.22,4.52-6.37,7.14-9.29
		c2.04-2.28,3.84-4.78,5.8-7.13c2.15-2.59,4.53-4.93,7.27-6.92c2.29-1.66,4.46-3.49,6.7-5.24c1.98-1.55,3.99-3.04,6.37-3.99
		c2.85-1.14,5.63-2.45,8.48-3.59c0.94-0.38,2.02-0.42,3.02-0.65c0.85-0.19,1.71-0.4,2.54-0.66c0.31-0.1,0.55-0.38,0.84-0.56
		c0.26-0.16,0.53-0.34,0.82-0.43c1.1-0.33,2.23-0.57,3.32-0.94c1.45-0.49,2.88-0.44,4.35-0.11c3.04,0.69,6.08,1.34,9.12,2.03
		c0.66,0.15,1.3,0.4,1.95,0.57c1.07,0.27,2.19,0.41,3.21,0.8c1.78,0.68,3.57,1.29,5.39,1.82c3.07,0.9,5.79,2.51,8.29,4.45
		c3.4,2.63,6.78,5.31,10.04,8.12c2.87,2.47,5.61,5.1,8.34,7.73c4.09,3.93,7.83,8.18,11.55,12.46c2.38,2.74,4.77,5.48,7.2,8.17
		c1.14,1.26,2.41,2.41,3.57,3.65c4.59,4.88,9.16,9.78,13.75,14.67c1.91,2.03,3.78,4.09,5.77,6.05c3.25,3.21,6.43,6.5,9.63,9.76
		c1.65,1.68,3.23,3.43,4.9,5.08c1.75,1.74,3,3.83,4.35,5.86c1.21,1.83,2.4,3.67,3.61,5.51c0.69,1.05,1.37,2.12,2.13,3.12
		c0.82,1.08,1.71,2.1,2.59,3.14c2.49,2.96,5.58,5.24,8.54,7.66c0.71,0.58,1.37,1.21,2,1.88c0.7,0.73,0.92,1.58,0.33,2.5
		c-0.6,0.93-0.69,2.15-1.67,2.85c-0.76,1.77-1.68,3.46-2.02,5.41c-0.31,1.76-0.87,3.48-1.36,5.2c-0.64,2.24-1.38,4.46-1.97,6.72
		c-0.16,0.62,0.04,1.31-0.36,1.94c-0.1,0.16,0.17,0.56,0.3,0.95c-0.14,0.17-0.34,0.4-0.62,0.75c0.25,0.35,0.47,0.77,0.79,1.1
		c2.24,2.32,4.46,4.66,6.76,6.92c1.49,1.47,3.05,2.86,4.49,4.38c1.45,1.53,2.88,3.09,4.33,4.63c1.15,1.21,2.34,2.38,3.46,3.62
		c1.25,1.39,2.43,2.85,3.66,4.27c1.12,1.29,2.26,2.57,3.41,3.84c0.53,0.58,1.09,1.16,1.7,1.66c0.59,0.49,1.26,0.89,1.89,1.33
		c0.05-0.06,0.11-0.12,0.16-0.18c-0.1-0.17-0.2-0.35-0.37-0.64c0.24,0.06,0.45,0.05,0.54,0.14c0.34,0.39,0.65,0.8,0.94,1.24
		c12.04,18.11,24.08,36.23,36.12,54.35c4.54,6.83,9.05,13.67,13.62,20.47c0.65,0.97,0.35,2.04,0.62,3.04
		c0.04,0.15-0.23,0.38-0.39,0.63c0.33,0.29,1.05,0.45,0.53,1.13c0.28,0.56-0.26,1.29,0.39,1.77c-0.33,0.66,0.27,1.22,0.21,1.83
		c-0.05,0.53,0.23,0.79,0.57,1.01c-0.56,1.45-0.49,1.71,0.66,2.37c-0.06,0.2-0.13,0.4-0.25,0.77c0.47-0.25,0.77-0.41,1.14-0.6
		c0.27,0.21,0.63,0.37,0.81,0.65c0.66,1.01,1.69,1.5,2.65,2.12c0.26,0.17,0.49,0.38,0.71,0.6c0.58,0.58,0.95,1.4,1.86,1.6
		c0.09,0.02,0.21,0.15,0.22,0.24c0.12,0.99,1.06,1.34,1.57,2.02c0.42,0.57,0.92,1.09,1.39,1.63c0.46,0.54,0.86,1.17,1.41,1.59
		c0.36,0.28,0.95,0.27,1.67,0.45c-0.25,0.14-0.41,0.22-0.71,0.38c0.37,0.05,0.58,0.09,0.66,0.1c0.47,1.06,0.92,2.05,1.4,3.13
		c0.48,0.1,1.19,0.12,1.18,1c1.07,0.48,1.56,1.54,2.26,2.36c1.41,1.66,2.68,3.44,4.04,5.14c0.91,1.14,1.9,2.23,2.82,3.37
		c0.94,1.17,1.78,2.41,2.76,3.55c0.58,0.67,0.93,1.69,2.08,1.72c0.1,0,0.21,0.4,0.27,0.63c0.04,0.15-0.05,0.45-0.02,0.45
		c0.73,0.18,0.76,0.82,0.96,1.37c0.12,0.32,0.33,0.7,0.61,0.86c1.42,0.8,1.56,2.53,2.66,3.57c0.42,0.4,0.74,0.92,1.02,1.44
		c0.18,0.33,0.2,0.75,0.34,1.29c0.55,0.1,0.98,0.59,1.13,1.39c0.05,0.27,0.25,0.57,0.47,0.74c0.53,0.43,0.55,0.4,0.57,1.23
		c0.33,0.2,0.75,0.32,0.95,0.6c0.19,0.26,0.17,0.68,0.27,1.13c1.15,0.2,2.06,0.88,2.67,1.99c0.16,0.29,0.51,0.49,0.77,0.73
		c0.27,0.52,0.53,1.03,0.8,1.54c-0.25,0.19-0.44,0.34-0.54,0.42c0.32,0.39,0.57,0.72,0.85,1.04c0.25,0.29,0.48,0.77,0.76,0.8
		c0.83,0.08,0.93,0.69,1.15,1.25c-0.16-0.11-0.32-0.22-0.48-0.33c0.11,0.49,0.24,0.95,0.85,0.82c-0.03,0.39-0.12,0.75,0.21,1.11
		c0.18,0.19,0.16,0.57,0.25,0.98c1.07,0.18,1.39,1.48,2.33,2.17c0.03-0.25,0.05-0.39,0.07-0.54c0.73,1.03,1.46,2.05,2.19,3.07
		c-0.29-0.2-0.58-0.4-0.87-0.6c-0.48,0.93-0.44,0.97,1.08,1.3c-0.08-0.25-0.16-0.49-0.25-0.74c0.82,0.83,1.5,1.76,2.18,2.91
		c-0.51,0-0.86,0-1.21,0c0,0.08-0.01,0.17-0.01,0.25c0.46,0.09,0.92,0.18,1.17,0.23c0.26,0.55,0.72,1.05,0.62,1.38
		c-0.28,0.92,0.34,1.24,0.85,1.67c0.24,0.32,0.48,0.65,0.72,0.97c0.23,0.17,0.49,0.51,0.67,0.47c0.99-0.19,1.45,0.47,1.94,1.1
		c-0.47,0.12-0.47,0.12-0.07,0.61c0.03-0.26,0.05-0.43,0.07-0.6c0.65,0.95,1.34,1.87,2.24,2.62c0.03-0.2-0.01-0.34-0.09-0.45
		c-1.22-1.68-2.45-3.36-3.66-5.05c-0.25-0.35-0.44-0.74-0.66-1.11c0.94,0.96,2,1.84,2.77,2.92c0.42,0.58,0.87,0.84,1.48,1.06
		c0,0.24,0,0.47,0,0.7c0.55,0.03,0.87,0.14,0.78,0.82c-0.05,0.41,0.13,0.83,0.58,1.18c0.56,0.43,0.9,1.15,1.36,1.73
		c1.14,1.45,2.14,3.04,3.48,4.28c0.94,0.87,1.61,1.92,2.47,2.84c0.67,0.72,1.1,1.67,1.65,2.51c0.15,0.23,0.33,0.43,0.5,0.65
		c0.78,1,1.56,1.99,2.31,3.01c0.15,0.21,0.17,0.52,0.25,0.79c-1.05-1.24-2.11-2.46-3.13-3.72c-0.46-0.57-0.8-1.26-1.65-1.43
		c0.49,0.53,0.08,1.13,0.21,1.71c0.23,1.05,0.13,1.12,1.16,0.99c0.18-0.02,0.36-0.08,0.48-0.11c0.91,1.12,1.8,2.14,2.59,3.23
		c0.51,0.69,1.23,1.31,1.09,2.34c-0.05,0.36,0.19,0.69,0.67,0.66c0.18-0.01,0.37,0.02,0.57,0.04c-0.24,0.84-0.08,1.46,0.53,1.69
		c0.99,0.37,1.61,1.13,2.3,1.85c0.26,0.27,0.6,0.47,0.9,0.7c-0.03,0.64,0.32,1.01,0.91,1.37c-0.02-0.78-0.57-0.99-0.94-1.34
		c-0.05-0.15-0.08-0.32-0.17-0.44c-1.37-1.78-2.78-3.53-4.13-5.32c-0.53-0.7-1.24-1.31-1.42-2.23c0.85-0.16,1.34,0.53,1.54,1.03
		c0.6,1.49,1.77,2.53,2.68,3.77c0.77,1.04,1.59,2.03,2.55,2.94c0.83,0.79,1.38,1.89,2.04,2.86c1.21,1.77,2.44,3.57,3.93,5.1
		c1.47,1.51,2.36,3.39,3.73,4.95c1.26,1.43,2.39,2.98,3.56,4.49c1.4,1.82,2.79,3.67,4.17,5.51c0.74,0.99,1.35,2.1,2.22,2.95
		c0.87,0.85,1.25,2.01,2.1,2.85c0.09,0.09,0.03,0.35,0.05,0.74c-1.11-1.06-1.95-2.04-2.67-3.17c-0.83-1.3-1.79-2.52-2.72-3.77
		c-1.39-1.87-2.79-3.74-4.21-5.6c-1.21-1.57-2.44-3.13-3.68-4.68c-0.27-0.34-0.63-0.6-0.95-0.9c-0.2-0.28-0.39-0.57-0.59-0.85
		c-0.85-1.48-0.85-1.48-1.69-1.6c0.56,0.64,0.83,1.42,1.7,1.6C412.88,393.19,413.41,393.22,413.85,393.31z M408.18,387.72
		c0.86,0.33,1.59,0.82,2.09,1.63c0.16,0.25,0.48,0.4,0.72,0.6c0.07-0.08,0.13-0.15,0.2-0.23c-1.49-1.93-2.98-3.85-4.63-5.98
		c0,0.48,0,0.69,0,0.95c-0.41-0.16-0.81-0.45-1.08,0.05c-0.23,0.42,0.14,0.63,0.39,0.88c0.38,0.38,0.94,0.6,1.01,1.27
		c0.01,0.14,0.44,0.33,0.67,0.33c0.41,0,0.56,0.2,0.66,0.55c-0.13,0.08-0.25,0.15-0.45,0.27c0.18,0.17,0.34,0.31,0.69,0.63
		C408.31,388.17,408.25,387.95,408.18,387.72z M393.21,367.37c-0.76-1.94-5.06-7.31-6.17-7.89c0.33,0.51,0.54,0.83,0.73,1.13
		c-0.22,0.41-0.89,0.35-0.86,0.93c0.61,0.43,0.88-0.19,1.35-0.52c0.15,0.45,0.33,0.78,0.35,1.13c0.02,0.38-0.09,0.77-0.15,1.11
		c0.65,0.21,1.28,0.25,1.64,0.58c0.7,0.63,1.24,1.42,1.85,2.14C392.37,366.45,392.8,366.91,393.21,367.37z M353.77,316.56
		c0.09-0.08,0.18-0.16,0.27-0.25c-0.27-0.44-0.36-1.05-1.36-1.15C353.15,315.75,353.46,316.15,353.77,316.56z M410.64,391.03
		c0.07-0.11,0.14-0.21,0.2-0.32c-0.09-0.77-0.74-0.38-1.12-0.55c-0.04,0.07-0.08,0.14-0.12,0.22
		C409.94,390.6,410.29,390.81,410.64,391.03z M360.47,325.35c-0.15-0.59-0.03-1.02-0.51-1.37
		C359.74,324.54,359.81,324.91,360.47,325.35z M160.6,117.08c-0.08,0.77-0.08,0.77,0.53,0.92
		C160.94,117.68,160.8,117.42,160.6,117.08z M396.65,373.68c0.01,0.09,0.03,0.19,0.04,0.28c0.31-0.05,0.62-0.1,0.93-0.15
		c-0.01-0.08-0.03-0.16-0.04-0.24C397.27,373.6,396.96,373.64,396.65,373.68z M351.26,312.83c-0.06,0.04-0.12,0.09-0.17,0.13
		c0.16,0.21,0.32,0.41,0.47,0.62c0.06-0.04,0.11-0.09,0.17-0.13C351.57,313.24,351.41,313.04,351.26,312.83z M342.65,302.19
		c0.05,0.55,0.24,0.73,0.65,0.31C343.04,302.37,342.84,302.28,342.65,302.19z M409.94,389.69c0.05-0.06,0.1-0.12,0.15-0.18
		c-0.16-0.14-0.33-0.28-0.49-0.42c-0.05,0.07-0.11,0.13-0.16,0.2C409.6,389.42,409.77,389.56,409.94,389.69z"/>
	<path d="M381.87,351.83c0.22,0.37,0.41,0.76,0.66,1.11c1.21,1.69,2.44,3.37,3.66,5.05c0.08,0.11,0.12,0.26,0.09,0.45
		c-0.9-0.75-1.59-1.67-2.24-2.62c0,0,0-0.01,0-0.01c-0.49-0.64-0.94-1.29-1.94-1.1c-0.19,0.04-0.45-0.3-0.67-0.47l-0.02,0.02
		c0.33-0.13,0.56-0.3,0.2-0.64c-0.14-0.13-0.3-0.24-0.45-0.36l0.03,0.04c-0.09-0.22-0.18-0.44-0.27-0.65
		c-0.05,0.01-0.1,0.02-0.15,0.03c-0.03,0.21-0.06,0.42-0.09,0.62l0.03-0.03c-0.51-0.43-1.13-0.74-0.85-1.67
		c0.1-0.33-0.36-0.83-0.62-1.38c-0.26-0.05-0.72-0.14-1.17-0.23c0-0.08,0.01-0.17,0.01-0.25c0.35,0,0.7,0,1.21,0
		c-0.67-1.15-1.36-2.07-2.18-2.91l0.04,0.04c-0.73-1.02-1.45-2.04-2.19-3.07c-0.02,0.16-0.04,0.3-0.07,0.54
		c-0.94-0.69-1.26-1.99-2.33-2.17c-0.1-0.41-0.08-0.79-0.25-0.98c-0.33-0.36-0.24-0.72-0.21-1.11c-0.12-0.16-0.25-0.33-0.37-0.49
		c-0.22-0.56-0.33-1.17-1.15-1.25c-0.28-0.03-0.52-0.51-0.76-0.8c-0.27-0.32-0.53-0.65-0.85-1.04c0.11-0.08,0.3-0.23,0.54-0.42
		c-0.26-0.51-0.53-1.02-0.8-1.54c0,0-0.02,0.04-0.02,0.04c0.81,0.84,1.62,1.69,2.42,2.53c0.03,0.03,0.06,0.06,0.1,0.09
		c0.52,0.84,1.01,1.72,1.58,2.53c2.34,3.3,4.69,6.6,7.07,9.86c0.6,0.82,1.36,1.52,2.05,2.28L381.87,351.83z"/>
	<path class="st0" d="M381.9,351.86c-0.69-0.76-1.45-1.46-2.05-2.28c-2.39-3.27-4.74-6.56-7.07-9.86c-0.57-0.81-1.06-1.68-1.58-2.53
		c0.29,0.14,0.76,0,0.82,0.53c0.01,0.1,0.09,0.22,0.18,0.29c0.3,0.24,0.91,0.6,0.88,0.67c-0.3,0.66,0.4,0.65,0.56,0.97
		c0.17,0.35,0.31,0.72,0.51,1.06c1.26,2.12,2.65,4.14,4.4,5.9c0.91,0.92,1.6,2.02,2.12,3.21c0.27,0.63,0.58,1.21,1.29,1.43
		C381.93,351.47,381.92,351.66,381.9,351.86z"/>
	<path class="st0" d="M209.91,74.22c1.06-0.11,1.5,0.69,2.05,1.27c0.79,0.83,1.54,1.71,2.31,2.56c1.68,1.88,3.37,3.76,5.06,5.65
		c-0.35,0.53-0.49,1.27-1.38,0.7c0.24-0.14,0.45-0.26,0.75-0.43c-1.28-1.49-2.33-3.08-3.86-4.28c-1.06-0.82-2.06-1.74-2.62-3.01
		c-0.02-0.04-0.03-0.09-0.06-0.1C211.12,76.11,210.67,75.05,209.91,74.22z"/>
	<path class="st0" d="M371.1,337.1c-0.81-0.84-1.62-1.69-2.42-2.53c-0.14-0.99-0.79-1.72-1.31-2.51c-0.32-0.48-0.65-0.96-0.9-1.51
		c1.07,0.29,1.83,0.99,2.21,1.96c0.16,0.4,0.3,0.66,0.64,0.88c0.48,0.32,0.97,0.6,0.89,1.36c-0.05,0.46,0.75,1.28,1.27,1.55
		C371.36,336.57,371.23,336.83,371.1,337.1z"/>
	<path class="st0" d="M213.18,81.16c-0.43-0.03-0.71-0.06-1-0.08c0.1-0.21,0.19-0.43,0.3-0.66c-0.11-0.1-0.27-0.25-0.58-0.53
		c0.57-0.03,0.95-0.04,1.14-0.05c1.23,1.47,2.38,2.85,3.55,4.25c-0.49,0.12-2.08-0.36-2.09-0.67
		C214.47,82.38,213.44,82,213.18,81.16z"/>
	<path class="st0" d="M210.88,77.15c0.98,0.2,1.2,1.03,1.74,1.71c-0.33,0.26-0.65,0.51-0.96,0.75
		C210.83,78.92,210.75,78.1,210.88,77.15z"/>
	<path class="st0" d="M356.08,316.26c1.03-0.28,1.31,0.69,1.82,1.17c0.55,0.52,0.9,1.26,1.31,1.92c0.08,0.13,0.01,0.36,0.01,0.71
		c-1.11-1.36-2.12-2.59-3.12-3.82L356.08,316.26z"/>
	<path class="st0" d="M168.9,174.01c-0.59,1.12-1.72,1.07-2.47,1.69c0.11-0.37,0.23-0.73,0.29-0.95
		C167.46,174.5,168.06,174.3,168.9,174.01z"/>
	<path class="st0" d="M260.04,146.51c0.67-1.18,1.35-2.35,1.97-3.44c0.1,0.43,0.05,1-0.22,1.43c-0.4,0.64-0.8,1.27-1.24,1.88
		C260.47,146.49,260.21,146.47,260.04,146.51L260.04,146.51z"/>
	<path class="st0" d="M173.47,165.96c0.16,0.91,0.29,1.48,0.35,2.05c0.01,0.11-0.22,0.25-0.33,0.36c-0.36-0.17,0.21-0.82-0.5-0.73
		c-0.05,0.01-0.25-0.42-0.19-0.58C172.91,166.73,173.15,166.46,173.47,165.96z"/>
	<path class="st0" d="M362.3,324.66c-0.31-0.51-0.62-1.01-1-1.63C362.54,323.59,362.61,323.69,362.3,324.66z"/>
	<path class="st0" d="M218.87,86.39c-0.23-0.04-0.39-0.03-0.49-0.1c-0.38-0.28-0.75-0.59-1.18-0.94
		C218.02,85.26,218.02,85.26,218.87,86.39z"/>
	<path class="st0" d="M211.79,73.54c0.52,0.52,0.97,0.96,1.42,1.41C211.72,74.19,211.72,74.19,211.79,73.54z"/>
	<path class="st0" d="M421.44,404.34c-0.68,0.25-0.9-0.14-1.03-0.69C421.14,403.31,421.14,403.31,421.44,404.34z"/>
	<path class="st0" d="M421.06,397.94c-0.9,0-0.89-0.78-1.16-1.34C420.29,397.04,420.68,397.49,421.06,397.94z"/>
	<path class="st0" d="M420.46,392.85c0.32,0.42,0.64,0.83,0.96,1.25c-0.76-0.07-0.74-0.76-1.21-1.06
		C420.29,392.98,420.38,392.92,420.46,392.85z"/>
	<path class="st0" d="M387.86,355.66c0.34,0.42,0.67,0.83,0.97,1.19C388.45,356.91,388.45,356.91,387.86,355.66z"/>
	<path class="st0" d="M220.12,84.59c0.55,0.27,0.89,0.71,1.17,1.52c-0.59-0.55-0.99-0.92-1.4-1.3
		C219.97,84.74,220.05,84.66,220.12,84.59z"/>
	<path class="st0" d="M260.03,146.51c0.1,0.19,0.31,0.43,0.26,0.57c-0.12,0.34-0.36,0.64-0.71,0.89
		C259.74,147.48,259.89,146.99,260.03,146.51C260.04,146.51,260.03,146.51,260.03,146.51z"/>
	<path class="st0" d="M356.09,316.24c-0.24-0.47-0.48-0.95-0.77-1.51c0.72,0.36,0.72,0.37,0.76,1.52
		C356.08,316.26,356.09,316.24,356.09,316.24z"/>
	<path class="st0" d="M196.69,142.83c-0.45-0.32-0.91-0.64-1.36-0.96c0.05-0.07,0.11-0.14,0.16-0.2c0.49,0.29,1.02,0.53,1.17,1.2
		C196.66,142.86,196.69,142.83,196.69,142.83z"/>
	<path class="st0" d="M113.48,168.99c0.19,0.21,0.38,0.43,0.58,0.64c-0.06,0.07-0.12,0.14-0.18,0.21c-0.22-0.18-0.45-0.36-0.67-0.54
		C113.3,169.2,113.39,169.09,113.48,168.99z"/>
	<path class="st0" d="M363.66,326.32c-0.33-0.46-0.54-0.76-0.75-1.05C363.41,325.34,363.41,325.34,363.66,326.32z"/>
	<path class="st0" d="M399.15,370.33c-0.19-0.24-0.37-0.49-0.56-0.73c0.07-0.06,0.13-0.12,0.2-0.18c0.21,0.22,0.43,0.44,0.64,0.66
		C399.34,370.17,399.25,370.25,399.15,370.33z"/>
	<path class="st0" d="M365.65,328.9c0.2,0.25,0.4,0.49,0.76,0.94C365.71,329.68,365.67,329.29,365.65,328.9z"/>
	<path class="st0" d="M438.11,420.4c-0.3-0.08-0.59-0.15-0.96-0.25c0.13-0.1,0.23-0.23,0.3-0.22c0.25,0.04,0.49,0.13,0.74,0.21
		C438.16,420.22,438.13,420.31,438.11,420.4z"/>
	<path class="st0" d="M213.6,85.09c0.19,0.15,0.38,0.31,0.57,0.46c-0.02,0.05-0.04,0.1-0.06,0.14c-0.13-0.06-0.27-0.09-0.38-0.18
		c-0.1-0.08-0.16-0.21-0.24-0.32C213.53,85.16,213.56,85.13,213.6,85.09z"/>
	<path class="st0" d="M415.44,390.99c0.55,0.3,0.55,0.3,0.88,0.94c-0.64-0.06-0.67-0.58-0.86-0.96L415.44,390.99z"/>
	<path class="st0" d="M418.37,399.81c-0.48-0.13-0.73-0.2-0.99-0.27C417.8,399.25,417.8,399.25,418.37,399.81z"/>
	<path class="st0" d="M115.27,171.1c-0.59-0.04-0.82-0.17-0.52-0.78C114.95,170.61,115.08,170.81,115.27,171.1z"/>
	<path class="st0" d="M437.45,422.16c-0.29,0-0.59,0-0.95,0C436.94,421.8,436.94,421.8,437.45,422.16
		C437.45,422.17,437.45,422.16,437.45,422.16z"/>
	<path class="st0" d="M404.24,376.7c-0.15-0.17-0.3-0.34-0.45-0.51c0.04-0.04,0.08-0.08,0.11-0.12c0.16,0.16,0.33,0.31,0.49,0.47
		C404.34,376.59,404.29,376.65,404.24,376.7z"/>
	<path class="st0" d="M427.21,388.24c0.25,0.18,0.5,0.37,0.75,0.55c-0.18,0.22-0.36,0.3-0.52-0.02
		C427.36,388.6,427.29,388.42,427.21,388.24z"/>
	<path class="st0" d="M381.11,461.49c-0.13,0.09-0.22,0.2-0.29,0.19c-0.08-0.02-0.14-0.14-0.21-0.22c0.08-0.07,0.16-0.18,0.25-0.19
		C380.92,461.26,381,461.39,381.11,461.49z"/>
	<path class="st0" d="M415.47,390.97c-0.22-0.18-0.44-0.36-0.66-0.54c0.46-0.04,0.72,0.11,0.63,0.56
		C415.44,390.99,415.47,390.97,415.47,390.97z"/>
	<path d="M405.23,382.24c-0.3-0.23-0.64-0.42-0.9-0.7c-0.69-0.72-1.31-1.48-2.3-1.85c-0.62-0.23-0.77-0.85-0.53-1.69
		c-0.2-0.02-0.39-0.05-0.57-0.04c-0.48,0.03-0.72-0.3-0.67-0.66c0.14-1.04-0.58-1.65-1.09-2.34c-0.8-1.09-1.68-2.11-2.59-3.23
		c-0.12,0.03-0.29,0.09-0.48,0.11c-1.03,0.13-0.93,0.06-1.16-0.99c-0.13-0.58,0.28-1.18-0.21-1.71c0.85,0.17,1.18,0.86,1.65,1.43
		c1.02,1.26,2.08,2.48,3.13,3.72c0,0-0.03-0.03-0.02-0.03c0.19,0.93,0.9,1.53,1.43,2.24c1.35,1.8,2.75,3.55,4.13,5.32
		c0.09,0.12,0.11,0.29,0.17,0.44L405.23,382.24z"/>
	<path d="M408.2,387.75c-0.09-0.34-0.24-0.54-0.65-0.54c-0.24,0-0.66-0.19-0.67-0.33c-0.06-0.67-0.62-0.89-1.01-1.27
		c-0.25-0.25-0.62-0.47-0.39-0.88c0.27-0.5,0.67-0.21,1.08-0.05c0-0.25,0-0.46,0-0.95c1.65,2.13,3.14,4.06,4.63,5.98
		c-0.07,0.08-0.13,0.15-0.2,0.23c-0.24-0.2-0.56-0.35-0.72-0.6c-0.5-0.81-1.23-1.3-2.09-1.63L408.2,387.75z"/>
	<path d="M393.21,367.37c-0.41-0.47-0.84-0.92-1.24-1.4c-0.62-0.72-1.16-1.52-1.85-2.14c-0.36-0.33-0.99-0.36-1.64-0.58
		c0.05-0.35,0.17-0.73,0.15-1.11c-0.02-0.34-0.2-0.68-0.35-1.13c-0.47,0.34-0.74,0.96-1.35,0.52c-0.03-0.58,0.63-0.51,0.86-0.93
		c-0.19-0.3-0.4-0.62-0.73-1.13C388.15,360.06,392.45,365.43,393.21,367.37z"/>
	<path d="M377.11,346.82c0.08,0.24,0.16,0.49,0.25,0.74c-1.52-0.33-1.56-0.36-1.08-1.3c0.29,0.2,0.58,0.4,0.87,0.6
		C377.14,346.86,377.11,346.82,377.11,346.82z"/>
	<path d="M413.24,392.49c-0.88-0.18-1.15-0.95-1.71-1.59c0.84,0.12,0.84,0.12,1.69,1.6C413.21,392.5,413.24,392.49,413.24,392.49z"
		/>
	<path d="M353.77,316.56c-0.31-0.4-0.62-0.8-1.09-1.4c0.99,0.1,1.08,0.72,1.36,1.15C353.95,316.39,353.86,316.47,353.77,316.56z"/>
	<path d="M410.64,391.03c-0.35-0.22-0.69-0.43-1.04-0.65c0.04-0.07,0.08-0.14,0.12-0.22c0.38,0.17,1.03-0.22,1.12,0.55
		C410.77,390.82,410.7,390.92,410.64,391.03z"/>
	<path d="M360.47,325.35c-0.66-0.43-0.73-0.8-0.51-1.37C360.44,324.32,360.32,324.76,360.47,325.35z"/>
	<path d="M405.2,382.27c0.37,0.35,0.93,0.56,0.94,1.34c-0.59-0.36-0.94-0.74-0.91-1.37C405.23,382.24,405.2,382.27,405.2,382.27z"/>
	<path d="M160.6,117.08c0.2,0.35,0.35,0.6,0.53,0.92C160.52,117.85,160.52,117.85,160.6,117.08z"/>
	<path d="M396.65,373.68c0.31-0.04,0.62-0.08,0.93-0.12c0.01,0.08,0.03,0.16,0.04,0.24c-0.31,0.05-0.62,0.1-0.93,0.15
		C396.68,373.86,396.66,373.77,396.65,373.68z"/>
	<path d="M371.72,339.58c0.12,0.16,0.25,0.33,0.37,0.49c-0.61,0.12-0.74-0.33-0.85-0.82C371.4,339.36,371.56,339.47,371.72,339.58z"
		/>
	<path d="M384.03,355.81c0,0,0,0.02,0,0.01c-0.02,0.17-0.04,0.34-0.07,0.6C383.56,355.93,383.56,355.93,384.03,355.81z"/>
	<path d="M413.85,393.31c-0.44-0.09-0.97-0.12-0.62-0.82c0,0-0.02,0.01-0.02,0c0.2,0.28,0.4,0.56,0.59,0.85
		C413.82,393.35,413.85,393.31,413.85,393.31z"/>
	<path d="M351.26,312.83c0.16,0.21,0.31,0.42,0.47,0.62c-0.06,0.04-0.11,0.09-0.17,0.13c-0.16-0.21-0.32-0.41-0.47-0.62
		C351.14,312.92,351.2,312.87,351.26,312.83z"/>
	<path d="M342.65,302.19c0.19,0.09,0.39,0.18,0.65,0.31C342.89,302.91,342.7,302.74,342.65,302.19z"/>
	<path d="M408.18,387.72c0.06,0.22,0.13,0.45,0.27,0.94c-0.35-0.32-0.51-0.47-0.69-0.63c0.2-0.12,0.32-0.19,0.45-0.27
		C408.2,387.75,408.18,387.72,408.18,387.72z"/>
	<path d="M381.42,354.24c-0.24-0.32-0.48-0.65-0.72-0.97l-0.03,0.03c0.17,0,0.34,0,0.51,0l-0.03-0.04c0.08,0.33,0.16,0.67,0.25,1
		L381.42,354.24z"/>
	<path d="M409.94,389.69c-0.17-0.13-0.34-0.27-0.51-0.4c0.05-0.07,0.11-0.13,0.16-0.2c0.16,0.14,0.33,0.28,0.49,0.42
		C410.04,389.57,409.99,389.63,409.94,389.69z"/>
	<path class="st0" d="M381.4,354.26c-0.08-0.33-0.16-0.67-0.25-1c0.15,0.12,0.31,0.23,0.45,0.36
		C381.96,353.96,381.73,354.12,381.4,354.26z"/>
	<path class="st0" d="M381.19,353.29c-0.17,0-0.34,0-0.51,0c0.03-0.21,0.06-0.42,0.09-0.62c0.05-0.01,0.1-0.02,0.15-0.03
		C381.01,352.86,381.1,353.08,381.19,353.29z"/>
</g>
</svg>
