<svg version="1.1" id="Vrstva_1" xmlns="http://www.w3.org/2000/svg" x="0" y="0" viewBox="0 0 431.88 160.32" style="enable-background:new 0 0 431.88 160.32" xml:space="preserve"><style>.st0{fill:#fff}</style><path d="M39.34 16.69c.88.26 1.77.5 2.66-.22.2-.17.77-.14 1.01.02.49.34.91.16 1.36.04 2.97-.79 5.93-1.62 8.99-2.03.44-.06.87-.15 1.31-.14 3.75.12 7.36-.85 11.03-1.37 3.95-.56 7.89-1.3 11.91-.89 1.87.19 3.73.41 5.6.54 2.37.18 4.7-.16 7.04-.54 6.03-.98 12.06-1.98 18.17-2.38 2.63-.17 5.26-.34 7.89-.41.85-.02 1.7.34 2.56.42 1.39.13 2.79.23 4.18.25.97.02 1.95-.11 2.95-.17 0 .07.01.22.02.37.08.01.17.05.23.02.34-.16.58-.41 1.06-.09.36.24.98.12 1.48.14 1.14.05 2.27.1 3.41.14.24.01.49-.02.71.06 1.05.37 2.05.44 3.14.02.53-.2 1.43-.14 1.84.2.98.83 2.03.4 3.05.47.63.04 1.27-.03 1.91-.05.11 0 .31 0 .33.06.46.95 1.35.57 2.01.55 2.03-.06 3.95.45 5.88.89 1.87.43 3.74.77 5.66.86 1.34.07 2.67.43 4.01.54 1.26.1 2.54.02 3.81.06 1.95.06 3.89.15 5.83.23.16.01.32 0 .48 0 1.58-.04 3.17-.14 4.75-.12 1.51.02 3.02.17 4.54.24 2.06.09 4.13.19 6.19.21 1.95.02 3.91 0 5.86-.07 2.19-.08 4.38-.23 6.56-.35 2.59-.13 5.18-.29 7.78-.36.65-.02 1.3.3 1.96.4.65.1 1.28.24 1.85-.41.37-.43 1.03-.19 1.58.01.35.13.84.27 1.11.12 1.04-.56 2.08-.15 3.11-.13.57.02 1.19-.13 1.73.21.08.05.27.03.34-.03.85-.77 1.88-.52 2.86-.5 1.43.03 2.85.15 4.28.21.22.01.45-.16.68-.15.67.03 1.34.23 1.99.15 1.14-.13 2.31.18 3.37-.05 1.08-.23 2.07-.28 3.12-.07.12.02.26.06.36.01 1.32-.69 2.67-.3 4.01-.12.04.01.09.02.12 0 1.1-.71 2.23-.08 3.34-.08.16 0 .36.05.47-.03.71-.44 1.46-.3 2.23-.27.57.03 1.26.42 1.76-.25.04-.06.24-.04.34 0 1.59.61 3.14.08 4.7-.18.2-.03.39-.11.59-.12 1.3-.1 2.61-.2 3.91-.28 1.15-.07 2.31-.2 3.46-.15 1.5.06 2.89-.49 4.36-.56.31-.02.65-.07.94.01.88.23 1.7.4 2.67.12.95-.27 2.02-.12 3.04-.15.83-.02 1.67-.04 2.5-.04.38 0 .76-.09 1.08.32.11.14.71.14.85-.01.42-.45.84-.26 1.32-.24 1.55.07 3.11.06 4.66.1.57.01 1.13.04 1.69.11 1.09.14 2.19-.32 3.27.06.15.05.35-.06.52-.11.35-.09.7-.26 1.06-.26 1.18 0 2.36.12 3.53.07 2.27-.1 4.54-.29 6.81-.44 1.79-.12 3.57-.23 5.35-.39 1.07-.1 2.13-.32 3.19-.43.47-.05.95.03 1.42.06.24.02.48.1.71.09 1.93-.12 3.86-.25 5.79-.38.48-.03.95-.04 1.43-.06.32-.02.69.06.94-.09 1.06-.61 2.24-.53 3.38-.71.47-.07.93-.1 1.43.24.37.24 1.01.11 1.52.09.88-.03 1.75-.1 2.62-.16.24-.02.52.01.7-.11 1.38-.86 2.88-.51 4.35-.5.82.01 1.63-.2 2.45-.19.99 0 2-.16 2.97.18.04.01.08.02.12.01 1.65-.57 3.28.07 4.93.08 1.67.01 3.34.15 5.01.23.99.05 2.04-.08 2.97.2.98.29 1.91.06 2.86.18.94.11 1.9.05 2.85.09 1.03.05 2.1-.01 3.08.24 1.17.29 2.29-.07 3.43.05 1.34.14 2.7.1 4.04.11 1.07.01 2.15-.01 3.22-.07.8-.04 1.6.25 2.43-.29.42-.28 1.21.04 1.83.04 1.19.02 2.39-.01 3.58.02 1.48.04 2.95.14 4.42.18.91.03 1.82.01 2.86.01-.39.82.76 1.54-.14 2.12 1.23.74 2.42 1.49 3.64 2.17 1 .56 2.07 1.01 3.05 1.59.77.46 1.45 1.05 2.16 1.59.16.12.34.27.39.45.49 1.87 1.92 3.27 2.53 5.07.06.19.24.38.21.54-.21 1.15.38 2.05.95 2.93.28.44.38.82.27 1.33-.24 1.14-.03 2.28.13 3.42.1.71.13 1.43.14 2.14.03 1.39.07 2.78.01 4.16-.05 1.26-.22 2.52-.35 3.78-.25 2.54-.37 5.08.02 7.62.11.7.04 1.43.06 2.14.01.86.03 1.73.03 2.59l.03 4.51c.02 1.86.02 3.72.06 5.58.05 2.23.13 4.45.2 6.67.01.44.06.88.03 1.31-.04.7-.12 1.4-.2 2.1-.26 2.28-.73 4.54-.62 6.87.06 1.34-.18 2.7-.28 4.05-.1 1.35-.31 2.71-.27 4.05.04 1.39-.5 2.71-.38 4.1.12 1.48-.14 2.94-.49 4.38-.03.11-.05.24-.03.36.31 1.39-.19 2.73-.2 4.11-.01 1.06-.36 2.11-.49 3.17-.08.66-.14 1.36.01 2 .15.66.04 1.19-.35 1.66-.52.62-.67 1.34-.66 2.09.01.31.17.68.38.92.25.29.38.53.12.83-1.07 1.22-1.01 2.74-1.05 4.19-.02.75-.14 1.39-.5 2.02-.26.45-.43.94-.6 1.43-.07.21-.13.49-.06.69.38 1.06.1 1.99-.39 2.93-.22.42-.31.9-.5 1.33-.19.43-.45.82-.68 1.23-.12.21-.32.39-.36.61-.35 1.95-1.89 2.96-3.24 4.13-.31.27-.61.56-1 .91.37.1.55.14.92.24-.5.22-.88.38-1.24.56-.14.07-.37.2-.37.31-.02.84-.67.84-1.22.91-.37.05-.75.01-1.16.22.37.16.74.32 1.09.48-.48.52-.92 1-1.44 1.56-.36.04-.81.08-1.46.15.3.32.48.52.71.76-.31.06-.58.17-.84.15-.48-.04-.92-.18-1.24.39-.1.18-.56.22-.85.22-4.75-.05-9.5-.19-14.26-.15-2.87.03-5.74.35-8.61.54-5.9.4-11.8.86-17.7 1.17-3.99.21-7.99.17-11.98.3-2.55.09-5.1.26-7.65.43-2.15.14-4.3.33-6.45.49-3.47.26-6.93.5-10.4.76-6.53.5-13.06 1-19.59 1.51-3.62.29-7.24.6-10.87.9-7.16.59-14.31 1.19-21.47 1.75-2.39.19-4.78.22-7.17.37-3.03.19-6.05.47-9.08.64-1.06.06-2.14-.12-3.21-.13-1.56-.01-3.12.05-4.67.08-1.16.02-2.32 0-3.47.04-.58.02-1.13.06-1.72.21-.94.25-1.98.18-2.97.17-2.91-.02-5.81-.12-8.72-.1-2.31.02-4.62.19-6.94.28-3.75.15-7.5.27-11.25.42-1.59.06-3.23-.02-4.77.31-2.32.49-4.65.69-7 .77-1.66.05-3.33-.04-4.99-.03-1.32 0-2.63.08-3.95.08-1.59 0-3.19-.08-4.78-.08-1.31 0-2.62.12-3.93.12-1.11 0-2.21-.11-3.32-.15-.87-.03-1.75.01-2.62-.01-.95-.02-1.9-.03-2.84-.12-2.07-.19-4.12-.5-6.19-.61-3.34-.18-6.68-.23-10.02-.34-1.51-.05-3.03-.13-4.54-.18-4.66-.15-9.32-.26-13.97-.46-1.94-.08-3.88-.36-5.82-.55-3.93-.37-7.86-.76-11.79-1.11-2.23-.2-4.45-.4-6.69-.49-1.18-.04-2.37.29-3.54.24-1.86-.08-3.72-.34-5.58-.51-1.39-.12-2.82-.47-4.17-.28-3.35.47-6.68-.1-10.02.09-2.23.13-4.47.2-6.7.42-4.42.44-8.85.47-13.28.5-.78 0-1.63-.18-2.26.66-1.93-.82-3.88-.34-5.86-.07-1.32.18-2.66.31-3.96-.29-.37-.17-.86-.07-1.28-.09-.1-.26-.19-.46-.33-.81-1.03.14-2.05.28-3.06.41-.39.05-.79.15-1.17.13-1.62-.09-3.21-.23-4.84.07-1.09.2-2.1-.37-3.01-.97-.37-.25-.67-.44-1.16-.47-.48-.03-1-.26-1.41-.54-.86-.57-1.7-1.19-2.48-1.87-.69-.59-1.33-1.25-1.91-1.95a78.102 78.102 0 0 1-2.99-3.86c-.49-.67-.9-1.42-1.25-2.17-.9-1.95-1.85-3.89-2.58-5.9-.47-1.3-.62-2.71-.87-4.08-.67-3.68-1.32-7.37-1.98-11.05-.3-1.67-.8-3.33-.87-5.01-.1-2.55.11-5.1.19-7.66.02-.68.01-1.35.03-2.03.11-2.75.25-5.5.35-8.25.07-1.87.11-3.74.17-5.62.04-1.24.09-2.47.14-3.71.09-2.39.14-4.79.29-7.18.26-4.14.52-8.29.88-12.42.45-5.14 1.74-10.14 2.79-15.18.65-3.14 2-6.04 3.07-9.04 1.12-3.14 3.22-5.58 5.17-8.14.45-.58 1.12-1.01 1.73-1.44.84-.59 1.76-1.03 2.5-1.81.64-.68 1.52-1.09 2.48-1.36 1.45-.4 2.83-1.05 4.27-1.52 1.1-.36 2.22-.65 3.35-.89.84-.18 1.33-.59 1.55-1.43.24-.91.66-1.61 1.84-1.72.7.01 1.34-.6 2.03-.98zm340.02 11.72c-.62-.76-1.1-1.34-1.57-1.93-.47-.59-1.14-.72-1.82-.74-1.27-.05-2.55-.05-3.82-.03-3.88.05-7.75.13-11.63.18-2.48.04-4.96.17-7.43.06-4.83-.21-9.64-.63-14.47-.82-3.58-.14-7.18-.2-10.77-.06-4.58.18-9.16.61-13.74.92-2.87.19-5.74.38-8.61.55-3.15.18-6.3.28-9.45.49-2.79.18-5.57.51-8.36.66-2.15.11-4.31.05-6.47.07-2.83.03-5.65.07-8.48.08-3.87.01-7.74-.34-11.61-.08-3.23.22-6.47.29-9.68.65-4.89.54-9.79.76-14.7.94-1.35.05-2.71.08-4.07.1-1.19.02-2.39-.02-3.58.03-3.03.12-6.06.31-9.08.41-1.27.04-2.55-.14-3.83-.14-1.59 0-3.18.08-4.77.15-5.7.26-11.39.55-17.09.81-2.55.11-5.1.18-7.65.26-1.2.04-2.4.12-3.59.08-1.51-.05-3.01-.22-4.51-.29-1.99-.09-3.98-.12-5.97-.18-1.79-.05-3.59-.09-5.38-.12-2.55-.05-5.11.03-7.64-.15-2.58-.18-5.15-.61-7.73-.94-3.64-.47-7.28-.99-10.93-1.41-2.74-.31-5.49-.5-8.23-.72-1.51-.12-3.07.01-4.54-.31-1.93-.42-3.88-.36-5.82-.57-1.34-.14-2.69-.19-4.04-.25-2.27-.09-4.55-.27-6.82-.2-2.07.07-4.12.44-6.19.65-.79.08-1.62-.02-2.38.16-2.72.63-5.52.65-8.27 1.16-4 .74-8.07 1.09-12.11 1.59-.59.07-1.19.06-1.79.06-3.91-.03-7.83-.09-11.74-.07-.73 0-1.46.36-2.19.48-1.42.24-2.85.42-4.27.63-2.8.42-5.61.8-8.41 1.27-1.07.18-2.23.07-3.27.87.31.2.58.37.8.51-.19.26-.4.52-.59.79-.16.22-.28.54-.49.65-1 .49-2.02.97-3.19.47-.31-.13-.8-.28-1.02-.14-.53.34-1 .12-1.5.08-.43-.03-.87-.19-1.29-.13-.97.12-1.87.08-2.7-.51-.16-.12-.44-.07-.67-.1-.2-.02-.41-.02-.6-.08-.96-.27-1.91-.72-2.91-.1-.18-.14-.35-.39-.54-.4-1.14-.08-2.4-.62-3.24.71-.12.2-.32.36-.51.5-1.44 1.03-2.27 2.57-3.08 4.06-.83 1.53-1.41 3.2-1.76 4.93-.29 1.45-.68 2.87-1.08 4.3-.41 1.49-.89 2.97-1.32 4.45-.78 2.74-1.03 5.57-1.37 8.38-.24 2.01-.59 4.02-.75 6.03-.13 1.63-.03 3.27-.1 4.9-.08 1.91-.29 3.82-.35 5.73-.07 2.79-.03 5.59-.09 8.38-.01.75-.05 1.56-.36 2.21-.28.58-.37 1.12-.39 1.71-.06 1.59-.09 3.18-.12 4.77-.02 1.35-.05 2.71-.04 4.06.01 1.09.63 2.17.04 3.27-.03.05.04.15.05.23.07.55.13 1.1.19 1.64.17 1.79.24 3.59.53 5.36.61 3.7 1.33 7.38 2.01 11.07.09.47.13.95.27 1.41 1.02 3.4 2.5 6.54 4.98 9.17.62.66 1.3 1.08 2.12 1.17 1.86.19 3.74.27 5.61.37.23.01.66-.17.68-.29.08-.64.53-.59.96-.65 1.93-.29 3.86-.61 5.8-.88.78-.11 1.58-.13 2.37-.22.56-.07 1.35.3 1.52-.7.02-.09.34-.17.53-.19 2.39-.35 4.78-.18 7.17-.07 1.31.06 2.65.14 3.94-.03 4.84-.61 9.7-1.05 14.58-.93 4.07.1 8.14.35 12.21.53 4.63.2 9.27.39 13.9.58.71.03 1.43 0 2.14.05.67.05 1.34.21 2.01.26 1.75.13 3.5.18 5.25.33 2.5.21 4.99.55 7.49.7 3.67.21 7.34.34 11.01.44 4.39.12 8.78.18 13.17.27.72.01 1.44.06 2.16.07 2.91.06 5.82-.12 8.72.22 2.53.3 5.08.49 7.62.67 2.59.19 5.18.36 7.78.44 2.31.07 4.63 0 6.95-.04 2.11-.03 4.23-.05 6.34-.16 3.31-.16 6.62-.41 9.93-.57 2.11-.11 4.23-.13 6.35-.19 5.47-.17 10.94-.37 16.41-.52 4.91-.14 9.83-.21 14.74-.35 2.07-.06 4.15-.2 6.22-.35 1.74-.13 3.47-.39 5.22-.49 1.83-.11 3.67-.03 5.49-.16 5.1-.37 10.19-.8 15.29-1.23 2.54-.22 5.08-.54 7.62-.73 4.82-.35 9.64-.62 14.46-.97 3.31-.24 6.6-.56 9.91-.82 3.06-.24 6.13-.44 9.2-.69 2.79-.23 5.56-.53 8.35-.75 3.03-.24 6.06-.44 9.09-.64 3.35-.22 6.7-.5 10.05-.62 3.67-.13 7.36.01 11.03-.17 6.59-.32 13.17-.76 19.75-1.22 5.91-.41 11.83-.32 17.74-.26.5.01 1.15.05 1.47-.22.59-.49 1.15-1.15 1.43-1.86.35-.87.47-1.85.56-2.8.23-2.41.37-4.83.56-7.25.07-.87.17-1.74.23-2.62.1-1.23.17-2.46.27-3.7.36-4.37.8-8.73 1.06-13.11.22-3.58.17-7.17.36-10.75.16-3.06.67-6.11.36-9.18-.1-1.02-.3-2.04-.41-3.06-.06-.55-.06-1.11-.08-1.66-.01-.27.07-.59-.03-.82-.33-.73-.22-1.46-.16-2.21.1-1.33.15-2.68-.23-4.01.72-.52.77-.53.74-1.52-.09-2.55-.25-5.1-.33-7.65-.06-1.79-.15-3.58-.02-5.36.1-1.39.23-2.77.18-4.17-.07-1.83.02-3.67-.06-5.5-.09-1.98-1.05-3.44-2.87-4.32-.85-.41-1.65-.91-2.49-1.38.14-.41.26-.65.27-.67zM195.59 15.06c0-.08-.01-.15-.01-.23l-1.81.09c0 .05.01.1.01.14h1.81zm-66.1-4c-.04-.06-.08-.15-.13-.16-.06-.02-.14.03-.21.05.04.06.07.15.13.16.06.02.14-.03.21-.05z"/><path d="M154.33 12.4c.34.03.67.05 1.01.08 0 .05 0 .1-.01.15h-1.05c.02-.08.04-.15.05-.23z"/><path class="st0" d="M379.36 28.41c-.01.02-.12.27-.3.66.84.47 1.64.97 2.49 1.38 1.82.88 2.78 2.35 2.87 4.32.09 1.83 0 3.67.06 5.5.05 1.4-.08 2.78-.18 4.17-.13 1.78-.04 3.58.02 5.36.08 2.55.25 5.1.33 7.65.03.99-.01.99-.74 1.52.38 1.33.33 2.68.23 4.01-.06.76-.17 1.48.16 2.21.1.23.02.54.03.82.02.55.02 1.11.08 1.66.12 1.02.31 2.04.41 3.06.31 3.08-.2 6.12-.36 9.18-.18 3.58-.14 7.17-.36 10.75-.27 4.37-.71 8.74-1.06 13.11-.1 1.23-.17 2.46-.27 3.7-.07.87-.17 1.74-.23 2.62-.19 2.42-.34 4.84-.56 7.25-.09.95-.21 1.93-.56 2.8-.28.71-.84 1.36-1.43 1.86-.33.27-.97.23-1.47.22-5.92-.07-11.83-.15-17.74.26-6.58.45-13.16.89-19.75 1.22-3.67.18-7.35.04-11.03.17-3.35.12-6.7.4-10.05.62-3.03.2-6.06.4-9.09.64-2.79.22-5.57.52-8.35.75-3.06.25-6.13.45-9.2.69-3.3.26-6.6.58-9.91.82-4.82.35-9.64.61-14.46.97-2.54.19-5.08.52-7.62.73-5.09.43-10.19.86-15.29 1.23-1.82.13-3.66.05-5.49.16-1.74.1-3.48.36-5.22.49-2.07.15-4.14.29-6.22.35-4.91.14-9.83.22-14.74.35-5.47.15-10.94.35-16.41.52-2.12.07-4.24.09-6.35.19-3.31.17-6.62.41-9.93.57-2.11.1-4.22.13-6.34.16-2.32.03-4.63.1-6.95.04-2.59-.07-5.19-.25-7.78-.44-2.54-.18-5.09-.37-7.62-.67-2.91-.34-5.82-.16-8.72-.22-.72-.02-1.44-.06-2.16-.07-4.39-.09-8.78-.15-13.17-.27-3.67-.1-7.34-.23-11.01-.44-2.5-.15-4.99-.49-7.49-.7-1.75-.15-3.5-.2-5.25-.33-.67-.05-1.34-.21-2.01-.26-.71-.05-1.43-.02-2.14-.05-4.63-.19-9.27-.38-13.9-.58-4.07-.18-8.14-.43-12.21-.53-4.88-.12-9.74.32-14.58.93-1.3.16-2.63.09-3.94.03-2.39-.11-4.79-.28-7.17.07-.19.03-.51.1-.53.19-.17 1-.95.63-1.52.7-.79.1-1.58.11-2.37.22-1.94.28-3.87.59-5.8.88-.43.06-.88.01-.96.65-.01.13-.44.3-.68.29-1.87-.09-3.75-.17-5.61-.37-.82-.08-1.5-.51-2.12-1.17-2.48-2.63-3.96-5.77-4.98-9.17-.14-.46-.18-.94-.27-1.41-.68-3.69-1.4-7.37-2.01-11.07-.29-1.77-.36-3.57-.53-5.36-.05-.55-.12-1.1-.19-1.64-.01-.08-.08-.17-.05-.23.58-1.1-.03-2.18-.04-3.27-.01-1.35.02-2.71.04-4.06.03-1.59.06-3.18.12-4.77.02-.59.11-1.13.39-1.71.31-.65.35-1.46.36-2.21.06-2.79.01-5.59.09-8.38.05-1.91.26-3.82.35-5.73.07-1.63-.04-3.28.1-4.9.17-2.02.51-4.02.75-6.03.34-2.81.59-5.64 1.37-8.38.43-1.49.91-2.96 1.32-4.45.39-1.42.78-2.85 1.08-4.3.35-1.73.93-3.41 1.76-4.93.81-1.48 1.63-3.02 3.08-4.06.19-.14.39-.3.51-.5.84-1.34 2.1-.79 3.24-.71.19.01.37.26.54.4 1-.62 1.95-.17 2.91.1.19.05.4.05.6.08.23.03.51-.02.67.1.83.59 1.74.63 2.7.51.42-.05.86.1 1.29.13.5.04.97.26 1.5-.08.22-.14.7.01 1.02.14 1.17.5 2.19.03 3.19-.47.22-.11.33-.43.49-.65.2-.27.4-.53.59-.79-.22-.14-.49-.31-.8-.51 1.04-.8 2.2-.69 3.27-.87 2.8-.46 5.6-.85 8.41-1.27 1.42-.21 2.85-.4 4.27-.63.74-.12 1.46-.48 2.19-.48 3.91-.02 7.83.05 11.74.07.6 0 1.2.02 1.79-.06 4.04-.5 8.11-.85 12.11-1.59 2.75-.51 5.55-.53 8.27-1.16.76-.18 1.59-.08 2.38-.16 2.06-.21 4.12-.58 6.19-.65 2.27-.08 4.55.1 6.82.2 1.35.05 2.7.1 4.04.25 1.94.21 3.88.14 5.82.57 1.46.32 3.02.19 4.54.31 2.75.22 5.5.41 8.23.72 3.65.41 7.29.94 10.93 1.41 2.57.33 5.14.76 7.73.94 2.54.18 5.1.11 7.64.15 1.79.03 3.59.07 5.38.12 1.99.05 3.98.09 5.97.18 1.51.07 3.01.24 4.51.29 1.2.04 2.39-.04 3.59-.08 2.55-.08 5.1-.14 7.65-.26 5.7-.26 11.39-.55 17.09-.81 1.59-.07 3.18-.15 4.77-.15 1.28 0 2.55.18 3.83.14 3.03-.09 6.06-.29 9.08-.41 1.19-.05 2.39-.01 3.58-.03 1.36-.02 2.71-.05 4.07-.1 4.91-.19 9.81-.4 14.7-.94 3.21-.36 6.45-.43 9.68-.65 3.87-.26 7.74.09 11.61.08 2.83-.01 5.65-.06 8.48-.08 2.16-.02 4.32.05 6.47-.07 2.79-.15 5.57-.48 8.36-.66 3.15-.2 6.3-.31 9.45-.49 2.87-.16 5.74-.35 8.61-.55 4.58-.31 9.15-.74 13.74-.92 3.58-.14 7.18-.09 10.77.06 4.83.19 9.64.61 14.47.82 2.47.11 4.95-.03 7.43-.06 3.88-.06 7.75-.13 11.63-.18 1.27-.02 2.55-.02 3.82.03.67.03 1.35.15 1.82.74.5.6.98 1.18 1.6 1.94zm-129.29 77.4c.34.92.68 1.85 1.07 2.92.49-.25.88-.46 1.5-.78.11.27.25.6.4.93.1-.05.2-.1.3-.16.12-.68.25-1.36.39-2.11.26-.1.58-.22 1.02-.39.24.49.38 1.01.71 1.38.31.35.8.53 1.33.85-.05-1.04-.54-1.97.13-2.99.22.17.51.29.62.51.47.96.45.97 1.62.93-.11-1.04-.23-2.07-.36-3.23.25.25.44.55.57.53.57-.09 1.28-.1 1.64-.45.6-.58.96-1.4 1.41-2.13.05-.07-.03-.23-.06-.34-.16-.86-.27-1.73-.5-2.57-.29-1.1-.81-2.15-.98-3.26-.59-3.94-1.1-7.89-1.22-11.87-.03-1.06.06-2.12.17-3.17.02-.2.39-.36.57-.52-.26-.25-.53-.5-.79-.75.13-.17.16-.25.22-.3.89-.76 1.69-1.73 3.09-.98.33.17.55-.17.57-.53-.23-.12-.45-.23-.92-.47 1.12-.45 2.22-.41 2.85-1.38-.64-.16-1.32-.28-1.56-1 .69-.19 1.37-.37 2.02-.54.12-.46.22-.84.34-1.28.74.04 1.44.08 2.24.13-.24-.28-.39-.45-.68-.78h1.61c.04-.67-.33-.99-.78-1.15-.49-.17-.79-.47-1.08-.88-.16-.23-.5-.35-.78-.5-.52-.28-1.04-.58-1.58-.83-.83-.38-1.67-.72-2.51-1.07-.29-.12-.73-.15-.85-.37-.37-.65-.99-.67-1.55-.72-2.5-.2-5.01-.41-7.52-.47-2.71-.07-5.41.19-8.04.9-.63.17-1.19.6-1.76.94-.46.28-.88.63-1.34.92-.29.18-.62.3-.91.44.03.23.05.34.05.46.05 1.31-.17 1.49-1.41 1.13-1.13-.33-2.25.26-2.47 1.42-.11.61-.35.92-.92 1-.21-.16-.4-.32-.61-.48-.09.16-.17.25-.16.3.44 1.26-.58 2.25-.65 3.43-.02.27-.55.5-.61.79-.19 1.03-.93 1.95-.57 3.08.04.14-.02.32-.05.47-.37 1.57-.44 3.22-1.17 4.71-.1.2-.03.48-.09.7-.11.42-.21.84-.39 1.23-.26.57-.6 1.1-.86 1.67-.38.84-.7 1.7-1.07 2.53-.17.38-.39.75-.88.97-.09-.31-.2-.53-.22-.75-.21-3.13-.44-6.26-.58-9.4-.08-1.86.09-3.74-.02-5.6-.06-1-.36-2.04-.82-2.92-.2-.38-.39-.7-.43-1.13-.03-.4.16-.86-.32-1.27-.24.62.41 1.3-.28 1.86-.16-.66-.31-1.23-.42-1.7-.7-.23-1.33-.44-1.95-.64-.1-.44-.2-.88-.32-1.38-.45.15-.77.26-1.07.36-.17-.3-.3-.52-.42-.73-.9.25-.89 1.02-1.09 1.7-.92-.03-1.33.53-1.58 1.3-.16.49-.27 1.07-.61 1.42-.82.86-1.05 1.87-1.08 2.99-.01.47-.05.94-.08 1.41-.07 0-.14.01-.21.01-.09-.73-.17-1.45-.26-2.18-.27.27-.36.53-.36.79-.02 1.62.01 3.24-.03 4.86-.05 2.07-.14 4.14-.21 6.2-.13 3.63.07 7.24.58 10.84.38 2.72.81 5.43 1.89 7.99.5 1.18 1.28 2.1 2.33 2.8.71.47 1.52.37 2.35.39-.31-.57-.32-.74-.06-1.02.28-.3.59-.4.95-.15.2.13.41.26.58.42.33.32.67.3 1.09.18.73-.2.85-.69.67-1.37.29-.03.5-.11.67-.06 1.42.49 2.26-.57 3.23-1.22.11-.08.11-.36.13-.55.07-.85.09-.87.96-.5.46-.37.91-.76 1.38-1.11.98-.73 1.64-1.7 2.31-2.69.62-.91.88-1.93 1.27-2.93 1.12-2.88 2.37-5.71 3.56-8.57.21-.5.34-1.03.57-1.52.34-.72.78-1.4 1.11-2.13.34-.76.6-1.56.89-2.35.37-.97.87-1.91 1.07-2.9.21-1.05.97-1.87 1.06-2.96.03-.38.27-.78.77-.78.87-.01 1.74 0 2.72 0 .03.47.1.86.08 1.24-.06 1.11-.23 2.22-.23 3.33-.02 3.07.14 6.15.01 9.21-.11 2.49.19 4.93.48 7.37.28 2.37.79 4.71 1.2 7.06-.47-.71-.62-1.52-.71-2.36-.11-1.04-.16-1.14-.61-1.83.12 1.64.56 3.12 1.03 4.87.16-.44.22-.58.27-.72zm-92.68 2.69c.22-.37.47-.67.58-1.01.13-.41.1-.86.21-1.27.05-.21.23-.39.35-.58.41-.69 1.1-1.21 1.18-2.11.36-4.26.37-8.53.24-12.81-.03-1.09-.01-2.19.25-3.47 1.2.66 2.27 1.25 3.34 1.83 2.28 1.23 4.55 1.71 6.79-.09.15-.12.28-.29.45-.37.18-.08.4-.09.6-.13-.17 1.19-.41 2.29-.47 3.39-.12 2.49-.75 4.93-.61 7.45.12 2.22-.02 4.45.11 6.66.06 1.05.5 2.07.79 3.11.04.14.19.34.29.34.73-.03.63.58.8.98.1.22.23.44.34.65.09-.03.18-.06.27-.08-.13-.77-.27-1.53-.4-2.31.09-.04.28-.14.3-.11.63.87 1.24 1.74 1.87 2.64.5-.56.94-1.05 1.37-1.53-.81-1.16-.81-1.16-.53-1.64.5.38.99.77 1.57 1.22.21-.27.52-.54.66-.88.26-.63.43-1.29.68-2.09.48.33.81.55 1.19.81.31-.58.6-1.13.9-1.68.54.19.92-.11 1.36-.38.35-.21.84-.2 1.29-.28.19.66.32 1.25.53 1.8.34.9.49 1.91 1.4 2.53.22.15.4.82.3.9-.45.37-.17.64.04.91.39.5.8.99 1.23 1.47.84.94 2.01 1.31 3.13 1.68.5.16 1.16-.1 1.72-.26.46-.13.84-.4.84-1 0-.11.32-.22.6-.41-.1.34-.15.51-.24.81.47.05.9.09 1.54.16-.33-.37-.48-.53-.66-.73.42-.44.8-.93 1.39-.89.88.06 1.54-.29 2.22-.95.15.76.64.71 1.1.59.49-.12 1.05-.24.91-.99-.02-.08.24-.31.28-.29.4.18.43-.12.59-.36.28-.42.58-.88.97-1.18 1.56-1.19 2.93-2.57 4.18-4.06.38-.46.92-.85 1.12-1.38.59-1.54 1.58-2.84 2.36-4.27.53-.98 1.29-1.94 1.45-2.99.22-1.43.93-2.58 1.47-3.83.22-.51.41-1.04.59-1.56.06-.18.14-.42.07-.57-.62-1.44.02-2.7.46-4.02.64-1.93.82-3.92-.07-5.82-.7-1.5-1.05-3.2-2.34-4.39-.03-.03-.06-.07-.06-.1.03-1.13-.94-1.5-1.61-2.07-.76-.64-1.6-1.17-2.41-1.75-.23-.16-.44-.37-.69-.46-1.79-.61-3.39-1.83-5.41-1.67-.15.01-.31-.07-.46-.12-1-.33-2.06-.39-3.06-.19-1.51.29-3.25-.02-4.37 1.47-.08.11-.3.11-.42.21-.3.25-.58.52-.91.82.21.36.38.66.56.97-.32.39-.58.8-.94 1.1-.97.78-1.72 1.74-2.49 2.78.77.16 1.45.3 2.09.44.14.75-.37.8-.76.95-.39.14-.8.15-1.11.6-.4.57.24.85.23 1.3-.28.22-.54.43-.88.71.39.16.67.27.88.36-.99 2.42-1.96 4.78-2.91 7.14-1.9 4.74-3.24 9.59-2.81 14.77.01.09-.09.19-.22.46-.16-.43-.31-.69-.35-.97-.32-1.86-.86-3.71-.27-5.62.04-.14-.04-.31-.04-.47-.01-.64-.06-1.28 0-1.91.11-1.15.3-2.29.43-3.43.31-2.73.55-5.46.96-8.17.11-.69.08-1.2-.29-1.68 1.01-1.9 1.14-3.93 1.42-5.92.28-2 .73-4.02-.11-6.12-.42-.11-.99-.47-1.38-.33-.76.28-.99-.19-1.22-.6-.38.14-.66.24-.94.34-.02-.32-.04-.64-.06-.84-.62-.45-1.21-.85-1.76-1.29-.38-.3-.71-.33-1.04.03-.19.2-.42.4-.51.64-.34.94-.94 1.51-1.97 1.61-.53.05-.87.32-.92.91-.19 2.01-1.49 3.65-1.9 5.62-.26 1.24-1.06 2.37-1.63 3.54-.11.23-.31.42-.53.73-.97-.71-1.92-1.31-2.75-2.05-1.19-1.06-2.4-2.13-3.38-3.37-1.13-1.42-2.04-3.01-3.02-4.55-.36-.57-.85-1.14-.96-1.77-.21-1.19-1.13-1.51-1.99-1.74-1.22-.33-2.27-.77-2.81-1.94-.48-.12-.87.42-1.36-.13-.38-.42-.91-.08-1.11.53-.08.25-.18.52-.34.73-.33.46-.7.9-1.13 1.44-.57-.05-.98.2-.94 1.02.02.34-.22.68-.3 1.02-.07.3-.2.67-.09.91.3.63.13 1.28-.12 1.73-.46.81-.33 1.58-.29 2.4.04.72-.1 1.41-.56 2.09-.16-.73-.31-1.47-.47-2.2-.08.57-.08 1.13.04 1.66.31 1.39.66 2.77 1.03 4.14.18.67.05 1.45.73 1.96.15.11.13.44.18.68.11.55.23 1.09.31 1.64.03.16-.04.34-.09.71-.88-.98-.6-2.21-1.19-3.2-.45 1.05-.04 1.89.36 2.64.34.64.49 1.25.47 1.94-.05 1.75.26 3.54-.57 5.2-.03.07-.02.16-.02.24-.01 2.46-.08 4.93-.02 7.39.05 1.91.22 3.82-.1 5.72-.04.22.1.46.11.69.02 1.24.94 2.36.32 3.83.78-.16 1.37-.27 1.98-.4.24.8.45 1.53.67 2.26.65.18 1.14-.34 1.73-.5.57-.16 1.21-.03 1.79-.03.15-.8.28-1.49.43-2.32.19.31.28.48.38.68zm199.76-7.97c-.31-.4-.51-.66-.79-1.03.56-.13.98-.23 1.4-.33.23-.05.55-.01.68-.15.71-.82 1.61-1.09 2.72-.96-.22-.27-.37-.46-.58-.72l1.3-.5c-.2-.56-.25-1.28-.64-1.65-.76-.72-1.64-1.43-2.6-1.81-.86-.34-1.52-.8-2.1-1.46-.5-.57-1.12-.75-1.88-.89-1.84-.33-3.66-.03-5.49-.05-2.19-.03-4.38.13-6.57.23-.98.05-1.95.15-2.98.23-.06-.38-.16-.65-.13-.91.16-1.46.13-2.94.64-4.36.38-1.04.46-1.19 1.44-1.32.2-.02.4-.03.6-.04.59-.05 1.19-.08 1.78-.15 2.06-.24 4.1-.6 6.17-.72 1.72-.1 3.17-.87 4.93-1.43-.35-.46-.59-.78-.87-1.15.86-.25 1.81.03 2.53-.58-.2-.44-.39-.84-.56-1.21.41-.22.71-.37 1.16-.61-.39-.11-.55-.16-.72-.2.01-.05.02-.1.02-.16 1.05-.14 2.1-.29 3.3-.45-.18-.48-.2-.98-.46-1.17-1.14-.87-1.8-2.44-3.54-2.46-.12 0-.25-.16-.35-.27-.43-.43-.78-1-1.29-1.27-1.16-.6-2.4-.99-3.77-.83-2.02.24-4.05.42-6.08.62-.7.07-1.4.11-2.12.16-.06-.32-.09-.47-.11-.62-.3-1.87-.2-2.16 1.67-2.28 2.76-.17 5.55-.9 8.31.14.37.14.79.01.93-.48.32-1.13.57-1.36 1.68-1.32 1.05.04 2.09.16 3.29.26-.4-.56-.74-1.02-1.18-1.64.7-.12 1.29-.22 1.98-.33-.14-.52-.28-1.01-.44-1.59 1.35-.08 2.69.08 3.84-.76-.57-.72-1.65-.54-1.81-1.57-.15.19-.26.32-.33.41-.28-.37-.5-.8-.85-1.06-.39-.29-.9-.4-1.48-.64.26-.11.36-.16.46-.2.1-.04.2-.09.43-.2-.82-.64-1.67-1.01-2.53-1.34.2-.33.33-.62.54-.85.26-.29.57-.73.87-.74 1.69-.07 2.92-1.56 4.65-1.47.24.01.5-.22.75-.34 1.78-.82 2.38-2.58 2.9-4.18.4-1.23.91-2.25 1.75-3.17.16-.17.27-.39.39-.59.33-.53.66-1.07 1-1.6.39-.6 1.05-1.17 1.11-1.8.06-.66.3-1.18.58-1.69-.88-1.18-1.51-.07-2.29.16.14-.39.35-.69.57-.98.26-.33.61-.63.34-1.21-.2.08-.37.17-.54.21-.32.08-.64.15-.97.22l.03-.86v-1.19c-.3-.01-.52-.02-.73-.03-.03-.26-.06-.48-.09-.7-.43.18-.84.3-1.21.5-.68.37-1.48.67-1.99 1.22-1.7 1.84-3.33 3.75-4.92 5.69-1.11 1.36-1.25 1.47-2.89 1-.46.48-.91.95-1.48 1.55-1.28-1.36-1.87-2.96-2.68-4.51-.2.33-.33.54-.54.9-.54-.87-1.01-1.63-1.37-2.22-.57-.43-1.01-.74-1.43-1.08-.25-.2-.46-.45-.71-.64-.74-.57-1.33-.59-2.05-.05-.7.52-1.41 1.03-2.05 1.62-.46.42-.8.97-1.17 1.45l-1.06-.22c-.03 1.48-.4 2.81-.56 4.23-.25-.43-.5-.87-.75-1.3-.08.05-.17.09-.25.14.64 1.33 1.29 2.66 2 4.13-.39-.17-.65-.28-.91-.4-.09.22-.14.35-.19.49-.17-.12-.3-.22-.44-.31.3 1.03.71 1.97 1.19 2.87.69 1.29 1.99 1.93 3.14 2.7 1.15.77 2.21 1.65 3.36 2.77-1.59.11-2.96.29-4.34.28-1.7-.01-3.26.27-4.57 1.41-.23.2-.46.41-.67.63-.47.49-.94.93-1.67 1.03-.45.06-.89.25-1.4.4.18.4.3.68.44.99l-.7.52c.09.3.16.5.18.56-.42.32-1.02.57-1.01.8.03.68.63.53 1.11.48.04 0 .08-.01.12-.01.98-.01 1.13.25.74 1.05-.9.17-1.71.32-2.49.46-.05.55-.09.94-.13 1.35-.49.07-.91.14-1.45.22-.21 1.38-.41 2.76-.62 4.13-.14.91-.24 1.82-.45 2.71-.1.39-.36.83-.68 1.07-.7.52-1.49.93-2.21 1.37.05 1.16-.18 2.17-1.08 3.14.51 0 .89-.02 1.26 0 .82.06 1.56.98 1.15 1.56-.4.58-.44 1.55-1.44 1.61-.04 0-.08.19-.12.31.48.12.93.23 1.4.35-.02.33-.02.57-.04.8-.37 3.49-.74 6.98-1.12 10.47-.06.59-.24 1.17.35 1.66.17.14.29.58.2.76-.34.7.21 1.2.33 1.79.07.35.24.67.37 1.02.95.15 2 .49 3.02.43 1.13-.07 1.95.96 3.09.66.13-.27.25-.54.4-.86-.51-.13-.98-.25-1.45-.38.01-.08.01-.16.02-.25.38-.03.75-.09 1.13-.1 1.39-.02 2.78.06 4.17-.04 1.86-.13 3.69-.28 5.55.12 1.39.3 2.84.35 4.26.52.27.03.53.14.78.25.31.14.59.32.74.4.17-.46.22-.85.43-1.08.34-.35.79-.46 1.32-.3.7.21 1.29.05 2.01-.3.69-.32 1.14-1.14 2.16-.89zM72.88 91.64c-.12-.01-.24-.01-.36-.02-.56-1.69-1.27-3.35-1.65-5.09-.86-3.97-2.34-7.7-4.07-11.34-1.1-2.32-2.45-4.4-4.61-5.95-.96-.69-2.27-.39-3.04-1.37-.07-.09-.38.01-.58.02-.23.01-.47.05-.7.03-.97-.07-1.3.15-1.75 1.02-.31.59-.63 1.22-1.46 1.22-.61 0-.88.36-1.13.89-.26.56-.71 1.03-1.04 1.56-.36.57-.68 1.16-1 1.76-.15.28-.17.65-.37.87-1.03 1.14-1.17 2.59-1.45 3.99-.63 3.12-1.2 6.26-1.8 9.39-.29 1.53-.63 3.05-.87 4.58-.44 2.84-.8 5.69-1.22 8.53-.22 1.46-.48 2.91-.75 4.36-.17.91.04 1.56.86 2.14.51.36.86.86 1.59.72.13-.02.3.19.47.3.14-.15.22-.29.35-.38.82-.62.9-.6 1.85-.01.33.2.85.5 1.07.37.51-.3.79.25 1.34.16.33-.94.67-1.93.99-2.85.48.18.96.37 1.39.53.72-.39 1.13-.88.92-1.83.38.32.59.49.75.63.39-.11.75-.16 1.06-.31.3-.14.74-.35.79-.6.2-.9 1.22-1.25 1.35-2.22.91 1.92 1.71 3.81 2.46 5.73.37.97.57 2 .96 2.96.31.77.77 1.48 1.23 2.17.18.28.64.66.83.59.89-.32 1.99.23 2.77-.84.26.37.47.66.8 1.11-.04-.73-.07-1.22-.11-1.78.3.03.6.12.65.05.69-1.07 1.68-.67 2.59-.52 1.04.18 1.13.17 1.63-.69.4-.68.68-1.41 1.34-1.95.57-.47.68-1.43 1.63-1.54.14-.02.31-.26.37-.43.24-.66.44-1.33.65-1.99-.29-.04-.49-.07-.69-.1.28-.49.55-.88.72-1.31.41-1.02.78-2.05 1.16-3.08.72-1.97 1.44-3.94 2.16-5.92.16-.45.26-.92.45-1.35.53-1.19 1.14-2.34 1.65-3.54.49-1.13.88-2.3 1.36-3.43.36-.83.85-1.61 1.21-2.45.48-1.14.86-2.31 1.33-3.46.41-1.03 1-2.01 1.29-3.07.28-1.03.5-2.07 1.01-3.02.2-.39.35-.81.59-1.17.17-.26.1-.47.11-.73.03-.8-.59-1.39-.54-2.19.01-.25-.37-.57-.64-.76-.34-.24-.75-.38-1.2-.59-.38.55-1.03.49-1.35.04-.52-.73-1.37-.7-1.89-1.17l-1.71.76c-.12.43-.12.96-.37 1.26-.89 1.05-1.45 2.25-1.95 3.5-1.29.64-1.79 1.88-2.33 3.09-.23.5-.56.96-.74 1.47-.58 1.7-1.12 3.41-1.67 5.12-.58 1.81-1.12 3.63-1.71 5.43-.29.93-.65 1.81-.98 2.7zm248.01 13.83c.08-.01.16-.02.25-.04.47.86.95 1.71 1.41 2.57.28.51.68.57.93.05.19-.39.19-.87.27-1.33.44.02.96.04 1.45.07.12-.21.23-.4.36-.62.26.2.43.35.61.49l.96-.58c-.09-.31-.1-.66-.27-.81-.43-.39-.52-.86-.57-1.38-.11-1.27-.32-2.53-.35-3.81-.08-3.39-.04-6.77-.14-10.16-.07-2.3.54-4.54.47-6.85-.03-.98.3-1.96.45-2.95.04-.26.12-.7 0-.78-.48-.31-.29-.66-.22-1.05.08-.43.12-.87.11-1.31-.02-2.01.05-4.01.45-6 .17-.85.19-1.74.15-2.61-.02-.38-.32-1.01-.58-1.06-.93-.17-1.11-.9-1.39-1.61-.43.13-.79.24-.99.31-.39-.68-.68-1.27-1.04-1.82-.32-.48-1.49-.69-1.89-.29-.49.49-.88 1.09-1.62 1.24-.36.9-1.03.98-1.9.56-.32.98-.62 1.87-.9 2.77-.13.42-.22.78-.7 1.02-.71.35-1.04 1-1.2 1.81-.23 1.2-.61 2.38-1.37 3.38-.29.38-.67.7-.92 1.1-.95 1.55-2.38 2.31-4.12 2.52-.73.09-1.59.2-2.08-.55-.5-.76-.98-1.56-1.29-2.41-.42-1.16-.78-2.36-.96-3.57-.34-2.3-1.97-3.41-3.75-4.44-.93.15-1.21-.6-1.6-1.17-.29-.42-.44-.91-1.14-.84-.55.06-1.09-.02-1.56.4-.38.34-.83.6-1.24.88-.06.39-.12.76-.18 1.16-.66.05-1.24.09-1.67.12-.19.8-.56 1.47-.44 2.04.19.91-.23 1.49-.63 2.19l-.81-.78c-.08.04-.16.07-.24.11.07.32.1.64.21.94.2.54.6 1.06.65 1.61.12 1.32.2 2.66.1 3.98-.11 1.4-.58 2.77-.47 4.21.02.23-.03.49-.14.7-.43.88-.31 1.98-1.12 2.71-.13.11-.16.37-.17.56-.23 2.42-.56 4.84-.63 7.27-.09 2.86.05 5.73.1 8.6.01.3.13.61.22.99.38-.07.7-.12 1.01-.18.15.28.29.57.43.83.38.06.79.02 1.06.2.5.33.93.44 1.52.23.27-.1.68.1.99.24.35.16.67.41 1.06.66.32-.39 1.08-.13 1.14-.92-.25-.11-.49-.22-.71-.32v-1.27c.55-.15 1.1-.31 1.61-.45.04-.59-.37-1.07.26-1.59.3.52.58.99.85 1.46.06-.03.12-.05.19-.08-.18-.5-.35-1.01-.55-1.57.7-.71 1.31-1.5.6-2.59-.06-.09-.04-.23-.04-.35-.06-2.27-.15-4.55-.18-6.82-.02-1.74.22-1.9 1.94-1.73 1.71.17 3.42.29 5.08-.35.31-.12.7-.04 1.05-.09.3-.05.69-.06.87-.25 1.35-1.45 3.08-1.49 4.92-1.43 0 1.72-.01 3.34 0 4.97.01 2.9 0 5.8.07 8.7.04 1.7.07 3.42.35 5.09.24 1.45.15 3.08 1.41 4.2l1.18-.7c.25.74.46 1.4.73 2.21.45-.56.78-.98 1.13-1.41.27.15.53.25.76.41.24.17.44.39.71.63.17-.5.29-.86.41-1.21-.41-.5-.8-.98-.48-1.71.94.73.73 1.86 1.13 2.72.75-.3 1.01-.72.98-1.4-.02-.42-.02-.85.05-1.26.1-.59.11-1.14-.21-1.68-.13-.2-.13-.48-.18-.73zm-207.61 3.25c-.05-.51-.61-.99-.16-1.71.36-.58.87-.76 1.49-.9-.22-.49-.41-.89-.64-1.39.46.03.77.04 1.07.06.31-1.25 1.2-1.42 2.31-1.23-.07-.58-.32-1.15-.13-1.48.26-.46.14-.72-.08-1.05-2.28-3.39-3.78-7.1-4.58-11.09-.22-1.09-.52-2.17-.75-3.26-.08-.38-.14-.79-.13-1.18.02-.48-.65-.1-.66-.68-.03-1.27-.27-2.53-.37-3.8-.18-2.31-.33-4.61-.48-6.92-.02-.39-.09-.86.08-1.17.31-.57.15-1.09.05-1.63-.09-.51-.3-.99-.42-1.5-.35-1.41-.88-1.79-2.38-1.7-.35.02-.63-.08-.74-.46-.03-.1-.14-.17-.22-.26-.33.08-.63.15-.95.23-.49-.44-.96-.87-1.35-1.21-.43.05-.81.08-1.18.14-.29.05-.64.04-.84.21-1.42 1.19-2.64 2.53-3.39 4.27-.42.98-1.06 1.87-1.58 2.81-.31.56-.62 1.12-.86 1.71-1.04 2.6-2.35 5.05-3.71 7.49-1.8 3.24-3.58 6.5-5.28 9.79-1.21 2.34-2.3 4.73-3.39 7.12-.9 1.95-1.98 3.84-2.34 6-.07.43-.24.84-.34 1.26-.11.46-.21.93-.29 1.4-.07.43-.54.8-.23 1.41.26-.19.46-.36.69-.49.22-.12.47-.19.95-.37-.32 1.01-.56 1.79-.83 2.64.6.06.48.76 1.08.95 1.29.41 2.17-.26 2.8-1.09.57-.75 1.12-1.18 2.03-1.21 1.09-.03 1.1-1.51 2.17-1.64.18-.02.33-.51.46-.79.1-.22.15-.45.21-.68.79-2.67 2.51-4.31 5.28-4.83 1.06-.2 2.12-.44 3.18-.58 1.59-.21 1.64-.2 2.09 1.35.89 3.06 2.46 5.77 4.19 8.41.36.55.72.63 1.38.25-.19-.67-.39-1.37-.58-2.06.36-.24.58-.34.95.03.49.48 1.01 1.05 1.78 1.08.65.03 1.31-.05 1.97-.09.26-1.06-.2-2.08-.06-3.22.6.63 1.2 1.25 1.74 1.83.36-.29.66-.51.99-.77zm24.73-3.35c.3-.52.63-.9.75-1.34.28-1.02 1.02-1.79 1.74-2.35.79-.62 1.31-1.36 1.84-2.13.24-.35.31-.83.56-1.18 1.4-1.95 2.57-4.02 3.31-6.32.19-.61.49-1.18.72-1.77.21-.56.44-1.11.59-1.69.57-2.21.84-4.46.82-6.75-.01-.79.24-1.64.06-2.38-.42-1.69-1-3.35-1.59-4.99-.37-1.04-.93-2.02-1.32-3.06-.28-.74-.4-1.54-.65-2.3-.12-.36-.36-.94-.58-.96-1.07-.07-1.5-1.1-2.4-1.46-.18.15-.39.31-.57.46-.13-.04-.23-.04-.27-.09-.61-.72-1.48-1.03-2.31-1.39-.57-.24-.99-.09-1.29.46-.13.24-.18.52-.27.76-.25-.06-.5-.11-.76-.17-.05.29-.14.58-.15.87-.01.27.08.55.1.83.01.11-.07.22-.1.32-.34.13-.67.26-.99.39.07 1 .13 1.93.2 2.97-.29-.19-.46-.29-.72-.46.04.44.07.74.1 1.11-.41-.24-.72-.42-1.16-.67 0 .43-.03.63 0 .81.53 3.03 1.28 5.99 2.8 8.72.75 1.35 1.49 2.75 1.1 4.42-.06.25.09.54.12.82.18 1.88.29 3.76-.79 5.45-.96 1.51-1.92 3.03-2.96 4.49-.47.66-1.13 1.19-1.86 1.95-.96-1.78-1.87-3.33-2.65-4.94-.32-.67-.37-1.46-.53-2.21-.23-1.09-.43-2.19-.67-3.27-.06-.25-.26-.47-.48-.85-.1.41-.15.64-.21.88-.25-.92-.44-1.81-.75-2.66-.09-.26-.5-.53-.79-.57-.64-.1-1.21-.21-1.72-.67-.36-.33-.87-.61-1.32.03-.09.13-.43.15-.65.14-.47-.03-.94-.12-1.44-.2-.34.48-.78.82-.87 1.51-.12 1.01.67 2.19-.5 3.03-.06.04-.01.23 0 .35.04.48.1.95.13 1.43.02.4 0 .8 0 1.19-.09 0-.19.01-.28.01l-.36-2.13c-.28.25-.4.53-.38.8.05.92.17 1.83.22 2.74.14 2.23.72 4.44.17 6.68-.04.14.01.32.07.47.39.96.69 1.96 1.2 2.85.73 1.27 1.65 2.44 2.43 3.69.63 1 1.5 1.63 2.58 2.02.22.08.58.14.63.29.27.72.97.64 1.48.93 1.51.85 3.08.62 4.66.31.06-.01.12-.1.2-.17-.1-.27-.2-.55-.31-.87 2-.93 3.46-2.59 5.66-3.53-.3.51-.48.82-.66 1.13.07.06.14.11.2.17.57-.56 1.15-1.12 1.82-1.78-.4-.08-.63-.11-.95-.17zm12.24 7.69c.46-.09.74-.14 1.12-.22-.26-.42-.45-.74-.65-1.06-.08.01-.16.01-.24.02-.07.38-.14.75-.23 1.26zm164.54-2.79c-.46.99.13 1.43.87 1.92.18-.94-.72-1.25-.87-1.92zm-203.57-32c-.1.01-.2.02-.29.04.01.51-.26 1.04.4 1.75-.05-.77-.08-1.28-.11-1.79zm237.22 24.35c.43.49.73.49 1.06.36 0 0-.02-.06-.04-.16-.24-.05-.51-.11-1.02-.2zm-58.76 3.89c.08 0 .16.01.24.01.04-.12.13-.27.1-.37-.05-.13-.19-.23-.46-.51.06.45.09.66.12.87zM135.53 67.97c-.09-.01-.18-.03-.27-.04l-.09.47c.09.02.19.04.28.05.02-.15.05-.31.08-.48zm87.56 42.27c.16.17.21.26.25.26.11 0 .22-.04.33-.06-.15-.05-.3-.1-.58-.2zm-95.61-23.88h.1l-.06-.65c-.01.21-.03.43-.04.65zm45.7 25.35c.03.09.07.17.1.26.18-.09.35-.18.53-.27-.03-.06-.06-.13-.08-.19-.19.07-.37.13-.55.2zm-23.65-40.46c-.16-.05-.25-.1-.34-.09-.04 0-.13.14-.11.16.05.08.14.18.22.18.06-.01.12-.13.23-.25zM195.59 15.06h-1.81c0-.05-.01-.1-.01-.14l1.81-.09c0 .07 0 .15.01.23zM129.49 11.06c-.07.02-.15.07-.21.05-.06-.02-.09-.11-.13-.16.07-.02.15-.07.21-.05.06.01.09.1.13.16z"/><path d="M157.39 108.5c-.11-.21-.19-.38-.37-.72-.15.83-.28 1.52-.43 2.32-.59 0-1.23-.12-1.79.03-.59.16-1.08.68-1.73.5-.22-.73-.43-1.46-.67-2.26-.61.12-1.2.24-1.98.4.62-1.47-.3-2.59-.32-3.83 0-.23-.14-.47-.11-.69.32-1.9.14-3.81.1-5.72-.06-2.46.01-4.93.02-7.39 0-.08-.01-.17.02-.24.83-1.66.52-3.45.57-5.2.02-.69-.13-1.3-.47-1.94-.4-.75-.8-1.59-.36-2.64.59.99.31 2.22 1.19 3.2.05-.36.12-.54.09-.71-.09-.55-.2-1.09-.31-1.64-.05-.23-.03-.57-.18-.68-.68-.51-.55-1.29-.73-1.96-.37-1.37-.72-2.75-1.03-4.14-.12-.53-.12-1.09-.04-1.66.16.73.31 1.47.47 2.2.46-.68.6-1.37.56-2.09-.04-.82-.17-1.59.29-2.4.26-.45.42-1.1.12-1.73-.11-.24.02-.61.09-.91.08-.35.31-.69.3-1.02-.04-.82.37-1.07.94-1.02.43-.54.8-.98 1.13-1.44.15-.22.25-.48.34-.73.2-.61.73-.95 1.11-.53.49.54.88.01 1.36.13.54 1.17 1.59 1.61 2.81 1.94.86.23 1.78.55 1.99 1.74.11.63.6 1.2.96 1.77.98 1.53 1.89 3.13 3.02 4.55.99 1.24 2.2 2.31 3.38 3.37.83.74 1.78 1.34 2.75 2.05.23-.3.42-.49.53-.73.57-1.17 1.37-2.3 1.63-3.54.41-1.97 1.72-3.6 1.9-5.62.05-.59.39-.86.92-.91 1.03-.09 1.63-.67 1.97-1.61.09-.24.32-.44.51-.64.33-.36.66-.34 1.04-.03.55.44 1.13.84 1.76 1.29.01.2.04.52.06.84.28-.1.56-.2.94-.34.23.4.47.87 1.22.6.39-.14.96.21 1.38.33.84 2.1.39 4.12.11 6.12-.28 1.99-.41 4.02-1.42 5.92.36.48.39 1 .29 1.68-.42 2.71-.65 5.45-.96 8.17-.13 1.15-.33 2.29-.43 3.43-.06.63-.01 1.27 0 1.91 0 .16.09.33.04.47-.59 1.91-.05 3.76.27 5.62.05.28.2.55.35.97.14-.27.23-.37.22-.46-.43-5.18.91-10.03 2.81-14.77.95-2.36 1.92-4.72 2.91-7.14-.21-.09-.48-.2-.88-.36.34-.27.6-.48.88-.71.01-.45-.62-.72-.23-1.3.31-.44.71-.45 1.11-.6.4-.15.91-.19.76-.95-.64-.13-1.32-.28-2.09-.44.77-1.04 1.52-2 2.49-2.78.36-.29.62-.71.94-1.1-.18-.32-.35-.61-.56-.97.33-.3.61-.57.91-.82.12-.1.34-.1.42-.21 1.11-1.49 2.86-1.18 4.37-1.47 1-.19 2.06-.14 3.06.19.15.05.31.14.46.12 2.03-.16 3.63 1.06 5.41 1.67.25.09.47.3.69.46.81.58 1.66 1.11 2.41 1.75.67.57 1.64.94 1.61 2.07 0 .03.03.08.06.1 1.29 1.19 1.63 2.89 2.34 4.39.89 1.9.71 3.89.07 5.82-.44 1.32-1.07 2.59-.46 4.02.07.15-.01.39-.07.57-.18.53-.37 1.05-.59 1.56-.55 1.25-1.25 2.4-1.47 3.83-.16 1.05-.91 2.01-1.45 2.99-.78 1.42-1.77 2.73-2.36 4.27-.2.53-.74.92-1.12 1.38-1.26 1.49-2.62 2.88-4.18 4.06-.4.3-.69.75-.97 1.18-.16.24-.19.54-.59.36-.05-.02-.3.21-.28.29.14.75-.42.87-.91.99-.46.11-.96.16-1.1-.59-.68.66-1.34 1.01-2.22.95-.58-.04-.97.45-1.39.89.18.2.33.36.66.73-.64-.07-1.07-.11-1.54-.16.09-.3.14-.47.24-.81-.28.18-.6.3-.6.41.01.6-.38.87-.84 1-.56.16-1.23.42-1.72.26-1.12-.37-2.3-.74-3.13-1.68-.42-.48-.84-.96-1.23-1.47-.21-.27-.48-.54-.04-.91.1-.08-.08-.75-.3-.9-.91-.62-1.06-1.63-1.4-2.53-.21-.56-.34-1.14-.53-1.8-.44.09-.93.07-1.29.28-.44.27-.82.57-1.36.38-.3.56-.59 1.11-.9 1.68-.38-.26-.71-.49-1.19-.81-.25.8-.42 1.46-.68 2.09-.14.34-.45.61-.66.88-.58-.45-1.08-.83-1.57-1.22-.28.47-.28.47.53 1.64-.43.48-.87.97-1.37 1.53-.63-.89-1.24-1.77-1.87-2.64-.02-.02-.21.08-.3.11.14.78.27 1.55.4 2.31-.09.03-.18.06-.27.08-.11-.22-.24-.43-.34-.65-.17-.4-.07-1.01-.8-.98-.09 0-.25-.2-.29-.34-.29-1.03-.73-2.06-.79-3.11-.14-2.22.01-4.45-.11-6.66-.14-2.52.49-4.96.61-7.45.05-1.1.3-2.2.47-3.39-.2.04-.42.04-.6.13-.17.08-.3.25-.45.37-2.24 1.8-4.51 1.32-6.79.09-1.08-.58-2.15-1.17-3.34-1.83-.26 1.28-.28 2.38-.25 3.47.13 4.27.12 8.54-.24 12.81-.08.89-.77 1.42-1.18 2.11-.12.2-.3.37-.35.58-.1.42-.08.87-.21 1.27-.12.39-.37.69-.59 1.05zm38.29-6.15c.46-.28.83-.43 1.09-.69.83-.86 1.65-1.73 2.4-2.65 1.16-1.41 2.16-2.96 3.41-4.27 1.05-1.11 1.88-2.31 2.53-3.66.24-.5.52-1.01.6-1.55.14-.97.85-1.88.3-2.96-.14-.28-.08-.72.27-1.07.98-.99 1.01-1.74.34-2.93-.45-.8-1.15-1.3-1.9-1.77-.33-.21-.67-.43-.91-.72-.68-.85-1.89-1.22-2.84-.71-.3.16-.4.64-.67.88-.3.27-.87.35-1.03.66-.88 1.73-1.79 3.46-2.47 5.27-.68 1.82-1.15 3.73-1.62 5.62-.76 3.07-.78 6.16-.03 9.23.11.4.32.78.53 1.32zm-8.75 8.43c.07 1.23.53 1.8 1.6 2.07.49.13 1.01.2 1.48.4.71.3.81.3 1.47-.47-.5-.25-1.11-.39-1.44-.77-.86-.99-2.02-.95-3.11-1.23zm-22.45-22.53c1.13.76 2.19.89 3.22.77.11.21.17.49.27.5.5.06.9-.11 1.08-.6-.75-.37-1.42-.74-2.12-1.05-.77-.34-1.48-.01-2.45.38zm19.64 15.05c-.09.01-.18.02-.27.02-.03.71-.22 1.45-.06 2.11.22.88.42 1.84 1.26 2.66.22-1.84-.88-3.2-.93-4.79zm-.78-4.73c-.45 1.25-.32 3.83.21 4.48-.1-1.6.31-3.05-.21-4.48zm2.63 9.27c-.17 1.26-.17 1.26.72 1.57-.28-.6-.5-1.09-.72-1.57zm-26.71-20.15c.04.45.08.9.13 1.35.22-.47.51-.94-.13-1.35zm27.96 21.53-.23.2.47.44.14-.14c-.12-.16-.25-.33-.38-.5zM357.15 100.53c-1.01-.25-1.47.57-2.14.91-.72.35-1.31.51-2.01.3-.53-.16-.98-.05-1.32.3-.22.23-.26.62-.43 1.08-.14-.08-.43-.26-.74-.4-.25-.11-.51-.22-.78-.25-1.42-.18-2.86-.23-4.26-.52-1.86-.39-3.69-.24-5.55-.12-1.38.09-2.78.02-4.17.04-.38 0-.75.06-1.13.1-.01.08-.01.16-.02.25.47.12.94.24 1.45.38-.15.32-.27.59-.4.86-1.14.3-1.96-.73-3.09-.66-1.03.06-2.08-.28-3.02-.43-.13-.35-.3-.68-.37-1.02-.11-.59-.67-1.08-.33-1.79.09-.19-.03-.62-.2-.76-.58-.49-.41-1.07-.35-1.66.37-3.49.75-6.98 1.12-10.47.02-.23.03-.47.04-.8-.47-.12-.92-.23-1.4-.35.05-.12.08-.31.12-.31 1-.06 1.04-1.04 1.44-1.61.4-.58-.33-1.51-1.15-1.56-.37-.03-.75 0-1.26 0 .9-.97 1.13-1.98 1.08-3.14.72-.44 1.51-.85 2.21-1.37.32-.24.58-.67.68-1.07.22-.89.32-1.8.45-2.71.21-1.37.41-2.74.62-4.13.54-.08.96-.14 1.45-.22.04-.41.07-.79.13-1.35.78-.14 1.58-.3 2.49-.46.39-.8.24-1.06-.74-1.05-.04 0-.08 0-.12.01-.47.05-1.08.21-1.11-.48-.01-.23.59-.48 1.01-.8-.02-.06-.08-.26-.18-.56.19-.14.43-.31.7-.52-.14-.31-.26-.58-.44-.99.51-.15.95-.33 1.4-.4.73-.1 1.2-.54 1.67-1.03.21-.22.44-.43.67-.63 1.31-1.14 2.87-1.42 4.57-1.41 1.38.01 2.75-.17 4.34-.28-1.15-1.12-2.21-2-3.36-2.77s-2.45-1.4-3.14-2.7c-.48-.9-.89-1.84-1.19-2.87.13.1.27.19.44.31.06-.14.11-.27.19-.49.26.11.52.22.91.4-.71-1.47-1.35-2.8-2-4.13.08-.05.17-.09.25-.14.25.43.5.87.75 1.3.16-1.41.53-2.75.56-4.23l1.06.22c.37-.47.71-1.02 1.17-1.45.64-.59 1.35-1.1 2.05-1.62.73-.54 1.31-.52 2.05.05.25.19.46.45.71.64.42.34.86.65 1.43 1.08.36.59.84 1.35 1.37 2.22.22-.36.35-.57.54-.9.81 1.55 1.39 3.15 2.68 4.51.57-.6 1.03-1.07 1.48-1.55 1.64.47 1.78.36 2.9-1 1.59-1.94 3.22-3.85 4.92-5.69.51-.55 1.3-.84 1.99-1.22.37-.2.78-.32 1.21-.5.03.22.06.45.09.7.22.01.44.02.73.03v1.19c0 .29-.02.57-.03.86.32-.07.65-.13.97-.22.17-.05.33-.13.54-.21.27.58-.08.88-.34 1.21-.22.29-.43.59-.57.98.78-.24 1.4-1.34 2.29-.16-.28.51-.52 1.03-.58 1.69-.06.63-.72 1.2-1.11 1.8-.34.53-.67 1.07-1 1.6-.13.2-.23.42-.39.59-.84.92-1.35 1.94-1.75 3.17-.52 1.6-1.12 3.36-2.9 4.18-.25.12-.51.35-.75.34-1.74-.09-2.96 1.4-4.65 1.47-.3.01-.61.46-.87.74-.2.23-.33.52-.54.85.86.33 1.71.7 2.53 1.34-.23.11-.33.15-.43.2-.1.05-.21.09-.46.2.58.24 1.09.36 1.48.64.35.26.57.69.85 1.06.07-.09.18-.22.33-.41.16 1.03 1.24.85 1.81 1.57-1.15.83-2.49.68-3.84.76.16.58.29 1.07.44 1.59-.69.12-1.28.22-1.98.33.45.62.78 1.08 1.18 1.64-1.2-.1-2.24-.22-3.29-.26-1.11-.04-1.35.18-1.68 1.32-.14.49-.56.62-.93.48-2.76-1.03-5.54-.31-8.31-.14-1.87.12-1.97.41-1.67 2.28.02.15.06.3.11.62.72-.05 1.42-.1 2.12-.16 2.03-.2 4.06-.38 6.08-.62 1.36-.16 2.61.23 3.77.83.51.27.86.84 1.29 1.27.11.11.23.27.35.27 1.73.03 2.4 1.59 3.54 2.46.25.19.28.69.46 1.17-1.2.16-2.25.31-3.3.45-.01.05-.02.1-.02.16.16.05.32.09.72.2-.45.24-.75.4-1.16.61.17.37.36.78.56 1.21-.72.62-1.67.33-2.53.58.28.36.52.68.87 1.15-1.75.56-3.2 1.33-4.93 1.43-2.06.12-4.11.48-6.17.72-.59.07-1.19.1-1.78.15-.2.02-.4.02-.6.04-.98.12-1.06.28-1.44 1.32-.52 1.42-.48 2.9-.64 4.36-.03.26.07.53.13.91 1.03-.08 2-.19 2.98-.23 2.19-.1 4.38-.26 6.57-.23 1.83.02 3.65-.28 5.49.05.75.13 1.37.32 1.88.89.58.65 1.24 1.12 2.1 1.46.96.38 1.84 1.09 2.6 1.81.39.37.44 1.09.64 1.65l-1.3.5c.21.26.36.44.58.72-1.11-.12-2.01.15-2.72.96-.12.14-.45.1-.68.15-.42.1-.84.2-1.4.33.25.35.45.6.76 1.01zm-11.19-44.32c-.22-1.05-1.3-1.12-1.88-1.76 0 1.25 1.2 1.24 1.88 1.76zm-4.59 14.36h-.29v2.23c.41-.72.45-1.47.29-2.23zm7.18-12.19c-.48-.87-.48-.87-1.46-.85.62.36 1.04.6 1.46.85zm-15.22 12.18c.1.01.19.03.29.04v-.61c-.07 0-.13-.01-.2-.01-.03.18-.06.38-.09.58zM250.09 105.84c-.41-2.35-.92-4.69-1.2-7.06-.29-2.44-.59-4.88-.48-7.37.14-3.06-.03-6.14-.01-9.21.01-1.11.17-2.22.23-3.33.02-.38-.04-.77-.08-1.24-.98 0-1.85-.01-2.72 0-.5.01-.73.41-.77.78-.09 1.09-.85 1.9-1.06 2.96-.2 1-.7 1.94-1.07 2.9-.3.78-.55 1.58-.89 2.35-.33.73-.77 1.41-1.11 2.13-.23.49-.36 1.02-.57 1.52-1.19 2.85-2.44 5.69-3.56 8.57-.39 1-.66 2.02-1.27 2.93-.67.99-1.33 1.97-2.31 2.69-.47.35-.92.74-1.38 1.11-.86-.37-.89-.35-.96.5-.01.19-.01.47-.13.55-.98.66-1.81 1.71-3.23 1.22-.16-.06-.37.03-.67.06.18.68.06 1.17-.67 1.37-.43.12-.76.13-1.09-.18-.17-.16-.38-.29-.58-.42-.36-.25-.67-.15-.95.15-.25.27-.25.45.06 1.02-.83-.01-1.64.08-2.35-.39a6.125 6.125 0 0 1-2.33-2.8c-1.09-2.56-1.51-5.27-1.89-7.99a61.38 61.38 0 0 1-.58-10.84c.07-2.07.16-4.14.21-6.2.04-1.62.01-3.24.03-4.86 0-.26.09-.51.36-.79.09.73.17 1.45.26 2.18.07 0 .14-.01.21-.01.03-.47.07-.94.08-1.41.02-1.12.26-2.13 1.08-2.99.33-.35.45-.93.61-1.42.25-.78.66-1.33 1.58-1.3.2-.68.19-1.44 1.09-1.7.12.21.25.43.42.73.3-.1.62-.21 1.07-.36.11.5.21.94.32 1.38.63.21 1.25.41 1.95.64.12.47.26 1.04.42 1.7.69-.55.04-1.23.28-1.86.48.41.28.87.32 1.27.04.43.23.75.43 1.13.46.88.76 1.93.82 2.92.12 1.86-.06 3.73.02 5.6.14 3.14.37 6.27.58 9.4.01.22.13.44.22.75.49-.21.71-.59.88-.97.37-.84.69-1.7 1.07-2.53.26-.57.6-1.1.86-1.67.18-.39.28-.82.39-1.23.06-.23-.01-.5.09-.7.74-1.49.8-3.14 1.17-4.71.04-.15.1-.33.05-.47-.36-1.13.38-2.06.57-3.08.06-.29.59-.51.61-.79.07-1.18 1.09-2.17.65-3.43-.02-.05.07-.13.16-.3.21.16.4.31.61.48.58-.08.81-.39.92-1 .21-1.16 1.34-1.75 2.47-1.42 1.24.36 1.47.18 1.41-1.13 0-.12-.03-.23-.05-.46.29-.14.62-.26.91-.44.46-.29.88-.64 1.34-.92.57-.35 1.13-.77 1.76-.94 2.63-.71 5.33-.97 8.04-.9 2.51.06 5.02.27 7.52.47.56.04 1.19.07 1.55.72.12.21.56.25.85.37.84.35 1.68.69 2.51 1.07.54.25 1.06.54 1.58.83.27.15.61.27.78.5.29.41.59.7 1.08.88.45.16.82.48.78 1.15h-1.61c.29.33.44.5.68.78-.81-.05-1.5-.09-2.24-.13-.12.45-.22.82-.34 1.28-.65.17-1.33.35-2.02.54.24.72.92.84 1.56 1-.63.97-1.73.93-2.85 1.38.46.24.68.35.92.47-.02.36-.25.7-.57.53-1.4-.74-2.2.22-3.09.98-.06.05-.09.13-.22.3.26.25.53.51.79.75-.18.16-.55.32-.57.52-.11 1.05-.2 2.12-.17 3.17.12 3.99.63 7.94 1.22 11.87.17 1.11.69 2.16.98 3.26.22.84.34 1.71.5 2.57.02.12.1.27.06.34-.45.73-.82 1.55-1.41 2.13-.36.35-1.07.37-1.64.45-.13.02-.31-.28-.57-.53.13 1.16.24 2.2.36 3.23-1.17.04-1.15.03-1.62-.93-.11-.22-.4-.34-.62-.51-.67 1.02-.18 1.95-.13 2.99-.53-.33-1.02-.51-1.33-.85-.32-.37-.47-.89-.71-1.38-.44.17-.76.29-1.02.39-.14.75-.26 1.43-.39 2.11-.1.05-.2.1-.3.16-.14-.33-.28-.66-.4-.93-.62.32-1.01.53-1.5.78-.39-1.07-.73-2-1.07-2.92l.02.04zm-30.21 1.02c.65.83 1.42 1.55 2.36 2.06.11.06.37-.16.67-.3-.95-.82-1.75-1.62-3.03-1.76zm29.39-29.45c-.33 1.15-.25 2.01-.02 2.88.23-.77.35-1.55.44-2.34.02-.09-.15-.21-.42-.54zM72.88 91.64c.33-.89.68-1.77.98-2.67.59-1.8 1.14-3.62 1.71-5.43.54-1.71 1.08-3.42 1.67-5.12.18-.52.51-.97.74-1.47.54-1.21 1.04-2.45 2.33-3.09.5-1.25 1.06-2.45 1.95-3.5.26-.3.25-.82.37-1.26l1.71-.76c.52.47 1.37.43 1.89 1.17.32.46.97.51 1.35-.04.45.22.86.35 1.2.59.27.19.65.52.64.76-.04.8.57 1.4.54 2.19-.01.26.07.47-.11.73-.24.36-.38.78-.59 1.17-.5.95-.73 1.99-1.01 3.02-.29 1.06-.87 2.04-1.29 3.07-.46 1.15-.85 2.32-1.33 3.46-.35.84-.85 1.61-1.21 2.45-.49 1.13-.87 2.3-1.36 3.43-.52 1.19-1.12 2.35-1.65 3.54-.19.43-.29.91-.45 1.35-.71 1.97-1.43 3.95-2.16 5.92-.38 1.03-.75 2.06-1.16 3.08-.17.43-.44.81-.72 1.31.2.03.4.06.69.1-.21.66-.41 1.33-.65 1.99-.06.17-.23.42-.37.43-.95.11-1.06 1.07-1.63 1.54-.66.54-.95 1.27-1.34 1.95-.5.86-.6.87-1.63.69-.91-.16-1.89-.56-2.59.52-.05.07-.35-.02-.65-.05.03.56.06 1.05.11 1.78-.33-.46-.53-.75-.8-1.11-.77 1.07-1.88.52-2.77.84-.19.07-.64-.32-.83-.59-.46-.69-.92-1.41-1.23-2.17-.39-.96-.59-1.99-.96-2.96-.74-1.92-1.55-3.81-2.46-5.73-.12.97-1.14 1.32-1.35 2.22-.06.25-.49.46-.79.6-.31.15-.67.2-1.06.31-.17-.14-.37-.32-.75-.63.21.94-.2 1.43-.92 1.83-.43-.16-.91-.35-1.39-.53l-.99 2.85c-.55.1-.83-.45-1.34-.16-.21.12-.74-.17-1.07-.37-.96-.59-1.04-.61-1.85.01-.12.09-.21.23-.35.38-.16-.11-.34-.32-.47-.3-.73.14-1.08-.36-1.59-.72-.83-.58-1.03-1.23-.86-2.14.27-1.45.53-2.9.75-4.36.42-2.84.79-5.69 1.22-8.53.24-1.54.58-3.06.87-4.58.6-3.13 1.17-6.26 1.8-9.39.28-1.39.42-2.85 1.45-3.99.2-.22.22-.59.37-.87.32-.59.64-1.18 1-1.76.33-.53.78-1 1.04-1.56.25-.52.52-.89 1.13-.89.83 0 1.15-.63 1.46-1.22.46-.87.78-1.09 1.75-1.02.23.02.46-.02.7-.03.2-.01.51-.11.58-.02.78.98 2.08.67 3.04 1.37 2.16 1.56 3.5 3.63 4.61 5.95 1.74 3.65 3.21 7.37 4.07 11.34.38 1.73 1.09 3.39 1.65 5.09.13-.02.25-.02.36-.01zM320.89 105.47c.05.25.05.53.17.73.31.54.31 1.09.21 1.68-.07.41-.07.84-.05 1.26.03.68-.23 1.1-.98 1.4-.4-.86-.19-1.99-1.13-2.72-.31.73.08 1.21.48 1.71-.12.34-.24.71-.41 1.21-.27-.24-.47-.46-.71-.63-.22-.16-.48-.27-.76-.41-.35.43-.68.85-1.13 1.41-.27-.82-.49-1.47-.73-2.21l-1.18.7c-1.26-1.12-1.17-2.75-1.41-4.2-.28-1.67-.31-3.39-.35-5.09-.06-2.9-.05-5.8-.07-8.7-.01-1.63 0-3.25 0-4.97-1.85-.06-3.57-.02-4.92 1.43-.18.19-.57.2-.87.25-.35.05-.73-.03-1.05.09-1.66.64-3.37.52-5.08.35-1.72-.17-1.97-.01-1.94 1.73.03 2.27.12 4.55.18 6.82 0 .12-.01.26.04.35.71 1.08.1 1.87-.6 2.59.2.56.38 1.07.55 1.57-.06.03-.12.05-.19.08-.28-.47-.55-.95-.85-1.46-.63.52-.22 1-.26 1.59-.51.14-1.06.3-1.61.45v1.27c.21.1.46.21.71.32-.06.79-.82.53-1.14.92-.39-.25-.71-.5-1.06-.66-.31-.14-.73-.34-.99-.24-.59.22-1.02.1-1.52-.23-.27-.18-.68-.14-1.06-.2-.14-.27-.28-.55-.43-.83-.32.06-.64.11-1.01.18-.09-.38-.22-.68-.22-.99-.06-2.87-.19-5.74-.1-8.6.07-2.43.4-4.85.63-7.27.02-.19.05-.45.17-.56.81-.73.69-1.83 1.12-2.71.1-.21.15-.47.14-.7-.11-1.44.36-2.81.47-4.21.1-1.32.03-2.66-.1-3.98-.05-.55-.45-1.06-.65-1.61-.11-.3-.15-.63-.21-.94.08-.04.16-.07.24-.11.26.25.51.5.81.78.4-.7.81-1.28.63-2.19-.12-.57.25-1.25.44-2.04.42-.03 1-.07 1.67-.12.06-.4.12-.77.18-1.16.41-.29.87-.54 1.24-.88.47-.42 1.01-.34 1.56-.4.7-.08.85.41 1.14.84.39.56.67 1.32 1.6 1.17 1.78 1.03 3.41 2.15 3.75 4.44.18 1.21.54 2.42.96 3.57.31.85.79 1.65 1.29 2.41.49.75 1.36.64 2.08.55 1.73-.21 3.17-.97 4.12-2.52.25-.4.63-.72.92-1.1.75-1 1.14-2.18 1.37-3.38.16-.82.49-1.47 1.2-1.81.48-.23.57-.6.7-1.02.28-.9.58-1.79.9-2.77.87.41 1.54.34 1.9-.56.74-.15 1.13-.75 1.62-1.24.41-.4 1.58-.2 1.89.29.36.55.66 1.14 1.04 1.82.2-.06.56-.17.99-.31.28.71.46 1.44 1.39 1.61.26.05.56.68.58 1.06.04.87.02 1.76-.15 2.61-.4 1.99-.47 3.99-.45 6 .01.44-.03.88-.11 1.31-.07.39-.26.74.22 1.05.12.08.04.51 0 .78-.15.98-.48 1.97-.45 2.95.07 2.3-.54 4.54-.47 6.85.1 3.38.06 6.77.14 10.16.03 1.27.23 2.54.35 3.81.05.52.14 1 .57 1.38.17.16.17.5.27.81l-.96.58c-.18-.14-.35-.28-.61-.49-.12.22-.23.41-.36.62-.5-.02-1.01-.05-1.45-.07-.08.45-.08.93-.27 1.33-.25.52-.65.46-.93-.05-.47-.86-.94-1.71-1.41-2.57-.08.02-.16.03-.24.04zM113.28 108.72c-.34.26-.63.48-.99.76-.55-.57-1.14-1.2-1.74-1.83-.15 1.15.32 2.17.06 3.22-.67.03-1.32.12-1.97.09-.76-.03-1.29-.6-1.78-1.08-.37-.36-.59-.27-.95-.03.2.69.39 1.39.58 2.06-.66.38-1.02.3-1.38-.25-1.73-2.64-3.29-5.35-4.19-8.41-.45-1.55-.5-1.56-2.09-1.35-1.07.14-2.12.38-3.18.58-2.76.52-4.49 2.16-5.28 4.83-.07.23-.11.47-.21.68-.13.29-.27.77-.46.79-1.07.13-1.09 1.6-2.17 1.64-.91.03-1.47.47-2.03 1.21-.63.83-1.51 1.49-2.8 1.09-.6-.19-.48-.9-1.08-.95.27-.85.51-1.63.83-2.64-.48.19-.73.25-.95.37-.23.12-.43.3-.69.49-.32-.61.16-.98.23-1.41.08-.47.18-.93.29-1.4.1-.42.27-.83.34-1.26.36-2.17 1.44-4.05 2.34-6 1.1-2.39 2.19-4.79 3.39-7.12 1.7-3.29 3.48-6.55 5.28-9.79 1.36-2.44 2.67-4.89 3.71-7.49.24-.59.55-1.15.86-1.71.52-.94 1.16-1.83 1.58-2.81.75-1.74 1.97-3.08 3.39-4.27.2-.17.56-.17.84-.21.37-.06.75-.09 1.18-.14.38.34.85.77 1.35 1.21.32-.08.62-.15.95-.23.08.09.19.16.22.26.11.38.39.48.74.46 1.5-.09 2.03.29 2.38 1.7.12.5.33.99.42 1.5.1.53.26 1.06-.05 1.63-.17.32-.11.78-.08 1.17.15 2.31.29 4.62.48 6.92.1 1.27.35 2.53.37 3.8.01.58.68.2.66.68-.02.39.05.79.13 1.18.24 1.09.53 2.17.75 3.26.8 4 2.3 7.7 4.58 11.09.22.33.34.59.08 1.05-.18.33.06.89.13 1.48-1.11-.19-2-.03-2.31 1.23-.31-.02-.61-.03-1.07-.06.23.5.41.9.64 1.39-.62.14-1.13.32-1.49.9-.44.73.11 1.21.16 1.72zM138.01 105.37c.33.05.55.09.96.15-.67.65-1.24 1.21-1.82 1.78-.07-.06-.14-.11-.2-.17.18-.31.36-.62.66-1.13-2.2.93-3.66 2.59-5.66 3.53.12.33.22.6.31.87-.08.07-.13.16-.2.17-1.58.31-3.15.54-4.66-.31-.51-.28-1.21-.21-1.48-.93-.06-.16-.41-.21-.63-.29-1.08-.39-1.96-1.02-2.58-2.02-.78-1.25-1.7-2.41-2.43-3.69-.51-.89-.82-1.89-1.2-2.85-.06-.14-.1-.33-.07-.47.55-2.24-.03-4.46-.17-6.68-.06-.92-.17-1.83-.22-2.74-.01-.27.1-.55.38-.8l.36 2.13c.09 0 .19-.01.28-.01 0-.4.02-.8 0-1.19-.03-.48-.09-.95-.13-1.43-.01-.12-.05-.31 0-.35 1.17-.84.38-2.02.5-3.03.08-.69.53-1.03.87-1.51.5.07.97.16 1.44.2.22.02.55 0 .65-.14.45-.64.96-.36 1.32-.03.51.46 1.09.57 1.72.67.3.05.7.31.79.57.31.85.5 1.74.75 2.66.06-.24.11-.48.21-.88.22.38.43.6.48.85.25 1.09.44 2.18.67 3.27.16.74.2 1.54.53 2.21.78 1.62 1.69 3.17 2.65 4.94.73-.75 1.39-1.28 1.86-1.95 1.04-1.46 2-2.98 2.96-4.49 1.07-1.69.96-3.57.79-5.45-.03-.27-.18-.57-.12-.82.39-1.67-.34-3.07-1.1-4.42-1.52-2.73-2.27-5.68-2.8-8.72-.03-.19 0-.39 0-.81.44.25.74.43 1.16.67-.03-.37-.06-.67-.1-1.11.26.17.43.27.72.46-.07-1.04-.13-1.97-.2-2.97.32-.13.65-.25.99-.39.03-.1.11-.21.1-.32-.02-.28-.1-.55-.1-.83.01-.29.1-.58.15-.87.25.06.51.12.76.17.08-.24.14-.52.27-.76.3-.55.72-.7 1.29-.46.83.35 1.7.66 2.31 1.39.04.05.14.05.27.09.18-.15.39-.31.57-.46.91.36 1.33 1.39 2.4 1.46.22.01.46.6.58.96.25.76.37 1.56.65 2.3.39 1.04.94 2.02 1.32 3.06.59 1.64 1.17 3.3 1.59 4.99.18.74-.07 1.58-.06 2.38.02 2.29-.25 4.54-.82 6.75-.15.58-.38 1.13-.59 1.69-.23.6-.53 1.17-.72 1.77-.74 2.3-1.9 4.37-3.31 6.32-.25.35-.32.82-.56 1.18-.53.77-1.05 1.51-1.84 2.13-.72.56-1.46 1.33-1.74 2.35-.14.46-.47.85-.76 1.36z"/><path d="M250.07 105.81c-.05.14-.1.28-.26.72-.47-1.76-.91-3.23-1.03-4.87.44.7.49.8.61 1.83.09.83.23 1.64.71 2.36-.01-.01-.03-.04-.03-.04zM150.25 113.06c.09-.5.16-.88.23-1.26.08-.01.16-.01.24-.02.19.32.39.64.65 1.06-.38.07-.67.13-1.12.22zM314.79 110.27c.15.66 1.05.97.87 1.92-.74-.49-1.33-.93-.87-1.92zM111.22 78.27c.03.51.06 1.02.1 1.79-.66-.71-.39-1.24-.4-1.75.1-.01.2-.02.3-.04zM348.44 102.62c.51.1.78.15 1.02.2.03.1.05.16.04.16-.33.13-.63.13-1.06-.36zM289.68 106.51c-.03-.21-.05-.41-.12-.87.26.29.41.38.46.51.03.1-.06.24-.1.37-.08-.01-.16-.01-.24-.01zM135.53 67.97c-.03.16-.05.32-.08.48-.09-.02-.19-.04-.28-.05l.09-.47c.09.02.18.03.27.04zM223.09 110.24c.29.1.44.15.58.2-.11.02-.22.06-.33.06-.05 0-.09-.09-.25-.26zM127.48 86.36c.02-.22.03-.44.05-.66l.06.65c-.04.01-.08.01-.11.01zM173.18 111.71c.18-.07.36-.13.55-.2.03.06.06.13.08.19-.18.09-.35.18-.53.27-.03-.09-.07-.17-.1-.26zM149.53 71.25c-.11.12-.17.25-.24.25-.07 0-.16-.1-.22-.18-.01-.02.07-.16.11-.16.1-.01.19.04.35.09z"/><path class="st0" d="M195.68 102.35c-.22-.54-.42-.92-.52-1.32-.75-3.08-.73-6.17.03-9.23.47-1.89.94-3.8 1.62-5.62.68-1.81 1.59-3.54 2.47-5.27.16-.31.73-.39 1.03-.66.27-.24.38-.73.67-.88.95-.51 2.16-.14 2.84.71.24.3.58.52.91.72.75.47 1.45.97 1.9 1.77.67 1.2.64 1.94-.34 2.93-.35.35-.41.79-.27 1.07.54 1.08-.16 1.98-.3 2.96-.08.53-.36 1.05-.6 1.55-.66 1.35-1.49 2.55-2.53 3.66-1.25 1.32-2.25 2.86-3.41 4.27-.76.92-1.57 1.79-2.4 2.65-.26.26-.64.41-1.1.69zM186.93 110.78c1.1.29 2.26.24 3.1 1.23.33.38.94.51 1.44.77-.66.77-.76.76-1.47.47-.47-.2-.98-.27-1.48-.4-1.06-.27-1.52-.84-1.59-2.07zM164.48 88.25c.97-.4 1.68-.72 2.45-.38.7.31 1.37.68 2.12 1.05-.18.49-.58.66-1.08.6-.09-.01-.16-.28-.27-.5-1.03.13-2.1-.01-3.22-.77zM184.12 103.3c.05 1.59 1.14 2.96.93 4.8-.84-.82-1.04-1.78-1.26-2.66-.16-.66.03-1.4.06-2.11.1-.02.19-.03.27-.03zM183.34 98.57c.52 1.43.11 2.89.21 4.48-.53-.65-.66-3.23-.21-4.48zM185.97 107.84c.22.49.44.97.72 1.57-.89-.32-.89-.32-.72-1.57zM159.26 87.69c.63.4.35.87.13 1.35-.04-.44-.08-.9-.13-1.35zM187.22 109.22c.13.17.26.34.38.5l-.14.14-.47-.44c.08-.07.16-.13.23-.2zM345.96 56.21c-.69-.52-1.88-.51-1.88-1.76.59.64 1.66.71 1.88 1.76zM341.37 70.57c.17.76.13 1.51-.29 2.23v-2.23h.29zM348.55 58.38c-.42-.24-.84-.49-1.46-.85.97-.02.97-.02 1.46.85zM333.33 70.56l.09-.59c.07 0 .13.01.2.01v.61l-.29-.03zM219.88 106.86c1.28.14 2.08.94 3.03 1.77-.3.14-.56.36-.67.3-.93-.51-1.7-1.23-2.36-2.07zM249.27 77.41c.26.33.44.45.43.55a14.4 14.4 0 0 1-.44 2.34c-.24-.89-.32-1.75.01-2.89z"/></svg>