<?xml version="1.0" encoding="utf-8"?>
<!-- Generator: Adobe Illustrator 26.5.0, SVG Export Plug-In . SVG Version: 6.00 Build 0)  -->
<svg version="1.1" id="Vrstva_1" xmlns="http://www.w3.org/2000/svg" xmlns:xlink="http://www.w3.org/1999/xlink" x="0px" y="0px" viewBox="0 0 285.24 285.24" style="enable-background: new 0 0 285.24 285.24" xml:space="preserve">
<style>.st0 {
  fill: #fff;
}

</style>
<g>
	<path d="M215.53,25.77c0.3,0.17,0.58,0.43,0.9,0.49c0.86,0.15,1.73,0.24,2.6,0.32c2.01,0.19,4.03,0.36,6.04,0.55
		c1.59,0.16,3.18,0.31,4.75,0.54c0.68,0.1,1.08-0.01,1.17-0.89c1.2,0.18,2.33,0.35,3.52,0.53c0,0.28,0,0.51,0,0.8
		c1.04,0.38,2.01,1.03,3.45,0.7c-0.52-0.37-0.88-0.63-1.31-0.94c0.82-0.61,1.72-0.41,2.43-0.18c1.76,0.56,3.61,0.6,5.35,1.17
		c1.93,0.64,3.97,0.86,5.82,1.76c0.45,0.22,1,0.26,1.51,0.34c0.61,0.09,1.07,0.28,1.1,1.01c0.01,0.26,0.14,0.54,0.28,0.77
		c0.55,0.91,1.13,1.81,1.69,2.72c0.08,0.13,0.17,0.3,0.16,0.44c-0.08,1.15,0.73,1.74,1.44,2.42c0.91,0.86,1.97,1.46,3.15,1.86
		c0.4,0.14,0.56,0.41,0.49,0.83c-0.08,0.48-0.13,0.95,0.44,1.33c0.08-0.15,0.2-0.28,0.2-0.4c-0.02-0.79-0.09-1.58-0.1-2.37
		c0-1.19,0.41-1.4,1.45-0.8c0.07,0.04,0.15,0.05,0.32,0.1c0-0.43,0-0.83,0-1.26c0.86-0.49,0.77,0.54,1.3,0.78
		c0.06-0.68,0.12-1.33,0.17-1.99c0.09-0.02,0.17-0.03,0.26-0.05c0.22,0.33,0.45,0.66,0.7,1.03c0.17-0.35,0.32-0.66,0.49-1
		c0.29,0.08,0.55,0.15,0.83,0.22c0.32-0.56,0.39-1.29,1.13-1.48c1.34,0.97,1.36,1.06,1.46,2.54c0.07,1.07,0.25,2.13,0.37,3.2
		c0.05,0.44,0.05,0.88,0.1,1.31c0.08,0.63,0.12,1.28,0.31,1.88c0.41,1.3,0.63,2.6,0.63,3.98c0,1.14,0.27,2.29,0.43,3.43
		c0.07,0.51,0.19,1.02,0.23,1.54c0.05,0.8,0.08,1.59,0.55,2.3c0.16,0.24,0.14,0.61,0.2,0.92c0.16,0.78,0.34,1.56,0.48,2.34
		c0.06,0.34,0.07,0.69,0.09,1.03c0.04,0.87,0,1.75,0.14,2.6c0.18,1.02,0.51,2.02,0.29,3.07c-0.02,0.12-0.04,0.25,0,0.36
		c0.73,2.61,0.08,5.35,0.77,7.96c0.05,0.19,0.09,0.41,0.05,0.59c-0.41,2,0.17,3.98,0.12,5.97c-0.03,1.11-0.07,2.26,0.21,3.31
		c0.28,1.05,0.03,2,0.02,3c-0.01,1.23-0.14,2.51,0.74,3.62c0.27,0.34,0.18,0.95,0.06,1.48c-0.09-0.18-0.17-0.37-0.3-0.63
		c-0.49,0.98,0.09,1.77,0.23,2.6c0.12,0.73,0.29,1.45,0.4,2.18c0.07,0.44,0.06,0.9,0.1,1.52c-0.04,0.03-0.25,0.14-0.38,0.22
		c0.18,0.43,0.41,0.74,0.42,1.05c0.04,1.31,0,2.62,0.02,3.93c0.03,1.63,0.12,3.26,0.13,4.88c0.01,1.85,0.17,3.7-0.09,5.55
		c-0.01,0.08-0.01,0.17-0.06,0.22c-0.59,0.74-0.48,1.58-0.34,2.42c0.14,0.85,0.24,1.71,0.39,2.56c0.03,0.15,0.23,0.27,0.34,0.41
		c0.15,0.21,0.29,0.43,0.29,0.78c-0.14-0.13-0.28-0.25-0.6-0.54c0.03,0.67,0.06,1.17,0.09,1.81c0.28-0.16,0.44-0.25,0.59-0.35
		c0.43,1.14,0.35,1.71-0.41,2.55c0.98,0.22,0.89,1.12,1.07,1.78c0.22,0.79,0.18,1.66,0.25,2.49c0.11,1.25,0.16,2.5,0.35,3.73
		c0.23,1.56,0.2,3.11,0.07,4.67c-0.03,0.37-0.39,0.71-0.67,1.18c-0.07,0.86,1.03,0.69,1.42,1.29c-0.74,1.07-0.44,2.33-0.44,3.5
		c0,1.61,0.3,3.21,0.39,4.82c0.09,1.71,0.36,3.48,0.04,5.13c-0.26,1.31,0.14,2.48,0.07,3.71c-0.03,0.53-0.12,1.06-0.21,1.78
		c0.08,0.1,0.29,0.38,0.54,0.71c-0.42,0.59-0.57,1.28-0.16,1.87c0.68,0.99,0.44,2.1,0.21,3.02c-0.28,1.13-0.06,2.09,0.21,3.12
		l-0.04-0.04c0,0.2,0.05,0.42-0.02,0.59c-0.63,1.62-0.44,3.26-0.27,4.92c0.06,0.58-0.09,1.18-0.13,1.78
		c-0.11,1.66-0.22,3.33-0.32,4.99c-0.02,0.28-0.01,0.56-0.01,0.83c0,1.31,0.09,2.6-0.44,3.88c-0.21,0.51,0.07,1.19-0.06,1.75
		c-0.19,0.78,0.11,1.69-0.61,2.34c-0.12,0.11-0.21,0.45-0.14,0.54c0.58,0.73,0.08,1.45,0.02,2.18c-0.05,0.51-0.09,1.03-0.18,1.54
		c-0.06,0.35-0.08,0.77-0.29,1.01c-0.7,0.79-0.63,1.75-0.67,2.71c0.21-0.64,0.42-1.29,0.62-1.93c-0.37,1.65,0.48,3.53-1.04,5.03
		c0-0.46,0-0.84,0-1.22c-0.05-0.01-0.1-0.03-0.15-0.04c-0.28,0.53-0.55,1.06-0.89,1.71c0.16,0.27,0.37,0.64,0.49,0.85
		c-0.16,1.03-0.34,1.91-0.41,2.81c-0.07,0.84-0.15,1.61-0.74,2.32c-0.33,0.38-0.41,1-0.52,1.54c-0.28,1.4-0.7,2.78-0.58,4.24
		c0.03,0.42-0.15,0.85-0.19,1.29c-0.02,0.19,0.07,0.4,0.14,0.73c0.48-0.53,0.62-0.98,0.52-1.54c-0.07-0.43,0.07-0.76,0.72-0.71
		c-0.28,1.33-0.39,2.63-1.59,3.73c-0.13-0.42-0.22-0.72-0.3-1.02c-0.04,0.01-0.13-0.01-0.17,0.03c-0.79,0.91-1.2,1.99-1.51,3.15
		c-0.24,0.87-0.75,1.66-1.19,2.47c-0.21,0.4-0.25,0.69,0.04,1.08c0.19,0.25,0.29,0.68,0.23,0.99c-0.17,0.97-0.42,1.92-0.66,2.93
		c-0.9-0.16-1.52,0.04-1.76,0.89c-0.02,0.07-0.08,0.15-0.14,0.19c-1.07,0.62-1.24,1.66-1.28,2.76c-0.01,0.16-0.04,0.31-0.08,0.56
		c-0.85-0.05-1.24,0.45-1.43,1.22c-0.06,0.23-0.33,0.44-0.55,0.59c-0.55,0.38-0.92,0.88-1.04,1.54c0,0,0.05-0.05,0.05-0.05
		c-0.37,0.35-0.82,0.66-1.09,1.07c-0.98,1.49-1.91,3.01-2.85,4.53c-0.13,0.2-0.25,0.41-0.32,0.64c-0.17,0.51-0.54,0.8-0.95,1.15
		c-0.81,0.68-1.45,1.55-2.11,2.3c-0.97,0.26-1.97,0.53-3.04,0.82c0.03,0.3,0.07,0.64,0.11,1.01c-0.84,0.68-1.87,0.88-2.86,1.16
		c-1.53,0.43-3.08,0.81-4.62,1.19c-2.43,0.61-4.85,1.24-7.28,1.79c-1.15,0.26-2.26,0.82-3.5,0.64c-0.07-0.01-0.19,0-0.23,0.05
		c-0.88,1.03-2.22,0.78-3.31,1.05c-1.33,0.33-2.67,0.68-4.04,0.92c-2.2,0.38-4.44,0.67-6.53,1.4c-1.37,0.47-2.7,0.52-4.07,0.7
		c-0.91,0.12-1.8,0.35-2.71,0.4c-1.43,0.08-2.86,0.1-4.29,0.04c-1.12-0.05-2.18,0.01-3.3,0.25c-1.32,0.29-2.72,0.21-4.09,0.23
		c-1.86,0.03-3.7-0.36-5.59-0.21c-1.77,0.14-3.57-0.05-5.35-0.09c-0.32-0.01-0.64-0.04-0.96,0c-0.9,0.1-1.29,0.43-1.56,1.14
		c-1.03,0.38-1.96,0.72-3.01,1.11c0.23,0.16,0.31,0.26,0.41,0.29c0.34,0.09,0.82,0.11,0.68,0.61c-0.05,0.19-0.48,0.34-0.75,0.4
		c-0.5,0.11-1.01,0.15-1.52,0.21c-0.45,0.06-0.79-0.07-0.91-0.72c0.54-0.12,1.08-0.24,1.81-0.41c-0.29-0.26-0.42-0.46-0.6-0.51
		c-0.34-0.1-0.71-0.16-1.06-0.14c-1.33,0.08-2.66,0.15-3.98,0.31c-0.74,0.09-1.46,0.33-2.18,0.5c0,0,0.03,0.03,0.03,0.03
		c-0.05-0.22-0.09-0.44-0.17-0.85c-1.12,0.89-2.4,0.04-3.5,0.66c-0.09,0.05-0.32-0.04-0.44-0.13c-0.68-0.49-1.35-0.31-2.05-0.04
		c-0.29,0.11-0.6,0.21-0.91,0.23c-1.15,0.07-2.29,0.11-3.44,0.15c-0.38,0.01-0.67,0.08-0.89,0.46c-0.27,0.46-0.69,0.72-1.48,0.66
		c0.41-0.36,0.67-0.58,1.02-0.89c-0.92-0.31-1.71-0.58-2.57,0c-0.28,0.19-0.73,0.13-1.11,0.16c-1.65,0.11-3.29,0.43-4.97,0.29
		c-0.93-0.08-1.89,0.1-2.84,0.2c-2.06,0.21-4.11,0.27-6.18,0.2c-1.7-0.05-3.41,0.12-5.12,0.14c-1.87,0.03-3.74,0-5.61-0.01
		c-0.91-0.01-1.81-0.04-2.72-0.05c-0.17,0-0.34,0.1-0.52,0.16c0,0.08,0,0.16-0.01,0.25c0.98,0.12,1.96,0.25,2.94,0.37
		c0,0.08,0.01,0.16,0.01,0.24c-0.18,0.04-0.36,0.12-0.54,0.12c-2.99,0-5.98-0.01-8.97,0c-0.23,0-0.46,0.1-0.7,0.26
		c1.16,0.05,2.33,0.13,3.49,0.15c3.75,0.06,7.51,0.12,11.27,0.13c2.91,0.01,5.81,0.09,8.72-0.16c2.38-0.21,4.77-0.21,7.16-0.3
		c0.14-0.01,0.29,0.03,0.45,0.25c-0.61,0.07-1.23,0.16-1.84,0.2c-2.38,0.17-4.77,0.39-7.15,0.46c-2.71,0.09-5.42,0.06-8.12,0.04
		c-3.15-0.02-6.29-0.06-9.44-0.11c-2.26-0.03-4.51-0.05-6.77,0.22c-2.07,0.25-4.17,0.26-6.26,0.38c-0.68,0.04-1.35,0.09-2.03,0.12
		c-2.87,0.12-5.71-0.09-8.56-0.42c-1.66-0.19-3.32-0.39-4.99-0.38c-3.16,0.02-6.33,0.1-9.44-0.4c-2.92-0.47-5.79-0.22-8.7-0.18
		c-2.7,0.04-5.4-0.25-8.1-0.34c-1.55-0.05-3.09-0.01-4.64-0.01c-0.01-0.1-0.02-0.2-0.03-0.29c0.23-0.06,0.47-0.17,0.7-0.17
		c1.43-0.04,2.87-0.05,4.3-0.09c0.2-0.01,0.45-0.09,0.58-0.23c0.33-0.35,0.56-0.33,0.79,0.08c0.21,0.36,0.61,0.36,0.78,0.1
		c0.3-0.47,0.72-0.44,1.14-0.45c0.56-0.01,1.09,0.05,1.54-0.44c0.16-0.17,0.72-0.23,0.89-0.09c0.56,0.45,1.17,0.24,1.75,0.29
		c0.16,0.01,0.33-0.06,0.5-0.1c0.24-0.05,0.5-0.17,0.73-0.14c0.61,0.09,1.21,0.24,2,0.4c-2.62,0.69-5.19,0.35-7.74,0.69
		c0.23,0.06,0.46,0.18,0.68,0.18c3.34-0.07,6.69-0.16,10.03-0.23c0.47-0.01,0.94,0.09,1.43,0.14c-0.45-0.4-0.45-0.4-1.28-0.55
		c-0.06-0.45,0.26-0.55,0.58-0.57c1.01-0.07,2.03-0.11,3.05-0.16c0.25,0.57-0.41,0.28-0.51,0.53c1.4,0.69,4.32,0.87,5.35,0.26
		c-1.17-0.11-2.25-0.22-3.45-0.33c0.23-0.22,0.33-0.32,0.65-0.62c-0.86,0.08-1.47,0.14-2.08,0.2c-0.24-0.12-0.47-0.32-0.72-0.34
		c-2.22-0.23-4.43-0.28-6.66-0.21c-1.66,0.05-3.34,0.28-4.99-0.2c-0.26-0.07-0.56-0.07-0.83-0.03c-2.55,0.41-5.09-0.1-7.64-0.13
		c-0.32,0-0.64-0.02-0.95-0.01c-1.71,0.05-3.42,0.11-5.13,0.17c-0.2,0.01-0.45-0.1-0.58-0.01c-0.94,0.63-1.91,0.28-2.89,0.15
		c-1.42-0.19-2.87-0.57-4.26-0.4c-1.97,0.23-3.78-0.42-5.67-0.53c-0.14-0.01-0.28-0.08-0.42-0.34c0.35-0.04,0.7-0.09,1.03-0.13
		c-0.65-0.8-0.65-0.8-1.73-0.6c0.09,0.26,0.17,0.51,0.31,0.94c-0.53-0.09-0.98-0.17-1.42-0.25c-0.45-0.08-0.8-0.27-0.76-0.95
		c-0.46,0.3-0.75,0.62-1.06,0.66c-0.37,0.04-0.75-0.24-1.14-0.27c-1.9-0.14-3.65-0.83-5.3-1.67c-1.32-0.67-2.69-1.32-3.7-2.49
		c1.08,0.7,2.46,0.76,3.37,1.84c0.34,0.41,1.04,0.71,1.58,0.72c0.72,0.01,1.31,0.22,1.91,0.52c0.25,0.12,0.56,0.11,0.85,0.17
		c0.03-0.08,0.06-0.16,0.09-0.24c-0.32-0.17-0.63-0.39-0.97-0.5c-1.24-0.43-2.33-1.1-3.37-1.89c-0.31-0.24-0.67-0.43-1.04-0.59
		c-0.5-0.21-0.88-0.6-1.31-0.89c-2.07-1.38-3.33-3.48-4.97-5.24c-1.03-1.11-1.57-2.38-2-3.75c-0.25-0.79-0.26-1.66-0.5-2.45
		c-0.58-1.86-1.26-3.69-1.86-5.55c-0.38-1.17-0.67-2.38-1.02-3.56c-0.12-0.4-0.28-0.79-0.48-1.34c-0.24,0.33-0.47,0.54-0.43,0.62
		c0.33,0.72,0.02,1.29-0.35,1.87c-0.09,0.14-0.05,0.35-0.09,0.73c-0.61-1.02-0.73-1.98-0.89-2.74c0.57-0.3,1.03-0.54,1.66-0.87
		c-1.2-0.44-1.48-1.19-1.42-2.18c0.04-0.62-0.19-0.97-0.98-1.89c-0.4,0.68-0.32,1.37-0.22,2.06c0.05,0.35,0.22,0.7,0.22,1.05
		c0,0.29-0.18,0.58-0.28,0.86c-0.11-0.01-0.21-0.01-0.32-0.02c-0.22-1.01-0.44-2.02-0.71-3.27c-0.13,0.35-0.19,0.43-0.18,0.49
		c0.22,1.13,0.44,2.26,0.7,3.37c0.07,0.3,0.28,0.56,0.43,0.84c0,0-0.03-0.04-0.03-0.04c-0.17,0.78,0.01,1.47,0.5,2.11
		c0.09-0.29,0.17-0.55,0.26-0.8c0.08,0.01,0.16,0.02,0.24,0.03c0,0.23-0.03,0.48,0.01,0.7c0.05,0.26,0.16,0.51,0.26,0.81
		c-0.35,0.04-0.65,0.08-1.01,0.12c-0.38-1.41-0.77-2.81-1.13-4.22c-0.71-2.85-1.41-5.7-2.1-8.55c-0.15-0.61-0.23-1.24-0.34-1.87
		c0.6-0.29,0.6-0.29,0.04-0.9c0,0.33,0,0.63,0,0.93c-0.34-1.1-0.75-2.17-1.01-3.29c-0.58-2.56-1.16-5.12-2.1-7.58
		c-0.18-0.47-0.13-1.02-0.26-1.51c-0.17-0.68-0.38-1.35-0.63-2c-0.53-1.37-1.14-2.7-1.62-4.08c-0.19-0.54,0.03-1.3-0.27-1.72
		c-0.41-0.57,0.4-1.08-0.18-1.64c-0.31-0.29-0.05-1.11-0.29-1.56c-0.64-1.2-0.41-2.63-1.15-3.79c-0.12-0.19-0.19-0.45-0.2-0.68
		c-0.15-1.97-0.88-3.82-1.12-5.78c-0.14-1.12-0.53-2.21-0.8-3.32c-0.06-0.26-0.15-0.58-0.06-0.81c0.16-0.4-0.01-0.63-0.17-0.98
		c-0.35-0.79-0.67-1.62-0.82-2.46c-0.32-1.88-0.57-3.78-0.75-5.68c-0.13-1.43-0.11-2.87-0.12-4.31c-0.03-3.19-0.06-6.39-0.07-9.58
		c-0.01-1.19,0.03-2.38,0.04-3.57c0.01-0.66,0.01-1.32,0-1.99c-0.03-2.43-0.09-4.86-0.1-7.29c0-0.67,0.12-1.35,0.17-2.02
		c0.03-0.39,0.05-0.78,0.07-1.17c0.01-0.24-0.03-0.48-0.01-0.72c0.24-2.37,0.51-4.74,0.74-7.12c0.23-2.38,0.38-4.78,0.64-7.16
		c0.2-1.9,0.64-3.78,0.73-5.68c0.08-1.69,0.74-3.35,0.45-5.02c-0.15-0.86,0.14-1.52,0.31-2.25c0.3-1.24-0.1-2.44-0.16-3.66
		c-0.01-0.27-0.08-0.54-0.06-0.81c0.27-3.61,0.68-7.22,0.78-10.84c0.13-4.62-0.01-9.24-0.03-13.86c-0.01-2.31-0.03-4.62,0.02-6.93
		c0.04-1.91,0.24-3.83,0.25-5.74c0.01-1.3-0.25-2.61-0.29-3.91c-0.03-1.15,0.07-2.3,0.15-3.44c0.01-0.14,0.3-0.24,0.37-0.4
		c0.15-0.31,0.32-0.64,0.34-0.97c0.03-0.67-0.05-1.34-0.09-2.07c-0.23-0.03-0.48-0.06-0.82-0.1c0-1.19,0-2.36,0-3.59
		c0.42,0.11,0.79,0.2,1.17,0.3c0.16,0.35,0.32,0.74,0.48,1.1c1.38-0.19,0.8-1.95,2.06-2.23c0.13,0.38,0.25,0.74,0.44,1.33
		c0.07-1.09,0.12-1.97,0.18-2.86c0.36-0.14,0.7-0.21,0.66-0.78c-0.14-2.08,0.43-3.93,1.71-5.64c1.02-1.36,1.78-2.92,2.6-4.43
		c0.36-0.65,0.78-0.98,1.54-1.13c1-0.19,1.99-0.55,2.92-0.97c3.01-1.37,5.96-2.88,9-4.18c1.08-0.46,2.24-0.67,3.05-1.62
		c2.74-1.16,5.36-2.78,8.43-2.87c1.58-0.04,3.01-0.72,4.56-0.74c0.04,0,0.08-0.12,0.16-0.26c-1.39-0.42-2.84-0.02-4.35-0.37
		c0.46-0.41,0.89-0.35,1.29-0.4c4.34-0.52,8.69-0.15,13.03-0.09c1.95,0.03,3.89,0.38,5.83,0.44c4.92,0.14,9.83,0.87,14.77,0.5
		c1.87-0.14,3.74-0.28,5.61-0.31c2.83-0.04,5.67,0.06,8.5,0.05c2.63-0.02,5.27-0.09,7.9-0.17c3.39-0.11,6.77-0.35,10.16-0.35
		c3.33,0,6.59-0.58,9.87-0.94c4.32-0.47,8.64-0.99,12.97-1.45c0.8-0.09,1.62-0.01,2.48-0.01c-0.03,0.46-0.39,0.5-0.74,0.53
		c-0.99,0.08-1.99,0.14-2.98,0.24c-1.34,0.14-2.67,0.3-4.01,0.46c-2.01,0.25-4.02,0.52-6.03,0.75c-0.35,0.04-0.72-0.03-1.07-0.08
		c-0.72-0.1-1.32,0.11-1.96,0.69c0.3,0.12,0.49,0.2,0.69,0.26c0.07,0.02,0.16-0.01,0.24-0.02c2.64-0.33,5.3-0.37,7.93-0.92
		c1.55-0.32,3.17-0.32,4.76-0.45c2.39-0.18,4.77-0.37,7.16-0.51c2.31-0.13,4.62-0.24,6.93-0.3c4.94-0.13,9.89-0.22,14.83-0.33
		c2.15-0.05,4.3-0.1,6.44-0.11c1.35-0.01,2.71,0,4.05,0.12c3.36,0.3,6.68-0.17,10.02-0.32c1.1-0.05,2.21,0.12,3.32,0.12
		c0.59,0,1.17-0.14,1.76-0.21c0.66-0.08,1.32-0.2,1.98-0.23c1.06-0.04,2.13,0.01,3.19-0.01c1.62-0.02,3.25-0.05,4.87-0.1
		c0.18,0,0.35-0.1,0.66-0.19c-0.45-0.55-0.98-0.54-1.46-0.54c-2.39,0-4.79,0-7.18,0.07c-2.23,0.07-4.45,0.26-6.68,0.35
		c-1.3,0.05-2.59,0.01-3.89-0.13c10.51-1.13,21.02-1.03,31.52,0.04c0.2,0.45-0.07,0.6-0.38,0.74c-0.36-0.12-0.72-0.32-1.08-0.36
		c-0.98-0.09-1.97-0.11-2.95-0.16c-2.14-0.11-4.28-0.24-6.43-0.34c-0.33-0.02-0.66,0.04-0.99,0.06c0.1,0.35,0.25,0.56,0.41,0.57
		c0.59,0.04,1.18-0.02,1.77,0.02c2.61,0.16,5.21,0.37,7.82,0.5C214.54,26.1,215.04,25.88,215.53,25.77z M215.91,145.48
		c-0.51,0-1.25,0.21-1.49-0.05c-0.93-1-1.75-0.7-2.65-0.05c-0.08,0.06-0.19,0.09-0.32,0.15c0.27,0.64,0.6,0.96,1.28,0.52
		c0.32-0.21,0.67-0.17,1.21,0.43c-0.39,0.14-0.78,0.29-1.17,0.43c0.05,0.11,0.09,0.22,0.14,0.33c0.34,0.16,0.69,0.33,1.03,0.49
		c-0.06,0.12-0.08,0.2-0.13,0.25c-0.41,0.43-0.65,0.91-0.32,1.48c0.36,0.6,0.93,0.44,1.48,0.36c0.19-0.03,0.37-0.04,0.56-0.06
		c-1.35,0.46-2.38,1.33-3.73,2.26c0.71,0.25,1.16,0.51,1.63,0.56c0.37,0.04,0.82-0.15,0.64-0.71c-0.13-0.4-0.03-0.61,0.33-0.65
		c0.26,0.49,0.51,0.95,0.79,1.49c-0.02,0.03-0.11,0.16-0.23,0.26c-0.5,0.42-0.81,0.8-0.04,1.29c0.17,0.11,0.15,0.49,0.25,0.87
		c-0.92-0.25-1.3,0.17-1.43,0.99c0.44-0.17,0.85-0.72,1.37-0.17c-0.07,0.56-1.07,0.81-0.45,1.44c-0.77,0.38-1.49,0.7-2.18,1.08
		c-0.17,0.09-0.36,0.39-0.33,0.56c0.07,0.41-0.16,0.57-0.41,0.78c-0.16,0.13-0.24,0.35-0.38,0.56c1.24,0.25,1.24,0.25,1.5,0.85
		c-0.26,0.18-0.5,0.43-0.79,0.52c-0.28,0.09-0.61,0.02-0.88,0.02c-0.45,1.12,0.27,1.68,1.03,2.11c-0.53,0.37-1.01,0.66-1.44,1.01
		c-0.44,0.35-0.79,0.79-0.46,1.66c-1.42-0.41-2.13,0.41-2.93,1.11c-0.45,0.39-0.88,0.74-1.09,1.35c-0.1,0.29-0.45,0.58-0.76,0.69
		c-0.93,0.34-1.44,1.08-1.97,1.84c-0.19,0.27-0.46,0.5-0.73,0.71c-0.22,0.17-0.5,0.26-0.71,0.43c-1.05,0.85-2.08,1.71-3.11,2.58
		c-0.21,0.18-0.5,0.38-0.54,0.61c-0.08,0.41-0.31,0.55-0.64,0.57c-0.74,0.06-1.04,0.58-1.42,1.2c0.36,0.07,0.62,0.12,0.88,0.17
		c-0.01,0.06-0.01,0.11-0.02,0.17c-0.25,0-0.49,0-0.72,0c-0.26,0.43-0.51,0.84-0.8,1.32c-2.04-1-2.98,0.78-4.31,1.75
		c-0.21-0.4-0.36-0.71-0.53-1.05c-0.71,0.06-1.41,0.21-2.1,0.17c-1.01-0.07-1.94-0.04-2.88,0.42c-0.54,0.26-1.34,0.54-1.78,0.32
		c-1.06-0.53-2.06-0.23-3.02-0.05c-2.48,0.46-4.98,0.62-7.49,0.61c-0.58,0-1.16,0.11-1.76,0.17c-0.18,1.36-0.86,2.4-0.8,3.78
		c0.09,2.21-0.34,4.44-0.51,6.67c-0.05,0.62,0.07,1.25,0.1,1.88c0.03,0.63-0.1,1.28,0.35,1.86c0.09,0.11-0.15,0.71-0.35,0.78
		c-0.39,0.15-0.33,0.34-0.31,0.63c0.11,1.65,0.32,3.31-0.04,4.96c-0.06,0.27-0.05,0.56-0.04,0.84c0.08,2.02,0.12,4.04,0.28,6.05
		c0.13,1.53,0.2,3.09,0.97,4.55c-0.38,0.37-0.46,0.79-0.29,1.37c0.23,0.79,0.3,1.63,0.37,2.45c0.21,2.62,0.31,5.26,0.6,7.87
		c0.28,2.55,0.76,5.08,1.13,7.62c0.07,0.51,0.05,1.03,0.08,1.54c0.03,0.54,0.06,1.08,0.09,1.58c1.63,0.34,3.07-0.15,4.53-0.22
		c3.46-0.17,6.93-0.26,10.4-0.36c2.1-0.06,4.2-0.05,6.3-0.14c3.47-0.14,6.93-0.32,10.4-0.48c0.43-0.02,0.87,0.05,1.31,0.07
		c1.55,0.07,3.13,0.35,4.65,0.15c1.94-0.26,3.86-0.54,5.82-0.47c0.27,0.01,0.6-0.04,0.8-0.2c1-0.78,2.18-0.66,3.32-0.73
		c1.12-0.07,2.24-0.02,3.35-0.14c1.94-0.22,3.88-0.5,5.81-0.8c2.44-0.38,4.88-0.75,7.24-1.57c1.99-0.69,4-1.3,6.04-1.82
		c0.84-0.22,1.73-0.22,2.37-0.92c0.05-0.05,0.14-0.06,0.22-0.1c0.6-0.26,1.21-0.53,1.97-0.86c0.06,0.01,0.4,0.17,0.61,0.07
		c0.79-0.36,1.59-0.68,2.15-1.45c0.46-0.63,1.02-1.31,1.7-1.62c0.47-0.22,0.77-0.45,1.06-0.82c0.24-0.31,0.52-0.6,0.79-0.89
		c1.12-1.22,2.28-2.4,3.36-3.66c1.33-1.55,1.94-3.48,2.64-5.34c0.32-0.84,1.04-1.58,0.89-2.56c-0.1-0.66,0.15-1.23,0.51-1.67
		c0.71-0.87,0.71-1.92,0.95-2.91c0.15-0.64,0.14-1.33,0.34-1.95c0.59-1.8,0.71-3.67,0.99-5.52c0.03-0.17,0.07-0.43,0.18-0.49
		c0.5-0.28,0.4-0.74,0.42-1.16c0.01-0.35-0.11-0.76,0.02-1.06c0.83-1.88,0.36-3.94,0.84-5.87c0.08-0.34,0.01-0.71,0.01-1.13
		c-0.14,0.42-0.26,0.77-0.38,1.11c-0.28-0.92-0.53-1.81-0.47-2.67c0.1-1.34-0.31-2.58-0.48-3.86c-0.27-2.01-0.57-4.03-0.71-6.05
		c-0.06-0.83-0.18-1.75,0.38-2.55c0.11-0.15,0.02-0.52-0.1-0.73c-0.39-0.74-0.47-1.59-0.18-2.27c0.24-0.55,0.29-1.02,0.3-1.5
		c-0.27-0.17-0.49-0.29-0.83-0.5c0.37-0.13,0.57-0.21,0.88-0.32c-0.07-0.28-0.05-0.69-0.23-0.84c-0.85-0.67-0.49-1.39-0.21-2.15
		c0.34-0.93,0.35-1.83-0.22-2.71c-0.46-0.7-0.64-1.57-0.18-2.23c0.27-0.39,0.33-0.68,0.27-1.04c-0.14-0.97-0.08-1.97-0.5-2.89
		c-0.27-0.59-0.06-1.07,0.25-1.3c-0.11-0.73-0.31-1.3-0.23-1.83c0.06-0.44,0.48-0.81,0.17-1.32c-0.22-0.36,0.07-0.78-0.27-1.26
		c-0.34-0.49-0.32-1.42-0.11-2.05c0.17-0.52-0.2-0.79-0.18-1.2c0.02-0.41-0.21-0.86-0.83-0.68c-0.02,0.01-0.18-0.25-0.18-0.38
		c0.03-0.47,0.1-0.93,0.16-1.4c0.25,0.1,0.43,0.16,0.7,0.26c-0.15-0.88-0.28-1.62-0.41-2.32c-0.83-0.1-0.83-0.1-0.72-1.01
		c0.43,0.25,0.55-0.02,0.61-0.37c0.1-0.53,0.37-1.07-0.14-1.61c-0.19,0.08-0.4,0.16-0.46,0.18c-0.38-0.28-0.68-0.5-1.05-0.78
		c0.57-0.52,0.75-1.14,0.28-1.88c-0.23,0.05-0.48,0.09-0.89,0.18c0.03-0.4,0-0.71,0.11-0.97c0.05-0.12,0.38-0.13,0.58-0.18
		c0.01-0.1,0.03-0.18,0.03-0.26c-0.06-0.69-0.61-1.28-0.31-2.05c0.09-0.22-0.24-0.49-0.59-0.34c-0.37,0.16-0.74,0.34-1.15,0.53
		c-0.35-0.67-0.55-1.34-0.23-2.35c0.25,0.53,0.39,0.83,0.64,1.39c-0.05-0.63-0.08-0.99-0.11-1.45c-0.71,0.17-0.94-0.19-1.03-0.73
		c-0.15-0.94-0.31-1.88-0.49-2.81c-0.13-0.65-0.46-1.31-0.42-1.95c0.07-1.05-0.06-2.04-0.2-3.07c-0.28-1.96-0.4-3.95-0.58-5.93
		c-0.14-1.57-0.28-3.15-0.41-4.73c-0.02-0.27,0.04-0.55,0.07-0.83c0.15-1.11,0.32-2.21,0.46-3.32c0.03-0.26,0.02-0.6-0.12-0.79
		c-0.32-0.42-0.2-0.79-0.12-1.23c0.11-0.58,0.07-1.18,0.09-1.78c0.01-0.32-0.12-0.73,0.03-0.93c0.54-0.74,0.24-1.53,0.01-2.16
		c-0.5-1.33-0.18-2.65-0.25-3.97c-0.03-0.51,0-1.02-0.06-1.53c-0.16-1.46-0.35-2.92-0.54-4.37c-0.12-0.86-0.28-1.72-0.41-2.58
		c-0.04-0.23-0.11-0.49-0.04-0.7c0.41-1.21-0.01-2.36-0.19-3.52c-0.07-0.47-0.11-0.94-0.13-1.41c-0.05-1.5,0.29-3.02-0.34-4.48
		c-0.05-0.11-0.07-0.24-0.06-0.35c0.19-2.04-0.68-4.02-0.32-6.07c0.04-0.22-0.1-0.46-0.15-0.7c-0.57-2.86-1.14-5.72-1.71-8.58
		c-0.11-0.55-0.21-1.1-0.29-1.65c-0.27-1.85-0.52-3.71-0.8-5.57c-0.22-1.41-0.47-2.82-0.73-4.23c-0.02-0.12-0.16-0.22-0.25-0.33
		c-0.13,0.32-0.1,0.58-0.06,0.84c0.12,0.95,0.29,1.89,0.36,2.84c0.1,1.39,0.05,2.79,0.22,4.16c0.24,1.9,0.66,3.78,0.95,5.67
		c0.21,1.35,0.61,2.72,0.1,4.1c-0.21-0.06-0.35-0.1-0.59-0.17c0.08,0.43,0.15,0.77,0.21,1.09c0.8,0.06,1.1,0.32,1.16,1.17
		c0.1,1.25,0.13,2.5,0.19,3.9c-0.69-1.03-0.14-2.3-1.06-3.12c-0.43,0.37-0.3,0.76-0.19,1.14c0.2,0.73,0.46,1.44,0.59,2.18
		c0.14,0.78,0.16,1.57,0.21,2.36c0.08,1.22,0.14,2.45,0.21,3.67c0.04,0.64,0.02,1.31,0.43,1.92c0.59-0.63-0.05-1.48,0.61-2.14
		c0.39,1.2,0.4,2.25-0.04,3.35c-0.78,0-1.23-0.64-1.95-1.13c0,0.65-0.06,1.17,0.01,1.67c0.2,1.3,0.03,2.64,0.5,3.9
		c0.09,0.25,0.09,0.58,0.01,0.83c-0.33,0.96-0.12,1.89-0.01,2.84c0.13,1.11,0.25,2.23,0.26,3.34c0.01,0.75,0.12,1.55-0.36,2.44
		c-0.14-0.39-0.26-0.6-0.29-0.82c-0.13-1.06-0.25-2.12-0.36-3.19c-0.12-1.31-0.21-2.62-0.33-3.93c-0.2-2.14-0.39-4.28-0.61-6.42
		c-0.14-1.35-0.33-2.69-0.5-4.04c-0.11-0.9-0.22-1.81-0.31-2.71c-0.05-0.56,0.01-1.13-0.1-1.67c-0.56-2.61-0.59-5.29-1.14-7.91
		c-0.4-1.91-0.61-3.86-0.94-5.78c-0.06-0.36-0.25-0.88-0.51-0.98c-0.62-0.23-0.71-0.66-0.8-1.23c0.28,0,0.52,0,0.8,0
		c0.18-1.16-0.19-2.1-0.7-2.84c0.11-0.59,0.28-1.04,0.24-1.47c-0.04-0.46-0.22-0.95-0.45-1.36c-0.57-0.98-1.08-2-2.42-2.23
		c-1.09-0.18-2.14-0.61-3.23-0.88c-0.37-0.09-0.79,0-1.18-0.06c-0.62-0.1-1.25-0.2-1.84-0.39c-0.59-0.2-1.14-0.51-1.71-0.77
		c-0.46-0.21-0.95-0.37-1.38-0.63c-0.44-0.27-0.85-0.36-1.36-0.24c-0.45,0.1-0.96,0.17-1.4,0.07c-0.61-0.14-1.19-0.44-1.78-0.69
		c-0.48-0.21-0.93-0.31-1.49-0.26c-0.81,0.08-1.7,0.08-2.44-0.2c-1.07-0.4-2.11-0.6-3.23-0.43c-0.19,0.03-0.45,0.05-0.56-0.05
		c-0.78-0.68-1.68-0.31-2.52-0.3c-0.87,0.01-1.73,0.14-2.6,0.17c-0.39,0.01-0.79-0.13-1.18-0.16c-2.26-0.13-4.52-0.25-6.78-0.34
		c-2.27-0.09-4.54-0.16-6.81-0.2c-0.71-0.01-1.43,0.13-2.14,0.11c-1.63-0.03-3.27-0.11-4.9-0.18c-0.6-0.02-1.19-0.07-1.79-0.1
		c-2.04-0.11-4.08-0.33-6.13-0.07c-0.82,0.1-1.63,0.35-2.45,0.43c-1.9,0.2-3.8,0.38-5.71,0.5c-1.07,0.07-2.16-0.02-3.23-0.02
		c-2.47,0.02-4.94,0.07-7.41,0.09c-2.31,0.02-4.64-0.1-6.94,0.08c-1.62,0.13-3.27-0.34-4.87,0.22c-0.2,0.07-0.47-0.07-0.7-0.07
		c-0.91-0.01-1.94-0.27-2.71,0.06c-1.08,0.46-2.15,0.63-3.25,0.64c-1.58,0.01-3.17,0.33-4.76-0.01c-0.6-0.13-1.3-0.15-1.86,0.03
		c-1.15,0.38-2.32,0.49-3.51,0.5c-0.99,0.01-1.98-0.14-2.96,0.19c-0.32,0.11-0.71-0.01-1.06-0.01c-0.99,0-2.05-0.23-2.95,0.05
		c-2.27,0.71-4.65,0.68-6.94,1.15c-0.85,0.18-1.76,0.35-2.6,0.22c-1.18-0.19-2.18-0.04-3.16,0.6c-0.25,0.17-0.61,0.27-0.91,0.24
		c-1.3-0.13-2.6,0.5-3.91-0.03c-0.17-0.07-0.44,0.08-0.67,0.14c-0.38,0.1-0.76,0.27-1.14,0.29c-1.63,0.08-3.27,0.12-4.9,0.17
		c-0.24,0.01-0.48,0-0.71-0.04c-1.52-0.29-3.03-0.31-4.57-0.14c-1.34,0.15-2.68,0.43-4.04,0.08c-0.11-0.03-0.24,0-0.36,0.01
		c-1.82,0.14-3.64,0.23-5.47,0.13c-2.38-0.14-4.78-0.06-7.17-0.09c-0.64-0.01-1.28-0.08-1.91-0.03c-1.27,0.1-2.52,0.32-3.79,0.41
		c-2.15,0.15-4.3,0.21-6.45,0.34c-0.87,0.05-1.73,0.19-2.6,0.24c-0.55,0.03-1.1-0.09-1.65-0.08c-1.15,0.03-2.3,0.15-3.45,0.14
		c-1.4-0.01-2.79-0.18-4.18-0.19c-4.35-0.03-8.71-0.04-13.06-0.02c-1.63,0.01-3.3-0.16-4.84,0.55c-1.67,0.76-3.32,1.57-4.95,2.39
		c-0.23,0.11-0.44,0.47-0.46,0.74c-0.06,0.7-0.05,1.42-0.02,2.12c0.07,1.35,0.26,2.7,0.27,4.04c0.02,3.25-0.03,6.51-0.05,9.77
		c-0.01,2.22,0.05,4.45-0.04,6.67c-0.1,2.67-0.33,5.32-0.46,7.99c-0.12,2.51-0.17,5.02-0.25,7.53c-0.03,1.07-0.07,2.14-0.08,3.21
		c-0.02,1.8-0.6,3.56-0.37,5.38c0.01,0.11-0.04,0.24-0.05,0.35c-0.21,2.5-0.42,5.01-0.61,7.51c-0.18,2.31-0.27,4.63-0.51,6.93
		c-0.28,2.65-0.83,5.27-0.64,7.95c0.01,0.12-0.02,0.24-0.03,0.36c-0.17,2.27-0.37,4.53-0.51,6.8c-0.19,3.06,0.11,6.13-0.2,9.19
		c-0.18,1.7-0.11,3.43-0.06,5.14c0.07,2.46,0.11,4.92,0.56,7.36c0.55,3.06,1.04,6.14,1.39,9.24c0.33,2.9,0.95,5.74,1.58,8.58
		c0.56,2.53,1.11,5.06,1.59,7.6c0.33,1.74,0.73,3.45,1.24,5.14c0.36,1.2,1.02,2.33,0.75,3.67c-0.03,0.13,0.09,0.29,0.14,0.43
		c0.17,0.43,0.39,0.85,0.49,1.29c0.24,1,0.42,2.02,0.61,3.03c0.16,0.85,0.18,1.76,0.49,2.55c0.45,1.14,0.82,2.27,1.02,3.49
		c0.34,2.1,1.19,4.09,1.25,6.25c0,0.15,0.07,0.34,0.17,0.43c0.53,0.47,0.57,1.12,0.68,1.74c0.4,2.14,0.94,4.24,1.65,6.3
		c0.92,2.67,1.84,5.34,2.76,8.02c0.1,0.3,0.15,0.63,0.3,0.91c0.23,0.46,0.52,0.89,0.79,1.33c0.08-0.04,0.15-0.08,0.23-0.12
		c-0.28-0.9-0.58-1.79-0.84-2.69c-0.58-2.02-0.57-2.02-0.26-2.71c0.18,0.42,0.35,0.77,0.5,1.14c0.3,0.75,1.02,1.39,0.59,2.32
		c-0.02,0.04,0.13,0.15,0.18,0.24c0.13,0.26,0.29,0.52,0.37,0.8c0.25,0.82,0.3,1.77,0.75,2.46c0.57,0.88,1.4,1.62,2.21,2.31
		c0.66,0.56,1.44,1.01,2.21,1.42c1.12,0.59,2.24,1.32,3.45,1.59c2.19,0.5,4.29,1.41,6.56,1.58c2.34,0.18,4.68,0.48,7.03,0.63
		c1.31,0.08,2.65-0.17,3.95-0.02c1.33,0.15,2.58-0.18,3.87-0.23c2.51-0.1,5.03-0.36,7.54-0.27c3,0.1,5.99,0.06,8.98-0.01
		c3.39-0.08,6.79-0.08,10.17,0.33c1.46,0.18,2.94,0.28,4.41,0.36c1.83,0.1,3.67,0.08,5.5,0.21c1.91,0.13,3.81,0.36,5.72,0.54
		c0.76,0.07,1.51,0.15,2.27,0.2c0.76,0.05,1.51,0.08,2.27,0.11c0.8,0.03,1.6,0.07,2.4,0.05c0.76-0.02,1.59,0.09,2.24-0.2
		c0.75-0.33,1.4,0.26,2.07-0.05c0.1-0.05,0.19-0.12,0.28-0.18c-0.72-8.38-1.99-16.68-2.13-25.09c0.82,3.92,0.64,7.98,1.66,11.9
		c0.02-0.15,0.05-0.26,0.06-0.38c0.15-1.74-0.68-3.44-0.23-5.19c0.01-0.04,0-0.09-0.02-0.12c-0.5-0.68-0.26-1.44-0.27-2.18
		c-0.05-2.67-0.33-5.34-0.83-7.95c-0.64-3.36-0.65-6.73-0.53-10.11c0.05-1.58,0.35-3.15,0.44-4.73c0.1-1.67,0.12-3.34,0.15-5.02
		c0-0.22-0.12-0.44-0.2-0.71c-0.52,0-1-0.05-1.47,0.01c-1.74,0.2-3.46,0.48-5.2,0.66c-2.93,0.3-5.85,0.74-8.81,0.79
		c-0.93,0.02-2.02,0.02-2.73,0.92c-0.07,0.08-0.19,0.14-0.3,0.17c-1,0.24-2,0.49-3.02,0.68c-0.21,0.04-0.47-0.16-0.8-0.28
		c0.22-0.27,0.35-0.43,0.54-0.66c-1.51,0-2.91,0.18-4.23,0.78c-0.18,0.08-0.38,0.27-0.53,0.24c-1.24-0.32-2.43,0.05-3.64,0.21
		c-0.16,0.02-0.34-0.15-0.61-0.28c0.17-0.38,0.32-0.71,0.5-1.09c0.24,0.29,0.39,0.46,0.55,0.65c0.18-0.25,0.29-0.58,0.48-0.63
		c0.75-0.2,0.66-0.74,0.66-1.29c0-0.26,0.12-0.51,0.15-0.63c-0.27-0.43-0.76-0.9-0.66-1.11c0.24-0.57,0.73-1.03,1.21-1.65
		c-0.15-0.51,0.06-1.34-0.91-1.74c0.4-0.16,0.65-0.27,0.87-0.36c0.29-0.71,0.13-1.3-0.42-1.79c1.25-0.58,1.53-1.41,0.9-2.45
		c-0.43,0.01-0.79,0.48-1.21,0.32c0.36-0.57,0.68-1.1,0.99-1.59c-0.31-0.41-0.53-0.68-0.79-1.03c0.79-0.36,1.03-0.97,0.97-1.73
		c-0.03-0.34-0.13-0.79,0.03-1.01c0.4-0.52,0-1.43,0.86-1.68c0.14-0.63,0.19-1.29,0.45-1.87c0.15-0.34,0.19-0.63,0.21-0.99
		c0.04-0.75,0.05-1.59,0.39-2.22c0.43-0.8,0.72-1.5,0.22-2.34c0.21-0.19,0.38-0.34,0.57-0.52c-0.17-0.27-0.32-0.53-0.49-0.81
		c1.34-0.99,0.12-2.08,0.13-3.03c0.56-0.42,1.06-0.79,1.63-1.22c-0.64-0.81-1.45-1.56-0.64-2.59c0.54-0.22,1.04-0.43,1.55-0.63
		c0.5-0.2,1-0.46,1.52-0.58c1.09-0.24,2.2-0.36,3.29-0.62c2.09-0.5,4.15-1.13,6.25-1.57c3.35-0.7,6.73-1.28,10.1-1.93
		c0.38-0.07,0.75-0.25,1.1-0.4c0.08-0.04,0.11-0.19,0.17-0.3c-0.22-0.28-0.43-0.54-0.47-0.59c0.21-0.9,0.43-1.57,0.51-2.25
		c0.26-2.08,0.15-4.19,0.37-6.28c0.27-2.52,0.84-5,0.78-7.55c0-0.12,0.02-0.24,0.05-0.36c0.33-1.53,0.74-3.06,0.99-4.6
		c0.46-2.94,1.79-5.61,2.52-8.46c0.03-0.12,0.07-0.23,0.12-0.34c0.81-1.82,1.62-3.64,2.43-5.46c0.84-1.89,1.67-3.79,2.52-5.67
		c0.15-0.32,0.3-0.74,0.57-0.89c0.57-0.3,0.55-0.96,0.93-1.31c0.39-0.36,0.92-0.55,1.38-0.83c0.04-0.02,0.02-0.14,0.03-0.22
		c-0.14-0.1-0.28-0.2-0.37-0.26c0.28-0.97,2.12-0.62,1.6-2.15c0.99-0.51,1.8-1.23,1.85-2.3c0.03-0.76,0.36-1.19,0.85-1.53
		c0.95-0.67,1.52-1.6,2.11-2.56c0.42-0.66,0.99-1.25,1.58-1.77c0.57-0.5,1.3-0.78,2.25-0.86c-0.37,0.49-0.63,0.83-0.91,1.2
		c0.16,0.06,0.2,0.1,0.23,0.09c0.11-0.02,0.25-0.03,0.33-0.1c1.06-0.95,2.21-1.77,3.43-2.52c1.76-1.07,3.39-2.35,5.09-3.51
		c1.44-0.98,2.98-1.77,4.91-2.41c-0.47,0.38-0.71,0.59-1.03,0.85c1.12,0.11,1.91-0.21,2.62-1.02c-0.17-0.16-0.34-0.32-0.53-0.5
		c2.22-1.02,4.33-1.99,6.4-2.93c0.36,0.28,0.63,0.48,0.86,0.66c0.78-0.36,0.24-0.7,0.09-1.02c0.79-0.79,1.46-0.95,2.26-0.53
		c-0.45,0.21-0.87,0.4-1.29,0.59c0.04,0.08,0.07,0.16,0.11,0.24c1.04-0.37,2.26-0.3,2.96-1.46c0.66,0.38,1.28,0.43,1.67-0.1
		c0.52-0.69,1.13-1.07,1.96-1.16c0.15-0.02,0.28-0.14,0.42-0.22c0.66-0.37,1.29-0.82,1.99-1.07c0.64-0.23,0.99-0.67,1.32-1.17
		c0.12-0.18,0.19-0.4,0.19-0.42c0.86-0.23,1.54-0.4,2.21-0.59c1.57-0.44,3.16-0.61,4.79-0.45c0.52,0.05,1.11,0.18,1.41-0.38
		c0.41-0.76,1.08-0.88,1.81-0.92c1.71-0.09,3.42-0.24,5.13-0.22c0.94,0.01,1.79,0.04,2.56-0.61c0.37-0.31,0.7-0.09,0.81,0.44
		c0.04,0.18,0.03,0.37,0.04,0.51c0.91,0.09,1.74,0.18,2.65,0.27c0.03-0.29,0.06-0.63,0.09-0.91c0.14-0.08,0.21-0.16,0.27-0.16
		c1.59,0.02,3.17,0.03,4.76,0.09c0.68,0.03,1.38,0.15,1.65,0.94c0.29,0.84,0.69,1.48,1.67,1.68c0.5,0.1,0.53,0.67,0.12,1.02
		c-0.14,0.11-0.34,0.15-0.62,0.27c0.32,0.63,0.65,1.28,0.11,1.82c-0.47,0.46-1.06,0.79-1.78,1.32c0.82,0.43,1.5,0.78,2.28,1.19
		c-0.62,0.94,0.73,0.96,0.88,1.72c-0.53,0.33-1.04,0.66-1.55,0.98c0.12,0.73,0.71,0.88,1.17,1.16c0.74,0.44,0.75,0.43,0.52,1.4
		c-0.25,0.05-0.5,0.1-0.89,0.17c0.72,0.78,1.19,1.54,1.37,2.63c-0.43-0.03-0.83,0.06-1.08-0.09c-0.51-0.32-0.92-0.09-1.35,0.08
		c-0.5,0.2-0.57,0.67-0.09,0.86c0.7,0.28,0.94,0.91,1.56,1.52c-0.49,0.13-0.85,0.16-1.12,0.32c-0.26,0.16-0.43,0.47-0.65,0.72
		c-0.08-0.05-0.16-0.09-0.21-0.14c-0.28-0.27-0.62-0.49-0.93-0.17c-0.19,0.2-0.34,0.6-0.27,0.85c0.06,0.22,0.42,0.41,0.68,0.52
		c0.4,0.17,0.85,0.24,1.26,0.39c0.21,0.08,0.5,0.2,0.57,0.38c0.33,0.83,0.6,1.69,0.88,2.52c-0.84,0.57-1.65-0.73-2.48,0.02
		c0.3,0.32,0.56,0.59,0.84,0.89c-0.96,0.44-2-0.56-2.77,0.42c0.14,0.18,0.28,0.37,0.36,0.48c-0.45,0.58-0.87,1.12-1.27,1.64
		c-0.84,0.17-1.69-0.41-2.43-0.03c0.39,0.6,0.73,1.17,1.11,1.7c0.38,0.55,0.8,1.07,1.23,1.65c-1.28-0.31-1.87,0.04-2.28,1.29
		c0.23,0.11,0.47,0.22,0.71,0.33c-0.01,0.05-0.02,0.11-0.02,0.16c-0.77,0-1.54,0-2.32,0c0.08,0.52,0.14,0.94,0.19,1.25
		c0.6,0.2,1.13,0.43,1.69,0.56c0.6,0.14,1.23,0.19,1.84,0.29c0.01,0.09,0.01,0.17,0.02,0.26c-1.29,0.38-2.68,0.24-4.03,0.61
		c-0.03,0.46-0.06,0.92-0.09,1.41c-1.59,0-3.1,0-4.73,0c0.52,0.82,1.23,0.78,1.93,0.78c0.47,0,0.99-0.23,1.65,0.37
		c-1.53,0.13-2.88,0.53-4.09,0.28c-2.63-0.54-5.24-0.27-7.85-0.26c-0.43,0-0.85,0.22-1.53,0.42c0.56,0.26,0.82,0.38,1.09,0.5
		c-1.33,0.22-2.63,0.24-3.93,0.33c-1.99,0.14-3.97,0.35-5.96,0.48c-1.31,0.08-2.59,0.22-3.8,0.78c-0.15,0.07-0.37-0.04-0.55-0.03
		c-0.22,0-0.44,0.04-0.72,0.07c0.17,0.25,0.29,0.42,0.41,0.6c-0.28,0.25-0.52,0.46-0.79,0.7c0.21,0.38,0.41,0.73,0.62,1.1
		c0.43-0.36,0.67-0.98,1.26-0.35c-0.28,0.24-0.59,0.4-0.75,0.65c-0.81,1.29-1.77,2.43-2.95,3.4c-0.22,0.18-0.39,0.56-0.4,0.85
		c-0.01,0.62-0.24,1.04-0.72,1.42c-0.33,0.26-0.52,0.68-0.76,1c0.54,0.96,0.77,1.9,0.21,2.87c-0.47,0.81-1,1.59-1.47,2.4
		c-0.08,0.15-0.01,0.38-0.01,0.58c0.09,0.03,0.18,0.07,0.28,0.1c0.54-0.8,1.08-1.6,1.67-2.49c0.17,0.8-0.25,1.28-0.64,1.76
		c0.14,0.36,0.26,0.69,0.31,0.81c-0.58,0.96-1.06,1.77-1.56,2.57c-0.17,0.27-0.32,0.62-0.58,0.74c-0.67,0.31-0.84,0.92-1.08,1.51
		c-0.19,0.48-0.4,0.95-0.58,1.43c-0.33,0.84-0.74,1.67-0.94,2.54c-0.47,2.14-0.86,4.3-1.24,6.46c-0.07,0.4,0.04,0.83,0.07,1.41
		c1.52-0.08,2.9-0.2,4.28-0.21c1.46-0.01,2.84-0.57,4.33-0.51c2.54,0.1,5.08,0.08,7.59,0.74c0.89-0.61,1.74-1.35,2.98-1.2
		c0.29,0.04,0.6-0.16,0.9-0.26c1.05-0.35,2.08-0.74,3.14-1.05c1.03-0.3,2.1-0.45,3.11-0.8c1.66-0.58,3.37-0.47,5.07-0.6
		c0.95-0.07,1.9-0.15,2.85-0.23c0.11-0.01,0.3-0.05,0.32-0.12c0.29-0.8,0.94-0.51,1.42-0.4c0.78,0.18,1.64-0.03,1.98-0.48
		c0.61-0.79,1.16-0.55,1.91-0.41c-0.21,0.69-0.19,1.2,0.46,1.58c0.41,0.24,0.29,0.63-0.17,0.73c-0.4,0.09-0.8,0.12-1.2,0.17
		c0,0.09,0,0.18,0,0.26c0.21,0.05,0.42,0.09,0.62,0.15c0.29,0.09,0.66,0.1,0.84,0.3c0.66,0.73,1.38,0.83,2.16,0.37
		c0.04,0.35,0.07,0.66,0.1,0.98L215.91,145.48z M129.02,254.38c0.3,0.05,0.45,0.09,0.6,0.09c3.75,0.09,7.5,0.2,11.24,0.26
		c2.26,0.04,4.52,0.34,6.79,0.06c0.92-0.11,1.88,0.1,2.82,0.05c3.42-0.2,6.84-0.44,10.26-0.68c1.51-0.1,3.02-0.22,4.54-0.33
		c0.73-0.05,1.46-0.06,2.19-0.11c0.41-0.03,0.77-0.15,0.8-0.76c-3.92-0.17-7.74,0.61-11.64,0.48c-0.06-0.12-0.15-0.32-0.28-0.61
		c-0.52,0.21-0.98,0.51-1.46,0.56c-1.32,0.14-2.66,0.19-3.99,0.24c-1.18,0.05-2.36,0.08-3.55,0.08c-1.12,0.01-2.25,0.55-3.36-0.12
		c-0.1-0.06-0.41,0.06-0.51,0.18c-0.33,0.38-0.67,0.35-1.07,0.15c-0.2-0.1-0.45-0.2-0.66-0.17c-1.91,0.27-3.79-0.32-5.7-0.17
		c-1.15,0.09-2.31,0.02-3.46-0.04c-1.14-0.06-2.19,0.46-3.32,0.4C129.22,253.94,129.16,254.14,129.02,254.38z M179.56,84.26
		c3.37-0.72,6.62-1.36,9.67-2.68c-1.19,0.06-2.36,0.16-3.51,0.34c-1.64,0.26-3.27,0.59-4.9,0.89
		C179.97,82.98,179.71,83.25,179.56,84.26z M182.42,252.56c-0.23-0.14-0.35-0.27-0.48-0.28c-0.75-0.04-1.5-0.12-2.24-0.07
		c-1.56,0.12-3.17-0.27-4.7,0.34c-0.71-0.27-1.43,0.58-2.16-0.05c-0.09-0.08-0.47,0.19-0.93,0.4c0.8,0.39,1.4,0.61,1.94,0.36
		c0.83-0.39,1.67-0.28,2.46-0.12C178.37,253.57,180.34,253.24,182.42,252.56z M169.99,87.51c-0.94,0.64-1.84,1.25-2.73,1.86
		c0.02,0.08,0.04,0.15,0.06,0.23c0.28-0.02,0.59,0.04,0.84-0.06c0.78-0.3,1.54-0.66,2.3-1c2.06-0.92,4.13-1.83,6.18-2.76
		c0.16-0.07,0.27-0.28,0.4-0.42c-0.04-0.08-0.09-0.15-0.13-0.23c-0.54,0.2-1.1,0.37-1.62,0.61c-0.51,0.23-0.95,0.52-1.58,0.29
		c-0.23-0.09-0.74,0.11-0.89,0.33C171.91,87.71,171.37,87.94,169.99,87.51z M107.53,29.23c0,0.15,0,0.29,0,0.44
		c1.44,0,2.87,0.02,4.31,0c2.75-0.05,3.54-0.2,4.44-0.91C113.24,28.91,110.38,29.07,107.53,29.23z M206.16,110.86
		c-1.04-0.97-2.25-0.5-3.36-0.62c-0.12-0.01-0.38,0.37-0.42,0.59c-0.02,0.13,0.22,0.41,0.39,0.47c1.04,0.36,2.08,0.21,3.1-0.12
		C205.97,111.15,206.03,111.01,206.16,110.86z M124.55,28.21c-2.08,0.21-3.89,0.38-5.7,0.58c-0.12,0.01-0.21,0.29-0.33,0.47
		c0.19,0.07,0.27,0.13,0.33,0.12c1.17-0.22,2.32-0.42,3.55-0.23C123.02,29.24,123.9,29.14,124.55,28.21z M91.32,29.67
		c-1.39-0.45-6.81-0.09-7.52,0.36c2.21-0.04,4.42-0.15,6.63-0.26C90.72,29.76,91.02,29.7,91.32,29.67z M113.96,257.33
		c0.96,0.67,1.45,0.68,4.44,0.17C116.9,256.89,115.52,257.54,113.96,257.33z M258.92,107.4c0.1,0,0.2,0,0.3,0c0-0.71,0-1.42,0-2.13
		c0-0.85-0.12-1.97-0.31-2.23C258.69,104.56,258.63,105.99,258.92,107.4z M249.79,64.61c-0.43,1.69-0.36,1.95,0.63,2.94
		C250.2,66.51,250,65.56,249.79,64.61z M192.35,77.38c0.88,0.31,1.54-0.15,2.39-0.52C192.99,76.55,192.74,76.61,192.35,77.38z
		 M94.14,29.4c-0.58-0.03-1.16-0.05-1.94-0.09C93.03,30.1,93.32,30.12,94.14,29.4z M94.89,256.75c0.01-0.08,0.01-0.16,0.02-0.24
		c-1.07-0.05-2.1-0.45-3.19-0.27c-0.01,0.08-0.01,0.17-0.02,0.25C92.77,256.57,93.83,256.66,94.89,256.75z M276.36,128.46
		c-0.21-0.56-0.42-1.13-0.69-1.85C275.32,128.04,275.35,128.14,276.36,128.46z M98.34,256.86c0-0.04,0-0.08,0-0.12
		c-0.38-0.02-0.76-0.04-1.14-0.07c-0.39-0.03-0.78-0.08-1.16-0.12c0.07,0.23,0.16,0.31,0.26,0.31
		C96.98,256.86,97.66,256.86,98.34,256.86z M198.92,145.7c-0.13-0.43-0.19-0.63-0.27-0.91c-0.42,0.16-0.76,0.28-1.09,0.41
		c0.01,0.08,0.02,0.17,0.03,0.25C197.94,145.51,198.3,145.58,198.92,145.7z M109.2,257.37c0,0.05-0.01,0.11-0.01,0.16
		c0.84,0,1.68,0,2.64,0C110.88,257.47,110.04,257.42,109.2,257.37z M275.9,126.15c-0.03-0.72-0.06-1.37-0.1-2.22
		C275.43,124.81,275.33,125.47,275.9,126.15z M106.07,256.96c-0.01,0.1-0.02,0.21-0.03,0.31c0.67,0.01,1.31,0.35,2.03-0.1
		C107.4,257.11,106.73,257.03,106.07,256.96z M46.71,251.38c-0.06,0.11-0.11,0.22-0.17,0.33c0.29,0.47,0.69,0.68,1.35,0.3
		C47.5,251.8,47.11,251.59,46.71,251.38z M197.61,146c-0.59-0.61-1.04-0.1-1.59-0.27C196.5,146.67,196.98,146.19,197.61,146z
		 M170.1,252.64c-0.45,0.33-0.73,0.54-1.17,0.86C170.08,253.41,170.08,253.41,170.1,252.64z M196.33,145.12
		c-0.06-0.11-0.11-0.22-0.17-0.33c-0.45,0.2-0.9,0.4-1.35,0.59c0.04,0.1,0.09,0.21,0.13,0.31
		C195.41,145.5,195.87,145.31,196.33,145.12z M265.24,186.57c0.08,0.01,0.15,0.02,0.23,0.02c0-0.58,0-1.16,0-1.74
		c-0.11,0.31-0.1,0.61-0.12,0.91C265.34,186.04,265.28,186.3,265.24,186.57z M274.41,98.37c-0.67,0.73-0.15,1.07,0.1,1.45
		C274.48,99.42,274.45,99.02,274.41,98.37z M60.11,253.75c0-0.04,0-0.09,0-0.13c-0.5-0.02-0.99-0.04-1.49-0.07
		c0,0.07,0,0.13-0.01,0.2C59.12,253.75,59.61,253.75,60.11,253.75z M102.28,256.82c-0.35-0.14-0.7-0.44-1.24,0
		C101.56,256.82,101.92,256.82,102.28,256.82z M250.92,83.21c-0.04,0-0.07,0.01-0.11,0.01c0,0.41,0,0.83,0,1.24
		c0.04,0,0.07-0.01,0.11-0.01C250.92,84.04,250.92,83.62,250.92,83.21z M137.18,195.62c-0.08,0.01-0.16,0.01-0.23,0.02
		c0.03,0.42,0.06,0.84,0.09,1.27c0.03,0,0.05,0,0.08,0C137.14,196.47,137.16,196.04,137.18,195.62z M191.42,146.24
		c-0.01,0.1-0.02,0.19-0.03,0.29c0.31,0.03,0.61,0.07,0.92,0.1c0.01-0.09,0.01-0.19,0.02-0.28
		C192.03,146.31,191.73,146.28,191.42,146.24z M113.61,257.74c-0.01-0.11-0.03-0.22-0.04-0.33c-0.27,0.04-0.54,0.07-0.81,0.11
		c0.01,0.11,0.03,0.21,0.04,0.32C113.07,257.8,113.34,257.77,113.61,257.74z M209.37,109.72c0.37,0.29,0.74,0.37,1.3,0
		C210.09,109.72,209.73,109.72,209.37,109.72z M167.69,87.52c0.05,0.07,0.1,0.15,0.15,0.22c0.18-0.12,0.36-0.24,0.54-0.37
		c-0.05-0.07-0.1-0.15-0.15-0.22C168.05,87.27,167.87,87.4,167.69,87.52z M216.96,97.32c0.01,0.07,0.01,0.14,0.02,0.22
		c0.2-0.02,0.39-0.03,0.59-0.05c-0.01-0.07-0.01-0.14-0.02-0.21C217.35,97.29,217.15,97.31,216.96,97.32z M124.28,257.25
		c0.01-0.1,0.01-0.2,0.02-0.29c-0.28,0.02-0.56,0.04-0.83,0.05c0.01,0.09,0.02,0.19,0.03,0.28
		C123.75,257.28,124.01,257.26,124.28,257.25z M24.05,218.41c-0.08,0.04-0.16,0.07-0.24,0.11c0.09,0.25,0.19,0.5,0.28,0.75
		c0.06-0.02,0.13-0.04,0.19-0.07C24.2,218.94,24.12,218.68,24.05,218.41z M135.11,192.92c0.05,0.01,0.1,0.02,0.15,0.03
		c0.06-0.2,0.11-0.39,0.17-0.59c-0.1-0.02-0.19-0.04-0.29-0.06C135.13,192.5,135.12,192.71,135.11,192.92z M121.93,257.25
		c0,0.03,0.01,0.05,0.01,0.08c0.22-0.02,0.45-0.04,0.67-0.06c-0.01-0.05-0.02-0.1-0.03-0.15
		C122.37,257.16,122.15,257.21,121.93,257.25z M194,112.4c0.01,0.06,0.01,0.11,0.02,0.17c0.2-0.03,0.39-0.06,0.59-0.1
		c0-0.04-0.01-0.08-0.01-0.12C194.4,112.37,194.2,112.38,194,112.4z M167,242.62c0.07,0.06,0.14,0.12,0.22,0.19
		c0.09-0.15,0.18-0.31,0.27-0.46c-0.05-0.04-0.11-0.08-0.16-0.11C167.22,242.36,167.11,242.49,167,242.62z M210.49,147.4
		c0.17-0.21,0.23-0.28,0.29-0.35c-0.05-0.04-0.11-0.12-0.16-0.11c-0.1,0.02-0.23,0.06-0.26,0.13
		C210.33,147.13,210.43,147.24,210.49,147.4z M22.44,212.42c-0.08,0.02-0.15,0.05-0.23,0.07c0.06,0.18,0.12,0.37,0.18,0.55
		c0.07-0.02,0.14-0.04,0.2-0.06C22.54,212.8,22.49,212.61,22.44,212.42z M221.42,234.59c-0.15-0.07-0.25-0.15-0.33-0.14
		c-0.07,0.02-0.12,0.14-0.18,0.22c0.09,0.05,0.18,0.14,0.26,0.14C221.24,234.81,221.31,234.7,221.42,234.59z M267.93,220.09
		c-0.05-0.02-0.1-0.03-0.15-0.05c-0.03,0.13-0.07,0.26-0.09,0.39c0,0,0.09,0.03,0.1,0.03C267.84,220.34,267.88,220.21,267.93,220.09
		z M137.01,198.9c0.04,0,0.08,0,0.11,0c0.01-0.23,0.03-0.45,0.04-0.68c-0.05,0-0.11,0-0.16-0.01
		C137.01,198.44,137.01,198.67,137.01,198.9z M175.83,132.68c-0.05-0.02-0.09-0.04-0.14-0.07c-0.11,0.19-0.22,0.38-0.47,0.8
		c0.3-0.23,0.41-0.28,0.45-0.35C175.75,132.95,175.78,132.81,175.83,132.68z M115.93,188.68c-0.04,0.04-0.08,0.09-0.12,0.13
		c0.06,0.03,0.11,0.09,0.17,0.09c0.04,0,0.08-0.08,0.12-0.13C116.05,188.75,115.99,188.72,115.93,188.68z"></path>
	<path d="M142.16,26.06c2.35-1.22,32.59-1.69,35.84-0.98c-0.6,0.2-0.94,0.41-1.29,0.4c-1.31-0.01-2.62-0.1-3.93-0.14
		c-0.74-0.03-1.49-0.03-2.23-0.03c-1.43,0-2.86-0.01-4.29,0.01c-2.26,0.04-4.52,0.23-6.77,0.1c-1.83-0.11-3.64,0.12-5.47,0.09
		c-1.46-0.02-2.92,0.19-4.38,0.28c-2.22,0.14-4.45,0.27-6.67,0.39C142.77,26.19,142.58,26.13,142.16,26.06z"></path>
	<path d="M29.15,237.32c0.47,0.55,1.03,1.04,1.4,1.65c0.39,0.64,0.16,1.36-0.11,2.03c-0.12,0.29-0.16,0.62-0.23,0.88
		c-0.99-1.26-0.66-2.98-1.29-4.43C29,237.4,29.07,237.36,29.15,237.32z"></path>
	<path d="M67.49,255.62c2.11-0.65,4.3-0.21,6.45-0.39c0.35-0.03,0.72,0.2,1.08,0.31c-0.01,0.09-0.02,0.17-0.03,0.26
		c-1.23-0.06-2.47-0.14-3.7-0.17C70.02,255.6,68.76,255.62,67.49,255.62z"></path>
	<path d="M224.6,26.06c1.8-0.29,3.44,0.06,5.06,0.55C228.51,27.08,226,26.83,224.6,26.06z"></path>
	<path d="M38.81,251.2c1.59,0.43,2.8,1.65,4.36,2.15C42.06,253.51,39.89,252.44,38.81,251.2z"></path>
	<path d="M162.37,256.65c-1.47,0.13-2.94,0.27-4.42,0.4c0.61-0.63,1.19-0.96,2.09-0.67c0.72,0.23,1.55,0.11,2.33,0.15
		C162.36,256.57,162.37,256.61,162.37,256.65z"></path>
	<path d="M273.73,205.81c0.14-0.43,0.29-0.85,0.47-1.4c0.28,0.99,0.15,1.85-0.42,3.09c-0.14-0.89-1.17-1.46-0.42-2.5
		c0.04,0.11,0.1,0.21,0.12,0.32c0.04,0.15,0.05,0.3,0.07,0.46C273.62,205.79,273.68,205.8,273.73,205.81z"></path>
	<path d="M9.29,155.49c0.26,1.61,0.45,3.21-0.24,4.78C9.14,158.68,9.22,157.08,9.29,155.49z"></path>
	<path d="M32.62,245.71c-1.41-0.72-1.48-0.79-1.9-2.19c0.52-0.01,0.52-0.01,1.1,0.81C32.09,244.72,32.58,244.98,32.62,245.71z"></path>
	<path d="M178.68,25.14c1.54-0.62,3.14,0,4.73-0.33c0,0.11,0,0.22,0.01,0.33C181.84,25.14,180.26,25.14,178.68,25.14z"></path>
	<path d="M191.95,253.15c1.54-0.85,1.86-0.85,2.54-0.02C193.71,253.43,192.97,253.3,191.95,253.15z"></path>
	<path d="M29.22,231.95c0.43,1.14,0.86,2.28,1.36,3.61C29.77,234.95,29.33,233.88,29.22,231.95z"></path>
	<path d="M216.52,25.3c0.94-0.5,1.76,0.17,2.66,0.19C218.27,25.77,217.38,25.67,216.52,25.3z"></path>
	<path d="M167.17,256.41c-1.16,0.08-2.32,0.15-3.47,0.23c-0.01-0.1-0.01-0.21-0.02-0.31C164.83,256.22,166,256.26,167.17,256.41z"></path>
	<path d="M35.59,249.16c-0.55-0.54-1.02-1-1.68-1.65C35,247.71,35.41,248.16,35.59,249.16z"></path>
	<path d="M38.09,251.1c-0.58-0.45-1.16-0.9-1.74-1.34c0.05-0.07,0.1-0.13,0.15-0.2C37.22,249.83,37.86,250.19,38.09,251.1z"></path>
	<path d="M191.04,253.1c-0.42,0.19-0.83,0.55-1.33-0.15c0.43-0.03,0.87-0.06,1.3-0.1C191.03,252.93,191.04,253.01,191.04,253.1z"></path>
	<path d="M271.5,213.82c-0.15,0.32-0.31,0.63-0.51,1.06C270.91,214.22,270.91,214.22,271.5,213.82z"></path>
	<path d="M62.21,255.8c0.64,0,1.28,0,1.91,0c0,0.03,0,0.06,0,0.09c-0.64,0.04-1.27,0.08-1.91,0.11
		C62.21,255.94,62.21,255.87,62.21,255.8z"></path>
	<path d="M25.89,226.66c0.07-0.13,0.17-0.37,0.22-0.36c0.42,0.07,0.57,0.33,0.38,0.86c-0.25-0.22-0.44-0.38-0.63-0.54
		C25.86,226.63,25.89,226.66,25.89,226.66z"></path>
	<path d="M31.49,242.27c-0.25-0.22-0.5-0.44-0.76-0.67c0.08-0.07,0.16-0.15,0.24-0.22c0.47,0.07,0.44,0.52,0.49,0.9L31.49,242.27z"></path>
	<path d="M36.03,246.78c-0.18-0.3-0.36-0.61-0.54-0.91c0.05-0.03,0.1-0.06,0.14-0.09c0.2,0.3,0.39,0.59,0.59,0.89
		C36.16,246.7,36.1,246.74,36.03,246.78z"></path>
	<path d="M87.83,255.18c-0.12,0.75-0.48,0.57-0.87,0.33C87.2,255.41,87.45,255.32,87.83,255.18z"></path>
	<path d="M273.16,206.7c0.16,0.2,0.34,0.34,0.32,0.4c-0.07,0.18-0.22,0.32-0.34,0.48c-0.09-0.11-0.25-0.22-0.25-0.32
		C272.9,207.11,273.03,206.96,273.16,206.7z"></path>
	<path d="M30.71,237.41c0-0.36,0-0.72,0-1.08c0.06,0,0.11,0,0.17-0.01c0,0.36,0,0.72,0,1.08C30.83,237.4,30.77,237.4,30.71,237.41z"></path>
	<path d="M9.34,162.37c0.06,0.4,0.12,0.8,0.2,1.33C9.11,163.15,9.11,163.15,9.34,162.37z"></path>
	<path d="M186.55,254.66c-0.11,0.13-0.22,0.26-0.33,0.39c-0.07-0.07-0.21-0.15-0.2-0.2c0.04-0.17,0.13-0.34,0.2-0.5
		C186.33,254.45,186.44,254.55,186.55,254.66z"></path>
	<path d="M27.96,235.53c-0.1-0.23-0.2-0.46-0.3-0.68c0.05-0.03,0.11-0.05,0.16-0.08c0.11,0.23,0.22,0.45,0.32,0.68
		C28.08,235.48,28.02,235.5,27.96,235.53z"></path>
	<path d="M278.51,165.52c0.09-0.25,0.18-0.5,0.27-0.75c0.04,0.01,0.08,0.01,0.13,0.02c0.02,0.25,0.05,0.49,0.07,0.77
		c-0.21-0.03-0.35-0.05-0.5-0.08C278.47,165.49,278.51,165.52,278.51,165.52z"></path>
	<path d="M176.28,254.47c-0.17,0.24-0.33,0.48-0.5,0.72c-0.08-0.07-0.15-0.14-0.23-0.21c0.25-0.16,0.5-0.31,0.75-0.47
		C176.31,254.5,176.28,254.47,176.28,254.47z"></path>
	<path d="M31.46,242.29c0.32,0.35,0.48,0.64-0.37,0.77c0.17-0.34,0.28-0.56,0.4-0.78C31.49,242.27,31.46,242.29,31.46,242.29z"></path>
	<path d="M25.97,37.96c0.05-0.09,0.08-0.15,0.11-0.21c0.07,0.07,0.15,0.13,0.19,0.21c0.02,0.03-0.05,0.11-0.09,0.17
		C26.11,38.07,26.03,38.01,25.97,37.96z"></path>
	<path d="M279.29,179.81c-0.21-0.03-0.34-0.01-0.39-0.07c-0.06-0.06-0.04-0.19-0.05-0.28c0.07,0.01,0.16-0.01,0.2,0.03
		C279.12,179.55,279.17,179.64,279.29,179.81z"></path>
	<path d="M144.53,256.75c-0.18,0.09-0.26,0.15-0.35,0.16c-0.07,0.01-0.14-0.05-0.22-0.08c0.06-0.08,0.1-0.22,0.17-0.23
		C144.22,256.59,144.33,256.67,144.53,256.75z"></path>
	<path d="M27.61,232.52c0.04-0.24,0.09-0.47,0.13-0.71c0.06,0.01,0.12,0.02,0.18,0.03c-0.04,0.24-0.08,0.47-0.12,0.71
		C27.73,232.54,27.67,232.53,27.61,232.52z"></path>
	<path d="M275.49,117.73c-0.03-0.21-0.07-0.42-0.1-0.63c0.07-0.02,0.13-0.04,0.2-0.06c0.07,0.21,0.14,0.42,0.22,0.62
		C275.7,117.68,275.59,117.71,275.49,117.73z"></path>
	<path d="M199.99,253.06c-0.06-0.07-0.11-0.12-0.15-0.16c0.09-0.05,0.17-0.12,0.27-0.16c0.02-0.01,0.09,0.08,0.13,0.13
		C200.15,252.94,200.07,253,199.99,253.06z"></path>
	<path d="M261.96,230.69c0,0-0.05,0.05-0.05,0.05c0.09,0.05,0.18,0.09,0.27,0.14c-0.05,0.05-0.1,0.1-0.15,0.15
		C262.01,230.92,261.98,230.8,261.96,230.69z"></path>
	<path d="M137.97,256.67c-0.04,0.06-0.07,0.15-0.12,0.16c-0.06,0.01-0.13-0.04-0.2-0.07c0.05-0.07,0.1-0.14,0.14-0.21
		C137.85,256.59,137.91,256.63,137.97,256.67z"></path>
	<path class="st0" d="M215.9,145.47c-0.03-0.31-0.06-0.62-0.1-0.98c-0.78,0.46-1.5,0.36-2.16-0.37c-0.18-0.19-0.55-0.21-0.84-0.3
		c-0.2-0.06-0.41-0.1-0.62-0.15c0-0.09,0-0.18,0-0.26c0.4-0.06,0.81-0.09,1.2-0.17c0.47-0.1,0.58-0.49,0.17-0.73
		c-0.65-0.38-0.68-0.89-0.46-1.58c-0.75-0.13-1.3-0.38-1.91,0.41c-0.35,0.45-1.2,0.66-1.98,0.48c-0.48-0.11-1.13-0.4-1.42,0.4
		c-0.02,0.07-0.21,0.11-0.32,0.12c-0.95,0.08-1.9,0.15-2.85,0.23c-1.7,0.13-3.41,0.02-5.07,0.6c-1.01,0.35-2.08,0.5-3.11,0.8
		c-1.06,0.31-2.09,0.7-3.14,1.05c-0.3,0.1-0.62,0.3-0.9,0.26c-1.24-0.16-2.09,0.59-2.98,1.2c-2.51-0.65-5.05-0.63-7.59-0.74
		c-1.49-0.06-2.87,0.5-4.33,0.51c-1.38,0.01-2.76,0.13-4.28,0.21c-0.04-0.58-0.14-1.01-0.07-1.41c0.38-2.16,0.77-4.32,1.24-6.46
		c0.19-0.87,0.61-1.7,0.94-2.54c0.19-0.48,0.39-0.95,0.58-1.43c0.24-0.59,0.41-1.19,1.08-1.51c0.25-0.12,0.41-0.47,0.58-0.74
		c0.5-0.8,0.98-1.61,1.56-2.57c-0.05-0.13-0.17-0.45-0.31-0.81c0.39-0.48,0.81-0.96,0.64-1.76c-0.59,0.88-1.13,1.68-1.67,2.49
		c-0.09-0.03-0.18-0.07-0.28-0.1c0-0.2-0.07-0.43,0.01-0.58c0.47-0.81,1-1.59,1.47-2.4c0.56-0.97,0.32-1.9-0.21-2.87
		c0.24-0.32,0.43-0.74,0.76-1c0.48-0.38,0.71-0.8,0.72-1.42c0.01-0.29,0.17-0.66,0.4-0.85c1.18-0.97,2.14-2.11,2.95-3.4
		c0.16-0.25,0.47-0.41,0.75-0.65c-0.59-0.62-0.82-0.01-1.26,0.35c-0.21-0.37-0.41-0.72-0.62-1.1c0.28-0.25,0.51-0.45,0.79-0.7
		c-0.12-0.18-0.24-0.35-0.41-0.6c0.28-0.03,0.5-0.06,0.72-0.07c0.19,0,0.4,0.1,0.55,0.03c1.21-0.55,2.49-0.69,3.8-0.78
		c1.99-0.13,3.97-0.34,5.96-0.48c1.3-0.09,2.6-0.11,3.93-0.33c-0.27-0.12-0.53-0.24-1.09-0.5c0.68-0.19,1.11-0.42,1.53-0.42
		c2.62-0.01,5.23-0.28,7.85,0.26c1.21,0.25,2.55-0.15,4.09-0.28c-0.65-0.6-1.17-0.37-1.65-0.37c-0.7,0-1.42,0.04-1.93-0.78
		c1.63,0,3.14,0,4.73,0c0.03-0.48,0.06-0.95,0.09-1.41c1.35-0.37,2.74-0.24,4.03-0.61c-0.01-0.09-0.01-0.17-0.02-0.26
		c-0.62-0.09-1.24-0.14-1.84-0.29c-0.56-0.13-1.09-0.36-1.69-0.56c-0.05-0.31-0.11-0.73-0.19-1.25c0.78,0,1.55,0,2.32,0
		c0.01-0.05,0.02-0.11,0.02-0.16c-0.24-0.11-0.48-0.22-0.71-0.33c0.41-1.25,1-1.6,2.28-1.29c-0.43-0.58-0.85-1.1-1.23-1.65
		c-0.38-0.54-0.72-1.1-1.11-1.7c0.74-0.38,1.59,0.2,2.43,0.03c0.4-0.52,0.82-1.05,1.27-1.64c-0.09-0.11-0.22-0.29-0.36-0.48
		c0.76-0.98,1.81,0.02,2.77-0.42c-0.29-0.3-0.54-0.57-0.84-0.89c0.83-0.75,1.64,0.55,2.48-0.02c-0.28-0.83-0.55-1.69-0.88-2.52
		c-0.07-0.18-0.36-0.3-0.57-0.38c-0.41-0.15-0.85-0.22-1.26-0.39c-0.26-0.11-0.62-0.3-0.68-0.52c-0.07-0.25,0.08-0.65,0.27-0.85
		c0.31-0.32,0.65-0.1,0.93,0.17c0.05,0.05,0.13,0.09,0.21,0.14c0.21-0.24,0.38-0.55,0.65-0.72c0.27-0.17,0.63-0.19,1.12-0.32
		c-0.61-0.62-0.85-1.24-1.56-1.52c-0.48-0.19-0.41-0.66,0.09-0.86c0.43-0.17,0.84-0.4,1.35-0.08c0.24,0.16,0.65,0.07,1.08,0.09
		c-0.18-1.09-0.64-1.85-1.37-2.63c0.39-0.08,0.64-0.12,0.89-0.17c0.23-0.97,0.22-0.96-0.52-1.4c-0.46-0.27-1.06-0.43-1.17-1.16
		c0.51-0.32,1.03-0.65,1.55-0.98c-0.15-0.76-1.5-0.78-0.88-1.72c-0.78-0.4-1.45-0.76-2.28-1.19c0.72-0.52,1.31-0.86,1.78-1.32
		c0.54-0.53,0.21-1.19-0.11-1.82c0.28-0.12,0.48-0.15,0.62-0.27c0.42-0.35,0.38-0.92-0.12-1.02c-0.97-0.2-1.38-0.84-1.67-1.68
		c-0.27-0.79-0.97-0.91-1.65-0.94c-1.58-0.07-3.17-0.07-4.76-0.09c-0.07,0-0.13,0.08-0.27,0.16c-0.03,0.28-0.06,0.62-0.09,0.91
		c-0.91-0.09-1.74-0.17-2.65-0.27c-0.01-0.14,0-0.33-0.04-0.51c-0.11-0.53-0.44-0.75-0.81-0.44c-0.78,0.65-1.63,0.62-2.56,0.61
		c-1.71-0.02-3.42,0.13-5.13,0.22c-0.73,0.04-1.4,0.16-1.81,0.92c-0.3,0.55-0.89,0.43-1.41,0.38c-1.62-0.15-3.22,0.02-4.79,0.45
		c-0.67,0.19-1.35,0.36-2.21,0.59c-0.01,0.01-0.07,0.23-0.19,0.42c-0.34,0.5-0.68,0.95-1.32,1.17c-0.7,0.25-1.33,0.71-1.99,1.07
		c-0.14,0.08-0.28,0.2-0.42,0.22c-0.84,0.09-1.45,0.47-1.96,1.16c-0.39,0.52-1.01,0.48-1.67,0.1c-0.7,1.16-1.92,1.09-2.96,1.46
		c-0.04-0.08-0.07-0.16-0.11-0.24c0.42-0.19,0.83-0.38,1.29-0.59c-0.8-0.43-1.47-0.26-2.26,0.53c0.15,0.32,0.7,0.66-0.09,1.02
		c-0.23-0.18-0.5-0.38-0.86-0.66c-2.06,0.95-4.18,1.92-6.4,2.93c0.19,0.18,0.36,0.34,0.53,0.5c-0.71,0.81-1.49,1.13-2.62,1.02
		c0.31-0.26,0.56-0.47,1.03-0.85c-1.93,0.64-3.47,1.43-4.91,2.41c-1.71,1.16-3.34,2.44-5.09,3.51c-1.23,0.75-2.37,1.57-3.43,2.52
		c-0.08,0.07-0.21,0.08-0.33,0.1c-0.03,0.01-0.07-0.03-0.23-0.09c0.28-0.37,0.54-0.71,0.91-1.2c-0.95,0.08-1.67,0.35-2.25,0.86
		c-0.59,0.52-1.17,1.11-1.58,1.77c-0.6,0.95-1.16,1.89-2.11,2.56c-0.49,0.34-0.82,0.76-0.85,1.53c-0.04,1.06-0.86,1.79-1.85,2.3
		c0.51,1.52-1.32,1.18-1.6,2.15c0.09,0.06,0.22,0.16,0.37,0.26c-0.01,0.07,0.01,0.19-0.03,0.22c-0.46,0.28-1,0.48-1.38,0.83
		c-0.38,0.35-0.36,1.01-0.93,1.31c-0.27,0.14-0.42,0.56-0.57,0.89c-0.85,1.89-1.68,3.78-2.52,5.67c-0.81,1.82-1.62,3.64-2.43,5.46
		c-0.05,0.11-0.09,0.22-0.12,0.34c-0.73,2.85-2.06,5.52-2.52,8.46c-0.24,1.55-0.66,3.07-0.99,4.6c-0.03,0.12-0.05,0.24-0.05,0.36
		c0.06,2.55-0.51,5.04-0.78,7.55c-0.22,2.1-0.11,4.2-0.37,6.28c-0.09,0.68-0.3,1.35-0.51,2.25c0.04,0.05,0.25,0.31,0.47,0.59
		c-0.06,0.11-0.08,0.27-0.17,0.3c-0.36,0.16-0.72,0.33-1.1,0.4c-3.36,0.65-6.74,1.23-10.1,1.93c-2.1,0.44-4.16,1.08-6.25,1.57
		c-1.08,0.26-2.2,0.38-3.29,0.62c-0.52,0.12-1.02,0.37-1.52,0.58c-0.51,0.2-1.01,0.41-1.55,0.63c-0.81,1.03,0,1.78,0.64,2.59
		c-0.57,0.43-1.06,0.8-1.63,1.22c-0.01,0.95,1.21,2.04-0.13,3.03c0.17,0.28,0.33,0.54,0.49,0.81c-0.19,0.18-0.36,0.33-0.57,0.52
		c0.5,0.84,0.21,1.54-0.22,2.34c-0.34,0.63-0.35,1.47-0.39,2.22c-0.02,0.36-0.06,0.65-0.21,0.99c-0.25,0.58-0.31,1.24-0.45,1.87
		c-0.86,0.26-0.46,1.17-0.86,1.68c-0.17,0.22-0.06,0.67-0.03,1.01c0.06,0.76-0.18,1.37-0.97,1.73c0.27,0.35,0.48,0.62,0.79,1.03
		c-0.3,0.49-0.63,1.02-0.99,1.59c0.41,0.16,0.77-0.31,1.21-0.32c0.63,1.03,0.35,1.86-0.9,2.45c0.55,0.49,0.71,1.08,0.42,1.79
		c-0.22,0.09-0.47,0.19-0.87,0.36c0.96,0.4,0.76,1.23,0.91,1.74c-0.48,0.62-0.97,1.08-1.21,1.65c-0.09,0.22,0.39,0.68,0.66,1.11
		c-0.03,0.12-0.15,0.38-0.15,0.63c0,0.55,0.09,1.09-0.66,1.29c-0.19,0.05-0.3,0.39-0.48,0.63c-0.16-0.19-0.31-0.36-0.55-0.65
		c-0.18,0.39-0.33,0.71-0.5,1.09c0.27,0.13,0.45,0.3,0.61,0.28c1.21-0.16,2.4-0.52,3.64-0.21c0.15,0.04,0.35-0.15,0.53-0.24
		c1.32-0.6,2.72-0.78,4.23-0.78c-0.19,0.23-0.32,0.39-0.54,0.66c0.33,0.12,0.58,0.32,0.8,0.28c1.01-0.19,2.01-0.44,3.02-0.68
		c0.11-0.03,0.24-0.08,0.3-0.17c0.71-0.9,1.8-0.9,2.73-0.92c2.96-0.05,5.88-0.49,8.81-0.79c1.74-0.18,3.47-0.45,5.2-0.66
		c0.47-0.06,0.95-0.01,1.47-0.01c0.08,0.27,0.2,0.49,0.2,0.71c-0.03,1.67-0.04,3.35-0.15,5.02c-0.1,1.58-0.39,3.15-0.44,4.73
		c-0.12,3.38-0.11,6.75,0.53,10.11c0.5,2.61,0.78,5.28,0.83,7.95c0.01,0.74-0.23,1.5,0.27,2.18c0.02,0.03,0.03,0.08,0.02,0.12
		c-0.45,1.75,0.39,3.45,0.23,5.19c-0.01,0.12-0.04,0.23-0.06,0.38c-1.02-3.92-0.83-7.98-1.66-11.9c0.14,8.41,1.41,16.71,2.13,25.09
		c-0.09,0.06-0.18,0.13-0.28,0.18c-0.67,0.31-1.32-0.28-2.07,0.05c-0.65,0.29-1.49,0.19-2.24,0.2c-0.8,0.02-1.6-0.02-2.4-0.05
		c-0.76-0.03-1.51-0.06-2.27-0.11c-0.76-0.05-1.51-0.13-2.27-0.2c-1.91-0.18-3.81-0.41-5.72-0.54c-1.83-0.12-3.67-0.11-5.5-0.21
		c-1.47-0.08-2.95-0.18-4.41-0.36c-3.38-0.41-6.78-0.41-10.17-0.33c-3,0.07-5.98,0.12-8.98,0.01c-2.51-0.09-5.02,0.17-7.54,0.27
		c-1.29,0.05-2.54,0.38-3.87,0.23c-1.3-0.15-2.64,0.11-3.95,0.02c-2.35-0.15-4.68-0.45-7.03-0.63c-2.27-0.18-4.37-1.08-6.56-1.58
		c-1.21-0.28-2.33-1-3.45-1.59c-0.77-0.41-1.55-0.86-2.21-1.42c-0.81-0.69-1.64-1.43-2.21-2.31c-0.45-0.69-0.5-1.64-0.75-2.46
		c-0.09-0.28-0.24-0.54-0.37-0.8c-0.05-0.09-0.2-0.2-0.18-0.24c0.43-0.94-0.29-1.58-0.59-2.32c-0.15-0.36-0.31-0.72-0.5-1.14
		c-0.31,0.69-0.32,0.69,0.26,2.71c0.26,0.9,0.56,1.79,0.84,2.69c-0.08,0.04-0.15,0.08-0.23,0.12c-0.27-0.44-0.56-0.87-0.79-1.33
		c-0.14-0.28-0.19-0.61-0.3-0.91c-0.92-2.67-1.84-5.34-2.76-8.02c-0.71-2.06-1.26-4.16-1.65-6.3c-0.11-0.62-0.15-1.27-0.68-1.74
		c-0.11-0.09-0.17-0.28-0.17-0.43c-0.06-2.16-0.91-4.16-1.25-6.25c-0.2-1.22-0.57-2.35-1.02-3.49c-0.31-0.79-0.33-1.7-0.49-2.55
		c-0.19-1.01-0.38-2.03-0.61-3.03c-0.1-0.45-0.33-0.86-0.49-1.29c-0.05-0.14-0.17-0.3-0.14-0.43c0.28-1.33-0.39-2.47-0.75-3.67
		c-0.51-1.69-0.92-3.4-1.24-5.14c-0.48-2.54-1.03-5.08-1.59-7.6c-0.63-2.84-1.25-5.67-1.58-8.58c-0.35-3.09-0.84-6.17-1.39-9.24
		c-0.44-2.44-0.48-4.9-0.56-7.36c-0.05-1.71-0.12-3.44,0.06-5.14c0.32-3.07,0.02-6.13,0.2-9.19c0.14-2.27,0.34-4.53,0.51-6.8
		c0.01-0.12,0.04-0.24,0.03-0.36c-0.18-2.68,0.36-5.31,0.64-7.95c0.25-2.3,0.34-4.62,0.51-6.93c0.19-2.51,0.4-5.01,0.61-7.51
		c0.01-0.12,0.06-0.24,0.05-0.35c-0.23-1.82,0.35-3.58,0.37-5.38c0.01-1.07,0.05-2.14,0.08-3.21c0.08-2.51,0.14-5.02,0.25-7.53
		c0.13-2.66,0.36-5.32,0.46-7.99c0.08-2.22,0.02-4.45,0.04-6.67c0.02-3.26,0.07-6.51,0.05-9.77c-0.01-1.35-0.19-2.7-0.27-4.04
		c-0.04-0.71-0.05-1.42,0.02-2.12c0.02-0.26,0.23-0.62,0.46-0.74c1.63-0.83,3.29-1.63,4.95-2.39c1.54-0.71,3.21-0.54,4.84-0.55
		c4.35-0.03,8.71-0.02,13.06,0.02c1.4,0.01,2.79,0.18,4.18,0.19c1.15,0.01,2.3-0.11,3.45-0.14c0.55-0.01,1.1,0.11,1.65,0.08
		c0.87-0.04,1.73-0.19,2.6-0.24c2.15-0.12,4.3-0.19,6.45-0.34c1.27-0.09,2.52-0.3,3.79-0.41c0.63-0.05,1.27,0.02,1.91,0.03
		c2.39,0.02,4.79-0.05,7.17,0.09c1.84,0.11,3.65,0.02,5.47-0.13c0.12-0.01,0.24-0.04,0.36-0.01c1.35,0.34,2.7,0.07,4.04-0.08
		c1.54-0.18,3.05-0.15,4.57,0.14c0.23,0.04,0.48,0.05,0.71,0.04c1.63-0.05,3.27-0.09,4.9-0.17c0.38-0.02,0.76-0.19,1.14-0.29
		c0.22-0.06,0.49-0.21,0.67-0.14c1.3,0.53,2.6-0.1,3.91,0.03c0.3,0.03,0.66-0.07,0.91-0.24c0.98-0.65,1.99-0.79,3.16-0.6
		c0.84,0.13,1.75-0.05,2.6-0.22c2.3-0.47,4.67-0.44,6.94-1.15c0.9-0.28,1.96-0.05,2.95-0.05c0.36,0,0.75,0.12,1.06,0.01
		c0.98-0.33,1.97-0.18,2.96-0.19c1.19-0.01,2.35-0.12,3.51-0.5c0.57-0.19,1.26-0.16,1.86-0.03c1.6,0.33,3.18,0.02,4.76,0.01
		c1.1-0.01,2.17-0.19,3.25-0.64c0.77-0.33,1.8-0.07,2.71-0.06c0.24,0,0.5,0.14,0.7,0.07c1.6-0.55,3.25-0.09,4.87-0.22
		c2.3-0.18,4.62-0.06,6.94-0.08c2.47-0.02,4.94-0.07,7.41-0.09c1.08-0.01,2.16,0.08,3.23,0.02c1.91-0.12,3.81-0.3,5.71-0.5
		c0.82-0.09,1.63-0.33,2.45-0.43c2.04-0.25,4.09-0.04,6.13,0.07c0.6,0.03,1.19,0.07,1.79,0.1c1.63,0.07,3.27,0.15,4.9,0.18
		c0.71,0.01,1.43-0.13,2.14-0.11c2.27,0.04,4.54,0.11,6.81,0.2c2.26,0.09,4.52,0.22,6.78,0.34c0.4,0.02,0.79,0.17,1.18,0.16
		c0.87-0.03,1.73-0.16,2.6-0.17c0.85-0.01,1.74-0.38,2.52,0.3c0.12,0.1,0.38,0.08,0.56,0.05c1.12-0.18,2.16,0.02,3.23,0.43
		c0.74,0.28,1.64,0.27,2.44,0.2c0.56-0.05,1.01,0.06,1.49,0.26c0.59,0.25,1.16,0.55,1.78,0.69c0.44,0.1,0.95,0.04,1.4-0.07
		c0.51-0.12,0.92-0.03,1.36,0.24c0.43,0.26,0.92,0.42,1.38,0.63c0.57,0.26,1.12,0.58,1.71,0.77c0.59,0.2,1.22,0.3,1.84,0.39
		c0.39,0.06,0.8-0.04,1.18,0.06c1.08,0.27,2.13,0.7,3.23,0.88c1.35,0.23,1.85,1.25,2.42,2.23c0.24,0.41,0.41,0.89,0.45,1.36
		c0.04,0.43-0.14,0.89-0.24,1.47c0.5,0.74,0.88,1.68,0.7,2.84c-0.27,0-0.51,0-0.8,0c0.09,0.57,0.17,1,0.8,1.23
		c0.26,0.09,0.44,0.62,0.51,0.98c0.33,1.92,0.54,3.87,0.94,5.78c0.55,2.62,0.58,5.3,1.14,7.91c0.12,0.54,0.05,1.11,0.1,1.67
		c0.09,0.91,0.2,1.81,0.31,2.71c0.16,1.35,0.36,2.69,0.5,4.04c0.22,2.14,0.42,4.28,0.61,6.42c0.12,1.31,0.21,2.62,0.33,3.93
		c0.1,1.07,0.22,2.13,0.36,3.19c0.03,0.22,0.15,0.43,0.29,0.82c0.48-0.89,0.36-1.69,0.36-2.44c-0.01-1.12-0.13-2.23-0.26-3.34
		c-0.11-0.95-0.32-1.89,0.01-2.84c0.09-0.25,0.08-0.58-0.01-0.83c-0.47-1.26-0.3-2.61-0.5-3.9c-0.08-0.5-0.01-1.02-0.01-1.67
		c0.72,0.5,1.16,1.14,1.95,1.13c0.44-1.09,0.43-2.14,0.04-3.35c-0.66,0.66-0.02,1.51-0.61,2.14c-0.42-0.62-0.4-1.28-0.43-1.92
		c-0.07-1.22-0.13-2.45-0.21-3.67c-0.05-0.79-0.08-1.59-0.21-2.36c-0.13-0.74-0.39-1.46-0.59-2.18c-0.11-0.38-0.24-0.77,0.19-1.14
		c0.93,0.81,0.37,2.08,1.06,3.12c-0.07-1.4-0.1-2.66-0.19-3.9c-0.07-0.84-0.36-1.11-1.16-1.17c-0.06-0.33-0.13-0.67-0.21-1.09
		c0.24,0.07,0.38,0.11,0.59,0.17c0.51-1.38,0.11-2.75-0.1-4.1c-0.29-1.89-0.71-3.77-0.95-5.67c-0.17-1.37-0.12-2.78-0.22-4.16
		c-0.07-0.95-0.24-1.89-0.36-2.84c-0.03-0.26-0.06-0.52,0.06-0.84c0.09,0.11,0.23,0.21,0.25,0.33c0.26,1.41,0.51,2.81,0.73,4.23
		c0.29,1.85,0.53,3.71,0.8,5.57c0.08,0.55,0.18,1.1,0.29,1.65c0.57,2.86,1.14,5.72,1.71,8.58c0.05,0.23,0.19,0.48,0.15,0.7
		c-0.36,2.05,0.51,4.03,0.32,6.07c-0.01,0.11,0.01,0.24,0.06,0.35c0.62,1.46,0.29,2.98,0.34,4.48c0.02,0.47,0.05,0.94,0.13,1.41
		c0.18,1.17,0.6,2.32,0.19,3.52c-0.07,0.21,0,0.47,0.04,0.7c0.13,0.86,0.29,1.72,0.41,2.58c0.2,1.46,0.38,2.91,0.54,4.37
		c0.06,0.51,0.03,1.02,0.06,1.53c0.07,1.32-0.25,2.64,0.25,3.97c0.23,0.63,0.53,1.41-0.01,2.16c-0.15,0.21-0.02,0.62-0.03,0.93
		c-0.02,0.59,0.02,1.2-0.09,1.78c-0.09,0.45-0.2,0.82,0.12,1.23c0.14,0.19,0.16,0.53,0.12,0.79c-0.13,1.11-0.3,2.21-0.46,3.32
		c-0.04,0.28-0.1,0.56-0.07,0.83c0.12,1.58,0.26,3.15,0.41,4.73c0.18,1.98,0.3,3.96,0.58,5.93c0.15,1.03,0.27,2.02,0.2,3.07
		c-0.04,0.64,0.3,1.29,0.42,1.95c0.18,0.93,0.34,1.87,0.49,2.81c0.09,0.54,0.32,0.9,1.03,0.73c0.04,0.46,0.06,0.82,0.11,1.45
		c-0.26-0.55-0.4-0.85-0.64-1.39c-0.32,1.01-0.12,1.68,0.23,2.35c0.4-0.19,0.77-0.37,1.15-0.53c0.35-0.15,0.68,0.11,0.59,0.34
		c-0.3,0.78,0.25,1.37,0.31,2.05c0.01,0.08-0.02,0.16-0.03,0.26c-0.2,0.06-0.53,0.06-0.58,0.18c-0.11,0.25-0.08,0.57-0.11,0.97
		c0.41-0.08,0.66-0.13,0.89-0.18c0.47,0.74,0.29,1.36-0.28,1.88c0.37,0.27,0.67,0.49,1.05,0.78c0.07-0.03,0.27-0.11,0.46-0.18
		c0.51,0.53,0.24,1.07,0.14,1.61c-0.07,0.35-0.18,0.62-0.61,0.37c-0.12,0.91-0.12,0.91,0.72,1.01c0.12,0.71,0.25,1.44,0.41,2.32
		c-0.27-0.1-0.45-0.17-0.7-0.26c-0.06,0.47-0.13,0.93-0.16,1.4c-0.01,0.13,0.15,0.39,0.18,0.38c0.62-0.17,0.85,0.27,0.83,0.68
		c-0.02,0.42,0.35,0.68,0.18,1.2c-0.2,0.63-0.23,1.56,0.11,2.05c0.34,0.48,0.05,0.9,0.27,1.26c0.31,0.52-0.11,0.89-0.17,1.32
		c-0.07,0.53,0.13,1.11,0.23,1.83c-0.31,0.23-0.52,0.71-0.25,1.3c0.42,0.92,0.36,1.92,0.5,2.89c0.05,0.36,0,0.65-0.27,1.04
		c-0.47,0.66-0.28,1.53,0.18,2.23c0.57,0.88,0.56,1.78,0.22,2.71c-0.28,0.76-0.64,1.48,0.21,2.15c0.19,0.15,0.16,0.56,0.23,0.84
		c-0.31,0.11-0.52,0.19-0.88,0.32c0.35,0.21,0.56,0.34,0.83,0.5c0,0.48-0.06,0.95-0.3,1.5c-0.3,0.68-0.22,1.53,0.18,2.27
		c0.11,0.21,0.2,0.58,0.1,0.73c-0.56,0.8-0.43,1.72-0.38,2.55c0.14,2.02,0.43,4.04,0.71,6.05c0.17,1.29,0.58,2.52,0.48,3.86
		c-0.07,0.86,0.19,1.75,0.47,2.67c0.12-0.35,0.24-0.69,0.38-1.11c0,0.42,0.07,0.8-0.01,1.13c-0.47,1.93-0.01,3.98-0.84,5.87
		c-0.13,0.3-0.01,0.7-0.02,1.06c-0.02,0.43,0.08,0.89-0.42,1.16c-0.12,0.07-0.16,0.32-0.18,0.49c-0.28,1.85-0.4,3.72-0.99,5.52
		c-0.2,0.62-0.19,1.31-0.34,1.95c-0.23,0.99-0.23,2.04-0.95,2.91c-0.36,0.44-0.6,1-0.51,1.67c0.15,0.98-0.58,1.71-0.89,2.56
		c-0.7,1.86-1.31,3.8-2.64,5.34c-1.08,1.25-2.24,2.44-3.36,3.66c-0.27,0.29-0.55,0.58-0.79,0.89c-0.29,0.37-0.6,0.6-1.06,0.82
		c-0.68,0.31-1.24,0.99-1.7,1.62c-0.56,0.77-1.36,1.09-2.15,1.45c-0.22,0.1-0.55-0.06-0.61-0.07c-0.76,0.33-1.36,0.6-1.97,0.86
		c-0.07,0.03-0.17,0.04-0.22,0.1c-0.64,0.7-1.53,0.71-2.37,0.92c-2.04,0.52-4.05,1.13-6.04,1.82c-2.36,0.82-4.8,1.18-7.24,1.57
		c-1.93,0.3-3.87,0.58-5.81,0.8c-1.11,0.12-2.24,0.07-3.35,0.14c-1.14,0.07-2.32-0.04-3.32,0.73c-0.2,0.16-0.53,0.21-0.8,0.2
		c-1.96-0.08-3.88,0.21-5.82,0.47c-1.52,0.2-3.1-0.08-4.65-0.15c-0.44-0.02-0.88-0.09-1.31-0.07c-3.47,0.15-6.93,0.34-10.4,0.48
		c-2.1,0.08-4.2,0.07-6.3,0.14c-3.47,0.1-6.94,0.2-10.4,0.36c-1.46,0.07-2.9,0.55-4.53,0.22c-0.03-0.5-0.06-1.04-0.09-1.58
		c-0.03-0.52-0.01-1.04-0.08-1.54c-0.37-2.54-0.84-5.07-1.13-7.62c-0.29-2.61-0.39-5.25-0.6-7.87c-0.07-0.82-0.14-1.67-0.37-2.45
		c-0.17-0.58-0.09-1,0.29-1.37c-0.76-1.46-0.84-3.02-0.97-4.55c-0.17-2.01-0.2-4.03-0.28-6.05c-0.01-0.28-0.02-0.57,0.04-0.84
		c0.36-1.65,0.15-3.31,0.04-4.96c-0.02-0.29-0.08-0.48,0.31-0.63c0.2-0.08,0.44-0.67,0.35-0.78c-0.46-0.58-0.32-1.23-0.35-1.86
		c-0.03-0.63-0.14-1.26-0.1-1.88c0.17-2.23,0.59-4.46,0.51-6.67c-0.05-1.38,0.63-2.42,0.8-3.78c0.6-0.06,1.18-0.17,1.76-0.17
		c2.52,0.01,5.01-0.15,7.49-0.61c0.97-0.18,1.97-0.48,3.02,0.05c0.44,0.22,1.24-0.06,1.78-0.32c0.94-0.46,1.88-0.49,2.88-0.42
		c0.69,0.05,1.39-0.1,2.1-0.17c0.17,0.34,0.33,0.64,0.53,1.05c1.33-0.97,2.28-2.75,4.31-1.75c0.29-0.48,0.54-0.89,0.8-1.32
		c0.23,0,0.47,0,0.72,0c0.01-0.06,0.01-0.11,0.02-0.17c-0.26-0.05-0.52-0.1-0.88-0.17c0.38-0.62,0.68-1.14,1.42-1.2
		c0.33-0.03,0.56-0.16,0.64-0.57c0.04-0.23,0.33-0.44,0.54-0.61c1.03-0.87,2.07-1.73,3.11-2.58c0.21-0.17,0.5-0.26,0.71-0.43
		c0.26-0.21,0.54-0.44,0.73-0.71c0.52-0.76,1.03-1.5,1.97-1.84c0.3-0.11,0.66-0.4,0.76-0.69c0.2-0.61,0.64-0.96,1.09-1.35
		c0.8-0.7,1.51-1.52,2.93-1.11c-0.33-0.88,0.02-1.31,0.46-1.66c0.43-0.35,0.91-0.64,1.44-1.01c-0.77-0.43-1.48-1-1.03-2.11
		c0.28,0,0.6,0.07,0.88-0.02c0.29-0.09,0.53-0.34,0.79-0.52c-0.25-0.6-0.25-0.6-1.5-0.85c0.14-0.21,0.23-0.43,0.38-0.56
		c0.25-0.21,0.48-0.37,0.41-0.78c-0.03-0.17,0.16-0.47,0.33-0.56c0.69-0.38,1.41-0.7,2.18-1.08c-0.61-0.64,0.38-0.89,0.45-1.44
		c-0.52-0.55-0.93-0.01-1.37,0.17c0.13-0.82,0.5-1.24,1.43-0.99c-0.1-0.38-0.09-0.76-0.25-0.87c-0.77-0.49-0.46-0.87,0.04-1.29
		c0.12-0.1,0.2-0.23,0.23-0.26c-0.29-0.54-0.53-1-0.79-1.49c-0.36,0.04-0.45,0.25-0.33,0.65c0.18,0.56-0.27,0.75-0.64,0.71
		c-0.47-0.05-0.93-0.3-1.63-0.56c1.34-0.93,2.38-1.8,3.73-2.26c-0.19,0.02-0.38,0.03-0.56,0.06c-0.54,0.08-1.12,0.25-1.48-0.36
		c-0.34-0.57-0.09-1.05,0.32-1.48c0.05-0.05,0.07-0.14,0.13-0.25c-0.34-0.16-0.69-0.33-1.03-0.49c-0.05-0.11-0.09-0.22-0.14-0.33
		c0.39-0.14,0.77-0.28,1.17-0.43c-0.54-0.6-0.89-0.64-1.21-0.43c-0.68,0.44-1.01,0.12-1.28-0.52c0.13-0.06,0.24-0.09,0.32-0.15
		c0.9-0.65,1.72-0.95,2.65,0.05C214.65,145.68,215.4,145.47,215.9,145.47c-0.46,0.24-0.93,0.47-1.5,0.76
		c0.26,0.04,0.41,0.07,0.56,0.09c0.12,0.02,0.23,0.03,0.35,0.03C215.99,146.38,216.08,146.23,215.9,145.47z M133.39,205.03
		c0.48-0.42,0.33-0.88,0-1.35C133.4,204.13,133.4,204.58,133.39,205.03c0.13,0.51,0.25,1.01,0.42,1.69
		C134.18,205.58,134.11,205.39,133.39,205.03z M123.03,150.95c0.92,0.48,2.43,0.1,3.35-0.8
		C125.21,150.43,124.2,150.67,123.03,150.95z M251.52,101.17c-0.6,0.47-0.32,1.08-0.24,1.62c0.02,0.15,0.38,0.24,0.62,0.39
		C252.05,102.06,252.05,102.06,251.52,101.17z M252.17,80.8c0.76-0.75,0.75-1.36,0-2.67C252.17,79.1,252.17,79.85,252.17,80.8z
		 M134.23,210.41c0.4-0.69,0.15-2.41-0.4-2.99C133.96,208.42,134.1,209.42,134.23,210.41z M262.79,199.69
		c0.12,0.04,0.23,0.08,0.35,0.13c-0.02-1.07,0.71-2.01,0.58-3.11c-0.08-0.02-0.16-0.03-0.24-0.05
		C263.25,197.67,263.02,198.68,262.79,199.69z M251.86,107.47c-0.43,0.63-0.47,0.97-0.21,1.83
		C252.31,108.77,252.32,108.67,251.86,107.47z M258.58,138.77c-0.38,0.97-0.24,2.49,0.23,3.18c0.41-0.61-0.24-1.04-0.23-1.56
		C258.59,139.85,258.58,139.31,258.58,138.77z M251.88,120.55c0.43-0.71,0.31-1.83-0.12-2.49
		C251.8,118.89,251.84,119.72,251.88,120.55z M246.92,69.74c-0.25,1.19-0.24,1.21,0.77,1.74C247.41,70.85,247.21,70.4,246.92,69.74z
		 M133.41,221.58c-0.13-0.87-0.24-1.56-0.35-2.29C132.88,220.07,132.69,220.79,133.41,221.58z M216.99,148.59
		c-0.54,0.09-1.06,0.17-1.74,0.28C216.6,149.43,216.94,149.36,216.99,148.59z M264.79,191.21c-0.54,1.09-0.54,1.09-0.26,2.07
		C264.71,192.55,265.17,192.05,264.79,191.21z M251.74,115.26c0.13,0.56-0.67,1.05-0.05,1.76
		C252.15,116.39,251.85,115.82,251.74,115.26z M134.14,230.17c0.05-0.01,0.1-0.02,0.15-0.04c-0.09-0.36-0.18-0.73-0.26-1.09
		c-0.05,0.01-0.09,0.02-0.14,0.03C133.97,229.44,134.06,229.8,134.14,230.17z M254.33,123.89c0.09,0,0.18,0.01,0.26,0.01
		c0.25-0.45-0.11-0.83-0.26-1.24C254.33,123.06,254.33,123.47,254.33,123.89z M258.24,136.93c0,0.47,0,0.78,0,1.28
		C258.62,137.71,258.77,137.39,258.24,136.93z M217.74,149.9c-0.7-0.27-0.7-0.27-1.17,0.29C217.06,150.07,217.4,149.98,217.74,149.9
		z M132.66,195.87c-0.04,0-0.08,0-0.12,0.01c0,0.32,0,0.64,0,0.96c0.05,0,0.11-0.01,0.16-0.01
		C132.69,196.51,132.67,196.19,132.66,195.87z M134.5,232.01c-0.11,0.02-0.23,0.03-0.34,0.05c0.06,0.27,0.12,0.53,0.2,0.8
		c0,0.02,0.12,0,0.26,0C134.58,232.58,134.54,232.3,134.5,232.01z M253.58,95.63c0.06,0,0.11-0.01,0.17-0.01c0-0.3,0-0.6,0-0.9
		c-0.08,0.01-0.16,0.01-0.24,0.02C253.53,95.03,253.55,95.33,253.58,95.63z M252.25,87.77c-0.19-0.16-0.3-0.25-0.4-0.34
		c-0.08,0.12-0.19,0.23-0.23,0.36c-0.02,0.06,0.13,0.23,0.19,0.22C251.93,87.99,252.04,87.89,252.25,87.77z M253.5,92.98
		c-0.06,0.01-0.12,0.01-0.18,0.02c0.03,0.24,0.06,0.48,0.09,0.72c0.06-0.01,0.12-0.02,0.18-0.02
		C253.55,93.46,253.53,93.22,253.5,92.98z M214.76,107.03c-0.19-0.08-0.32-0.18-0.4-0.16c-0.13,0.04-0.23,0.16-0.34,0.25
		c0.09,0.1,0.18,0.28,0.27,0.29C214.39,107.41,214.5,107.25,214.76,107.03z M264.17,194.77c0.08-0.13,0.21-0.26,0.18-0.3
		c-0.06-0.1-0.19-0.16-0.29-0.24c-0.04,0.1-0.12,0.2-0.11,0.29C263.96,194.6,264.07,194.66,264.17,194.77z M259.34,137.59
		c0.09-0.14,0.19-0.22,0.19-0.3c-0.01-0.08-0.12-0.16-0.18-0.23c-0.06,0.08-0.17,0.15-0.18,0.23
		C259.15,137.36,259.25,137.45,259.34,137.59z M214.09,158.49c-0.15,0.43-0.23,0.66-0.36,1.03
		C214.23,159.31,214.5,159.16,214.09,158.49z M189.17,144.85c0-0.05,0-0.11-0.01-0.16c-0.23,0.02-0.47,0.03-0.7,0.05
		c0,0.04,0,0.07,0.01,0.11C188.7,144.85,188.93,144.85,189.17,144.85z"></path>
	<path class="st0" d="M129.02,254.38c0.13-0.24,0.2-0.43,0.25-0.43c1.13,0.06,2.19-0.46,3.32-0.4c1.15,0.06,2.32,0.13,3.46,0.04
		c1.91-0.15,3.79,0.44,5.7,0.17c0.21-0.03,0.46,0.07,0.66,0.17c0.4,0.2,0.74,0.23,1.07-0.15c0.11-0.12,0.41-0.24,0.51-0.18
		c1.1,0.67,2.24,0.12,3.36,0.12c1.18-0.01,2.36-0.03,3.55-0.08c1.33-0.06,2.66-0.1,3.99-0.24c0.49-0.05,0.94-0.35,1.46-0.56
		c0.13,0.29,0.23,0.49,0.28,0.61c3.9,0.13,7.72-0.65,11.64-0.48c-0.03,0.61-0.39,0.74-0.8,0.76c-0.73,0.05-1.46,0.06-2.19,0.11
		c-1.51,0.1-3.02,0.22-4.54,0.33c-3.42,0.23-6.84,0.48-10.26,0.68c-0.94,0.05-1.89-0.16-2.82-0.05c-2.27,0.27-4.53-0.03-6.79-0.06
		c-3.75-0.06-7.5-0.17-11.24-0.26C129.47,254.47,129.32,254.43,129.02,254.38z"></path>
	<path class="st0" d="M179.56,84.26c0.14-1.01,0.4-1.28,1.26-1.44c1.63-0.3,3.26-0.63,4.9-0.89c1.16-0.19,2.33-0.28,3.51-0.34
		C186.18,82.91,182.93,83.55,179.56,84.26z"></path>
	<path class="st0" d="M182.42,252.56c-2.08,0.68-4.05,1.01-6.11,0.59c-0.79-0.16-1.63-0.28-2.46,0.12
		c-0.54,0.25-1.14,0.03-1.94-0.36c0.46-0.2,0.84-0.47,0.93-0.4c0.73,0.63,1.46-0.23,2.16,0.05c1.53-0.6,3.13-0.21,4.7-0.34
		c0.74-0.06,1.5,0.02,2.24,0.07C182.07,252.29,182.19,252.42,182.42,252.56z"></path>
	<path class="st0" d="M215.53,25.77c-0.49,0.11-0.99,0.33-1.48,0.31c-2.61-0.13-5.21-0.34-7.82-0.5c-0.59-0.04-1.18,0.02-1.77-0.02
		c-0.16-0.01-0.31-0.22-0.41-0.57c0.33-0.02,0.66-0.07,0.99-0.06c2.14,0.11,4.28,0.23,6.43,0.34c0.99,0.05,1.97,0.07,2.95,0.16
		c0.37,0.03,0.72,0.24,1.08,0.36C215.52,25.8,215.53,25.77,215.53,25.77z"></path>
	<path class="st0" d="M169.99,87.51c1.39,0.43,1.93,0.2,2.83-1.16c0.15-0.22,0.66-0.42,0.89-0.33c0.63,0.23,1.07-0.07,1.58-0.29
		c0.53-0.23,1.08-0.41,1.62-0.61c0.04,0.08,0.09,0.15,0.13,0.23c-0.13,0.14-0.24,0.35-0.4,0.42c-2.06,0.93-4.12,1.85-6.18,2.76
		c-0.77,0.34-1.52,0.7-2.3,1c-0.25,0.1-0.56,0.04-0.84,0.06c-0.02-0.08-0.04-0.15-0.06-0.23C168.15,88.76,169.05,88.15,169.99,87.51
		z"></path>
	<path class="st0" d="M107.53,29.23c2.85-0.16,5.7-0.31,8.74-0.48c-0.9,0.71-1.69,0.87-4.44,0.91c-1.44,0.03-2.87,0-4.31,0
		C107.53,29.52,107.53,29.37,107.53,29.23z"></path>
	<path class="st0" d="M206.16,110.86c-0.13,0.15-0.19,0.29-0.28,0.32c-1.02,0.33-2.06,0.48-3.1,0.12c-0.18-0.06-0.42-0.34-0.39-0.47
		c0.04-0.23,0.29-0.61,0.42-0.59C203.9,110.37,205.12,109.89,206.16,110.86z"></path>
	<path class="st0" d="M93,255.11c0.61-0.06,1.21-0.12,2.08-0.2c-0.32,0.3-0.43,0.41-0.65,0.62c1.2,0.12,2.28,0.22,3.45,0.33
		c-1.04,0.61-3.96,0.44-5.35-0.26c0.1-0.25,0.75,0.04,0.51-0.53C93.03,255.08,93,255.11,93,255.11z"></path>
	<path class="st0" d="M124.55,28.21c-0.66,0.93-1.53,1.04-2.15,0.94c-1.23-0.19-2.37,0.01-3.55,0.23c-0.06,0.01-0.14-0.05-0.33-0.12
		c0.12-0.18,0.21-0.46,0.33-0.47C120.66,28.59,122.47,28.41,124.55,28.21z"></path>
	<path class="st0" d="M91.32,29.67c-0.3,0.03-0.59,0.09-0.89,0.1c-2.21,0.11-4.42,0.22-6.63,0.26
		C84.51,29.58,89.92,29.22,91.32,29.67z"></path>
	<path class="st0" d="M113.96,257.33c1.56,0.21,2.94-0.44,4.44,0.17C115.41,258.01,114.92,258,113.96,257.33z"></path>
	<path class="st0" d="M258.92,107.4c-0.29-1.42-0.23-2.84-0.01-4.36c0.19,0.25,0.32,1.37,0.31,2.23c0,0.71,0,1.42,0,2.13
		C259.12,107.4,259.02,107.4,258.92,107.4z"></path>
	<path class="st0" d="M249.79,64.61c0.2,0.95,0.41,1.9,0.63,2.94C249.44,66.56,249.37,66.3,249.79,64.61z"></path>
	<path class="st0" d="M192.35,77.38c0.4-0.77,0.64-0.83,2.39-0.52C193.89,77.23,193.22,77.69,192.35,77.38z"></path>
	<path class="st0" d="M94.14,29.4c-0.82,0.72-1.11,0.7-1.94-0.09C92.98,29.35,93.56,29.37,94.14,29.4z"></path>
	<path class="st0" d="M94.89,256.75c-1.06-0.09-2.12-0.18-3.19-0.27c0.01-0.08,0.01-0.17,0.02-0.25c1.09-0.17,2.12,0.22,3.19,0.27
		C94.91,256.59,94.9,256.67,94.89,256.75z"></path>
	<path class="st0" d="M276.36,128.46c-1.02-0.32-1.05-0.42-0.69-1.85C275.95,127.34,276.16,127.9,276.36,128.46z"></path>
	<path class="st0" d="M98.34,256.86c-0.68,0-1.36,0-2.05-0.01c-0.09,0-0.19-0.08-0.26-0.31c0.39,0.04,0.77,0.09,1.16,0.12
		c0.38,0.03,0.76,0.05,1.14,0.07C98.34,256.78,98.34,256.82,98.34,256.86z"></path>
	<path class="st0" d="M198.92,145.7c-0.62-0.12-0.98-0.18-1.34-0.25c-0.01-0.08-0.02-0.17-0.03-0.25c0.34-0.13,0.67-0.25,1.09-0.41
		C198.73,145.06,198.79,145.26,198.92,145.7z"></path>
	<path class="st0" d="M109.2,257.37c0.84,0.05,1.68,0.1,2.63,0.16c-0.96,0-1.8,0-2.64,0C109.19,257.47,109.19,257.42,109.2,257.37z"></path>
	<path class="st0" d="M275.9,126.15c-0.57-0.68-0.48-1.34-0.1-2.22C275.84,124.78,275.87,125.43,275.9,126.15z"></path>
	<path class="st0" d="M106.07,256.96c0.66,0.07,1.33,0.14,1.99,0.21c-0.72,0.45-1.36,0.11-2.03,0.1
		C106.05,257.17,106.06,257.07,106.07,256.96z"></path>
	<path class="st0" d="M46.71,251.38c0.39,0.21,0.79,0.42,1.18,0.63c-0.67,0.38-1.07,0.18-1.35-0.3
		C46.6,251.6,46.66,251.49,46.71,251.38z"></path>
	<path class="st0" d="M197.61,146c-0.63,0.19-1.12,0.67-1.59-0.27C196.57,145.9,197.02,145.39,197.61,146z"></path>
	<path class="st0" d="M170.1,252.64c-0.03,0.77-0.03,0.77-1.17,0.86C169.37,253.18,169.66,252.97,170.1,252.64z"></path>
	<path class="st0" d="M196.33,145.12c-0.46,0.19-0.92,0.38-1.38,0.57c-0.04-0.1-0.09-0.21-0.13-0.31c0.45-0.2,0.9-0.4,1.35-0.59
		C196.22,144.9,196.27,145.01,196.33,145.12z"></path>
	<path class="st0" d="M265.24,186.57c0.04-0.27,0.1-0.54,0.11-0.81c0.02-0.3,0-0.61,0.12-0.91c0,0.58,0,1.16,0,1.74
		C265.4,186.59,265.32,186.58,265.24,186.57z"></path>
	<path class="st0" d="M274.41,98.37c0.05,0.66,0.07,1.06,0.1,1.45C274.25,99.44,273.74,99.1,274.41,98.37z"></path>
	<path class="st0" d="M60.11,253.75c-0.5,0-1,0-1.5,0c0-0.07,0-0.13,0.01-0.2c0.5,0.02,0.99,0.04,1.49,0.07
		C60.11,253.67,60.11,253.71,60.11,253.75z"></path>
	<path class="st0" d="M102.28,256.82c-0.36,0-0.72,0-1.24,0C101.58,256.38,101.93,256.68,102.28,256.82z"></path>
	<path class="st0" d="M250.92,83.21c0,0.41,0,0.83,0,1.24c-0.04,0-0.07,0.01-0.11,0.01c0-0.41,0-0.83,0-1.24
		C250.85,83.22,250.88,83.21,250.92,83.21z"></path>
	<path class="st0" d="M137.18,195.62c-0.02,0.43-0.05,0.85-0.07,1.28c-0.03,0-0.05,0-0.08,0c-0.03-0.42-0.06-0.84-0.09-1.27
		C137.03,195.63,137.11,195.62,137.18,195.62z"></path>
	<path class="st0" d="M191.42,146.24c0.3,0.04,0.61,0.07,0.91,0.11c-0.01,0.09-0.01,0.19-0.02,0.28c-0.31-0.03-0.61-0.07-0.92-0.1
		C191.4,146.43,191.41,146.34,191.42,146.24z"></path>
	<path class="st0" d="M113.61,257.74c-0.27,0.03-0.54,0.07-0.82,0.1c-0.01-0.11-0.03-0.21-0.04-0.32c0.27-0.04,0.54-0.07,0.81-0.11
		C113.58,257.52,113.6,257.63,113.61,257.74z"></path>
	<path class="st0" d="M22.6,215c0-0.3,0-0.61,0-0.93c0.56,0.61,0.56,0.61-0.04,0.9C22.56,214.97,22.6,215,22.6,215z"></path>
	<path class="st0" d="M209.37,109.72c0.36,0,0.73,0,1.3,0C210.1,110.09,209.74,110.01,209.37,109.72z"></path>
	<path class="st0" d="M167.69,87.52c0.18-0.12,0.36-0.25,0.54-0.37c0.05,0.07,0.1,0.15,0.15,0.22c-0.18,0.12-0.36,0.24-0.54,0.37
		C167.79,87.67,167.74,87.59,167.69,87.52z"></path>
	<path class="st0" d="M216.96,97.32c0.2-0.01,0.39-0.03,0.59-0.04c0.01,0.07,0.01,0.14,0.02,0.21c-0.2,0.02-0.39,0.03-0.59,0.05
		C216.97,97.46,216.96,97.39,216.96,97.32z"></path>
	<path class="st0" d="M124.28,257.25c-0.26,0.01-0.52,0.03-0.79,0.04c-0.01-0.09-0.02-0.19-0.03-0.28c0.28-0.02,0.56-0.04,0.83-0.05
		C124.29,257.05,124.28,257.15,124.28,257.25z"></path>
	<path class="st0" d="M24.05,218.41c0.08,0.27,0.15,0.53,0.23,0.8c-0.06,0.02-0.13,0.04-0.19,0.07c-0.09-0.25-0.19-0.5-0.28-0.75
		C23.89,218.49,23.97,218.45,24.05,218.41z"></path>
	<path class="st0" d="M135.11,192.92c0.01-0.21,0.02-0.42,0.03-0.62c0.1,0.02,0.19,0.04,0.29,0.06c-0.06,0.2-0.11,0.39-0.17,0.59
		C135.21,192.94,135.16,192.93,135.11,192.92z"></path>
	<path class="st0" d="M121.93,257.25c0.22-0.04,0.44-0.09,0.65-0.13c0.01,0.05,0.02,0.1,0.03,0.15c-0.22,0.02-0.45,0.04-0.67,0.06
		C121.94,257.31,121.94,257.28,121.93,257.25z"></path>
	<path class="st0" d="M194,112.4c0.2-0.01,0.4-0.03,0.6-0.04c0,0.04,0.01,0.08,0.01,0.12c-0.2,0.03-0.39,0.06-0.59,0.1
		C194.01,112.51,194.01,112.45,194,112.4z"></path>
	<path class="st0" d="M167,242.62c0.11-0.13,0.22-0.26,0.33-0.39c0.05,0.04,0.11,0.08,0.16,0.11c-0.09,0.15-0.18,0.31-0.27,0.46
		C167.14,242.74,167.07,242.68,167,242.62z"></path>
	<path class="st0" d="M210.49,147.4c-0.07-0.16-0.16-0.27-0.14-0.34c0.03-0.07,0.16-0.11,0.26-0.13c0.05-0.01,0.11,0.07,0.16,0.11
		C210.72,147.12,210.67,147.19,210.49,147.4z"></path>
	<path class="st0" d="M22.44,212.42c0.05,0.19,0.1,0.37,0.15,0.56c-0.07,0.02-0.14,0.04-0.2,0.06c-0.06-0.18-0.12-0.37-0.18-0.55
		C22.29,212.47,22.37,212.45,22.44,212.42z"></path>
	<path class="st0" d="M221.42,234.59c-0.11,0.1-0.18,0.21-0.25,0.22c-0.09,0-0.17-0.09-0.26-0.14c0.06-0.08,0.11-0.2,0.18-0.22
		C221.17,234.44,221.27,234.52,221.42,234.59z"></path>
	<path class="st0" d="M267.93,220.09c-0.05,0.13-0.09,0.25-0.15,0.38c0,0-0.1-0.03-0.1-0.03c0.03-0.13,0.06-0.26,0.09-0.39
		C267.83,220.06,267.88,220.07,267.93,220.09z"></path>
	<path class="st0" d="M137.01,198.9c0-0.23,0-0.46,0-0.68c0.05,0,0.11,0,0.16,0.01c-0.01,0.23-0.03,0.45-0.04,0.68
		C137.09,198.9,137.05,198.9,137.01,198.9z"></path>
	<path class="st0" d="M175.83,132.68c-0.05,0.13-0.08,0.27-0.16,0.39c-0.05,0.08-0.15,0.12-0.45,0.35c0.25-0.43,0.36-0.62,0.47-0.8
		C175.74,132.64,175.78,132.66,175.83,132.68z"></path>
	<path class="st0" d="M115.94,188.68c0.06,0.03,0.11,0.07,0.17,0.1c-0.04,0.05-0.08,0.13-0.12,0.13c-0.06,0-0.11-0.06-0.17-0.09
		C115.86,188.77,115.9,188.73,115.94,188.68z"></path>
	<path d="M123.03,150.95c1.17-0.28,2.18-0.52,3.35-0.8C125.46,151.05,123.95,151.43,123.03,150.95z"></path>
	<path d="M251.52,101.17c0.52,0.89,0.52,0.89,0.38,2.01c-0.25-0.15-0.6-0.25-0.62-0.39C251.2,102.26,250.92,101.65,251.52,101.17z"></path>
	<path d="M252.17,80.8c0-0.95,0-1.7,0-2.67C252.92,79.44,252.93,80.05,252.17,80.8z"></path>
	<path d="M134.23,210.41c-0.13-1-0.27-1.99-0.4-2.99C134.38,208,134.63,209.72,134.23,210.41z"></path>
	<path d="M262.79,199.69c0.23-1.01,0.46-2.02,0.68-3.03c0.08,0.02,0.16,0.03,0.24,0.05c0.13,1.1-0.59,2.03-0.58,3.11
		C263.03,199.78,262.91,199.73,262.79,199.69z"></path>
	<path d="M251.86,107.47c0.45,1.2,0.44,1.3-0.21,1.83C251.39,108.44,251.43,108.1,251.86,107.47z"></path>
	<path d="M258.58,138.77c0,0.54,0,1.08,0,1.62c-0.01,0.52,0.64,0.95,0.23,1.56C258.34,141.26,258.2,139.74,258.58,138.77z"></path>
	<path d="M251.88,120.55c-0.04-0.83-0.08-1.66-0.12-2.49C252.19,118.72,252.3,119.84,251.88,120.55z"></path>
	<path d="M246.92,69.74c0.29,0.66,0.49,1.1,0.77,1.74C246.68,70.96,246.67,70.93,246.92,69.74z"></path>
	<path d="M133.41,221.58c-0.72-0.79-0.54-1.52-0.35-2.29C133.18,220.03,133.28,220.71,133.41,221.58z"></path>
	<path d="M216.99,148.59c-0.05,0.77-0.39,0.84-1.74,0.28C215.93,148.76,216.46,148.68,216.99,148.59z"></path>
	<path d="M264.79,191.21c0.38,0.84-0.08,1.34-0.26,2.07C264.25,192.3,264.25,192.3,264.79,191.21z"></path>
	<path d="M251.74,115.26c0.11,0.55,0.41,1.12-0.05,1.76C251.07,116.31,251.87,115.82,251.74,115.26z"></path>
	<path d="M215.9,145.47c0.18,0.76,0.09,0.9-0.58,0.88c-0.12,0-0.24-0.02-0.35-0.03c-0.15-0.02-0.3-0.05-0.56-0.09
		C214.97,145.94,215.43,145.71,215.9,145.47C215.91,145.48,215.9,145.47,215.9,145.47z"></path>
	<path d="M133.38,205.04c0.73,0.35,0.8,0.55,0.43,1.69c-0.17-0.68-0.29-1.18-0.41-1.69L133.38,205.04z"></path>
	<path d="M134.14,230.17c-0.08-0.36-0.17-0.73-0.25-1.09c0.05-0.01,0.09-0.02,0.14-0.03c0.09,0.36,0.18,0.73,0.26,1.09
		C134.24,230.15,134.19,230.16,134.14,230.17z"></path>
	<path d="M254.33,123.89c0-0.41,0-0.82,0-1.23c0.16,0.41,0.51,0.79,0.26,1.24C254.51,123.89,254.42,123.89,254.33,123.89z"></path>
	<path d="M258.24,136.93c0.53,0.46,0.38,0.78,0,1.28C258.24,137.71,258.24,137.4,258.24,136.93z"></path>
	<path d="M217.74,149.9c-0.34,0.09-0.68,0.17-1.17,0.29C217.04,149.62,217.04,149.62,217.74,149.9z"></path>
	<path d="M132.66,195.87c0.01,0.32,0.03,0.64,0.04,0.95c-0.05,0-0.11,0.01-0.16,0.01c0-0.32,0-0.64,0-0.96
		C132.58,195.88,132.62,195.87,132.66,195.87z"></path>
	<path d="M134.5,232.01c0.04,0.28,0.08,0.56,0.11,0.85c-0.14,0-0.25,0.01-0.26,0c-0.07-0.26-0.13-0.53-0.2-0.8
		C134.27,232.05,134.39,232.03,134.5,232.01z"></path>
	<path d="M253.58,95.63c-0.03-0.3-0.05-0.59-0.08-0.89c0.08-0.01,0.16-0.01,0.24-0.02c0,0.3,0,0.6,0,0.9
		C253.69,95.62,253.63,95.62,253.58,95.63z"></path>
	<path d="M252.25,87.77c-0.21,0.12-0.32,0.22-0.45,0.24c-0.05,0.01-0.2-0.16-0.19-0.22c0.04-0.13,0.15-0.24,0.23-0.36
		C251.95,87.51,252.05,87.6,252.25,87.77z"></path>
	<path d="M133.4,205.04c0-0.45,0-0.9,0-1.36C133.73,204.15,133.88,204.61,133.4,205.04C133.38,205.04,133.4,205.04,133.4,205.04z"></path>
	<path d="M253.5,92.98c0.03,0.24,0.05,0.48,0.08,0.72c-0.06,0.01-0.12,0.02-0.18,0.02c-0.03-0.24-0.06-0.48-0.09-0.72
		C253.38,93,253.44,92.99,253.5,92.98z"></path>
	<path d="M214.76,107.03c-0.26,0.22-0.37,0.38-0.47,0.38c-0.09,0-0.18-0.18-0.27-0.29c0.11-0.09,0.21-0.21,0.34-0.25
		C214.44,106.85,214.57,106.95,214.76,107.03z"></path>
	<path d="M264.17,194.77c-0.09-0.11-0.2-0.17-0.21-0.25c-0.01-0.09,0.07-0.19,0.11-0.29c0.1,0.08,0.22,0.14,0.29,0.24
		C264.37,194.51,264.25,194.64,264.17,194.77z"></path>
	<path d="M259.34,137.59c-0.09-0.14-0.18-0.23-0.18-0.31c0.01-0.08,0.12-0.15,0.18-0.23c0.07,0.08,0.18,0.15,0.18,0.23
		C259.53,137.37,259.43,137.46,259.34,137.59z"></path>
	<path d="M214.09,158.49c0.41,0.68,0.14,0.82-0.36,1.03C213.86,159.15,213.94,158.92,214.09,158.49z"></path>
	<path d="M189.17,144.85c-0.23,0-0.47,0-0.7,0c0-0.04,0-0.07-0.01-0.11c0.23-0.02,0.47-0.03,0.7-0.05
		C189.16,144.74,189.16,144.8,189.17,144.85z"></path>
</g>
</svg>
