<svg version="1.1" id="Vrstva_1" xmlns="http://www.w3.org/2000/svg" x="0" y="0" viewBox="0 0 285.24 285.24" style="enable-background:new 0 0 285.24 285.24" xml:space="preserve"><style>.st0{fill:#fff}</style><path d="M215.53 25.77c.3.17.58.43.9.49.86.15 1.73.24 2.6.32 2.01.19 4.03.36 6.04.55 1.59.16 3.18.31 4.75.54.68.1 1.08-.01 1.17-.89l3.52.53v.8c1.04.38 2.01 1.03 3.45.7-.52-.37-.88-.63-1.31-.94.82-.61 1.72-.41 2.43-.18 1.76.56 3.61.6 5.35 1.17 1.93.64 3.97.86 5.82 1.76.45.22 1 .26 1.51.34.61.09 1.07.28 1.1 1.01.01.26.14.54.28.77.55.91 1.13 1.81 1.69 2.72.08.13.17.3.16.44-.08 1.15.73 1.74 1.44 2.42.91.86 1.97 1.46 3.15 1.86.4.14.56.41.49.83-.08.48-.13.95.44 1.33.08-.15.2-.28.2-.4-.02-.79-.09-1.58-.1-2.37 0-1.19.41-1.4 1.45-.8.07.04.15.05.32.1v-1.26c.86-.49.77.54 1.3.78.06-.68.12-1.33.17-1.99.09-.02.17-.03.26-.05.22.33.45.66.7 1.03.17-.35.32-.66.49-1 .29.08.55.15.83.22.32-.56.39-1.29 1.13-1.48 1.34.97 1.36 1.06 1.46 2.54.07 1.07.25 2.13.37 3.2.05.44.05.88.1 1.31.08.63.12 1.28.31 1.88.41 1.3.63 2.6.63 3.98 0 1.14.27 2.29.43 3.43.07.51.19 1.02.23 1.54.05.8.08 1.59.55 2.3.16.24.14.61.2.92.16.78.34 1.56.48 2.34.06.34.07.69.09 1.03.04.87 0 1.75.14 2.6.18 1.02.51 2.02.29 3.07-.02.12-.04.25 0 .36.73 2.61.08 5.35.77 7.96.05.19.09.41.05.59-.41 2 .17 3.98.12 5.97-.03 1.11-.07 2.26.21 3.31.28 1.05.03 2 .02 3-.01 1.23-.14 2.51.74 3.62.27.34.18.95.06 1.48-.09-.18-.17-.37-.3-.63-.49.98.09 1.77.23 2.6.12.73.29 1.45.4 2.18.07.44.06.9.1 1.52-.04.03-.25.14-.38.22.18.43.41.74.42 1.05.04 1.31 0 2.62.02 3.93.03 1.63.12 3.26.13 4.88.01 1.85.17 3.7-.09 5.55-.01.08-.01.17-.06.22-.59.74-.48 1.58-.34 2.42.14.85.24 1.71.39 2.56.03.15.23.27.34.41.15.21.29.43.29.78-.14-.13-.28-.25-.6-.54.03.67.06 1.17.09 1.81.28-.16.44-.25.59-.35.43 1.14.35 1.71-.41 2.55.98.22.89 1.12 1.07 1.78.22.79.18 1.66.25 2.49.11 1.25.16 2.5.35 3.73.23 1.56.2 3.11.07 4.67-.03.37-.39.71-.67 1.18-.07.86 1.03.69 1.42 1.29-.74 1.07-.44 2.33-.44 3.5 0 1.61.3 3.21.39 4.82.09 1.71.36 3.48.04 5.13-.26 1.31.14 2.48.07 3.71-.03.53-.12 1.06-.21 1.78.08.1.29.38.54.71-.42.59-.57 1.28-.16 1.87.68.99.44 2.1.21 3.02-.28 1.13-.06 2.09.21 3.12l-.04-.04c0 .2.05.42-.02.59-.63 1.62-.44 3.26-.27 4.92.06.58-.09 1.18-.13 1.78-.11 1.66-.22 3.33-.32 4.99-.02.28-.01.56-.01.83 0 1.31.09 2.6-.44 3.88-.21.51.07 1.19-.06 1.75-.19.78.11 1.69-.61 2.34-.12.11-.21.45-.14.54.58.73.08 1.45.02 2.18-.05.51-.09 1.03-.18 1.54-.06.35-.08.77-.29 1.01-.7.79-.63 1.75-.67 2.71.21-.64.42-1.29.62-1.93-.37 1.65.48 3.53-1.04 5.03v-1.22c-.05-.01-.1-.03-.15-.04-.28.53-.55 1.06-.89 1.71.16.27.37.64.49.85-.16 1.03-.34 1.91-.41 2.81-.07.84-.15 1.61-.74 2.32-.33.38-.41 1-.52 1.54-.28 1.4-.7 2.78-.58 4.24.03.42-.15.85-.19 1.29-.02.19.07.4.14.73.48-.53.62-.98.52-1.54-.07-.43.07-.76.72-.71-.28 1.33-.39 2.63-1.59 3.73-.13-.42-.22-.72-.3-1.02-.04.01-.13-.01-.17.03-.79.91-1.2 1.99-1.51 3.15-.24.87-.75 1.66-1.19 2.47-.21.4-.25.69.04 1.08.19.25.29.68.23.99-.17.97-.42 1.92-.66 2.93-.9-.16-1.52.04-1.76.89a.38.38 0 0 1-.14.19c-1.07.62-1.24 1.66-1.28 2.76-.01.16-.04.31-.08.56-.85-.05-1.24.45-1.43 1.22-.06.23-.33.44-.55.59-.55.38-.92.88-1.04 1.54l.05-.05c-.37.35-.82.66-1.09 1.07-.98 1.49-1.91 3.01-2.85 4.53-.13.2-.25.41-.32.64-.17.51-.54.8-.95 1.15-.81.68-1.45 1.55-2.11 2.3-.97.26-1.97.53-3.04.82.03.3.07.64.11 1.01-.84.68-1.87.88-2.86 1.16-1.53.43-3.08.81-4.62 1.19-2.43.61-4.85 1.24-7.28 1.79-1.15.26-2.26.82-3.5.64-.07-.01-.19 0-.23.05-.88 1.03-2.22.78-3.31 1.05-1.33.33-2.67.68-4.04.92-2.2.38-4.44.67-6.53 1.4-1.37.47-2.7.52-4.07.7-.91.12-1.8.35-2.71.4-1.43.08-2.86.1-4.29.04-1.12-.05-2.18.01-3.3.25-1.32.29-2.72.21-4.09.23-1.86.03-3.7-.36-5.59-.21-1.77.14-3.57-.05-5.35-.09-.32-.01-.64-.04-.96 0-.9.1-1.29.43-1.56 1.14-1.03.38-1.96.72-3.01 1.11.23.16.31.26.41.29.34.09.82.11.68.61-.05.19-.48.34-.75.4-.5.11-1.01.15-1.52.21-.45.06-.79-.07-.91-.72.54-.12 1.08-.24 1.81-.41-.29-.26-.42-.46-.6-.51-.34-.1-.71-.16-1.06-.14-1.33.08-2.66.15-3.98.31-.74.09-1.46.33-2.18.5l.03.03c-.05-.22-.09-.44-.17-.85-1.12.89-2.4.04-3.5.66-.09.05-.32-.04-.44-.13-.68-.49-1.35-.31-2.05-.04-.29.11-.6.21-.91.23-1.15.07-2.29.11-3.44.15-.38.01-.67.08-.89.46-.27.46-.69.72-1.48.66.41-.36.67-.58 1.02-.89-.92-.31-1.71-.58-2.57 0-.28.19-.73.13-1.11.16-1.65.11-3.29.43-4.97.29-.93-.08-1.89.1-2.84.2-2.06.21-4.11.27-6.18.2-1.7-.05-3.41.12-5.12.14-1.87.03-3.74 0-5.61-.01-.91-.01-1.81-.04-2.72-.05-.17 0-.34.1-.52.16 0 .08 0 .16-.01.25.98.12 1.96.25 2.94.37 0 .08.01.16.01.24-.18.04-.36.12-.54.12-2.99 0-5.98-.01-8.97 0-.23 0-.46.1-.7.26 1.16.05 2.33.13 3.49.15 3.75.06 7.51.12 11.27.13 2.91.01 5.81.09 8.72-.16 2.38-.21 4.77-.21 7.16-.3.14-.01.29.03.45.25-.61.07-1.23.16-1.84.2-2.38.17-4.77.39-7.15.46-2.71.09-5.42.06-8.12.04-3.15-.02-6.29-.06-9.44-.11-2.26-.03-4.51-.05-6.77.22-2.07.25-4.17.26-6.26.38-.68.04-1.35.09-2.03.12-2.87.12-5.71-.09-8.56-.42-1.66-.19-3.32-.39-4.99-.38-3.16.02-6.33.1-9.44-.4-2.92-.47-5.79-.22-8.7-.18-2.7.04-5.4-.25-8.1-.34-1.55-.05-3.09-.01-4.64-.01l-.03-.29c.23-.06.47-.17.7-.17 1.43-.04 2.87-.05 4.3-.09.2-.01.45-.09.58-.23.33-.35.56-.33.79.08.21.36.61.36.78.1.3-.47.72-.44 1.14-.45.56-.01 1.09.05 1.54-.44.16-.17.72-.23.89-.09.56.45 1.17.24 1.75.29.16.01.33-.06.5-.1.24-.05.5-.17.73-.14.61.09 1.21.24 2 .4-2.62.69-5.19.35-7.74.69.23.06.46.18.68.18 3.34-.07 6.69-.16 10.03-.23.47-.01.94.09 1.43.14-.45-.4-.45-.4-1.28-.55-.06-.45.26-.55.58-.57 1.01-.07 2.03-.11 3.05-.16.25.57-.41.28-.51.53 1.4.69 4.32.87 5.35.26-1.17-.11-2.25-.22-3.45-.33.23-.22.33-.32.65-.62-.86.08-1.47.14-2.08.2-.24-.12-.47-.32-.72-.34-2.22-.23-4.43-.28-6.66-.21-1.66.05-3.34.28-4.99-.2-.26-.07-.56-.07-.83-.03-2.55.41-5.09-.1-7.64-.13-.32 0-.64-.02-.95-.01-1.71.05-3.42.11-5.13.17-.2.01-.45-.1-.58-.01-.94.63-1.91.28-2.89.15-1.42-.19-2.87-.57-4.26-.4-1.97.23-3.78-.42-5.67-.53-.14-.01-.28-.08-.42-.34.35-.04.7-.09 1.03-.13-.65-.8-.65-.8-1.73-.6.09.26.17.51.31.94-.53-.09-.98-.17-1.42-.25-.45-.08-.8-.27-.76-.95-.46.3-.75.62-1.06.66-.37.04-.75-.24-1.14-.27-1.9-.14-3.65-.83-5.3-1.67-1.32-.67-2.69-1.32-3.7-2.49 1.08.7 2.46.76 3.37 1.84.34.41 1.04.71 1.58.72.72.01 1.31.22 1.91.52.25.12.56.11.85.17l.09-.24c-.32-.17-.63-.39-.97-.5-1.24-.43-2.33-1.1-3.37-1.89-.31-.24-.67-.43-1.04-.59-.5-.21-.88-.6-1.31-.89-2.07-1.38-3.33-3.48-4.97-5.24-1.03-1.11-1.57-2.38-2-3.75-.25-.79-.26-1.66-.5-2.45-.58-1.86-1.26-3.69-1.86-5.55-.38-1.17-.67-2.38-1.02-3.56-.12-.4-.28-.79-.48-1.34-.24.33-.47.54-.43.62.33.72.02 1.29-.35 1.87-.09.14-.05.35-.09.73-.61-1.02-.73-1.98-.89-2.74.57-.3 1.03-.54 1.66-.87-1.2-.44-1.48-1.19-1.42-2.18.04-.62-.19-.97-.98-1.89-.4.68-.32 1.37-.22 2.06.05.35.22.7.22 1.05 0 .29-.18.58-.28.86-.11-.01-.21-.01-.32-.02-.22-1.01-.44-2.02-.71-3.27-.13.35-.19.43-.18.49.22 1.13.44 2.26.7 3.37.07.3.28.56.43.84l-.03-.04c-.17.78.01 1.47.5 2.11.09-.29.17-.55.26-.8l.24.03c0 .23-.03.48.01.7.05.26.16.51.26.81-.35.04-.65.08-1.01.12-.38-1.41-.77-2.81-1.13-4.22-.71-2.85-1.41-5.7-2.1-8.55-.15-.61-.23-1.24-.34-1.87.6-.29.6-.29.04-.9v.93c-.34-1.1-.75-2.17-1.01-3.29-.58-2.56-1.16-5.12-2.1-7.58-.18-.47-.13-1.02-.26-1.51-.17-.68-.38-1.35-.63-2-.53-1.37-1.14-2.7-1.62-4.08-.19-.54.03-1.3-.27-1.72-.41-.57.4-1.08-.18-1.64-.31-.29-.05-1.11-.29-1.56-.64-1.2-.41-2.63-1.15-3.79-.12-.19-.19-.45-.2-.68-.15-1.97-.88-3.82-1.12-5.78-.14-1.12-.53-2.21-.8-3.32-.06-.26-.15-.58-.06-.81.16-.4-.01-.63-.17-.98-.35-.79-.67-1.62-.82-2.46a77.4 77.4 0 0 1-.75-5.68c-.13-1.43-.11-2.87-.12-4.31-.03-3.19-.06-6.39-.07-9.58-.01-1.19.03-2.38.04-3.57.01-.66.01-1.32 0-1.99-.03-2.43-.09-4.86-.1-7.29 0-.67.12-1.35.17-2.02.03-.39.05-.78.07-1.17.01-.24-.03-.48-.01-.72.24-2.37.51-4.74.74-7.12.23-2.38.38-4.78.64-7.16.2-1.9.64-3.78.73-5.68.08-1.69.74-3.35.45-5.02-.15-.86.14-1.52.31-2.25.3-1.24-.1-2.44-.16-3.66-.01-.27-.08-.54-.06-.81.27-3.61.68-7.22.78-10.84.13-4.62-.01-9.24-.03-13.86-.01-2.31-.03-4.62.02-6.93.04-1.91.24-3.83.25-5.74.01-1.3-.25-2.61-.29-3.91-.03-1.15.07-2.3.15-3.44.01-.14.3-.24.37-.4.15-.31.32-.64.34-.97.03-.67-.05-1.34-.09-2.07-.23-.03-.48-.06-.82-.1v-3.59c.42.11.79.2 1.17.3.16.35.32.74.48 1.1 1.38-.19.8-1.95 2.06-2.23.13.38.25.74.44 1.33.07-1.09.12-1.97.18-2.86.36-.14.7-.21.66-.78-.14-2.08.43-3.93 1.71-5.64 1.02-1.36 1.78-2.92 2.6-4.43.36-.65.78-.98 1.54-1.13 1-.19 1.99-.55 2.92-.97 3.01-1.37 5.96-2.88 9-4.18 1.08-.46 2.24-.67 3.05-1.62 2.74-1.16 5.36-2.78 8.43-2.87 1.58-.04 3.01-.72 4.56-.74.04 0 .08-.12.16-.26-1.39-.42-2.84-.02-4.35-.37.46-.41.89-.35 1.29-.4 4.34-.52 8.69-.15 13.03-.09 1.95.03 3.89.38 5.83.44 4.92.14 9.83.87 14.77.5 1.87-.14 3.74-.28 5.61-.31 2.83-.04 5.67.06 8.5.05 2.63-.02 5.27-.09 7.9-.17 3.39-.11 6.77-.35 10.16-.35 3.33 0 6.59-.58 9.87-.94 4.32-.47 8.64-.99 12.97-1.45.8-.09 1.62-.01 2.48-.01-.03.46-.39.5-.74.53-.99.08-1.99.14-2.98.24-1.34.14-2.67.3-4.01.46-2.01.25-4.02.52-6.03.75-.35.04-.72-.03-1.07-.08-.72-.1-1.32.11-1.96.69.3.12.49.2.69.26.07.02.16-.01.24-.02 2.64-.33 5.3-.37 7.93-.92 1.55-.32 3.17-.32 4.76-.45 2.39-.18 4.77-.37 7.16-.51 2.31-.13 4.62-.24 6.93-.3 4.94-.13 9.89-.22 14.83-.33 2.15-.05 4.3-.1 6.44-.11 1.35-.01 2.71 0 4.05.12 3.36.3 6.68-.17 10.02-.32 1.1-.05 2.21.12 3.32.12.59 0 1.17-.14 1.76-.21.66-.08 1.32-.2 1.98-.23 1.06-.04 2.13.01 3.19-.01 1.62-.02 3.25-.05 4.87-.1.18 0 .35-.1.66-.19-.45-.55-.98-.54-1.46-.54-2.39 0-4.79 0-7.18.07-2.23.07-4.45.26-6.68.35-1.3.05-2.59.01-3.89-.13 10.51-1.13 21.02-1.03 31.52.04.2.45-.07.6-.38.74-.36-.12-.72-.32-1.08-.36-.98-.09-1.97-.11-2.95-.16-2.14-.11-4.28-.24-6.43-.34-.33-.02-.66.04-.99.06.1.35.25.56.41.57.59.04 1.18-.02 1.77.02 2.61.16 5.21.37 7.82.5.57.03 1.07-.19 1.56-.3zm.38 119.71c-.51 0-1.25.21-1.49-.05-.93-1-1.75-.7-2.65-.05-.08.06-.19.09-.32.15.27.64.6.96 1.28.52.32-.21.67-.17 1.21.43-.39.14-.78.29-1.17.43.05.11.09.22.14.33.34.16.69.33 1.03.49-.06.12-.08.2-.13.25-.41.43-.65.91-.32 1.48.36.6.93.44 1.48.36.19-.03.37-.04.56-.06-1.35.46-2.38 1.33-3.73 2.26.71.25 1.16.51 1.63.56.37.04.82-.15.64-.71-.13-.4-.03-.61.33-.65.26.49.51.95.79 1.49-.02.03-.11.16-.23.26-.5.42-.81.8-.04 1.29.17.11.15.49.25.87-.92-.25-1.3.17-1.43.99.44-.17.85-.72 1.37-.17-.07.56-1.07.81-.45 1.44-.77.38-1.49.7-2.18 1.08-.17.09-.36.39-.33.56.07.41-.16.57-.41.78-.16.13-.24.35-.38.56 1.24.25 1.24.25 1.5.85-.26.18-.5.43-.79.52-.28.09-.61.02-.88.02-.45 1.12.27 1.68 1.03 2.11-.53.37-1.01.66-1.44 1.01-.44.35-.79.79-.46 1.66-1.42-.41-2.13.41-2.93 1.11-.45.39-.88.74-1.09 1.35-.1.29-.45.58-.76.69-.93.34-1.44 1.08-1.97 1.84-.19.27-.46.5-.73.71-.22.17-.5.26-.71.43-1.05.85-2.08 1.71-3.11 2.58-.21.18-.5.38-.54.61-.08.41-.31.55-.64.57-.74.06-1.04.58-1.42 1.2l.88.17c-.01.06-.01.11-.02.17h-.72l-.8 1.32c-2.04-1-2.98.78-4.31 1.75-.21-.4-.36-.71-.53-1.05-.71.06-1.41.21-2.1.17-1.01-.07-1.94-.04-2.88.42-.54.26-1.34.54-1.78.32-1.06-.53-2.06-.23-3.02-.05-2.48.46-4.98.62-7.49.61-.58 0-1.16.11-1.76.17-.18 1.36-.86 2.4-.8 3.78.09 2.21-.34 4.44-.51 6.67-.05.62.07 1.25.1 1.88.03.63-.1 1.28.35 1.86.09.11-.15.71-.35.78-.39.15-.33.34-.31.63.11 1.65.32 3.31-.04 4.96-.06.27-.05.56-.04.84.08 2.02.12 4.04.28 6.05.13 1.53.2 3.09.97 4.55-.38.37-.46.79-.29 1.37.23.79.3 1.63.37 2.45.21 2.62.31 5.26.6 7.87.28 2.55.76 5.08 1.13 7.62.07.51.05 1.03.08 1.54.03.54.06 1.08.09 1.58 1.63.34 3.07-.15 4.53-.22 3.46-.17 6.93-.26 10.4-.36 2.1-.06 4.2-.05 6.3-.14 3.47-.14 6.93-.32 10.4-.48.43-.02.87.05 1.31.07 1.55.07 3.13.35 4.65.15 1.94-.26 3.86-.54 5.82-.47.27.01.6-.04.8-.2 1-.78 2.18-.66 3.32-.73 1.12-.07 2.24-.02 3.35-.14 1.94-.22 3.88-.5 5.81-.8 2.44-.38 4.88-.75 7.24-1.57 1.99-.69 4-1.3 6.04-1.82.84-.22 1.73-.22 2.37-.92.05-.05.14-.06.22-.1.6-.26 1.21-.53 1.97-.86.06.01.4.17.61.07.79-.36 1.59-.68 2.15-1.45.46-.63 1.02-1.31 1.7-1.62.47-.22.77-.45 1.06-.82.24-.31.52-.6.79-.89 1.12-1.22 2.28-2.4 3.36-3.66 1.33-1.55 1.94-3.48 2.64-5.34.32-.84 1.04-1.58.89-2.56-.1-.66.15-1.23.51-1.67.71-.87.71-1.92.95-2.91.15-.64.14-1.33.34-1.95.59-1.8.71-3.67.99-5.52.03-.17.07-.43.18-.49.5-.28.4-.74.42-1.16.01-.35-.11-.76.02-1.06.83-1.88.36-3.94.84-5.87.08-.34.01-.71.01-1.13-.14.42-.26.77-.38 1.11-.28-.92-.53-1.81-.47-2.67.1-1.34-.31-2.58-.48-3.86-.27-2.01-.57-4.03-.71-6.05-.06-.83-.18-1.75.38-2.55.11-.15.02-.52-.1-.73-.39-.74-.47-1.59-.18-2.27.24-.55.29-1.02.3-1.5-.27-.17-.49-.29-.83-.5.37-.13.57-.21.88-.32-.07-.28-.05-.69-.23-.84-.85-.67-.49-1.39-.21-2.15.34-.93.35-1.83-.22-2.71-.46-.7-.64-1.57-.18-2.23.27-.39.33-.68.27-1.04-.14-.97-.08-1.97-.5-2.89-.27-.59-.06-1.07.25-1.3-.11-.73-.31-1.3-.23-1.83.06-.44.48-.81.17-1.32-.22-.36.07-.78-.27-1.26-.34-.49-.32-1.42-.11-2.05.17-.52-.2-.79-.18-1.2.02-.41-.21-.86-.83-.68-.02.01-.18-.25-.18-.38.03-.47.1-.93.16-1.4.25.1.43.16.7.26-.15-.88-.28-1.62-.41-2.32-.83-.1-.83-.1-.72-1.01.43.25.55-.02.61-.37.1-.53.37-1.07-.14-1.61-.19.08-.4.16-.46.18-.38-.28-.68-.5-1.05-.78.57-.52.75-1.14.28-1.88-.23.05-.48.09-.89.18.03-.4 0-.71.11-.97.05-.12.38-.13.58-.18.01-.1.03-.18.03-.26-.06-.69-.61-1.28-.31-2.05.09-.22-.24-.49-.59-.34-.37.16-.74.34-1.15.53-.35-.67-.55-1.34-.23-2.35.25.53.39.83.64 1.39-.05-.63-.08-.99-.11-1.45-.71.17-.94-.19-1.03-.73-.15-.94-.31-1.88-.49-2.81-.13-.65-.46-1.31-.42-1.95.07-1.05-.06-2.04-.2-3.07-.28-1.96-.4-3.95-.58-5.93-.14-1.57-.28-3.15-.41-4.73-.02-.27.04-.55.07-.83.15-1.11.32-2.21.46-3.32.03-.26.02-.6-.12-.79-.32-.42-.2-.79-.12-1.23.11-.58.07-1.18.09-1.78.01-.32-.12-.73.03-.93.54-.74.24-1.53.01-2.16-.5-1.33-.18-2.65-.25-3.97-.03-.51 0-1.02-.06-1.53-.16-1.46-.35-2.92-.54-4.37-.12-.86-.28-1.72-.41-2.58-.04-.23-.11-.49-.04-.7.41-1.21-.01-2.36-.19-3.52-.07-.47-.11-.94-.13-1.41-.05-1.5.29-3.02-.34-4.48a.722.722 0 0 1-.06-.35c.19-2.04-.68-4.02-.32-6.07.04-.22-.1-.46-.15-.7l-1.71-8.58c-.11-.55-.21-1.1-.29-1.65-.27-1.85-.52-3.71-.8-5.57-.22-1.41-.47-2.82-.73-4.23-.02-.12-.16-.22-.25-.33-.13.32-.1.58-.06.84.12.95.29 1.89.36 2.84.1 1.39.05 2.79.22 4.16.24 1.9.66 3.78.95 5.67.21 1.35.61 2.72.1 4.1l-.59-.17c.08.43.15.77.21 1.09.8.06 1.1.32 1.16 1.17.1 1.25.13 2.5.19 3.9-.69-1.03-.14-2.3-1.06-3.12-.43.37-.3.76-.19 1.14.2.73.46 1.44.59 2.18.14.78.16 1.57.21 2.36.08 1.22.14 2.45.21 3.67.04.64.02 1.31.43 1.92.59-.63-.05-1.48.61-2.14.39 1.2.4 2.25-.04 3.35-.78 0-1.23-.64-1.95-1.13 0 .65-.06 1.17.01 1.67.2 1.3.03 2.64.5 3.9.09.25.09.58.01.83-.33.96-.12 1.89-.01 2.84.13 1.11.25 2.23.26 3.34.01.75.12 1.55-.36 2.44-.14-.39-.26-.6-.29-.82-.13-1.06-.25-2.12-.36-3.19-.12-1.31-.21-2.62-.33-3.93-.2-2.14-.39-4.28-.61-6.42-.14-1.35-.33-2.69-.5-4.04-.11-.9-.22-1.81-.31-2.71-.05-.56.01-1.13-.1-1.67-.56-2.61-.59-5.29-1.14-7.91-.4-1.91-.61-3.86-.94-5.78-.06-.36-.25-.88-.51-.98-.62-.23-.71-.66-.8-1.23h.8c.18-1.16-.19-2.1-.7-2.84.11-.59.28-1.04.24-1.47-.04-.46-.22-.95-.45-1.36-.57-.98-1.08-2-2.42-2.23-1.09-.18-2.14-.61-3.23-.88-.37-.09-.79 0-1.18-.06-.62-.1-1.25-.2-1.84-.39-.59-.2-1.14-.51-1.71-.77-.46-.21-.95-.37-1.38-.63-.44-.27-.85-.36-1.36-.24-.45.1-.96.17-1.4.07-.61-.14-1.19-.44-1.78-.69-.48-.21-.93-.31-1.49-.26-.81.08-1.7.08-2.44-.2-1.07-.4-2.11-.6-3.23-.43-.19.03-.45.05-.56-.05-.78-.68-1.68-.31-2.52-.3-.87.01-1.73.14-2.6.17-.39.01-.79-.13-1.18-.16-2.26-.13-4.52-.25-6.78-.34-2.27-.09-4.54-.16-6.81-.2-.71-.01-1.43.13-2.14.11-1.63-.03-3.27-.11-4.9-.18-.6-.02-1.19-.07-1.79-.1-2.04-.11-4.08-.33-6.13-.07-.82.1-1.63.35-2.45.43-1.9.2-3.8.38-5.71.5-1.07.07-2.16-.02-3.23-.02-2.47.02-4.94.07-7.41.09-2.31.02-4.64-.1-6.94.08-1.62.13-3.27-.34-4.87.22-.2.07-.47-.07-.7-.07-.91-.01-1.94-.27-2.71.06-1.08.46-2.15.63-3.25.64-1.58.01-3.17.33-4.76-.01-.6-.13-1.3-.15-1.86.03-1.15.38-2.32.49-3.51.5-.99.01-1.98-.14-2.96.19-.32.11-.71-.01-1.06-.01-.99 0-2.05-.23-2.95.05-2.27.71-4.65.68-6.94 1.15-.85.18-1.76.35-2.6.22-1.18-.19-2.18-.04-3.16.6-.25.17-.61.27-.91.24-1.3-.13-2.6.5-3.91-.03-.17-.07-.44.08-.67.14-.38.1-.76.27-1.14.29-1.63.08-3.27.12-4.9.17-.24.01-.48 0-.71-.04-1.52-.29-3.03-.31-4.57-.14-1.34.15-2.68.43-4.04.08-.11-.03-.24 0-.36.01-1.82.14-3.64.23-5.47.13-2.38-.14-4.78-.06-7.17-.09-.64-.01-1.28-.08-1.91-.03-1.27.1-2.52.32-3.79.41-2.15.15-4.3.21-6.45.34-.87.05-1.73.19-2.6.24-.55.03-1.1-.09-1.65-.08-1.15.03-2.3.15-3.45.14-1.4-.01-2.79-.18-4.18-.19-4.35-.03-8.71-.04-13.06-.02-1.63.01-3.3-.16-4.84.55-1.67.76-3.32 1.57-4.95 2.39-.23.11-.44.47-.46.74-.06.7-.05 1.42-.02 2.12.07 1.35.26 2.7.27 4.04.02 3.25-.03 6.51-.05 9.77-.01 2.22.05 4.45-.04 6.67-.1 2.67-.33 5.32-.46 7.99-.12 2.51-.17 5.02-.25 7.53-.03 1.07-.07 2.14-.08 3.21-.02 1.8-.6 3.56-.37 5.38.01.11-.04.24-.05.35-.21 2.5-.42 5.01-.61 7.51-.18 2.31-.27 4.63-.51 6.93-.28 2.65-.83 5.27-.64 7.95.01.12-.02.24-.03.36-.17 2.27-.37 4.53-.51 6.8-.19 3.06.11 6.13-.2 9.19-.18 1.7-.11 3.43-.06 5.14.07 2.46.11 4.92.56 7.36.55 3.06 1.04 6.14 1.39 9.24.33 2.9.95 5.74 1.58 8.58.56 2.53 1.11 5.06 1.59 7.6.33 1.74.73 3.45 1.24 5.14.36 1.2 1.02 2.33.75 3.67-.03.13.09.29.14.43.17.43.39.85.49 1.29.24 1 .42 2.02.61 3.03.16.85.18 1.76.49 2.55.45 1.14.82 2.27 1.02 3.49.34 2.1 1.19 4.09 1.25 6.25 0 .15.07.34.17.43.53.47.57 1.12.68 1.74.4 2.14.94 4.24 1.65 6.3.92 2.67 1.84 5.34 2.76 8.02.1.3.15.63.3.91.23.46.52.89.79 1.33.08-.04.15-.08.23-.12-.28-.9-.58-1.79-.84-2.69-.58-2.02-.57-2.02-.26-2.71.18.42.35.77.5 1.14.3.75 1.02 1.39.59 2.32-.02.04.13.15.18.24.13.26.29.52.37.8.25.82.3 1.77.75 2.46.57.88 1.4 1.62 2.21 2.31.66.56 1.44 1.01 2.21 1.42 1.12.59 2.24 1.32 3.45 1.59 2.19.5 4.29 1.41 6.56 1.58 2.34.18 4.68.48 7.03.63 1.31.08 2.65-.17 3.95-.02 1.33.15 2.58-.18 3.87-.23 2.51-.1 5.03-.36 7.54-.27 3 .1 5.99.06 8.98-.01 3.39-.08 6.79-.08 10.17.33 1.46.18 2.94.28 4.41.36 1.83.1 3.67.08 5.5.21 1.91.13 3.81.36 5.72.54.76.07 1.51.15 2.27.2.76.05 1.51.08 2.27.11.8.03 1.6.07 2.4.05.76-.02 1.59.09 2.24-.2.75-.33 1.4.26 2.07-.05.1-.05.19-.12.28-.18-.72-8.38-1.99-16.68-2.13-25.09.82 3.92.64 7.98 1.66 11.9.02-.15.05-.26.06-.38.15-1.74-.68-3.44-.23-5.19.01-.04 0-.09-.02-.12-.5-.68-.26-1.44-.27-2.18-.05-2.67-.33-5.34-.83-7.95-.64-3.36-.65-6.73-.53-10.11.05-1.58.35-3.15.44-4.73.1-1.67.12-3.34.15-5.02 0-.22-.12-.44-.2-.71-.52 0-1-.05-1.47.01-1.74.2-3.46.48-5.2.66-2.93.3-5.85.74-8.81.79-.93.02-2.02.02-2.73.92-.07.08-.19.14-.3.17-1 .24-2 .49-3.02.68-.21.04-.47-.16-.8-.28.22-.27.35-.43.54-.66-1.51 0-2.91.18-4.23.78-.18.08-.38.27-.53.24-1.24-.32-2.43.05-3.64.21-.16.02-.34-.15-.61-.28.17-.38.32-.71.5-1.09.24.29.39.46.55.65.18-.25.29-.58.48-.63.75-.2.66-.74.66-1.29 0-.26.12-.51.15-.63-.27-.43-.76-.9-.66-1.11.24-.57.73-1.03 1.21-1.65-.15-.51.06-1.34-.91-1.74.4-.16.65-.27.87-.36.29-.71.13-1.3-.42-1.79 1.25-.58 1.53-1.41.9-2.45-.43.01-.79.48-1.21.32.36-.57.68-1.1.99-1.59-.31-.41-.53-.68-.79-1.03.79-.36 1.03-.97.97-1.73-.03-.34-.13-.79.03-1.01.4-.52 0-1.43.86-1.68.14-.63.19-1.29.45-1.87.15-.34.19-.63.21-.99.04-.75.05-1.59.39-2.22.43-.8.72-1.5.22-2.34.21-.19.38-.34.57-.52-.17-.27-.32-.53-.49-.81 1.34-.99.12-2.08.13-3.03.56-.42 1.06-.79 1.63-1.22-.64-.81-1.45-1.56-.64-2.59.54-.22 1.04-.43 1.55-.63.5-.2 1-.46 1.52-.58 1.09-.24 2.2-.36 3.29-.62 2.09-.5 4.15-1.13 6.25-1.57 3.35-.7 6.73-1.28 10.1-1.93.38-.07.75-.25 1.1-.4.08-.04.11-.19.17-.3-.22-.28-.43-.54-.47-.59.21-.9.43-1.57.51-2.25.26-2.08.15-4.19.37-6.28.27-2.52.84-5 .78-7.55 0-.12.02-.24.05-.36.33-1.53.74-3.06.99-4.6.46-2.94 1.79-5.61 2.52-8.46.03-.12.07-.23.12-.34l2.43-5.46c.84-1.89 1.67-3.79 2.52-5.67.15-.32.3-.74.57-.89.57-.3.55-.96.93-1.31.39-.36.92-.55 1.38-.83.04-.02.02-.14.03-.22-.14-.1-.28-.2-.37-.26.28-.97 2.12-.62 1.6-2.15.99-.51 1.8-1.23 1.85-2.3.03-.76.36-1.19.85-1.53.95-.67 1.52-1.6 2.11-2.56.42-.66.99-1.25 1.58-1.77.57-.5 1.3-.78 2.25-.86-.37.49-.63.83-.91 1.2.16.06.2.1.23.09.11-.02.25-.03.33-.1 1.06-.95 2.21-1.77 3.43-2.52 1.76-1.07 3.39-2.35 5.09-3.51 1.44-.98 2.98-1.77 4.91-2.41-.47.38-.71.59-1.03.85 1.12.11 1.91-.21 2.62-1.02l-.53-.5c2.22-1.02 4.33-1.99 6.4-2.93.36.28.63.48.86.66.78-.36.24-.7.09-1.02.79-.79 1.46-.95 2.26-.53-.45.21-.87.4-1.29.59.04.08.07.16.11.24 1.04-.37 2.26-.3 2.96-1.46.66.38 1.28.43 1.67-.1.52-.69 1.13-1.07 1.96-1.16.15-.02.28-.14.42-.22.66-.37 1.29-.82 1.99-1.07.64-.23.99-.67 1.32-1.17.12-.18.19-.4.19-.42.86-.23 1.54-.4 2.21-.59 1.57-.44 3.16-.61 4.79-.45.52.05 1.11.18 1.41-.38.41-.76 1.08-.88 1.81-.92 1.71-.09 3.42-.24 5.13-.22.94.01 1.79.04 2.56-.61.37-.31.7-.09.81.44.04.18.03.37.04.51.91.09 1.74.18 2.65.27.03-.29.06-.63.09-.91.14-.08.21-.16.27-.16 1.59.02 3.17.03 4.76.09.68.03 1.38.15 1.65.94.29.84.69 1.48 1.67 1.68.5.1.53.67.12 1.02-.14.11-.34.15-.62.27.32.63.65 1.28.11 1.82-.47.46-1.06.79-1.78 1.32.82.43 1.5.78 2.28 1.19-.62.94.73.96.88 1.72-.53.33-1.04.66-1.55.98.12.73.71.88 1.17 1.16.74.44.75.43.52 1.4-.25.05-.5.1-.89.17.72.78 1.19 1.54 1.37 2.63-.43-.03-.83.06-1.08-.09-.51-.32-.92-.09-1.35.08-.5.2-.57.67-.09.86.7.28.94.91 1.56 1.52-.49.13-.85.16-1.12.32-.26.16-.43.47-.65.72-.08-.05-.16-.09-.21-.14-.28-.27-.62-.49-.93-.17-.19.2-.34.6-.27.85.06.22.42.41.68.52.4.17.85.24 1.26.39.21.08.5.2.57.38.33.83.6 1.69.88 2.52-.84.57-1.65-.73-2.48.02.3.32.56.59.84.89-.96.44-2-.56-2.77.42.14.18.28.37.36.48-.45.58-.87 1.12-1.27 1.64-.84.17-1.69-.41-2.43-.03.39.6.73 1.17 1.11 1.7.38.55.8 1.07 1.23 1.65-1.28-.31-1.87.04-2.28 1.29.23.11.47.22.71.33-.01.05-.02.11-.02.16h-2.32c.08.52.14.94.19 1.25.6.2 1.13.43 1.69.56.6.14 1.23.19 1.84.29.01.09.01.17.02.26-1.29.38-2.68.24-4.03.61-.03.46-.06.92-.09 1.41h-4.73c.52.82 1.23.78 1.93.78.47 0 .99-.23 1.65.37-1.53.13-2.88.53-4.09.28-2.63-.54-5.24-.27-7.85-.26-.43 0-.85.22-1.53.42.56.26.82.38 1.09.5-1.33.22-2.63.24-3.93.33-1.99.14-3.97.35-5.96.48-1.31.08-2.59.22-3.8.78-.15.07-.37-.04-.55-.03-.22 0-.44.04-.72.07.17.25.29.42.41.6-.28.25-.52.46-.79.7.21.38.41.73.62 1.1.43-.36.67-.98 1.26-.35-.28.24-.59.4-.75.65-.81 1.29-1.77 2.43-2.95 3.4-.22.18-.39.56-.4.85-.01.62-.24 1.04-.72 1.42-.33.26-.52.68-.76 1 .54.96.77 1.9.21 2.87-.47.81-1 1.59-1.47 2.4-.08.15-.01.38-.01.58.09.03.18.07.28.1.54-.8 1.08-1.6 1.67-2.49.17.8-.25 1.28-.64 1.76.14.36.26.69.31.81-.58.96-1.06 1.77-1.56 2.57-.17.27-.32.62-.58.74-.67.31-.84.92-1.08 1.51-.19.48-.4.95-.58 1.43-.33.84-.74 1.67-.94 2.54-.47 2.14-.86 4.3-1.24 6.46-.07.4.04.83.07 1.41 1.52-.08 2.9-.2 4.28-.21 1.46-.01 2.84-.57 4.33-.51 2.54.1 5.08.08 7.59.74.89-.61 1.74-1.35 2.98-1.2.29.04.6-.16.9-.26 1.05-.35 2.08-.74 3.14-1.05 1.03-.3 2.1-.45 3.11-.8 1.66-.58 3.37-.47 5.07-.6.95-.07 1.9-.15 2.85-.23.11-.01.3-.05.32-.12.29-.8.94-.51 1.42-.4.78.18 1.64-.03 1.98-.48.61-.79 1.16-.55 1.91-.41-.21.69-.19 1.2.46 1.58.41.24.29.63-.17.73-.4.09-.8.12-1.2.17v.26c.21.05.42.09.62.15.29.09.66.1.84.3.66.73 1.38.83 2.16.37.04.35.07.66.1.98l.06-.02zm-86.89 108.9c.3.05.45.09.6.09 3.75.09 7.5.2 11.24.26 2.26.04 4.52.34 6.79.06.92-.11 1.88.1 2.82.05 3.42-.2 6.84-.44 10.26-.68 1.51-.1 3.02-.22 4.54-.33.73-.05 1.46-.06 2.19-.11.41-.03.77-.15.8-.76-3.92-.17-7.74.61-11.64.48-.06-.12-.15-.32-.28-.61-.52.21-.98.51-1.46.56-1.32.14-2.66.19-3.99.24-1.18.05-2.36.08-3.55.08-1.12.01-2.25.55-3.36-.12-.1-.06-.41.06-.51.18-.33.38-.67.35-1.07.15-.2-.1-.45-.2-.66-.17-1.91.27-3.79-.32-5.7-.17-1.15.09-2.31.02-3.46-.04-1.14-.06-2.19.46-3.32.4-.04 0-.1.2-.24.44zm50.54-170.12c3.37-.72 6.62-1.36 9.67-2.68-1.19.06-2.36.16-3.51.34-1.64.26-3.27.59-4.9.89-.85.17-1.11.44-1.26 1.45zm2.86 168.3c-.23-.14-.35-.27-.48-.28-.75-.04-1.5-.12-2.24-.07-1.56.12-3.17-.27-4.7.34-.71-.27-1.43.58-2.16-.05-.09-.08-.47.19-.93.4.8.39 1.4.61 1.94.36.83-.39 1.67-.28 2.46-.12 2.06.43 4.03.1 6.11-.58zM169.99 87.51c-.94.64-1.84 1.25-2.73 1.86l.06.23c.28-.02.59.04.84-.06.78-.3 1.54-.66 2.3-1 2.06-.92 4.13-1.83 6.18-2.76.16-.07.27-.28.4-.42-.04-.08-.09-.15-.13-.23-.54.2-1.1.37-1.62.61-.51.23-.95.52-1.58.29-.23-.09-.74.11-.89.33-.91 1.35-1.45 1.58-2.83 1.15zm-62.46-58.28v.44c1.44 0 2.87.02 4.31 0 2.75-.05 3.54-.2 4.44-.91-3.04.15-5.9.31-8.75.47zm98.63 81.63c-1.04-.97-2.25-.5-3.36-.62-.12-.01-.38.37-.42.59-.02.13.22.41.39.47 1.04.36 2.08.21 3.1-.12.1-.03.16-.17.29-.32zm-81.61-82.65c-2.08.21-3.89.38-5.7.58-.12.01-.21.29-.33.47.19.07.27.13.33.12 1.17-.22 2.32-.42 3.55-.23.62.09 1.5-.01 2.15-.94zm-33.23 1.46c-1.39-.45-6.81-.09-7.52.36 2.21-.04 4.42-.15 6.63-.26.29-.01.59-.07.89-.1zm22.64 227.66c.96.67 1.45.68 4.44.17-1.5-.61-2.88.04-4.44-.17zM258.92 107.4h.3v-2.13c0-.85-.12-1.97-.31-2.23-.22 1.52-.28 2.95.01 4.36zm-9.13-42.79c-.43 1.69-.36 1.95.63 2.94-.22-1.04-.42-1.99-.63-2.94zm-57.44 12.77c.88.31 1.54-.15 2.39-.52-1.75-.31-2-.25-2.39.52zM94.14 29.4c-.58-.03-1.16-.05-1.94-.09.83.79 1.12.81 1.94.09zm.75 227.35c.01-.08.01-.16.02-.24-1.07-.05-2.1-.45-3.19-.27-.01.08-.01.17-.02.25 1.07.08 2.13.17 3.19.26zm181.47-128.29c-.21-.56-.42-1.13-.69-1.85-.35 1.43-.32 1.53.69 1.85zM98.34 256.86v-.12c-.38-.02-.76-.04-1.14-.07-.39-.03-.78-.08-1.16-.12.07.23.16.31.26.31h2.04zM198.92 145.7c-.13-.43-.19-.63-.27-.91-.42.16-.76.28-1.09.41l.03.25c.35.06.71.13 1.33.25zM109.2 257.37c0 .05-.01.11-.01.16h2.64c-.95-.06-1.79-.11-2.63-.16zm166.7-131.22c-.03-.72-.06-1.37-.1-2.22-.37.88-.47 1.54.1 2.22zM106.07 256.96l-.03.31c.67.01 1.31.35 2.03-.1-.67-.06-1.34-.14-2-.21zm-59.36-5.58c-.06.11-.11.22-.17.33.29.47.69.68 1.35.3-.39-.21-.78-.42-1.18-.63zM197.61 146c-.59-.61-1.04-.1-1.59-.27.48.94.96.46 1.59.27zM170.1 252.64c-.45.33-.73.54-1.17.86 1.15-.09 1.15-.09 1.17-.86zm26.23-107.52c-.06-.11-.11-.22-.17-.33-.45.2-.9.4-1.35.59.04.1.09.21.13.31.47-.19.93-.38 1.39-.57zm68.91 41.45c.08.01.15.02.23.02v-1.74c-.11.31-.1.61-.12.91-.01.28-.07.54-.11.81zm9.17-88.2c-.67.73-.15 1.07.1 1.45-.03-.4-.06-.8-.1-1.45zM60.11 253.75v-.13c-.5-.02-.99-.04-1.49-.07 0 .07 0 .13-.01.2h1.5zm42.17 3.07c-.35-.14-.7-.44-1.24 0h1.24zM250.92 83.21c-.04 0-.07.01-.11.01v1.24c.04 0 .07-.01.11-.01v-1.24zM137.18 195.62c-.08.01-.16.01-.23.02l.09 1.27h.08l.06-1.29zm54.24-49.38-.03.29c.31.03.61.07.92.1.01-.09.01-.19.02-.28-.3-.04-.6-.07-.91-.11zm-77.81 111.5c-.01-.11-.03-.22-.04-.33-.27.04-.54.07-.81.11.01.11.03.21.04.32.27-.04.54-.07.81-.1zm95.76-148.02c.37.29.74.37 1.3 0h-1.3zm-41.68-22.2c.05.07.1.15.15.22.18-.12.36-.24.54-.37-.05-.07-.1-.15-.15-.22-.18.12-.36.25-.54.37zm49.27 9.8c.01.07.01.14.02.22.2-.02.39-.03.59-.05-.01-.07-.01-.14-.02-.21-.2.01-.4.03-.59.04zm-92.68 159.93c.01-.1.01-.2.02-.29-.28.02-.56.04-.83.05l.03.28c.25-.01.51-.03.78-.04zM24.05 218.41c-.08.04-.16.07-.24.11.09.25.19.5.28.75.06-.02.13-.04.19-.07-.08-.26-.16-.52-.23-.79zm111.06-25.49.15.03c.06-.2.11-.39.17-.59l-.29-.06-.03.62zm-13.18 64.33c0 .03.01.05.01.08l.67-.06-.03-.15c-.21.04-.43.09-.65.13zM194 112.4c.01.06.01.11.02.17.2-.03.39-.06.59-.1 0-.04-.01-.08-.01-.12-.2.02-.4.03-.6.05zm-27 130.22.22.19c.09-.15.18-.31.27-.46-.05-.04-.11-.08-.16-.11-.11.12-.22.25-.33.38zm43.49-95.22c.17-.21.23-.28.29-.35-.05-.04-.11-.12-.16-.11-.1.02-.23.06-.26.13-.03.06.07.17.13.33zM22.44 212.42c-.08.02-.15.05-.23.07.06.18.12.37.18.55.07-.02.14-.04.2-.06-.05-.18-.1-.37-.15-.56zm198.98 22.17c-.15-.07-.25-.15-.33-.14-.07.02-.12.14-.18.22.09.05.18.14.26.14.07 0 .14-.11.25-.22zm46.51-14.5c-.05-.02-.1-.03-.15-.05-.03.13-.07.26-.09.39 0 0 .09.03.1.03.05-.12.09-.25.14-.37zM137.01 198.9h.11c.01-.23.03-.45.04-.68-.05 0-.11 0-.16-.01.01.23.01.46.01.69zm38.82-66.22a.914.914 0 0 1-.14-.07c-.11.19-.22.38-.47.8.3-.23.41-.28.45-.35.08-.11.11-.25.16-.38zm-59.9 56c-.04.04-.08.09-.12.13.06.03.11.09.17.09.04 0 .08-.08.12-.13a.947.947 0 0 1-.17-.09z"/><path d="M142.16 26.06c2.35-1.22 32.59-1.69 35.84-.98-.6.2-.94.41-1.29.4-1.31-.01-2.62-.1-3.93-.14-.74-.03-1.49-.03-2.23-.03-1.43 0-2.86-.01-4.29.01-2.26.04-4.52.23-6.77.1-1.83-.11-3.64.12-5.47.09-1.46-.02-2.92.19-4.38.28-2.22.14-4.45.27-6.67.39-.2.01-.39-.05-.81-.12zM29.15 237.32c.47.55 1.03 1.04 1.4 1.65.39.64.16 1.36-.11 2.03-.12.29-.16.62-.23.88-.99-1.26-.66-2.98-1.29-4.43.08-.05.15-.09.23-.13zM67.49 255.62c2.11-.65 4.3-.21 6.45-.39.35-.03.72.2 1.08.31l-.03.26c-1.23-.06-2.47-.14-3.7-.17-1.27-.03-2.53-.01-3.8-.01zM224.6 26.06c1.8-.29 3.44.06 5.06.55-1.15.47-3.66.22-5.06-.55zM38.81 251.2c1.59.43 2.8 1.65 4.36 2.15-1.11.16-3.28-.91-4.36-2.15zM162.37 256.65c-1.47.13-2.94.27-4.42.4.61-.63 1.19-.96 2.09-.67.72.23 1.55.11 2.33.15-.01.04 0 .08 0 .12zM273.73 205.81c.14-.43.29-.85.47-1.4.28.99.15 1.85-.42 3.09-.14-.89-1.17-1.46-.42-2.5.04.11.1.21.12.32.04.15.05.3.07.46.07.01.13.02.18.03zM9.29 155.49c.26 1.61.45 3.21-.24 4.78.09-1.59.17-3.19.24-4.78zM32.62 245.71c-1.41-.72-1.48-.79-1.9-2.19.52-.01.52-.01 1.1.81.27.39.76.65.8 1.38zM178.68 25.14c1.54-.62 3.14 0 4.73-.33 0 .11 0 .22.01.33h-4.74zM191.95 253.15c1.54-.85 1.86-.85 2.54-.02-.78.3-1.52.17-2.54.02zM29.22 231.95l1.36 3.61c-.81-.61-1.25-1.68-1.36-3.61zM216.52 25.3c.94-.5 1.76.17 2.66.19-.91.28-1.8.18-2.66-.19zM167.17 256.41c-1.16.08-2.32.15-3.47.23-.01-.1-.01-.21-.02-.31 1.15-.11 2.32-.07 3.49.08zM35.59 249.16c-.55-.54-1.02-1-1.68-1.65 1.09.2 1.5.65 1.68 1.65zM38.09 251.1c-.58-.45-1.16-.9-1.74-1.34.05-.07.1-.13.15-.2.72.27 1.36.63 1.59 1.54zM191.04 253.1c-.42.19-.83.55-1.33-.15.43-.03.87-.06 1.3-.1.02.08.03.16.03.25zM271.5 213.82c-.15.32-.31.63-.51 1.06-.08-.66-.08-.66.51-1.06zM62.21 255.8h1.91v.09c-.64.04-1.27.08-1.91.11v-.2zM25.89 226.66c.07-.13.17-.37.22-.36.42.07.57.33.38.86-.25-.22-.44-.38-.63-.54 0 .01.03.04.03.04zM31.49 242.27l-.76-.67c.08-.07.16-.15.24-.22.47.07.44.52.49.9l.03-.01zM36.03 246.78c-.18-.3-.36-.61-.54-.91.05-.03.1-.06.14-.09l.59.89c-.06.03-.12.07-.19.11zM87.83 255.18c-.12.75-.48.57-.87.33.24-.1.49-.19.87-.33zM273.16 206.7c.16.2.34.34.32.4-.07.18-.22.32-.34.48-.09-.11-.25-.22-.25-.32.01-.15.14-.3.27-.56zM30.71 237.41v-1.08c.06 0 .11 0 .17-.01v1.08c-.05 0-.11 0-.17.01zM9.34 162.37l.2 1.33c-.43-.55-.43-.55-.2-1.33zM186.55 254.66l-.33.39c-.07-.07-.21-.15-.2-.2.04-.17.13-.34.2-.5.11.1.22.2.33.31zM27.96 235.53c-.1-.23-.2-.46-.3-.68.05-.03.11-.05.16-.08.11.23.22.45.32.68-.06.03-.12.05-.18.08zM278.51 165.52l.27-.75c.04.01.08.01.13.02.02.25.05.49.07.77-.21-.03-.35-.05-.5-.08-.01.01.03.04.03.04zM176.28 254.47c-.17.24-.33.48-.5.72-.08-.07-.15-.14-.23-.21.25-.16.5-.31.75-.47.01-.01-.02-.04-.02-.04zM31.46 242.29c.32.35.48.64-.37.77.17-.34.28-.56.4-.78 0-.01-.03.01-.03.01zM25.97 37.96c.05-.09.08-.15.11-.21.07.07.15.13.19.21.02.03-.05.11-.09.17-.07-.06-.15-.12-.21-.17zM279.29 179.81c-.21-.03-.34-.01-.39-.07-.06-.06-.04-.19-.05-.28.07.01.16-.01.2.03.07.06.12.15.24.32zM144.53 256.75c-.18.09-.26.15-.35.16-.07.01-.14-.05-.22-.08.06-.08.1-.22.17-.23.09-.01.2.07.4.15zM27.61 232.52c.04-.24.09-.47.13-.71l.18.03-.12.71c-.07-.01-.13-.02-.19-.03zM275.49 117.73c-.03-.21-.07-.42-.1-.63l.2-.06c.07.21.14.42.22.62-.11.02-.22.05-.32.07zM199.99 253.06c-.06-.07-.11-.12-.15-.16.09-.05.17-.12.27-.16.02-.01.09.08.13.13-.09.07-.17.13-.25.19zM261.96 230.69l-.05.05c.09.05.18.09.27.14l-.15.15c-.02-.11-.05-.23-.07-.34zM137.97 256.67c-.04.06-.07.15-.12.16-.06.01-.13-.04-.2-.07.05-.07.1-.14.14-.21l.18.12z"/><path class="st0" d="M215.9 145.47c-.03-.31-.06-.62-.1-.98-.78.46-1.5.36-2.16-.37-.18-.19-.55-.21-.84-.3-.2-.06-.41-.1-.62-.15v-.26c.4-.06.81-.09 1.2-.17.47-.1.58-.49.17-.73-.65-.38-.68-.89-.46-1.58-.75-.13-1.3-.38-1.91.41-.35.45-1.2.66-1.98.48-.48-.11-1.13-.4-1.42.4-.02.07-.21.11-.32.12-.95.08-1.9.15-2.85.23-1.7.13-3.41.02-5.07.6-1.01.35-2.08.5-3.11.8-1.06.31-2.09.7-3.14 1.05-.3.1-.62.3-.9.26-1.24-.16-2.09.59-2.98 1.2-2.51-.65-5.05-.63-7.59-.74-1.49-.06-2.87.5-4.33.51-1.38.01-2.76.13-4.28.21-.04-.58-.14-1.01-.07-1.41.38-2.16.77-4.32 1.24-6.46.19-.87.61-1.7.94-2.54.19-.48.39-.95.58-1.43.24-.59.41-1.19 1.08-1.51.25-.12.41-.47.58-.74.5-.8.98-1.61 1.56-2.57-.05-.13-.17-.45-.31-.81.39-.48.81-.96.64-1.76-.59.88-1.13 1.68-1.67 2.49-.09-.03-.18-.07-.28-.1 0-.2-.07-.43.01-.58.47-.81 1-1.59 1.47-2.4.56-.97.32-1.9-.21-2.87.24-.32.43-.74.76-1 .48-.38.71-.8.72-1.42.01-.29.17-.66.4-.85 1.18-.97 2.14-2.11 2.95-3.4.16-.25.47-.41.75-.65-.59-.62-.82-.01-1.26.35-.21-.37-.41-.72-.62-1.1.28-.25.51-.45.79-.7-.12-.18-.24-.35-.41-.6.28-.03.5-.06.72-.07.19 0 .4.1.55.03 1.21-.55 2.49-.69 3.8-.78 1.99-.13 3.97-.34 5.96-.48 1.3-.09 2.6-.11 3.93-.33-.27-.12-.53-.24-1.09-.5.68-.19 1.11-.42 1.53-.42 2.62-.01 5.23-.28 7.85.26 1.21.25 2.55-.15 4.09-.28-.65-.6-1.17-.37-1.65-.37-.7 0-1.42.04-1.93-.78h4.73l.09-1.41c1.35-.37 2.74-.24 4.03-.61-.01-.09-.01-.17-.02-.26-.62-.09-1.24-.14-1.84-.29-.56-.13-1.09-.36-1.69-.56-.05-.31-.11-.73-.19-1.25h2.32c.01-.05.02-.11.02-.16-.24-.11-.48-.22-.71-.33.41-1.25 1-1.6 2.28-1.29-.43-.58-.85-1.1-1.23-1.65-.38-.54-.72-1.1-1.11-1.7.74-.38 1.59.2 2.43.03.4-.52.82-1.05 1.27-1.64-.09-.11-.22-.29-.36-.48.76-.98 1.81.02 2.77-.42-.29-.3-.54-.57-.84-.89.83-.75 1.64.55 2.48-.02-.28-.83-.55-1.69-.88-2.52-.07-.18-.36-.3-.57-.38-.41-.15-.85-.22-1.26-.39-.26-.11-.62-.3-.68-.52-.07-.25.08-.65.27-.85.31-.32.65-.1.93.17.05.05.13.09.21.14.21-.24.38-.55.65-.72.27-.17.63-.19 1.12-.32-.61-.62-.85-1.24-1.56-1.52-.48-.19-.41-.66.09-.86.43-.17.84-.4 1.35-.08.24.16.65.07 1.08.09-.18-1.09-.64-1.85-1.37-2.63.39-.08.64-.12.89-.17.23-.97.22-.96-.52-1.4-.46-.27-1.06-.43-1.17-1.16.51-.32 1.03-.65 1.55-.98-.15-.76-1.5-.78-.88-1.72-.78-.4-1.45-.76-2.28-1.19.72-.52 1.31-.86 1.78-1.32.54-.53.21-1.19-.11-1.82.28-.12.48-.15.62-.27.42-.35.38-.92-.12-1.02-.97-.2-1.38-.84-1.67-1.68-.27-.79-.97-.91-1.65-.94-1.58-.07-3.17-.07-4.76-.09-.07 0-.13.08-.27.16-.03.28-.06.62-.09.91-.91-.09-1.74-.17-2.65-.27-.01-.14 0-.33-.04-.51-.11-.53-.44-.75-.81-.44-.78.65-1.63.62-2.56.61-1.71-.02-3.42.13-5.13.22-.73.04-1.4.16-1.81.92-.3.55-.89.43-1.41.38-1.62-.15-3.22.02-4.79.45-.67.19-1.35.36-2.21.59-.01.01-.07.23-.19.42-.34.5-.68.95-1.32 1.17-.7.25-1.33.71-1.99 1.07-.14.08-.28.2-.42.22-.84.09-1.45.47-1.96 1.16-.39.52-1.01.48-1.67.1-.7 1.16-1.92 1.09-2.96 1.46-.04-.08-.07-.16-.11-.24.42-.19.83-.38 1.29-.59-.8-.43-1.47-.26-2.26.53.15.32.7.66-.09 1.02-.23-.18-.5-.38-.86-.66-2.06.95-4.18 1.92-6.4 2.93l.53.5c-.71.81-1.49 1.13-2.62 1.02.31-.26.56-.47 1.03-.85-1.93.64-3.47 1.43-4.91 2.41-1.71 1.16-3.34 2.44-5.09 3.51-1.23.75-2.37 1.57-3.43 2.52-.08.07-.21.08-.33.1-.03.01-.07-.03-.23-.09.28-.37.54-.71.91-1.2-.95.08-1.67.35-2.25.86-.59.52-1.17 1.11-1.58 1.77-.6.95-1.16 1.89-2.11 2.56-.49.34-.82.76-.85 1.53-.04 1.06-.86 1.79-1.85 2.3.51 1.52-1.32 1.18-1.6 2.15.09.06.22.16.37.26-.01.07.01.19-.03.22-.46.28-1 .48-1.38.83-.38.35-.36 1.01-.93 1.31-.27.14-.42.56-.57.89-.85 1.89-1.68 3.78-2.52 5.67l-2.43 5.46c-.05.11-.09.22-.12.34-.73 2.85-2.06 5.52-2.52 8.46-.24 1.55-.66 3.07-.99 4.6-.03.12-.05.24-.05.36.06 2.55-.51 5.04-.78 7.55-.22 2.1-.11 4.2-.37 6.28-.09.68-.3 1.35-.51 2.25.04.05.25.31.47.59-.06.11-.08.27-.17.3-.36.16-.72.33-1.1.4-3.36.65-6.74 1.23-10.1 1.93-2.1.44-4.16 1.08-6.25 1.57-1.08.26-2.2.38-3.29.62-.52.12-1.02.37-1.52.58-.51.2-1.01.41-1.55.63-.81 1.03 0 1.78.64 2.59-.57.43-1.06.8-1.63 1.22-.01.95 1.21 2.04-.13 3.03.17.28.33.54.49.81-.19.18-.36.33-.57.52.5.84.21 1.54-.22 2.34-.34.63-.35 1.47-.39 2.22-.02.36-.06.65-.21.99-.25.58-.31 1.24-.45 1.87-.86.26-.46 1.17-.86 1.68-.17.22-.06.67-.03 1.01.06.76-.18 1.37-.97 1.73.27.35.48.62.79 1.03-.3.49-.63 1.02-.99 1.59.41.16.77-.31 1.21-.32.63 1.03.35 1.86-.9 2.45.55.49.71 1.08.42 1.79-.22.09-.47.19-.87.36.96.4.76 1.23.91 1.74-.48.62-.97 1.08-1.21 1.65-.09.22.39.68.66 1.11-.03.12-.15.38-.15.63 0 .55.09 1.09-.66 1.29-.19.05-.3.39-.48.63-.16-.19-.31-.36-.55-.65-.18.39-.33.71-.5 1.09.27.13.45.3.61.28 1.21-.16 2.4-.52 3.64-.21.15.04.35-.15.53-.24 1.32-.6 2.72-.78 4.23-.78-.19.23-.32.39-.54.66.33.12.58.32.8.28 1.01-.19 2.01-.44 3.02-.68.11-.03.24-.08.3-.17.71-.9 1.8-.9 2.73-.92 2.96-.05 5.88-.49 8.81-.79 1.74-.18 3.47-.45 5.2-.66.47-.06.95-.01 1.47-.01.08.27.2.49.2.71-.03 1.67-.04 3.35-.15 5.02-.1 1.58-.39 3.15-.44 4.73-.12 3.38-.11 6.75.53 10.11.5 2.61.78 5.28.83 7.95.01.74-.23 1.5.27 2.18.02.03.03.08.02.12-.45 1.75.39 3.45.23 5.19-.01.12-.04.23-.06.38-1.02-3.92-.83-7.98-1.66-11.9.14 8.41 1.41 16.71 2.13 25.09-.09.06-.18.13-.28.18-.67.31-1.32-.28-2.07.05-.65.29-1.49.19-2.24.2-.8.02-1.6-.02-2.4-.05-.76-.03-1.51-.06-2.27-.11s-1.51-.13-2.27-.2c-1.91-.18-3.81-.41-5.72-.54-1.83-.12-3.67-.11-5.5-.21-1.47-.08-2.95-.18-4.41-.36-3.38-.41-6.78-.41-10.17-.33-3 .07-5.98.12-8.98.01-2.51-.09-5.02.17-7.54.27-1.29.05-2.54.38-3.87.23-1.3-.15-2.64.11-3.95.02-2.35-.15-4.68-.45-7.03-.63-2.27-.18-4.37-1.08-6.56-1.58-1.21-.28-2.33-1-3.45-1.59-.77-.41-1.55-.86-2.21-1.42-.81-.69-1.64-1.43-2.21-2.31-.45-.69-.5-1.64-.75-2.46-.09-.28-.24-.54-.37-.8-.05-.09-.2-.2-.18-.24.43-.94-.29-1.58-.59-2.32-.15-.36-.31-.72-.5-1.14-.31.69-.32.69.26 2.71.26.9.56 1.79.84 2.69-.08.04-.15.08-.23.12-.27-.44-.56-.87-.79-1.33-.14-.28-.19-.61-.3-.91-.92-2.67-1.84-5.34-2.76-8.02-.71-2.06-1.26-4.16-1.65-6.3-.11-.62-.15-1.27-.68-1.74-.11-.09-.17-.28-.17-.43-.06-2.16-.91-4.16-1.25-6.25-.2-1.22-.57-2.35-1.02-3.49-.31-.79-.33-1.7-.49-2.55-.19-1.01-.38-2.03-.61-3.03-.1-.45-.33-.86-.49-1.29-.05-.14-.17-.3-.14-.43.28-1.33-.39-2.47-.75-3.67-.51-1.69-.92-3.4-1.24-5.14-.48-2.54-1.03-5.08-1.59-7.6-.63-2.84-1.25-5.67-1.58-8.58-.35-3.09-.84-6.17-1.39-9.24-.44-2.44-.48-4.9-.56-7.36-.05-1.71-.12-3.44.06-5.14.32-3.07.02-6.13.2-9.19.14-2.27.34-4.53.51-6.8.01-.12.04-.24.03-.36-.18-2.68.36-5.31.64-7.95.25-2.3.34-4.62.51-6.93.19-2.51.4-5.01.61-7.51.01-.12.06-.24.05-.35-.23-1.82.35-3.58.37-5.38.01-1.07.05-2.14.08-3.21.08-2.51.14-5.02.25-7.53.13-2.66.36-5.32.46-7.99.08-2.22.02-4.45.04-6.67.02-3.26.07-6.51.05-9.77-.01-1.35-.19-2.7-.27-4.04-.04-.71-.05-1.42.02-2.12.02-.26.23-.62.46-.74 1.63-.83 3.29-1.63 4.95-2.39 1.54-.71 3.21-.54 4.84-.55 4.35-.03 8.71-.02 13.06.02 1.4.01 2.79.18 4.18.19 1.15.01 2.3-.11 3.45-.14.55-.01 1.1.11 1.65.08.87-.04 1.73-.19 2.6-.24 2.15-.12 4.3-.19 6.45-.34 1.27-.09 2.52-.3 3.79-.41.63-.05 1.27.02 1.91.03 2.39.02 4.79-.05 7.17.09 1.84.11 3.65.02 5.47-.13.12-.01.24-.04.36-.01 1.35.34 2.7.07 4.04-.08 1.54-.18 3.05-.15 4.57.14.23.04.48.05.71.04 1.63-.05 3.27-.09 4.9-.17.38-.02.76-.19 1.14-.29.22-.06.49-.21.67-.14 1.3.53 2.6-.1 3.91.03.3.03.66-.07.91-.24.98-.65 1.99-.79 3.16-.6.84.13 1.75-.05 2.6-.22 2.3-.47 4.67-.44 6.94-1.15.9-.28 1.96-.05 2.95-.05.36 0 .75.12 1.06.01.98-.33 1.97-.18 2.96-.19 1.19-.01 2.35-.12 3.51-.5.57-.19 1.26-.16 1.86-.03 1.6.33 3.18.02 4.76.01 1.1-.01 2.17-.19 3.25-.64.77-.33 1.8-.07 2.71-.06.24 0 .5.14.7.07 1.6-.55 3.25-.09 4.87-.22 2.3-.18 4.62-.06 6.94-.08 2.47-.02 4.94-.07 7.41-.09 1.08-.01 2.16.08 3.23.02 1.91-.12 3.81-.3 5.71-.5.82-.09 1.63-.33 2.45-.43 2.04-.25 4.09-.04 6.13.07.6.03 1.19.07 1.79.1 1.63.07 3.27.15 4.9.18.71.01 1.43-.13 2.14-.11 2.27.04 4.54.11 6.81.2 2.26.09 4.52.22 6.78.34.4.02.79.17 1.18.16.87-.03 1.73-.16 2.6-.17.85-.01 1.74-.38 2.52.3.12.1.38.08.56.05 1.12-.18 2.16.02 3.23.43.74.28 1.64.27 2.44.2.56-.05 1.01.06 1.49.26.59.25 1.16.55 1.78.69.44.1.95.04 1.4-.07.51-.12.92-.03 1.36.24.43.26.92.42 1.38.63.57.26 1.12.58 1.71.77.59.2 1.22.3 1.84.39.39.06.8-.04 1.18.06 1.08.27 2.13.7 3.23.88 1.35.23 1.85 1.25 2.42 2.23.24.41.41.89.45 1.36.04.43-.14.89-.24 1.47.5.74.88 1.68.7 2.84h-.8c.09.57.17 1 .8 1.23.26.09.44.62.51.98.33 1.92.54 3.87.94 5.78.55 2.62.58 5.3 1.14 7.91.12.54.05 1.11.1 1.67.09.91.2 1.81.31 2.71.16 1.35.36 2.69.5 4.04.22 2.14.42 4.28.61 6.42.12 1.31.21 2.62.33 3.93.1 1.07.22 2.13.36 3.19.03.22.15.43.29.82.48-.89.36-1.69.36-2.44-.01-1.12-.13-2.23-.26-3.34-.11-.95-.32-1.89.01-2.84.09-.25.08-.58-.01-.83-.47-1.26-.3-2.61-.5-3.9-.08-.5-.01-1.02-.01-1.67.72.5 1.16 1.14 1.95 1.13.44-1.09.43-2.14.04-3.35-.66.66-.02 1.51-.61 2.14-.42-.62-.4-1.28-.43-1.92-.07-1.22-.13-2.45-.21-3.67-.05-.79-.08-1.59-.21-2.36-.13-.74-.39-1.46-.59-2.18-.11-.38-.24-.77.19-1.14.93.81.37 2.08 1.06 3.12-.07-1.4-.1-2.66-.19-3.9-.07-.84-.36-1.11-1.16-1.17-.06-.33-.13-.67-.21-1.09l.59.17c.51-1.38.11-2.75-.1-4.1-.29-1.89-.71-3.77-.95-5.67-.17-1.37-.12-2.78-.22-4.16-.07-.95-.24-1.89-.36-2.84-.03-.26-.06-.52.06-.84.09.11.23.21.25.33.26 1.41.51 2.81.73 4.23.29 1.85.53 3.71.8 5.57.08.55.18 1.1.29 1.65l1.71 8.58c.05.23.19.48.15.7-.36 2.05.51 4.03.32 6.07-.01.11.01.24.06.35.62 1.46.29 2.98.34 4.48.02.47.05.94.13 1.41.18 1.17.6 2.32.19 3.52-.07.21 0 .47.04.7.13.86.29 1.72.41 2.58.2 1.46.38 2.91.54 4.37.06.51.03 1.02.06 1.53.07 1.32-.25 2.64.25 3.97.23.63.53 1.41-.01 2.16-.15.21-.02.62-.03.93-.02.59.02 1.2-.09 1.78-.09.45-.2.82.12 1.23.14.19.16.53.12.79-.13 1.11-.3 2.21-.46 3.32-.04.28-.1.56-.07.83.12 1.58.26 3.15.41 4.73.18 1.98.3 3.96.58 5.93.15 1.03.27 2.02.2 3.07-.04.64.3 1.29.42 1.95.18.93.34 1.87.49 2.81.09.54.32.9 1.03.73.04.46.06.82.11 1.45-.26-.55-.4-.85-.64-1.39-.32 1.01-.12 1.68.23 2.35.4-.19.77-.37 1.15-.53.35-.15.68.11.59.34-.3.78.25 1.37.31 2.05.01.08-.02.16-.03.26-.2.06-.53.06-.58.18-.11.25-.08.57-.11.97.41-.08.66-.13.89-.18.47.74.29 1.36-.28 1.88.37.27.67.49 1.05.78.07-.03.27-.11.46-.18.51.53.24 1.07.14 1.61-.07.35-.18.62-.61.37-.12.91-.12.91.72 1.01.12.71.25 1.44.41 2.32-.27-.1-.45-.17-.7-.26-.06.47-.13.93-.16 1.4-.01.13.15.39.18.38.62-.17.85.27.83.68-.02.42.35.68.18 1.2-.2.63-.23 1.56.11 2.05.34.48.05.9.27 1.26.31.52-.11.89-.17 1.32-.07.53.13 1.11.23 1.83-.31.23-.52.71-.25 1.3.42.92.36 1.92.5 2.89.05.36 0 .65-.27 1.04-.47.66-.28 1.53.18 2.23.57.88.56 1.78.22 2.71-.28.76-.64 1.48.21 2.15.19.15.16.56.23.84-.31.11-.52.19-.88.32.35.21.56.34.83.5 0 .48-.06.95-.3 1.5-.3.68-.22 1.53.18 2.27.11.21.2.58.1.73-.56.8-.43 1.72-.38 2.55.14 2.02.43 4.04.71 6.05.17 1.29.58 2.52.48 3.86-.07.86.19 1.75.47 2.67.12-.35.24-.69.38-1.11 0 .42.07.8-.01 1.13-.47 1.93-.01 3.98-.84 5.87-.13.3-.01.7-.02 1.06-.02.43.08.89-.42 1.16-.12.07-.16.32-.18.49-.28 1.85-.4 3.72-.99 5.52-.2.62-.19 1.31-.34 1.95-.23.99-.23 2.04-.95 2.91-.36.44-.6 1-.51 1.67.15.98-.58 1.71-.89 2.56-.7 1.86-1.31 3.8-2.64 5.34-1.08 1.25-2.24 2.44-3.36 3.66-.27.29-.55.58-.79.89-.29.37-.6.6-1.06.82-.68.31-1.24.99-1.7 1.62-.56.77-1.36 1.09-2.15 1.45-.22.1-.55-.06-.61-.07-.76.33-1.36.6-1.97.86-.07.03-.17.04-.22.1-.64.7-1.53.71-2.37.92-2.04.52-4.05 1.13-6.04 1.82-2.36.82-4.8 1.18-7.24 1.57-1.93.3-3.87.58-5.81.8-1.11.12-2.24.07-3.35.14-1.14.07-2.32-.04-3.32.73-.2.16-.53.21-.8.2-1.96-.08-3.88.21-5.82.47-1.52.2-3.1-.08-4.65-.15-.44-.02-.88-.09-1.31-.07-3.47.15-6.93.34-10.4.48-2.1.08-4.2.07-6.3.14-3.47.1-6.94.2-10.4.36-1.46.07-2.9.55-4.53.22-.03-.5-.06-1.04-.09-1.58-.03-.52-.01-1.04-.08-1.54-.37-2.54-.84-5.07-1.13-7.62-.29-2.61-.39-5.25-.6-7.87-.07-.82-.14-1.67-.37-2.45-.17-.58-.09-1 .29-1.37-.76-1.46-.84-3.02-.97-4.55-.17-2.01-.2-4.03-.28-6.05-.01-.28-.02-.57.04-.84.36-1.65.15-3.31.04-4.96-.02-.29-.08-.48.31-.63.2-.08.44-.67.35-.78-.46-.58-.32-1.23-.35-1.86-.03-.63-.14-1.26-.1-1.88.17-2.23.59-4.46.51-6.67-.05-1.38.63-2.42.8-3.78.6-.06 1.18-.17 1.76-.17 2.52.01 5.01-.15 7.49-.61.97-.18 1.97-.48 3.02.05.44.22 1.24-.06 1.78-.32.94-.46 1.88-.49 2.88-.42.69.05 1.39-.1 2.1-.17.17.34.33.64.53 1.05 1.33-.97 2.28-2.75 4.31-1.75l.8-1.32h.72c.01-.06.01-.11.02-.17l-.88-.17c.38-.62.68-1.14 1.42-1.2.33-.03.56-.16.64-.57.04-.23.33-.44.54-.61 1.03-.87 2.07-1.73 3.11-2.58.21-.17.5-.26.71-.43.26-.21.54-.44.73-.71.52-.76 1.03-1.5 1.97-1.84.3-.11.66-.4.76-.69.2-.61.64-.96 1.09-1.35.8-.7 1.51-1.52 2.93-1.11-.33-.88.02-1.31.46-1.66.43-.35.91-.64 1.44-1.01-.77-.43-1.48-1-1.03-2.11.28 0 .6.07.88-.02.29-.09.53-.34.79-.52-.25-.6-.25-.6-1.5-.85.14-.21.23-.43.38-.56.25-.21.48-.37.41-.78-.03-.17.16-.47.33-.56.69-.38 1.41-.7 2.18-1.08-.61-.64.38-.89.45-1.44-.52-.55-.93-.01-1.37.17.13-.82.5-1.24 1.43-.99-.1-.38-.09-.76-.25-.87-.77-.49-.46-.87.04-1.29.12-.1.2-.23.23-.26-.29-.54-.53-1-.79-1.49-.36.04-.45.25-.33.65.18.56-.27.75-.64.71-.47-.05-.93-.3-1.63-.56 1.34-.93 2.38-1.8 3.73-2.26-.19.02-.38.03-.56.06-.54.08-1.12.25-1.48-.36-.34-.57-.09-1.05.32-1.48.05-.05.07-.14.13-.25-.34-.16-.69-.33-1.03-.49-.05-.11-.09-.22-.14-.33.39-.14.77-.28 1.17-.43-.54-.6-.89-.64-1.21-.43-.68.44-1.01.12-1.28-.52.13-.06.24-.09.32-.15.9-.65 1.72-.95 2.65.05.18.28.93.07 1.43.07-.46.24-.93.47-1.5.76.26.04.41.07.56.09.12.02.23.03.35.03.68.03.77-.12.59-.88zm-82.51 59.56c.48-.42.33-.88 0-1.35.01.45.01.9 0 1.35.13.51.25 1.01.42 1.69.37-1.14.3-1.33-.42-1.69zm-10.36-54.08c.92.48 2.43.1 3.35-.8l-3.35.8zm128.49-49.78c-.6.47-.32 1.08-.24 1.62.02.15.38.24.62.39.15-1.12.15-1.12-.38-2.01zm.65-20.37c.76-.75.75-1.36 0-2.67v2.67zM134.23 210.41c.4-.69.15-2.41-.4-2.99.13 1 .27 2 .4 2.99zm128.56-10.72c.12.04.23.08.35.13-.02-1.07.71-2.01.58-3.11-.08-.02-.16-.03-.24-.05l-.69 3.03zm-10.93-92.22c-.43.63-.47.97-.21 1.83.66-.53.67-.63.21-1.83zm6.72 31.3c-.38.97-.24 2.49.23 3.18.41-.61-.24-1.04-.23-1.56.01-.54 0-1.08 0-1.62zm-6.7-18.22c.43-.71.31-1.83-.12-2.49l.12 2.49zm-4.96-50.81c-.25 1.19-.24 1.21.77 1.74-.28-.63-.48-1.08-.77-1.74zM133.41 221.58c-.13-.87-.24-1.56-.35-2.29-.18.78-.37 1.5.35 2.29zm83.58-72.99c-.54.09-1.06.17-1.74.28 1.35.56 1.69.49 1.74-.28zm47.8 42.62c-.54 1.09-.54 1.09-.26 2.07.18-.73.64-1.23.26-2.07zm-13.05-75.95c.13.56-.67 1.05-.05 1.76.46-.63.16-1.2.05-1.76zm-117.6 114.91c.05-.01.1-.02.15-.04-.09-.36-.18-.73-.26-1.09l-.14.03c.08.37.17.73.25 1.1zm120.19-106.28c.09 0 .18.01.26.01.25-.45-.11-.83-.26-1.24v1.23zm3.91 13.04v1.28c.38-.5.53-.82 0-1.28zm-40.5 12.97c-.7-.27-.7-.27-1.17.29.49-.12.83-.21 1.17-.29zm-85.08 45.97c-.04 0-.08 0-.12.01v.96c.05 0 .11-.01.16-.01-.01-.32-.03-.64-.04-.96zm1.84 36.14c-.11.02-.23.03-.34.05.06.27.12.53.2.8 0 .02.12 0 .26 0l-.12-.85zM253.58 95.63c.06 0 .11-.01.17-.01v-.9c-.08.01-.16.01-.24.02.02.29.04.59.07.89zm-1.33-7.86c-.19-.16-.3-.25-.4-.34-.08.12-.19.23-.23.36-.02.06.13.23.19.22.12-.02.23-.12.44-.24zm1.25 5.21c-.06.01-.12.01-.18.02l.09.72c.06-.01.12-.02.18-.02-.04-.24-.06-.48-.09-.72zm-38.74 14.05c-.19-.08-.32-.18-.4-.16-.13.04-.23.16-.34.25.09.1.18.28.27.29.1 0 .21-.16.47-.38zm49.41 87.74c.08-.13.21-.26.18-.3-.06-.1-.19-.16-.29-.24-.04.1-.12.2-.11.29.01.08.12.14.22.25zm-4.83-57.18c.09-.14.19-.22.19-.3-.01-.08-.12-.16-.18-.23-.06.08-.17.15-.18.23-.02.07.08.16.17.3zm-45.25 20.9-.36 1.03c.5-.21.77-.36.36-1.03zm-24.92-13.64c0-.05 0-.11-.01-.16-.23.02-.47.03-.7.05 0 .04 0 .07.01.11h.7zM129.02 254.38c.13-.24.2-.43.25-.43 1.13.06 2.19-.46 3.32-.4 1.15.06 2.32.13 3.46.04 1.91-.15 3.79.44 5.7.17.21-.03.46.07.66.17.4.2.74.23 1.07-.15.11-.12.41-.24.51-.18 1.1.67 2.24.12 3.36.12 1.18-.01 2.36-.03 3.55-.08 1.33-.06 2.66-.1 3.99-.24.49-.05.94-.35 1.46-.56.13.29.23.49.28.61 3.9.13 7.72-.65 11.64-.48-.03.61-.39.74-.8.76-.73.05-1.46.06-2.19.11-1.51.1-3.02.22-4.54.33-3.42.23-6.84.48-10.26.68-.94.05-1.89-.16-2.82-.05-2.27.27-4.53-.03-6.79-.06-3.75-.06-7.5-.17-11.24-.26-.16-.01-.31-.05-.61-.1z"/><path class="st0" d="M179.56 84.26c.14-1.01.4-1.28 1.26-1.44 1.63-.3 3.26-.63 4.9-.89 1.16-.19 2.33-.28 3.51-.34-3.05 1.32-6.3 1.96-9.67 2.67zM182.42 252.56c-2.08.68-4.05 1.01-6.11.59-.79-.16-1.63-.28-2.46.12-.54.25-1.14.03-1.94-.36.46-.2.84-.47.93-.4.73.63 1.46-.23 2.16.05 1.53-.6 3.13-.21 4.7-.34.74-.06 1.5.02 2.24.07.13 0 .25.13.48.27zM215.53 25.77c-.49.11-.99.33-1.48.31-2.61-.13-5.21-.34-7.82-.5-.59-.04-1.18.02-1.77-.02-.16-.01-.31-.22-.41-.57.33-.02.66-.07.99-.06 2.14.11 4.28.23 6.43.34.99.05 1.97.07 2.95.16.37.03.72.24 1.08.36.02.01.03-.02.03-.02zM169.99 87.51c1.39.43 1.93.2 2.83-1.16.15-.22.66-.42.89-.33.63.23 1.07-.07 1.58-.29.53-.23 1.08-.41 1.62-.61.04.08.09.15.13.23-.13.14-.24.35-.4.42-2.06.93-4.12 1.85-6.18 2.76-.77.34-1.52.7-2.3 1-.25.1-.56.04-.84.06l-.06-.23c.89-.6 1.79-1.21 2.73-1.85zM107.53 29.23c2.85-.16 5.7-.31 8.74-.48-.9.71-1.69.87-4.44.91-1.44.03-2.87 0-4.31 0 .01-.14.01-.29.01-.43zM206.16 110.86c-.13.15-.19.29-.28.32-1.02.33-2.06.48-3.1.12-.18-.06-.42-.34-.39-.47.04-.23.29-.61.42-.59 1.09.13 2.31-.35 3.35.62zM93 255.11c.61-.06 1.21-.12 2.08-.2-.32.3-.43.41-.65.62 1.2.12 2.28.22 3.45.33-1.04.61-3.96.44-5.35-.26.1-.25.75.04.51-.53l-.04.04zM124.55 28.21c-.66.93-1.53 1.04-2.15.94-1.23-.19-2.37.01-3.55.23-.06.01-.14-.05-.33-.12.12-.18.21-.46.33-.47 1.81-.2 3.62-.38 5.7-.58zM91.32 29.67c-.3.03-.59.09-.89.1-2.21.11-4.42.22-6.63.26.71-.45 6.12-.81 7.52-.36zM113.96 257.33c1.56.21 2.94-.44 4.44.17-2.99.51-3.48.5-4.44-.17zM258.92 107.4c-.29-1.42-.23-2.84-.01-4.36.19.25.32 1.37.31 2.23v2.13h-.3zM249.79 64.61c.2.95.41 1.9.63 2.94-.98-.99-1.05-1.25-.63-2.94zM192.35 77.38c.4-.77.64-.83 2.39-.52-.85.37-1.52.83-2.39.52zM94.14 29.4c-.82.72-1.11.7-1.94-.09.78.04 1.36.06 1.94.09zM94.89 256.75l-3.19-.27c.01-.08.01-.17.02-.25 1.09-.17 2.12.22 3.19.27 0 .09-.01.17-.02.25zM276.36 128.46c-1.02-.32-1.05-.42-.69-1.85.28.73.49 1.29.69 1.85zM98.34 256.86c-.68 0-1.36 0-2.05-.01-.09 0-.19-.08-.26-.31.39.04.77.09 1.16.12.38.03.76.05 1.14.07.01.05.01.09.01.13zM198.92 145.7c-.62-.12-.98-.18-1.34-.25l-.03-.25c.34-.13.67-.25 1.09-.41.09.27.15.47.28.91zM109.2 257.37c.84.05 1.68.1 2.63.16h-2.64c0-.06 0-.11.01-.16zM275.9 126.15c-.57-.68-.48-1.34-.1-2.22.04.85.07 1.5.1 2.22zM106.07 256.96l1.99.21c-.72.45-1.36.11-2.03.1.02-.1.03-.2.04-.31zM46.71 251.38c.39.21.79.42 1.18.63-.67.38-1.07.18-1.35-.3.06-.11.12-.22.17-.33zM197.61 146c-.63.19-1.12.67-1.59-.27.55.17 1-.34 1.59.27zM170.1 252.64c-.03.77-.03.77-1.17.86.44-.32.73-.53 1.17-.86zM196.33 145.12l-1.38.57c-.04-.1-.09-.21-.13-.31.45-.2.9-.4 1.35-.59.05.11.1.22.16.33zM265.24 186.57c.04-.27.1-.54.11-.81.02-.3 0-.61.12-.91v1.74c-.07 0-.15-.01-.23-.02zM274.41 98.37c.05.66.07 1.06.1 1.45-.26-.38-.77-.72-.1-1.45zM60.11 253.75h-1.5c0-.07 0-.13.01-.2.5.02.99.04 1.49.07v.13zM102.28 256.82h-1.24c.54-.44.89-.14 1.24 0zM250.92 83.21v1.24c-.04 0-.07.01-.11.01v-1.24c.04 0 .07-.01.11-.01zM137.18 195.62c-.02.43-.05.85-.07 1.28h-.08l-.09-1.27c.09 0 .17-.01.24-.01zM191.42 146.24c.3.04.61.07.91.11-.01.09-.01.19-.02.28-.31-.03-.61-.07-.92-.1l.03-.29zM113.61 257.74c-.27.03-.54.07-.82.1-.01-.11-.03-.21-.04-.32.27-.04.54-.07.81-.11.02.11.04.22.05.33zM22.6 215v-.93c.56.61.56.61-.04.9l.04.03zM209.37 109.72h1.3c-.57.37-.93.29-1.3 0zM167.69 87.52c.18-.12.36-.25.54-.37.05.07.1.15.15.22-.18.12-.36.24-.54.37-.05-.07-.1-.15-.15-.22zM216.96 97.32c.2-.01.39-.03.59-.04.01.07.01.14.02.21-.2.02-.39.03-.59.05-.01-.08-.02-.15-.02-.22zM124.28 257.25c-.26.01-.52.03-.79.04l-.03-.28c.28-.02.56-.04.83-.05 0 .09-.01.19-.01.29zM24.05 218.41c.08.27.15.53.23.8-.06.02-.13.04-.19.07-.09-.25-.19-.5-.28-.75l.24-.12zM135.11 192.92l.03-.62.29.06c-.06.2-.11.39-.17.59l-.15-.03zM121.93 257.25c.22-.04.44-.09.65-.13l.03.15-.67.06c0-.02 0-.05-.01-.08zM194 112.4c.2-.01.4-.03.6-.04 0 .04.01.08.01.12-.2.03-.39.06-.59.1-.01-.07-.01-.13-.02-.18zM167 242.62l.33-.39c.05.04.11.08.16.11-.09.15-.18.31-.27.46-.08-.06-.15-.12-.22-.18zM210.49 147.4c-.07-.16-.16-.27-.14-.34.03-.07.16-.11.26-.13.05-.01.11.07.16.11-.05.08-.1.15-.28.36zM22.44 212.42l.15.56c-.07.02-.14.04-.2.06-.06-.18-.12-.37-.18-.55.08-.02.16-.04.23-.07zM221.42 234.59c-.11.1-.18.21-.25.22-.09 0-.17-.09-.26-.14.06-.08.11-.2.18-.22.08-.01.18.07.33.14zM267.93 220.09c-.05.13-.09.25-.15.38l-.1-.03.09-.39c.06.01.11.02.16.04zM137.01 198.9v-.68c.05 0 .11 0 .16.01-.01.23-.03.45-.04.68-.04-.01-.08-.01-.12-.01zM175.83 132.68c-.05.13-.08.27-.16.39-.05.08-.15.12-.45.35.25-.43.36-.62.47-.8.05.02.09.04.14.06zM115.94 188.68c.06.03.11.07.17.1-.04.05-.08.13-.12.13-.06 0-.11-.06-.17-.09.04-.05.08-.09.12-.14z"/><path d="m123.03 150.95 3.35-.8c-.92.9-2.43 1.28-3.35.8zM251.52 101.17c.52.89.52.89.38 2.01-.25-.15-.6-.25-.62-.39-.08-.53-.36-1.14.24-1.62zM252.17 80.8v-2.67c.75 1.31.76 1.92 0 2.67zM134.23 210.41c-.13-1-.27-1.99-.4-2.99.55.58.8 2.3.4 2.99zM262.79 199.69c.23-1.01.46-2.02.68-3.03.08.02.16.03.24.05.13 1.1-.59 2.03-.58 3.11-.1-.04-.22-.09-.34-.13zM251.86 107.47c.45 1.2.44 1.3-.21 1.83-.26-.86-.22-1.2.21-1.83zM258.58 138.77v1.62c-.01.52.64.95.23 1.56-.47-.69-.61-2.21-.23-3.18zM251.88 120.55l-.12-2.49c.43.66.54 1.78.12 2.49zM246.92 69.74c.29.66.49 1.1.77 1.74-1.01-.52-1.02-.55-.77-1.74zM133.41 221.58c-.72-.79-.54-1.52-.35-2.29.12.74.22 1.42.35 2.29zM216.99 148.59c-.05.77-.39.84-1.74.28.68-.11 1.21-.19 1.74-.28zM264.79 191.21c.38.84-.08 1.34-.26 2.07-.28-.98-.28-.98.26-2.07zM251.74 115.26c.11.55.41 1.12-.05 1.76-.62-.71.18-1.2.05-1.76zM215.9 145.47c.18.76.09.9-.58.88-.12 0-.24-.02-.35-.03-.15-.02-.3-.05-.56-.09.56-.29 1.02-.52 1.49-.76.01.01 0 0 0 0zM133.38 205.04c.73.35.8.55.43 1.69-.17-.68-.29-1.18-.41-1.69h-.02zM134.14 230.17c-.08-.36-.17-.73-.25-1.09l.14-.03c.09.36.18.73.26 1.09l-.15.03zM254.33 123.89v-1.23c.16.41.51.79.26 1.24-.08-.01-.17-.01-.26-.01zM258.24 136.93c.53.46.38.78 0 1.28v-1.28zM217.74 149.9c-.34.09-.68.17-1.17.29.47-.57.47-.57 1.17-.29zM132.66 195.87c.01.32.03.64.04.95-.05 0-.11.01-.16.01v-.96c.04.01.08 0 .12 0zM134.5 232.01c.04.28.08.56.11.85-.14 0-.25.01-.26 0-.07-.26-.13-.53-.2-.8.12-.01.24-.03.35-.05zM253.58 95.63c-.03-.3-.05-.59-.08-.89.08-.01.16-.01.24-.02v.9c-.05 0-.11 0-.16.01zM252.25 87.77c-.21.12-.32.22-.45.24-.05.01-.2-.16-.19-.22.04-.13.15-.24.23-.36.11.08.21.17.41.34zM133.4 205.04v-1.36c.33.47.48.93 0 1.36-.02 0 0 0 0 0zM253.5 92.98c.03.24.05.48.08.72-.06.01-.12.02-.18.02l-.09-.72c.07 0 .13-.01.19-.02zM214.76 107.03c-.26.22-.37.38-.47.38-.09 0-.18-.18-.27-.29.11-.09.21-.21.34-.25.08-.02.21.08.4.16zM264.17 194.77c-.09-.11-.2-.17-.21-.25-.01-.09.07-.19.11-.29.1.08.22.14.29.24.01.04-.11.17-.19.3zM259.34 137.59c-.09-.14-.18-.23-.18-.31.01-.08.12-.15.18-.23.07.08.18.15.18.23.01.09-.09.18-.18.31zM214.09 158.49c.41.68.14.82-.36 1.03l.36-1.03zM189.17 144.85h-.7c0-.04 0-.07-.01-.11.23-.02.47-.03.7-.05 0 .05 0 .11.01.16z"/></svg>