<svg version="1.1" id="Vrstva_1" xmlns="http://www.w3.org/2000/svg" x="0" y="0" viewBox="0 0 285.24 285.24" style="enable-background:new 0 0 285.24 285.24" xml:space="preserve"><style>.st0{fill:#fff}</style><path d="M24.09 100.99c.17.23.32.43.56.75.34-1.14.06-2.24.64-3.37l-1.02.09c.05-.87.07-1.7.16-2.52.13-1.21-.22-2.43.17-3.63.21-.64.26-1.32.44-1.97.35-1.27.41-2.56.44-3.86 0-.19.1-.38.26-.54-.03.76-.07 1.51-.1 2.27.89-.67 1.1-1.52 1-2.49-.09-.79-.22-1.58-.22-2.38 0-.71.04-1.45.25-2.12.19-.63.46-1.19.01-1.8a.366.366 0 0 1-.04-.23c.13-.87.28-1.74.45-2.83.3.89.32 1.62.46 2.39.1-.33.33-.69.27-.99-.23-1.26.36-2.4.47-3.61.05-.53.32-1.04.45-1.56.08-.33.09-.68.11-1.03.05-.92.21-1.11 1.18-1.28v3.83h.22c.07-1.1 1.16-1.68 1.34-2.74.11-.61.59-.92 1.26-.82.19.03.39 0 .61 0 .5-.79 1-1.56 1.47-2.34.1-.16.1-.38.12-.57.12-1.18.2-2.36.36-3.53.05-.37.27-.73.45-1.08.52-1 1.08-1.97.83-3.19-.05-.24.17-.6.36-.82.59-.71.92-1.45.82-2.41-.04-.34.15-.77.38-1.05.79-.95 1.64-1.84 2.47-2.76 1.34-1.48 2.69-2.94 4-4.43 1.39-1.58 2.72-3.21 4.12-4.78.24-.27.67-.4 1.04-.55.92-.37 1.85-.72 2.78-1.06.18-.07.37-.1.56-.11.42-.02.88.1 1.25-.04.99-.37 1.93-.85 2.9-1.28.25-.11.54-.16.78-.28.42-.22.82-.46 1.23-.71.39-.24.77-.5 1.17-.73.68-.38 1.47-.67 1.32-1.66.5-.29.96-.59 1.45-.83.22-.1.52-.11.77-.07.39.07.76.22 1.34.4-.82.17-1.47.3-2.13.44-.01.06-.01.13-.02.19.19.08.39.23.58.23 1.63-.03 3.27 0 4.89-.16 2.02-.19 4.02-.51 6.02-.84 1.48-.25 2.94-.61 4.41-.9.85-.17 1.66-.33 2.58-.14.99.2 2.06.05 3.08-.02 1.79-.12 3.58-.29 5.36-.43.12-.01.24-.03.36-.02 1.95.28 3.75-.37 5.59-.82.68-.16 1.43-.14 2.14-.1.82.05 1.64.21 2.46.31.74.09 1.49.1 2.21.26 2.03.47 4.06.06 6.08.02.53-.01 1.05-.33 1.59-.46.46-.1 1.04-.32 1.41-.15 1.53.71 2.89-.23 4.33-.3.9-.04 1.78-.35 2.68-.47 1.25-.17 2.44-.76 3.75-.57.67.1 1.35.15 2.02.23 1.86.22 3.65-.34 5.47-.46 1.22-.09 2.43-.26 3.64-.43.58-.08 1.14-.25 1.71-.38.27-.07.53-.18.81-.22 1.61-.22 3.21-.48 4.82-.61.76-.06 1.55.15 2.33.23.2.02.42.05.59-.01 1.96-.75 4.02-.25 6.03-.47.3-.03.62.06.94.1.19.02.4.13.57.07 2.01-.64 4.09-.43 6.15-.55 1.11-.06 2.22-.25 3.33-.38 1.34-.16 2.72-.58 4.02-.41 1.53.21 2.9.09 4.27-.55.99.49 1.81-.43 2.74-.34 1.93.18 3.67-.75 5.54-.91.44-.04.87-.13 1.31-.12 2.08.07 4.08-.32 6.08-.85 2.26-.6 4.56-1.08 6.86-1.54 1.6-.32 3.22-.52 4.83-.78.12-.02.25.01.36-.03.36-.14.72-.44 1.07-.43 2.18.07 4.37-.39 6.55.12.42.1.87.15 1.3.12 1.7-.1 3.39-.24 5.09-.34.79-.05 1.59-.05 2.38-.08 1.1-.04 2.21-.05 3.3-.13.53-.04 1.04-.32 1.56-.35 1.35-.1 2.7-.12 4.05-.17.12 0 .25-.01.36.02.97.31 1.92.21 2.93.07 1.05-.15 2.14 0 3.21.03 1.15.04 2.36-.12 3.44.18 1.78.49 3.64.04 5.4.69 1.37.5 2.92.57 4.2 1.22 1.41.72 3.01.55 4.39 1.32 1.07.59 1.95 1.25 2.6 2.34.74 1.24 1.33 2.52 1.93 3.82.54 1.17 1.32 2.22 1.98 3.33.24.41.53.82.63 1.27.19.89.78 1.42 1.52 2.11.11-.55.19-.94.29-1.43.39.2.72.38 1.14.6.12-.45.22-.84.34-1.32.39.17.69.3 1.05.46.07-.15.16-.28.19-.42.16-.71.15-.71.97-1.1.21.25.41.53.65.78.39.4.77.35 1.03-.15.2-.38.35-.79.59-1.33.31.31.63.51.76.8.37.87.89 1.69.9 2.71.01.45.21.93.4 1.35.32.71.75 1.3.49 2.22-.16.56.15 1.35.46 1.93.73 1.34.5 2.79.67 4.19.22 1.85.36 3.72.49 5.58.09 1.35.56 2.69.23 4.07-.04.18-.03.43.06.59.47.85.29 1.68-.02 2.52-.07.18-.1.43-.02.58.59 1.12.34 2.36.27 3.49-.07 1.2.37 2.31.22 3.49-.13 1-.2 2.02-.24 3.03-.05 1.13-.05 2.27-.04 3.4 0 .21.21.42.24.64.04.33.13.78-.04.98-.55.66-.5 1.44-.47 2.17.03.7.21 1.36.04 2.1-.14.63.05 1.33.11 2 .02.28.17.59.09.82-.38 1.07.22 2.14-.09 3.22-.15.53-.03 1.13-.03 1.9.26.19.52.55.52 1.2-.01 1.12.44 2.22.14 3.37-.1.37.03.79.05 1.19.09 1.51.2 3.01.27 4.52.09 1.78.01 3.59.26 5.35.2 1.45.02 2.89.22 4.3.14 1.01-.29 2.02.2 3.03.18.37-.08.93-.05 1.4.12 1.98.27 3.96.42 5.94.03.4.13.79.19 1.18.03.2.16.44.09.58-.56 1.14.08 2.27.02 3.39-.05.99-.27 1.98-.28 2.97-.02 1.26.13 2.52.15 3.78.03 1.38 0 2.77-.01 4.16 0 .12-.06.26-.02.36.66 1.61-.15 3.26.13 4.89.12.68-.1 1.41-.09 2.11 0 .35-.34.9.39 1.01.04.01.05.22.06.33.06 1.07.11 2.14.17 3.23-.24.22-.66.42-.7.68-.11.73-.23 1.52-.05 2.21.29 1.07.32 2.07.02 3.13-.25.88.16 1.69.59 2.51.09-.58.18-1.15.29-1.82.6.34.36.87.35 1.27-.02 1.82-.04 1.82-.57 2.32v-1.04c-.12.04-.23.06-.23.08-.11 1.82-.43 3.67-.24 5.46.21 2.04.32 4.07.36 6.1.05 2.13-.11 4.27-.13 6.41-.01 1.25.07 2.5.1 3.75.01.44.05.9-.05 1.32-.33 1.42.28 2.79.15 4.2-.14 1.41-.19 2.83-.27 4.25-.04.66.15 1.42-.13 1.96-.62 1.22-.57 2.51-.71 3.79-.1.88-.39 1.75-.65 2.61-.81 2.63-1.23 5.33-1.73 8.03-.4 2.12-1.07 4.16-2.08 6.08-.14.27-.2.59-.3.89-.11.33-.22.65-.35.97-.17.42-.35.76-.29 1.31.08.73-.21 1.56-.51 2.27-.38.91-.92 1.75-1.43 2.6-.3.49-.09.73.22.84-.35.33-.74.69-1.18 1.1l.66.51c-.29.43-.54.83-.82 1.21-.14.18-.33.44-.51.45-1.37.1-1.35 1.23-1.63 2.13-.12.37-.05.81-.21 1.15-.74 1.49-1.33 3.07-2.73 4.15-.61.47-1.07 1.13-1.58 1.72-1.33 1.54-2.78 2.93-4.58 3.94-.83.46-1.65.97-2.35 1.6-.44.39-.7.97-1.35 1.15-.83.23-1.64.53-2.47.79-.15.05-.36 0-.46.09-.92.84-2.21.65-3.22 1.18-1.99 1.06-4.26 1.21-6.34 2.01-1.25.48-2.64.56-3.92.98-1.55.5-3.14.89-4.54 1.81-.72.47-1.61.71-2.46.93-2.55.64-5.12 1.21-7.68 1.83-1.07.26-2.17.39-3.16 1-.47.29-1.15.28-1.75.32-1.51.1-3.04.05-4.54.24-1.62.2-3.23.52-4.8.97-1.19.34-2.35.32-3.54.26-.28-.02-.58-.09-.83-.01-1.22.36-2.46-.08-3.66.1-1.9.29-3.92-.34-5.71.73-.07.04-.16.11-.21.09-1.25-.37-2.48.18-3.74.06-1.01-.1-2.05.2-3.07.17-.98-.03-1.96.31-2.94-.05-.29-.1-.65-.14-.94-.06-1.16.34-2.34.33-3.52.25-1.85-.14-3.65.09-5.47.33-.58.08-1.18.07-1.76.17-.69.11-1.38.15-1.99.64-.36.3-.96.33-1.47.42-.5.09-1.02.09-1.59-.01.29-.14.57-.29.86-.43-.02-.07-.04-.15-.05-.22-.8.09-1.69-.01-2.4.3-1.25.56-2.53.39-3.8.52-1.03.11-2.06.17-3.09.26-.13.01-.25.1-.35.26 2.42.33 4.76-.44 7.18-.26-1.09.23-2.18.53-3.28.66-1.73.21-3.47.31-5.2.44-.79.06-1.55.22-2.37.03-.43-.1-.99.37-1.44.28-.51-.1-.94-.28-1.48-.06-.27.11-.65-.06-.98-.11-.08-.01-.18-.09-.22-.06-.85.65-1.79-.06-2.7.19-.9.25-1.9.17-2.84.3-.31.04-.42-.03-.67-.19-.55-.37-1.19-.56-1.84-.08-.47.34-.89.64-.06 1.26-1.63.15-3.05.3-4.47.39-2.58.17-5.17.28-7.75.45-3.18.22-6.37.34-9.55.07-1.94-.16-3.87-.54-5.8-.82-.43-.06-.86-.12-1.39-.2.22-.23.43-.44.73-.75-.41-.13-.7-.23-1.13-.37 1.85-.28 3.55.19 5.41.15-.18-.13-.25-.22-.32-.23-1.69-.19-3.38-.38-5.07-.56-.73-.08-.84.44-.84 1.14-.25-.16-.41-.25-.55-.34-.16-.11-.32-.22-.5-.35.25-.1.46-.19.68-.27v-.23c-.76-.11-1.53-.22-2.33-.34-.07.53-.04.8.45.71.64-.11.53.25.43.62-1.87.23-2.83.13-3.84-.46.83-.2 1.56-.38 2.47-.6-1.13-.35-2.05-.59-3.09-.26-.59.19-1.26.14-1.89.16-.41.01-.83-.09-.82.55 0 .12-.22.33-.36.36-.65.11-1.31.18-1.96.25-1.34.14-2.68.26-4.02.41-1.26.13-2.52.29-3.78.42-.1.01-.21-.06-.34-.1 1.6-.84 3.37-.51 5.03-.83 1.62-.31 3.27-.42 4.91-.68-.57-.27-1.16-.22-1.77-.13-1.05.15-2.12.22-3.17.35-.83.1-1.65.26-2.48.33-1.02.09-2.04.31-3.06-.11-.23-.09-.57.15-.86.16-.59 0-1.12.96-1.76.11-1.17.25-2.34.49-3.5.74-.01 0-.01.07-.05.27h3.72c.02.05.03.1.05.15-.15.09-.32.15-.44.26-.14.13-.24.3-.4.51-.52-.3-1.02-.35-1.65-.13-.89.31-1.87.41-2.82.51-2.14.22-4.31.25-6.42.61-2.33.4-4.61.1-6.9-.09-.24-.02-.48-.1-.71-.07-1.12.12-2.07-.39-3.07-.75-.46-.17-.91-.35-1.46-.55-.09.33-.15.53-.21.76-.6.22-1.06-.05-1.4-.51-.95.57-3.61.19-5.18-.79.77.08 1.33.14 1.9.19.02-.03.04-.07.06-.1-.42-.2-.83-.42-1.26-.6-1.57-.66-3.15-1.33-4.74-1.95-1.04-.41-2.09-.77-3.15-1.1-1.64-.5-3-1.47-4.32-2.49-1.39-1.06-2.76-2.14-4.04-3.33-.78-.72-1.41-1.62-2.02-2.5-1.14-1.63-2.24-3.3-3.33-4.97-1.27-1.95-2.09-4.11-2.71-6.34-.24-.88-.37-1.78-.97-2.55-.2-.26-.08-.76-.18-1.12-.31-1.15-.68-2.28-.99-3.43-.45-1.62-.87-3.24-1.31-4.86-.09-.35-.17-.7-.28-1.04L20.45 213l-1.04-3.24c-.26.09-.47.17-.78.28.33.8.9 1.54.89 2.27-.03 1.28.82 2.19 1.02 3.34.19 1.13.52 2.24.73 3.38.17.92.26 1.86.19 2.89-.16-.17-.45-.33-.47-.51-.11-.92-.24-1.78-.83-2.57-.25-.33-.17-.91-.25-1.37-.04-.24-.03-.56-.18-.68-1.05-.87-.95-2.22-1.43-3.32-.22-.49-.39-1.01-.61-1.5-.05-.11-.25-.15-.38-.22-.71-.4-1.28-.92-1.48-1.76-.29-1.24-.6-2.48-.89-3.72-.03-.14.04-.3.06-.42.77-.41.51.49.99.71-.17-1.44-.32-2.75-.49-4.23.31-.02.66-.05 1-.07v.99c.21.35.55.71.66 1.13.31 1.26 1.03 2.39 1.01 3.76-.01.32.09 1.05.97 1.13-.14-.61-.21-1.15-.38-1.66-1.31-4.11-2.44-8.27-3.17-12.53-.22-1.29-.69-2.53-.9-3.82-.23-1.37-.29-2.77-.42-4.15-.2-2.1-.49-4.2-.58-6.3-.09-2.14-.03-4.29.03-6.43.05-1.74.18-3.48.34-5.22.04-.46.29-.89.46-1.34.2-.52.24-1.02.17-1.61-.08-.73.16-1.49.26-2.24.17-1.22.33-2.44.52-3.66.07-.47.23-.92.33-1.39.55-2.45.98-4.93 1.66-7.34.89-3.14 2.02-6.22 2.95-9.35.76-2.56 1.4-5.15 2.06-7.73.11-.41.01-.87.07-1.3.43-2.78.89-5.56 1.34-8.34.06-.35.08-.7.13-1.04-.09-.02-.18-.03-.26-.05-.24 1.24-.47 2.47-.73 3.71-.16.78-.36 1.55-.53 2.33-.22 1.05-.38 2.11-.65 3.15-.57 2.23-1.17 4.46-1.81 6.68-.19.64-.36 1.26-.4 1.95-.11 2.14-.82 4.12-1.8 6-.68 1.3-1.18 2.65-1.48 4.1-.42 2.02-.97 4.01-1.47 6.01a5.6 5.6 0 0 0-.12.59c-.26 2.32-1.04 4.56-1.17 6.9-.01.21-.15.42-.45.62-.05-.65-.23-1.33-.11-1.96.55-3.12 1.26-6.22 1.77-9.34.59-3.66 2.16-7 3.14-10.53.68-2.45 1.4-4.9 2.06-7.36.52-1.96 1-3.93 1.46-5.91.21-.93.31-1.89.48-2.83.3-1.68.64-3.34.9-5.02.13-.81.13-1.64.2-2.46.09-.99.2-1.97.32-2.96.08-.7.21-1.4.27-2.1.08-1.02.11-2.04.18-3.06.04-.59.15-1.17.17-1.75.04-1.33-.12-2.69.13-3.98.2-1.05.26-2.07.31-3.11.02-.44-.04-.77-.31-1.09-.4-.43-.39-.86-.02-1.36zm216.92-28.45c-.12-.08-.3-.13-.36-.24-.32-.57-.05-1.15-.03-1.73.03-1.02-.18-2.05-.24-3.07-.11-2.03-.19-4.06-.29-6.09-.01-.2-.02-.4-.07-.59-.34-1.21-.7-2.42-1.07-3.7-.27.12-.54.23-.78.34-.51-.69.56-.72.4-1.22-.23-.46-.35-1.08-.72-1.34-.52-.36-.67-.84-.89-1.34-.44-1.01-.94-2-1.43-2.99-.06-.12-.23-.22-.37-.27-.98-.33-1.94-.69-2.94-.94-1.47-.36-3.04-.45-4.43-1.01-1.21-.49-2.46-.56-3.67-.8-1.51-.3-3.1-.24-4.65-.24-1.95 0-3.89.08-5.84.16-.7.03-1.39.19-2.09.21-.63.02-1.26-.15-1.89-.1-1.23.1-2.46.28-3.68.44-.63.09-1.5.01-1.82.38-.58.69-1.24.58-1.91.62-.87.06-1.75.04-2.62.08-2.12.09-4.23.11-6.29-.57-.31-.1-.76-.06-1.03.1-.4.24-.71.22-1.11.09-.26-.08-.56-.08-.83-.04-2.79.47-5.61.79-8.34 1.5-2.28.59-4.59 1.04-6.89 1.48-3.64.7-7.33 1.15-10.99 1.72-.27.04-.69.06-.76.22-.31.67-.91.54-1.43.63-.57.11-1.17.02-1.7.42-.22.16-.67.03-1.07.03.17-.23.27-.37.54-.73-1.21.18-2.19.32-3.17.46l-.12.3c.19.11.39.23.58.34-.37.09-.7.05-1.03.03-.23-.01-.46-.01-.68.03-.76.13-1.54.45-2.27.37-1.6-.18-3.2-.04-4.71.25-2.48.47-4.9.13-7.35.04-.74-.03-1.46-.25-2.13.15-.99-.84-1.94-.93-3.08-.33-.32.17-.61.39-.95.51-.19.06-.6 0-.62-.07-.15-.62-.6-.43-.96-.37-.52.08-1.12-.09-1.52.42-.76-.47-1.52 0-2.23.1-2.16.31-4.43.29-6.34 1.61-.21.14-.56.2-.81.15-1.87-.39-3.8.64-5.64-.24-1.3.1-2.61.21-3.91.29-.64.04-1.15.26-1.37.72-.35-.02-.72-.11-.77-.02-.33.57-.78.58-1.34.48-.26-.05-.55.07-.82.12-.66.12-1.32.33-1.99.36-1.93.1-3.87-.1-5.79.22-.12.02-.24 0-.36-.01l-7.51-.18c-.28-.01-.6.02-.82-.11-.65-.37-1.31-.23-1.98-.13-.04.01-.07.12-.1.18.14.07.29.14.43.22-1.85.42-3.65.7-5.47.83-2.11.15-4.22.16-6.34.24-.87.03-1.75.04-2.61.15-1.85.25-3.68.58-5.53.83-.7.1-1.42.02-2.12.11-.5.07-.97.37-1.47.42-1.19.12-2.39.26-3.58.19-1.76-.09-3.41.1-4.93 1.07-.4.25-.88.37-1.32.55-.73.3-1.52.52-2.18.93-.7.43-1.28 1.05-1.91 1.59.17.99.34 1.99.5 2.95.06-.2.12-.45.19-.69.07 1.1-.02 2.16-.12 3.23-.12 1.27-.37 2.55-.34 3.81.03 1.1-.14 2.13-.38 3.18-.06.26-.16.59-.05.79.35.67.16 1.33.07 2-.22 1.61-.44 3.23-.68 4.84-.21 1.41-.45 2.82-.67 4.24-.14.94-.26 1.88-.37 2.83-.05.39-.01.8-.06 1.19-.2 1.38-.4 2.76-.63 4.13-.15.9-.42 1.78-.49 2.68-.22 2.72-.49 5.43-.42 8.17.01.22-.12.45-.18.67-.08.31-.21.61-.24.92-.12 1.54-.24 3.09-.31 4.64-.07 1.46-.63 2.87-.48 4.35.01.07-.05.15-.07.23-.78 3.66-1.58 7.31-2.32 10.97-.79 3.92-2.01 7.72-3.26 11.5-.89 2.69-1.83 5.36-2.07 8.21-.04.47-.22.93-.33 1.39-.12.49-.35.99-.35 1.48.01 1.22-.02 2.39-.86 3.39-.11.13-.05.38-.1.58-.7 2.95-.81 5.97-.92 8.97-.09 2.38.11 4.78.24 7.17.13 2.27.42 4.53.49 6.8.07 2.33.46 4.6.98 6.84.78 3.33 1.74 6.62 2.69 9.91.67 2.34 1.48 4.63 2.16 6.97.6 2.1 1.07 4.23 1.66 6.34.88 3.15 1.79 6.29 2.73 9.42.31 1.02.71 2.02 1.15 2.99.26.57.7 1.06 1.04 1.6 1.68 2.62 3.71 4.91 6.32 6.63 1.7 1.12 3.47 2.11 5.45 2.7.84.25 1.69.5 2.49.84 2.04.89 4.2 1.19 6.36 1.56.63.11 1.26.22 1.89.34 1.06.2 2.1.44 3.17.59.94.14 1.89.2 2.84.27 2.74.2 5.48.51 8.23.54 2.31.03 4.62-.25 6.93-.45 3.65-.31 7.31-.57 10.94-1.02 4.78-.59 9.56-.61 14.35-.25 3.19.24 6.36.62 9.55.73 2.83.09 5.67-.08 8.5-.18 1.51-.05 3.04-.36 4.53-.21 2.72.28 5.42.08 8.13.03 1.96-.04 3.91-.21 5.86-.37 2.85-.24 5.72.05 8.57-.28.19-.02.4.04.59.04.71 0 1.44.07 2.14-.02 3.93-.47 7.89-.7 11.8-1.36.39-.07.79-.11 1.19-.12 4.79-.11 9.57-.2 14.36-.32.4-.01.8-.16 1.2-.24-2.02-.3-4 .1-5.98-.22.92-.6 1.98-.51 2.97-.59 2.38-.19 4.77-.23 7.16-.34 1.91-.09 3.83-.3 5.74-.25 2.82.07 5.56-.36 8.29-1 .78-.18 1.64-.16 2.33-.51 1.67-.84 3.7-.68 5.22-1.92.11-.09.31-.07.46-.11 1.88-.54 3.76-1.06 5.62-1.62 2.21-.67 4.41-1.39 6.61-2.08.15-.05.34-.06.44-.16.69-.65 1.61-.63 2.44-.86 1.42-.39 2.87-.7 4.25-1.2 1.63-.6 2.74-1.9 3.74-3.27.12-.16.17-.36.25-.54.26-.57.48-1.17.81-1.7.74-1.18 1.55-2.3 2.29-3.48.47-.74.81-1.56 1.29-2.29 1.07-1.62 1.65-3.42 2.06-5.28.72-3.27 1.38-6.56 2.08-9.84.12-.58.43-1.14-.14-1.67-.06-.05.02-.27.05-.41.08-.37.2-.74.23-1.12.05-.63.07-1.27.04-1.91-.04-.94-.11-1.89-.22-2.82-.05-.43-.29-.83-.34-1.26-.32-3.01-.6-6.03-.91-9.04-.08-.74-.28-1.47-.31-2.2-.03-.87.08-1.74.1-2.61 0-.19-.11-.38-.16-.57-.09.01-.18.01-.27.02v2.64c-.36-.07-.55-.1-.74-.14-.01.8.3 1.64-.36 2.38-.45-.28-.76-.52-.59-1.07.13-.44.27-.9.28-1.35.04-1.11-.01-2.23.01-3.34.03-1.31.11-2.62.16-3.92 0-.07-.06-.14-.12-.25-.22-.03-.47-.07-.84-.12.11-.37.2-.66.29-.96.05-.18.19-.43.12-.55-.64-1.02-.33-2.19-.41-3.25-.21-2.65-.11-5.32-.16-7.98-.07-3.33-.11-6.67-.26-10-.09-1.93-.56-3.83-.53-5.79.03-1.66-.11-3.33-.18-5.04-.66-.41-.9-1.18-.46-1.93.2-.34.42-.79.14-.95-.63-.34-.37-.87-.43-1.3-.12-.79-.14-1.59-.2-2.39-.08.01-.16.01-.23.02 0 .54-.02 1.08 0 1.63.05 1.02.14 2.05.18 3.07.08 2.01.13 4.02.19 6.04 0 .12.04.29-.02.35-.7.67-.3 1.39-.12 2.11.12.46.2.94.28 1.41.11.63-.14 1.11-.68 1.72-.24-7.77-.48-15.3-.72-23.09l.93 1.22c.15-1.2.36-2.25.39-3.3.03-.95-.15-1.9-.18-2.85-.04-1.74-.03-3.49-.04-5.24 0-.16.04-.37-.04-.47-.68-.79-.4-1.76-.48-2.63-.15-1.57-.64-3.07-.54-4.7.1-1.6-.57-3.15-.49-4.82.08-1.44-.34-2.89-.44-4.34-.11-1.5-.43-2.97-.2-4.51.15-1.05-.05-2.14-.05-3.22 0-1.59.05-3.17.04-4.76-.01-.45-.18-.9-.29-1.44.1-.27.34-.64.34-1.01 0-1.1.27-2.22-.17-3.31-.11-.28-.08-.63-.09-.95-.03-1.59-.01-3.17-.08-4.76-.08-1.77-.22-3.55-.37-5.32-.11-1.22-.59-1.7-1.72-1.87-.49 1.07-.59 2.03-.38 3.6.04.3-.02.61-.03.91-.02.43-.07.85-.07 1.28 0 .32.17.65.09.94-.34 1.3-.23 2.59-.03 3.89.08.55.27 1.12.18 1.65-.12.74.01 1.42.16 2.12.11.47.19.94.23 1.42.02.16-.11.49-.17.49-.51-.01-.4.37-.48.66-.31 1.14-.18 2.28-.11 3.43.1 1.58.03 3.18.13 4.76.09 1.51.36 3.01.46 4.52.18 2.77.29 5.54.44 8.31.12 2.23.25 4.45.39 6.68.01.23.15.46.23.69l.24-.03v-1.92c.24.38.36.77.35 1.16-.02.87.06 1.8-.19 2.61-.57 1.81.05 3.49.32 5.23-.12-.06-.25-.12-.39-.19.09 1.14.2 2.27.28 3.4.08 1.14.21 2.29.19 3.43-.02 1.17.22 2.37.05 3.48-.16 1.09.22 2.26-.39 3.36-.1-.15-.18-.21-.18-.28-.2-2.89-.4-5.78-.58-8.67-.19-3.06-.35-6.13-.55-9.19-.09-1.35-.29-2.69-.41-4.04-.11-1.23-.15-2.46-.26-3.69-.23-2.46-.48-4.93-.76-7.39-.07-.66-.26-1.32-.4-1.97-.08.02-.17.03-.25.05l.6 8.9-.29.03c-.05-.48-.08-.97-.15-1.45-.12-.87-.41-1.75-.35-2.6.15-2.26-.3-4.44-.66-6.63-.15-.88-.35-1.77.08-2.85.98 1.04.23 2.4 1.06 3.41.02-.49.07-.86.05-1.24-.08-1.63-.24-3.26-.27-4.9-.04-2.42-.01-4.85.02-7.27.01-1.07.2-2.15.08-3.21-.22-1.97-.36-3.93-.25-5.91.03-.59-.21-1.2-.32-1.81-.08-.01-.17-.03-.25-.04-.11.21-.32.43-.31.64.04.71.17 1.42.24 2.13.03.3-.04.6-.06.91-.09.03-.07.02-.07.02zM36.22 246.63c-.05.06-.11.11-.16.17.16.17.31.34.47.51.52.55 1.15 1.03 1.53 1.66.4.65.93 1.07 1.55 1.44.24.14.55.22.71.42 1.51 1.79 3.77 2.29 5.74 3.26 1.37.67 2.93.94 4.36 1.48 2.23.84 4.52 1.24 6.89 1.37 3.06.17 6.11.5 9.17.76.71.06 1.42.18 2.14.2 1.19.03 2.38 0 3.57-.02.21 0 .43-.09.91-.21-.39-.15-.51-.23-.65-.24-1.59-.12-3.17-.22-4.76-.35-.95-.08-1.93-.38-2.85-.25-1.81.25-3.52-.32-5.29-.37-1.22-.03-2.44-.37-3.65-.64-1.94-.44-3.88-.92-5.8-1.41-.33-.08-.61-.34-.92-.5-1.12-.56-2.2-1.21-3.44-1.51-1.02-.25-2.07-.32-2.97-1.1-1.28-1.12-2.72-2.07-4.11-3.07-.77-.57-1.62-1.07-2.44-1.6zm161.06-12.08c0 .12 0 .25-.01.37 1.77.06 3.52-.11 5.27-.27 0-.11-.01-.21-.01-.32-1.75.07-3.5.14-5.25.22zm43.8-167.27c.11-.02.21-.05.32-.07l-.36-4.94c-.1.01-.2.01-.3.02.11 1.67.22 3.33.34 4.99zM74.65 257.11c1.49.9 1.49.9 1.73 0h-1.73zM248.12 124.5c0 .99-.06 1.8.03 2.6.04.36.43.37.83.03-1.22-.53-.42-1.66-.86-2.63zm4.71 47.5c-.14.5-.78.92-.27 1.64.48-.56.61-1.06.27-1.64zM32.72 71.6c.14.34.35.54.68.26.08-.07.12-.33.06-.4-.29-.32-.52-.12-.74.14zm114.65 183.42c-.37-.19-.74-.36-1.03.29.43-.13.73-.21 1.03-.29zm-39 1.94c-.53-.43-.53-.43-1.1-.19.44.08.77.13 1.1.19zM26.64 88.85c-.09-.05-.18-.1-.27-.14-.08.3-.56.46-.15 1.05.18-.37.3-.64.42-.91zm222.12 40.41c.05-.02.1-.03.14-.05.01-.07.05-.17.02-.21-.05-.07-.15-.09-.23-.14.03.14.05.27.07.4z"/><path d="M13.49 193.09c-.15-.5-.37-.99-.42-1.5-.14-1.53-.17-3.08-.33-4.61-.21-2.05-.52-4.09-.77-6.14-.02-.18.03-.39.09-.57.19-.59.31-1.11-.33-1.58-.28-.2-.47-.68-.47-1.04-.01-.3.21-.59.63-.82.59-.31.32-1.6-.33-2.17-.88-.76-.94-2.02-.15-2.86.08-.08.15-.23.14-.33-.1-.8-.01-1.5.79-1.95.16-.09.28-.36.28-.55 0-.13-.22-.28-.37-.37-.09-.05-.29.03-.34-.03-.13-.15-.22-.35-.32-.53.23-.08.52-.28.67-.21.77.38.97 1.11.96 1.89-.01 1.04-.05 2.07-.09 3.1-.1 2.49-.25 4.98.04 7.48.22 1.87.51 3.76.17 5.67-.1.56.12 1.17.16 1.76.06.89.09 1.77.13 2.66l.12 2.63c-.09.03-.18.05-.26.07zM25.06 232.34c.07.25.15.51.25.88-.25-.04-.49-.05-.5-.08-.03-.26-.02-.53-.02-.79.09 0 .18-.01.27-.01zM267.61 94.01c-.07-.25-.13-.51-.2-.76.09-.03.17-.06.26-.09.1.25.2.5.29.74-.12.03-.24.07-.35.11zM6.21 219.51c-.22.03-.43.05-.65.08-.02-.07-.03-.14-.05-.22l.62-.18c.03.11.05.21.08.32zM202.09 23.18c.2-.01.4-.02.61-.04l.03.22c-.2.04-.4.08-.61.12 0-.1-.01-.2-.03-.3zM267.07 65.77c-.01.23-.02.45-.05.68 0 .01-.2.01-.2 0-.04-.22-.06-.45-.09-.68.12-.01.23-.01.34 0z"/><path class="st0" d="M240.99 72.55c.02-.3.09-.61.06-.91-.06-.71-.2-1.42-.24-2.13-.01-.21.2-.43.31-.64.08.01.17.03.25.04.12.6.36 1.21.32 1.81-.11 1.98.03 3.94.25 5.91.12 1.05-.07 2.14-.08 3.21-.02 2.42-.06 4.85-.02 7.27.03 1.63.18 3.26.27 4.9.02.37-.03.75-.05 1.24-.83-1.01-.08-2.38-1.06-3.41-.43 1.08-.23 1.98-.08 2.85.36 2.2.81 4.37.66 6.63-.06.86.23 1.73.35 2.6.07.48.1.96.15 1.45l.29-.03-.6-8.9c.08-.02.17-.03.25-.05.14.66.33 1.31.4 1.97.27 2.46.52 4.92.76 7.39.12 1.23.15 2.46.26 3.69.12 1.35.32 2.69.41 4.04.21 3.06.36 6.13.55 9.19.18 2.89.38 5.78.58 8.67 0 .07.08.13.18.28.61-1.09.23-2.27.39-3.36.17-1.11-.07-2.31-.05-3.48.02-1.14-.11-2.29-.19-3.43-.08-1.13-.18-2.26-.28-3.4.14.07.27.13.39.19-.27-1.74-.89-3.42-.32-5.23.26-.81.17-1.73.19-2.61.01-.39-.1-.78-.35-1.16v1.92l-.24.03c-.08-.23-.21-.45-.23-.69-.14-2.22-.27-4.45-.39-6.68-.15-2.77-.26-5.54-.44-8.31-.1-1.51-.37-3.01-.46-4.52-.1-1.58-.03-3.18-.13-4.76-.07-1.15-.19-2.29.11-3.43.08-.29-.03-.67.48-.66.06 0 .19-.33.17-.49-.04-.48-.13-.95-.23-1.42-.16-.7-.29-1.38-.16-2.12.09-.53-.1-1.1-.18-1.65-.2-1.3-.31-2.59.03-3.89.07-.29-.09-.63-.09-.94 0-.43.04-.85.07-1.28.02-.3.07-.61.03-.91-.2-1.57-.11-2.53.38-3.6 1.13.17 1.61.65 1.72 1.87.16 1.77.29 3.54.37 5.32.07 1.58.05 3.17.08 4.76.01.32-.03.67.09.95.44 1.09.17 2.21.17 3.31 0 .37-.24.74-.34 1.01.11.54.29.99.29 1.44.02 1.59-.04 3.17-.04 4.76 0 1.07.2 2.17.05 3.22-.22 1.53.09 3.01.2 4.51.11 1.45.52 2.91.44 4.34-.09 1.66.59 3.22.49 4.82-.1 1.63.39 3.13.54 4.7.08.88-.2 1.85.48 2.63.08.1.04.31.04.47.01 1.75 0 3.49.04 5.24.02.95.21 1.9.18 2.85-.04 1.05-.24 2.1-.39 3.3l-.93-1.22c.24 7.8.48 15.32.72 23.09.54-.61.8-1.09.68-1.72-.09-.47-.16-.95-.28-1.41-.18-.72-.59-1.43.12-2.11.06-.06.02-.23.02-.35-.06-2.01-.11-4.03-.19-6.04-.04-1.02-.13-2.05-.18-3.07-.03-.54 0-1.08 0-1.63.08-.01.16-.01.23-.02.06.8.09 1.6.2 2.39.07.43-.19.96.43 1.3.29.15.06.6-.14.95-.44.75-.2 1.51.46 1.93.07 1.71.21 3.37.18 5.04-.03 1.96.44 3.85.53 5.79.15 3.33.2 6.67.26 10 .05 2.66-.05 5.34.16 7.98.09 1.07-.22 2.23.41 3.25.07.11-.06.36-.12.55-.08.29-.17.58-.29.96.37.05.61.09.84.12.05.11.12.18.12.25-.05 1.31-.13 2.62-.16 3.92-.03 1.11.03 2.23-.01 3.34-.02.45-.15.91-.28 1.35-.17.55.14.79.59 1.07.66-.74.36-1.58.36-2.38.19.04.38.07.74.14v-2.64c.09-.01.18-.01.27-.02.06.19.17.38.16.57-.02.87-.13 1.74-.1 2.61.03.74.23 1.46.31 2.2.31 3.01.59 6.03.91 9.04.04.43.29.83.34 1.26.11.94.18 1.88.22 2.82.03.63.01 1.27-.04 1.91-.03.38-.15.74-.23 1.12-.03.14-.11.36-.05.41.58.52.27 1.09.14 1.67-.7 3.28-1.36 6.57-2.08 9.84-.41 1.86-.99 3.66-2.06 5.28-.48.73-.82 1.55-1.29 2.29-.74 1.17-1.56 2.3-2.29 3.48-.33.53-.54 1.13-.81 1.7-.08.18-.13.39-.25.54-1 1.37-2.12 2.67-3.74 3.27-1.38.51-2.83.81-4.25 1.2-.83.23-1.75.21-2.44.86-.11.1-.29.11-.44.16-2.2.7-4.4 1.41-6.61 2.08-1.87.57-3.75 1.09-5.62 1.62-.15.04-.35.02-.46.11-1.52 1.24-3.55 1.07-5.22 1.92-.69.35-1.55.33-2.33.51-2.73.63-5.47 1.07-8.29 1-1.91-.05-3.83.17-5.74.25-2.39.11-4.78.15-7.16.34-.99.08-2.05-.01-2.97.59 1.98.31 3.96-.08 5.98.22-.4.08-.8.23-1.2.24-4.79.12-9.57.21-14.36.32-.4.01-.8.05-1.19.12-3.91.67-7.87.89-11.8 1.36-.7.08-1.43.02-2.14.02-.2 0-.4-.06-.59-.04-2.85.33-5.72.05-8.57.28-1.95.16-3.91.33-5.86.37-2.71.05-5.41.25-8.13-.03-1.49-.15-3.02.16-4.53.21-2.83.09-5.67.27-8.5.18-3.19-.11-6.37-.49-9.55-.73-4.79-.36-9.57-.34-14.35.25-3.63.45-7.29.71-10.94 1.02-2.31.2-4.62.47-6.93.45-2.74-.03-5.49-.34-8.23-.54-.95-.07-1.9-.13-2.84-.27-1.06-.16-2.11-.4-3.17-.59-.63-.12-1.26-.23-1.89-.34-2.16-.37-4.32-.67-6.36-1.56-.8-.35-1.65-.59-2.49-.84-1.97-.59-3.74-1.58-5.45-2.7-2.61-1.72-4.65-4.01-6.32-6.63-.34-.54-.78-1.03-1.04-1.6-.44-.97-.84-1.97-1.15-2.99-.94-3.13-1.85-6.27-2.73-9.42-.59-2.1-1.05-4.24-1.66-6.34-.67-2.34-1.49-4.63-2.16-6.97-.95-3.29-1.91-6.58-2.69-9.91-.52-2.24-.91-4.51-.98-6.84-.07-2.27-.36-4.53-.49-6.8-.13-2.39-.33-4.79-.24-7.17.11-3 .22-6.02.92-8.97.05-.19-.01-.45.1-.58.84-1 .87-2.18.86-3.39 0-.49.23-.99.35-1.48.12-.46.29-.92.33-1.39.24-2.85 1.18-5.52 2.07-8.21 1.25-3.79 2.47-7.58 3.26-11.5.74-3.66 1.54-7.31 2.32-10.97.02-.08.08-.16.07-.23-.15-1.49.41-2.89.48-4.35.08-1.55.19-3.09.31-4.64.02-.31.15-.62.24-.92.06-.22.19-.45.18-.67-.07-2.73.2-5.45.42-8.17.07-.9.34-1.78.49-2.68.23-1.37.43-2.75.63-4.13.06-.39.02-.8.06-1.19.11-.94.23-1.89.37-2.83.21-1.41.46-2.82.67-4.24.24-1.61.46-3.22.68-4.84.09-.67.27-1.33-.07-2-.1-.2-.01-.53.05-.79.24-1.05.41-2.08.38-3.18-.03-1.27.22-2.54.34-3.81.1-1.06.19-2.13.12-3.23-.07.24-.13.48-.19.69-.16-.96-.33-1.96-.5-2.95.63-.54 1.21-1.16 1.91-1.59.66-.41 1.45-.63 2.18-.93.44-.18.93-.3 1.32-.55 1.52-.98 3.17-1.17 4.93-1.07 1.19.06 2.39-.07 3.58-.19.5-.05.97-.35 1.47-.42.7-.09 1.42-.02 2.12-.11 1.85-.25 3.68-.58 5.53-.83.86-.12 1.74-.12 2.61-.15 2.11-.08 4.23-.09 6.34-.24 1.82-.13 3.62-.41 5.47-.83-.14-.07-.29-.14-.43-.22.03-.06.06-.17.1-.18.67-.11 1.32-.24 1.98.13.22.13.54.1.82.11 2.5.07 5.01.12 7.51.18.12 0 .24.03.36.01 1.92-.32 3.86-.12 5.79-.22.67-.04 1.32-.24 1.99-.36.27-.05.56-.16.82-.12.56.1 1.02.08 1.34-.48.05-.09.42.01.77.02.22-.46.73-.68 1.37-.72 1.31-.08 2.61-.19 3.91-.29 1.84.87 3.77-.15 5.64.24.25.05.6 0 .81-.15 1.92-1.32 4.18-1.3 6.34-1.61.72-.1 1.47-.57 2.23-.1.4-.51 1-.34 1.52-.42.35-.05.81-.25.96.37.02.07.44.14.62.07.33-.12.63-.34.95-.51 1.14-.6 2.1-.51 3.08.33.67-.4 1.39-.18 2.13-.15 2.44.09 4.87.44 7.35-.04 1.51-.29 3.11-.43 4.71-.25.74.08 1.51-.25 2.27-.37.22-.04.46-.04.68-.03.33.02.67.06 1.03-.03-.19-.11-.39-.23-.58-.34l.12-.3c.98-.14 1.96-.29 3.17-.46-.26.36-.37.5-.54.73.41 0 .85.14 1.07-.03.53-.4 1.13-.31 1.7-.42.52-.1 1.12.04 1.43-.63.07-.16.49-.18.76-.22 3.67-.57 7.35-1.02 10.99-1.72 2.3-.44 4.6-.89 6.89-1.48 2.73-.71 5.55-1.03 8.34-1.5.27-.05.58-.05.83.04.4.13.71.16 1.11-.09.27-.16.72-.2 1.03-.1 2.06.68 4.17.66 6.29.57.87-.04 1.75-.02 2.62-.08.67-.05 1.33.07 1.91-.62.31-.37 1.19-.3 1.82-.38 1.22-.17 2.45-.35 3.68-.44.62-.05 1.26.12 1.89.1.7-.02 1.39-.18 2.09-.21 1.95-.08 3.89-.16 5.84-.16 1.55 0 3.14-.06 4.65.24 1.22.24 2.47.31 3.67.8 1.38.56 2.96.65 4.43 1.01 1 .25 1.96.61 2.94.94.14.05.31.15.37.27.49.99.99 1.98 1.43 2.99.22.51.37.98.89 1.34.37.26.49.88.72 1.34.16.51-.91.53-.4 1.22.25-.11.51-.22.78-.34.37 1.28.73 2.48 1.07 3.7.05.19.06.39.07.59.1 2.03.17 4.06.29 6.09.06 1.03.27 2.05.24 3.07-.02.58-.29 1.16.03 1.73.06.11.24.16.36.25-.4 1.24-.4 1.24.34 1.63-.04-.63-.15-1.15-.27-1.66zm-70.84 162.9c-.63.07-1.25.15-1.88.22.69.32 1.31.24 1.88-.22l1.61.09v-.09h-1.61zm68.31-173.87c.34-.35.54-.71.11-1.26-.05.51-.08.89-.11 1.26.39.68.41 1.42.37 2.18-.02.55-.04 1.13.11 1.65.3 1.02.54 2.03.56 3.09 0 .21.08.42.12.63.29-.89.51-1.74.1-2.64-.17-.36-.09-.85-.11-1.27-.01-.19.12-.45.04-.57-.41-.62-.24-1.29-.21-1.95.03-.87.02-.89-.98-1.12zm-28.75 17.94c-.19-.05-.4-.07-.57-.16-.59-.32-1.17-.66-1.75-.99.12-.97-.68-.81-1.21-1.01-.25-.1-.46-.3-.7-.45-.29-.18-.58-.39-.89-.53-1.29-.55-2.65-.43-4-.39-.84.03-1.74.16-2.43-.4-.55-.44-1.07-.37-1.66-.27-1.61.27-3.22.54-4.83.79-.86.14-1.76.12-2.58.39-1.11.36-2.18.72-3.31.32-.58.59-1.18.88-1.98.57-.15.83-.54 1.49-1.25 1.96-.33.22-.61.51-.93.76-.55.43-.99.92-1.03 1.66-.02.46-.25.75-.72.82-.71.1-1.16.56-1.4 1.17-.16.42-.39.65-.8.8-.24.09-.42.34-.63.51-.26.22-.48.51-.77.65-.65.29-1.09.76-1.49 1.33-.31.44-.74.81-1.17 1.14-1.03.79-1.75 1.8-2.34 2.94-.62 1.19-1.27 2.37-1.95 3.52-.17.29-.54.45-.71.73-.33.54-.57 1.14-.85 1.71-.76 1.53-1.21 3.11-1.09 4.84.1 1.39.04 2.8.84 4.04.04.06.09.15.08.22-.06 1.44.56 2.7 1.07 3.99.08.22.17.45.33.61.69.72 1.4 1.42 2.1 2.13 1.03 1.04 2.06 2.08 3.02 3.19 1.15 1.34 2.55 2.48 3.91 3.63.59.5 1.2 1.22 2.19.69.14-.08.43.12.65.17 1.14.28 2.28.61 3.43.82 1.19.21 2.4.1 3.63.37 2.13.48 4.31.75 6.54.58 1.38-.11 2.79-.04 4.18.04 1.13.07 2.2.14 3.34-.16 1.29-.33 2.69-.28 4.04-.32 1.73-.05 3.39-.27 4.95-1.12.7-.38 1.57-.47 2.36-.7.49-.14 1-.24 1.47-.44 1.57-.68 2.53-2.03 3.39-3.38.79-1.22 1.46-2.57 1.92-3.94.68-2.01 1.71-3.83 2.65-5.71.26-.52.5-1.06.73-1.55-.74-.88-.74-.95-.11-1.77.1-.12.21-.24.29-.38.68-1.16 1.38-2.31 2.03-3.49.3-.55.78-1.16.74-1.71-.07-.9.2-1.54.76-2.08-.21-.47-.4-.88-.58-1.29-.24-.54-.7-1.06-.23-1.71.02-.03-.06-.15-.12-.2-.6-.52-.19-.96-.03-1.39l-.2-1.04c-.93-.92-1.75-1.72-2.56-2.52-.58.39-.58.39-1.36.21-.1.27-.21.55-.32.83-.26-.12-.46-.22-.69-.33-.36.54-.69 1.04-1.07 1.6-.52.14-1.17.24-1.28 1.07-.02.15-.43.29-.67.33-.11.02-.37-.36-.37-.36.66-.67-.05-1.05-.37-1.41-.66-.75-1.34-1.45-1.13-2.57.02-.1-.06-.23-.13-.33-.6-.84-1.18-1.7-1.83-2.51-1.1-1.35-2.26-2.67-3.39-4 .41-.09.8.4 1.24.01.08-.07.55.13.69.31.6.83 1.17 1.68 1.7 2.56.58.95 1.1 1.94 1.68 2.9.41.66.62.62 1.1-.18-1.55-2.34-2.9-4.86-5.15-6.65-.78.53-.76.49-1.49.14-.27-.13-.65-.05-.97-.06.01.19.02.32.04.45zM84.04 143.41c-.49.14-.81.39-.82.97-.01.59-.82 1.07-.24 1.74-.59.68-.6 1.81-1.7 2.12-.66.19-.75.49-.55 1.2.08.27.21.53.36.89.56-.75.7-1.6 1.41-2.09-.21.98-.51 1.92-.83 2.85-.54 1.57-1.17 3.11-1.36 4.79-.05.44-.35.87-.59 1.27-.06.09-.36.03-.62.05.65-1.42 1.38-2.7 1.05-4.32-.79.4-.31 1.21-.71 1.7-.41.5-.53 1.25-1.34 1.36-.3-.73-.13-1.34.16-1.99.27-.62.4-1.3.64-2.11-.85.39-.69 1.06-.9 1.55-.17.4-.14.95-.41 1.22-.57.55-.61 1.22-.58 1.87.07 1.33-.16 2.6-.44 3.88-.2.92-.2 1.89-.28 2.84-.11 1.3-.36 2.62-.26 3.91.07.87.17 1.7-.09 2.65-.11-.34-.19-.6-.27-.85-.08 0-.16.01-.24.01-.07.56-.15 1.12-.23 1.75.53.16.72.54.61 1.08-.01.04-.09.07-.13.1-.06-.22-.12-.43-.24-.87-.21.39-.43.6-.39.75.11.48.27.97.49 1.41.31.62.4 1.35-.05 1.77-.64.6-.45 1.17-.19 1.7.42.86.31 1.7.16 2.56-.04.23-.12.47-.06.68.2.77.43 1.53.68 2.29.84 2.5 1.71 4.98 2.52 7.48.19.59.16 1.25.28 1.86.23 1.13.49 2.25.74 3.37.03.11.13.2.19.3.2.33.37.7.62.99.61.72.78 1.81 1.71 2.24.79.36 1.45.81 1.89 1.57.09.16.29.25.47.4.1-.22.18-.37.3-.63.43.59.93 1.07 1.17 1.67.26.63.27 1.37.36 1.92.52.34.97.6 1.4.9.48.33 1.06.61 1.38 1.06.66.94 1.53 1.6 2.44 2.24.22.16.47.27.71.41.04-.07.08-.14.12-.2-.39-.32-.78-.65-1.18-.97 3.45 2.21 7.16 3.71 11.18 4.9-.29-.48-.47-.8-.73-1.24.4 0 .63-.04.85.01 2.92.64 5.83 1.3 8.75 1.94.26.06.54.04.81.01.46-.05.93-.23 1.38-.19 1.15.1 2.29.27 3.43.45.83.14 1.63.31 2.4-.27.3-.23.76-.37 1.12-.34 1.5.13 2.94-.13 4.35-.61.15-.05.31-.08.47-.09 1.11-.07 2.22-.09 3.32-.2 2.42-.23 4.84-.49 7.26-.75.67-.07 1.34-.34 1.99-.27.78.08 1.31-.1 1.72-.74-.25-.28-.51-.56-.83-.92.4-.15.69-.31.99-.36 2.12-.38 4.25-.69 6.36-1.11 2.29-.46 4.51-.96 6.4-2.6 1.66-1.44 3.34-2.82 4.73-4.53.53-.65 1.14-1.23 1.72-1.83 1.79-1.88 3.41-3.87 4.39-6.33.56-1.4 1.37-2.69 2.07-4.03.33-.63.5-1.36 1.25-1.68.12-.05.25-.26.24-.38-.08-.68.51-1.2.5-1.78-.02-.98 1.19-1.85.24-2.88.12-.74.13-1.53.39-2.22.86-2.3 1.99-4.5 2.54-6.92.12-.52.7-1 .67-1.48-.06-1.05.62-2.25-.66-3.11.67-.17.93-.41.55-.93-.61-.84-.67-1.82-.55-2.78.09-.76.12-1.51-.02-2.25-.09-.51-.04-.92.29-1.33.15-.19.26-.51.21-.74-.17-.77-.41-1.52-.64-2.27-.15-.51-.31-1.02.18-1.29-.36-.43-.93-.81-.91-1.16.07-1.07-.59-1.86-.82-2.81-.11-.45-.27-.88-.41-1.32-.27-.81-.29-1.67-.7-2.48-.45-.89-1.19-1.76-.76-2.96-1.04-.65-1.41-1.61-1.37-2.76 0-.12 0-.24-.03-.36-.27-.95-1.18-1.75-.66-2.88-.55-1.23-1.11-2.47-1.66-3.7-.3-.66-.61-1.32-.95-2.05.31.03.44.04.88.09-.46-.39-.68-.75-.93-.76-.77-.04-1.19-.5-1.51-1.1-.59-1.09-1.19-2.16-2.06-3.05-.44-.45-.96-.83-1.15-1.46-.24-.79-.65-1.41-1.42-1.79-.25-.13-.37-.49-.59-.7-.53-.5-1.08-.99-1.64-1.46-.14-.12-.5-.21-.49-.28.12-.94-.76-.91-1.21-1.23-.82-.59-1.35-1.4-1.99-2.15-1.07-1.26-2.56-2.07-3.89-3.03-1.37-.98-3-1.62-4.56-2.33-1.88-.84-3.79-1.6-5.69-2.39-.88-.36-1.79-.66-2.62-1.11-1.06-.57-2.18-.69-3.34-.77-.67-.05-1.4-.05-1.99-.32-.94-.42-1.93-.46-2.91-.62-.2-.03-.4-.04-.59-.11-1.36-.46-2.75-.41-4.14-.32-.43.03-.88-.06-1.29.05-.95.25-1.88.58-2.8.91-.33.12-.63.3-.93.49-.32.2-.59.53-.94.64-.93.32-1.79.7-2.31 1.61l4.38-.83c.22.38.39.67.63 1.08-1.11-.47-2.01-.31-2.82.46-.14.14-.45.13-.68.14-1.32.05-2.63.06-3.83.76-.23.13-.54.12-.81.19-.77.2-1.58.68-2.28.54-1.03-.21-1.49.58-2.22.84-.41.15-.69.63-1.1.8-1.13.47-2.27.99-3.46 1.22-.86.17-.58 1.29-1.42 1.31-.1 0-.25.24-.26.37-.01.17.11.35.22.67h-1.47c-.01.28.07.57-.04.73-.4.56-.38 1.08.08 1.6-1.06.84-2.09 1.64-3.11 2.45.72.74.73.81.09 1.42-.25.24-.5.47-.75.7.63-.17 1.22-.4 1.73-.75.51-.34.93-.83 1.68-.63-.39.39-.82.69-1.27.98-.16.11-.94 1.44-.93 1.67 0 .04.13.07.23.13.83-.43 1.36-1.4 2.43-1.49-.27.4-.59.74-.95 1.02-1.18.88-2.4 1.7-3.57 2.6-.78.6-1.47 1.33-2.26 1.93-.39.3-.87.53-1.34.63-.5.11-.92.37-.86.82.07.55-.31.77-.49 1.14-.19.39-.43.75-.59 1.15-.2.51-.34 1.04-.52 1.6.81-.03.88-.93 1.44-1.26.56-.33 1.04-.78 1.56-1.18.06.07.12.14.18.2-.54 1.06-.88 2.27-2.23 2.68-.05.27-.09.5-.13.73-.03.15-.11.34-.06.45.31.61.02.74-.53.84-.25.04-.44.37-.66.56.13.12.26.24.44.4-.41.64-.82 1.27-1.27 1.96-.15-.22-.26-.39-.5-.76-.31.62-.54 1.09-.78 1.57v.03zm156.06 10.94c.06.35.11.59.53.39.19-.09.58-.1.69.02.24.28.5.65.52 1.01.08 1.07.09 2.15.05 3.23-.05 1.44-.08 2.89-.27 4.32-.11.81-.31 1.6-.3 2.44.01.75.31 1.07 1.05 1.16.06-.28.17-.51.16-.73-.04-.98-.18-1.97-.16-2.95.03-1.33.24-2.66.25-4 0-.62.05-1.06.82-1.14-.55-1.11-.92-2.11-.36-3.27.13-.27.38-1-.27-1.35-.28.41-.53.77-.79 1.16-.65-.69-1.27-.59-1.92-.29zm1.61-32.1c0 .39-.02.73 0 1.06.1 1.38.21 2.75.33 4.13.06.74-.02 1.55.24 2.21.2.49.35.83.05 1.29-.08.12-.13.34-.07.43.56.94-.1 1.67-.45 2.57.38.06.72.12 1.23.2-.06-1.08-.13-1.97-.17-2.87-.03-.51-.03-1.03-.04-1.54-.03-1.38 0-2.76-.12-4.13-.07-.85-.19-1.63.7-2.25-.5-.46-.64-1.2-1.7-1.1zm1.91-5.28c-.03-.38-.04-.55-.06-.73-.12-1.05-.36-2.11-.32-3.15.03-.76-.11-1.4-.45-2.03-.02-.03-.12-.01-.25-.03-.03.31-.06.61-.11 1.17-.34-1.02-.59-1.79-.85-2.56h-.19c-.09 1.48-.19 2.95-.28 4.43.05 0 .1.01.16.01.07-.17.13-.34.24-.61.19.15.3.23.42.32.11.09.22.18.29.24.22-.12.36-.2.48-.27.44 1.03-.38 2.24.92 3.21zm-1.43 35.86c.1-.03.21-.07.31-.1 0-.58.06-1.17-.02-1.74-.07-.56.06-.9.65-1.01 0-.47.03-.95-.01-1.42-.03-.47-.12-.94-.19-1.41-.04.01-.07.01-.11.02l-.54 2.38c-.49 0-.9-.02-.97.62-.09.94-.28 1.87-.42 2.81-.01.06.04.13.09.26.25-.29.48-.55.7-.8.22.15.36.27.51.39zm-2.1-51.27c.22.4.45.68.53 1 .13.53.15 1.08.24 1.62.13.78.3 1.55.43 2.33.02.14 0 .36-.09.45-.67.64-.25 1.03.47 1.53-.06-1.19-.1-2.26-.18-3.33-.09-1.15-.02-2.35-.38-3.41-.35-1.06.36-2.21-.42-3.25-.21 1.11-.41 2.13-.6 3.06zm-.04-12.17c-.08.02-.15.03-.23.05.21 1.39.39 2.77-.17 4.11-.04.09 0 .27.07.33.56.48.5 1.12.48 1.76-.01.67 0 1.33 0 2.05.16-.07.34-.11.35-.16.06-.68.36-1.33.02-2.06-.21-.45-.1-1.06-.09-1.59.01-.55.17-1.12.08-1.64-.12-.69-.43-1.33-.23-2.07.06-.22-.18-.52-.28-.78zm11.36 90.17c-.04 2.17-.17 4.15.68 6.04.01-1.07-.11-2.13-.16-3.19-.02-.37.1-.75.18-1.12.09-.41.21-.81.3-1.18-.35-.2-.59-.33-1-.55zm-10.05-99.58c-.1 0-.2 0-.3-.01-.05.23-.13.46-.13.69-.04 1.54-.06 3.08-.08 4.62-.01.67-.05 1.34-.01 2.01.01.21.2.42.31.63.08-.02.17-.05.25-.07-.08-1.3-.22-2.6-.23-3.9-.02-1.33.11-2.65.19-3.97zm-.94 102.19c.53 1.15.63 2.13-.26 2.69.26.32.52.63.79.96.64-.71.65-.83.34-3.19-.03-.26-.13-.51-.22-.85-.27.16-.46.28-.65.39zm2.1-35.95c.69-.73.87-2.41.48-3.74-.04-.15-.26-.24-.37-.33-.05.69.04 1.35-.17 1.88-.3.74-.13 1.35.06 2.19zm-2.44-58.88c0-.77-.09-1.55.03-2.31.11-.72-.27-.94-.75-1.22-.73 1.4.36 2.39.72 3.53zM178.76 234.9h3.95c0-.08-.01-.17-.01-.25-1.32.07-2.65-.17-3.94.25zm68.4-86.23c.1-.64.16-1.07.23-1.49.05-.01.1-.02.14-.03.13.37.26.74.43 1.23.46-.57.14-1.04.12-1.35l-1.51-1.03c.64.88-.15 1.73.59 2.67zm-5.43-4.7c-.09.94-.25 1.88.17 2.79-.01-.93.5-1.9-.17-2.79zm-.69-68.11c.05 1.03.09 2.07.14 3.1.43-1.06.61-2.11-.14-3.1zm1.56 92.91c-.86 0-.92.04-1.02.59-.12.64-.04.75.73 1.01.09-.5.18-1 .29-1.6zm-.12-59.31c.44-.88.63-1.72-.21-2.64.08 1.01.15 1.83.21 2.64zM87.73 132.9c-.07-.05-.13-.11-.2-.16-1.1.62-1.13.66-.83 1.75l1.03-1.59zm99.14 101.99-.03-.23h-2.75v.23h2.78zm55.12-94.62c-.07.01-.14.03-.22.04v2.13h.22v-2.17zm-.3-.99c.44-.61.44-.75 0-1.55v1.55zm.59 38.14c-.91.44-.29.99-.38 1.51.08.01.16.01.24.02.05-.51.09-1.02.14-1.53zM90.91 126.65c.6-.12 1.13-.31 1.19-1.07-.4.35-.8.71-1.19 1.07zm152.8-4.84c-.07-.52-.16-1.11-.25-1.73-.57.17-.61.37-.36.71.23.32.41.68.61 1.02zm-1.32-5.74c-.43.07-.65.1-.92.14.04.31.08.57.12.84l.25.06c.16-.3.31-.59.55-1.04zm.14 20.93c.14 0 .28-.01.42-.01-.11-.46.34-.93-.34-1.61-.03.69-.05 1.16-.08 1.62zm-3.05-58.07v1.69c.38-.53.59-1.05 0-1.69zm5.28 23.16-.27.03c.14.43-.19.95.49 1.49-.09-.65-.15-1.08-.22-1.52zm.61-8.8c-.08-.5-.17-1-.25-1.51-.21.54-.38 1.07.25 1.51zm-.29 39.21.28-.03c-.03-.25-.07-.51-.1-.76-.06 0-.12.01-.18.01v.78zm.51-2.37c-.1.02-.19.05-.29.07l.15.69c.09-.02.18-.04.26-.06l-.12-.7zm-3.07 10.33.33.06c.06-.31.11-.61.17-.92-.35.25-.71.47-.5.86zm-.12-20.17c-.26.69-.26.69.15 1.12-.06-.44-.1-.78-.15-1.12zm2.96 19.51c.11-.01.21-.03.32-.04l-.12-.89-.27.03c.02.31.04.6.07.9zm-74.04 32.4.36-.06c-.01-.16 0-.33-.04-.48-.05-.14-.16-.27-.24-.4l-.18.06c.03.3.07.59.1.88zm75.5-33.46c-.4.39-.71.76.06 1.07-.02-.42-.04-.74-.06-1.07zm-5.84-49.39c.1-.02.19-.05.29-.07-.06-.18-.12-.37-.19-.55-.06.02-.13.04-.19.05.03.2.06.38.09.57zm.71 47.22h.06v-1h-.11c.02.33.03.67.05 1zm-2.34-59.55c.1-.02.19-.03.29-.05-.08-.28-.17-.57-.25-.85l-.21.06c.05.28.11.56.17.84zm2.61 91.04c.09.05.18.1.28.15.1-.2.21-.4.31-.61-.09-.05-.18-.09-.26-.14l-.33.6zm10.51 10.97c-.09.03-.19.06-.28.09.05.16.09.33.15.49 0 .01.19-.03.19-.04-.01-.19-.03-.36-.06-.54zm-11.81 10.52c.06 0 .13-.01.19-.01.02-.13.06-.26.04-.39-.01-.1-.1-.19-.15-.29-.06.02-.12.05-.17.07l.09.62zm-1.19-100.23c-.06-.13-.1-.23-.15-.33-.09.09-.21.17-.26.28-.02.04.11.16.17.24.09-.07.16-.13.24-.19zm4.26 34.06.21-.09c-.05-.14-.09-.27-.14-.41-.06.03-.18.07-.17.1.02.14.07.27.1.4zm-2.14-5.32c-.08-.01-.16-.02-.23-.02l.09.64.2-.03-.06-.59zM36.22 246.63c.82.53 1.66 1.03 2.46 1.6 1.39.99 2.82 1.95 4.11 3.07.89.78 1.94.85 2.97 1.1 1.24.31 2.32.95 3.44 1.51.31.16.59.42.92.5 1.93.49 3.86.97 5.8 1.41 1.21.27 2.43.61 3.65.64 1.77.04 3.48.62 5.29.37.92-.13 1.89.17 2.85.25 1.59.13 3.17.23 4.76.35.13.01.26.09.65.24-.48.11-.69.2-.91.21-1.19.02-2.38.05-3.57.02-.71-.02-1.42-.14-2.14-.2-3.05-.26-6.11-.59-9.17-.76-2.37-.13-4.66-.53-6.89-1.37-1.44-.54-3-.81-4.36-1.48-1.97-.97-4.23-1.47-5.74-3.26-.17-.2-.48-.28-.71-.42-.62-.37-1.15-.79-1.55-1.44-.39-.63-1.01-1.12-1.53-1.66-.16-.17-.31-.34-.47-.51.04-.06.09-.12.14-.17z"/><path class="st0" d="M197.28 234.55c1.75-.07 3.5-.15 5.25-.22 0 .11.01.21.01.32-1.75.17-3.51.33-5.27.27.01-.13.01-.25.01-.37zM241.08 67.28c-.11-1.66-.23-3.33-.34-4.99.1-.01.2-.01.3-.02l.36 4.94c-.11.02-.22.05-.32.07zM74.65 257.11h1.73c-.24.9-.24.9-1.73 0zM248.12 124.5c.44.97-.36 2.1.86 2.62-.4.35-.79.34-.83-.03-.09-.79-.03-1.61-.03-2.59zM252.83 172c.34.58.21 1.08-.27 1.64-.51-.72.12-1.14.27-1.64zM32.72 71.6c.22-.26.45-.46.74-.14.06.07.02.33-.06.4-.33.28-.54.08-.68-.26zM147.37 255.02c-.3.08-.6.16-1.03.29.28-.65.65-.48 1.03-.29zM108.37 256.96c-.33-.06-.66-.12-1.1-.19.57-.24.57-.24 1.1.19zM26.64 88.85c-.12.27-.25.54-.41.9-.41-.59.06-.75.15-1.05.08.06.17.1.26.15zM248.76 129.26l-.06-.4c.08.04.18.07.23.14.03.04-.01.14-.02.21a.88.88 0 0 1-.15.05z"/><path d="M84.03 143.43c.24-.48.47-.95.78-1.57.24.36.35.53.5.76.44-.69.85-1.32 1.27-1.96-.18-.16-.31-.28-.44-.4.22-.2.42-.52.66-.56.55-.1.84-.23.53-.84-.06-.11.03-.3.06-.45.04-.23.08-.46.13-.73 1.35-.41 1.69-1.62 2.23-2.68-.06-.07-.12-.14-.18-.2-.52.4-1 .85-1.56 1.18-.56.33-.63 1.23-1.44 1.26.18-.57.32-1.1.52-1.6.16-.4.4-.76.59-1.15.18-.36.56-.59.49-1.14-.06-.45.36-.7.86-.82.47-.11.96-.34 1.34-.63.78-.6 1.47-1.33 2.26-1.93 1.17-.9 2.39-1.72 3.57-2.6.37-.27.68-.62.95-1.02-1.08.09-1.61 1.06-2.43 1.49-.11-.06-.23-.09-.23-.13 0-.23.77-1.57.93-1.67.44-.29.88-.6 1.27-.98-.75-.2-1.17.29-1.68.63s-1.1.58-1.73.75c.25-.23.5-.47.75-.7.64-.61.63-.69-.09-1.42 1.03-.81 2.05-1.62 3.11-2.45-.47-.52-.48-1.04-.08-1.6.11-.16.03-.45.04-.73h1.47c-.12-.32-.23-.5-.22-.67.01-.13.16-.37.26-.37.84-.03.56-1.15 1.42-1.31 1.19-.23 2.33-.75 3.46-1.22.41-.17.69-.65 1.1-.8.74-.26 1.19-1.05 2.22-.84.7.14 1.51-.34 2.28-.54.27-.07.58-.05.81-.19 1.2-.69 2.51-.71 3.83-.76.23-.01.54 0 .68-.14.81-.77 1.71-.93 2.82-.46-.24-.41-.41-.7-.63-1.08-1.43.27-2.91.55-4.38.83.52-.91 1.38-1.29 2.31-1.61.34-.12.61-.44.94-.64.3-.19.6-.37.93-.49.93-.33 1.85-.66 2.8-.91.4-.11.86-.02 1.29-.05 1.4-.09 2.79-.14 4.14.32.19.06.39.07.59.11.98.16 1.96.2 2.91.62.59.27 1.32.27 1.99.32 1.16.08 2.28.2 3.34.77.83.45 1.74.74 2.62 1.11 1.9.79 3.82 1.54 5.69 2.39 1.56.7 3.19 1.34 4.56 2.33 1.33.95 2.81 1.77 3.89 3.03.64.75 1.16 1.56 1.99 2.15.45.32 1.34.3 1.21 1.23-.01.07.34.15.49.28.56.48 1.11.96 1.64 1.46.22.21.34.57.59.7.77.39 1.18 1 1.42 1.79.19.63.71 1.01 1.15 1.46.87.89 1.47 1.96 2.06 3.05.32.6.74 1.05 1.51 1.1.25.01.48.38.93.76-.44-.04-.57-.06-.88-.09.34.74.65 1.39.95 2.05.56 1.23 1.11 2.46 1.66 3.7-.52 1.13.38 1.93.66 2.88.03.11.03.24.03.36-.03 1.15.34 2.12 1.37 2.76-.44 1.2.3 2.07.76 2.96.41.8.43 1.66.7 2.48.14.44.3.87.41 1.32.23.94.88 1.74.82 2.81-.02.34.55.73.91 1.16-.48.27-.33.78-.18 1.29.22.76.47 1.51.64 2.27.05.22-.06.55-.21.74-.33.41-.38.82-.29 1.33.13.74.1 1.49.02 2.25-.11.96-.06 1.94.55 2.78.38.52.11.76-.55.93 1.28.86.6 2.06.66 3.11.03.48-.56.96-.67 1.48-.55 2.42-1.68 4.62-2.54 6.92-.26.69-.27 1.48-.39 2.22.95 1.03-.26 1.9-.24 2.88.01.57-.58 1.1-.5 1.78.01.12-.12.33-.24.38-.75.32-.93 1.06-1.25 1.68-.7 1.34-1.51 2.63-2.07 4.03-.99 2.46-2.6 4.45-4.39 6.33-.58.61-1.19 1.19-1.72 1.83-1.4 1.71-3.07 3.09-4.73 4.53-1.89 1.63-4.11 2.14-6.4 2.6-2.11.42-4.24.73-6.36 1.11-.3.05-.58.21-.99.36.33.36.58.64.83.92-.41.64-.95.82-1.72.74-.65-.07-1.32.2-1.99.27-2.42.26-4.84.52-7.26.75-1.1.1-2.22.13-3.32.2-.16.01-.32.04-.47.09-1.41.48-2.85.74-4.35.61-.37-.03-.83.11-1.12.34-.77.59-1.57.41-2.4.27-1.14-.19-2.28-.35-3.43-.45-.45-.04-.92.14-1.38.19-.27.03-.55.04-.81-.01-2.92-.64-5.83-1.3-8.75-1.94-.22-.05-.45-.01-.85-.01.26.44.45.76.73 1.24-4.02-1.19-7.73-2.69-11.18-4.9.39.32.78.65 1.18.97-.04.07-.08.14-.12.2-.24-.14-.49-.25-.71-.41-.91-.64-1.78-1.3-2.44-2.24-.32-.45-.9-.73-1.38-1.06-.43-.3-.87-.57-1.4-.9-.09-.55-.11-1.28-.36-1.92-.24-.59-.74-1.08-1.17-1.67-.12.25-.19.41-.3.63-.18-.15-.38-.25-.47-.4-.44-.76-1.11-1.21-1.89-1.57-.93-.43-1.09-1.52-1.71-2.24-.25-.29-.41-.66-.62-.99-.06-.1-.17-.19-.19-.3a96.29 96.29 0 0 1-.74-3.37c-.12-.61-.09-1.27-.28-1.86-.81-2.5-1.68-4.99-2.52-7.48-.25-.75-.48-1.52-.68-2.29-.05-.21.02-.46.06-.68.15-.87.26-1.7-.16-2.56-.26-.53-.45-1.11.19-1.7.45-.41.36-1.15.05-1.77-.22-.44-.38-.93-.49-1.41-.03-.15.18-.36.39-.75.12.44.18.64.24.87.04-.03.12-.06.13-.1.11-.54-.09-.92-.61-1.08.08-.63.16-1.19.23-1.75.08 0 .16-.01.24-.01.08.25.16.51.27.85.27-.95.16-1.78.09-2.65-.1-1.29.15-2.61.26-3.91.08-.95.08-1.92.28-2.84.28-1.29.51-2.55.44-3.88-.04-.65.01-1.32.58-1.87.27-.26.24-.82.41-1.22.21-.49.05-1.15.9-1.55-.24.81-.37 1.49-.64 2.11-.29.65-.46 1.27-.16 1.99.81-.11.93-.86 1.34-1.36.4-.49-.08-1.3.71-1.7.34 1.62-.39 2.9-1.05 4.32.25-.01.56.05.62-.05.24-.4.54-.83.59-1.27.19-1.68.83-3.22 1.36-4.79.32-.93.62-1.87.83-2.85-.7.5-.85 1.35-1.41 2.09-.15-.36-.28-.62-.36-.89-.21-.71-.12-1 .55-1.2 1.1-.32 1.11-1.44 1.7-2.12-.57-.68.24-1.16.24-1.74.01-.58.33-.83.82-.98.26-.08.66.36.85-.4-.36.14-.6.26-.85.38zm12.22 42.06v.29c.57.05 1.15.12 1.72.14 2.19.11 4.39.29 6.58.28 2.02 0 4.03-.22 6.05-.33 2.03-.11 4.06-.2 6.09-.31.63-.03 1.27-.01 1.89-.11 2.46-.4 4.92-.8 7.37-1.27 2.11-.41 4.21-.86 6.29-1.39 1.15-.29 2.26-.75 3.39-1.14 2.3-.8 4.35-1.95 5.86-3.94.55-.73 1.12-1.52 1.86-2.01 1.46-.97 2.3-2.36 3.04-3.84.61-1.23 1.13-2.51 1.68-3.77.11-.25.15-.53.22-.79.14-.54.24-1.09.44-1.6.91-2.37 1.85-4.73 2.77-7.09.38-.96.74-1.92 1.12-2.87.15-.39.41-.78.44-1.19.07-.9.14-1.78-.01-2.71-.17-1.11-.21-2.27.19-3.42.61-1.77.21-2.55-1.37-3.53-1.64-1.02-3.25-2.11-4.87-3.18-.16-.1-.38-.25-.39-.4-.06-.58-.58-.62-.93-.82-.44-.26-.92-.42-1.38-.66-.88-.45-1.72-1.04-2.65-1.34-1.03-.34-2-.86-3.27-.52-.9.24-2.01-.26-3.02-.43-.55-.09-1.09-.23-1.64-.27-2.37-.17-4.68.23-6.95.86-.52.14-1.03.5-1.59.05-.07-.06-.28.04-.41.09-1.27.45-2.54.92-3.82 1.35-.83.28-1.67.64-2.53.7-1.37.1-2.52.68-3.65 1.33-1.55.89-3.08 1.82-4.62 2.73-2.29 1.35-4.57 2.74-6.44 4.66-1.46 1.51-2.85 3.09-4.24 4.67-.47.53-.95 1.08-1.25 1.71-.56 1.17-.98 2.42-1.48 3.62-.87 2.1-1.61 4.24-1.98 6.48-.36 2.2-.86 4.38-.85 6.63.01 1.79-.17 3.59.53 5.32.76 1.88 1.33 3.82 1.31 5.89 0 .62.07 1.3.84 1.56.05.02.06.12.1.19-.16.13-.3.25-.44.38zM77.51 156.8c.41.82.5 1.44.03 2.16-.41.64-.45 1.44-.32 2.33.36-.6.68-1.07.93-1.57.13-.27.17-.6.19-.9.03-.62.01-1.23.01-1.97-.22-.02-.49-.04-.84-.05zm76.35-8.31c.11.01.22.03.33.04.46-.49.23-1.08.15-1.64l-.26-.03c-.07.54-.14 1.08-.22 1.63zm-76.43 14.69c-.06.01-.12.02-.18.02v.76h.15c0-.26.01-.52.03-.78zm5.83-18.05c.07.07.13.15.2.22l.49-.52c-.05-.05-.1-.11-.15-.16-.17.15-.35.31-.54.46zm10.47-13.18-.21-.18c-.11.16-.22.32-.33.49.06.04.12.09.18.13.12-.15.24-.29.36-.44zm-.03-1.77c-.41.42-.57.65.06.88-.02-.27-.04-.48-.06-.88zM210.86 80.11c1.13 1.33 2.29 2.64 3.39 4 .65.8 1.23 1.67 1.83 2.51.07.09.15.23.13.33-.21 1.12.48 1.82 1.13 2.57.31.36 1.02.74.37 1.41 0 0 .26.38.37.36.24-.04.65-.19.67-.33.11-.83.75-.94 1.28-1.07l1.07-1.6.69.33c.11-.28.22-.56.32-.83.78.19.78.19 1.36-.21.8.79 1.62 1.6 2.56 2.52.04.21.12.63.2 1.04-.17.43-.57.87.03 1.39.06.05.13.17.12.2-.47.65-.01 1.16.23 1.71.18.41.37.82.58 1.29-.56.54-.83 1.18-.76 2.08.04.55-.43 1.16-.74 1.71-.65 1.17-1.35 2.33-2.03 3.49-.08.14-.19.25-.29.38-.63.81-.63.88.11 1.77-.23.5-.47 1.03-.73 1.55-.94 1.88-1.98 3.7-2.65 5.71-.46 1.38-1.13 2.72-1.92 3.94-.87 1.35-1.83 2.7-3.39 3.38-.47.2-.98.3-1.47.44-.79.23-1.65.31-2.36.7-1.56.85-3.22 1.07-4.95 1.12-1.35.04-2.75-.01-4.04.32-1.15.29-2.22.22-3.34.16-1.39-.08-2.8-.15-4.18-.04-2.22.18-4.41-.1-6.54-.58-1.22-.27-2.43-.16-3.63-.37-1.16-.2-2.29-.54-3.43-.82-.22-.05-.5-.25-.65-.17-.98.53-1.6-.19-2.19-.69-1.36-1.15-2.76-2.29-3.91-3.63-.96-1.12-1.99-2.15-3.02-3.19-.7-.71-1.41-1.41-2.1-2.13-.15-.16-.24-.4-.33-.61-.5-1.29-1.12-2.55-1.07-3.99 0-.07-.04-.15-.08-.22-.8-1.24-.74-2.65-.84-4.04-.12-1.74.34-3.32 1.09-4.84.28-.57.53-1.16.85-1.71.17-.29.55-.45.71-.73.68-1.16 1.33-2.33 1.95-3.52.59-1.14 1.31-2.15 2.34-2.94.43-.33.86-.7 1.17-1.14.4-.57.83-1.04 1.49-1.33.3-.13.52-.43.77-.65.21-.18.39-.42.63-.51.41-.15.63-.38.8-.8.24-.61.69-1.07 1.4-1.17.47-.07.69-.36.72-.82.04-.74.48-1.23 1.03-1.66.31-.25.6-.54.93-.76.71-.47 1.1-1.13 1.25-1.96.8.31 1.4.02 1.98-.57 1.13.4 2.2.04 3.31-.32.82-.27 1.72-.25 2.58-.39 1.61-.25 3.22-.52 4.83-.79.59-.1 1.11-.18 1.66.27.69.55 1.59.42 2.43.4 1.35-.04 2.71-.17 4 .39.32.13.6.34.89.53.24.15.45.35.7.45.53.2 1.33.04 1.21 1.01.58.33 1.16.68 1.75.99.17.09.38.11.57.16l-.06-.01c.41.21.83.42 1.24.63l-.02-.1zm-7.16 22.95c-.35-.78-.64-1.45-.94-2.13.8.32.72 1.49 1.73 1.76.05-.33.17-.6.1-.83-.19-.63-.36-1.29-.71-1.84-.52-.82-.72-1.65-.55-2.33-.51-.7-.86-1.25-1.28-1.74-.56-.65-1.04-1.35-1.97-1.63-1.03-.31-2.23-.29-3.04-1.22-.1-.12-.38-.14-.57-.13-.75.01-1.5.04-2.25.07-.47.02-1.02.23-1.41.07-.92-.38-1.61.12-2.37.38-.45.15-.84.51-1.29.61-1.36.28-1.74 1.35-2.04 2.45-.24.85-.34 1.73-.5 2.59-.29-.02-.44-.04-.74-.06-.02 1.57 0 3.12-.08 4.65-.05.96.7 1.27 1.2 1.79.35.36.78.77 1.31.19.05-.06.25-.04.34.01 1.06.63 2.17.21 3.26.18.31-.01.75 0 .9-.19.67-.88 1.53-.66 2.41-.58.33.03.91-.02.99-.2.48-1.06 1.37-.9 2.24-.9.27 0 .66.02.78-.14.53-.65 1.21-.48 1.88-.47.8.01 1.65.14 2.6-.36zM240.1 154.35c.65-.3 1.26-.4 1.91.29.27-.39.51-.75.79-1.16.64.35.4 1.08.27 1.35-.56 1.16-.19 2.16.36 3.27-.77.08-.82.51-.82 1.14-.01 1.33-.22 2.66-.25 4-.02.98.12 1.97.16 2.95.01.22-.09.45-.16.73-.75-.1-1.05-.41-1.05-1.16-.01-.84.19-1.63.3-2.44.2-1.43.23-2.88.27-4.32.03-1.08.03-2.16-.05-3.23-.03-.35-.28-.73-.52-1.01-.11-.12-.49-.11-.69-.02-.41.2-.46-.04-.52-.39zM241.71 122.25c1.05-.09 1.19.65 1.69 1.11-.89.61-.77 1.4-.7 2.25.12 1.37.09 2.75.12 4.13.01.51.01 1.03.04 1.54.04.9.11 1.79.17 2.87-.51-.08-.85-.14-1.23-.2.36-.9 1.02-1.63.45-2.57-.06-.1 0-.32.07-.43.3-.46.15-.79-.05-1.29-.27-.66-.18-1.47-.24-2.21-.11-1.38-.23-2.75-.33-4.13-.01-.35.01-.69.01-1.07z"/><path d="M209.65 79.51s.06 0 .06.01c-.02-.13-.03-.26-.05-.39.33.01.7-.07.97.06.74.36.72.39 1.49-.14 2.25 1.8 3.59 4.31 5.15 6.65-.48.8-.69.84-1.1.18-.58-.95-1.1-1.94-1.68-2.9-.53-.87-1.1-1.73-1.7-2.56-.14-.19-.6-.39-.69-.31-.45.39-.84-.1-1.24-.01l.03.03c-.3-.4-.72-.61-1.24-.62zM243.62 116.97c-1.29-.97-.47-2.18-.93-3.2-.12.06-.26.14-.48.27-.07-.06-.18-.15-.29-.24-.11-.09-.23-.18-.42-.32-.1.26-.17.44-.24.61-.05 0-.1-.01-.16-.01.09-1.48.19-2.95.28-4.43h.19c.26.77.51 1.55.85 2.56.05-.56.08-.86.11-1.17.12.01.23-.01.25.03.34.63.48 1.27.45 2.03-.04 1.05.2 2.1.32 3.15.03.16.04.34.07.72zM242.19 152.83c-.15-.12-.29-.24-.49-.4-.22.26-.45.52-.7.8-.05-.13-.1-.2-.09-.26.14-.94.32-1.87.42-2.81.06-.64.48-.62.97-.62.18-.79.36-1.58.54-2.38.04-.01.07-.01.11-.02.07.47.16.94.19 1.41s.01.95.01 1.42c-.59.11-.72.45-.65 1.01.07.57.02 1.16.02 1.74-.12.04-.23.08-.33.11zM240.09 101.56c.18-.93.39-1.95.61-3.07.77 1.05.06 2.19.42 3.25s.29 2.27.38 3.41c.08 1.07.12 2.14.18 3.33-.72-.49-1.13-.88-.47-1.53.09-.09.11-.3.09-.45-.13-.78-.29-1.55-.43-2.33-.09-.54-.11-1.09-.24-1.62-.09-.31-.32-.59-.54-.99zM238.46 61.58c1.01.23 1.02.24.98 1.11-.03.66-.2 1.32.21 1.95.08.13-.05.38-.04.57.01.43-.06.91.11 1.27.41.9.19 1.75-.1 2.64-.04-.21-.12-.42-.12-.63-.01-1.06-.26-2.08-.56-3.09-.15-.52-.13-1.1-.11-1.65.04-.75.02-1.48-.37-2.17zM240.05 89.39c.1.26.34.56.28.78-.21.74.11 1.38.23 2.07.09.53-.07 1.09-.08 1.64-.01.54-.12 1.14.09 1.59.34.73.05 1.38-.02 2.06-.01.05-.19.09-.35.16 0-.72-.01-1.38 0-2.05.01-.64.07-1.28-.48-1.76-.07-.06-.11-.25-.07-.33.56-1.34.38-2.72.17-4.11.07-.02.15-.04.23-.05zM251.41 179.56c.41.22.65.35 1 .55-.1.37-.21.77-.3 1.18-.08.37-.2.75-.18 1.12.05 1.06.17 2.12.16 3.19-.84-1.89-.72-3.88-.68-6.04zM241.36 79.98c-.07 1.32-.2 2.64-.2 3.96 0 1.3.15 2.6.23 3.9-.08.02-.17.05-.25.07-.11-.21-.3-.41-.31-.63-.03-.67 0-1.34.01-2.01.02-1.54.04-3.08.08-4.62.01-.23.09-.46.13-.69.1.01.2.01.31.02zM240.42 182.17c.19-.11.39-.23.66-.4.09.35.18.6.22.85.31 2.36.3 2.48-.34 3.19-.27-.33-.53-.64-.79-.96.88-.55.78-1.52.25-2.68zM242.52 146.22c-.19-.85-.36-1.46-.06-2.19.22-.54.12-1.2.17-1.88.11.09.33.19.37.33.39 1.34.21 3.01-.48 3.74zM240.08 87.34c-.37-1.15-1.46-2.13-.73-3.53.48.28.86.51.75 1.22-.1.76-.02 1.54-.02 2.31zM178.76 234.9c1.28-.42 2.62-.18 3.95-.25 0 .08.01.17.01.25h-3.96zM247.16 148.67c-.74-.94.05-1.79-.59-2.67l1.51 1.03c.02.31.34.78-.12 1.35-.17-.48-.3-.85-.43-1.23-.05.01-.1.02-.14.03-.07.43-.13.85-.23 1.49zM241.73 143.97c.67.89.15 1.86.17 2.79-.41-.9-.26-1.85-.17-2.79zM241.04 75.86c.75.99.57 2.04.14 3.1-.05-1.03-.1-2.07-.14-3.1zM242.6 168.77c-.11.6-.21 1.1-.3 1.6-.77-.26-.85-.37-.73-1.01.11-.55.17-.59 1.03-.59zM242.48 109.46c-.07-.81-.13-1.63-.21-2.64.85.92.65 1.76.21 2.64zM87.73 132.9l-1.03 1.59c-.29-1.09-.27-1.13.83-1.75.07.05.14.11.2.16zM186.87 234.89h-2.78v-.23h2.75l.03.23zM241.99 140.27v2.17h-.22v-2.13c.07-.01.15-.03.22-.04zM241.69 139.28v-1.55c.44.8.44.94 0 1.55zM242.28 177.42c-.04.51-.09 1.02-.13 1.52-.08-.01-.16-.01-.24-.02.08-.51-.55-1.06.37-1.5zM90.91 126.65l1.19-1.07c-.07.75-.6.95-1.19 1.07zM243.71 121.81c-.2-.34-.38-.7-.61-1.02-.25-.34-.21-.55.36-.71.09.62.17 1.21.25 1.73zM242.39 116.07c-.24.45-.39.75-.55 1.04l-.25-.06c-.04-.27-.08-.53-.12-.84.27-.04.49-.08.92-.14zM242.53 137c.02-.47.05-.94.09-1.62.68.68.22 1.15.34 1.61-.14.01-.29.01-.43.01zM239.48 78.93c.6.64.38 1.16 0 1.69v-1.69zM244.76 102.09c.07.44.13.87.23 1.52-.68-.54-.35-1.07-.49-1.49l.26-.03zM170.14 235.45c-.56.45-1.19.54-1.88.22.63-.07 1.26-.14 1.88-.22.01 0 0 0 0 0zM240.99 72.55l.35 1.62c-.73-.39-.73-.39-.34-1.63.01 0-.01.01-.01.01zM245.37 93.29c-.63-.44-.47-.97-.25-1.51.09.5.17 1 .25 1.51zM245.08 132.5v-.78c.06 0 .12-.01.18-.01.03.25.07.51.1.76l-.28.03zM245.59 130.13l.12.71c-.09.02-.18.04-.26.06l-.15-.69c.1-.03.19-.06.29-.08zM242.52 140.46c-.22-.39.15-.61.5-.85-.06.31-.11.61-.17.92a3.88 3.88 0 0 0-.33-.07zM242.4 120.29c.05.34.09.68.15 1.12-.41-.43-.41-.43-.15-1.12zM245.36 139.8c-.02-.3-.05-.6-.07-.9l.27-.03.12.89c-.11.01-.21.03-.32.04zM171.32 172.2c-.04-.29-.07-.58-.11-.87l.18-.06c.08.13.19.25.24.4.05.15.03.32.04.48-.11.02-.23.03-.35.05zM246.82 138.74c.02.32.04.65.06 1.07-.77-.31-.45-.68-.06-1.07z"/><path d="m238.46 61.58.1-1.26c.44.56.24.92-.1 1.26zM170.15 235.45h1.61v.09l-1.61-.09c-.01 0 0 0 0 0zM240.98 89.35l-.09-.57c.06-.02.13-.04.19-.05.06.18.12.37.19.55-.1.02-.2.05-.29.07zM241.69 136.57c-.02-.33-.03-.67-.05-1h.11v1h-.06zM239.35 77.02c-.06-.28-.11-.56-.17-.84l.21-.06c.08.28.17.57.25.85-.1.02-.2.04-.29.05zM241.96 168.06c.11-.2.22-.4.32-.6.09.05.18.09.26.14-.1.2-.21.4-.31.61-.08-.06-.18-.1-.27-.15zM252.47 179.03c.02.18.05.36.06.54 0 .01-.19.05-.19.04-.06-.16-.1-.32-.15-.49.09-.03.19-.06.28-.09zM240.66 189.55l-.09-.62c.06-.02.12-.05.17-.07.05.1.14.19.15.29.02.13-.02.26-.04.39-.06.01-.12.01-.19.01zM239.47 89.32c-.08.07-.16.12-.23.18-.06-.08-.19-.19-.17-.24.05-.11.17-.19.26-.28.04.1.09.2.14.34zM243.73 123.38c-.04-.13-.08-.26-.1-.4 0-.03.11-.07.17-.1.05.14.09.27.14.41l-.21.09zM241.59 118.06c.02.2.03.39.05.59l-.2.03-.09-.64c.09 0 .16.01.24.02z"/><path class="st0" d="M96.25 185.49c.14-.13.28-.25.42-.38-.03-.07-.05-.18-.1-.19-.77-.25-.85-.93-.84-1.56.01-2.07-.55-4-1.31-5.89-.7-1.73-.52-3.53-.53-5.32-.01-2.25.49-4.43.85-6.63.37-2.24 1.11-4.38 1.98-6.48.5-1.2.92-2.45 1.48-3.62.3-.63.78-1.18 1.25-1.71 1.39-1.57 2.77-3.16 4.24-4.67 1.87-1.92 4.15-3.3 6.44-4.66 1.54-.91 3.07-1.84 4.62-2.73 1.14-.65 2.28-1.23 3.65-1.33.86-.06 1.7-.42 2.53-.7 1.28-.43 2.55-.9 3.82-1.35.14-.05.34-.14.41-.09.56.44 1.07.09 1.59-.05 2.28-.63 4.58-1.03 6.95-.86.55.04 1.09.18 1.64.27 1.01.17 2.12.67 3.02.43 1.27-.34 2.24.18 3.27.52.93.31 1.77.89 2.65 1.34.45.23.94.4 1.38.66.35.21.87.24.93.82.02.15.24.3.39.4 1.62 1.07 3.22 2.15 4.87 3.18 1.58.98 1.97 1.76 1.37 3.53-.39 1.15-.36 2.31-.19 3.42.15.93.08 1.81.01 2.71-.03.4-.29.79-.44 1.19-.37.96-.74 1.92-1.12 2.87-.93 2.36-1.86 4.72-2.77 7.09-.2.51-.29 1.07-.44 1.6-.07.27-.11.55-.22.79-.55 1.26-1.07 2.54-1.68 3.77-.74 1.48-1.58 2.87-3.04 3.84-.74.49-1.3 1.29-1.86 2.01-1.51 1.99-3.56 3.14-5.86 3.94-1.13.39-2.24.85-3.39 1.14-2.08.52-4.18.98-6.29 1.39-2.45.47-4.91.87-7.37 1.27-.62.1-1.26.08-1.89.11-2.03.1-4.06.2-6.09.31-2.02.11-4.04.32-6.05.33-2.19.01-4.39-.17-6.58-.28-.57-.03-1.15-.09-1.72-.14.02-.1.02-.2.02-.29zM77.51 156.8c.35.02.62.03.84.04 0 .74.02 1.36-.01 1.97-.01.3-.05.63-.19.9-.25.51-.57.98-.93 1.57-.14-.88-.1-1.68.32-2.33.47-.71.38-1.33-.03-2.15zM153.86 148.49c.07-.54.15-1.09.22-1.63l.26.03c.09.56.31 1.15-.15 1.64-.11-.01-.22-.03-.33-.04zM77.43 163.18l-.03.78h-.15v-.76c.05 0 .11-.01.18-.02zM83.26 145.13l.55-.46c.05.05.1.11.15.16l-.49.52c-.07-.07-.14-.15-.21-.22zM93.73 131.95c-.12.14-.24.29-.36.43-.06-.04-.12-.09-.18-.13.11-.16.22-.32.33-.49.07.07.14.13.21.19zM93.7 130.18c.03.39.04.61.06.88-.63-.22-.47-.45-.06-.88zM84.03 143.43c.24-.12.49-.24.86-.42-.19.76-.59.32-.85.4l-.01.02zM203.7 103.06c-.95.5-1.8.37-2.62.36-.67-.01-1.35-.18-1.88.47-.13.16-.52.14-.78.14-.87-.01-1.76-.17-2.24.9-.08.18-.66.23-.99.2-.88-.08-1.74-.3-2.41.58-.14.18-.59.18-.9.19-1.09.03-2.2.44-3.26-.18-.09-.05-.29-.07-.34-.01-.54.58-.97.17-1.31-.19-.5-.51-1.25-.83-1.2-1.79.09-1.54.06-3.08.08-4.65.3.02.45.04.74.06.16-.85.27-1.74.5-2.59.3-1.1.68-2.17 2.04-2.45.45-.09.84-.46 1.29-.61.76-.26 1.46-.76 2.37-.38.39.16.93-.05 1.41-.07.75-.03 1.5-.06 2.25-.07.19 0 .47.01.57.13.81.93 2 .91 3.04 1.22.94.28 1.41.98 1.97 1.63.42.49.77 1.04 1.28 1.74-.17.68.03 1.51.55 2.33.34.55.52 1.21.71 1.84.07.22-.05.5-.1.83-1.01-.28-.93-1.44-1.73-1.76.32.68.61 1.35.96 2.13zM209.65 79.51c.52.01.93.21 1.24.63-.41-.21-.82-.42-1.24-.63z"/></svg>