<svg version="1.1" id="Vrstva_1" xmlns="http://www.w3.org/2000/svg" x="0" y="0" viewBox="0 0 285.24 285.24" style="enable-background:new 0 0 285.24 285.24" xml:space="preserve"><style>.st0{fill:#fff}</style><path d="M266.76 220.23c-.12.29-.23.59-.34.87-1.11-.15-1.25-.07-1.57.9.31.13.62.27.98.42-.05.24-.03.53-.14.59-.74.43-1.14 1.24-1.96 1.59-.65.28-1.18.77-1.46 1.51-.22.58-.72.88-1.4.77-.15-.02-.44.06-.48.16-.26.71-.89.54-1.51.7-.18-.21-.38-.45-.54-.63-2.01-.12-3.56 1.15-5.39 1.82-.05-.36-.08-.55-.1-.73-.02-.19-.03-.38-.05-.57-.51-.25-.86-.18-1.16.27-.82 1.22-1.66 2.44-2.49 3.66-.65.08-1.34.17-2.09.26-.02.3.02.59-.08.81-.1.23-.34.39-.57.64-.21-1.61.37-2.59 1.77-3.17.08.22.11.54.27.63.14.08.51 0 .64-.15.67-.76 1.56-1.45 1.16-2.69-.07-.21-.01-.46-.18-.78-.44.73-.89 1.46-1.31 2.15-.2-.03-.3-.02-.35-.06-.3-.25-.57-.67-.9-.71-.32-.04-.66.38-1.03.47-.45.11-.94.15-1.41.13-1.13-.05-2.08.36-2.86 1.11-.46.44-.95.67-1.58.73-.74.07-1.53.1-2.03.8.84.95 1.52.9 2.69-.1.31-.27.71-.49 1.1-.6.57-.16 1 .08 1.19.69.13.41.28.8.44 1.24l-2.1.73c.13.4.23.68.35 1.04-.24.13-.47.26-.71.38-.18.09-.51.14-.52.24-.08.73-.71.95-1.22 1.36.98.32 1.89.5 3.09.03-.21.38-.33.57-.43.77-.12.25-.22.5-.27.63-1.14.42-2.21.74-3.22 1.2-.63.29-1.16.8-1.77 1.16-.58.34-1.2.61-1.8.91-.11.05-.3.08-.31.14-.19 1.2-1.31 1-2.04 1.29-2.33.93-4.76 1.62-7.05 2.64-1.92.85-3.96 1.35-5.87 2.22-2.28 1.03-4.62 1.89-6.92 2.88-1.31.57-2.57 1.24-3.85 1.86-.14.07-.3.11-.46.12-1.39.06-2.58.75-3.82 1.27-.66.28-1.32.57-1.98.85-.67.28-1.36.39-2.1.35-.58-.03-1.2.1-1.76.27-.28.09-.61.4-.7.67-.14.47-.48.59-.81.52-1.19-.23-2.37-.52-3.63-.81.25-1.07-.36-1.38-1.19-1.55-.46-.09-.89-.94-.84-1.47.12-1.18-.47-2.71-2.07-2.82-.67-.05-1.36 0-2.03-.01-3.29-.01-6.58-.04-9.87-.04-2.11 0-4.22.03-6.32.08-1.95.04-3.89.14-5.84.17-1.82.03-3.64-.04-5.45.06-.59.03-1.28.31-1.73.7-.82.72-1.79.79-2.76.95-.54.09-1.1.1-1.65.14-.41.03-.67-.11-.76-.57-.05-.28-.22-.74-.37-.76-.7-.06-1.35-.68-2.11-.19-.33.21-.73.31-1.12.42-.39.11-.8.2-.99-.31-.47.21-.93.43-1.39.63-.89.39-1.83.61-2.6 1.33-.48.45-1.31.53-2.17.85.45-1.04 1.64-.66 2.07-1.53-.29-.02-.57-.11-.78-.03-1.45.52-3.02.47-4.48.95-.74.25-1.51.43-2.26.84.21.04.43.07.64.11-1.24.6-2.36 1.43-3.75 1.5-.38.02-.9.03-1.14-.19-.66-.64-1.19-.48-1.76.06-.13.12-.32.19-.64.14.18-.33.37-.66.64-1.14-.98.46-1.94.54-2.67 1.26-.51.5-1.29.44-2.07.05-.45 1.06-1.51 1.12-2.4 1.4-.79.24-1.63.32-2.43.54-.85.23-1.65.43-2.57.34-.64-.06-1.35.32-2 .58-.36.14-.65.44-1.04.71.23.42.55.77.96.33.82-.89 1.91-.65 2.88-.8 1.84-.3 3.7-.44 5.54-.71 2.89-.42 5.75-1 8.6-1.63 1.98-.44 3.98-.79 5.97-1.12.85-.14 1.73-.11 2.59-.22 1.12-.15 2.22-.38 3.33-.57.59-.1 1.18-.21 1.77-.27 1.81-.2 3.64-.55 5.45-.51 2.34.06 4.64-.46 6.98-.36.62.03 1.25-.19 1.89-.25.58-.06 1.16-.06 1.74-.11 1.59-.15 3.17-.45 4.76-.46 1.87-.01 3.73.21 5.6.33.2.01.4.06.6.03 2.11-.36 4.2-.03 6.31.09.51.03 1.03-.04 1.55-.06.24-.01.5-.09.71-.03 1.39.4 2.77-.01 4.15-.03 1.14-.02 2.29-.09 3.43-.13.48-.02.45.31.44.72-.27.04-.53.11-.79.12-.95.04-1.9.07-2.86.09-3.27.07-6.54.17-9.81.2-1.55.01-3.12-.26-4.65-.13-.9.07-1.82-.13-2.75.2-.56.2-1.31-.1-1.97-.18-.15-.02-.36-.13-.44-.06-.79.67-1.68.25-2.53.25-1.95.02-3.9.06-5.85.11-.92.02-1.84.06-2.75.12-.51.04-1.01.17-1.52.22-1.23.11-2.45.18-3.68.27-1.27-.87-2.61.05-3.9-.13-1.95 1.02-4.14.9-6.23 1.29-2.34.43-4.69.84-7.04 1.24-2.35.4-4.71.76-7.06 1.2-1.87.35-3.73.75-5.56 1.25-.61.16-1.12.69-1.78.99.2-.19.4-.39.59-.58-.03-.08-.07-.15-.1-.23-3.86.52-7.79.73-11.61 2.43-.52-.35-1.02-.11-1.71.36-.67.46-1.67.43-2.5.66-.53.15-1.03.38-1.53.59-.07.03-.13.12-.2.13-1.37.22-2.74.45-4.12.62-.5.06-2.02.35-2.78.75.41.19.73.34 1.04.48-.03.07-.06.2-.07.2-1.08-.19-2.13.61-3.23.11-.08-.04-.23.04-.32.1-.68.52-1.45.34-2.18.22-.72-.12-1.41-.26-2.07.23-.14.1-.38.09-.57.11-.55.05-1.1.07-1.66.13-.83.09-1.42-.15-1.94-.81-.5.23-.99.46-1.5.67-.22.09-.47.2-.69.17-1.83-.26-3.65.17-5.48.07-.88-.04-1.75-.05-2.63-.11-1.17-.08-2.34-.21-3.51-.27-.59-.03-1.19.09-1.77.05-1.25-.08-2.44-.48-3.65-.8-.29-.07-.67-.08-.92.06-.79.43-1.54.24-2.31 0-.53-.16-1.04-.38-1.57-.52-.34-.09-.72-.17-1.05-.11-1.41.24-2.77.04-4.14-.31-.56-.14-1.17-.08-1.76-.12-1.82-.14-3.61-.57-5.44-.44-1.02.07-2.04.25-3.06.35-.44.04-.88.07-1.31.03-1.12-.1-2.21-.12-3.32.17-.34.09-.81 0-1.13-.17-.67-.35-1.32-.49-2.07-.3-.29.07-.66.06-.94-.05-.93-.34-1.83-.74-2.75-1.11-.55-.22-1.12-.37-1.65-.63-1.74-.83-3.4-1.77-4.55-3.38-.63-.88-1.29-1.73-1.84-2.66-.57-.95-1.04-1.97-1.54-2.97-.96-1.88-1.95-3.75-2.84-5.67-.6-1.29-1.04-2.66-1.57-3.99-.21-.51-.55-.98-.72-1.5-.27-.87-.39-1.78-.69-2.64-.4-1.12-.86-2.23-1.4-3.28a20.17 20.17 0 0 1-1.4-3.52c-.51-1.76-1.25-3.45-1.88-5.17-.23-.63-.46-1.27-.66-1.92-.44-1.44-.81-2.89-1.28-4.32-.43-1.29-.45-2.56-.21-3.89.14-.77.08-1.58 0-2.37-.18-1.73-.46-3.45-.63-5.19-.05-.53-.18-1.11.3-1.59.11-.11.08-.38.07-.57-.04-1.6-.1-3.19-.13-4.79-.02-1.07.17-2.19-.08-3.2-.3-1.25-.39-2.5-.43-3.75-.14-4.04-.93-8-1.22-12.02-.09-1.21-.24-2.43-.1-3.67.08-.71-.27-1.46-.39-2.21-.16-1.02-.27-2.06-.44-3.08-.35-2.03-.78-4.05-1.09-6.09-.18-1.16-.42-2.32.14-3.52.28-.61.07-1.45.1-2.18.11-2.63.22-5.26.35-7.89.09-1.86-.12-3.71-.26-5.56-.03-.44-.09-.87-.11-1.31-.11-2.34-.25-4.68-.3-7.01-.03-1.02.15-2.05.16-3.07 0-.36-.26-.72-.3-1.09-.08-.89-.08-1.78-.13-2.66-.06-.95-.22-1.9-.19-2.84.05-1.29-.41-2.58.05-3.86.05-.13.03-.35-.05-.44-.51-.59-.3-1.27-.31-1.94-.01-1.86.18-3.73-.27-5.57-.13-.53-.09-1.11-.09-1.66.01-2.31-.04-4.63.08-6.94.09-1.89.4-3.78.59-5.67.04-.43.02-.87.01-1.31-.02-1.05-.06-2.1-.06-3.15 0-.54.09-1.09.15-1.75-.59-.23-.59-.76-.36-1.4.41-1.15.07-2.35.2-3.52 0-.04.01-.1-.01-.12-1.11-1.09-.33-2.33-.18-3.45.37-2.72.92-5.42 1.4-8.12.07-.39.11-.8.23-1.18.29-1 .49-1.99.48-3.05-.01-.74.32-1.47.43-2.21.11-.78.16-1.57.21-2.36.02-.3-.06-.61-.13-1.12.54.13.92.23 1.29.32-.11 1.3-.2 2.48-.3 3.65.6-.88.9-1.85 1.09-2.85.12-.64.36-1.11.88-1.6.68-.64 1.19-1.51 1.58-2.37.78-1.75 1.45-3.54 2.1-5.34.18-.5.11-1.09.18-1.64.07-.5.1-1.03.3-1.48.66-1.45 1.41-2.85 2.09-4.29.47-1 1.25-1.7 1.97-2.49 1.31-1.45 2.81-2.83 3.47-4.76-.22-.34-.4-.63-.65-1.01l1.01-.56.24.82c.13-.03.24-.02.28-.07.76-.96 1.72-1.79 1.91-3.11.02-.17.17-.37.32-.47.8-.53 1.01-1.38 1.24-2.22.09-.33.19-.75.44-.92.45-.32.76-.61.88-1.19s.65-.46 1.12-.42c.07.27.14.52.22.84.14-.08.28-.12.3-.19.17-.61.56-.82 1.17-.73.57.09 1.17-.22 1.75.14.12.08.44-.1.64-.21 1.33-.77 2.8-1.04 4.3-1.35.18.35.34.66.54 1.03.59-.2 1.14-.39 1.82-.63-.22-.18-.3-.29-.38-.29-.32 0-.69.11-.72-.38-.03-.43.32-.46.63-.56.33-.1.64-.28.95-.46 1.34-.78 2.68-1.52 4.22-1.9 1.93-.48 3.82-1.15 5.74-1.67 1.69-.46 3.43-.71 5.09-1.27 1.57-.53 3.27-.68 4.74-1.56.31-.19.76-.14 1.15-.22.62-.13 1.38-.11 1.81-.47 1.24-1.04 2.79-1.16 4.21-1.62 1.66-.55 3.36-.46 5.08-.23.79.1 1.62-.18 2.44-.26 1.49-.15 2.97-.65 4.48-.07.24.09.55-.01.83-.01.91-.01 1.81-.17 2.67.4.28.19.81.16 1.16.05 1.75-.57 3.55-.41 5.33-.47.47-.02.95-.07 1.42-.13.96-.13 1.82-.39 2.89-.02 1.14.39 2.51.12 3.78.14 2.19-1.17 4.59-.45 6.88-.76.9-.12 1.81-.13 2.72-.13.28 0 .6.16.84.33.47.34.82.54 1.3-.06.4-.5.97-.58 1.7-.47 1.14.18 2.3.44 3.53.15.83-.2 1.79-.37 2.69.07.29.14.7.06 1.05.04.79-.03 1.58-.11 2.38-.11 1.62.01 3.25.05 4.87.12.99.04 1.97.19 2.96.24.63.03 1.26-.02 1.89-.03.67-.01 1.33-.04 2-.03.91.02 1.83.09 2.74.1.76.01 1.51-.04 2.27-.04.64 0 1.32-.11 1.9.1.77.27 1.5.23 2.23.08 1.94-.39 3.87-.37 5.82-.04.66.11 1.37.1 2.02-.04.97-.22 1.89-.14 2.85 0 .61.09 1.25.01 1.87-.01.51-.01 1.01-.07 1.52-.07.44 0 .87.04 1.31.07 1.19.09 2.37.23 3.56.27.71.02 1.42-.1 2.13-.18.51-.05 1.02-.19 1.53-.19 1.05.01 2.03-.17 3.01-.59.56-.24 1.36-.21 1.96-.02.63.2 1.17.26 1.7-.09.57-.38 1.19-.39 1.71-.11.75.4 1.56.32 2.21.12 1.57-.51 3.17-.34 4.75-.46 1.23-.1 2.47-.14 3.71-.14 1.23.01 2.46.16 3.69.16 1.11.01 2.22-.12 3.33-.15 3.54-.09 7.07-.18 10.61-.22 1.37-.01 2.75.12 4.13.18.28.01.57 0 .83-.07 1.88-.51 3.81-.3 5.72-.37 1.52-.05 3.03-.1 4.55-.14.2-.01.4-.05.6-.02 1.55.25 3.1.1 4.66-.02.08-.01.16-.03.24-.01 2.07.51 4.2.23 6.28.44 1.42.14 2.82.53 4.24.75 2.23.36 4.21 1.41 6.31 2.14.67.23 1.31.59 1.91.97.47.29.75.69.89 1.33.32 1.48.89 2.94 2.47 3.5 1.06.38 1.76 1.04 2.24 1.96.57.06.91-.08 1.23-.56.27-.41.74-.77 1.2-.93.71-.26 1.39-.53 2.07-.86.51-.25 1.23-.08 1.85-.12.35-.02.71-.04 1.03-.16 1.19-.44 1.34-.41 2.02.65.04.06.12.1.28.22.09-.32.2-.6.25-.89.08-.38.24-.75.66-.73.27.01.54.25.77.43.17.13.28.34.53.65.13-.56.22-.95.38-1.61.46 1.11.74 1.96.67 2.88-.08 1.16.51 2.11.98 3.13.39-1.34-.06-2.77.59-4.25.15.37.3.56.3.76.01 1.59.49 3.06 1.11 4.5.11.26.23.53.25.8.21 2.29 1.34 4.33 1.83 6.55.49 2.23.98 4.43 1.05 6.73.05 1.53.36 3.06.77 4.57-.14-2.27-.29-4.54-.43-6.82l.13-.03c.08.17.2.33.23.5.32 1.85.72 3.69.92 5.55.3 2.81.45 5.64.66 8.46.13 1.74.26 3.49.4 5.23.01.08.02.16.02.24.04 1.75.06 3.5.14 5.24.05 1.15.19 2.3.24 3.46.02.51-.1 1.03-.16 1.54-.03.28-.16.57-.11.82.2.93.08 1.89.18 2.79.19 1.69-.14 3.35.04 5.01.04.38.14.76.16 1.14.07 1.1.11 2.19.15 3.29.01.36-.07.72-.03 1.07.15 1.67.36 3.33.47 5 .07 1 .08 1.97.47 2.95.21.53-.07 1.24.01 1.85.1.77.4 1.51.53 2.27.22 1.29.41 2.59.54 3.9.08.73-.05 1.48.04 2.21.3 2.42.67 4.83 1 7.25.1.77.16 1.55.2 2.33.1 1.88.05 3.77.29 5.63.2 1.53.11 3.07.34 4.59.06.39.16.78.19 1.18.02.33.02.68-.07 1-.15.51-.24.97.16 1.42.59.67.42 1.51.43 2.3 0 .5-.19 1.04-.06 1.49.34 1.14.11 2.28.14 3.42.01.27-.16.62-.04.8.43.66.29 1.39.39 2.09.17 1.24-.36 2.43-.12 3.71.23 1.23.12 2.53.08 3.8-.08 2.3-.21 4.61-.32 6.91-.11 2.14-.24 4.27-.34 6.41-.09 1.82-.11 3.65-.22 5.46-.13 2.17-.35 4.33-.5 6.5-.09 1.27-.14 2.54-.2 3.81-.1 2.25-.08 4.52-.34 6.75-.15 1.29.01 2.62-.52 3.88-.23.54-.08 1.24-.11 1.87-.07 1.68-.19 3.37-.19 5.05 0 1.57-.64 2.91-1.2 4.34.63 1.04.57 1.5-.41 2.36-.25.22-.52.39-.22.83.12-.06.25-.12.38-.18.12-.06.24-.13.37-.2.07.15.14.22.13.28-.15.72-.35 1.43-.44 2.16-.13.98-.34 1.83-1.38 2.28-.28.12-.44.54-.61.85-.25.44-.53.88-.69 1.36-.12.35-.07.76-.09 1.23-.17.48-1.15.11-1.16.9l.04-.03c-.52.06-.88.29-.96.84-.07.54.26.77.72.87l-.14-.1zm-22.87-108.17c.08-.74-.01-1.4.24-1.89.28-.55.34-1.08.23-1.61-.41-1.99-.03-4.07-.72-6.02-.03-.1.01-.24.05-.35.53-1.51.08-3-.04-4.5-.03-.38-.05-.78.05-1.14.24-.85.23-1.68-.23-2.42-.31-.51-.27-.96-.18-1.48.07-.42.15-.89.02-1.27-.34-.96-.27-1.87-.02-2.82.08-.3.15-.65.06-.93-.44-1.28-.54-2.55-.14-3.86.09-.28 0-.63-.03-.94-.32-2.61-1.03-5.17-.86-7.83.02-.27.03-.63-.13-.81-.57-.67-.58-1.46-.6-2.26-.02-.76-.07-1.51-.1-2.27-.02-.44-.09-.82-.76-.67-.46 1.91-.36 3.87-.19 5.83-.18-.41-.27-.84-.43-1.24-.08-.2-.28-.51-.41-.51-.6.03-.6-.42-.71-.78-.11-.36-.31-.79-.2-1.09.42-1.19-.05-2.04-.93-2.72-.46-.35-.53-.74-.48-1.25.06-.68.11-1.35.11-2.03 0-.84-.19-1.64-.77-2.4l-.62.94c-.51-.49-.56-1.02-.59-1.59-.05-1-.39-1.94-1.3-2.42s-1.47-1.23-1.93-2.06c-.32-.56-.75-.92-1.29-1.2-.42-.22-.89-.37-1.3-.61-.26-.15-.56-.37-.64-.63a6.17 6.17 0 0 1-.34-1.75c-.02-.68-.26-1.05-.93-1.16-.35-.06-.69-.21-1.04-.29-2.22-.49-4.43-1.01-6.66-1.43-.97-.18-1.42-.56-1.52-1.61-.15-1.42-.79-1.95-2.22-2.23-2.47-.49-4.95-.86-7.49-.76-.74.03-1.38-.13-1.8-.9-.41-.76-.98-.8-1.68-.29-.15.11-.3.24-.52.41-.69-1.06-1.7-1.08-2.76-.98-.51.05-1.03-.05-1.55-.04-2.39.03-4.77.08-7.16.12-.59.01-1.23-.14-1.77.03-.89.29-1.7.24-2.56-.07-.79-.28-1.61-.41-2.46-.19-.57.15-1.16.2-1.75.24-.91.06-1.88-.12-2.71.15-.86.28-1.53.2-2.22-.27-.87.71-1.84.76-2.87.74-1.35-.02-2.74-.08-4.04.23-.78.19-1.51.36-2.3.3-.6-.04-1.2-.11-1.79-.07-2.15.13-4.29.31-6.44.47-.71.05-1.43.07-2.13.16-.83.11-1.64.29-2.46.42-1.17.19-2.38.25-3.52.58-.9.26-1.67.93-2.7.5-.15-.06-.37.09-.57.13-.35.07-.69.15-1.04.19-1 .11-2.02.02-2.95.57-.36.21-.84.24-1.27.27-2.11.14-4.22.25-6.33.38-1.35.08-2.71.19-4.06.24-2.35.07-4.71.1-7.06.15-.16 0-.32.06-.48.06-.43 0-.86-.04-1.29-.04-1.08.01-2.2-.36-3.15.56-.46.45-1.15.22-1.52-.19-.56-.61-1.26-.71-1.95-.71-2.27.02-4.5-.44-6.8-.25-2.61.22-5.24.07-7.86.06-1.95 0-3.89-.03-5.84-.05-.8-.01-1.37.54-1.41 1.32.36.17.73.35 1.09.52-.3.3-.54.42-.8.43-1.51.07-3.03.11-4.54.17-1.43.06-2.87.15-4.3.22-1.11.06-2.23.16-3.34.18-1.59.03-3.18-.04-4.77.01-.91.03-1.81.26-2.73.33-2.27.17-4.55.19-6.71 1.06-.29.12-.62.13-.94.18-1.23.17-2.46.29-3.67.52-.48.09-1.04.31-1.34.66-.41.49-.84.66-1.43.72-2.71.26-5.36.81-7.92 1.75-.97.36-1.97.66-2.96.96-1.9.58-3.82 1.11-5.72 1.71-2.28.72-4.54 1.51-6.82 2.23-.74.23-1.43.49-1.86 1.25-.89-.32-1.69-.06-2.08.71-.71 1.39-1.27 2.85-.75 4.48.09.28.16.68.03.91-.58.96.54 1.89.02 2.84-.02.04.23.2.3.33.09.16.19.36.18.53-.08 2.06.14 4.16-.65 6.14-.07.17-.04.39-.04.59-.02.51-.01 1.03-.04 1.54-.08 1.43-.23 2.86-.25 4.29-.02 1.11.16 2.22.17 3.33.01.83-.14 1.67-.15 2.51-.01 2.03.02 4.06.04 6.09.01.76.03 1.51 0 2.27-.04 1.23-.15 2.46-.18 3.7-.04 1.78-.04 3.57-.02 5.35.01.5-.08.85-.59.95.02.6.36 1.15-.15 1.65-.07.07-.03.31.03.44.89 2.2.75 4.5.73 6.79-.01 1.27-.13 2.53.17 3.79.07.31.08.63.08.95.01.77-.05 1.55.02 2.32.23 2.42.36 4.83.14 7.27-.13 1.5-.18 3.08.16 4.52.39 1.66.52 3.32.47 4.98-.1 3.81-.32 7.61-.5 11.42-.04.79-.19 1.59-.12 2.36.14 1.35.06 2.7.34 4.07.24 1.19.68 2.47.18 3.74-.06.15.08.38.11.57.03.25.05.5.07.75.09.93.12 1.86.27 2.78.14.87.45 1.71.59 2.58.16 1.01.18 2.05.31 3.07.14 1.15.04 2.34.36 3.47.3 1.09.16 2.23.34 3.35.39 2.38.68 4.79.59 7.23-.02.52.07 1.05-.04 1.55-.12.54-.09.99.17 1.49.33.62.4 1.27-.4 1.73 1.02.61.26 1.14.05 1.73.33.32.5.65.45 1.21-.07.87.39 1.78-.09 2.66-.03.05.01.16.05.21.73.84.45 1.8.33 2.74-.03.24-.1.47-.09.7.04 1.26.08 2.52.14 3.79.04.83.07 1.67.22 2.48.32 1.84.64 3.68 1.1 5.49.36 1.41.47 2.88 1.07 4.25.43 1 .53 2.14.81 3.2.12.45.29.9.51 1.31.34.61.57 1.2.46 1.93-.09.62-.1 1.26.42 1.79.21.21.25.58.36.87.33.93.53 1.94 1.03 2.76.43.7.41 1.7 1.39 2.11.29.12.35.82.5 1.25.13.4.16.85.36 1.2.33.57.82 1.06 1.15 1.63.31.54.69.82 1.3.88 1.51.15 3.01.33 4.51.51.59.07 1.17.25 1.76.26 1.28.03 2.55-.03 3.83-.02 3.11.03 6.22.04 9.31.51 2.96.44 5.94.76 8.94.73.52-.01 1.04.17 1.76.29.25-.08.7-.59 1.2-.1.53.53 1.16.49 1.79.43.98-.1 1.88-.55 2.95-.03.61.3 1.49.07 2.24.03.95-.05 1.89-.25 2.83-.2 2.23.11 4.45.27 6.66-.29.29-.07.63.02.94.04 1.6.11 3.22.43 4.77-.35.13-.07.31-.06.47-.07 1.47-.1 2.93-.16 4.39-.31.93-.09 1.88-.22 2.78-.48.75-.21 1.41-.77 2.27-.29.15.08.45-.07.68-.14.67-.22 1.35-.64 2.02-.63 1.88.02 3.6-.5 5.29-1.24.51-.22 1.06-.36 1.61-.46 2.19-.42 4.39-.8 6.58-1.23 2.15-.43 4.28-.92 6.42-1.35 1.66-.33 3.44.18 5-.77.03-.02.08-.01.12-.02 1.48-.27 2.96-.55 4.45-.81.35-.06.71-.03 1.06-.04.31-.01.65.03.93-.07 1.3-.48 2.76-.31 4.02-.98.13-.07.33-.09.47-.05 1.27.47 2.49-.2 3.74-.22 1.46-.02 2.91-.46 4.36-.71.86-.15 1.76-.54 2.57-.41 1.08.18 2.04-.13 3.06-.22.79-.07 1.59-.15 2.38-.15 1.42.02 2.83-.54 4.26-.1 1.29-.52 2.68-.28 4.01-.46.7-.09 1.42.03 2.13-.01 1.82-.11 3.64-.35 5.46-.39 2.11-.04 4.22.06 6.33.11 1.54.03 3.09.08 4.63.11 2.44.06 4.88.09 7.18-.92.44-.19.9-.31 1.36-.47.53-.18 1.09-.57 1.58-.49 1.07.18 1.79-.43 2.62-.82.18-.09.37-.16.55-.25 2.36-1.13 5.02-1.54 7.24-3.01.13-.08.31-.08.46-.13.89-.33 1.9-.49 2.62-1.03 1.23-.93 2.87-.94 4-2.01.15-.14.45-.14.69-.15 1.11-.03 2.1-.43 3.04-.96.66-.37 1.29-.79 1.94-1.17.79-.45 1.6-.64 2.47-.19.58.29 1.18.52 1.85.81.06-.37.09-.61.14-.93.4.36.77.92 1.04.87.84-.15.32.66.67.8.18.07.35.18.53.22.37.1.75.16 1.18.25-.23.32-.41.58-.65.92 1.63.76 3.11.73 4.44-.16.1-.48.17-.87.27-1.24.34-1.23.77-2.44 1.03-3.68.32-1.52.52-3.07.74-4.61.3-2.17.62-4.35.81-6.53.23-2.7.31-5.41.48-8.11.06-.99.19-1.97.29-2.96.01-.07.06-.14.09-.21.14.03.28.07.39.1.16-.7.31-1.34.46-2.02-.43-.11-.75-.29-.7-.8.02-.2-.01-.4 0-.6.06-1.39.11-2.77.19-4.16.02-.35.01-.85.22-.99.52-.36.42-.82.4-1.28-.06-2.25.46-4.47.38-6.72-.01-.31.32-.62.49-.93l.24.09c-.03.58-.07 1.16-.07 1.74 0 1.27.09 2.55.03 3.82-.08 1.62-.3 3.23-.39 4.85-.16 2.73-.1 5.48-.72 8.18-.09.39-.13.8-.09 1.19.17 1.72.14 3.42-.21 5.11-.06.27.05.57.08.85.09 0 .17-.01.26-.01 1.31-5.31 1.59-10.75 1.91-16.18-.25-.05-.46-.1-.65-.14 0-1.34-.01-2.6.01-3.86 0-.19.07-.4.16-.57.87-1.51.53-3.29 1.07-4.87-.29-.82.05-1.44.64-1.88-.18-.86-.9-.6-1.37-.82.29-1.43.57-2.85.8-4.01-.16-.8-.35-1.37-.38-1.94-.05-1.25-.24-2.51.08-3.77.09-.36-.05-.78-.09-1.17-.07-.75-.21-1.49-.22-2.24-.03-1.75-.03-3.5 0-5.25.02-1.1.1-2.19.16-3.29.07 0 .14-.01.22-.01.09.22.19.43.33.77.19-1.57-.4-8.65-.75-9.41-.1.38-.21.77-.33 1.24-.25-.17-.4-.22-.42-.3-.19-.87-.27-1.73.25-2.54.19-.29.34-.62.47-.94.02-.06-.11-.18-.2-.33l-.3.53c-.15-.04-.3-.07-.54-.13-.05-1-.4-2.12-.1-3.03.57-1.72.77-3.39.54-5.16-.06-.47-.05-.95-.09-1.43-.02-.27-.07-.54-.11-.82-.27-.03-.49-.06-.77-.1.03-.26.05-.48.08-.71.21.04.38.08.55.11-.07-1.04-.1-1.98-.19-2.92-.25-2.52-.51-5.04-.79-7.55-.17-1.54-.4-3.08-.61-4.62-.01-.07-.08-.12-.13-.2-.19.02-.33.06-.69.17zM56.07 260.37l-.06.31c.32.09.64.21.97.25 1.69.24 3.38.47 5.07.68 2.09.27 4.17.61 6.27.76 2.31.17 4.62.17 6.94.24.46.01.93-.04 1.35.47-.88.37-1.68.46-2.51.18-.95-.32-1.89-.15-2.81.08-.39.1-.7.39-.43.86 2.97.12 5.87.22 8.72-.24.17-.69.32-1.32.47-1.94.22-.08.44-.17.67-.25-.78-.29-1.52-.38-2.26-.42-.79-.04-1.6.09-2.36-.06-1.2-.24-2.33-.24-3.47.36-.28-.39-.52-.74-.79-1.13-.36.21-.65.38-.95.55-.62-.14-1.24-.24-1.82-.13-2.05.38-4.09.54-6.17.16-1.8-.33-3.63-.52-5.45-.75-.45-.03-.92.02-1.38.02zm48.21-.29c-.79.23-1.65.14-2.19.83-.14.18-.5.23-.77.27-1.49.22-2.89.78-4.33 1.18-.74.21-1.52.45-2.38.07.37-.4 1.01-.46 1.06-1.04-.62-.06-1.16-.12-1.71-.17-.32-.02-.69-.12-.94 0-.76.37-1.47.5-2.26.06-.32-.17-.64.12-.65.49-.01.36.27.43.59.36.17-.04.36-.01.7-.01-.12.37-.21.63-.3.9h-3.27c.47.52.81.97 1.38.83.96-.23 1.89-.14 2.84.03.3.05.64-.01.94-.08 1.16-.25 2.31-.53 3.47-.78.27-.06.57-.06.83.01 1.01.27 1.96.03 2.92-.21 1.24-.31 2.54-.44 3.71-.91 1.19-.48 2.54-.11 3.65-.85.13-.09.39.05.57.02.74-.14 1.59-.12 2.16-.51.49-.33.97-.57 1.71-.76-1.24-.79.08-1.38-.03-2.15-.87.2-1.7.4-2.53.57-.62.13-1.25.16-1.75.65-.2.19-.62.3-.89.24-.8-.17-1.22.31-1.68.82 1.79.04 3.36-1.02 5.25-1.1-.18.42-.3.73-.42 1-2.09.06-3.86 1.41-6.02 1.12.14-.31.24-.6.34-.88zm112.54-36.49c.41-.91.42-.91 1.59-.52.54.18 1.31-.26 1.35-.84.02-.27-.13-.64-.33-.81-.13-.11-.51-.01-.74.07-.25.09-.46.36-.71.4-.97.15-1.97.19-2.76.88-1.64.11-2.85 1.3-4.39 1.73-1.5.42-2.9 1.22-4.35 1.85.28.3.55.58.82.86 1.34-.55 2.59-1.28 3.93-1.57 1.79-.39 3.24-1.43 4.89-2.06.23-.63.46.13.7.01zM51.72 36.02c-.57.12-1.14.13-1.61.36-1.12.55-2.42.52-3.5 1.28-.6.42-1.5.43-2.27.61-.49.12-.8.3-.43.95.81-.56 1.74-.56 2.57-.8 1.46-.44 2.89-1.02 4.38-1.41.37-.09.89-.23.86-.99zm139.21 211.34c-.1.06-.21.12-.31.18.12.4.17.84.37 1.2.3.54.67 1.05 1.08 1.5.28.31.68.57 1.07.69.18.05.51-.27.72-.46.06-.05.01-.32-.08-.42-.26-.32-.48-.06-.71.09-.09.06-.22.05-.5.1-.09-.62-.17-1.2-.26-1.85-.69.09-1.13-.33-1.38-1.03zM87.73 263.8c-.89-.69-.9-.71-1.63-.33-.42.22-.71.21-1.07-.12-.17-.16-.52-.31-.7-.25-.58.21-1.12.53-1.67.81 1.65.15 3.31.36 5.07-.11zm152.62-44.14c-.07-.11-.14-.21-.21-.32-.42.16-.9.23-1.24.49-.76.56-1.46 1.2-2.18 1.81.75.02 1.54.3 1.96-.6.1-.21.47-.28.68-.45.35-.3.66-.62.99-.93zm-79.56 29.31c.02.07.04.14.06.22.62.14 1.23.29 1.91.44.47-.25 1.01-.53 1.57-.83-.6-.57-.6-.57-.91-.5-.64.14-1.29.28-1.92.43-.25.06-.48.16-.71.24zm24.45-219.61c1.01.6 1.21.58 2.11-.18-1.09-.97-1.58-.93-2.11.18zm-65.18 226.99c-.01-.1-.01-.2-.02-.3-1.26.21-2.53.43-3.84.65.11.18.16.31.19.31 1.22-.21 2.45-.44 3.67-.66zm-4.71 1.73c-.56-.12-.94.04-1.37.27.23.38.42.69.64 1.05.33-.12.61-.22.97-.36-.26-.24-.44-.41-.61-.56.14-.14.22-.22.37-.4zm90.4-229.79c1.48.19 1.52.18 2.12-.28-.72-.01-1.34-.41-2.12.28zm-46.04 221.07-.03-.25c-.41-.04-.83-.13-1.24-.1-.12.01-.22.35-.33.53.19.09.4.29.55.25.37-.09.7-.28 1.05-.43zM64.3 32.77c-.81-.06-1.35.07-1.89.54 1.22.2 1.25.19 1.89-.54zm188.81 195.74c.73-.42 1.3-.66 1.36-1.59-.64.41-1.27.57-1.36 1.59zm-25.51-10.18c-.9-.44-.93-.42-1.47.56.6-.22 1.03-.39 1.47-.56zm-41.92 29.18c.89.43.89.43 1.57-.16-.58-.03-1.08-.43-1.57.16zm-4.09 1.06c-.26-.36-.39-.7-.54-.71-.41-.03-.71.21-.8.81.42-.03.77-.06 1.34-.1zm-93.96 13.44c-.01-.08-.01-.16-.02-.25-.41-.05-.82-.1-1.4-.18.25.39.39.61.57.88.31-.17.58-.31.85-.45zm64.14-13.75c0-.09-.01-.18-.01-.27-.73-.22-1.05-.16-1.79.45.72-.07 1.26-.13 1.8-.18zm98.63-127.7c-.16.61-.58 1.24.25 2.01-.11-.83-.18-1.42-.25-2.01zM54.98 35.08c-.56-.07-.9.02-.96.72.49-.07.86-.12.96-.72zm179.05 182.54c-.36-.43-.36-.43-.97-.47.33.53.33.53.97.47zm10.85-14.16h.23c-.05-.53.34-1.06-.11-1.8-.04.75-.08 1.27-.12 1.8zm-98.36 45.56-.06-.29c-.65 0-.65 0-1.25.47.53-.08.92-.13 1.31-.18zm98.42-64.51c.05 0 .1 0 .14.01.07-.49.13-.98.2-1.47l-.26-.03c-.02.49-.05.99-.08 1.49zm-71.99 64.02c.03-.1.05-.2.08-.3-.39-.05-.78-.1-1.38-.18.45.82.92.43 1.3.48zm9.51-.14c-.24-.14-.42-.31-.52-.27-.14.05-.31.26-.31.4 0 .12.21.25.33.37l.5-.5zm-48.63 4.57c-.02-.09-.03-.18-.05-.27-.33-.07-.65-.11-1.12.51.55-.11.86-.18 1.17-.24zm-3.65.76c0-.1-.01-.2-.01-.29-.27.05-.53.11-.8.16l.03.19c.26-.03.52-.05.78-.06zm122.3-87.57h.29c.11-.29.26-.6-.36-.88l.07.88zm.24-5.79c-.28.17-.56.35-.85.52.5.2.76 0 .85-.52zM144.3 251.08c-.01-.08-.01-.16-.02-.24-.27.02-.53.03-.8.05.01.09.01.18.02.27.26-.03.53-.05.8-.08zm40.65-3.36.03-.19-.47-.12c0 .1-.02.27-.01.27.14.03.3.03.45.04zm-6.17-207.84c.15-.2.27-.29.26-.37 0-.09-.12-.17-.19-.26-.09.09-.22.18-.25.29-.02.08.1.19.18.34zm73.41 146.53.3-.03c-.04-.2-.07-.39-.11-.59l-.2.03c.01.19.01.39.01.59zm-116.8 67.37.06.2c.2-.1.39-.19.78-.38-.42.09-.63.14-.84.18zm17.36-5.93c0 .04.01.08.01.13.17-.01.35-.03.52-.04-.01-.05-.01-.1-.02-.16-.17.03-.34.05-.51.07zm91.97-43.18c.09.04.19.08.28.12.05-.19.09-.39.14-.58-.06-.02-.11-.04-.17-.06-.09.17-.17.35-.25.52zM199.88 32.23c-.02-.06-.03-.15-.07-.18-.05-.03-.13.01-.2.02.03.08.06.16.08.24.06-.03.13-.06.19-.08zm51.87 107.11h.1v-.74h-.1v.74zm-61.99 108.24c.01-.07.01-.14.02-.21-.06-.04-.15-.14-.19-.12-.12.05-.21.15-.32.22.16.04.33.08.49.11z"/><path d="M118.52 260.52c-.82.42-1.65.83-2.81.52.87-.98 1.89-.49 2.81-.52zM167.39 250.78h2.88c-.95.49-1.92.37-2.89.28 0-.1 0-.19.01-.28zM152.96 251.46c-.67.15-1.33.3-1.99.45.31-.53.71-.62 1.99-.45zM17.74 57.86c.01.53-.01 1.04-.46 1.64-.29-.85.15-1.22.46-1.64zM266.99 218.56c.19.02.38.05.75.1-.38.6-.68 1.09-.98 1.57l.03.01c0-.32-.03-.64.01-.96.03-.26.15-.51.23-.76 0 .01-.04.04-.04.04zM114.98 260.97c-.4.46-.61.87-1.26.36.44-.12.75-.21 1.26-.36zM22.91 50.59c.09-.22.18-.44.26-.66.06.01.12.01.18.02.01.15.07.32.03.45-.03.12-.17.22-.26.32-.06-.04-.14-.08-.21-.13zM145.99 252.23c.12-.08.23-.21.37-.24.14-.03.29.05.47.24-.25.08-.5.16-.75.23-.03-.07-.06-.15-.09-.23zM251.29 230.69l.65-.81c.17.65.17.65-.65.81zM181.98 251.01h-.64v-.18h.64v.18zM105.68 263.38c-.21.04-.42.09-.63.13-.02-.07-.04-.13-.05-.2.21-.07.41-.14.62-.21.02.1.04.19.06.28zM111.67 262.03c.18-.1.37-.19.55-.29.03.06.1.17.09.18-.15.13-.31.25-.47.37-.06-.08-.12-.17-.17-.26zM108.51 262.38c-.2.11-.39.23-.59.34-.04-.07-.08-.14-.12-.2.2-.11.39-.23.59-.34.04.06.08.13.12.2z"/><path class="st0" d="M243.89 112.06c.36-.11.5-.15.64-.19.05.07.13.13.13.2.21 1.54.44 3.07.61 4.62.28 2.52.54 5.03.79 7.55.09.94.13 1.88.19 2.92-.18-.04-.34-.07-.55-.11-.02.23-.05.45-.08.71.28.04.5.06.77.1.04.28.09.55.11.82.04.47.03.95.09 1.43.23 1.77.03 3.44-.54 5.16-.3.91.05 2.03.1 3.03.24.06.39.09.54.13l.3-.53c.09.14.23.27.2.33a5.5 5.5 0 0 1-.47.94c-.52.81-.44 1.67-.25 2.54.02.08.17.13.42.3.13-.47.23-.86.33-1.24.36.76.95 7.85.75 9.41-.15-.33-.24-.55-.33-.77-.07 0-.14.01-.22.01-.06 1.1-.14 2.19-.16 3.29-.03 1.75-.03 3.5 0 5.25.01.75.15 1.49.22 2.24.04.39.18.81.09 1.17-.32 1.26-.13 2.52-.08 3.77.02.57.21 1.14.38 1.94-.23 1.16-.51 2.57-.8 4.01.47.22 1.19-.05 1.37.82-.59.45-.93 1.07-.64 1.88-.54 1.58-.2 3.36-1.07 4.87-.1.17-.16.38-.16.57-.01 1.26-.01 2.53-.01 3.86.19.04.4.09.65.14-.32 5.43-.61 10.87-1.91 16.18-.09 0-.17.01-.26.01-.03-.28-.13-.58-.08-.85.35-1.7.38-3.4.21-5.11-.04-.39 0-.81.09-1.19.61-2.69.55-5.44.72-8.18.1-1.62.32-3.23.39-4.85.06-1.27-.03-2.55-.03-3.82 0-.58.05-1.16.07-1.74l-.24-.09c-.17.31-.5.63-.49.93.07 2.25-.44 4.47-.38 6.72.01.46.12.92-.4 1.28-.21.14-.2.65-.22.99-.08 1.39-.13 2.77-.19 4.16-.01.2.02.4 0 .6-.05.5.27.69.7.8-.15.67-.3 1.32-.46 2.02-.11-.03-.25-.06-.39-.1-.03.07-.08.14-.09.21-.1.99-.23 1.97-.29 2.96-.17 2.7-.25 5.41-.48 8.11-.18 2.18-.51 4.36-.81 6.53-.21 1.54-.42 3.09-.74 4.61-.26 1.24-.69 2.45-1.03 3.68-.1.38-.17.76-.27 1.24-1.33.89-2.81.92-4.44.16.23-.33.42-.6.65-.92-.42-.09-.8-.16-1.18-.25-.18-.05-.35-.16-.53-.22-.35-.13.17-.94-.67-.8-.26.05-.63-.52-1.04-.87-.05.33-.09.56-.14.93-.67-.29-1.28-.52-1.85-.81-.88-.44-1.69-.26-2.47.19-.65.38-1.28.8-1.94 1.17-.94.53-1.93.93-3.04.96-.23.01-.54.01-.69.15-1.13 1.07-2.77 1.08-4 2.01-.72.55-1.74.71-2.62 1.03-.15.06-.33.05-.46.13-2.22 1.47-4.88 1.87-7.24 3.01-.18.09-.37.16-.55.25-.83.39-1.55 1-2.62.82-.49-.08-1.05.31-1.58.49-.45.15-.92.28-1.36.47-2.31 1.01-4.74.97-7.18.92-1.54-.04-3.09-.08-4.63-.11-2.11-.05-4.22-.16-6.33-.11-1.82.04-3.64.27-5.46.39-.71.04-1.43-.08-2.13.01-1.34.17-2.72-.06-4.01.46-1.43-.44-2.84.11-4.26.1-.79-.01-1.59.08-2.38.15-1.02.09-1.98.4-3.06.22-.81-.14-1.71.25-2.57.41-1.45.26-2.9.69-4.36.71-1.25.02-2.47.69-3.74.22-.13-.05-.34-.02-.47.05-1.26.67-2.71.5-4.02.98-.28.1-.62.06-.93.07-.35.02-.72-.02-1.06.04-1.48.26-2.96.54-4.45.81-.04.01-.09 0-.12.02-1.56.95-3.35.44-5 .77-2.15.43-4.28.92-6.42 1.35-2.19.43-4.39.81-6.58 1.23-.55.11-1.1.24-1.61.46-1.69.73-3.41 1.25-5.29 1.24-.67-.01-1.34.42-2.02.63-.22.07-.52.23-.68.14-.85-.47-1.51.08-2.27.29-.9.25-1.84.39-2.78.48-1.46.14-2.93.21-4.39.31-.16.01-.33.01-.47.07-1.54.78-3.16.46-4.77.35-.32-.02-.65-.12-.94-.04-2.2.56-4.43.4-6.66.29-.94-.05-1.89.15-2.83.2-.75.04-1.63.27-2.24-.03-1.07-.52-1.97-.07-2.95.03-.63.06-1.26.1-1.79-.43-.5-.49-.95.01-1.2.1-.72-.12-1.24-.3-1.76-.29-3 .04-5.98-.28-8.94-.73-3.1-.46-6.2-.48-9.31-.51-1.28-.01-2.55.05-3.83.02-.59-.01-1.17-.19-1.76-.26-1.5-.18-3-.36-4.51-.51-.61-.06-1-.35-1.3-.88-.33-.58-.81-1.06-1.15-1.63-.2-.35-.23-.8-.36-1.2-.14-.44-.2-1.13-.5-1.25-.98-.41-.96-1.41-1.39-2.11-.5-.82-.7-1.83-1.03-2.76-.11-.3-.15-.67-.36-.87-.52-.53-.51-1.17-.42-1.79.11-.73-.12-1.32-.46-1.93-.23-.41-.39-.86-.51-1.31-.28-1.07-.38-2.21-.81-3.2-.59-1.38-.71-2.84-1.07-4.25-.46-1.81-.78-3.65-1.1-5.49-.14-.82-.17-1.65-.22-2.48-.07-1.26-.11-2.52-.14-3.79-.01-.23.06-.47.09-.7.12-.94.41-1.9-.33-2.74-.04-.05-.08-.17-.05-.21.48-.88.02-1.78.09-2.66.05-.56-.13-.89-.45-1.21.22-.59.98-1.12-.05-1.73.8-.46.73-1.11.4-1.73-.27-.5-.29-.94-.17-1.49.11-.49.02-1.03.04-1.55.09-2.43-.2-4.85-.59-7.23-.19-1.12-.04-2.26-.34-3.35-.32-1.13-.21-2.32-.36-3.47-.13-1.02-.15-2.05-.31-3.07-.14-.87-.45-1.71-.59-2.58-.15-.92-.19-1.85-.27-2.78-.02-.25-.04-.5-.07-.75-.03-.19-.17-.42-.11-.57.5-1.28.06-2.55-.18-3.74-.28-1.36-.2-2.72-.34-4.07-.08-.78.08-1.57.12-2.36.18-3.81.4-7.61.5-11.42.04-1.66-.08-3.31-.47-4.98-.34-1.44-.3-3.02-.16-4.52.22-2.44.09-4.85-.14-7.27-.07-.77-.01-1.55-.02-2.32-.01-.32-.01-.64-.08-.95-.3-1.25-.18-2.52-.17-3.79.02-2.29.15-4.6-.73-6.79-.05-.14-.1-.38-.03-.44.51-.49.17-1.05.15-1.65.51-.1.6-.46.59-.95-.02-1.78-.02-3.57.02-5.35.03-1.23.13-2.46.18-3.7.03-.76 0-1.51 0-2.27-.01-2.03-.05-4.06-.04-6.09 0-.84.16-1.67.15-2.51-.01-1.11-.19-2.22-.17-3.33.02-1.43.17-2.86.25-4.29.03-.51.02-1.03.04-1.54.01-.2-.02-.41.04-.59.79-1.99.57-4.08.65-6.14.01-.18-.09-.37-.18-.53-.07-.13-.32-.29-.3-.33.52-.95-.59-1.88-.02-2.84.13-.22.06-.62-.03-.91-.52-1.63.04-3.09.75-4.48.39-.77 1.19-1.02 2.08-.71.43-.75 1.12-1.01 1.86-1.25 2.28-.72 4.54-1.51 6.82-2.23 1.9-.6 3.81-1.13 5.72-1.71.99-.3 1.99-.6 2.96-.96 2.56-.94 5.21-1.49 7.92-1.75.58-.06 1.02-.23 1.43-.72.3-.35.86-.57 1.34-.66 1.21-.23 2.45-.35 3.67-.52.32-.04.65-.06.94-.18 2.16-.87 4.44-.89 6.71-1.06.91-.07 1.82-.3 2.73-.33 1.59-.05 3.18.02 4.77-.01 1.11-.02 2.23-.12 3.34-.18 1.43-.08 2.87-.16 4.3-.22 1.51-.07 3.03-.1 4.54-.17.25-.01.5-.13.8-.43-.36-.17-.73-.35-1.09-.52.03-.78.61-1.32 1.41-1.32 1.95.02 3.89.05 5.84.05 2.62 0 5.26.15 7.86-.06 2.3-.19 4.53.27 6.8.25.69-.01 1.39.1 1.95.71.37.4 1.06.63 1.52.19.96-.92 2.08-.55 3.15-.56.43-.01.86.03 1.29.04.16 0 .32-.05.48-.06 2.35-.05 4.71-.08 7.06-.15 1.36-.04 2.71-.16 4.06-.24 2.11-.12 4.22-.24 6.33-.38.43-.03.91-.06 1.27-.27.93-.54 1.95-.46 2.95-.57.35-.04.7-.12 1.04-.19.19-.04.42-.19.57-.13 1.03.43 1.81-.24 2.7-.5 1.13-.33 2.34-.39 3.52-.58.82-.13 1.64-.31 2.46-.42.71-.09 1.42-.11 2.13-.16 2.15-.16 4.29-.33 6.44-.47.59-.04 1.2.03 1.79.07.79.06 1.52-.11 2.3-.3 1.29-.31 2.69-.25 4.04-.23 1.03.01 1.99-.03 2.87-.74.69.47 1.36.55 2.22.27.83-.27 1.8-.09 2.71-.15.59-.04 1.19-.09 1.75-.24.86-.22 1.67-.09 2.46.19.86.31 1.67.35 2.56.07.54-.17 1.18-.02 1.77-.03l7.16-.12c.52-.01 1.04.09 1.55.04 1.06-.1 2.07-.08 2.76.98.22-.18.37-.3.52-.41.7-.51 1.27-.47 1.68.29.42.77 1.06.93 1.8.9 2.53-.1 5.02.27 7.49.76 1.42.28 2.07.8 2.22 2.23.11 1.05.56 1.43 1.52 1.61 2.23.42 4.44.94 6.66 1.43.35.08.68.23 1.04.29.67.12.91.49.93 1.16.02.59.15 1.19.34 1.75.09.26.39.48.64.63.41.24.87.39 1.3.61.53.28.97.63 1.29 1.2.47.83 1.03 1.58 1.93 2.06.92.48 1.26 1.42 1.3 2.42.03.57.08 1.1.59 1.59l.62-.94c.57.76.77 1.56.77 2.4 0 .68-.05 1.36-.11 2.03-.05.51.03.89.48 1.25.88.68 1.35 1.54.93 2.72-.11.3.1.73.2 1.09.11.35.11.81.71.78.13-.01.34.3.41.51.16.4.25.83.43 1.24-.17-1.96-.27-3.92.19-5.83.67-.15.74.23.76.67.03.76.08 1.51.1 2.27.02.8.03 1.59.6 2.26.15.18.14.54.13.81-.18 2.66.54 5.22.86 7.83.04.31.12.65.03.94-.4 1.31-.3 2.58.14 3.86.09.27.02.63-.06.93-.25.95-.32 1.86.02 2.82.13.37.05.85-.02 1.27-.08.52-.13.98.18 1.48.46.74.47 1.57.23 2.42-.1.36-.09.76-.05 1.14.13 1.5.58 3 .04 4.5-.04.11-.09.25-.05.35.69 1.95.31 4.03.72 6.02.11.53.05 1.06-.23 1.61-.2.51-.12 1.17-.19 1.91zm-104.33 68.86c-.57 1.4-.06 2.73.2 4.07.22-1.38.04-2.73-.2-4.07-.26-1.35-.01-2.78-.59-4.09-.02 1.27.04 2.54.15 3.8.01.1.29.19.44.29zM77.65 81.13c-.56.14-.94.03-1.3-.51-.83-1.26-1.76-2.45-2.67-3.66-.81-1.07-1.61-1.19-2.88-.42.15.41.3.83.45 1.25-.75.36-1.29.25-1.86-.22-.34-.28-.8-.76-1.28-.2-.08.88 1.03 1.16.92 2.2-.56-.43-.99-.75-1.44-1.09-.36.1-.72.2-1.21.33.3.63.56 1.17.77 1.61-.37.53-.65.92-.91 1.3-1.43-1.41-2.86-2.82-4.3-4.23.3 1.71 2.07 2.68 2.06 4.55-.92.04-1.26-1.24-2.25-1.01.04 1.11.54 2.02.99 2.95.15-.09.32-.19.55-.33.27.34.55.67.79 1.02 1.08 1.59 1.58 3.54 3.05 4.9.11.1.17.29.18.44.11 1.42 1.36 2.43 1.39 3.88.75.7.63 1.66.71 2.55.1 1.2.53 2.22 1.4 3.02.37-.3.71-.57 1.08-.86.25.49.41.84.59 1.18.26.48.57.94.79 1.44.3.66.46.7.98.18.3-.29.6-.57.91-.86.23.3.43.56.62.81 1.02-.8-.19-1.68.22-2.55.57.55.49 1.21.56 1.82.12.96.27 1.89 1.42 2.23.33-.76-.08-1.36-.48-1.96.37-.76.68-1.48.01-2.23-.16-.18-.18-.5-.22-.76-.05-.34-.07-.7-.1-1.1.16-.04.4-.09.66-.16-.11-.41-.2-.74-.29-1.08.08-.02.17-.03.25-.05.09.41.19.81.27 1.22.05.23.03.47.1.69.21.6.52 1.17.66 1.78.11.49.39.53.76.56l-.03-.03c.17.53.31 1.07.52 1.58.07.18.3.31.46.46.11-.22.33-.45.31-.66-.04-.62-.23-1.24-.25-1.86-.04-.93-.31-1.7-1.18-2.19.3-.41.56-.77.9-1.23.34.71.65 1.36.96 2.03.34-.27.58-.45.89-.69l1.63 3.94c.1-.04.21-.08.31-.11-.5-1.94-1.38-3.76-1.92-5.76.3.14.48.23.78.37 0-.54-.02-.94.01-1.33.03-.39-.18-.85.22-1.2.37.75.82 1.4 1.01 2.13.24.91.94 1.14 1.67 1.61.09-.52.16-.91.25-1.38.39.14.76.17.96.37.22.23.29.62.43.97l.91.12c.11.23.21.46.41.89.18-.49.27-.76.4-1.13.83.63 1.6.35 2.43.01.11-.54.23-1.1.39-1.85.55.81.64 1.83 1.65 2.06.05-.35.1-.7.15-1.02.3-.16.68-.22.77-.42.34-.75.92-.44 1.43-.4.21.02.4.18.68.31.39-1.07.14-1.99-.38-2.78-.44-.67-.49-1.28-.28-2.11l.97.61c-.17-.89-.88-1.61-.35-2.8.35.73.51 1.31.86 1.73.39.47.96.8 1.38 1.13.05-.26.05-.8.25-1.26.24-.54-.55-1.12.1-1.63.28.19.52.51.77.52.9.03 1.18.51 1.08 1.27.72.39 1.38.75 2.07 1.12.43-.39.85-.78 1.28-1.16-.22-.83.31-1.75-.35-2.54-.05-.06.18-.4.32-.59.05-.06.2-.05.35-.09.07.34.13.64.14.71.55.47 1.03.74 1.29 1.14.27.42.33.98.5 1.51 1.15-.72.29-1.68.39-2.5.6.16 1.13.3 1.89.5-.33-.77-.55-1.27-.76-1.78-.6-1.48-.34-1.85 1.41-1.82.17-1.21.36-2.44.51-3.68.02-.13-.12-.29-.19-.43-.73-1.42-1.45-2.84-2.21-4.24-.3-.56-.67-1.08-1.02-1.6-.33-.5-.7-.96-.99-1.48-.61-1.07-1.18-2.16-1.75-3.21-.32.09-.52.17-.72.19-.03 0-.16-.33-.11-.4.53-.64.11-1.07-.27-1.55-.32-.4-.54-.88-.83-1.32-.27-.42-.56-.83-.85-1.25-.95.92.1 1.87-.22 2.8-.66-.27-1.13-.66-1.11-1.32.01-.49-.26-.65-.53-.95-.61-.68-1.08-1.46-2.12-1.58-.12-.01-.21-.39-.31-.59-.32.93-1.19.55-1.38 1.04-.49-.12-.93-.22-1.17-.28-.55.21-.01 1-.82.81-.15-.04-.39.6-.64.65-.36.06-.77-.09-1.14-.22-.33-.12-.62-.32-.89-.47-.5.2-.51 1.05-1.24.79-.2-.31-.4-.61-.7-1.07l-.31 1.04c-.54.34-1 .56-1.38.87-.53.44-.52.79-.18 1.45.11.21.09.48.12.73.04.38.04.77.13 1.13.08.33.27.64.41.96-.71-.5-.93-1.68-2.17-1.2.24-.96.24-.96-.4-1.47-.22-.17-.5-.29-.66-.51-.65-.87-1.41-.62-2.33-.3.32.43.58.77.92 1.22-.53.1-.9.16-1.17.21-.37-.4-.65-.71-.91-.98-.44.22-.74.38-1.1.56.14.35.26.68.39 1-.8.42-.8.42-1.74-.46-.2.58-.6.84-1.24.55-.23.67-.42 1.26-.63 1.89-1.58-.6-2.2-1.89-2.77-3.29l-.82.41c.54 1.32 1.72 2.37 1.41 3.92-.32-.03-.51-.06-1-.11.79.87 1.42 1.53 1.5 2.6-.25-.09-.41-.14-.65-.22l-.18 1.24c.58.42.98.9 1.32 1.41.72 1.09 1.4 2.21 2.1 3.31h.01zm33.93 134.03c.19-.29.38-.57.62-.93.18.44.3.77.43 1.09.33-.26.66-.51.98-.78.12-.1.18-.27.3-.37.34-.27.7-.38 1.06-.01.23.48-.84 1.27.42 1.53.14-.28.28-.58.5-1.01.11.34.17.54.27.86.49-.59.74-1.13.67-1.74-.09-.86.4-1.38.93-2.05.19.24.35.4.46.58.41.71.99.78 1.46.13.16-.22.17-.53.31-.76.44-.71.59-1.73 1.77-1.62.36-1.61.75-3.13 1.03-4.67.38-2.07.66-4.15.99-6.22.04-.26.05-.64.21-.76.93-.63.55-1.49.39-2.25-.19-.92-.25-1.75.42-2.5.17-.19.27-.46.44-.76-.48-.11-.86-.11-.94-.72-.49-3.59-1.15-7.16-1.56-10.76-.27-2.4-.53-4.8-.92-7.18-.02-.12-.06-.29-.01-.34.67-.61.17-1.27.1-1.9-.04-.39-.25-.77-.26-1.15-.05-1.78-.06-3.56-.09-5.34-.01-.43.04-.89-.07-1.29-.33-1.17-.38-2.35-.33-3.55.04-.99.23-2 .08-2.96-.14-.87-.35-1.73-.44-2.62-.32-3.28-.7-6.56-1.04-9.85-.32-3.08-.59-6.17-.96-9.24-.38-3.17-.85-6.32-1.3-9.48-.44-3.12-.89-6.23-1.38-9.34-.34-2.17-.72-4.33-1.14-6.48-.16-.79-.26-1.68-1.21-2.14-.37.29-.77.59-1.09.84-.53-.3-1-.56-1.5-.84-.17.43-.28.72-.43 1.09-1.19-.21-2.35-.28-3.23.76l-1.32-.69c-.28.16-.2.72-.77.54-.47-.15-.79.13-.92.67-.1.4-.36.76-.55 1.13-.06-.03-.13-.05-.19-.08.04-.23.09-.46.15-.77-.4-.1-.76-.19-1.13-.28-.29.61-.19 1.37-1 1.45-.24-.19-.52-.36-.73-.59-.18-.19-.28-.45-.42-.68-.14-.23-.28-.45-.42-.67-.06.03-.11.07-.17.1.06.47.11.94.17 1.4-.06.01-.12.02-.17.03a512.9 512.9 0 0 1-1.88-3.38c-.07.11-.18.29-.31.51-1.01-.67.16-2-1.03-2.71-.11.61-.19 1.12-.3 1.75-1.16-.57-2.34.08-3.55-.19v.92c-.69-.14-1.3-.27-1.88-.39-.28.47-.51.85-.77 1.28-.32-.24-.54-.4-.61-.46-.79.19-1.43.35-2.06.51-.03.38-.06.68-.1 1.12-.72-.51-1.32-.58-1.95.07-.52.54-.6 1.15-.68 1.84-.26-.47-.52-.94-.76-1.37-.34.29-.69.79-.92.74-.74-.15-.81.44-1.09.89-.29-.33-.52-.59-.72-.82-.57.05-1.06.09-1.63.14v1.61c-.42-.03-.76-.05-1.09-.07-.05.41-.1.76-.14 1.1-.5-1.36-.5-1.36-1.22-1.65.04.54.47 1.2-.26 1.47-.4.15-.86.16-1.31.24-.19-.25-.38-.5-.7-.91v1.53c-.92.14-1.8.35-2.5 1.23.16.84.37 1.77.49 2.71.22 1.67.86 3.26.88 4.98.01 1.03.27 2.05.39 3.08.04.35.16.74-.15 1.12-.51-1.31-.42-2.7-1.1-3.95-.52.72-.55 1.39-.4 2.13.15.76.4 1.51.29 2.33-.05.37.29.79.45 1.19l-.03-.04c.21 1.38.37 2.77.65 4.13.28 1.37.82 2.67.85 4.13.01.79.47 1.58.8 2.34.15.36.27.68.32 1.08.2 1.49.51 2.97.77 4.46.12.67.37 1.34.33 2-.05 1.06.21 2.05.43 3.06.3 1.42.59 2.84.86 4.26.39 2.03.77 4.05 1.15 6.08.32 1.76.63 3.52.95 5.28.42 2.31.87 4.62 1.26 6.93.47 2.75.79 5.53 1.36 8.26.47 2.23.81 4.46 1.05 6.72.48 4.41.61 8.81.28 13.25-.34 4.53-.43 9.08-.64 13.72.4.2.85.41 1.26.61.34-.71.65-1.34 1.05-2.17.37 1.14.63 2.01.94 2.86.16.43.41.83.62 1.24.06-.02.12-.03.17-.05-.07.35-.14.69-.23 1.13.27.24.56.48.96.83.08-.71.15-1.32.23-1.96.26.1.43.17.67.27.03-.35.2-.74.07-.95-.58-.97.11-1.76.31-2.62.04-.17.28-.3.44-.46.64.87.7.89.46 1.55-.34.94.07 1.87-.08 2.8-.01.08.13.18.24.33.3-.12.6-.24.94-.38.37 1.47.7 2.84 1.05 4.21.05.21.13.42.2.63.2-.9.18-1.78.2-2.65.05-2 .06-2 .58-2.31.04.89.04 1.75.12 2.6.05.49.17 1.01.92 1.09.15-1.1.38-2.13.4-3.18.01-.69.09-1.29.6-1.83-.05.46-.09.91-.14 1.38.54.63 1.71.17 2.16 1.11.63-.22.89.28 1.22.73.27-.26.48-.46.76-.72.22.78-.51 1.66.43 2.26.24-.54.46-1.04.69-1.53.26-.56.76-.86 1.32-.91.51-.05 1.01.14 1.23.73.08.2.33.34.51.51.08-.02.16-.04.23-.06-.11-1.12.06-2.17.53-3.16.35.33.94.27 1.13.86.06.2.51.51.9.08.11-.12.47-.02.69-.02.19-.51.36-.94.55-1.44.43.27.78.48 1.14.71.16-.33.28-.6.41-.86.05.02.09.03.14.05v2.5c.32-.94.43-1.88.55-2.83.08-.68.39-1.2 1.06-1.43-.12.44-.47.85-.23 1.49.49-.53.29-1.02.23-1.49.05-.2.1-.41.14-.61.01-.06-.02-.02-.02-.02zm25.63-86.85-.03-.04c-.13 1.07.17 2.06.56 3.03.69 1.73.93 3.55 1.1 5.38.06.71-.08 1.45-.15 2.46-.34-.71-.63-1.14-.75-1.6-.41-1.57-.77-3.15-1.13-4.73-.16-.69-.2-1.42-.42-2.08-.46-1.35-1.04-2.67-1.52-4.01-.37-1.05-.79-2.1-.96-3.19-.15-.98-.46-1.83-.93-2.67-.11-.2-.27-.45-.22-.64.22-1-.32-1.86-.43-2.8-.03-.22-.18-.44-.34-.61-.07-.08-.3-.07-.43-.03-.08.02-.17.19-.17.29 0 .15.08.3.1.46.18 1.1.36 2.2.52 3.3.03.19-.08.4-.13.61-.59-.15-.5-.55-.56-.89-.19-1.13-.37-2.27-.58-3.4-.12-.7-.34-1.39-.39-2.09-.05-.66-.38-1.39.29-1.97.07-.06-.03-.29-.04-.44-.68-.29-1.06 0-1.18.6-.08.38.03.79.02 1.18-.01.27-.09.54-.14.87-.49-.24-.81-.4-1.25-.62-.05.61.16.94.45 1.2.29.26.61.47.82.63-.68.8-1.37 1.61-2.07 2.43-.85-2.19-1.15-4.58-2.09-6.83-.43.17-.75.29-1.11.43.02.23.01.44.07.62.25.72.53 1.43.24 2.21-.04.1-.01.24.02.35.34 1.01.69 2.02 1.03 3.04.2.6.42 1.21.59 1.82.64 2.34 1.17 4.71 1.93 7.01.64 1.93 1.35 3.82 1.55 5.86.01.12 0 .28.07.35.63.58.5 1.39.67 2.1.35 1.43.66 2.87 1.03 4.29.19.76.43 1.51.7 2.24.31.84.09 1.72.39 2.62.74 2.22 1.16 4.54 1.71 6.82.06.23.07.52.22.67.49.51.48 1.15.58 1.78.25 1.57.53 3.13.81 4.7.02.1.13.19.22.31.18-.09.36-.18.51-.25-.07-1.14-.16-2.23-.21-3.32-.05-.99.04-2-.14-2.96-.58-3.01-1.23-6-1.9-8.99-.63-2.8-1.39-5.57-1.96-8.38-.16-.79-.54-1.46-.74-2.21-.25-.96-.42-1.94-.66-2.91-.39-1.58-1.28-3.1-.48-4.8.01-.02-.03-.07-.09-.19-.3-.03-.65-.07-1.26-.14.55-.47.91-.78 1.41-1.2.56 1.3 1.13 2.49 1.59 3.72.44 1.15.81 2.33 1.14 3.51.37 1.29.66 2.61.99 3.91.25.99.52 1.97.75 2.97.04.18.01.41-.06.58-.42.95-.39 1.63.25 2.71-.06-.69-.11-1.2-.16-1.7.1-.01.2-.03.3-.04.75 3.31 1.51 6.62 2.27 9.97-.31.37-.87.59-.59 1.27.2.48.05 1.14.3 1.56.49.8.7 1.61.68 2.52-.01.31-.11.81.04.91.78.51.6 1.32.76 2.03.27 1.2.57 2.39.82 3.59.13.61.32 1.23-.03 1.87-.1.18-.03.47.01.7.26 1.36-.01 2.81.71 4.09.08.14-.03.38-.03.58.05 1.27-.56 2.59.32 3.79.06.09.07.23.06.35-.06 1.39-.14 2.78-.17 4.17-.02.71.04 1.42.05 2.12.02.79.03 1.59.04 2.38 0 .28-.09.57-.02.82.61 2.01.39 4.07.44 6.11.02.8.15 1.48.71 2.09-.71 1-.3 2.13.01 2.99.34.95.48 1.89.58 2.84.08.82-.05 1.67-.08 2.58-.16-.14-.25-.18-.26-.23-.43-2.08-.82-4.17-.92-6.3-.07-1.4-.36-2.78-.55-4.17l-.22.03c.08 1.05.15 2.11.23 3.16l-.3.06c-.12-.35-.39-.73-.32-1.04.19-.79-.05-1.51-.23-2.22-.29-1.16-.24-2.33-.3-3.5-.03-.64-.04-1.28-.12-1.91-.22-1.65-.63-3.28-.59-4.97.01-.31-.12-.62-.16-.94-.08-.63-.15-1.25-.21-1.88-.09-.87-.15-1.74-.26-2.61-.24-1.99-.54-3.97-.72-5.96-.19-2.09-.28-4.19-.43-6.28-.01-.14-.15-.26-.22-.38-.73.05-.66.53-.56.96.35 1.39.48 2.8.48 4.22 0 .04.01.08.01.12.2 2.75.39 5.49.6 8.24.03.48.1.95.14 1.43.11 1.54.22 3.08.33 4.69-.21-.15-.34-.25-.71-.53.18.77.17 1.41.47 1.83.51.72.58.65.14 1.43-.1.17-.13.51-.03.63.23.26.15.45.09.74-.09.46-.06.95-.03 1.43.04.7-.08 1.47.81 1.83.12.05.17.34.2.52.08.55.17 1.08-.24 1.59-.26.33-.14.48.29.74.25.15.52 1.06.38 1.28-.01.01-.07 0-.05 0-.11-.13-.21-.23-.34-.38-.04.26.11 3.23.18 3.35.19.36.18.8.7 1.03.43.19.34.63-.02 1.31-.07.12-.01.39.09.5.1.12.32.13.51.2-.23.29-.6.59-.54.73.1.26.45.42.69.62-.63.54-.61.54-.36 1.13.11.27.15.57.21.85.19.84.13 1.89.63 2.47.43.51.68.99.82 1.64.36-.13.67-.23 1.12-.39.22 1.54.34 2.95.21 4.37-.16 1.68-.24 3.35-.07 5.04.06.63.29.74.8.7.18-.01.35 0 .56 0 .05.53.1.95.14 1.36.48.11.79.02.83-.46.06-.86.09-1.73.14-2.6.02-.32-.26-.68.22-1.02.13.29.31.52.33.76.1.91.16 1.82.22 2.73.04.53-.12 1.14.64 1.45.19-.29.37-.58.54-.85.63.02 1.26.44 1.73-.38.29-.51 1.21-.55 1.25-1.47-.46.08-.84.14-1.22.2.4-.61.64-1.35 1.62-1.13.12.65.43 1.38.31 2.03-.17.95-.18 1.72.74 2.18-.17.79-.32 1.49-.47 2.23.26 0 .36.03.41-.01.09-.07.21-.17.22-.26.11-1.22.25-2.45.29-3.67.04-1.35-.03-2.69-.05-4.04-.02-1.15.04-1.21 1.37-1.18-.32.61-.62 1.2-1.02 1.96 1.46-.3 1.22 1.49 2.49 1.54.09-.52.21-1 .25-1.48.1-1.23-.21-2.59 1.12-3.46.46.22.7.55.65 1.12-.04.47.02.96.01 1.43-.01.95-.03 1.91-.05 2.86-.01.43.06.78.69.73.04-.54.08-1.05.11-1.57.06-1.15.1-1.2 1.25-1.53.59-1.56.64-1.64 1.18-1.72-.61 1.28-.05 2.48-.03 3.71.02.9-.27 1.81-.4 2.72-.03.19.04.39.06.58.63-1.19.52-2.46.69-3.69.17-1.23.15-2.49.23-4.03.63.59.98 1.21 1.71 1.1.04-.01.21.44.21.68 0 .17-.17.34-.19.38.43.64.81 1.18 1.2 1.76-.11-1.03.57-2.01.15-3.11-.14-.36.32-.62.72-.43.14.07.23.23.37.39.71-.96-.03-2.26.93-3.08.3.86.96 1.54.78 2.4.47.1.86.18 1.24.27-.02.36-.15.76.43.88-.15-.29-.29-.57-.44-.86.1-.12.31-.28.28-.37-.21-.72.26-1.35.24-2.1.28.13.51.23.88.39.06-.4.21-.72.13-.98-.26-.81-.09-1.47.55-1.99-.75-1.12-.4-2.25-.25-3.36.03-.2.19-.46.36-.56 1.19-.71 1.41-1.82.53-2.8.37-1.28.48-2.55-.08-3.89-.54.86.4 1.85-.41 2.73-.52-1.13-.02-2.25-.25-3.04.25-.37.44-.55.5-.76.4-1.65.2-3.32.12-4.99-.05-1.11-.16-2.24-.03-3.33.09-.81-.01-1.55-.39-2.18-.44-.73-.52-1.46-.57-2.26-.07-.94-.22-1.9-.46-2.81-.41-1.6-.38-1.58-.15-3.06.11-.66-.09-1.38-.17-2.18.5-.39.46-1.01.18-1.68-.1-.23-.24-.5-.2-.73.31-1.67.73-3.32.03-5-.04-.08.03-.21.04-.31.08-.65.18-1.3.23-1.96.04-.54-.14-.95-.98-.82.21-1 .38-1.85.54-2.61-.29-.21-.58-.43-.87-.64.28-.27.56-.55.94-.92-.22-.12-.42-.29-.64-.34-.24-.05-.51.01-.85.03 0-.41.01-.72 0-1.03-.09-1.7-.12-3.41-.31-5.11-.13-1.12-.12-2.13.64-3.08-.51-.7-.13-1.34.07-2.03.24-.82.81-1.1 1.54-1.28 1.32-.32 2.63-.64 3.93-1.02 1.33-.39 2.61-.96 3.96-1.29 2.55-.62 5.12-1.13 7.68-1.67.31-.07.64-.13.95-.08 2.59.36 5.18.15 7.77.11.94-.02 1.88.09 2.85.14 0 .8.03 1.43-.01 2.06-.06 1.03-.27 2.07-.23 3.09.07 1.78.11 3.54-.19 5.3-.05.27-.06.56-.05.84.05 2.75.12 5.5.15 8.25.03 3.21.03 6.42.04 9.62.01 1.83 0 3.65.01 5.48.01 1.91-.11 3.85.12 5.73.29 2.41.11 4.77-.39 7.08-.3 1.41-.1 2.76-.33 4.16.86.24 1.16.8 1.1 1.55-.16 1.82-.2 3.67-.55 5.46-.23 1.15-.45 2.13.39 3.11.21.25.3.58.69.46.38-.12.57-.41.41-.86-.24-.01-.47-.03-.79-.04.39-.7.91-.26 1.3-.43.19.41.4.71.48 1.05.09.38.06.79.09 1.17.36.24.68.45 1.07.72.71-.78 1.44-1.45 1.46-2.62.02-.81.29-1.61.44-2.42.55.07.93.12 1.52.2-.9 1.12-1.17 2.3-.65 3.56.41.1.82.23 1.24.29.91.12 1.87.54 2.58-.51.15-.23.55-.29.75-.38.64.3 1.19.56 1.72.8.33-.28.61-.51.96-.8.15.49.24.81.37 1.26.58-.76 1.29-1.22 1.26-2.2-.01-.47.57-.76 1.08-.63.42.11.81.29 1.21.44.15-.22.29-.42.42-.61.34.36.57.8.91.91.36.12.81-.07 1.27-.12.19-.74.67-1.17 1.47-1.25.06.32.1.55.17.97.68-.69 1.23-1.24 1.82-1.83 1 .14 1.31-.08 1.52-1.14.08-.41.21-.81.32-1.22.08-.02.16-.04.24-.05.26.5.51 1.01.76 1.5.06-.03.17-.04.2-.1.81-1.3 1.17-2.72 1.21-4.25.01-.5.24-1 .37-1.49.06-.23.22-.48.17-.68-.26-1.15.31-2.23.24-3.36-.05-.86-.03-1.72-.1-2.57-.08-.94-.43-1.91-.27-2.8.16-.89.22-1.56-.12-2.49-.35-.94-.35-2.2.26-3.22-.74-.94-.8-1.89-.19-2.87.08-.13.22-.29.19-.41-.22-.94-.3-1.87-.18-2.83.02-.13-.14-.27-.21-.41-.35-.71-.58-1.47-.27-2.22.23-.57.13-1.09.07-1.64-.07-.63-.17-1.26-.15-1.88.03-.82.19-1.64.25-2.47.02-.35.07-.83-.13-1.03-.5-.52-.27-1.02-.18-1.56.1-.6.3-1.23.21-1.81-.19-1.29-.31-2.54-.03-3.84.15-.68.18-1.52-.1-2.13-.38-.82-.39-1.59-.32-2.42.08-.87.15-1.74.18-2.61.02-.58-.13-1.18-.02-1.74.21-1.04.19-2.05-.08-3.07-.04-.14-.2-.25-.3-.37.25.77.08 1.39-.36 1.99-.08.12-.07.31-.08.47-.03.7-.07 1.41-.07 2.11-.03 2.23-.06 4.46-.07 6.69-.01 3.55 0 7.1-.02 10.66-.01 1.31-.06 2.63-.12 3.94-.01.17-.17.34-.26.5-.26-1.43-.39-2.81-.4-4.18-.01-1.39.13-2.79.13-4.18 0-2.51-.09-5.02-.09-7.53 0-2.59.06-5.18.09-7.77.01-.64-.09-1.29-.02-1.91.25-2.12.67-4.23.4-6.39-.01-.08 0-.16 0-.24.21-2.22.43-4.44.62-6.66.18-1.98.3-3.96.5-5.93.2-1.9.51-3.8.7-5.7.37-3.77.69-7.55 1.01-11.33.05-.55.01-1.11.01-1.68-.34-.15-.66-.29-.77-.34-.71.32-1.28.58-1.83.82-.29-.4-.51-.7-.77-1.06-.7.81-1.43 1.15-2.41.77-.31-.12-.77-.14-1.05.01-.85.45-1.44-.01-1.95-.39-.46.17-.92.51-1.16.39-.45-.22-.78-.71-1.17-1.1-.58.04-1.17.09-1.82.14-.29-.63-.86-.83-1.54-.86-.59-.02-1.18-.09-1.78-.12-2.61-.16-5.22-.42-7.83-.43-1.77-.01-3.54-.22-5.34.1-1.96.34-3.98.29-5.95.53-.79.1-1.47.19-2.08-.46-.32 1.14-.31 1.16-1.41 1.34-1.09.18-2.21.25-3.29.5-2.2.51-4.32 1.32-6.56 1.66-.23.03-.5.1-.66.24-.8.74-1.84.95-2.82 1.23-1.98.56-3.96 1.09-5.84 1.97-.38.18-.82.2-1.34.32-.17-.8-.26-1.54-.93-1.97-.07-.04-.06-.23-.06-.34-.01-.99-.06-1.98-.01-2.97.05-1.07.27-2.14-.43-3.1-.1-.13-.06-.38-.05-.57.02-.54.04-1.09.09-1.63.04-.46.07-.94.21-1.38.41-1.28.18-2.18-.83-2.89-.27.19-.54.37-.84.58-.31-.6-.59-1.12-.83-1.59-1.01.11-1.9.21-2.69.29-.2.62-.38 1.2-.63 1.96-.55-.42-.92-.71-1.37-1.05.13.76.01 1.34-.74 1.36-.29.56.21 1.22-.45 1.61-.5-.23-.5-.61-.45-1.02.06-.52-.3-.7-.7-.82-.47-.14-.77.06-.93.5-.07.18-.15.35-.25.59-.47-.15-.87-.28-1.35-.44-.87.72-1.41 1.9-2.73 2.18.1 1.21.2 2.37.29 3.52-.68-.48-.59-1.2-.84-1.79-.25-.6-.66-1.13-1.01-1.72-.77.08-1.54.16-2.33.24-.07.86-.12 1.62-.18 2.37-.07 0-.14 0-.21.01-.21-.53-.41-1.05-.64-1.64-.58.29-1.03.52-1.54.78.21.57.39 1.07.57 1.56-.95.62-.88-.85-1.71-.61-.08.2-.19.51-.32.84-.09-.23-.17-.45-.27-.71-.44.36-.81.65-1.19.95-.05.97-.06.96-1.03 1.53-.2.12-.32.38-.46.55-.81-.84-.99-1.73-.77-2.73.02-.08.01-.16.02-.24.02-1.13-.19-1.3-1.54-1.16.17.78.45 1.53.49 2.3.04.79-.15 1.59-.24 2.37-.24-.06-.37-.09-.7-.18.44 1.07.81 1.95 1.22 2.94-.29-.02-.41-.04-.52-.04-.1 0-.21.03-.38.05.42 1.21-.47 1.76-1.09 2.47-.34-.3-.64-.57-1.02-.91.04.48.13.8.08 1.1-.1.66.04 1.24.29 1.85.3.71.74 1.41.48 2.28-.07.25.09.66.28.89.73.86.7 2.04 1.3 2.96.15.23.12.57.18.93-.99-.28-1.3-.1-1.29.67.01.31.03.74.23.9.54.44.88 1.16 1.75 1.16-1.11 1.43-1.11 1.43-.63 2.03.07-.17.13-.33.2-.49.12.4.23.81.1 1.1-.42.87-.18 1.62.26 2.37zm109.41 32.72c-.08 0-.17.01-.25.01-.26 1.33-.37 2.69-.43 4.04-.02.53.3 1.11-.33 1.52-.03.02 0 .22.06.26.32.23.19.42.05.7-.17.34-.28.74-.33 1.12-.11.82-.24 1.65-.23 2.48.02 1.01-.34 2.03.15 3.3.08-.87.13-1.47.19-2.09l.81.31c.09-.92.18-1.74.24-2.55.03-.42.02-.85.05-1.28.03-.4.13-.79.14-1.18.04-2.01.07-4.02.08-6.03 0-.21-.13-.41-.2-.61zm-111.74-43.12c-.14-.21-.34-.41-.43-.65a7.25 7.25 0 0 0-1.3-2.3c-.1-.12-.1-.34-.11-.52-.02-.21 0-.42 0-.62-.5-.07-.63.14-.53.48.32 1.08.62 2.17 1.01 3.22.22.59.21 1.31.73 1.79.24-.56.46-1.04.63-1.4zm-62.6 3.88c.13-.04.26-.07.39-.11-.12-.48-.3-.96-.36-1.45-.13-1.06-.8-2.12-.02-3.24-.29-.31-.55-.59-.8-.86-.72.52-.85 1.09-.65 1.77.2.66.33 1.29.89 1.86.43.43.38 1.33.55 2.03zm170.35-9.91h.33c-.16-2.25-.32-4.5-.5-6.74-.01-.17-.15-.33-.22-.49-.33 2.47.1 4.85.39 7.23zm4.12 47.47c0-1.58.37-3.16-.18-4.71-.66 1.03-.27 2.18-.43 3.26-.08.54.12 1.05.61 1.45zm-112.42-21.56c-.55-1.12-.37-2.49-1.37-3.6-.08.58-.13 1-.19 1.42.59.38.59.38.54.84-.1.97-.1.97 1.02 1.34zm61.79 68.14c.45-.05.67-.33.47-.71-.24-.45-.22-.77.13-1.14.12-.13.1-.39.15-.65-1.04.28-1.12.58-.75 2.5zm48.6-66.72c.18.55.27 1.12 1.17.96-.07-.57-.13-1.09-.21-1.75-.41.34-.67.56-.96.79zm-21.23-4.66c.12.01.24.02.35.02.1-1.35.21-2.7.31-4.04-.06-.01-.11-.01-.17-.02-.16 1.35-.32 2.69-.49 4.04zm21.62.62c.21.65-.76 1.48.25 2.07.54-.8-.05-1.42-.25-2.07zm-20.08-11.16c-.06-.02-.13-.03-.19-.05l-.51 3.46c.1.01.19.03.29.04.13-1.15.27-2.3.41-3.45zm-69.54 87.6c.76-.44.89-.94.82-1.62-.81.48-.81.48-.82 1.62zm68.13-75.96c-.09.01-.17.01-.26.02v2c.45-.66.5-1.33.26-2.02zm-8.26 66.91c-.4-.12-.68-.21-.99-.3-.02.74.3 1.19.75 1.05.06-.18.13-.4.24-.75zm-12.19 1.73c-.98.12-1.18.64-.6 1.61.02-.66-.23-1.34.6-1.61zm-90.38 13.36c-.09 0-.18 0-.27.01v1.93c.16-.65.69-1.26.27-1.94zm44.51-1.46c-.08-.01-.16-.02-.24-.02l-.15 1.62.3.03.09-1.63zm83.73-130.17c-.08-.02-.15-.04-.15-.03-.37.7.3 1.35.15 2.05v-2.02zM72.49 124.53c.77-.65.51-1.21.4-1.9-.57.58-.39 1.13-.4 1.9zm96.59-77.85c-.02-.13-.05-.26-.07-.39-.38.08-.77.17-1.15.25.02.08.03.16.05.24.39-.03.78-.07 1.17-.1zm-50.12 168.17c.37-.49.61-.76.21-1.01-.1-.06-.34.09-.52.14.09.23.17.46.31.87zm-27.67 7.07c-.63.59-.63.59-.06 1.18.03-.42.04-.73.06-1.18zm79.09-18.28c-.69.48-.57.8 0 1.31v-1.31zm75.42-45.78c-.03 0-.05 0-.08-.01-.04.44-.09.89-.13 1.33.07 0 .14.01.2.01.01-.44.01-.89.01-1.33zm-131.62 59.28.31-.03v-.79c-.14.02-.4.05-.4.07.01.25.06.5.09.75zm128.91-101.9c-.23.42-.26.72.19 1.09.17-.44.32-.76-.19-1.09zm-.56-25.19c-.41.68-.41.68.09 1.24-.03-.51-.06-.87-.09-1.24zm-143.4 17.3c-.03.51.04.86.43 1.26.23-.6.11-.94-.43-1.26zm56.71 107.97c.01-.27.06-.45.02-.61-.04-.16-.18-.29-.34-.51-.13.61-.13.61.32 1.12zm-20.41-96.47c-.4.26-.43.53-.16.81.06.06.26.08.31.02.28-.28.2-.54-.15-.83zm3.55-15.36c.01-.12.03-.24.04-.36-.15-.04-.31-.15-.44-.12-.14.03-.25.19-.38.29.12.12.21.31.35.35.13.03.29-.1.43-.16zm60.86 101.91c-.22.33-.69.59-.39 1.09.14-.4.26-.75.39-1.09zm38.28-133.19c-.1-.58-.16-.9-.21-1.22-.14.35-.36.7.21 1.22zm-43.41 107.12v1.23c.05 0 .09-.01.14-.01-.04-.33-.08-.65-.14-1.22zm3.64 26.74c.08-.33.11-.48.16-.72l-.99.09c.33.26.52.39.83.63zm-79.09-70.62.31-.03c-.06-.37-.12-.73-.19-1.1-.08.01-.16.02-.24.04l.12 1.09zm121.8-45.9c-.05.01-.09.01-.14.02v1.12h.14v-1.14zm-102.45 81.86c-.05.01-.09.02-.14.02.02.34.03.69.05 1.03.07-.01.13-.01.2-.02-.03-.34-.07-.69-.11-1.03zm86.6-49.82c-.03.01-.06.02-.1.02v.81h.05c.02-.27.03-.55.05-.83zm-87.38 43.72c.09-.01.17-.01.26-.02-.04-.21-.09-.42-.13-.63-.04.01-.09.01-.13.02v.63zm-5.35-32.79c-.08.06-.16.13-.24.19.16.19.33.37.49.56.04-.04.09-.07.13-.11-.12-.21-.25-.42-.38-.64zm-34.71 88.72c.02.06.05.12.07.18.19-.07.37-.14.56-.2-.03-.07-.05-.14-.08-.2-.18.07-.37.15-.55.22zm146.67-108.36-.23-.03c-.04.24-.09.48-.1.73 0 .06.15.12.33.25v-.95zm-111.55 3.94-.3.06c.06.25.12.5.18.76.07-.01.14-.03.21-.04-.03-.25-.06-.52-.09-.78zm1.5 37.86.18-.03-.12-.77c-.07.01-.15.02-.22.04.05.25.1.51.16.76zm72.29 50.27c-.64.09-.64.09-.66.61.23-.21.41-.38.66-.61zm-75.21-93.07c-.09.05-.18.09-.26.14.12.2.24.41.36.61.07-.04.15-.09.22-.13-.11-.2-.21-.41-.32-.62zm8.52 74.27c-.07.21-.13.32-.11.33.09.08.21.13.31.19-.05-.14-.11-.28-.2-.52zm85.6-67.12h.04v-.53h-.04v.53zM82.06 100.25c.07 0 .13 0 .2-.01.04-.07.12-.15.1-.2-.05-.11-.14-.2-.22-.3-.02.18-.05.35-.08.51zm72.01 114.51c-.12-.07-.2-.13-.29-.14-.03 0-.12.13-.11.17.03.09.11.16.17.24.06-.08.13-.15.23-.27zM56.07 260.37c.46 0 .93-.05 1.39.01 1.82.23 3.64.42 5.45.75 2.08.38 4.12.22 6.17-.16.59-.11 1.21-.02 1.82.13.3-.17.6-.35.95-.55.27.39.51.73.79 1.13 1.13-.59 2.27-.6 3.47-.36.76.15 1.57.02 2.36.06.74.04 1.47.13 2.26.42-.23.08-.45.17-.67.25-.15.63-.3 1.25-.47 1.94-2.85.46-5.75.36-8.72.24-.27-.46.04-.76.43-.86.92-.24 1.86-.4 2.81-.08.82.27 1.63.19 2.51-.18-.41-.51-.89-.46-1.35-.47-2.31-.07-4.63-.07-6.94-.24-2.1-.16-4.18-.5-6.27-.76-1.69-.22-3.38-.44-5.07-.68-.33-.05-.64-.17-.97-.25.01-.13.03-.23.05-.34zm22.81 2.05c-.09-.16-.14-.28-.16-.28-.11.03-.21.09-.31.13.13.05.26.09.47.15zM104.28 260.08c-.1.29-.21.57-.33.91 2.17.29 3.93-1.06 6.02-1.12.12-.28.24-.58.42-1-1.89.08-3.46 1.14-5.25 1.1.45-.51.88-.99 1.68-.82.28.06.7-.05.89-.24.51-.49 1.13-.53 1.75-.65.83-.17 1.66-.37 2.53-.57.11.78-1.21 1.37.03 2.15-.75.19-1.23.43-1.71.76-.57.39-1.43.37-2.16.51-.19.03-.44-.11-.57-.02-1.11.74-2.46.38-3.65.85-1.17.47-2.47.6-3.71.91-.97.24-1.92.49-2.92.21-.26-.07-.57-.07-.83-.01-1.16.24-2.31.53-3.47.78-.31.07-.64.13-.94.08-.95-.16-1.88-.26-2.84-.03-.56.14-.9-.31-1.38-.83h3.27c.09-.27.18-.53.3-.9-.34 0-.52-.03-.7.01-.33.07-.6 0-.59-.36.01-.37.33-.66.65-.49.8.44 1.5.3 2.26-.06.26-.12.63-.03.94 0 .55.04 1.09.1 1.71.17-.05.58-.7.64-1.06 1.04.86.38 1.64.14 2.38-.07 1.44-.4 2.84-.95 4.33-1.18.27-.04.63-.09.77-.27.53-.73 1.39-.63 2.18-.86z"/><path class="st0" d="M216.82 223.59c-.23.12-.46-.64-.7-.01-1.65.63-3.1 1.67-4.89 2.06-1.34.29-2.58 1.02-3.93 1.57-.26-.28-.53-.56-.82-.86 1.45-.64 2.85-1.43 4.35-1.85 1.54-.43 2.74-1.63 4.39-1.73.79-.7 1.79-.73 2.76-.88.25-.04.45-.31.71-.4.24-.08.61-.19.74-.07.2.18.34.54.33.81-.04.59-.8 1.03-1.35.84-1.18-.4-1.18-.39-1.59.52zM51.72 36.02c.03.76-.49.9-.85.99-1.49.4-2.92.98-4.38 1.41-.83.25-1.76.25-2.57.8-.37-.65-.06-.84.43-.95.77-.18 1.66-.19 2.27-.61 1.08-.76 2.38-.73 3.5-1.28.46-.23 1.03-.24 1.6-.36zM190.93 247.36c.25.7.69 1.12 1.39 1.03.09.65.18 1.23.26 1.85.29-.05.42-.04.5-.1.23-.16.44-.42.71-.09.08.1.14.37.08.42-.22.2-.54.52-.72.46-.39-.12-.79-.38-1.07-.69-.42-.45-.78-.97-1.08-1.5-.2-.36-.25-.8-.37-1.2l.3-.18zM87.73 263.8c-1.76.47-3.41.26-5.07.12.55-.28 1.09-.6 1.67-.81.19-.07.53.09.7.25.35.33.65.34 1.07.12.73-.4.74-.37 1.63.32zM240.35 219.66c-.33.31-.65.64-.99.93-.21.18-.58.24-.68.45-.42.9-1.21.62-1.96.6.72-.61 1.42-1.25 2.18-1.81.35-.25.83-.33 1.24-.49.07.1.14.21.21.32zM160.79 248.97c.23-.08.46-.19.7-.24.64-.15 1.28-.29 1.92-.43.31-.07.31-.07.91.5-.56.3-1.09.58-1.57.83-.67-.16-1.29-.3-1.91-.44-.01-.07-.03-.14-.05-.22zM185.24 29.36c.53-1.11 1.02-1.15 2.11-.18-.9.77-1.1.78-2.11.18zM120.06 256.35c-1.22.22-2.45.45-3.67.66-.03 0-.08-.12-.19-.31 1.31-.22 2.57-.44 3.84-.65.01.1.01.2.02.3zM115.35 258.08c-.16.17-.23.26-.37.4.17.15.34.32.61.56-.37.13-.64.24-.97.36-.22-.35-.41-.67-.64-1.05.43-.23.82-.39 1.37-.27zM205.75 28.29c.78-.69 1.4-.29 2.12-.28-.59.46-.63.46-2.12.28zM159.71 249.36c-.35.15-.69.34-1.05.43-.16.04-.37-.16-.55-.25.11-.19.21-.52.33-.53.41-.03.83.06 1.24.1l.03.25zM64.3 32.77c-.64.73-.68.74-1.89.54.55-.47 1.09-.6 1.89-.54zM253.11 228.51c.1-1.02.72-1.18 1.36-1.59-.06.93-.63 1.17-1.36 1.59zM267.03 218.53c-.08.25-.2.5-.23.76-.04.31-.01.64-.01.96-.46-.11-.79-.34-.72-.87.07-.56.44-.8.96-.85zM227.6 218.33c-.44.17-.88.34-1.47.56.54-.98.57-1 1.47-.56zM185.68 247.51c.48-.59.99-.19 1.57-.16-.67.59-.67.59-1.57.16zM181.59 248.57c-.57.04-.92.07-1.34.1.1-.6.39-.84.8-.81.15.01.28.35.54.71zM87.63 262.01c-.27.14-.54.29-.86.46-.18-.27-.32-.5-.57-.88.59.08 1 .13 1.4.18.01.07.02.15.03.24zM151.77 248.26c-.54.05-1.08.11-1.8.18.74-.61 1.06-.68 1.79-.45.01.09.01.18.01.27zM250.4 120.56c.07.59.14 1.18.25 2.01-.83-.77-.41-1.4-.25-2.01zM54.98 35.08c-.1.6-.47.65-.96.72.05-.69.4-.79.96-.72zM234.03 217.62c-.65.07-.65.07-.97-.47.61.03.61.03.97.47zM244.88 203.46c.04-.53.07-1.06.12-1.8.45.74.06 1.27.11 1.8h-.23zM146.52 249.02c-.39.05-.78.11-1.31.18.6-.47.6-.47 1.25-.47.02.09.04.19.06.29zM244.94 184.51c.03-.5.05-.99.08-1.49l.26.03c-.07.49-.13.98-.2 1.47-.04-.01-.09-.01-.14-.01zM172.95 248.53c-.38-.05-.85.34-1.3-.48.6.08.99.13 1.38.18-.02.1-.05.2-.08.3zM182.46 248.39l-.5.5c-.12-.12-.33-.25-.33-.37 0-.14.17-.35.31-.4.1-.04.28.14.52.27zM133.83 252.96c-.31.06-.61.13-1.17.25.47-.62.79-.58 1.12-.51.01.08.03.17.05.26zM130.18 253.72c-.26.02-.52.04-.78.05l-.03-.19c.27-.05.53-.11.8-.16.01.1.01.2.01.3zM252.48 166.15l-.07-.89c.61.28.46.59.36.88-.1.01-.19.01-.29.01zM252.72 160.36c-.09.52-.35.73-.85.52.28-.17.56-.35.85-.52zM144.3 251.08c-.27.03-.53.05-.8.08-.01-.09-.01-.18-.02-.27.27-.02.53-.03.8-.05 0 .08.01.16.02.24zM184.95 247.72c-.15-.01-.31-.01-.46-.03-.01 0 .01-.18.01-.27l.47.12c0 .05-.01.12-.02.18zM178.78 39.88c-.09-.15-.2-.27-.18-.34.03-.11.16-.19.25-.29.07.08.19.17.19.26.01.08-.11.17-.26.37zM252.19 186.41v-.6l.2-.03c.04.2.07.39.11.59-.11.02-.21.03-.31.04zM135.39 253.78c.21-.05.42-.09.84-.18-.39.19-.58.28-.78.38-.02-.06-.04-.13-.06-.2zM152.75 247.85c.17-.02.34-.05.51-.07.01.05.01.1.02.16-.17.01-.35.03-.52.04 0-.04-.01-.09-.01-.13zM244.72 204.67c.08-.17.17-.35.25-.52.06.02.11.04.17.06-.05.19-.09.39-.14.58-.1-.04-.19-.08-.28-.12zM199.88 32.23c-.06.03-.13.05-.19.08a2.25 2.25 0 0 1-.08-.24c.07-.01.15-.04.2-.02.04.02.05.11.07.18zM251.75 139.34v-.74h.1v.74h-.1zM189.76 247.58c-.16-.04-.33-.07-.49-.11.1-.08.2-.17.32-.22.04-.02.12.08.19.12-.01.07-.02.14-.02.21z"/><path d="M167.54 209.54c-.38-.08-.77-.16-1.24-.26.18-.86-.48-1.53-.78-2.4-.97.82-.22 2.11-.93 3.08-.14-.15-.23-.32-.37-.39-.4-.19-.86.07-.72.43.41 1.1-.26 2.07-.15 3.11-.39-.57-.76-1.12-1.2-1.76.02-.04.2-.21.19-.38 0-.24-.17-.69-.21-.68-.74.11-1.09-.51-1.71-1.1-.08 1.54-.06 2.8-.23 4.03-.17 1.23-.06 2.5-.69 3.69-.02-.2-.09-.4-.06-.58.13-.91.41-1.81.4-2.72-.02-1.23-.58-2.43.03-3.71-.55.07-.59.15-1.18 1.72-1.15.33-1.19.38-1.25 1.53-.03.51-.07 1.03-.11 1.57-.63.06-.7-.3-.69-.73.02-.95.04-1.91.05-2.86 0-.48-.06-.96-.01-1.43.05-.56-.18-.9-.65-1.12-1.33.87-1.02 2.22-1.12 3.46-.04.49-.16.97-.25 1.48-1.27-.05-1.03-1.84-2.49-1.54.39-.76.7-1.35 1.02-1.96-1.33-.03-1.39.03-1.37 1.18.02 1.35.08 2.69.05 4.04-.04 1.23-.18 2.45-.29 3.67-.01.09-.13.19-.22.26-.05.04-.15.01-.41.01.15-.74.3-1.44.47-2.23-.92-.46-.9-1.23-.74-2.18.11-.65-.2-1.38-.31-2.03-.98-.22-1.22.52-1.62 1.13.38-.06.76-.13 1.22-.2-.05.92-.96.96-1.25 1.47-.47.83-1.09.4-1.73.38-.18.28-.36.56-.54.85-.75-.31-.6-.91-.64-1.45-.06-.91-.12-1.82-.22-2.73-.03-.25-.2-.48-.33-.76-.48.33-.2.7-.22 1.02-.05.87-.08 1.73-.14 2.6-.03.48-.34.57-.83.46-.04-.41-.09-.83-.14-1.36-.2 0-.38-.01-.56 0-.51.04-.74-.07-.8-.7-.16-1.69-.09-3.36.07-5.04.13-1.42.01-2.84-.21-4.37-.45.16-.76.26-1.12.39-.14-.65-.39-1.13-.82-1.64-.49-.58-.44-1.63-.63-2.47-.06-.29-.1-.59-.21-.85-.25-.59-.27-.59.36-1.13-.24-.2-.59-.36-.69-.62-.05-.14.32-.44.54-.73-.19-.07-.41-.08-.51-.2-.1-.12-.16-.38-.09-.5.36-.68.45-1.12.02-1.31-.52-.23-.5-.67-.7-1.03-.07-.13-.22-3.1-.18-3.35.13.15.22.25.34.38-.01 0 .04.02.05 0 .14-.22-.13-1.13-.38-1.28-.43-.26-.55-.41-.29-.74.41-.52.32-1.04.24-1.59-.03-.19-.08-.48-.2-.52-.89-.35-.76-1.13-.81-1.83-.03-.48-.06-.97.03-1.43.05-.29.14-.48-.09-.74-.1-.12-.07-.46.03-.63.44-.78.37-.71-.14-1.43-.3-.42-.29-1.06-.47-1.83.37.27.51.38.71.53-.11-1.61-.22-3.15-.33-4.69-.04-.48-.1-.95-.14-1.43l-.6-8.24c0-.04-.01-.08-.01-.12.01-1.43-.13-2.84-.48-4.22-.11-.43-.17-.91.56-.96.07.12.21.24.22.38.15 2.09.23 4.19.43 6.28.19 1.99.49 3.97.72 5.96.1.87.17 1.74.26 2.61.06.63.13 1.26.21 1.88.04.31.17.63.16.94-.04 1.69.37 3.32.59 4.97.08.63.09 1.27.12 1.91.06 1.17.01 2.34.3 3.5.18.71.42 1.43.23 2.22-.07.3.2.69.32 1.04l.3-.06c-.08-1.05-.15-2.11-.23-3.16l.22-.03c.19 1.39.49 2.78.55 4.17.11 2.14.49 4.22.92 6.3.01.06.1.09.26.23.04-.92.17-1.76.08-2.58-.09-.95-.24-1.89-.58-2.84-.31-.86-.72-1.99-.01-2.99-.57-.61-.69-1.29-.71-2.09-.05-2.04.17-4.11-.44-6.11-.08-.25.02-.55.02-.82-.01-.79-.02-1.59-.04-2.38-.02-.71-.07-1.42-.05-2.12.04-1.39.12-2.78.17-4.17 0-.12 0-.26-.06-.35-.88-1.2-.26-2.52-.32-3.79-.01-.19.1-.43.03-.58-.72-1.29-.46-2.73-.71-4.09-.04-.23-.11-.53-.01-.7.35-.63.16-1.25.03-1.87-.25-1.2-.55-2.39-.82-3.59-.16-.71.03-1.52-.76-2.03-.15-.1-.05-.6-.04-.91.02-.91-.2-1.72-.68-2.52-.26-.42-.11-1.08-.3-1.56-.28-.68.28-.91.59-1.27-.76-3.35-1.52-6.66-2.27-9.97-.1.01-.2.03-.3.04.05.5.09 1.01.16 1.7-.64-1.08-.67-1.76-.25-2.71.07-.17.1-.4.06-.58-.24-.99-.5-1.98-.75-2.97-.33-1.3-.62-2.62-.99-3.91-.34-1.18-.7-2.36-1.14-3.51-.47-1.23-1.03-2.43-1.59-3.72-.5.42-.86.73-1.41 1.2.6.07.96.1 1.26.14.06.12.1.16.09.19-.8 1.7.09 3.22.48 4.8.24.96.4 1.95.66 2.91.2.75.57 1.42.74 2.21.58 2.81 1.33 5.58 1.96 8.38.67 2.99 1.32 5.98 1.9 8.99.18.96.09 1.97.14 2.96.06 1.09.14 2.18.21 3.32-.15.08-.32.16-.51.25-.09-.13-.2-.21-.22-.31-.28-1.56-.56-3.13-.81-4.7-.1-.63-.09-1.27-.58-1.78-.15-.15-.16-.44-.22-.67-.55-2.28-.97-4.61-1.71-6.82-.3-.9-.08-1.78-.39-2.62-.27-.73-.51-1.48-.7-2.24-.36-1.43-.68-2.86-1.03-4.29-.17-.71-.04-1.53-.67-2.1-.07-.07-.06-.23-.07-.35-.2-2.04-.91-3.93-1.55-5.86-.76-2.3-1.29-4.67-1.93-7.01-.17-.61-.39-1.22-.59-1.82-.34-1.01-.69-2.02-1.03-3.04-.04-.11-.06-.25-.02-.35.28-.78.01-1.49-.24-2.21-.06-.18-.05-.39-.07-.62.36-.14.68-.26 1.11-.43.95 2.25 1.24 4.64 2.09 6.83.7-.82 1.39-1.63 2.07-2.43-.21-.16-.54-.37-.82-.63-.29-.27-.5-.59-.45-1.2.44.22.76.38 1.25.62.06-.33.13-.6.14-.87.01-.39-.1-.8-.02-1.18.12-.6.5-.88 1.18-.6.02.15.11.39.04.44-.67.58-.33 1.32-.29 1.97.05.7.27 1.39.39 2.09.2 1.13.39 2.27.58 3.4.06.34-.03.75.56.89.05-.21.16-.42.13-.61-.15-1.1-.34-2.2-.52-3.3-.03-.16-.11-.31-.1-.46 0-.1.09-.26.17-.29.13-.04.36-.05.43.03.15.17.31.39.34.61.11.93.65 1.8.43 2.8-.04.19.11.44.22.64.47.84.78 1.69.93 2.67.16 1.09.58 2.14.96 3.19.48 1.35 1.06 2.66 1.52 4.01.23.66.27 1.39.42 2.08.36 1.58.72 3.16 1.13 4.73.12.47.41.89.75 1.6.07-1.01.21-1.75.15-2.46-.17-1.83-.41-3.65-1.1-5.38-.38-.97-.68-1.96-.56-3.03.16.08.31.15.63.3l-.32-1.17-.22.03c-.02.29-.05.58-.07.87-.44-.75-.68-1.5-.29-2.38.13-.3.02-.7-.1-1.1-.07.16-.13.33-.2.49-.47-.6-.47-.6.63-2.03-.87.01-1.22-.71-1.75-1.16-.19-.16-.22-.59-.23-.9-.01-.77.3-.95 1.29-.67-.06-.35-.03-.7-.18-.93-.6-.92-.57-2.09-1.3-2.96-.19-.22-.35-.64-.28-.89.26-.87-.18-1.57-.48-2.28-.26-.61-.39-1.19-.29-1.85.04-.3-.04-.62-.08-1.1.39.34.68.61 1.02.91.62-.71 1.51-1.26 1.09-2.47.17-.03.27-.05.38-.05.11 0 .22.02.52.04l-1.22-2.94c.33.09.46.12.7.18.09-.78.28-1.58.24-2.37-.04-.77-.31-1.53-.49-2.3 1.35-.14 1.56.04 1.54 1.16 0 .08 0 .16-.02.24-.22 1-.04 1.89.77 2.73.14-.17.26-.43.46-.55.98-.58.98-.56 1.03-1.53.37-.3.74-.6 1.19-.95.1.26.19.49.27.71.12-.32.24-.63.32-.84.84-.25.77 1.23 1.71.61-.18-.49-.36-1-.57-1.56.51-.26.96-.49 1.54-.78.23.58.44 1.11.64 1.64.07 0 .14 0 .21-.01.06-.75.11-1.51.18-2.37.79-.08 1.56-.16 2.33-.24.36.59.76 1.12 1.01 1.72.25.59.16 1.31.84 1.79-.1-1.15-.19-2.31-.29-3.52 1.32-.28 1.86-1.46 2.73-2.18.48.16.89.29 1.35.44.1-.24.18-.41.25-.59.17-.44.47-.64.93-.5.4.12.76.29.7.82-.05.41-.05.8.45 1.02.65-.39.16-1.05.45-1.61.75-.02.87-.6.74-1.36.45.35.82.63 1.37 1.05.24-.76.43-1.34.63-1.96.79-.09 1.68-.18 2.69-.29.25.47.52.99.83 1.59.31-.21.58-.4.84-.58 1 .71 1.24 1.61.83 2.89-.14.44-.17.92-.21 1.38-.05.54-.07 1.09-.09 1.63-.01.19-.04.44.05.57.7.97.48 2.04.43 3.1-.05.99 0 1.98.01 2.97 0 .12-.01.3.06.34.66.43.75 1.17.93 1.97.51-.12.96-.15 1.34-.32 1.87-.88 3.86-1.41 5.84-1.97.98-.28 2.02-.5 2.82-1.23.16-.15.43-.21.66-.24 2.24-.34 4.36-1.15 6.56-1.66 1.08-.25 2.19-.31 3.29-.5 1.09-.18 1.09-.21 1.41-1.34.6.65 1.29.55 2.08.46 1.98-.24 4-.19 5.95-.53 1.8-.32 3.57-.11 5.34-.1 2.61.02 5.22.27 7.83.43.59.04 1.18.1 1.78.12.68.02 1.25.22 1.54.86.65-.05 1.24-.09 1.82-.14.39.39.72.88 1.17 1.1.24.12.7-.22 1.16-.39.51.38 1.11.84 1.95.39.28-.15.74-.13 1.05-.01.98.37 1.71.04 2.41-.77.26.36.48.67.77 1.06.55-.25 1.11-.5 1.83-.82.12.05.44.19.77.34 0 .58.04 1.14-.01 1.68-.32 3.78-.64 7.56-1.01 11.33-.19 1.9-.5 3.8-.7 5.7-.2 1.97-.33 3.96-.5 5.93-.2 2.22-.42 4.44-.62 6.66-.01.08-.01.16 0 .24.26 2.15-.15 4.26-.4 6.39-.07.63.03 1.28.02 1.91-.03 2.59-.09 5.18-.09 7.77 0 2.51.09 5.02.09 7.53 0 1.39-.14 2.79-.13 4.18.01 1.38.14 2.75.4 4.18.09-.17.25-.33.26-.5.06-1.31.11-2.62.12-3.94.02-3.55.01-7.1.02-10.66.01-2.23.04-4.46.07-6.69.01-.7.04-1.41.07-2.11.01-.16 0-.35.08-.47.43-.6.61-1.22.36-1.99.1.12.26.23.3.37.26 1.01.29 2.03.08 3.07-.11.55.04 1.16.02 1.74-.03.87-.11 1.74-.18 2.61-.07.83-.06 1.6.32 2.42.28.61.25 1.45.1 2.13-.28 1.3-.16 2.55.03 3.84.09.58-.11 1.21-.21 1.81-.09.54-.32 1.04.18 1.56.19.2.15.68.13 1.03-.06.82-.22 1.64-.25 2.47-.02.62.08 1.25.15 1.88.06.55.16 1.07-.07 1.64-.31.75-.08 1.51.27 2.22.07.14.23.29.21.41-.12.96-.03 1.9.18 2.83.03.12-.11.28-.19.41-.61.98-.55 1.93.19 2.87-.61 1.02-.61 2.28-.26 3.22.34.93.28 1.6.12 2.49-.16.89.19 1.86.27 2.8.07.85.05 1.71.1 2.57.07 1.13-.5 2.21-.24 3.36.05.2-.11.45-.17.68-.13.5-.36.99-.37 1.49-.03 1.53-.4 2.95-1.21 4.25-.03.06-.14.07-.2.1-.25-.49-.51-1-.76-1.5-.08.02-.16.04-.24.05-.11.4-.24.81-.32 1.22-.21 1.06-.52 1.28-1.52 1.14-.59.59-1.14 1.14-1.82 1.83-.08-.42-.12-.65-.17-.97-.8.08-1.28.51-1.47 1.25-.46.06-.91.24-1.27.12-.34-.11-.57-.55-.91-.91-.13.19-.27.39-.42.61-.4-.15-.79-.33-1.21-.44-.51-.13-1.09.15-1.08.63.03.98-.68 1.43-1.26 2.2-.14-.45-.23-.77-.37-1.26-.35.29-.62.52-.96.8-.52-.25-1.08-.51-1.72-.8-.19.09-.59.15-.75.38-.71 1.05-1.67.63-2.58.51-.42-.06-.83-.19-1.24-.29-.52-1.26-.25-2.44.65-3.56-.6-.08-.97-.13-1.52-.2-.16.81-.42 1.61-.44 2.42-.03 1.17-.75 1.84-1.46 2.62-.4-.26-.72-.48-1.07-.72-.02-.38 0-.79-.09-1.17-.08-.34-.29-.65-.48-1.05-.39.17-.9-.27-1.3.43.32.02.55.03.79.04.16.45-.02.74-.41.86-.38.12-.47-.21-.69-.46-.84-.98-.62-1.96-.39-3.11.35-1.79.4-3.64.55-5.46.07-.76-.23-1.32-1.1-1.55.23-1.4.03-2.75.33-4.16.49-2.31.68-4.67.39-7.08-.23-1.89-.1-3.82-.12-5.73-.01-1.83 0-3.65-.01-5.48-.01-3.21-.01-6.42-.04-9.62-.03-2.75-.1-5.5-.15-8.25 0-.28 0-.56.05-.84.3-1.76.26-3.52.19-5.3-.04-1.03.17-2.06.23-3.09.04-.63.01-1.26.01-2.06-.97-.05-1.91-.16-2.85-.14-2.59.05-5.18.26-7.77-.11-.31-.04-.64.02-.95.08-2.56.54-5.14 1.05-7.68 1.67-1.34.33-2.63.89-3.96 1.29-1.3.38-2.62.7-3.93 1.02-.73.18-1.31.47-1.54 1.28-.2.69-.58 1.33-.07 2.03-.76.94-.77 1.96-.64 3.08.19 1.69.22 3.4.31 5.11.02.31 0 .62 0 1.03.34-.02.61-.08.85-.03.22.05.42.22.64.34-.38.37-.66.65-.94.92.29.21.58.42.87.64-.16.76-.33 1.62-.54 2.61.83-.13 1.02.28.98.82-.05.65-.15 1.3-.23 1.96-.01.11-.07.23-.04.31.7 1.67.28 3.33-.03 5-.04.22.11.49.2.73.28.67.32 1.3-.18 1.68.07.8.27 1.51.17 2.18-.24 1.48-.26 1.46.15 3.06.23.92.39 1.87.46 2.81.06.8.14 1.54.57 2.26.38.63.48 1.37.39 2.18-.13 1.09-.02 2.22.03 3.33.08 1.67.28 3.34-.12 4.99-.05.21-.25.39-.5.76.23.79-.27 1.91.25 3.04.81-.88-.13-1.86.41-2.73.56 1.34.45 2.61.08 3.89.88.98.65 2.09-.53 2.8-.17.1-.33.36-.36.56-.15 1.11-.5 2.24.25 3.36-.63.52-.81 1.18-.55 1.99.08.25-.07.58-.13.98-.37-.16-.6-.27-.88-.39.02.75-.45 1.38-.24 2.1.03.09-.18.24-.28.37.04.02.05-.01.05-.01zm-28.74-60.37c.07 0 .13-.01.2-.01 0-.85.09-1.71-.02-2.55-.17-1.29-.47-2.57-.74-3.85-.31-1.47-1.09-2.81-1.07-4.37 0-.18-.29-.37-.47-.58-.83 1.2.03 2.32-.15 3.42-.01.05.09.12.16.17.56.38 0 .76-.02 1.17.59.37.84.91.85 1.6 0 .29.11.61.25.88.31.63-.02.92-.58 1.1.36.49.22 1.26 1.08 1.34.18.02.33.59.44.93.07.23.05.5.07.75zm-5.54-22.16c.31-1.5-.43-2.38-1.38-3.17.28 1.08.43 2.21 1.38 3.17zm12.02 79.71c-.64.58-.53 1.2-.3 1.81.16.42.57.45.83.09.43-.59.21-1.41-.53-1.9zm76.44-33.32c0 .67-.02 1.33.01 2 .02.65-.23 1.35.26 2.04.3-1.12.24-2.54-.27-4.04zm-87.56-43.09c-.11-.9-.17-1.55-.29-2.2-.02-.12-.3-.23-.47-.25-.07-.01-.27.23-.25.33.09.58.2 1.16.37 1.72.05.15.34.22.64.4zm15.66 37.96c.07 0 .14 0 .21.01 0-1 .01-2-.02-3.01 0-.06-.22-.11-.49-.24.12 1.18.21 2.21.3 3.24zm-6.33 14.55c-.04-.01-.09-.01-.13-.02v2.69c.34-.5.51-.75.55-.8-.18-.75-.3-1.31-.42-1.87zm78.36-10.64c.01-.87.33-1.77-.13-2.7-.66.98-.17 1.84.13 2.7zm-10.98 21.39c-.66.26-.74.88-.3 2.44.1-.78.19-1.55.3-2.44zm-81.22-69.56c.05-.05.1-.1.15-.16-.38-.45-.75-.9-1.13-1.35-.07.03-.14.05-.2.08.08.4.15.79.22 1.13.4.14.68.22.96.3zm68.46 57.98c.19-.63.38-1.28.13-2.03-.76.7-.06 1.39-.13 2.03zm-.87-16.49c-.44 1.09-.44 1.09 0 1.72v-1.72zm24.51 14.67c.15.02.3.04.44.07-.02-.46-.05-.91-.07-1.37h-.2c-.05.43-.11.87-.17 1.3zm-11.4-27.06c.03-.54.05-1.07.08-1.69-1.03.6-.15 1.15-.08 1.69zm-59.95 28.73-.29.06c.25.51-.26 1.16.65 1.78-.15-.76-.26-1.3-.36-1.84zm-6.05 9.28c.24-1.04.24-1.04-.38-1.18.12.39.24.75.38 1.18zm-6.46-6.94c-.04.01-.09.01-.13.02.08.6.17 1.21.25 1.81l.18-.03-.3-1.8zm66.5 19.02c.96-.69.96-.72.39-1.21-.11.33-.21.64-.39 1.21zm-.12-24.57c-.09 0-.18-.01-.27-.01-.2.32-.39.64.19 1.08.04-.45.06-.76.08-1.07zm-44.73 30c-.75.11-.75.11-.68.81.28-.34.48-.57.68-.81zm-9.28 3.76c.22-.78.22-.78-.33-1.16.1.37.19.68.33 1.16zm-9.44-69.96c.71-.04.67-.44.67-1.12-.32.52-.5.82-.67 1.12zm.87 6.97c-.08-.07-.15-.14-.23-.21-.15.19-.3.38-.44.57.06.05.13.1.19.15l.48-.51zm66.96-2.09c-.07-.01-.14-.02-.21-.02l-.09.64.24.03.06-.65zm-4.13 39.13c-.07-.01-.15-.02-.22-.04l-.12.59c.1 0 .28.02.29 0 .03-.18.04-.37.05-.55zm17.31 8.15c-.06-.02-.13-.03-.19-.05-.05.12-.12.25-.14.37-.02.15.01.31.02.46.05 0 .09 0 .14.01.06-.26.12-.53.17-.79zm-72.68 10.21c-.18-.15-.26-.27-.35-.27-.08 0-.16.12-.24.19.09.09.16.23.26.27.08.02.2-.1.33-.19zm18.42 3.47-.25-.29c-.09.1-.2.19-.25.31-.02.04.14.22.17.21.1-.04.2-.13.33-.23zm-33.6-61.94c-.1.01-.19.03-.29.04.06.21.12.42.18.64.06-.01.12-.02.17-.03l-.06-.65zm74.6 7.86c-.07-.01-.13-.03-.2-.04-.04.2-.08.39-.11.59.07.01.14.03.21.04.03-.19.06-.39.1-.59zm-72.75-14.22c-.07.04-.13.09-.2.13.11.15.22.3.33.44l.12-.09c-.09-.15-.17-.31-.25-.48zm-5.86-22.37c-.08 0-.17.01-.25.01.01.22.03.43.04.65.07 0 .14-.01.21-.01v-.65zm68.92 78.09c.06.02.13.03.19.05.04-.15.08-.3.11-.46 0-.01-.13-.04-.2-.06-.02.16-.06.32-.1.47zm23.25-6.16c.07-.21.12-.34.15-.47.01-.03-.14-.13-.15-.12-.1.09-.2.18-.26.3-.03.03.12.14.26.29zm-80.23-34.49c.04.05.08.11.13.16.01-.06.03-.13.03-.19 0-.03-.04-.06-.06-.09-.04.04-.07.08-.1.12zm-3.07-2.34c-.09.01-.17.01-.26.02.01.13.02.26.05.39 0 .01.17.01.17 0 .03-.14.03-.27.04-.41zM73.44 130.56c-.16-.4-.5-.82-.45-1.19.11-.82-.14-1.57-.29-2.33-.15-.74-.12-1.4.4-2.13.68 1.25.59 2.64 1.1 3.95.31-.38.2-.77.15-1.12-.13-1.03-.38-2.05-.39-3.08-.01-1.72-.66-3.31-.88-4.98-.12-.94-.34-1.87-.49-2.71.7-.87 1.58-1.09 2.5-1.23v-1.53c.32.41.51.67.7.91.45-.08.91-.09 1.31-.24.73-.27.29-.93.26-1.47.72.29.72.29 1.22 1.65.04-.34.09-.69.14-1.1.33.02.67.04 1.09.07v-1.61c.57-.05 1.07-.09 1.63-.14.2.23.43.49.72.82.27-.46.34-1.04 1.09-.89.23.05.58-.45.92-.74.24.42.5.9.76 1.37.08-.7.16-1.31.68-1.84.63-.65 1.23-.57 1.95-.07.04-.44.07-.75.1-1.12.63-.16 1.27-.32 2.06-.51.08.06.29.22.61.46.26-.43.49-.81.77-1.28.58.12 1.19.25 1.88.39v-.92c1.21.27 2.39-.38 3.55.19.11-.62.19-1.13.3-1.75 1.19.71.02 2.04 1.03 2.71.14-.22.24-.4.31-.51.63 1.13 1.26 2.25 1.88 3.38.06-.01.12-.02.17-.03-.06-.47-.11-.94-.17-1.4.06-.03.11-.07.17-.1.14.22.28.45.42.67.14.23.24.49.42.68.21.23.49.4.73.59.81-.08.71-.84 1-1.45.37.09.73.18 1.13.28-.06.31-.1.54-.15.77.06.03.13.05.19.08.19-.38.46-.73.55-1.13.13-.54.44-.82.92-.67.57.18.49-.38.77-.54l1.32.69c.88-1.04 2.04-.97 3.23-.76.14-.36.26-.65.43-1.09.5.28.96.54 1.5.84.33-.25.72-.55 1.09-.84.95.46 1.05 1.34 1.21 2.14.42 2.15.8 4.32 1.14 6.48.49 3.11.93 6.23 1.38 9.34.45 3.16.92 6.31 1.3 9.48.37 3.07.64 6.16.96 9.24.35 3.28.72 6.56 1.04 9.85.09.89.3 1.75.44 2.62.15.96-.03 1.97-.08 2.96-.05 1.2 0 2.38.33 3.55.11.41.06.86.07 1.29.03 1.78.04 3.56.09 5.34.01.39.22.76.26 1.15.07.63.57 1.3-.1 1.9-.06.05-.01.23.01.34.4 2.38.65 4.78.92 7.18.41 3.6 1.07 7.17 1.56 10.76.08.61.47.6.94.72-.17.3-.26.57-.44.76-.67.75-.62 1.58-.42 2.5.16.76.53 1.62-.39 2.25-.17.11-.17.49-.21.76-.33 2.07-.62 4.15-.99 6.22-.28 1.54-.67 3.07-1.03 4.67-1.18-.11-1.33.91-1.77 1.62-.14.23-.15.55-.31.76-.47.65-1.06.58-1.46-.13-.1-.18-.26-.34-.46-.58-.54.67-1.02 1.19-.93 2.05.06.61-.19 1.15-.67 1.74-.1-.32-.17-.52-.27-.86-.21.43-.36.73-.5 1.01-1.26-.27-.19-1.05-.42-1.53-.36-.38-.72-.26-1.06.01-.12.1-.18.27-.3.37-.32.27-.65.52-.98.78-.13-.32-.26-.65-.43-1.09-.23.35-.43.64-.62.93-.02-.07-.02-.18-.07-.21-.14-.09-.31-.16-.46-.23-.05.13-.09.26-.14.39.16.04.33.09.49.11.07.01.14-.06.21-.09-.05.2-.1.41-.14.61l.01-.01c-.67.25-.98.76-1.07 1.44-.12.95-.23 1.89-.55 2.83v-2.5c-.05-.02-.09-.03-.14-.05-.13.27-.25.53-.41.86-.36-.22-.71-.44-1.14-.71l-.55 1.44c-.22 0-.58-.1-.69.02-.39.43-.83.11-.9-.08-.2-.59-.78-.54-1.13-.86a5.8 5.8 0 0 0-.53 3.16c-.08.02-.16.04-.23.06-.17-.17-.43-.3-.51-.51-.22-.6-.72-.78-1.23-.73-.55.05-1.06.35-1.32.91-.23.5-.45.99-.69 1.53-.94-.6-.2-1.48-.43-2.26-.28.26-.49.47-.76.72-.33-.45-.6-.95-1.22-.73-.46-.94-1.62-.47-2.16-1.11.05-.47.09-.93.14-1.38-.51.54-.59 1.14-.6 1.83-.02 1.04-.25 2.08-.4 3.18-.75-.08-.87-.59-.92-1.09-.08-.85-.08-1.71-.12-2.6-.53.31-.54.31-.58 2.31-.02.87 0 1.75-.2 2.65-.07-.21-.14-.42-.2-.63-.34-1.37-.68-2.74-1.05-4.21-.34.14-.64.26-.94.38-.11-.15-.25-.25-.24-.33.15-.93-.26-1.86.08-2.8.24-.66.18-.69-.46-1.55-.16.16-.4.28-.44.46-.2.85-.88 1.64-.31 2.62.13.22-.04.61-.07.95-.24-.1-.41-.17-.67-.27-.08.64-.15 1.25-.23 1.96-.4-.35-.69-.6-.96-.83l.23-1.13c-.06.02-.12.03-.17.05-.21-.41-.46-.81-.62-1.24-.31-.85-.57-1.72-.94-2.86-.4.83-.71 1.46-1.05 2.17-.41-.2-.85-.41-1.26-.61.21-4.64.3-9.19.64-13.72.33-4.44.21-8.83-.28-13.25-.25-2.26-.59-4.49-1.05-6.72-.57-2.73-.89-5.51-1.36-8.26-.39-2.32-.84-4.62-1.26-6.93-.32-1.76-.62-3.52-.95-5.28-.37-2.03-.75-4.06-1.15-6.08-.27-1.42-.56-2.84-.86-4.26-.22-1.01-.48-1.99-.43-3.06.03-.66-.21-1.33-.33-2-.27-1.48-.57-2.96-.77-4.46-.05-.4-.17-.72-.32-1.08-.33-.76-.79-1.55-.8-2.34-.02-1.45-.56-2.75-.85-4.13-.28-1.36-.44-2.75-.65-4.13.31.02.63.08.94.06.53-.04.69-.47.35-.91-.11-.14-.31-.2-.6-.37-.25.51-.46.91-.67 1.31zm12.53 56.06c.16-1.24-.37-4.11-.96-5.11-.05.21-.13.35-.1.47.18.86.3 1.69-.16 2.53-.12.22-.05.66.1.89.31.44.72.8 1.12 1.22zm-9.2-46.29c.22-1.41-.43-4.31-1.15-5.08-.17 1.64.69 3.03.81 4.53.02.16.18.3.34.55zm6.44 36.22c.05 1.51.05 1.52 1.47 2.53.09-1.53.05-1.6-1.47-2.53zm-.35-3.13c-.11.04-.22.08-.33.11.14.57.28 1.13.43 1.73.39-.19.69-.34.95-.47v-1.05c-.24.13-.39.22-.52.3-.18-.2-.36-.41-.53-.62zm-1.5-8.59c-.21.76-.01 1.88.38 2.25.01-.77.3-1.52-.38-2.25zm10.75 52.85c.12-.31.27-.57.32-.86.02-.12-.17-.33-.31-.41-.09-.05-.37.03-.4.11-.14.44-.31.9.39 1.16zM89.43 110.3c-.26.77-.26.77.27 1.23-.1-.44-.16-.73-.27-1.23zm-6.56 60.24c.08-.01.16-.02.24-.04-.06-.33-.11-.66-.19-1.16-.49.57-.14.88-.05 1.2zm-8.01-38.69c-.09.04-.18.08-.28.12.1.17.19.35.29.52.06-.03.13-.06.19-.09-.06-.18-.13-.36-.2-.55zm9.72-14.46c-.04 0-.08 0-.12.01.03.25.05.5.08.75.01 0 .03-.01.04-.01v-.75zM79.61 99.75c-.37-.02-.65-.07-.76-.56-.14-.61-.45-1.18-.66-1.78-.08-.21-.06-.46-.1-.69-.08-.41-.18-.81-.27-1.22-.08.02-.17.03-.25.05.09.33.18.67.29 1.08-.26.06-.5.12-.66.16.03.4.05.76.1 1.1.04.26.06.58.22.76.67.75.37 1.47-.01 2.23.4.6.81 1.19.48 1.96-1.15-.34-1.31-1.26-1.42-2.23-.07-.6.01-1.27-.56-1.82-.41.87.81 1.74-.22 2.55-.19-.25-.39-.51-.62-.81-.3.29-.61.57-.91.86-.52.52-.68.48-.98-.18-.22-.5-.53-.96-.79-1.44-.18-.34-.34-.69-.59-1.18-.37.29-.71.57-1.08.86-.87-.8-1.3-1.82-1.4-3.02-.07-.88.04-1.84-.71-2.55-.04-1.45-1.28-2.46-1.39-3.88-.01-.15-.07-.34-.18-.44-1.47-1.35-1.97-3.31-3.05-4.9-.24-.36-.53-.68-.79-1.02-.24.14-.4.24-.55.33-.45-.93-.95-1.84-.99-2.95.99-.23 1.33 1.04 2.25 1.01.01-1.87-1.77-2.83-2.06-4.55 1.43 1.41 2.87 2.82 4.3 4.23l.91-1.3c-.21-.44-.47-.99-.77-1.61.48-.13.85-.23 1.21-.33.45.34.88.67 1.44 1.09.11-1.04-1-1.32-.92-2.2.48-.56.94-.08 1.28.2.57.47 1.11.58 1.86.22-.15-.42-.3-.84-.45-1.25 1.27-.77 2.07-.66 2.88.42.91 1.2 1.84 2.4 2.67 3.66.36.55.74.65 1.3.52-.29 1.26-.24 1.43.63 1.94-.13-.41-.2-.69-.29-.96-.11-.33-.22-.65-.34-.97-.7-1.1-1.39-2.22-2.1-3.31-.34-.51-.73-.99-1.32-1.41l.18-1.24c.23.08.4.14.65.22-.08-1.07-.72-1.73-1.5-2.6.49.05.67.07 1 .11.31-1.55-.87-2.6-1.41-3.92l.82-.41c.57 1.39 1.19 2.68 2.77 3.29.21-.63.41-1.22.63-1.89.62.28 1.02.02 1.19-.62.94.88.94.88 1.74.46-.12-.32-.25-.64-.39-1 .35-.18.66-.34 1.1-.56.26.28.54.58.91.98.27-.05.64-.12 1.17-.21-.34-.45-.6-.8-.92-1.22.92-.31 1.68-.57 2.33.3.16.21.44.33.66.51.65.51.65.51.4 1.47 1.25-.48 1.46.7 2.17 1.2-.14-.32-.33-.63-.41-.96-.09-.37-.08-.76-.13-1.13-.03-.25-.02-.52-.12-.73-.33-.66-.34-1.01.18-1.45.38-.32.84-.54 1.38-.87l.31-1.04c.3.46.5.76.7 1.07.73.26.74-.6 1.24-.79.27.15.57.36.89.47.37.13.78.29 1.14.22.25-.05.49-.68.64-.65.81.2.27-.6.82-.81.24.06.68.16 1.17.28.19-.5 1.06-.12 1.38-1.04.1.21.18.58.31.59 1.03.12 1.51.9 2.12 1.58.27.3.54.46.53.95-.02.66.45 1.04 1.11 1.32.32-.93-.74-1.88.22-2.8.29.43.58.84.85 1.25.28.44.51.91.83 1.32.38.49.8.91.27 1.55-.05.06.08.4.11.4.21-.02.41-.1.72-.19.57 1.06 1.14 2.15 1.75 3.21.29.51.67.98.99 1.48.35.53.72 1.05 1.02 1.6.76 1.4 1.48 2.83 2.21 4.24.07.14.21.3.19.43-.16 1.24-.34 2.47-.51 3.68-1.75-.03-2.01.34-1.41 1.82.21.51.43 1.02.76 1.78-.76-.2-1.29-.34-1.89-.5-.1.82.76 1.78-.39 2.5-.16-.53-.22-1.08-.5-1.51-.26-.41-.74-.67-1.29-1.14-.01-.07-.07-.37-.14-.71-.15.04-.3.03-.35.09-.14.19-.37.52-.32.59.66.79.13 1.71.35 2.54l-1.28 1.16c-.69-.38-1.35-.73-2.07-1.12.1-.76-.19-1.24-1.08-1.27-.25-.01-.5-.32-.77-.52-.65.51.14 1.09-.1 1.63-.2.45-.21.99-.25 1.26-.42-.33-.98-.66-1.38-1.13-.35-.42-.51-1-.86-1.73-.53 1.19.19 1.91.35 2.8l-.97-.61c-.21.83-.16 1.44.28 2.11.52.79.77 1.71.38 2.78-.28-.13-.47-.3-.68-.31-.51-.04-1.09-.35-1.43.4-.09.2-.47.27-.77.42-.05.32-.1.67-.15 1.02-1.01-.23-1.1-1.24-1.65-2.06-.15.74-.27 1.31-.39 1.85-.83.34-1.6.62-2.43-.01-.13.37-.23.64-.4 1.13-.2-.43-.3-.65-.41-.89l-.91-.12c-.15-.35-.21-.74-.43-.97-.2-.2-.57-.23-.96-.37-.08.47-.15.86-.25 1.38-.73-.47-1.43-.7-1.67-1.61-.19-.72-.64-1.37-1.01-2.13-.4.36-.19.82-.22 1.2-.03.39-.01.79-.01 1.33-.29-.14-.48-.23-.78-.37.54 2 1.42 3.83 1.92 5.76-.1.04-.21.08-.31.11-.53-1.28-1.06-2.57-1.63-3.94-.3.23-.54.42-.89.69-.32-.66-.62-1.31-.96-2.03-.34.46-.6.82-.9 1.23.87.49 1.14 1.26 1.18 2.19.02.62.21 1.24.25 1.86.01.21-.2.44-.31.66-.16-.15-.38-.28-.46-.46-.21-.51-.35-1.05-.51-1.58.11.02.22.05.55.11-.36-.58-.11-1.28-.92-1.65.19.68.31 1.15.43 1.62zm-5.7-12.46c-.45-.79-.76-1.32-1.06-1.86-.61-1.1-.61-1.1-1.11-1.22.43.92.85 1.88 1.32 2.81.06.12.37.12.85.27zm27.78-19.81c-.06.04-.11.08-.17.11.06.37.13.75.19 1.13.29.05.54.09.92.15-.38-.55-.66-.97-.94-1.39zm-20.79 1.7c-.07.77.15 1.29.81 1.73.04-.76-.15-1.29-.81-1.73zm-6.22 29.68-.24.06c.11.3.22.61.33.91.06-.02.12-.04.18-.05-.1-.31-.19-.62-.27-.92zM82 94.74c.04-.36.08-.48.05-.57-.03-.1-.13-.17-.2-.26l-.15.09c.07.18.14.35.3.74zM246.62 161.03c.07.2.2.4.2.6-.01 2.01-.04 4.02-.08 6.03-.01.4-.11.79-.14 1.18-.03.42-.01.85-.05 1.28-.07.82-.15 1.64-.24 2.55-.34-.13-.54-.21-.81-.31-.06.62-.11 1.22-.19 2.09-.49-1.27-.13-2.29-.15-3.3-.01-.82.12-1.66.23-2.48.05-.38.16-.77.33-1.12.14-.28.27-.48-.05-.7-.06-.04-.09-.25-.06-.26.62-.4.31-.98.33-1.52.06-1.36.17-2.71.43-4.04h.25z"/><path d="M134.88 117.91c-.17.36-.39.84-.64 1.39-.53-.47-.52-1.19-.73-1.79-.39-1.06-.69-2.14-1.01-3.22-.1-.33.03-.54.53-.48 0 .2-.01.41 0 .62.02.18.01.4.11.52.59.71.99 1.41 1.3 2.3.09.25.29.45.44.66zM72.28 121.79c-.17-.7-.12-1.6-.55-2.04-.56-.57-.69-1.2-.89-1.86-.21-.68-.07-1.25.65-1.77.25.27.51.55.8.86-.78 1.12-.11 2.18.02 3.24.06.49.24.97.36 1.45-.13.05-.26.08-.39.12zM242.63 111.88c-.3-2.39-.73-4.76-.39-7.23.08.16.21.32.22.49.18 2.25.33 4.5.5 6.74h-.33zM246.75 159.35c-.5-.4-.69-.91-.61-1.46.16-1.08-.23-2.23.43-3.26.55 1.56.18 3.14.18 4.72zM134.33 137.79c-1.12-.37-1.12-.37-1.02-1.33.05-.46.05-.46-.54-.84.06-.42.11-.84.19-1.42 1 1.1.82 2.47 1.37 3.59zM139.56 180.91c-.15-.1-.43-.18-.44-.29-.1-1.26-.17-2.52-.15-3.8.58 1.32.33 2.74.59 4.09zM196.12 205.93c-.36-1.92-.29-2.21.75-2.5-.05.25-.03.52-.15.65-.35.37-.37.69-.13 1.14.2.38-.02.66-.47.71zM139.56 180.92c.24 1.35.43 2.7.21 4.07-.28-1.35-.78-2.68-.21-4.07 0-.01 0 0 0 0zM244.72 139.21c.28-.23.55-.45.95-.79.08.66.15 1.18.21 1.75-.89.16-.98-.41-1.16-.96zM223.49 134.55c.16-1.35.33-2.69.49-4.04.06.01.11.01.17.02-.1 1.35-.21 2.7-.31 4.04-.11-.01-.23-.01-.35-.02zM245.11 135.17c.2.65.79 1.27.25 2.07-1.01-.59-.04-1.42-.25-2.07zM225.03 124.01l-.42 3.45c-.1-.01-.19-.03-.29-.04l.51-3.46c.07.02.13.03.2.05zM155.49 211.61c0-1.13 0-1.13.82-1.62.08.68-.06 1.18-.82 1.62zM223.62 135.65c.24.68.19 1.36-.26 2.02v-2c.09-.01.18-.01.26-.02zM215.36 202.56c-.11.35-.18.57-.23.75-.45.14-.77-.31-.75-1.05.29.09.57.18.98.3zM203.17 204.29c-.83.27-.58.94-.6 1.61-.58-.97-.38-1.49.6-1.61zM112.79 217.65c.42.69-.12 1.3-.27 1.94v-1.93c.09-.01.18-.01.27-.01zM157.3 216.19l-.09 1.62-.3-.03.15-1.62c.08.02.16.03.24.03zM241.03 86.02v2.02c.15-.7-.52-1.35-.15-2.05.01-.01.07.01.15.03zM72.49 124.53c.01-.77-.18-1.32.4-1.9.12.69.37 1.26-.4 1.9zM169.08 46.68c-.39.04-.78.07-1.17.11-.02-.08-.03-.16-.05-.24.38-.08.77-.17 1.15-.25.03.12.05.25.07.38zM118.96 214.85c-.15-.42-.23-.64-.3-.86.18-.05.41-.21.52-.14.39.24.16.51-.22 1zM91.29 221.92c-.02.45-.04.75-.06 1.18-.56-.58-.56-.58.06-1.18zM170.38 203.64v1.31c-.57-.51-.69-.83 0-1.31zM245.8 157.86v1.33c-.07 0-.14-.01-.2-.01.04-.44.09-.89.13-1.33.02.01.05.01.07.01zM114.18 217.14c-.03-.25-.08-.5-.08-.74 0-.02.26-.05.4-.07v.79c-.11 0-.21.01-.32.02zM243.09 115.24c.51.33.36.65.19 1.09-.45-.37-.41-.68-.19-1.09zM242.53 90.05c.03.37.06.73.09 1.24-.5-.56-.5-.56-.09-1.24zM99.13 107.35c.54.32.66.66.43 1.26-.38-.39-.46-.74-.43-1.26zM155.84 215.32c-.45-.51-.45-.51-.32-1.12.15.22.29.36.34.51.04.16-.01.34-.02.61zM135.43 118.85c.35.29.43.55.15.83-.05.05-.26.03-.31-.02-.27-.28-.24-.55.16-.81zM138.98 103.49c-.14.06-.31.2-.42.16-.14-.04-.24-.23-.35-.35.12-.1.24-.26.38-.29.13-.03.29.07.44.12-.02.11-.03.23-.05.36zM199.84 205.4c-.13.35-.25.7-.39 1.09-.31-.5.17-.77.39-1.09zM238.12 72.21c-.56-.52-.35-.87-.21-1.22.05.33.11.65.21 1.22zM194.71 179.33c.06.56.1.89.14 1.21-.05 0-.09.01-.14.01v-1.22zM198.35 206.07c-.31-.23-.49-.37-.83-.62.43-.04.68-.06.99-.09-.05.23-.09.37-.16.71zM119.26 135.45l-.12-1.09c.08-.01.16-.02.24-.04.06.37.12.73.19 1.1l-.31.03zM241.06 89.55v1.14h-.14v-1.12c.04 0 .09-.01.14-.02zM138.61 171.41c.04.34.07.69.11 1.03-.07.01-.13.01-.2.02-.02-.34-.03-.69-.05-1.03.05-.01.1-.01.14-.02zM225.21 121.59c-.01.28-.03.55-.04.83h-.05v-.81c.02 0 .06-.01.09-.02zM137.83 165.31v-.63c.04-.01.09-.01.13-.02.04.21.09.42.13.63-.08.01-.17.02-.26.02zM111.46 215.74c.06.47.27.96-.23 1.49-.23-.64.12-1.05.23-1.49.02-.02 0 0 0 0zM132.48 132.52c.13.21.26.43.38.64-.04.04-.09.07-.13.11-.16-.19-.33-.37-.49-.56.08-.06.16-.12.24-.19zM97.77 221.24c.18-.07.37-.15.55-.22.03.07.05.14.08.2-.19.07-.37.14-.56.2-.02-.06-.05-.12-.07-.18zM244.44 112.88v.94c-.18-.13-.33-.19-.33-.25.01-.24.06-.49.1-.73.08.02.15.03.23.04zM132.89 116.82c.03.26.06.52.08.78-.07.01-.14.03-.21.04-.06-.25-.12-.5-.18-.76.11-.01.21-.04.31-.06zM134.39 154.68l-.15-.76c.07-.01.15-.02.22-.04l.12.77c-.07.01-.13.02-.19.03zM206.68 204.95c-.25.23-.43.4-.66.61.02-.52.02-.52.66-.61zM131.47 111.88c.11.21.21.42.32.62-.07.04-.15.09-.22.13-.12-.2-.24-.41-.36-.61.09-.05.17-.09.26-.14zM167.53 209.57c.15.29.29.57.44.86-.58-.11-.45-.51-.43-.88 0-.01-.01.02-.01.02zM139.99 186.15c.09.24.15.38.2.52-.11-.06-.22-.11-.31-.19-.02-.02.04-.13.11-.33zM225.59 119.03v-.53h.04v.53h-.04zM82.06 100.25l.09-.5c.07.1.17.19.22.3.02.04-.07.13-.1.2h-.21zM154.07 214.76c-.1.12-.17.19-.23.27-.06-.08-.14-.15-.17-.24-.01-.04.08-.18.11-.17.09.01.17.08.29.14zM78.88 262.42c-.21-.06-.34-.1-.47-.14.1-.05.21-.1.31-.13.02-.01.07.11.16.27z"/><path class="st0" d="M138.8 149.17c-.02-.25 0-.52-.08-.75-.11-.34-.26-.91-.44-.93-.86-.08-.72-.85-1.08-1.34.56-.18.89-.47.58-1.1-.13-.27-.24-.58-.25-.88-.01-.69-.25-1.23-.85-1.6.03-.41.58-.79.02-1.17-.06-.04-.16-.12-.16-.17.18-1.1-.67-2.22.15-3.42.18.21.47.4.47.58-.02 1.55.76 2.9 1.07 4.37.27 1.28.57 2.56.74 3.85.11.84.02 1.7.02 2.55-.05 0-.12 0-.19.01zM133.26 127.01c-.95-.96-1.1-2.09-1.38-3.17.95.79 1.69 1.67 1.38 3.17zM145.28 206.72c.74.49.95 1.31.52 1.9-.26.36-.67.33-.83-.09-.22-.61-.33-1.23.31-1.81zM221.72 173.4c.51 1.51.58 2.93.27 4.04-.49-.69-.24-1.39-.26-2.04-.03-.67-.01-1.34-.01-2zM134.16 130.31c-.31-.18-.6-.25-.64-.4-.17-.56-.28-1.14-.37-1.72-.02-.1.18-.34.25-.33.17.02.45.14.47.25.13.65.18 1.3.29 2.2zM149.82 168.27c-.09-1.03-.18-2.06-.29-3.24.27.13.48.18.49.24.02 1 .02 2 .02 3.01-.08-.01-.15-.01-.22-.01zM143.49 182.82c.12.56.25 1.11.42 1.88-.04.05-.21.3-.55.8v-2.69c.04 0 .08.01.13.01zM221.85 172.18c-.29-.87-.79-1.72-.13-2.7.45.93.14 1.83.13 2.7zM210.87 193.57c-.11.88-.2 1.66-.3 2.44-.45-1.55-.36-2.17.3-2.44zM129.65 124.01c-.28-.08-.57-.17-.96-.29-.07-.34-.14-.74-.22-1.13.07-.03.14-.05.2-.08.38.45.75.9 1.13 1.35l-.15.15zM198.11 181.99c.08-.64-.63-1.33.13-2.03.24.75.05 1.4-.13 2.03zM197.24 165.5v1.72c-.44-.63-.44-.63 0-1.72zM221.75 180.17c.06-.43.12-.87.17-1.3h.2c.02.46.05.91.07 1.37-.14-.03-.29-.05-.44-.07zM210.35 153.11c-.06-.54-.95-1.09.08-1.69-.03.61-.06 1.15-.08 1.69zM150.4 181.84c.1.54.21 1.07.36 1.85-.91-.62-.4-1.28-.65-1.78.09-.03.19-.05.29-.07zM144.35 191.12c-.14-.43-.25-.79-.38-1.18.62.14.62.14.38 1.18zM137.89 184.18l.3 1.81-.18.03c-.08-.6-.17-1.21-.25-1.81.04-.02.08-.03.13-.03zM204.39 203.2c.18-.57.29-.88.39-1.21.57.49.57.51-.39 1.21zM204.27 178.63c-.02.31-.04.62-.08 1.07-.58-.45-.39-.77-.19-1.08.09 0 .18.01.27.01zM159.54 208.63c-.2.24-.39.47-.68.81-.07-.7-.07-.7.68-.81zM137.21 128.31c.02-.29.05-.58.07-.87l.22-.03.32 1.17c-.32-.15-.48-.23-.63-.3-.01 0 .02.03.02.03zM150.26 212.39c-.14-.48-.23-.79-.33-1.16.55.39.55.39.33 1.16zM140.82 142.43c.18-.3.35-.6.67-1.12 0 .68.04 1.08-.67 1.12zM141.69 149.4c-.16.17-.32.34-.48.52-.06-.05-.13-.1-.19-.15.15-.19.3-.38.44-.57.08.05.15.13.23.2zM208.65 147.31l-.06.65-.24-.03.09-.64c.07 0 .14.01.21.02zM204.52 186.44c-.01.18-.02.37-.05.55 0 .02-.19 0-.29 0l.12-.59c.08.01.15.02.22.04zM221.83 194.59c-.06.26-.11.52-.17.79-.05 0-.09 0-.14-.01-.01-.15-.04-.31-.02-.46.02-.13.09-.25.14-.37.07.02.13.03.19.05zM149.15 204.8c-.14.08-.26.21-.33.18-.11-.03-.18-.17-.26-.27.08-.07.16-.19.24-.19.09.02.18.14.35.28zM167.57 208.27c-.13.1-.22.19-.34.24-.02.01-.18-.17-.17-.21.05-.12.16-.21.25-.31.07.07.14.14.26.28zM133.97 146.33l.06.65c-.06.01-.12.02-.17.03-.06-.21-.12-.42-.18-.64.1-.01.19-.03.29-.04zM208.57 154.19c-.03.2-.07.39-.1.59-.07-.01-.14-.03-.21-.04.04-.2.08-.39.11-.59.07.02.13.03.2.04zM135.82 139.97c.08.16.17.33.25.49l-.12.09c-.11-.15-.22-.3-.33-.44l.2-.14zM129.96 117.6v.65c-.07 0-.14.01-.21.01-.01-.22-.03-.43-.04-.65.09 0 .17 0 .25-.01zM198.88 195.69c.04-.16.07-.31.11-.47.07.02.2.05.2.06-.03.15-.07.31-.11.46-.07-.01-.13-.03-.2-.05zM222.13 189.53c-.14-.15-.28-.26-.27-.29.06-.12.16-.21.26-.3.01-.01.16.09.15.12-.02.13-.07.26-.14.47zM141.9 155.04c.03-.04.06-.09.09-.13.02.03.06.06.06.09 0 .06-.02.13-.03.19a.983.983 0 0 1-.12-.15zM138.83 152.7c-.01.14-.01.28-.04.41 0 .01-.17.01-.17 0-.03-.13-.04-.26-.05-.39.09-.01.17-.02.26-.02zM85.97 186.62c-.4-.42-.82-.78-1.12-1.22-.15-.22-.22-.67-.1-.89.46-.84.34-1.67.16-2.53-.03-.12.05-.26.1-.47.6 1 1.13 3.87.96 5.11zM76.77 140.33c-.16-.25-.32-.39-.33-.55-.13-1.51-.98-2.89-.81-4.53.71.77 1.36 3.66 1.14 5.08zM83.21 176.55c1.52.94 1.56 1.01 1.47 2.53-1.41-1.01-1.42-1.02-1.47-2.53zM82.86 173.42c.17.21.35.41.53.62.13-.07.28-.16.52-.3v1.05c-.26.13-.56.28-.95.47l-.43-1.73c.11-.03.22-.07.33-.11zM73.44 130.56l.66-1.26c.29.17.49.23.6.37.35.43.18.87-.35.91-.31.02-.63-.04-.94-.06l.03.04zM81.36 164.83c.69.73.39 1.49.38 2.25-.39-.37-.59-1.5-.38-2.25zM92.11 217.68c-.71-.26-.54-.73-.39-1.15.03-.08.31-.16.4-.11.14.08.33.28.31.41-.04.28-.19.55-.32.85zM89.43 110.3c.11.5.18.8.27 1.23-.53-.46-.53-.46-.27-1.23zM82.87 170.54c-.09-.33-.44-.64.04-1.19.08.49.14.82.19 1.16l-.23.03zM111.61 215.12c-.07.03-.14.1-.21.09-.17-.02-.33-.07-.49-.11.05-.13.09-.26.14-.39.16.08.32.14.46.23.05.03.05.14.07.21 0 .01.03-.03.03-.03zM74.86 131.85c.07.18.14.36.21.55-.06.03-.13.06-.19.09-.1-.17-.19-.35-.29-.52l.27-.12zM84.58 117.39v.75c-.01 0-.03.01-.04.01-.03-.25-.05-.5-.08-.75.04 0 .08 0 .12-.01zM73.91 87.29c-.48-.15-.79-.15-.85-.28-.47-.93-.89-1.88-1.32-2.81.49.13.49.13 1.11 1.22.3.55.61 1.08 1.06 1.87zM101.69 67.48c.28.42.57.84.94 1.4-.39-.06-.63-.1-.92-.15-.07-.38-.13-.76-.19-1.13.06-.04.11-.08.17-.12zM80.9 69.18c.66.44.85.97.81 1.73-.66-.44-.88-.95-.81-1.73zM77.64 81.14c.11.32.23.65.34.97.09.27.17.55.29.96-.87-.51-.91-.68-.63-1.93.01-.01 0 0 0 0zM79.61 99.75l-.4-1.57c.82.37.57 1.07.92 1.65-.33-.07-.44-.09-.55-.11l.03.03zM74.68 98.86c.09.3.17.61.26.91-.06.02-.12.04-.18.05-.11-.3-.22-.61-.33-.91.08-.01.17-.03.25-.05zM82 94.74l-.3-.73.15-.09c.07.09.17.16.2.26.03.09-.01.2-.05.56z"/></svg>