<svg version="1.1" id="Vrstva_1" xmlns="http://www.w3.org/2000/svg" x="0" y="0" viewBox="0 0 201.6 162.72" style="enable-background:new 0 0 201.6 162.72" xml:space="preserve"><style>.st0{fill:#fff}</style><path d="m136.55 142.88.34.25a.585.585 0 0 1-.02-.13h-3.61c-.62 0-1.24.05-1.87.04-.55-.01-1.11-.2-1.63-.1-1.96.38-3.93.17-5.89.21-1.22.02-2.49-.12-3.63.21-.85.24-1.47-.48-2.23-.14-.24.11-.54.1-.81.09-.41-.02-.82-.11-1.24-.15-.15-.01-.31.05-.46.03-.39.05-.8.03-1.16.17-.47.18-.89.32-1.25-.16-.55.49-.76.48-1.08-.08-.16.71-.73.55-1.17.58-1.42.11-2.86.12-4.28.28-.95.11-1.87.4-2.81.61-.17.04-.35.13-.52.11-1.77-.23-3.51.03-5.27.22-.86.1-1.74.38-2.64.05-.21-.08-.51.11-.77.17-.1.02-.2.05-.3.04-1.06-.08-2.1.23-3.17.17-1.2-.06-2.4.11-3.61.16-.79.03-1.59-.01-2.38.02-1.17.05-2.34.14-3.51.2-.72.04-1.44.06-2.15.07-2.91.05-5.82.09-8.74.14-2.41.04-4.82.09-7.24.13-2.61.05-5.22.08-7.83.14-1.27.03-2.53.12-3.79.2-.8.05-1.6.15-2.41.2-.23.01-.47-.1-.7-.1-.56.01-1.11.1-1.67.09-1.73-.03-3.46-.09-5.19-.12-.79-.01-1.58.05-2.37.04-1.76-.01-3.52-.06-5.28-.06-1.31 0-2.62.04-3.93.07-.1 0-.21.03-.3 0-1.41-.37-2.81-.02-4.21.07-.1.01-.25.05-.29 0-.73-.87-1.72-.48-2.68-.57-.02-.27-.04-.54-.07-.82-.25-.01-.58-.03-.76-.04-.57-.83-.05-1.9-1.03-2.53-.58-.38-.31-1.13-.22-1.67.13-.76 0-1.42-.34-2.07-.33-.63-.32-1.27-.05-1.9.37-.84.23-1.7.14-2.56-.01-.1-.08-.2-.07-.29.16-.79.37-1.57.5-2.36.07-.43.03-.88-.02-1.31-.23-2.22-.49-4.44-.71-6.67-.22-2.28-.43-4.56-.6-6.84-.03-.37.22-.76.22-1.14 0-1.81-.08-3.62-.06-5.43.05-3.87.16-7.74.21-11.61.02-1.79-.03-3.59-.04-5.38 0-.4.09-.8.03-1.19-.14-.86-.42-1.71-.5-2.57-.13-1.35-.15-2.71-.22-4.07l-.33-5.8c-.08-1.34-.06-2.68-.25-4-.16-1.09-.22-2.18-.27-3.28-.07-1.27-.06-2.55-.1-3.82-.06-1.63-.15-3.26-.22-4.89-.05-1.15-.07-2.29-.11-3.44-.07-2.19-.15-4.39-.22-6.58-.04-1.24-.05-2.47-.14-3.71-.1-1.23-.29-2.45-.43-3.67-.03-.27-.02-.55-.03-.83-.03-1.02-.03-2.05-.09-3.07-.06-.93-.2-1.86-.27-2.79-.01-.16.18-.34.28-.5.03-.04.13-.05.14-.1.42-1.29 1.87-1.79 2.21-3.07 1.13.15 1.35-.09 1.04-1.1-.15-.5-.06-.84.29-1.24.43-.5.71-1.13 1.08-1.69.12-.18.31-.46.47-.46.8 0 1.24-.68 1.88-.92 1.04-.4 1.96-1.13 3.14-1.16 2.2-.05 4.41-.09 6.61-.2 1.3-.06 2.6-.27 3.91-.33 1.01-.05 2.03.03 3.04.05.83.02 1.67.06 2.5.05 1.97-.02 3.94-.08 5.91-.1.88-.01 1.75.05 2.63.08 1.37.06 2.73.15 4.1.19 1.89.05 3.79.02 5.68.08 2.19.07 4.37.2 6.56.29.85.03 1.69.02 2.54.04 2.14.05 4.28.11 6.42.15 2.11.04 4.22.05 6.33.1 1.36.04 2.72.17 4.09.19.91.01 1.83-.1 2.75-.14 1.29-.06 2.58-.1 3.87-.17 1.59-.08 3.18-.2 4.77-.26 1.55-.06 3.11-.05 4.66-.07.92-.01 1.83-.07 2.75-.04 1.48.03 2.97.13 4.45.17.63.02 1.26-.05 1.89-.04 1.67.04 3.34.14 5.01.14 2.81.01 5.62-.03 8.44-.05 1.93-.01 3.86-.01 5.79-.04 1.65-.03 3.31-.11 4.96-.13 1.53-.01 3.07.05 4.6.05 1.65 0 3.31-.04 4.96-.06 1.22-.02 2.43-.02 3.65-.05 2.53-.06 5.07-.07 7.6-.2 2.04-.1 4.08-.34 6.12-.53 1.44-.14 2.87-.38 4.31-.43.63-.02 1.26.09 1.88-.09.08-.02.24.12.31.22.19.31.34.66.54.97.07.11.24.2.37.23.33.07.71.02.83.48.01.05.13.11.19.11.54.02 1.09.01 1.63.04.16.01.31.17.47.19.22.03.61.05.64-.03.28-.72.95-.42 1.4-.5.81-.14 1.59.26 2.27.68.32.2.48.7.66 1.09.2.43.26.94.87 1 .06.01.15.07.18.13.38.75.74 1.52 1.14 2.26.15.27.47.45.6.72.22.47.5.99.51 1.49.02 1.33-.09 2.67-.16 4.01-.16 3.15-.32 6.3-.51 9.45-.16 2.53-.41 5.06-.55 7.59-.12 2.21-.12 4.43-.22 6.64-.17 3.53-.35 7.05-.61 10.57-.13 1.79-.44 3.56-.66 5.34-.2 1.62-.44 3.25-.54 4.88-.15 2.54-.2 5.09-.29 7.63-.07 2.07-.16 4.14-.18 6.21-.02 2.41.07 4.83.05 7.24-.02 2.47-.14 4.93-.2 7.4-.04 1.78-.05 3.55-.05 5.33 0 .99.11 1.97.07 2.96-.03.91-.23 1.81-.28 2.72-.05 1.07-.01 2.15-.02 3.23-.01.56-.02 1.12-.06 1.68-.02.29-.01.62-.45.7-.08.01-.1.34-.15.53-.24.09-.49.16-.71.27-.36.18-.64.1-.89-.2-.42-.51-.83-.45-1.1.12-.05.11-.19.18-.27.29-.18.24-.34.48-.51.72.03.05.06.09.09.14-.29 0-.6-.05-.88.02-.21.05-.54.23-.56.38-.03.21-.07.64.42.6.08-.01.17.17.3.3-.17.07-.29.1-.37.17-.08.07-.11.19-.17.29.1.04.2.12.3.13.25.01.51-.02.81-.03-.12.78-.81.78-1.23 1.11.11.66-.03.87-.71 1.1.03.64.39.77 1.54.54-.05.13-.1.25-.17.45.31-.04.55-.06.78-.09.01.03.01.06.02.09-.45.17-.99.23-1.33.53-.43.39.01.92.1 1.37.08.4.8.42 1.48.1.05.3.06.31-.76.66-.34.14-.7.22-1.07.45.48.03.96.05 1.44.08.02.07.03.13.05.2-.54.15-1.1.27-1.63.47-.57.21-1.11.51-1.68.74-.27.11-.58.13-.87.22-.29.09-.69.15-.82.36-.38.64-.93.7-1.54.58-.73-.14-1.41-.12-2.14.09-.56.16-1.18.16-1.81.11-.69-.06-1.41.17-2.11.29-.31.05-.61.16-.92.2-.45.05-.91.04-1.36.09-.81.09-1.14-.34-.78-1.23-.59.13-1.11.24-1.64.36-.01.42-.52.79-.66.52-.43-.78-1.24-.06-1.72-.54-.07-.07-.33.08-.51.09a.991.991 0 0 1-.45-.07c-.88-.41-1.79-.36-2.72-.26-.64.07-1.29.08-1.94.07-.4-.01-.52-.01-1.1.32-.07.04-.19-.02-.29-.02-.15 0-.29.01-.44.01-.13 0-.27.02-.4-.01-.34-.09-.68-.28-1.02-.28-1.33-.01-2.66.05-3.99.07-.15 0-.29-.1-.45-.12-.48-.05-1.15-.29-1.39-.07-.51.46-1.01.24-1.48.23-.42-.02-.83-.29-1.26-.41-.26-.08-.54-.09-.8-.13.05.02.03.07.01.11zm3.3-26.27c-.04.02-.08.05-.12.07-.59-.97-1.18-1.95-1.75-2.93-.06-.11.04-.32-.03-.42-.28-.38-.63-.71-.89-1.1-.67-.99-1.07-2.15-1.95-3.01-.05-.05-.08-.14-.12-.21-.38-.59-.75-1.17-1.14-1.75-.33-.5-.87-.94-.98-1.48-.11-.58-.54-.86-.77-1.3-.13-.25-.48-.37-.67-.6-.54-.66-.79-1.53-1.51-2.07-.05-.03-.07-.1-.1-.15-.77-1.29-1.56-2.58-2.3-3.88-.9-1.59-1.73-3.22-2.65-4.8-.53-.92-1.16-1.79-1.76-2.67-.43-.62-.88-1.23-1.33-1.83-.2-.27-.39-.45-.77-.17-.83.61-1.7 1.17-2.57 1.72-.81.52-1.64 1-2.46 1.5-1.15.71-2.26 1.51-3.47 2.1-2.02.99-3.87 2.27-5.79 3.42-.09.06-.08.29-.11.41-.14-.02-.36-.12-.46-.05-.85.61-1.68 1.25-2.63 1.96.36.17.61.29.88.42-.1.14-.18.26-.18.26-.5-.12-.93-.22-1.49-.35.12.33.17.46.28.75-.71-.58-1.05-.03-1.54.18.14-.19.28-.37.49-.64-.33-.06-.59-.11-.84-.15.06-.43.06-.43-.45-.54-.11-.03-.22-.09-.33-.14-.56-.27-1.13-.49-1.77-.29-.14.04-.37.06-.45-.02-.41-.38-.78-.33-1.11.03-.12-.27-.18-.54-.34-.72-.27-.29-.62-.51-.93-.76-1-.81-2-1.63-3.01-2.42-.29-.23-.63-.53-.97-.55-.6-.04-.99-.29-1.37-.72-.33-.37-1.05-.36-.94-1.18.03-.24-.5-.59-.82-.83-1.04-.76-2.11-1.47-3.15-2.22-.61-.44-1.21-.89-1.79-1.36-.67-.55-1.31-1.15-1.99-1.7-.14-.11-.47-.19-.55-.11-.54.49-1.21.91-1.29 1.81.2.08.41.16.78.3-.79.86-1.53 1.67-2.28 2.48.24.26.4.45.55.62-.04.09-.05.14-.08.16-.8.62-1.32 1.55-2.27 2-.08.04-.19.11-.21.19-.2.66-.67 1.12-1.13 1.59-.85.84-1.71 1.66-2.56 2.49-.28.27-.56.55-.8.86-.38.48-.69 1.03-1.11 1.47-2.03 2.15-4.1 4.27-6.13 6.43-.8.85-1.55 1.74-2.28 2.64-.56.69-1.03 1.46-1.6 2.14-.76.89-1.57 1.73-2.38 2.58-.94.99-1.88 1.98-2.85 2.93-1.06 1.05-2.2 2.02-3.23 3.09-1.2 1.25-2.31 2.58-3.47 3.88-.7.79-1.42 1.57-2.1 2.37-.14.16-.25.47-.18.64.06.14.39.22.6.23 1.97.07 3.94.11 5.91.17.37.01.75.03 1.12.02.79-.04 1.59-.13 2.38-.14 1.07-.02 2.14.05 3.21.02 1.51-.04 3.01-.17 4.51-.21 1.09-.02 2.17.06 3.26.07.39.01.78-.08 1.17-.06 1.15.04 2.3.11 3.44.17.55.03 1.09.07 1.64.1.23.02.47.06.7.06.92-.01 1.83-.07 2.75-.03.83.04 1.66.26 2.19-.35.4.14.67.3.97.34.35.04.71-.02 1.07-.03 2.41-.05 4.82-.09 7.24-.17.99-.03 1.98-.16 2.97-.18 1.45-.03 2.9.06 4.35-.01 3.23-.16 6.45-.41 9.68-.58 5.68-.3 11.36-.61 17.04-.85 4.15-.18 8.3-.28 12.45-.37 2.77-.06 5.55-.02 8.33-.05.87-.01 1.74-.08 2.73-.13-2.51-3.51-4.94-6.9-7.36-10.29-.04.02-.07.04-.11.07.33.6.7 1.22 1.08 1.83zM57.88 47.52c-.02.06-.05.12-.07.18.47.35.94.71 1.41 1.06 2.67 1.98 5.32 4 8.02 5.94 3.16 2.27 6.37 4.47 9.55 6.7 1.3.92 2.58 1.86 3.88 2.78 1.38.97 2.78 1.91 4.15 2.9 1.38 1.01 2.72 2.08 4.09 3.09 1.52 1.12 3.07 2.19 4.58 3.33 2.34 1.76 4.63 3.57 6.97 5.33 1.3.99 2.66 1.9 3.96 2.89.74.56.95.59 1.67.04.18-.14.42-.21.62-.34.95-.65 1.87-1.34 2.84-1.97 2.56-1.68 5.15-3.33 7.71-5.02 1.09-.72 2.13-1.53 3.22-2.25.98-.65 2.01-1.2 3-1.84 1.21-.78 2.38-1.61 3.59-2.38 1.17-.75 2.38-1.45 3.55-2.2 1.71-1.08 3.42-2.19 5.13-3.28 1.58-1 3.19-1.95 4.73-3.01 1.88-1.3 3.68-2.71 5.55-4.03 1.61-1.14 3.28-2.21 4.9-3.34 1.15-.8 2.29-1.61 3.39-2.47.59-.46 1.09-1.05 1.61-1.58.18-.19.33-.41.6-.74-.48 0-.79-.01-1.11 0-2.73.06-5.46.14-8.2.17-3.25.04-6.5.01-9.76.04-5.19.06-10.38.14-15.57.22-1.23.02-2.46.17-3.68.15-2.07-.03-4.14-.17-6.21-.2-2.03-.03-4.07.04-6.1.05-1.75.01-3.5-.03-5.25-.02-2.11.01-4.22.02-6.33.1-2.57.1-5.13.3-7.7.42-1.27.06-2.55.11-3.82.07-1.95-.06-3.89-.24-5.84-.29-3.99-.12-7.98-.18-11.96-.27-2.39-.07-4.75-.16-7.12-.23zm-19.49 67.94c.18-.15.24-.18.27-.22.71-.86 1.38-1.74 2.12-2.57.71-.8 1.5-1.54 2.24-2.31 1.3-1.36 2.58-2.76 3.91-4.09 1.15-1.15 2.39-2.2 3.55-3.35 1.37-1.36 2.68-2.78 4.02-4.16.89-.91 1.78-1.82 2.69-2.7.71-.69 1.51-1.3 2.2-2 .97-1 1.89-2.05 2.83-3.09 1.27-1.41 2.52-2.84 3.79-4.26 1.24-1.38 2.49-2.75 3.74-4.11.33-.36.68-.73 1.09-.99.58-.38 1.22-.66 1.88-1.01-.15-.17-.21-.27-.3-.34-1.17-.89-2.33-1.81-3.54-2.67-1.95-1.39-3.91-2.75-5.89-4.1-1.88-1.29-3.55-2.89-5.73-3.73-.12-.05-.2-.18-.29-.29-.89-1.03-1.91-1.88-3.26-2.23a.916.916 0 0 1-.31-.16c-.41-.29-.81-.6-1.22-.88-1.08-.75-2.18-1.46-3.23-2.23-1.42-1.05-2.83-2.12-4.21-3.23-1.88-1.52-3.73-3.08-5.59-4.62-.56-.46-1.13-.91-1.78-1.43-.02.22-.03.31-.03.4.03 2.26.05 4.51.08 6.77.02.99.04 1.97.09 2.95.06 1.19.16 2.38.24 3.57 0 .06-.02.12-.03.18-.07.94-.18 1.88-.19 2.82-.01 1.04.08 2.09.09 3.13.01.71-.07 1.42-.04 2.13.12 2.59.29 5.17.4 7.76.13 2.95.28 5.91.31 8.86.04 3.43-.04 6.87-.06 10.3-.02 2.93-.06 5.86-.05 8.79 0 .99.13 1.98.21 3.11zm124.03-55.83c-.08-.03-.16-.07-.24-.1-.63.49-1.29.96-1.89 1.48-.75.65-1.4 1.43-2.19 2.01-1.5 1.11-3.08 2.13-4.62 3.18-1.42.96-2.86 1.88-4.25 2.87-1.12.79-2.15 1.69-3.27 2.47-.95.67-1.97 1.24-2.96 1.86-2.27 1.44-4.52 2.88-6.79 4.32-.56.36-.61.59-.2 1.14.57.75 1.18 1.48 1.69 2.27.9 1.41 1.74 2.85 2.6 4.29.72 1.21 1.4 2.44 2.16 3.62.85 1.32 1.77 2.6 2.68 3.88.55.78 1.12 1.54 1.72 2.29.6.77 1.26 1.49 1.86 2.26.25.33.38.75.62 1.09.52.74 1.11 1.43 1.62 2.18.6.88 1.12 1.82 1.72 2.71.62.91 1.31 1.78 1.96 2.68.35.48.64 1.01 1 1.48.87 1.12 1.77 2.21 2.65 3.33.56.72 1.1 1.47 1.71 2.3.06-.56.15-.97.15-1.38.02-2.34.01-4.69.01-7.03 0-.63 0-1.26-.01-1.9 0-.29-.04-.58-.03-.87.02-.36.1-.71.11-1.06.06-1.67.1-3.35.15-5.03.06-1.8.16-3.61.21-5.41.03-1.17-.03-2.34-.02-3.51.01-.63.1-1.26.09-1.88 0-.58.37-1.13.02-1.74-.11-.19.09-.54.11-.81.13-1.68.16-3.36.41-5.04.26-1.77.34-3.58.47-5.37.09-1.25.14-2.51.22-3.76.04-.57.11-1.13.14-1.7.05-.76.06-1.52.11-2.28.08-1.64.18-3.24.28-4.84zm-22.09 82.87c0 .06.01.12.01.18h2.01v-.18h-2.02z"/><path d="M175.17 134.11c-.37-.21-.61-.33-.83-.48-.08-.05-.14-.17-.15-.27 0-.05.14-.17.19-.16.2.04.46.07.57.21.14.14.14.4.22.7z"/><path class="st0" d="M139.85 116.61c-.37-.62-.74-1.23-1.11-1.85.04-.02.07-.04.11-.07 2.43 3.39 4.85 6.79 7.36 10.29-.99.05-1.86.12-2.73.13-2.78.03-5.55-.01-8.33.05-4.15.09-8.3.19-12.45.37-5.68.24-11.36.55-17.04.85-3.23.17-6.45.42-9.68.58-1.45.07-2.9-.02-4.35.01-.99.02-1.98.15-2.97.18-2.41.07-4.82.11-7.24.17-.36.01-.72.07-1.07.03-.29-.04-.57-.19-.97-.34-.53.61-1.36.39-2.19.35-.91-.04-1.83.02-2.75.03-.23 0-.47-.05-.7-.06-.55-.04-1.09-.07-1.64-.1-1.15-.06-2.3-.13-3.44-.17-.39-.01-.78.07-1.17.06-1.09-.02-2.17-.1-3.26-.07-1.51.03-3.01.17-4.51.21-1.07.03-2.14-.04-3.21-.02-.79.01-1.59.1-2.38.14-.37.02-.75-.01-1.12-.02-1.97-.05-3.94-.1-5.91-.17-.21-.01-.54-.09-.6-.23-.07-.16.05-.47.18-.64.68-.81 1.4-1.58 2.1-2.37 1.15-1.3 2.27-2.63 3.47-3.88 1.03-1.08 2.17-2.05 3.23-3.09.97-.96 1.91-1.95 2.85-2.93.81-.85 1.62-1.69 2.38-2.58.58-.68 1.04-1.45 1.6-2.14.73-.9 1.48-1.8 2.28-2.64 2.03-2.16 4.1-4.27 6.13-6.43.42-.44.72-.99 1.11-1.47.24-.31.52-.59.8-.86.85-.84 1.71-1.66 2.56-2.49.47-.46.94-.92 1.13-1.59.02-.08.13-.16.21-.19.95-.44 1.47-1.38 2.27-2 .03-.02.03-.07.08-.16-.15-.17-.32-.35-.55-.62.74-.81 1.49-1.62 2.28-2.48-.36-.14-.58-.22-.78-.3.08-.9.75-1.32 1.29-1.81.09-.08.42 0 .55.11.68.55 1.32 1.15 1.99 1.7.58.47 1.18.93 1.79 1.36 1.05.75 2.11 1.47 3.15 2.22.32.23.86.59.82.83-.11.82.61.81.94 1.18.38.43.77.67 1.37.72.33.02.67.32.97.55 1.01.8 2.01 1.62 3.01 2.42.31.25.66.47.93.76.16.17.22.45.34.72.33-.36.71-.41 1.11-.03.09.08.31.07.45.02.64-.2 1.21.01 1.77.29.11.05.21.12.33.14.52.11.52.11.45.54.25.05.5.09.84.15-.21.27-.35.46-.49.64.49-.22.83-.76 1.54-.18-.1-.28-.15-.42-.28-.75.56.13.99.23 1.49.35 0 0 .08-.12.18-.26-.27-.13-.51-.24-.88-.42.95-.71 1.78-1.35 2.63-1.96.1-.07.32.03.46.05.03-.12.02-.35.11-.41 1.93-1.15 3.77-2.43 5.79-3.42 1.21-.59 2.32-1.4 3.47-2.1.82-.5 1.65-.99 2.46-1.5.87-.55 1.74-1.11 2.57-1.72.39-.29.57-.1.77.17.45.61.9 1.21 1.33 1.83.6.88 1.23 1.75 1.76 2.67.92 1.58 1.75 3.21 2.65 4.8.74 1.31 1.53 2.59 2.3 3.88.03.05.05.12.1.15.72.53.97 1.41 1.51 2.07.19.23.54.35.67.6.23.45.66.72.77 1.3.1.54.64.98.98 1.48.39.58.76 1.17 1.14 1.75.04.07.07.15.12.21.87.86 1.27 2.03 1.95 3.01.26.39.61.72.89 1.1.07.1-.03.31.03.42.57.98 1.16 1.95 1.75 2.93.06 0 .1-.02.15-.05zM57.88 47.52c2.37.07 4.73.15 7.1.21 3.99.1 7.98.16 11.96.27 1.95.06 3.89.23 5.84.29 1.27.04 2.55-.01 3.82-.07 2.57-.12 5.13-.32 7.7-.42 2.11-.08 4.22-.09 6.33-.1 1.75-.01 3.5.03 5.25.02 2.03-.01 4.07-.08 6.1-.05 2.07.03 4.14.17 6.21.2 1.23.02 2.46-.13 3.68-.15 5.19-.09 10.38-.17 15.57-.22 3.25-.04 6.5-.01 9.76-.04 2.73-.03 5.46-.11 8.2-.17.31-.01.63 0 1.11 0-.26.33-.41.55-.6.74-.53.54-1.03 1.12-1.61 1.58-1.1.86-2.24 1.68-3.39 2.47-1.62 1.13-3.29 2.2-4.9 3.34-1.87 1.32-3.67 2.74-5.55 4.03-1.54 1.06-3.15 2.01-4.73 3.01-1.71 1.09-3.41 2.2-5.13 3.28-1.18.74-2.38 1.44-3.55 2.2-1.21.78-2.38 1.61-3.59 2.38-.99.63-2.02 1.19-3 1.84-1.09.72-2.12 1.53-3.22 2.25-2.56 1.69-5.15 3.34-7.71 5.02-.96.63-1.89 1.32-2.84 1.97-.19.13-.43.2-.62.34-.72.55-.93.51-1.67-.04-1.3-.99-2.66-1.9-3.96-2.89-2.33-1.76-4.63-3.57-6.97-5.33-1.51-1.14-3.06-2.21-4.58-3.33-1.37-1.02-2.71-2.09-4.09-3.09-1.36-.99-2.77-1.93-4.15-2.9-1.3-.92-2.58-1.86-3.88-2.78-3.18-2.24-6.39-4.43-9.55-6.7-2.7-1.94-5.35-3.96-8.02-5.94-.47-.35-.94-.7-1.41-1.06.05-.04.07-.1.09-.16zM38.39 115.46c-.08-1.13-.2-2.12-.21-3.11-.01-2.93.03-5.86.05-8.79.03-3.43.1-6.87.06-10.3-.03-2.95-.19-5.91-.31-8.86-.11-2.59-.28-5.17-.4-7.76-.03-.71.05-1.42.04-2.13-.02-1.04-.11-2.09-.09-3.13.01-.94.12-1.88.19-2.82 0-.06.03-.12.03-.18-.08-1.19-.17-2.38-.24-3.57-.05-.98-.08-1.97-.09-2.95-.04-2.26-.06-4.51-.08-6.77 0-.09.01-.19.03-.4.65.52 1.22.97 1.78 1.43 1.86 1.54 3.71 3.11 5.59 4.62 1.38 1.11 2.78 2.18 4.21 3.23 1.05.78 2.16 1.49 3.23 2.23.41.29.81.59 1.22.88.09.07.2.13.31.16 1.36.35 2.37 1.2 3.26 2.23.09.1.17.24.29.29 2.18.84 3.85 2.44 5.73 3.73 1.97 1.35 3.94 2.71 5.89 4.1 1.2.86 2.36 1.77 3.54 2.67.09.07.15.17.3.34-.66.35-1.3.64-1.88 1.01-.41.26-.75.63-1.09.99-1.26 1.36-2.5 2.73-3.74 4.11-1.27 1.41-2.52 2.84-3.79 4.26-.93 1.04-1.85 2.09-2.83 3.09-.69.71-1.49 1.32-2.2 2-.92.88-1.81 1.79-2.69 2.7-1.35 1.38-2.66 2.8-4.02 4.16-1.15 1.15-2.4 2.2-3.55 3.35-1.33 1.33-2.6 2.73-3.91 4.09-.74.77-1.52 1.51-2.24 2.31-.74.83-1.41 1.71-2.12 2.57-.04.04-.09.07-.27.22zM162.42 59.63c-.1 1.6-.2 3.21-.29 4.81-.04.76-.06 1.52-.11 2.28-.03.57-.11 1.13-.14 1.7-.08 1.25-.13 2.51-.22 3.76-.13 1.79-.21 3.6-.47 5.37-.25 1.68-.27 3.36-.41 5.04-.02.28-.22.63-.11.81.35.61-.03 1.17-.02 1.74 0 .63-.09 1.26-.09 1.88-.01 1.17.04 2.34.02 3.51-.04 1.81-.14 3.61-.21 5.41-.06 1.67-.1 3.35-.15 5.03-.01.36-.09.71-.11 1.06-.01.29.03.58.03.87.01.63.01 1.26.01 1.9 0 2.34 0 4.69-.01 7.03 0 .41-.09.83-.15 1.38-.61-.83-1.15-1.57-1.71-2.3-.87-1.12-1.78-2.21-2.65-3.33-.36-.47-.65-1-1-1.48-.65-.9-1.33-1.77-1.96-2.68-.6-.88-1.12-1.82-1.72-2.71-.51-.75-1.09-1.44-1.62-2.18-.24-.34-.37-.76-.62-1.09-.6-.77-1.25-1.5-1.86-2.26a65.1 65.1 0 0 1-1.72-2.29c-.91-1.28-1.82-2.56-2.68-3.88-.76-1.18-1.43-2.42-2.16-3.62-.86-1.43-1.7-2.88-2.6-4.29-.51-.79-1.12-1.52-1.69-2.27-.41-.55-.36-.78.2-1.14 2.27-1.44 4.52-2.88 6.79-4.32.98-.62 2-1.19 2.96-1.86 1.12-.78 2.16-1.68 3.27-2.47 1.4-.99 2.84-1.91 4.25-2.87 1.55-1.05 3.12-2.07 4.62-3.18.79-.59 1.44-1.36 2.19-2.01.6-.52 1.26-.99 1.89-1.48.09.06.17.09.25.13zM140.33 142.5h2.02v.18h-2.01c0-.06-.01-.12-.01-.18z"/></svg>