<?xml version="1.0" encoding="utf-8"?>
<!-- Generator: Adobe Illustrator 26.5.0, SVG Export Plug-In . SVG Version: 6.00 Build 0)  -->
<svg version="1.1" id="Vrstva_1" xmlns="http://www.w3.org/2000/svg" xmlns:xlink="http://www.w3.org/1999/xlink" x="0px" y="0px" viewBox="0 0 201.6 162.72" style="enable-background: new 0 0 201.6 162.72" xml:space="preserve">
<style>.st0 {
  fill: #fff;
}

</style>
<g>
	<path d="M136.55,142.88c0.11,0.08,0.23,0.17,0.34,0.25c-0.01-0.04-0.02-0.09-0.02-0.13c-1.2,0-2.4,0-3.61,0
		c-0.62,0-1.24,0.05-1.87,0.04c-0.55-0.01-1.11-0.2-1.63-0.1c-1.96,0.38-3.93,0.17-5.89,0.21c-1.22,0.02-2.49-0.12-3.63,0.21
		c-0.85,0.24-1.47-0.48-2.23-0.14c-0.24,0.11-0.54,0.1-0.81,0.09c-0.41-0.02-0.82-0.11-1.24-0.15c-0.15-0.01-0.31,0.05-0.46,0.03
		c-0.39,0.05-0.8,0.03-1.16,0.17c-0.47,0.18-0.89,0.32-1.25-0.16c-0.55,0.49-0.76,0.48-1.08-0.08c-0.16,0.71-0.73,0.55-1.17,0.58
		c-1.42,0.11-2.86,0.12-4.28,0.28c-0.95,0.11-1.87,0.4-2.81,0.61c-0.17,0.04-0.35,0.13-0.52,0.11c-1.77-0.23-3.51,0.03-5.27,0.22
		c-0.86,0.1-1.74,0.38-2.64,0.05c-0.21-0.08-0.51,0.11-0.77,0.17c-0.1,0.02-0.2,0.05-0.3,0.04c-1.06-0.08-2.1,0.23-3.17,0.17
		c-1.2-0.06-2.4,0.11-3.61,0.16c-0.79,0.03-1.59-0.01-2.38,0.02c-1.17,0.05-2.34,0.14-3.51,0.2c-0.72,0.04-1.44,0.06-2.15,0.07
		c-2.91,0.05-5.82,0.09-8.74,0.14c-2.41,0.04-4.82,0.09-7.24,0.13c-2.61,0.05-5.22,0.08-7.83,0.14c-1.27,0.03-2.53,0.12-3.79,0.2
		c-0.8,0.05-1.6,0.15-2.41,0.2c-0.23,0.01-0.47-0.1-0.7-0.1c-0.56,0.01-1.11,0.1-1.67,0.09c-1.73-0.03-3.46-0.09-5.19-0.12
		c-0.79-0.01-1.58,0.05-2.37,0.04c-1.76-0.01-3.52-0.06-5.28-0.06c-1.31,0-2.62,0.04-3.93,0.07c-0.1,0-0.21,0.03-0.3,0
		c-1.41-0.37-2.81-0.02-4.21,0.07c-0.1,0.01-0.25,0.05-0.29,0c-0.73-0.87-1.72-0.48-2.68-0.57c-0.02-0.27-0.04-0.54-0.07-0.82
		c-0.25-0.01-0.58-0.03-0.76-0.04c-0.57-0.83-0.05-1.9-1.03-2.53c-0.58-0.38-0.31-1.13-0.22-1.67c0.13-0.76,0-1.42-0.34-2.07
		c-0.33-0.63-0.32-1.27-0.05-1.9c0.37-0.84,0.23-1.7,0.14-2.56c-0.01-0.1-0.08-0.2-0.07-0.29c0.16-0.79,0.37-1.57,0.5-2.36
		c0.07-0.43,0.03-0.88-0.02-1.31c-0.23-2.22-0.49-4.44-0.71-6.67c-0.22-2.28-0.43-4.56-0.6-6.84c-0.03-0.37,0.22-0.76,0.22-1.14
		c0-1.81-0.08-3.62-0.06-5.43c0.05-3.87,0.16-7.74,0.21-11.61c0.02-1.79-0.03-3.59-0.04-5.38c0-0.4,0.09-0.8,0.03-1.19
		c-0.14-0.86-0.42-1.71-0.5-2.57c-0.13-1.35-0.15-2.71-0.22-4.07c-0.11-1.93-0.22-3.86-0.33-5.8c-0.08-1.34-0.06-2.68-0.25-4
		c-0.16-1.09-0.22-2.18-0.27-3.28c-0.07-1.27-0.06-2.55-0.1-3.82c-0.06-1.63-0.15-3.26-0.22-4.89c-0.05-1.15-0.07-2.29-0.11-3.44
		c-0.07-2.19-0.15-4.39-0.22-6.58c-0.04-1.24-0.05-2.47-0.14-3.71c-0.1-1.23-0.29-2.45-0.43-3.67c-0.03-0.27-0.02-0.55-0.03-0.83
		c-0.03-1.02-0.03-2.05-0.09-3.07c-0.06-0.93-0.2-1.86-0.27-2.79c-0.01-0.16,0.18-0.34,0.28-0.5c0.03-0.04,0.13-0.05,0.14-0.1
		c0.42-1.29,1.87-1.79,2.21-3.07c1.13,0.15,1.35-0.09,1.04-1.1c-0.15-0.5-0.06-0.84,0.29-1.24c0.43-0.5,0.71-1.13,1.08-1.69
		c0.12-0.18,0.31-0.46,0.47-0.46c0.8,0,1.24-0.68,1.88-0.92c1.04-0.4,1.96-1.13,3.14-1.16c2.2-0.05,4.41-0.09,6.61-0.2
		c1.3-0.06,2.6-0.27,3.91-0.33c1.01-0.05,2.03,0.03,3.04,0.05c0.83,0.02,1.67,0.06,2.5,0.05c1.97-0.02,3.94-0.08,5.91-0.1
		c0.88-0.01,1.75,0.05,2.63,0.08c1.37,0.06,2.73,0.15,4.1,0.19c1.89,0.05,3.79,0.02,5.68,0.08c2.19,0.07,4.37,0.2,6.56,0.29
		c0.85,0.03,1.69,0.02,2.54,0.04c2.14,0.05,4.28,0.11,6.42,0.15c2.11,0.04,4.22,0.05,6.33,0.1c1.36,0.04,2.72,0.17,4.09,0.19
		c0.91,0.01,1.83-0.1,2.75-0.14c1.29-0.06,2.58-0.1,3.87-0.17c1.59-0.08,3.18-0.2,4.77-0.26c1.55-0.06,3.11-0.05,4.66-0.07
		c0.92-0.01,1.83-0.07,2.75-0.04c1.48,0.03,2.97,0.13,4.45,0.17c0.63,0.02,1.26-0.05,1.89-0.04c1.67,0.04,3.34,0.14,5.01,0.14
		c2.81,0.01,5.62-0.03,8.44-0.05c1.93-0.01,3.86-0.01,5.79-0.04c1.65-0.03,3.31-0.11,4.96-0.13c1.53-0.01,3.07,0.05,4.6,0.05
		c1.65,0,3.31-0.04,4.96-0.06c1.22-0.02,2.43-0.02,3.65-0.05c2.53-0.06,5.07-0.07,7.6-0.2c2.04-0.1,4.08-0.34,6.12-0.53
		c1.44-0.14,2.87-0.38,4.31-0.43c0.63-0.02,1.26,0.09,1.88-0.09c0.08-0.02,0.24,0.12,0.31,0.22c0.19,0.31,0.34,0.66,0.54,0.97
		c0.07,0.11,0.24,0.2,0.37,0.23c0.33,0.07,0.71,0.02,0.83,0.48c0.01,0.05,0.13,0.11,0.19,0.11c0.54,0.02,1.09,0.01,1.63,0.04
		c0.16,0.01,0.31,0.17,0.47,0.19c0.22,0.03,0.61,0.05,0.64-0.03c0.28-0.72,0.95-0.42,1.4-0.5c0.81-0.14,1.59,0.26,2.27,0.68
		c0.32,0.2,0.48,0.7,0.66,1.09c0.2,0.43,0.26,0.94,0.87,1c0.06,0.01,0.15,0.07,0.18,0.13c0.38,0.75,0.74,1.52,1.14,2.26
		c0.15,0.27,0.47,0.45,0.6,0.72c0.22,0.47,0.5,0.99,0.51,1.49c0.02,1.33-0.09,2.67-0.16,4.01c-0.16,3.15-0.32,6.3-0.51,9.45
		c-0.16,2.53-0.41,5.06-0.55,7.59c-0.12,2.21-0.12,4.43-0.22,6.64c-0.17,3.53-0.35,7.05-0.61,10.57c-0.13,1.79-0.44,3.56-0.66,5.34
		c-0.2,1.62-0.44,3.25-0.54,4.88c-0.15,2.54-0.2,5.09-0.29,7.63c-0.07,2.07-0.16,4.14-0.18,6.21c-0.02,2.41,0.07,4.83,0.05,7.24
		c-0.02,2.47-0.14,4.93-0.2,7.4c-0.04,1.78-0.05,3.55-0.05,5.33c0,0.99,0.11,1.97,0.07,2.96c-0.03,0.91-0.23,1.81-0.28,2.72
		c-0.05,1.07-0.01,2.15-0.02,3.23c-0.01,0.56-0.02,1.12-0.06,1.68c-0.02,0.29-0.01,0.62-0.45,0.7c-0.08,0.01-0.1,0.34-0.15,0.53
		c-0.24,0.09-0.49,0.16-0.71,0.27c-0.36,0.18-0.64,0.1-0.89-0.2c-0.42-0.51-0.83-0.45-1.1,0.12c-0.05,0.11-0.19,0.18-0.27,0.29
		c-0.18,0.24-0.34,0.48-0.51,0.72c0.03,0.05,0.06,0.09,0.09,0.14c-0.29,0-0.6-0.05-0.88,0.02c-0.21,0.05-0.54,0.23-0.56,0.38
		c-0.03,0.21-0.07,0.64,0.42,0.6c0.08-0.01,0.17,0.17,0.3,0.3c-0.17,0.07-0.29,0.1-0.37,0.17c-0.08,0.07-0.11,0.19-0.17,0.29
		c0.1,0.04,0.2,0.12,0.3,0.13c0.25,0.01,0.51-0.02,0.81-0.03c-0.12,0.78-0.81,0.78-1.23,1.11c0.11,0.66-0.03,0.87-0.71,1.1
		c0.03,0.64,0.39,0.77,1.54,0.54c-0.05,0.13-0.1,0.25-0.17,0.45c0.31-0.04,0.55-0.06,0.78-0.09c0.01,0.03,0.01,0.06,0.02,0.09
		c-0.45,0.17-0.99,0.23-1.33,0.53c-0.43,0.39,0.01,0.92,0.1,1.37c0.08,0.4,0.8,0.42,1.48,0.1c0.05,0.3,0.06,0.31-0.76,0.66
		c-0.34,0.14-0.7,0.22-1.07,0.45c0.48,0.03,0.96,0.05,1.44,0.08c0.02,0.07,0.03,0.13,0.05,0.2c-0.54,0.15-1.1,0.27-1.63,0.47
		c-0.57,0.21-1.11,0.51-1.68,0.74c-0.27,0.11-0.58,0.13-0.87,0.22c-0.29,0.09-0.69,0.15-0.82,0.36c-0.38,0.64-0.93,0.7-1.54,0.58
		c-0.73-0.14-1.41-0.12-2.14,0.09c-0.56,0.16-1.18,0.16-1.81,0.11c-0.69-0.06-1.41,0.17-2.11,0.29c-0.31,0.05-0.61,0.16-0.92,0.2
		c-0.45,0.05-0.91,0.04-1.36,0.09c-0.81,0.09-1.14-0.34-0.78-1.23c-0.59,0.13-1.11,0.24-1.64,0.36c-0.01,0.42-0.52,0.79-0.66,0.52
		c-0.43-0.78-1.24-0.06-1.72-0.54c-0.07-0.07-0.33,0.08-0.51,0.09c-0.15,0.01-0.31-0.01-0.45-0.07c-0.88-0.41-1.79-0.36-2.72-0.26
		c-0.64,0.07-1.29,0.08-1.94,0.07c-0.4-0.01-0.52-0.01-1.1,0.32c-0.07,0.04-0.19-0.02-0.29-0.02c-0.15,0-0.29,0.01-0.44,0.01
		c-0.13,0-0.27,0.02-0.4-0.01c-0.34-0.09-0.68-0.28-1.02-0.28c-1.33-0.01-2.66,0.05-3.99,0.07c-0.15,0-0.29-0.1-0.45-0.12
		c-0.48-0.05-1.15-0.29-1.39-0.07c-0.51,0.46-1.01,0.24-1.48,0.23c-0.42-0.02-0.83-0.29-1.26-0.41c-0.26-0.08-0.54-0.09-0.8-0.13
		C136.59,142.79,136.57,142.84,136.55,142.88z M139.85,116.61c-0.04,0.02-0.08,0.05-0.12,0.07c-0.59-0.97-1.18-1.95-1.75-2.93
		c-0.06-0.11,0.04-0.32-0.03-0.42c-0.28-0.38-0.63-0.71-0.89-1.1c-0.67-0.99-1.07-2.15-1.95-3.01c-0.05-0.05-0.08-0.14-0.12-0.21
		c-0.38-0.59-0.75-1.17-1.14-1.75c-0.33-0.5-0.87-0.94-0.98-1.48c-0.11-0.58-0.54-0.86-0.77-1.3c-0.13-0.25-0.48-0.37-0.67-0.6
		c-0.54-0.66-0.79-1.53-1.51-2.07c-0.05-0.03-0.07-0.1-0.1-0.15c-0.77-1.29-1.56-2.58-2.3-3.88c-0.9-1.59-1.73-3.22-2.65-4.8
		c-0.53-0.92-1.16-1.79-1.76-2.67c-0.43-0.62-0.88-1.23-1.33-1.83c-0.2-0.27-0.39-0.45-0.77-0.17c-0.83,0.61-1.7,1.17-2.57,1.72
		c-0.81,0.52-1.64,1-2.46,1.5c-1.15,0.71-2.26,1.51-3.47,2.1c-2.02,0.99-3.87,2.27-5.79,3.42c-0.09,0.06-0.08,0.29-0.11,0.41
		c-0.14-0.02-0.36-0.12-0.46-0.05c-0.85,0.61-1.68,1.25-2.63,1.96c0.36,0.17,0.61,0.29,0.88,0.42c-0.1,0.14-0.18,0.26-0.18,0.26
		c-0.5-0.12-0.93-0.22-1.49-0.35c0.12,0.33,0.17,0.46,0.28,0.75c-0.71-0.58-1.05-0.03-1.54,0.18c0.14-0.19,0.28-0.37,0.49-0.64
		c-0.33-0.06-0.59-0.11-0.84-0.15c0.06-0.43,0.06-0.43-0.45-0.54c-0.11-0.03-0.22-0.09-0.33-0.14c-0.56-0.27-1.13-0.49-1.77-0.29
		c-0.14,0.04-0.37,0.06-0.45-0.02c-0.41-0.38-0.78-0.33-1.11,0.03c-0.12-0.27-0.18-0.54-0.34-0.72c-0.27-0.29-0.62-0.51-0.93-0.76
		c-1-0.81-2-1.63-3.01-2.42c-0.29-0.23-0.63-0.53-0.97-0.55c-0.6-0.04-0.99-0.29-1.37-0.72c-0.33-0.37-1.05-0.36-0.94-1.18
		c0.03-0.24-0.5-0.59-0.82-0.83c-1.04-0.76-2.11-1.47-3.15-2.22c-0.61-0.44-1.21-0.89-1.79-1.36c-0.67-0.55-1.31-1.15-1.99-1.7
		c-0.14-0.11-0.47-0.19-0.55-0.11c-0.54,0.49-1.21,0.91-1.29,1.81c0.2,0.08,0.41,0.16,0.78,0.3c-0.79,0.86-1.53,1.67-2.28,2.48
		c0.24,0.26,0.4,0.45,0.55,0.62c-0.04,0.09-0.05,0.14-0.08,0.16c-0.8,0.62-1.32,1.55-2.27,2c-0.08,0.04-0.19,0.11-0.21,0.19
		c-0.2,0.66-0.67,1.12-1.13,1.59c-0.85,0.84-1.71,1.66-2.56,2.49c-0.28,0.27-0.56,0.55-0.8,0.86c-0.38,0.48-0.69,1.03-1.11,1.47
		c-2.03,2.15-4.1,4.27-6.13,6.43c-0.8,0.85-1.55,1.74-2.28,2.64c-0.56,0.69-1.03,1.46-1.6,2.14c-0.76,0.89-1.57,1.73-2.38,2.58
		c-0.94,0.99-1.88,1.98-2.85,2.93c-1.06,1.05-2.2,2.02-3.23,3.09c-1.2,1.25-2.31,2.58-3.47,3.88c-0.7,0.79-1.42,1.57-2.1,2.37
		c-0.14,0.16-0.25,0.47-0.18,0.64c0.06,0.14,0.39,0.22,0.6,0.23c1.97,0.07,3.94,0.11,5.91,0.17c0.37,0.01,0.75,0.03,1.12,0.02
		c0.79-0.04,1.59-0.13,2.38-0.14c1.07-0.02,2.14,0.05,3.21,0.02c1.51-0.04,3.01-0.17,4.51-0.21c1.09-0.02,2.17,0.06,3.26,0.07
		c0.39,0.01,0.78-0.08,1.17-0.06c1.15,0.04,2.3,0.11,3.44,0.17c0.55,0.03,1.09,0.07,1.64,0.1c0.23,0.02,0.47,0.06,0.7,0.06
		c0.92-0.01,1.83-0.07,2.75-0.03c0.83,0.04,1.66,0.26,2.19-0.35c0.4,0.14,0.67,0.3,0.97,0.34c0.35,0.04,0.71-0.02,1.07-0.03
		c2.41-0.05,4.82-0.09,7.24-0.17c0.99-0.03,1.98-0.16,2.97-0.18c1.45-0.03,2.9,0.06,4.35-0.01c3.23-0.16,6.45-0.41,9.68-0.58
		c5.68-0.3,11.36-0.61,17.04-0.85c4.15-0.18,8.3-0.28,12.45-0.37c2.77-0.06,5.55-0.02,8.33-0.05c0.87-0.01,1.74-0.08,2.73-0.13
		c-2.51-3.51-4.94-6.9-7.36-10.29c-0.04,0.02-0.07,0.04-0.11,0.07C139.1,115.38,139.47,116,139.85,116.61z M57.88,47.52
		c-0.02,0.06-0.05,0.12-0.07,0.18c0.47,0.35,0.94,0.71,1.41,1.06c2.67,1.98,5.32,4,8.02,5.94c3.16,2.27,6.37,4.47,9.55,6.7
		c1.3,0.92,2.58,1.86,3.88,2.78c1.38,0.97,2.78,1.91,4.15,2.9c1.38,1.01,2.72,2.08,4.09,3.09c1.52,1.12,3.07,2.19,4.58,3.33
		c2.34,1.76,4.63,3.57,6.97,5.33c1.3,0.99,2.66,1.9,3.96,2.89c0.74,0.56,0.95,0.59,1.67,0.04c0.18-0.14,0.42-0.21,0.62-0.34
		c0.95-0.65,1.87-1.34,2.84-1.97c2.56-1.68,5.15-3.33,7.71-5.02c1.09-0.72,2.13-1.53,3.22-2.25c0.98-0.65,2.01-1.2,3-1.84
		c1.21-0.78,2.38-1.61,3.59-2.38c1.17-0.75,2.38-1.45,3.55-2.2c1.71-1.08,3.42-2.19,5.13-3.28c1.58-1,3.19-1.95,4.73-3.01
		c1.88-1.3,3.68-2.71,5.55-4.03c1.61-1.14,3.28-2.21,4.9-3.34c1.15-0.8,2.29-1.61,3.39-2.47c0.59-0.46,1.09-1.05,1.61-1.58
		c0.18-0.19,0.33-0.41,0.6-0.74c-0.48,0-0.79-0.01-1.11,0c-2.73,0.06-5.46,0.14-8.2,0.17c-3.25,0.04-6.5,0.01-9.76,0.04
		c-5.19,0.06-10.38,0.14-15.57,0.22c-1.23,0.02-2.46,0.17-3.68,0.15c-2.07-0.03-4.14-0.17-6.21-0.2c-2.03-0.03-4.07,0.04-6.1,0.05
		c-1.75,0.01-3.5-0.03-5.25-0.02c-2.11,0.01-4.22,0.02-6.33,0.1c-2.57,0.1-5.13,0.3-7.7,0.42c-1.27,0.06-2.55,0.11-3.82,0.07
		c-1.95-0.06-3.89-0.24-5.84-0.29c-3.99-0.12-7.98-0.18-11.96-0.27C62.61,47.68,60.25,47.59,57.88,47.52z M38.39,115.46
		c0.18-0.15,0.24-0.18,0.27-0.22c0.71-0.86,1.38-1.74,2.12-2.57c0.71-0.8,1.5-1.54,2.24-2.31c1.3-1.36,2.58-2.76,3.91-4.09
		c1.15-1.15,2.39-2.2,3.55-3.35c1.37-1.36,2.68-2.78,4.02-4.16c0.89-0.91,1.78-1.82,2.69-2.7c0.71-0.69,1.51-1.3,2.2-2
		c0.97-1,1.89-2.05,2.83-3.09c1.27-1.41,2.52-2.84,3.79-4.26c1.24-1.38,2.49-2.75,3.74-4.11c0.33-0.36,0.68-0.73,1.09-0.99
		c0.58-0.38,1.22-0.66,1.88-1.01c-0.15-0.17-0.21-0.27-0.3-0.34c-1.17-0.89-2.33-1.81-3.54-2.67c-1.95-1.39-3.91-2.75-5.89-4.1
		c-1.88-1.29-3.55-2.89-5.73-3.73c-0.12-0.05-0.2-0.18-0.29-0.29c-0.89-1.03-1.91-1.88-3.26-2.23c-0.11-0.03-0.22-0.09-0.31-0.16
		c-0.41-0.29-0.81-0.6-1.22-0.88c-1.08-0.75-2.18-1.46-3.23-2.23c-1.42-1.05-2.83-2.12-4.21-3.23c-1.88-1.52-3.73-3.08-5.59-4.62
		c-0.56-0.46-1.13-0.91-1.78-1.43c-0.02,0.22-0.03,0.31-0.03,0.4c0.03,2.26,0.05,4.51,0.08,6.77c0.02,0.99,0.04,1.97,0.09,2.95
		c0.06,1.19,0.16,2.38,0.24,3.57c0,0.06-0.02,0.12-0.03,0.18c-0.07,0.94-0.18,1.88-0.19,2.82c-0.01,1.04,0.08,2.09,0.09,3.13
		c0.01,0.71-0.07,1.42-0.04,2.13c0.12,2.59,0.29,5.17,0.4,7.76c0.13,2.95,0.28,5.91,0.31,8.86c0.04,3.43-0.04,6.87-0.06,10.3
		c-0.02,2.93-0.06,5.86-0.05,8.79C38.18,113.34,38.31,114.33,38.39,115.46z M162.42,59.63c-0.08-0.03-0.16-0.07-0.24-0.1
		c-0.63,0.49-1.29,0.96-1.89,1.48c-0.75,0.65-1.4,1.43-2.19,2.01c-1.5,1.11-3.08,2.13-4.62,3.18c-1.42,0.96-2.86,1.88-4.25,2.87
		c-1.12,0.79-2.15,1.69-3.27,2.47c-0.95,0.67-1.97,1.24-2.96,1.86c-2.27,1.44-4.52,2.88-6.79,4.32c-0.56,0.36-0.61,0.59-0.2,1.14
		c0.57,0.75,1.18,1.48,1.69,2.27c0.9,1.41,1.74,2.85,2.6,4.29c0.72,1.21,1.4,2.44,2.16,3.62c0.85,1.32,1.77,2.6,2.68,3.88
		c0.55,0.78,1.12,1.54,1.72,2.29c0.6,0.77,1.26,1.49,1.86,2.26c0.25,0.33,0.38,0.75,0.62,1.09c0.52,0.74,1.11,1.43,1.62,2.18
		c0.6,0.88,1.12,1.82,1.72,2.71c0.62,0.91,1.31,1.78,1.96,2.68c0.35,0.48,0.64,1.01,1,1.48c0.87,1.12,1.77,2.21,2.65,3.33
		c0.56,0.72,1.1,1.47,1.71,2.3c0.06-0.56,0.15-0.97,0.15-1.38c0.02-2.34,0.01-4.69,0.01-7.03c0-0.63,0-1.26-0.01-1.9
		c0-0.29-0.04-0.58-0.03-0.87c0.02-0.36,0.1-0.71,0.11-1.06c0.06-1.67,0.1-3.35,0.15-5.03c0.06-1.8,0.16-3.61,0.21-5.41
		c0.03-1.17-0.03-2.34-0.02-3.51c0.01-0.63,0.1-1.26,0.09-1.88c0-0.58,0.37-1.13,0.02-1.74c-0.11-0.19,0.09-0.54,0.11-0.81
		c0.13-1.68,0.16-3.36,0.41-5.04c0.26-1.77,0.34-3.58,0.47-5.37c0.09-1.25,0.14-2.51,0.22-3.76c0.04-0.57,0.11-1.13,0.14-1.7
		c0.05-0.76,0.06-1.52,0.11-2.28C162.22,62.83,162.32,61.23,162.42,59.63z M140.33,142.5c0,0.06,0.01,0.12,0.01,0.18
		c0.67,0,1.34,0,2.01,0c0-0.06,0-0.12,0-0.18C141.68,142.5,141,142.5,140.33,142.5z"></path>
	<path d="M175.17,134.11c-0.37-0.21-0.61-0.33-0.83-0.48c-0.08-0.05-0.14-0.17-0.15-0.27c0-0.05,0.14-0.17,0.19-0.16
		c0.2,0.04,0.46,0.07,0.57,0.21C175.09,133.55,175.09,133.81,175.17,134.11z"></path>
	<path class="st0" d="M139.85,116.61c-0.37-0.62-0.74-1.23-1.11-1.85c0.04-0.02,0.07-0.04,0.11-0.07c2.43,3.39,4.85,6.79,7.36,10.29
		c-0.99,0.05-1.86,0.12-2.73,0.13c-2.78,0.03-5.55-0.01-8.33,0.05c-4.15,0.09-8.3,0.19-12.45,0.37c-5.68,0.24-11.36,0.55-17.04,0.85
		c-3.23,0.17-6.45,0.42-9.68,0.58c-1.45,0.07-2.9-0.02-4.35,0.01c-0.99,0.02-1.98,0.15-2.97,0.18c-2.41,0.07-4.82,0.11-7.24,0.17
		c-0.36,0.01-0.72,0.07-1.07,0.03c-0.29-0.04-0.57-0.19-0.97-0.34c-0.53,0.61-1.36,0.39-2.19,0.35c-0.91-0.04-1.83,0.02-2.75,0.03
		c-0.23,0-0.47-0.05-0.7-0.06c-0.55-0.04-1.09-0.07-1.64-0.1c-1.15-0.06-2.3-0.13-3.44-0.17c-0.39-0.01-0.78,0.07-1.17,0.06
		c-1.09-0.02-2.17-0.1-3.26-0.07c-1.51,0.03-3.01,0.17-4.51,0.21c-1.07,0.03-2.14-0.04-3.21-0.02c-0.79,0.01-1.59,0.1-2.38,0.14
		c-0.37,0.02-0.75-0.01-1.12-0.02c-1.97-0.05-3.94-0.1-5.91-0.17c-0.21-0.01-0.54-0.09-0.6-0.23c-0.07-0.16,0.05-0.47,0.18-0.64
		c0.68-0.81,1.4-1.58,2.1-2.37c1.15-1.3,2.27-2.63,3.47-3.88c1.03-1.08,2.17-2.05,3.23-3.09c0.97-0.96,1.91-1.95,2.85-2.93
		c0.81-0.85,1.62-1.69,2.38-2.58c0.58-0.68,1.04-1.45,1.6-2.14c0.73-0.9,1.48-1.8,2.28-2.64c2.03-2.16,4.1-4.27,6.13-6.43
		c0.42-0.44,0.72-0.99,1.11-1.47c0.24-0.31,0.52-0.59,0.8-0.86c0.85-0.84,1.71-1.66,2.56-2.49c0.47-0.46,0.94-0.92,1.13-1.59
		c0.02-0.08,0.13-0.16,0.21-0.19c0.95-0.44,1.47-1.38,2.27-2c0.03-0.02,0.03-0.07,0.08-0.16c-0.15-0.17-0.32-0.35-0.55-0.62
		c0.74-0.81,1.49-1.62,2.28-2.48c-0.36-0.14-0.58-0.22-0.78-0.3c0.08-0.9,0.75-1.32,1.29-1.81c0.09-0.08,0.42,0,0.55,0.11
		c0.68,0.55,1.32,1.15,1.99,1.7c0.58,0.47,1.18,0.93,1.79,1.36c1.05,0.75,2.11,1.47,3.15,2.22c0.32,0.23,0.86,0.59,0.82,0.83
		c-0.11,0.82,0.61,0.81,0.94,1.18c0.38,0.43,0.77,0.67,1.37,0.72c0.33,0.02,0.67,0.32,0.97,0.55c1.01,0.8,2.01,1.62,3.01,2.42
		c0.31,0.25,0.66,0.47,0.93,0.76c0.16,0.17,0.22,0.45,0.34,0.72c0.33-0.36,0.71-0.41,1.11-0.03c0.09,0.08,0.31,0.07,0.45,0.02
		c0.64-0.2,1.21,0.01,1.77,0.29c0.11,0.05,0.21,0.12,0.33,0.14c0.52,0.11,0.52,0.11,0.45,0.54c0.25,0.05,0.5,0.09,0.84,0.15
		c-0.21,0.27-0.35,0.46-0.49,0.64c0.49-0.22,0.83-0.76,1.54-0.18c-0.1-0.28-0.15-0.42-0.28-0.75c0.56,0.13,0.99,0.23,1.49,0.35
		c0,0,0.08-0.12,0.18-0.26c-0.27-0.13-0.51-0.24-0.88-0.42c0.95-0.71,1.78-1.35,2.63-1.96c0.1-0.07,0.32,0.03,0.46,0.05
		c0.03-0.12,0.02-0.35,0.11-0.41c1.93-1.15,3.77-2.43,5.79-3.42c1.21-0.59,2.32-1.4,3.47-2.1c0.82-0.5,1.65-0.99,2.46-1.5
		c0.87-0.55,1.74-1.11,2.57-1.72c0.39-0.29,0.57-0.1,0.77,0.17c0.45,0.61,0.9,1.21,1.33,1.83c0.6,0.88,1.23,1.75,1.76,2.67
		c0.92,1.58,1.75,3.21,2.65,4.8c0.74,1.31,1.53,2.59,2.3,3.88c0.03,0.05,0.05,0.12,0.1,0.15c0.72,0.53,0.97,1.41,1.51,2.07
		c0.19,0.23,0.54,0.35,0.67,0.6c0.23,0.45,0.66,0.72,0.77,1.3c0.1,0.54,0.64,0.98,0.98,1.48c0.39,0.58,0.76,1.17,1.14,1.75
		c0.04,0.07,0.07,0.15,0.12,0.21c0.87,0.86,1.27,2.03,1.95,3.01c0.26,0.39,0.61,0.72,0.89,1.1c0.07,0.1-0.03,0.31,0.03,0.42
		c0.57,0.98,1.16,1.95,1.75,2.93C139.76,116.66,139.8,116.64,139.85,116.61z"></path>
	<path class="st0" d="M57.88,47.52c2.37,0.07,4.73,0.15,7.1,0.21c3.99,0.1,7.98,0.16,11.96,0.27c1.95,0.06,3.89,0.23,5.84,0.29
		c1.27,0.04,2.55-0.01,3.82-0.07c2.57-0.12,5.13-0.32,7.7-0.42c2.11-0.08,4.22-0.09,6.33-0.1c1.75-0.01,3.5,0.03,5.25,0.02
		c2.03-0.01,4.07-0.08,6.1-0.05c2.07,0.03,4.14,0.17,6.21,0.2c1.23,0.02,2.46-0.13,3.68-0.15c5.19-0.09,10.38-0.17,15.57-0.22
		c3.25-0.04,6.5-0.01,9.76-0.04c2.73-0.03,5.46-0.11,8.2-0.17c0.31-0.01,0.63,0,1.11,0c-0.26,0.33-0.41,0.55-0.6,0.74
		c-0.53,0.54-1.03,1.12-1.61,1.58c-1.1,0.86-2.24,1.68-3.39,2.47c-1.62,1.13-3.29,2.2-4.9,3.34c-1.87,1.32-3.67,2.74-5.55,4.03
		c-1.54,1.06-3.15,2.01-4.73,3.01c-1.71,1.09-3.41,2.2-5.13,3.28c-1.18,0.74-2.38,1.44-3.55,2.2c-1.21,0.78-2.38,1.61-3.59,2.38
		c-0.99,0.63-2.02,1.19-3,1.84c-1.09,0.72-2.12,1.53-3.22,2.25c-2.56,1.69-5.15,3.34-7.71,5.02c-0.96,0.63-1.89,1.32-2.84,1.97
		c-0.19,0.13-0.43,0.2-0.62,0.34c-0.72,0.55-0.93,0.51-1.67-0.04c-1.3-0.99-2.66-1.9-3.96-2.89c-2.33-1.76-4.63-3.57-6.97-5.33
		c-1.51-1.14-3.06-2.21-4.58-3.33c-1.37-1.02-2.71-2.09-4.09-3.09c-1.36-0.99-2.77-1.93-4.15-2.9c-1.3-0.92-2.58-1.86-3.88-2.78
		c-3.18-2.24-6.39-4.43-9.55-6.7c-2.7-1.94-5.35-3.96-8.02-5.94c-0.47-0.35-0.94-0.7-1.41-1.06C57.84,47.64,57.86,47.58,57.88,47.52
		z"></path>
	<path class="st0" d="M38.39,115.46c-0.08-1.13-0.2-2.12-0.21-3.11c-0.01-2.93,0.03-5.86,0.05-8.79c0.03-3.43,0.1-6.87,0.06-10.3
		c-0.03-2.95-0.19-5.91-0.31-8.86c-0.11-2.59-0.28-5.17-0.4-7.76c-0.03-0.71,0.05-1.42,0.04-2.13c-0.02-1.04-0.11-2.09-0.09-3.13
		c0.01-0.94,0.12-1.88,0.19-2.82c0-0.06,0.03-0.12,0.03-0.18c-0.08-1.19-0.17-2.38-0.24-3.57c-0.05-0.98-0.08-1.97-0.09-2.95
		c-0.04-2.26-0.06-4.51-0.08-6.77c0-0.09,0.01-0.19,0.03-0.4c0.65,0.52,1.22,0.97,1.78,1.43c1.86,1.54,3.71,3.11,5.59,4.62
		c1.38,1.11,2.78,2.18,4.21,3.23c1.05,0.78,2.16,1.49,3.23,2.23c0.41,0.29,0.81,0.59,1.22,0.88c0.09,0.07,0.2,0.13,0.31,0.16
		c1.36,0.35,2.37,1.2,3.26,2.23c0.09,0.1,0.17,0.24,0.29,0.29c2.18,0.84,3.85,2.44,5.73,3.73c1.97,1.35,3.94,2.71,5.89,4.1
		c1.2,0.86,2.36,1.77,3.54,2.67c0.09,0.07,0.15,0.17,0.3,0.34c-0.66,0.35-1.3,0.64-1.88,1.01c-0.41,0.26-0.75,0.63-1.09,0.99
		c-1.26,1.36-2.5,2.73-3.74,4.11c-1.27,1.41-2.52,2.84-3.79,4.26c-0.93,1.04-1.85,2.09-2.83,3.09c-0.69,0.71-1.49,1.32-2.2,2
		c-0.92,0.88-1.81,1.79-2.69,2.7c-1.35,1.38-2.66,2.8-4.02,4.16c-1.15,1.15-2.4,2.2-3.55,3.35c-1.33,1.33-2.6,2.73-3.91,4.09
		c-0.74,0.77-1.52,1.51-2.24,2.31c-0.74,0.83-1.41,1.71-2.12,2.57C38.62,115.28,38.57,115.31,38.39,115.46z"></path>
	<path class="st0" d="M162.42,59.63c-0.1,1.6-0.2,3.21-0.29,4.81c-0.04,0.76-0.06,1.52-0.11,2.28c-0.03,0.57-0.11,1.13-0.14,1.7
		c-0.08,1.25-0.13,2.51-0.22,3.76c-0.13,1.79-0.21,3.6-0.47,5.37c-0.25,1.68-0.27,3.36-0.41,5.04c-0.02,0.28-0.22,0.63-0.11,0.81
		c0.35,0.61-0.03,1.17-0.02,1.74c0,0.63-0.09,1.26-0.09,1.88c-0.01,1.17,0.04,2.34,0.02,3.51c-0.04,1.81-0.14,3.61-0.21,5.41
		c-0.06,1.67-0.1,3.35-0.15,5.03c-0.01,0.36-0.09,0.71-0.11,1.06c-0.01,0.29,0.03,0.58,0.03,0.87c0.01,0.63,0.01,1.26,0.01,1.9
		c0,2.34,0,4.69-0.01,7.03c0,0.41-0.09,0.83-0.15,1.38c-0.61-0.83-1.15-1.57-1.71-2.3c-0.87-1.12-1.78-2.21-2.65-3.33
		c-0.36-0.47-0.65-1-1-1.48c-0.65-0.9-1.33-1.77-1.96-2.68c-0.6-0.88-1.12-1.82-1.72-2.71c-0.51-0.75-1.09-1.44-1.62-2.18
		c-0.24-0.34-0.37-0.76-0.62-1.09c-0.6-0.77-1.25-1.5-1.86-2.26c-0.59-0.75-1.16-1.51-1.72-2.29c-0.91-1.28-1.82-2.56-2.68-3.88
		c-0.76-1.18-1.43-2.42-2.16-3.62c-0.86-1.43-1.7-2.88-2.6-4.29c-0.51-0.79-1.12-1.52-1.69-2.27c-0.41-0.55-0.36-0.78,0.2-1.14
		c2.27-1.44,4.52-2.88,6.79-4.32c0.98-0.62,2-1.19,2.96-1.86c1.12-0.78,2.16-1.68,3.27-2.47c1.4-0.99,2.84-1.91,4.25-2.87
		c1.55-1.05,3.12-2.07,4.62-3.18c0.79-0.59,1.44-1.36,2.19-2.01c0.6-0.52,1.26-0.99,1.89-1.48
		C162.26,59.56,162.34,59.59,162.42,59.63z"></path>
	<path class="st0" d="M140.33,142.5c0.67,0,1.35,0,2.02,0c0,0.06,0,0.12,0,0.18c-0.67,0-1.34,0-2.01,0
		C140.34,142.62,140.33,142.56,140.33,142.5z"></path>
</g>
</svg>
