<svg version="1.1" id="Vrstva_1" xmlns="http://www.w3.org/2000/svg" x="0" y="0" viewBox="0 0 143.04 183.84" style="enable-background:new 0 0 143.04 183.84" xml:space="preserve"><style>.st0{fill:#fff}</style><path d="M125.54 94.32c-.17.34-.35.57-.4.84-.1.48-.17.97-.19 1.47-.04 1.18-.04 2.36-.07 3.54-.01.49-.02.98-.11 1.46-.1.5-.32.97-.48 1.46-.05.15-.1.31-.09.46.02.65.13 1.3.09 1.94-.03.5-.25.99-.38 1.49-.06.25-.11.5-.14.75-.04.43-.01.87-.1 1.29-.18.82-.29 1.63-.29 2.48 0 .41-.17.89-.09 1.37.06.32.15.65.16.97.01.85-.04 1.7-.03 2.55.01.55.07 1.1.03 1.62-.09.32-.25.64-.25.96-.01.95.06 1.9.06 2.85 0 .24-.16.48-.23.73-.06.21-.16.42-.14.62.1 1.07-.07 2.09-.39 3.11-.04.11-.08.23-.07.35.04.82.08 1.65.14 2.47.02.29.11.53-.23.78-.21.15-.32.57-.32.86 0 .86.08 1.72.13 2.57.01.12.09.28.04.34-.67.82 0 1.74-.22 2.59-.05.21-.11.42-.18.63-.09.26-.25.52-.27.78-.06.67-.04 1.36-.09 2.03-.03.38-.12.77-.23 1.14-.1.34-.29.66-.01 1.01.03.04-.06.29-.13.3-.15.03-.32-.02-.54-.05-.3.46-.37.99-.06 1.51.28.48.41.87-.03 1.37-.27.31-.33.79-.53 1.32-.03-.22-.05-.34-.08-.51-.1.09-.21.13-.23.21-.21.75-.43 1.5-.6 2.27-.14.61-.2 1.24-.31 1.85-.17.93-.35 1.86-.54 2.78-.15.76-.33 1.51-.49 2.27-.05.23-.09.46-.16.69-.04.14-.08.35-.18.39-.69.29-.87.88-1.06 1.53-.19.65-.49 1.28-.81 1.88-.55 1.04-1.14 2.06-1.72 3.08-.26.46-.48.88-.5 1.47-.02.56-.44 1.13-.74 1.66-.21.37-.76.49-.71 1.08.01.13-.42.31-.66.44-.16.08-.34.13-.51.16-.83.16-.92.85-.96 1.47-.02.36-.1.46-.4.49-.63.05-1.12.3-1.52.82-.21.26-.63.37-.97.52-.31.13-.63.29-.95.32-.73.07-1.47.05-2.2.1-.47.03-.93.16-1.4.17-.69.02-1.39 0-2.09-.03-.74-.03-1.48-.09-2.22-.12-1.59-.05-3.17-.15-4.76-.12-1.67.03-3.35.12-5.01.31-.55.06-1.06.2-1.59-.03-.06-.03-.17-.01-.22.03-.64.46-1.28.16-1.95.08-.94-.12-1.9-.13-2.85-.16-1.82-.05-3.63-.11-5.45-.12-.64 0-1.28.11-1.93.28l1.19.15c0 .06-.01.12-.01.18-.28 0-.57.03-.85 0-1.01-.12-2.02-.29-3.03-.38-.65-.06-1.31-.04-1.97-.03-2.05.02-4.11.09-6.16.05-.9-.02-1.79-.3-2.69-.42-.88-.11-1.77-.16-2.65-.25-.99-.1-1.97-.2-2.96-.31-.9-.09-1.8-.17-2.7-.28-1.15-.15-2.3-.35-3.45-.51-.95-.13-1.89-.26-2.69-.86a.686.686 0 0 0-.28-.11c-2.44-.39-4.53-1.76-6.87-2.44-1.08-.32-2.11-.84-3.17-1.23-.52-.19-1.1-.21-1.61-.42-.92-.37-1.79-.88-2.72-1.24-1.88-.73-3.26-2.03-4.33-3.68-.11-.17-.06-.44-.09-.66-.02-.14 0-.33-.08-.42-1.58-1.68-1.89-3.88-2.31-5.99-.29-1.44-.28-2.93-.39-4.4-.07-.89-.14-1.78-.14-2.67 0-1.21.08-2.42.09-3.62 0-.66-.07-1.33-.11-1.99-.09.03-.17.06-.26.1-.15-.2-.33-.38-.46-.59-.41-.67-.37-1.54-1.12-2.08-.34-.25-.36-.92-.68-1.23-.6-.58-.51-1.27-.46-1.95.07-.87.25-1.74.32-2.61.18-1.97.3-3.95.49-5.92.06-.66.32-1.3.42-1.95.34-2.2.72-4.39.93-6.6.14-1.48.02-2.99.02-4.48.01-2.21.01-4.43.05-6.64.02-1.47.16-2.95.13-4.42-.03-1.61-.2-3.22-.31-4.83-.02-.26-.13-.56.27-.69.06-.02.09-.24.08-.36-.12-1.45-.3-2.89-.37-4.33-.1-2.31-.14-4.62-.17-6.93-.02-1.47.02-2.94.01-4.4 0-1.19-.05-2.37-.04-3.56.01-.46.13-.92.3-1.37v2.57c.04 0 .08.01.13.01.03-.14.08-.28.1-.42.13-1.38.28-2.76.38-4.14.04-.52-.1-1.06-.07-1.59.06-1.52.19-3.04.25-4.56.06-1.29.05-2.58.11-3.86.08-1.61.21-3.21.31-4.81.04-.74.02-1.49.07-2.23.07-.92.16-1.85.28-2.77.11-.84.28-1.67.42-2.51.08-.52.43-1.02.05-1.55-.01-.01 0-.04 0-.06.08-.87.64-1.75-.27-2.6.02 0-.1.01-.25.02.08-.35.14-.66.24-1.12.04.32.07.52.09.71.05 0 .1.01.15.01.04-.36.09-.72.13-1.08l-.91-.09c.09-.1.18-.2.32-.36-.19-.04-.3-.07-.41-.09.05-.6.11-1.2.16-1.82-.4-.26-.76-.54-.4-1.14.14-.24.1-.6.13-.9.03-.43-.08-.92.1-1.27.43-.82.17-1.58.04-2.39-.07-.44.05-.95.21-1.38.19-.5.51-.94.78-1.41-.18-.14-.36-.27-.47-.36.14-.57.27-1.05.37-1.54.15-.78.55-1.41 1.08-1.98 1.38-1.48 3.01-2.65 4.7-3.74.62-.4 1.39-.59 2.1-.84 1.45-.51 2.87-1.1 4.36-1.46 1.8-.44 3.65-.71 5.48-1 1.08-.17 2.17-.21 3.26-.32.33-.03.74-.23.97-.11.59.32 1.24.02 1.69.19.52.2.8.07 1.21-.06.21-.06.47.01.7.03.58.05 1.13.29 1.74.21.33-.04.68.19 1.03.29.13.04.26.06.4.06 1.16.02 2.32-.03 3.47.07 2.95.25 5.88-.19 8.81-.15 2 .03 4 .1 5.99.39 1.53.22 3.09.24 4.64.32 2.37.12 4.74.23 7.11.31.93.03 1.86-.05 2.79-.02.53.02 1.04.23 1.57.25 1.52.05 3.05.07 4.57.05.53-.01.65-.42.51-.87 1.15-.88 2.43-.92 3.76-.69.16.03.31.04.47.06.31-.67.59-.8 1.29-.63.92.23 1.84.55 2.77.64.45.05.8.05 1.07.45.05.08.26.07.4.08.49.01 1.02.14 1.45-.01 1.16-.41 2.03.43 3.05.56.87.11 1.47.72 2.16 1.15.21.14.51.16.77.2.26.03.53.01.79.01.03.07.05.14.08.21.07-.14.15-.28.21-.4.32.2.57.34.81.5 1.25.85 2.5 1.7 3.73 2.58.23.16.34.47.54.67.32.32.65.62 1.02.88.1.07.33-.06.6-.12-.6-.7-1.12-1.32-1.65-1.93.05-.03.09-.07.11-.08.36.3.72.58 1.05.89.12.11.19.29.28.43.25.4.49.8.74 1.2.06.1.17.19.2.3.34 1.27 1.39 2.01 2.16 2.96.76.96 1.59 1.88 1.69 3.24.05.77.39 1.52.55 2.29.08.4.08.82.09 1.23.01.73-.08 1.47.01 2.18.17 1.31-.05 2.59-.11 3.89-.02.46.07.93.08 1.4 0 .24-.05.49-.09.74-.02.12-.11.23-.1.34.04.83.09 1.66.14 2.49.02.36.04.71.08 1.07.02.17.03.37.13.5.43.56.42.82.05 1.44-.11.18-.03.5 0 .75.04.23.19.45.2.67.04.85.05 1.7.05 2.55 0 .52-.06 1.04-.06 1.56 0 .53.07 1.06.07 1.59 0 .27-.16.53-.15.8.05 1.22.14 2.43.2 3.64.02.51-.02 1.02.02 1.53.03.29.18.56.26.84.04.13.12.3.07.38-.46.72-.23 1.49-.16 2.24 0 .06.03.12.03.18.01 1.38-.08 2.78.05 4.15.1 1.09-.16 2.2.26 3.26.05.12.05.32-.03.4-.43.43-.28.91-.22 1.43.1.82.07 1.66.11 2.5.02.37.09.75.1 1.12 0 .41-.06.81-.07 1.22-.01.2-.04.42.03.59.49 1.13.2 2.29.2 3.45 0 .08-.03.17-.01.24.15.52.35.97.18 1.58-.15.53.16 1.18.23 1.78.04.32.31.7-.17.94-.04.02 0 .18 0 .27.07-.04.18-.06.45-.12zM35.83 61.74c.04.59.13 1.18.11 1.77-.02.8-.12 1.59-.17 2.39-.01.16.02.33.05.63.18-.19.3-.26.31-.35.08-.7.17-1.41.19-2.12.06-1.78.09-3.57.16-5.35.01-.23.23-.46.35-.69.05.02.1.05.15.07.02.23-.04.51.06.7.51.92.42 1.93.45 2.9.03 1.23-.06 2.46-.09 3.69-.06 2.48-.12 4.96-.16 7.45a151.7 151.7 0 0 0-.02 4.77c.01 1.53.07 3.06.1 4.59.05 2.39.08 4.78.15 7.17.04 1.36.17 2.72.27 4.08.04.55.13 1.1.17 1.66.04.48.05.95.07 1.43.03.77.05 1.54.08 2.31 0 .03.04.07.06.1.53.57.39 1.32.27 1.92-.08.45-.1.89-.1 1.33 0 .38.07.76.07 1.13-.01.78-.08 1.56-.08 2.35 0 .64.14 1.29.06 1.91-.14 1.06-.24 2.09-.07 3.16.08.52-.13 1.09-.16 1.64-.05.87-.06 1.74-.08 2.61 0 .17 0 .39.1.51.31.38.1.64-.13.94-.13.16-.32.45-.26.56.33.56-.13 1.05-.06 1.58.02.14 0 .28 0 .42.04.84.17 1.68.12 2.51-.1 1.43-.32 2.84-.48 4.27-.11.96-.13 1.91.33 2.92-.05-1.78.18-3.65.54-3.92-.07.53-.17.98-.18 1.43-.02.87.05 1.74.02 2.61-.01.38-.2.75-.29 1.13-.05.23-.13.48-.09.7.31 1.6-.61 2.69-1.5 3.82-.31.4-.68.85-.75 1.32-.11.8.2 1.66-.38 2.39-.02.03-.01.08-.01.12.06.89.04 1.79.2 2.67.23 1.27.44 2.57 1.44 3.55.15.15.22.42.25.64.06.66.31 1.18.91 1.5.85.44 1.71.85 2.55 1.32.86.49 2.03.51 2.51 1.6.03.07.17.09.26.13 1.08.46 2.15.93 3.24 1.37 1.12.44 2.23.97 3.4 1.23 1.92.44 3.87.74 5.82 1 1.67.22 3.37.27 5.04.46.92.1 1.83.38 2.75.47 1.24.13 2.5.16 3.75.24 2.37.16 4.73.36 7.1.48 2.01.1 4.03.13 6.05.14 3.87.01 7.74 0 11.61-.03 2.05-.01 4.1-.06 6.16-.11.17 0 .35-.06.51-.11.46-.14.91-.38 1.38-.41 1.01-.08 2.02-.12 3.03-.05 1.04.07 1.48-.5 1.87-1.32.49-1.03.3-2.33 1.28-3.16.02-.02.02-.08.03-.12.4-1.71.78-3.42 1.2-5.13.16-.65.42-1.27.65-1.94 0-.16-.04-.41.01-.64.25-1.16.61-2.3.77-3.47.09-.63-.19-1.3.29-1.87.07-.08.05-.23.05-.35.02-.51.03-1.02.06-1.52.06-1.13.23-2.26.16-3.38-.03-.49-.19-.86.04-1.41.31-.73.26-1.62.32-2.44.05-.71-.11-1.48.09-2.14.28-.92.35-1.84.37-2.77.03-1.36-.07-2.73 0-4.09.08-1.75.27-3.49.39-5.23.03-.41-.03-.84 0-1.25.08-1.13.2-2.26.28-3.39.09-1.33.16-2.66.22-3.99.07-1.43.18-2.85.16-4.28-.03-2.17-.15-4.33-.24-6.5-.1-2.67-.21-5.33-.31-8l-.15-4.25c-.01-.34.03-.68.02-1.02-.01-1.26.02-2.52-.04-3.78-.04-.91-.23-1.81-.29-2.71-.08-.99-.11-1.99-.13-2.99-.01-.69.01-1.38.06-2.07.03-.45.04-.93.2-1.35.24-.66.36-1.25.08-1.95-.19-.46-.21-1-.24-1.51-.07-.98-.1-1.97-.14-2.96-.04-.77-.08-1.54-.11-2.31 0-.13.09-.26.1-.39.06-.37.12-.74.14-1.11.01-.29-.05-.59-.05-.88 0-.46.17-.97.02-1.36-.29-.76-.45-1.47-.25-2.3.16-.65-.22-1.34.03-2.05.11-.33-.07-.76-.13-1.14-.02-.12-.11-.26-.07-.34.29-.51.21-1 .02-1.51-.06-.16.02-.36 0-.53-.05-.55-.09-1.1-.18-1.65-.04-.23-.17-.44-.26-.65-.02-.28-.34-1.15-.88-1.41-.59-.29-1.21-.51-1.81-.79-.19-.09-.34-.25-.52-.37-.43-.27-.84-.66-1.31-.78-1.39-.34-2.84-.49-4.22-.87-.76-.21-1.39-.01-2.07.15-.08.02-.16.07-.22.06-.76-.14-1.52-.28-2.27-.44-.43-.09-.77-.11-.96.4-.07.18-.27.4-.44.43-.76.12-1.5.49-2.31.18-.42-.16-.7.08-.68.68-.61-.11-1.17-.23-1.73-.31-1.19-.19-2.34-.64-3.59-.43-1.44.24-2.87-.07-4.26-.37-1.18-.26-2.35-.19-3.53-.19-1.59.01-3.16-.03-4.72-.42.28-.02.55-.03.83-.05-.39-.25-.83-.49-1.21-.42-1 .19-2.13-.59-3.03.38-.03.03-.12.01-.18 0-1.26-.1-2.55-.07-3.77-.33-1.49-.32-2.94-.09-4.4-.04-2.06.07-4.13.38-6.18.29-2.56-.11-5.12-.04-7.68-.41-1.85-.27-3.79-.17-5.66.03-1.96.22-3.9.73-5.83 1.18-.28.06-.49.47-.7.75-.18.25-.3.54-.47.83-.02.33-.03.72-.05 1.03-.1.21-.24.37-.23.53 0 .41.01.8-.08 1.21-.12.6-.03 1.25-.05 1.87-.06 2.56-.19 5.12-.18 7.68 0 2.24.14 4.49.24 6.73.01.22.14.44.21.67.06-.02.13-.04.19-.06-.06-.27-.13-.54-.19-.82.14-.02.31-.02.48-.02zm.31 5.09h-.29v10.69h.18c.01-.17.04-.34.04-.51.03-1.31.06-2.63.07-3.94v-6.24zm.69-1.17c-.07 0-.13 0-.2-.01-.03.58-.05 1.16-.08 1.74.06 0 .13 0 .19.01l.09-1.74z"/><path d="M24.49 50.75c.14-.12.29-.25.45-.38.05.01.1.03.16.04-.09.39-.19.77-.32 1.32-.12-.43-.2-.67-.29-.98z"/><path class="st0" d="M35.83 61.74h-.48c.06.27.13.55.19.82-.06.02-.13.04-.19.06-.07-.22-.2-.44-.21-.67-.1-2.24-.24-4.49-.24-6.73 0-2.56.12-5.12.18-7.68.02-.63-.07-1.27.05-1.87.08-.42.08-.8.08-1.21 0-.16.14-.32.23-.53.01-.31.03-.71.05-1.03.16-.29.29-.58.47-.83.2-.28.42-.69.7-.75 1.93-.45 3.87-.96 5.83-1.18 1.87-.2 3.81-.3 5.66-.03 2.56.37 5.13.3 7.68.41 2.05.09 4.12-.22 6.18-.29 1.46-.05 2.91-.28 4.4.04 1.23.26 2.51.23 3.77.33.06 0 .15.03.18 0 .9-.97 2.03-.18 3.03-.38.38-.07.81.17 1.21.42-.28.02-.55.03-.83.05 1.56.39 3.13.43 4.72.42 1.17-.01 2.35-.07 3.53.19 1.39.3 2.82.61 4.26.37 1.26-.21 2.4.25 3.59.43.56.09 1.11.2 1.73.31-.02-.6.26-.84.68-.68.81.31 1.55-.06 2.31-.18.17-.03.37-.25.44-.43.19-.51.53-.49.96-.4.75.17 1.51.3 2.27.44.07.01.15-.04.22-.06.68-.16 1.31-.36 2.07-.15 1.38.38 2.82.53 4.22.87.47.11.88.5 1.31.78.18.11.33.28.52.37.6.28 1.22.5 1.81.79.54.26.86 1.13.88 1.41.09.22.23.43.26.65.09.54.13 1.1.18 1.65.02.18-.06.38 0 .53.18.51.27 1-.02 1.51-.04.07.05.22.07.34.06.38.24.82.13 1.14-.25.71.13 1.39-.03 2.05-.2.83-.04 1.53.25 2.3.15.39-.02.9-.02 1.36 0 .3.07.59.05.88-.02.37-.08.74-.14 1.11-.02.13-.11.26-.1.39.03.77.07 1.54.11 2.31.05.99.07 1.97.14 2.96.04.51.06 1.05.24 1.51.28.69.16 1.29-.08 1.95-.15.42-.17.89-.2 1.35-.04.69-.07 1.38-.06 2.07.02 1 .06 1.99.13 2.99.07.91.25 1.81.29 2.71.06 1.26.04 2.52.04 3.78 0 .34-.03.68-.02 1.02.04 1.42.09 2.83.15 4.25.1 2.67.21 5.33.31 8 .08 2.17.21 4.33.24 6.5.02 1.42-.1 2.85-.16 4.28-.06 1.33-.13 2.66-.22 3.99-.08 1.13-.2 2.26-.28 3.39-.03.41.03.84 0 1.25-.13 1.74-.31 3.49-.39 5.23-.06 1.36.03 2.73 0 4.09-.02.93-.09 1.85-.37 2.77-.2.66-.04 1.42-.09 2.14-.06.82-.01 1.71-.32 2.44-.24.56-.08.92-.04 1.41.07 1.12-.09 2.25-.16 3.38-.03.51-.04 1.01-.06 1.52-.01.12.01.27-.05.35-.49.58-.21 1.25-.29 1.87-.16 1.17-.51 2.31-.77 3.47-.05.23-.01.47-.01.64-.23.67-.49 1.29-.65 1.94-.42 1.7-.8 3.42-1.2 5.13-.01.04 0 .09-.03.12-.98.83-.79 2.13-1.28 3.16-.39.82-.83 1.39-1.87 1.32-1-.06-2.02-.02-3.03.05-.47.04-.92.27-1.38.41-.17.05-.34.11-.51.11-2.05.04-4.1.09-6.16.11-3.87.02-7.74.04-11.61.03-2.02-.01-4.03-.04-6.05-.14-2.37-.12-4.74-.32-7.1-.48-1.25-.08-2.51-.11-3.75-.24-.92-.1-1.83-.37-2.75-.47-1.68-.18-3.37-.23-5.04-.46-1.95-.26-3.91-.57-5.82-1-1.17-.26-2.28-.79-3.4-1.23-1.09-.43-2.16-.91-3.24-1.37-.09-.04-.23-.06-.26-.13-.48-1.09-1.65-1.12-2.51-1.6-.83-.47-1.7-.88-2.55-1.32-.6-.31-.85-.84-.91-1.5-.02-.22-.1-.49-.25-.64-1-.98-1.21-2.28-1.44-3.55-.16-.87-.14-1.78-.2-2.67 0-.04-.01-.09.01-.12.58-.73.27-1.59.38-2.39.06-.47.44-.92.75-1.32.89-1.13 1.8-2.22 1.5-3.82-.04-.22.04-.47.09-.7.09-.38.28-.75.29-1.13.03-.87-.04-1.74-.02-2.61.01-.45.11-.91.18-1.43-.36.26-.59 2.13-.54 3.92-.46-1.01-.44-1.96-.33-2.92.16-1.42.38-2.84.48-4.27.06-.83-.07-1.67-.12-2.51-.01-.14.02-.28 0-.42-.07-.52.39-1.02.06-1.58-.06-.1.13-.39.26-.56.23-.3.45-.55.13-.94-.1-.12-.1-.34-.1-.51.02-.87.03-1.74.08-2.61.03-.55.24-1.11.16-1.64-.16-1.07-.06-2.1.07-3.16.08-.63-.06-1.28-.06-1.91.01-.78.07-1.56.08-2.35.01-.38-.07-.76-.07-1.13 0-.44.02-.88.1-1.33.11-.6.26-1.35-.27-1.92-.03-.03-.06-.06-.06-.1-.03-.77-.05-1.54-.08-2.31-.02-.48-.03-.95-.07-1.43-.04-.55-.13-1.1-.17-1.66-.1-1.36-.22-2.72-.27-4.08-.08-2.39-.1-4.78-.15-7.17-.03-1.53-.09-3.06-.1-4.59-.01-1.59 0-3.18.02-4.77.04-2.48.1-4.97.16-7.45.03-1.23.12-2.46.09-3.69-.03-.98.06-1.98-.45-2.9-.1-.19-.05-.46-.06-.7-.05-.02-.1-.05-.15-.07-.12.23-.34.45-.35.69-.07 1.78-.1 3.57-.16 5.35-.03.71-.11 1.41-.19 2.12-.01.09-.14.16-.31.35-.02-.3-.06-.47-.05-.63.05-.8.15-1.59.17-2.39.02-.57-.07-1.16-.11-1.75.14-1.4.32-2.8.14-4.2-.06.25.06.53-.01.75-.39 1.14-.21 2.3-.13 3.45zM91.38 48.6c.28-.87-.4-1.04-.85-1.41-.23-.19-.55-.66-.48-.77.39-.58.35-1.11.05-1.68a4.86 4.86 0 0 1-.32-.74c-.27-.86-.82-1.19-1.74-1.17-.9.02-1.83.08-2.7-.11-.78-.17-1.49 0-2.22.05-1.33.08-2.66.2-4 .2-1.09 0-2.19-.28-3.27-.2-2.49.17-4.95-.04-7.42-.28-.35-.04-.72-.02-1.07.02-.41.04-.97 0-1.18.24-.3.33-.58.29-.89.29-.54 0-1.1-.14-1.61-.02-1.39.31-2.76.72-4.13 1.1-.78.22-1.58.39-2.32.7-.76.32-1.63.64-2.13 1.23-.48.58-1.03.72-1.63.91-.19.06-.38.12-.58.15-.51.09-.84.35-.89 1.04 1.14-.6 2.28-.28 3.44-.24-.04.05-.06.11-.09.11-.91.09-.82.88-.99 1.47-.02.07.2.26.34.31.54.2 1.09.38 1.63.56-.02.06-.04.11-.06.17-.53.22-1.06.43-1.59.65.53.24 1.02.39 1.58.17.26-.1.6-.01.9.03.17.03.32.15.49.21 1.11.37 2.23.73 3.36 1.1-.11.16-.2.29-.34.49.41-.05.73-.15 1.04-.12.7.07 1.39.21 2.09.31.18.03.35.06.53.06.88.03 1.75.1 2.65-.01 1.64-.2 3.32-.12 4.98-.14 1.3-.02 2.56-.38 3.89-.26 1.62.14 3.26.03 4.9.02 1.54-.01 3.08-.04 4.62-.08.14 0 .32-.08.4-.19.38-.53.93-.62 1.51-.64.52-.02 1.12.13 1.54-.08.78-.38 1.54-.46 2.37-.43.28.01.57-.14.8-.2-.09-.36-.24-.62-.17-.72.2-.27.5-.47.71-.65-.25-.47-.46-.88-.73-1.39.01-.01-.17-.03-.42-.06zm-55.26 7.21c-.1 0-.21.01-.31.01.02.42.05.83.07 1.25.06 0 .12-.01.18-.01l.06-1.25z"/><path class="st0" d="M36.14 66.83c0 2.08.01 4.16 0 6.24-.01 1.31-.04 2.63-.07 3.94 0 .17-.03.34-.04.51h-.18V66.83h.29zM36.83 65.66c-.03.58-.06 1.16-.08 1.74-.06 0-.13 0-.19-.01.03-.58.05-1.16.08-1.74.06.01.12.01.19.01z"/><path d="M91.38 48.6c.26.03.43.05.44.05.27.51.48.91.73 1.39-.21.18-.5.38-.71.65-.07.1.08.36.17.72-.23.06-.52.21-.8.2-.83-.03-1.59.05-2.37.43-.42.21-1.02.06-1.54.08-.58.02-1.13.11-1.51.64-.08.11-.26.19-.4.19-1.54.04-3.08.07-4.62.08-1.63.02-3.28.13-4.9-.02-1.33-.12-2.59.24-3.89.26-1.66.03-3.34-.05-4.98.14-.91.11-1.77.03-2.65.01-.18-.01-.35-.04-.53-.06-.7-.11-1.39-.24-2.09-.31-.31-.03-.63.07-1.04.12.14-.2.23-.33.34-.49-1.14-.37-2.25-.73-3.36-1.1-.17-.06-.32-.18-.49-.21-.3-.04-.64-.13-.9-.03-.56.22-1.06.07-1.58-.17.53-.22 1.06-.43 1.59-.65.02-.06.04-.11.06-.17-.54-.18-1.09-.36-1.63-.56-.14-.05-.36-.24-.34-.31.17-.59.08-1.38.99-1.47.03 0 .05-.06.09-.11-1.15-.04-2.29-.35-3.44.24.05-.69.38-.95.89-1.04.2-.03.39-.09.58-.15.6-.2 1.14-.34 1.63-.91.5-.59 1.37-.91 2.13-1.23.74-.31 1.54-.48 2.32-.7 1.37-.38 2.74-.79 4.13-1.1.51-.11 1.07.03 1.61.02.32 0 .6.04.89-.29.22-.24.77-.2 1.18-.24.36-.04.72-.06 1.07-.02 2.47.25 4.93.46 7.42.28 1.08-.07 2.18.2 3.27.2 1.33 0 2.66-.12 4-.2.74-.05 1.45-.21 2.22-.05.87.19 1.8.14 2.7.11.92-.02 1.47.31 1.74 1.17.08.25.2.5.32.74.3.57.34 1.1-.05 1.68-.07.11.24.58.48.77.42.38 1.11.55.83 1.42zM35.83 61.74c-.08-1.16-.26-2.31.13-3.46.07-.21-.06-.49.01-.75.18 1.41 0 2.81-.14 4.21zM36.12 55.81l-.06 1.25c-.06 0-.12.01-.18.01-.02-.42-.05-.83-.07-1.25.1 0 .2-.01.31-.01z"/></svg>