<?xml version="1.0" encoding="utf-8"?>
<!-- Generator: Adobe Illustrator 26.5.0, SVG Export Plug-In . SVG Version: 6.00 Build 0)  -->
<svg version="1.1" id="Vrstva_1" xmlns="http://www.w3.org/2000/svg" xmlns:xlink="http://www.w3.org/1999/xlink" x="0px" y="0px" viewBox="0 0 181.68 219.6" style="enable-background: new 0 0 181.68 219.6" xml:space="preserve">
<style>.st0 {
  fill: #fff;
}

</style>
<g>
	<path d="M70.38,197.14c-0.1-0.93-1.29-1.48-3.08-1.46c-0.26-0.38-0.49-0.73-0.77-1.14c-0.29,0.31-0.52,0.56-0.75,0.81
		c0.04,0.05,0.08,0.1,0.12,0.16c-0.38,0-0.76,0-1.26,0c-0.03-0.29-0.07-0.61-0.11-0.97c-0.54,0.09-0.91-0.24-1.28-0.74
		c-0.37-0.51-0.87-0.9-0.93-1.59c-0.01-0.07-0.07-0.15-0.13-0.19c-0.46-0.38-0.62-0.85-0.72-1.46c-0.17-1.12-0.49-2.23-1.12-3.23
		c-0.3-0.48-0.44-1.07-0.65-1.61c-0.02-0.05-0.04-0.12-0.08-0.16c-0.66-0.52-0.65-1.37-0.98-2.05c-0.43-0.89-0.83-1.8-1.2-2.72
		c-0.34-0.86-0.6-1.75-0.96-2.61c-0.77-1.88-1.6-3.73-2.37-5.61c-0.83-2.02-1.65-4.04-2.42-6.08c-0.25-0.66-0.32-1.39-0.54-2.06
		c-0.15-0.44-0.46-0.83-0.65-1.25c-0.53-1.17-1.04-2.36-1.56-3.54c-0.48-1.09-0.95-2.19-1.46-3.27c-0.7-1.51-1.41-3.01-2.15-4.5
		c-0.21-0.42-0.55-0.78-0.79-1.19c-0.19-0.32-0.3-0.68-0.49-1c-0.38-0.64-0.8-1.26-1.17-1.91c-0.3-0.51-0.53-1.05-0.84-1.55
		c-0.12-0.2-0.39-0.3-0.54-0.48c-0.51-0.62-1-1.25-1.21-2.05c-0.04-0.15-0.1-0.31-0.21-0.42c-1.64-1.67-2.58-3.78-3.65-5.81
		c-0.17-0.33-0.41-0.63-0.63-0.93c-0.64-0.83-1.11-1.74-1.57-2.69c-0.39-0.79-1.04-1.46-1.56-2.19c-0.12-0.17-0.18-0.38-0.27-0.58
		c-0.43-0.96-0.85-1.92-1.28-2.87c-0.02-0.05-0.05-0.12-0.09-0.16c-0.78-0.66-0.91-1.65-1.3-2.51c-0.16-0.35-0.54-0.6-0.68-0.95
		c-0.28-0.66-0.46-1.36-0.68-2.05c-0.24-0.77-0.37-1.6-0.76-2.28c-0.32-0.56-0.96-0.92-1.42-1.41c-0.34-0.36-0.62-0.77-0.91-1.17
		c-0.08-0.11-0.16-0.31-0.11-0.39c0.66-0.95-0.03-1.79-0.23-2.65c-0.25-1.06-0.66-2.08-0.95-3.13c-0.06-0.2,0.1-0.45,0.16-0.68
		c0.08-0.31,0.29-0.65,0.21-0.91c-0.14-0.48-0.49-0.9-0.66-1.38c-0.24-0.68-0.41-1.38-0.13-2.1c0.05-0.13,0.08-0.33,0.01-0.43
		c-0.61-0.93-0.28-1.98-0.42-2.97c-0.09-0.62-0.11-1.24-0.12-1.86c0-0.18,0.17-0.35,0.21-0.54c0.04-0.19,0.06-0.4,0.02-0.58
		c-0.14-0.63-0.32-1.25-0.46-1.88c-0.02-0.11,0.04-0.33,0.12-0.36c0.48-0.22,0.41-0.67,0.24-0.92c-0.65-0.98-0.51-2.08-0.5-3.14
		c0.01-2.09,0.08-4.18,0.14-6.28c0.03-1.11,0.04-2.23,0.14-3.33c0.13-1.35,0.28-2.71,0.54-4.05c0.39-2.03,0.86-4.05,1.35-6.05
		c0.18-0.75,0.57-1.45,0.77-2.19c0.27-1.01,0.65-1.93,1.21-2.83c0.52-0.84,0.74-1.87,1.21-2.75c1.06-1.98,2.18-3.92,3.3-5.86
		c0.84-1.46,1.73-2.9,2.58-4.37c0.39-0.68,0.65-1.45,1.12-2.07c0.86-1.14,1.78-2.25,2.77-3.28c1.12-1.17,2.34-2.24,3.52-3.36
		c0.27-0.26,0.53-0.54,0.82-0.78c1.73-1.46,3.5-2.87,5.2-4.37c1.29-1.15,2.92-1.71,4.31-2.69c1.79-1.25,3.62-2.45,5.43-3.67
		c0.07-0.04,0.16-0.07,0.2-0.13c0.66-1.14,1.93-1.78,2.48-3.04c0.18-0.42,0.74-0.69,1.16-0.99c0.36-0.26,0.75-0.45,1.13-0.68
		c0.2-0.12,0.4-0.25,0.6-0.38c0.61-0.4,1.22-0.8,1.82-1.21c0.66-0.45,1.29-0.94,1.96-1.38c0.22-0.15,0.52-0.18,0.78-0.27
		c1.43-0.48,2.86-1,4.3-1.44c3.79-1.16,7.64-1.93,11.61-2.15c3.68-0.21,7.35-0.57,11.03-0.82c0.9-0.06,1.81,0.04,2.72,0.03
		c0.29,0,0.57-0.16,0.86-0.16c0.42,0.01,0.84,0.1,1.26,0.15c0.48,0.06,0.97,0.14,1.45,0.15c0.37,0.01,0.77-0.19,1.1-0.1
		c2.79,0.74,5.6,1.43,8.34,2.34c1.55,0.51,2.97,1.4,4.44,2.12c0.97,0.47,1.97,0.89,2.89,1.44c1.27,0.77,2.44,1.71,3.71,2.47
		c1.25,0.74,2.44,1.52,3.34,2.68c1.1,1.42,2.34,2.74,3.09,4.43c0.22,0.5,0.86,0.81,1.32,1.2c0.29,0.24,0.59,0.48,0.9,0.7
		c0.12,0.08,0.29,0.08,0.44,0.11c0.05-0.08,0.1-0.16,0.15-0.23c0.85,1.33,1.71,2.65,2.56,3.98c0.28,0.44,0.44,0.92,0.94,1.24
		c0.34,0.22,0.5,0.72,0.71,1.11c0.13,0.23,0.19,0.5,0.56,0.29c0.04-0.03,0.29,0.18,0.35,0.32c0.65,1.43,1.24,2.88,1.92,4.3
		c0.68,1.42,1.44,2.81,2.15,4.22c0.19,0.37,0.28,0.79,0.46,1.17c0.16,0.33,0.43,0.62,0.56,0.96c0.15,0.41,0.21,0.86,0.31,1.3
		c0.08,0.34,0.13,0.62,0.61,0.73c0.18,0.04,0.22,0.74,0.31,1.14c0.02,0.08-0.08,0.23-0.05,0.27c0.7,0.68,0.47,1.65,0.8,2.44
		c0.57,1.41,0.51,2.92,0.68,4.39c0.12,1.03-0.14,2.1-0.22,3.15c-0.03,0.38-0.04,0.75-0.08,1.13c-0.28,2.47-0.6,4.94-1.38,7.32
		c-0.4,1.22-0.83,2.42-1.22,3.64c-0.24,0.75-0.4,1.54-0.67,2.28c-0.78,2.12-1.58,4.24-2.41,6.34c-0.28,0.7-0.71,1.33-1.05,2.01
		c-0.34,0.69-0.6,1.42-0.96,2.1c-0.24,0.45-0.6,0.82-0.88,1.25c-1.13,1.68-2.23,3.37-3.37,5.04c-0.41,0.6-0.86,1.18-1.34,1.73
		c-0.22,0.25-0.6,0.36-0.82,0.62c-0.17,0.2-0.21,0.53-0.3,0.8c0.07,0.06,0.14,0.13,0.21,0.19c0.31-0.15,0.62-0.32,0.94-0.44
		c0.13-0.05,0.3,0.03,0.44,0.06c-0.09,0.41-0.18,0.83-0.28,1.24c-0.03,0.1-0.15,0.18-0.18,0.28c-0.17,0.57-0.13,1.18-0.77,1.59
		c-0.31,0.2-0.39,0.79-0.5,1.23c-0.31,1.2-1.27,1.98-1.88,2.98c-0.27,0.44-0.45,0.95-0.66,1.43c-0.2,0.45-0.36,0.92-0.59,1.35
		c-0.54,0.99-1.03,2.02-1.71,2.91c-0.5,0.65-0.72,1.27-0.52,2.09c-0.78-0.04-1.12,0.45-1.36,1.04c-0.22,0.55-0.35,1.14-0.62,1.66
		c-0.29,0.57-0.7,1.07-1.03,1.61c-0.53,0.84-1.05,1.7-1.57,2.55c-0.14,0.24-0.26,0.49-0.39,0.73c-0.3,0.58-0.78,1.03-0.83,1.78
		c-0.03,0.52-0.49,1.01-0.73,1.52c-0.43,0.94-0.82,1.89-1.25,2.82c-0.15,0.32-0.42,0.59-0.56,0.91c-0.45,1.02-0.85,2.07-1.3,3.09
		c-0.52,1.19-1.14,2.34-1.61,3.55c-0.21,0.55-0.61,0.9-0.96,1.32c-0.04,0.04-0.1,0.09-0.1,0.14c0.02,1.15-1,1.91-1.15,3
		c-0.03,0.19-0.32,0.34-0.48,0.51c-0.14,0.15-0.29,0.3-0.42,0.46c-0.15,0.18-0.29,0.37-0.47,0.54c-0.17,0.24-0.35,0.47-0.51,0.72
		c-0.11,0.17-0.25,0.36-0.26,0.55c-0.04,0.75-0.3,1.39-0.73,2.01c-0.44,0.64-0.75,1.36-1.12,2.04c-0.05,0.08-0.09,0.2-0.17,0.23
		c-1.05,0.4-1.22,1.42-1.62,2.28c-0.32,0.7-0.57,1.44-0.89,2.14c-0.08,0.18-0.33,0.28-0.46,0.37c-0.04,0.41-0.07,0.81-0.11,1.26
		c-0.63-0.17-0.88,0.02-0.96,0.6c-0.04,0.31-0.26,0.64-0.48,0.88c-0.51,0.57-0.86,1.23-1.48,1.74c-0.6,0.48-0.91,1.32-1.33,2
		c-0.24,0.39-0.46,0.78-0.67,1.18c-0.34,0.67-0.62,1.36-0.98,2.02c-0.81,1.48-1.64,2.95-2.49,4.41c-0.65,1.12-1.32,2.22-2,3.32
		c-0.55,0.89-1.3,1.7-1.63,2.66c-0.36,1.03-1.18,1.66-1.66,2.57c-0.45,0.86-1.13,1.59-1.67,2.4c-0.13,0.2-0.19,0.47-0.2,0.72
		c-0.03,0.38-0.1,0.56-0.52,0.76c-0.49,0.23-0.83,0.81-1.18,1.27c-0.32,0.43-0.54,0.95-0.85,1.39c-0.59,0.82-1.21,1.62-1.75,2.34
		c-0.23,0.2-0.39,0.36-0.58,0.48c-0.68,0.43-0.84,1.19-1.24,1.81c-0.35,0.55-0.77,1.05-1.07,1.66c-0.22,0.44-0.86,0.67-1.32,0.99
		c-0.25,0.18-0.67,0.3-0.74,0.53c-0.3,0.96-1.17,0.64-1.77,0.81c-0.34,0.1-0.8-0.03-1.23,0.08c-0.45,0.12-0.93,0.13-1.39,0.19
		c-0.14,0.02-0.3,0.02-0.4,0.1C71.88,197.09,71.17,197.17,70.38,197.14z M44.33,111.72c-0.12,0.49,0.22,1.42,0.61,1.77
		c0.12,0.1,0.22,0.26,0.27,0.4c0.13,0.41,0.18,0.84,0.34,1.24c0.24,0.59,0.57,1.13,0.81,1.72c0.66,1.58,1.23,3.19,1.95,4.74
		c0.58,1.25,1.27,2.46,2.02,3.63c0.81,1.27,1.42,2.65,2.34,3.87c0.85,1.13,1.48,2.42,2.23,3.63c0.82,1.33,1.64,2.64,2.48,3.96
		c0.2,0.32,0.47,0.61,0.68,0.93c0.41,0.63,0.81,1.26,1.18,1.91c0.3,0.53,0.55,1.1,0.82,1.65c0.13,0.15,0.29,0.28,0.37,0.45
		c0.25,0.48,0.43,0.99,0.7,1.45c0.58,1.01,1.01,2.08,1.45,3.15c0.32,0.79,0.81,1.52,1.21,2.27c0.06,0.11,0.09,0.24,0.11,0.37
		c0.04,0.31-0.06,0.7,0.1,0.91c0.51,0.7,0.68,1.55,1.06,2.29c0.49,0.94,0.78,1.92,1.06,2.93c0.3,1.07,0.6,2.14,0.96,3.19
		c0.33,0.96,0.76,1.89,1.14,2.83c0.06,0.15,0.1,0.3,0.15,0.45c0.16,0.5,0.3,1.02,0.5,1.51c0.53,1.33,1.05,2.67,1.65,3.98
		c0.23,0.5,0.06,1.07,0.35,1.53c0.38,0.59,0.57,1.23,0.77,1.9c0.24,0.82,0.76,1.55,1.07,2.35c0.26,0.68,0.34,1.43,0.58,2.12
		c0.22,0.61,0.55,1.18,0.89,1.89c0.38-0.58,0.65-1.02,0.95-1.43c0.68-0.93,1.42-1.81,2.06-2.76c0.34-0.5,0.53-1.11,0.81-1.66
		c0.55-1.09,1.13-2.18,1.69-3.27c0.6-1.16,1.18-2.34,1.8-3.49c0.56-1.05,1.18-2.07,1.75-3.11c0.99-1.81,1.94-3.65,2.94-5.45
		c0.85-1.54,1.76-3.06,2.63-4.59c1.26-2.21,2.43-4.49,3.81-6.63c1.3-2.01,2.57-4.01,3.43-6.26c0.56-1.47,1.16-2.93,1.78-4.37
		c0.76-1.76,1.58-3.49,2.34-5.25c0.39-0.91,0.63-1.88,1.03-2.78c0.41-0.95,0.91-1.86,1.41-2.77c1.45-2.61,2.88-5.23,4.41-7.8
		c1.2-2.03,2.51-3.99,3.82-5.96c0.73-1.1,1.55-2.15,2.31-3.23c0.22-0.32,0.38-0.68,0.57-1.02c-0.02-0.06-0.03-0.11-0.05-0.17
		c-0.66,0.42-0.67,0.02-0.66-0.37c0.01-0.16,0.06-0.32,0.12-0.46c0.33-0.72,0.77-1.4,1-2.15c0.46-1.53,1.39-2.76,2.25-4.04
		c0.33-0.49,0.6-1.02,0.87-1.54c0.15-0.3,0.23-0.64,0.38-0.94c1.09-2.19,2.06-4.42,2.6-6.82c0.06-0.27,0.19-0.54,0.2-0.81
		c0.04-0.78,0.31-1.42,0.76-2.07c0.29-0.41,0.29-1.03,0.38-1.57c0.05-0.28,0.01-0.57,0.01-0.86c0.72,0.02,1.19-0.36,1.08-0.95
		c-0.22-1.21,0.52-2.19,0.67-3.3c0.14-1,0.57-1.97,0.66-2.97c0.11-1.22,0.03-2.46-0.01-3.69c-0.02-0.53-0.28-1.08-0.18-1.58
		c0.18-0.9-0.19-1.71-0.43-2.46c-0.58-1.78-1.39-3.49-2.15-5.21c-0.38-0.87-0.86-1.69-1.28-2.55c-0.63-1.28-1.24-2.58-1.87-3.86
		c-0.55-1.11-1.05-2.25-1.68-3.31c-0.71-1.19-1.51-2.32-2.33-3.43c-0.19-0.26-0.77-0.56-0.95-0.46c-0.78,0.44-1.04-0.13-1.38-0.57
		c-0.71-0.91-1.17-2.05-2.33-2.55c-0.06-0.03,0-0.25-0.06-0.35c-0.07-0.14-0.24-0.38-0.28-0.36c-0.42,0.17-0.61-0.11-0.87-0.34
		c-0.25-0.22-0.56-0.38-0.86-0.51c-0.45-0.19-0.93-0.29-1.37-0.49c-2.15-0.99-4.12-2.34-6.48-2.87c-1.82-0.41-3.61-0.99-5.48-1.12
		c-2.49-0.17-4.96-0.1-7.43,0.42c-1.37,0.29-2.8,0.33-4.21,0.4c-2.17,0.1-4.32,0.32-6.43,0.82c-2.02,0.49-4.03,1.06-6.04,1.6
		c-0.23,0.06-0.5,0.11-0.66,0.27c-0.34,0.32-0.65,0.69-0.93,1.08c-0.17,0.24-0.19,0.65-0.4,0.78c-0.73,0.44-0.77,1.11-0.73,1.99
		c-0.33-0.06-0.64-0.13-0.95-0.16c-0.12-0.01-0.29-0.01-0.38,0.06c-0.27,0.24-0.55,0.49-0.76,0.78c-0.48,0.69-0.94,1.36-1.93,1.37
		c-0.36,0-0.73,0.19-1.06,0.35c-0.65,0.33-1.28,0.69-1.9,1.06c-1.35,0.81-2.73,1.57-4.03,2.46c-1.17,0.8-2.28,1.72-3.37,2.63
		c-0.75,0.63-1.42,1.36-2.13,2.03c-0.2,0.19-0.5,0.3-0.64,0.51c-0.6,0.92-1.17,1.87-1.73,2.82c-0.37,0.61-0.63,1.31-1.1,1.83
		c-0.58,0.64-0.96,1.28-0.9,2.15c0.01,0.21-0.03,0.42-0.05,0.62c-0.6,0.02-0.6,0.02-0.82,0.53c-0.11,0.24-0.17,0.52-0.34,0.7
		c-0.53,0.56-0.68,1.2-0.64,1.95c0.01,0.21-0.25,0.57-0.46,0.63c-0.45,0.13-0.47,0.41-0.28,0.66c0.27,0.37,0.14,0.69,0.01,1.01
		c-0.2,0.5-0.42,1-0.71,1.45c-1.02,1.59-1.34,3.42-1.83,5.19c-0.24,0.86-0.28,1.78-0.41,2.67c-0.14,0.99-0.35,1.97-0.41,2.96
		c-0.09,1.46-0.07,2.93-0.1,4.4c-0.02,0.86-0.03,1.71-0.05,2.57c-0.04,1.49,0.62,2.96,0.12,4.47c-0.03,0.1,0.04,0.23,0.04,0.35
		c0.01,0.65,0.35,1.23,0.33,1.93c-0.04,1.15,0.19,2.3,0.29,3.46c0.08,0.82,0.11,1.65,0.23,2.46c0.17,1.14,0.36,2.28,0.64,3.39
		c0.28,1.13,0.88,2.17,0.82,3.39c-0.01,0.19,0.24,0.57,0.37,0.57c0.48-0.01,0.65,0.27,0.83,0.63
		C43.95,111.54,44.15,111.6,44.33,111.72z"></path>
	<path d="M66.17,195.28c0.28,0.09,0.51,0.1,0.58,0.21c0.46,0.71,0.41,1.24-0.18,1.61C66.45,196.55,66.33,196.03,66.17,195.28z"></path>
	<path class="st0" d="M44.33,111.72c-0.18-0.12-0.38-0.18-0.45-0.31c-0.18-0.36-0.34-0.63-0.83-0.63c-0.13,0-0.38-0.38-0.37-0.57
		c0.06-1.22-0.54-2.26-0.82-3.39c-0.28-1.12-0.47-2.25-0.64-3.39c-0.12-0.81-0.15-1.64-0.23-2.46c-0.11-1.15-0.34-2.31-0.29-3.46
		c0.03-0.7-0.32-1.27-0.33-1.93c0-0.12-0.08-0.25-0.04-0.35c0.5-1.5-0.16-2.98-0.12-4.47c0.02-0.86,0.04-1.71,0.05-2.57
		c0.03-1.47,0.01-2.94,0.1-4.4c0.06-0.99,0.27-1.97,0.41-2.96c0.13-0.89,0.17-1.81,0.41-2.67c0.49-1.77,0.81-3.6,1.83-5.19
		c0.29-0.45,0.51-0.95,0.71-1.45c0.12-0.31,0.26-0.64-0.01-1.01c-0.19-0.25-0.16-0.53,0.28-0.66c0.2-0.06,0.47-0.42,0.46-0.63
		c-0.04-0.75,0.12-1.39,0.64-1.95c0.17-0.18,0.23-0.46,0.34-0.7c0.23-0.51,0.22-0.51,0.82-0.53c0.02-0.2,0.07-0.41,0.05-0.62
		c-0.06-0.87,0.32-1.51,0.9-2.15c0.47-0.52,0.74-1.22,1.1-1.83c0.57-0.95,1.13-1.89,1.73-2.82c0.14-0.22,0.44-0.33,0.64-0.51
		c0.71-0.67,1.38-1.4,2.13-2.03c1.09-0.92,2.19-1.83,3.37-2.63c1.3-0.89,2.68-1.65,4.03-2.46c0.62-0.37,1.26-0.73,1.9-1.06
		c0.33-0.17,0.7-0.35,1.06-0.35c0.99-0.01,1.44-0.68,1.93-1.37c0.21-0.29,0.49-0.54,0.76-0.78c0.08-0.07,0.25-0.08,0.38-0.06
		c0.31,0.04,0.61,0.1,0.95,0.16c-0.03-0.88,0-1.55,0.73-1.99c0.21-0.13,0.23-0.54,0.4-0.78c0.28-0.38,0.59-0.75,0.93-1.08
		c0.16-0.15,0.43-0.2,0.66-0.27c2.01-0.54,4.01-1.11,6.04-1.6c2.11-0.51,4.26-0.72,6.43-0.82c1.41-0.07,2.84-0.11,4.21-0.4
		c2.47-0.52,4.94-0.59,7.43-0.42c1.87,0.13,3.66,0.71,5.48,1.12c2.36,0.53,4.33,1.89,6.48,2.87c0.44,0.2,0.92,0.3,1.37,0.49
		c0.31,0.13,0.61,0.29,0.86,0.51c0.26,0.23,0.45,0.51,0.87,0.34c0.04-0.02,0.21,0.22,0.28,0.36c0.05,0.1,0,0.33,0.06,0.35
		c1.16,0.51,1.62,1.64,2.33,2.55c0.34,0.44,0.6,1.01,1.38,0.57c0.18-0.1,0.75,0.2,0.95,0.46c0.82,1.11,1.62,2.24,2.33,3.43
		c0.63,1.06,1.14,2.2,1.68,3.31c0.63,1.28,1.24,2.58,1.87,3.86c0.42,0.85,0.9,1.68,1.28,2.55c0.76,1.72,1.57,3.43,2.15,5.21
		c0.24,0.75,0.62,1.56,0.43,2.46c-0.1,0.49,0.16,1.05,0.18,1.58c0.04,1.23,0.12,2.47,0.01,3.69c-0.09,1-0.53,1.97-0.66,2.97
		c-0.15,1.12-0.89,2.1-0.67,3.3c0.11,0.59-0.36,0.97-1.08,0.95c0,0.29,0.04,0.58-0.01,0.86c-0.09,0.53-0.09,1.15-0.38,1.57
		c-0.45,0.65-0.72,1.3-0.76,2.07c-0.01,0.27-0.14,0.54-0.2,0.81c-0.54,2.4-1.51,4.63-2.6,6.82c-0.15,0.3-0.23,0.64-0.38,0.94
		c-0.27,0.52-0.54,1.05-0.87,1.54c-0.87,1.29-1.8,2.52-2.25,4.04c-0.22,0.75-0.66,1.43-1,2.15c-0.07,0.14-0.12,0.3-0.12,0.46
		c-0.02,0.4-0.01,0.79,0.66,0.37c0.02,0.06,0.03,0.11,0.05,0.17c-0.19,0.34-0.35,0.7-0.57,1.02c-0.76,1.08-1.58,2.13-2.31,3.23
		c-1.3,1.97-2.61,3.93-3.82,5.96c-1.52,2.57-2.96,5.19-4.41,7.8c-0.5,0.9-1,1.82-1.41,2.77c-0.4,0.9-0.64,1.87-1.03,2.78
		c-0.75,1.76-1.58,3.49-2.34,5.25c-0.62,1.44-1.22,2.9-1.78,4.37c-0.86,2.25-2.13,4.25-3.43,6.26c-1.38,2.13-2.55,4.41-3.81,6.63
		c-0.87,1.53-1.78,3.04-2.63,4.59c-1,1.81-1.95,3.64-2.94,5.45c-0.57,1.05-1.19,2.06-1.75,3.11c-0.62,1.15-1.2,2.33-1.8,3.49
		c-0.56,1.09-1.13,2.17-1.69,3.27c-0.28,0.55-0.47,1.16-0.81,1.66c-0.64,0.95-1.38,1.84-2.06,2.76c-0.3,0.41-0.57,0.85-0.95,1.43
		c-0.34-0.71-0.67-1.28-0.89-1.89c-0.24-0.69-0.32-1.44-0.58-2.12c-0.31-0.8-0.83-1.54-1.07-2.35c-0.2-0.67-0.4-1.31-0.77-1.9
		c-0.29-0.46-0.12-1.02-0.35-1.53c-0.59-1.31-1.12-2.64-1.65-3.98c-0.19-0.49-0.33-1-0.5-1.51c-0.05-0.15-0.09-0.31-0.15-0.45
		c-0.38-0.94-0.8-1.87-1.14-2.83c-0.37-1.05-0.67-2.12-0.96-3.19c-0.28-1-0.57-1.99-1.06-2.93c-0.38-0.74-0.56-1.58-1.06-2.29
		c-0.16-0.21-0.06-0.6-0.1-0.91c-0.01-0.13-0.05-0.26-0.11-0.37c-0.4-0.76-0.89-1.48-1.21-2.27c-0.44-1.07-0.87-2.14-1.45-3.15
		c-0.27-0.46-0.45-0.97-0.7-1.45c-0.09-0.17-0.24-0.3-0.37-0.45c-0.27-0.55-0.52-1.11-0.82-1.65c-0.37-0.65-0.77-1.28-1.18-1.91
		c-0.21-0.32-0.47-0.6-0.68-0.93c-0.83-1.31-1.66-2.63-2.48-3.96c-0.74-1.21-1.38-2.5-2.23-3.63c-0.92-1.22-1.53-2.6-2.34-3.87
		c-0.74-1.16-1.44-2.37-2.02-3.63c-0.72-1.55-1.29-3.16-1.95-4.74c-0.24-0.58-0.58-1.13-0.81-1.72c-0.16-0.39-0.21-0.83-0.34-1.24
		c-0.05-0.15-0.15-0.3-0.27-0.4C44.55,113.14,44.21,112.2,44.33,111.72z M107.76,84.13c0.75-1.15,0.79-2.29,0.92-3.58
		c-0.34,0.84-0.62,1.54-0.9,2.23c-0.08-0.27-0.05-0.52,0-0.76c0.4-1.93,0.8-3.86,1.22-5.78c0.12-0.53,0.18-1.19,0.53-1.53
		c0.49-0.49,0.59-0.91,0.42-1.52c-0.06-0.21,0-0.53,0.13-0.7c0.26-0.33,0.4-0.62,0.2-1.03c-0.06-0.13-0.06-0.32-0.04-0.47
		c0.1-0.59,0.22-1.17,0.32-1.75c0.02-0.11-0.06-0.23-0.06-0.35c-0.01-0.65-0.14-1.33,0.01-1.94c0.15-0.64,0.26-1.22,0.11-1.87
		c-0.11-0.46,0.02-0.87,0.54-1.04c-0.57-0.39-0.73-1.08-0.42-1.7c0.05-0.09,0.07-0.27,0.02-0.33c-0.52-0.57-0.16-1.41-0.75-2.05
		c-0.52-0.56-0.69-1.46-1.25-2.09c-0.49-0.55-0.77-1.35-1.34-1.72c-1.25-0.8-2.12-2.15-3.65-2.51c-0.09-0.02-0.21-0.07-0.26-0.15
		c-0.3-0.5-0.82-0.63-1.32-0.81c-1.42-0.54-2.82-1.12-4.24-1.66c-0.69-0.26-1.4-0.44-2.1-0.65c-0.98-0.3-1.95-0.65-2.95-0.89
		c-1.02-0.24-2.08-0.31-3.09-0.57c-1.47-0.38-2.92-0.69-4.45-0.36c-0.75,0.16-1.53,0.13-2.29,0.26c-0.76,0.14-1.51,0.35-2.25,0.57
		c-0.6,0.18-1.28,0.32-1.75,0.7c-0.47,0.38-0.93,0.55-1.48,0.64c-0.18,0.03-0.37,0.15-0.52,0.27c-0.71,0.58-1.43,1.16-2.11,1.78
		c-0.79,0.72-1.56,1.46-2.32,2.21c-1.45,1.44-2.77,3.04-4.35,4.31c-1.22,0.98-1.88,2.29-2.78,3.45c-0.58,0.75-0.98,1.63-1.83,2.14
		c-0.08,0.05-0.18,0.11-0.23,0.19c-0.75,1.28-1.52,2.55-2.22,3.86c-0.99,1.86-1.96,3.73-2.88,5.63c-0.7,1.45-1.61,2.81-1.49,4.58
		c0.08,1.16-0.02,2.34,0.27,3.49c0.29,1.18,0.62,2.35,1.37,3.35c0.89,1.19,1.74,2.42,2.61,3.62c0.65,0.9,1.19,1.89,2.18,2.5
		c0.83,0.51,1.6,1.12,2.44,1.61c1.3,0.76,2.58,1.62,3.98,2.13c1.63,0.59,3.36,0.97,5.08,1.2c2.38,0.32,4.73,1,7.18,0.58
		c2.13-0.37,4.27-0.67,6.39-1.05c0.48-0.09,0.92-0.41,1.37-0.64c0.87-0.44,2.06-0.11,2.69-1.13c0.05-0.08,0.22-0.08,0.33-0.11
		c0.23-0.07,0.45-0.15,0.68-0.19c1.02-0.18,1.96-0.82,3.07-0.48c0.1,0.03,0.25-0.02,0.33-0.08c0.35-0.27,0.69-0.56,1.02-0.84
		c-0.11-0.2-0.19-0.36-0.31-0.6c0.2-0.04,0.33-0.09,0.47-0.09c0.6,0,1.09-0.11,1.39-0.75c0.2-0.43,0.54-0.98,0.93-1.09
		c0.61-0.17,0.94-0.47,1.24-0.97c0.18-0.31,0.46-0.55,0.72-0.81c0.26-0.26,0.55-0.51,0.9-0.84c0.02,0,0.19,0.01,0.35,0.02
		c-0.03-0.05-0.06-0.11-0.1-0.16c0.22-0.2,0.41-0.51,0.66-0.58c0.67-0.19,0.69-0.17,0.33-0.77c0.27-0.2,0.56-0.38,0.81-0.6
		c0.29-0.27,0.6-0.55,0.81-0.88c0.2-0.31,0.26-0.7,0.4-1.04c0.19-0.44,0.64-0.51,1-0.17C107.56,83.82,107.62,83.94,107.76,84.13z"></path>
	<path d="M107.76,84.13c-0.14-0.2-0.2-0.31-0.28-0.39c-0.35-0.34-0.8-0.27-1,0.17c-0.15,0.34-0.21,0.73-0.4,1.04
		c-0.21,0.33-0.51,0.61-0.81,0.88c-0.25,0.23-0.54,0.4-0.81,0.6c0.36,0.61,0.34,0.59-0.33,0.77c-0.25,0.07-0.44,0.38-0.66,0.58
		c0.03,0.05,0.06,0.11,0.1,0.16c-0.17-0.01-0.33-0.02-0.35-0.02c-0.36,0.33-0.64,0.57-0.9,0.84c-0.25,0.26-0.54,0.5-0.72,0.81
		c-0.29,0.5-0.63,0.8-1.24,0.97c-0.39,0.11-0.73,0.66-0.93,1.09c-0.3,0.64-0.79,0.74-1.39,0.75c-0.14,0-0.28,0.05-0.47,0.09
		c0.12,0.24,0.2,0.39,0.31,0.6c-0.33,0.28-0.67,0.57-1.02,0.84c-0.08,0.07-0.24,0.11-0.33,0.08c-1.1-0.34-2.05,0.3-3.07,0.48
		c-0.23,0.04-0.46,0.12-0.68,0.19c-0.11,0.03-0.29,0.03-0.33,0.11c-0.64,1.01-1.83,0.68-2.69,1.13c-0.45,0.23-0.89,0.55-1.37,0.64
		c-2.12,0.39-4.26,0.68-6.39,1.05c-2.45,0.43-4.8-0.26-7.18-0.58c-1.72-0.23-3.45-0.61-5.08-1.2c-1.4-0.5-2.68-1.37-3.98-2.13
		c-0.84-0.49-1.61-1.1-2.44-1.61c-0.99-0.61-1.53-1.6-2.18-2.5c-0.88-1.2-1.72-2.43-2.61-3.62c-0.75-1.01-1.08-2.17-1.37-3.35
		c-0.28-1.15-0.19-2.32-0.27-3.49c-0.12-1.77,0.8-3.13,1.49-4.58c0.91-1.9,1.88-3.77,2.88-5.63c0.7-1.31,1.47-2.58,2.22-3.86
		c0.05-0.08,0.15-0.14,0.23-0.19c0.85-0.51,1.25-1.39,1.83-2.14c0.9-1.16,1.56-2.48,2.78-3.45c1.58-1.27,2.9-2.87,4.35-4.31
		c0.76-0.75,1.53-1.49,2.32-2.21c0.68-0.62,1.4-1.19,2.11-1.78c0.15-0.12,0.34-0.24,0.52-0.27c0.56-0.08,1.01-0.25,1.48-0.64
		c0.46-0.38,1.14-0.51,1.75-0.7c0.74-0.23,1.49-0.44,2.25-0.57c0.75-0.13,1.54-0.1,2.29-0.26c1.53-0.33,2.98-0.02,4.45,0.36
		c1.01,0.26,2.07,0.33,3.09,0.57c1,0.24,1.97,0.59,2.95,0.89c0.7,0.22,1.42,0.4,2.1,0.65c1.42,0.53,2.82,1.12,4.24,1.66
		c0.5,0.19,1.01,0.32,1.32,0.81c0.05,0.07,0.16,0.13,0.26,0.15c1.53,0.37,2.41,1.71,3.65,2.51c0.58,0.37,0.86,1.18,1.34,1.72
		c0.56,0.63,0.73,1.53,1.25,2.09c0.6,0.64,0.23,1.48,0.75,2.05c0.05,0.06,0.03,0.24-0.02,0.33c-0.31,0.62-0.15,1.31,0.42,1.7
		c-0.52,0.18-0.65,0.59-0.54,1.04c0.15,0.64,0.05,1.23-0.11,1.87c-0.15,0.61-0.02,1.29-0.01,1.94c0,0.12,0.08,0.24,0.06,0.35
		c-0.1,0.59-0.23,1.17-0.32,1.75c-0.03,0.15-0.02,0.34,0.04,0.47c0.19,0.41,0.06,0.7-0.2,1.03c-0.13,0.17-0.19,0.49-0.13,0.7
		c0.17,0.61,0.07,1.03-0.42,1.52c-0.35,0.34-0.41,1-0.53,1.53c-0.42,1.92-0.82,3.85-1.22,5.78c-0.05,0.24-0.08,0.49,0,0.76
		c0.28-0.69,0.56-1.38,0.9-2.23C108.55,81.84,108.5,82.98,107.76,84.13z M75.33,70.91c-0.71-0.3-0.87-0.32-0.95,0.36
		c-0.1,0.86-0.69,1.57-0.52,2.51c0.12,0.66-0.16,1.38-0.08,2.06c0.09,0.73,0.3,1.48,0.61,2.15c0.25,0.53,0.7,0.98,1.13,1.39
		c0.8,0.78,1.65,1.51,2.49,2.25c0.04,0.04,0.11,0.05,0.17,0.06c1.09,0.3,2.17,0.66,3.27,0.9c1.78,0.38,3.59,0.35,5.35-0.01
		c2.2-0.45,4.38-1.05,6.56-1.62c0.25-0.07,0.52-0.35,0.62-0.6c0.17-0.44,0.22-0.92,0.32-1.38c0.27-1.25,0.57-2.49,0.79-3.75
		c0.07-0.41-0.05-0.87-0.11-1.3c-0.07-0.55-0.22-1.09-0.23-1.64c-0.02-0.91-0.12-1.74-0.93-2.34c-0.26-0.2-0.64-0.49-0.65-0.74
		c-0.01-0.59-0.4-0.68-0.77-0.86c-0.13-0.07-0.35-0.19-0.34-0.26c0.08-0.64-0.47-0.7-0.82-0.96c-0.32-0.24-0.69-0.49-0.89-0.82
		c-0.3-0.52-0.93-0.99-1.53-0.96c-0.13,0.01-0.27,0.01-0.4-0.01c-0.55-0.05-1.1-0.13-1.64-0.14c-0.16,0-0.46,0.19-0.46,0.3
		c-0.01,0.53-0.43,0.53-0.75,0.68c-0.27,0.12-0.63,0.21-0.77,0.42c-0.49,0.77-1.38,0.84-2.08,1.17c-1.08,0.5-1.76,1.35-2.53,2.15
		c-0.28,0.29-0.57,0.56-0.85,0.84c-0.03-0.04-0.07-0.08-0.1-0.12c0.24-0.58,0.48-1.16,0.69-1.67c-0.85-0.61-1.21-0.07-1.59,0.4
		c-0.14,0.17-0.27,0.35-0.43,0.5c-0.1,0.09-0.26,0.13-0.38,0.21c-0.17,0.11-0.33,0.24-0.49,0.36c0.02,0.07,0.04,0.14,0.05,0.21
		c-0.22-0.14-0.47-0.25-0.66-0.42c-0.37-0.35-0.64-0.33-0.89,0.11C75.45,70.49,75.41,70.69,75.33,70.91z"></path>
	<path class="st0" d="M75.33,70.91c0.08-0.22,0.12-0.42,0.22-0.58c0.25-0.45,0.52-0.46,0.89-0.11c0.19,0.18,0.44,0.28,0.66,0.42
		c-0.02-0.07-0.04-0.14-0.05-0.21c0.16-0.12,0.32-0.25,0.49-0.36c0.12-0.08,0.27-0.11,0.38-0.21c0.16-0.15,0.29-0.33,0.43-0.5
		c0.38-0.47,0.74-1.01,1.59-0.4c-0.21,0.51-0.45,1.09-0.69,1.67c0.03,0.04,0.07,0.08,0.1,0.12c0.28-0.28,0.58-0.55,0.85-0.84
		c0.77-0.8,1.45-1.65,2.53-2.15c0.7-0.32,1.59-0.4,2.08-1.17c0.14-0.22,0.5-0.3,0.77-0.42c0.32-0.15,0.74-0.14,0.75-0.68
		c0-0.11,0.3-0.3,0.46-0.3c0.55,0.01,1.1,0.09,1.64,0.14c0.13,0.01,0.27,0.01,0.4,0.01c0.6-0.03,1.23,0.44,1.53,0.96
		c0.2,0.33,0.56,0.58,0.89,0.82c0.35,0.26,0.9,0.32,0.82,0.96c-0.01,0.07,0.21,0.2,0.34,0.26c0.37,0.19,0.76,0.28,0.77,0.86
		c0,0.25,0.38,0.54,0.65,0.74c0.8,0.6,0.91,1.43,0.93,2.34c0.01,0.55,0.16,1.09,0.23,1.64c0.06,0.43,0.18,0.88,0.11,1.3
		c-0.22,1.26-0.52,2.5-0.79,3.75c-0.1,0.46-0.15,0.95-0.32,1.38c-0.1,0.25-0.37,0.54-0.62,0.6c-2.18,0.57-4.35,1.17-6.56,1.62
		c-1.76,0.36-3.57,0.39-5.35,0.01c-1.11-0.24-2.18-0.59-3.27-0.9c-0.06-0.02-0.13-0.03-0.17-0.06c-0.83-0.75-1.68-1.48-2.49-2.25
		c-0.43-0.42-0.88-0.87-1.13-1.39c-0.32-0.67-0.53-1.42-0.61-2.15c-0.08-0.67,0.2-1.4,0.08-2.06c-0.17-0.94,0.42-1.66,0.52-2.51
		C74.46,70.59,74.62,70.6,75.33,70.91z M78.76,71.66c-0.05-0.03-0.09-0.06-0.14-0.09c-0.48,0.55-0.96,1.1-1.44,1.66
		C77.72,72.72,78.5,72.43,78.76,71.66z"></path>
	<path d="M78.76,71.66c-0.26,0.77-1.03,1.06-1.58,1.56c0.48-0.55,0.96-1.1,1.44-1.66C78.66,71.59,78.71,71.63,78.76,71.66z"></path>
</g>
</svg>
