<svg version="1.1" id="Vrstva_1" xmlns="http://www.w3.org/2000/svg" x="0" y="0" viewBox="0 0 181.68 219.6" style="enable-background:new 0 0 181.68 219.6" xml:space="preserve"><style>.st0{fill:#fff}</style><path d="M70.38 197.14c-.1-.93-1.29-1.48-3.08-1.46-.26-.38-.49-.73-.77-1.14-.29.31-.52.56-.75.81.04.05.08.1.12.16h-1.26c-.03-.29-.07-.61-.11-.97-.54.09-.91-.24-1.28-.74-.37-.51-.87-.9-.93-1.59a.314.314 0 0 0-.13-.19c-.46-.38-.62-.85-.72-1.46-.17-1.12-.49-2.23-1.12-3.23-.3-.48-.44-1.07-.65-1.61-.02-.05-.04-.12-.08-.16-.66-.52-.65-1.37-.98-2.05-.43-.89-.83-1.8-1.2-2.72-.34-.86-.6-1.75-.96-2.61-.77-1.88-1.6-3.73-2.37-5.61-.83-2.02-1.65-4.04-2.42-6.08-.25-.66-.32-1.39-.54-2.06-.15-.44-.46-.83-.65-1.25-.53-1.17-1.04-2.36-1.56-3.54-.48-1.09-.95-2.19-1.46-3.27-.7-1.51-1.41-3.01-2.15-4.5-.21-.42-.55-.78-.79-1.19-.19-.32-.3-.68-.49-1-.38-.64-.8-1.26-1.17-1.91-.3-.51-.53-1.05-.84-1.55-.12-.2-.39-.3-.54-.48-.51-.62-1-1.25-1.21-2.05-.04-.15-.1-.31-.21-.42-1.64-1.67-2.58-3.78-3.65-5.81-.17-.33-.41-.63-.63-.93-.64-.83-1.11-1.74-1.57-2.69-.39-.79-1.04-1.46-1.56-2.19-.12-.17-.18-.38-.27-.58-.43-.96-.85-1.92-1.28-2.87a.507.507 0 0 0-.09-.16c-.78-.66-.91-1.65-1.3-2.51-.16-.35-.54-.6-.68-.95-.28-.66-.46-1.36-.68-2.05-.24-.77-.37-1.6-.76-2.28-.32-.56-.96-.92-1.42-1.41-.34-.36-.62-.77-.91-1.17-.08-.11-.16-.31-.11-.39.66-.95-.03-1.79-.23-2.65-.25-1.06-.66-2.08-.95-3.13-.06-.2.1-.45.16-.68.08-.31.29-.65.21-.91-.14-.48-.49-.9-.66-1.38-.24-.68-.41-1.38-.13-2.1.05-.13.08-.33.01-.43-.61-.93-.28-1.98-.42-2.97-.09-.62-.11-1.24-.12-1.86 0-.18.17-.35.21-.54.04-.19.06-.4.02-.58-.14-.63-.32-1.25-.46-1.88-.02-.11.04-.33.12-.36.48-.22.41-.67.24-.92-.65-.98-.51-2.08-.5-3.14.01-2.09.08-4.18.14-6.28.03-1.11.04-2.23.14-3.33.13-1.35.28-2.71.54-4.05.39-2.03.86-4.05 1.35-6.05.18-.75.57-1.45.77-2.19.27-1.01.65-1.93 1.21-2.83.52-.84.74-1.87 1.21-2.75 1.06-1.98 2.18-3.92 3.3-5.86.84-1.46 1.73-2.9 2.58-4.37.39-.68.65-1.45 1.12-2.07a36.11 36.11 0 0 1 2.77-3.28c1.12-1.17 2.34-2.24 3.52-3.36.27-.26.53-.54.82-.78 1.73-1.46 3.5-2.87 5.2-4.37 1.29-1.15 2.92-1.71 4.31-2.69 1.79-1.25 3.62-2.45 5.43-3.67.07-.04.16-.07.2-.13.66-1.14 1.93-1.78 2.48-3.04.18-.42.74-.69 1.16-.99.36-.26.75-.45 1.13-.68.2-.12.4-.25.6-.38.61-.4 1.22-.8 1.82-1.21.66-.45 1.29-.94 1.96-1.38.22-.15.52-.18.78-.27 1.43-.48 2.86-1 4.3-1.44 3.79-1.16 7.64-1.93 11.61-2.15 3.68-.21 7.35-.57 11.03-.82.9-.06 1.81.04 2.72.03.29 0 .57-.16.86-.16.42.01.84.1 1.26.15.48.06.97.14 1.45.15.37.01.77-.19 1.1-.1 2.79.74 5.6 1.43 8.34 2.34 1.55.51 2.97 1.4 4.44 2.12.97.47 1.97.89 2.89 1.44 1.27.77 2.44 1.71 3.71 2.47 1.25.74 2.44 1.52 3.34 2.68 1.1 1.42 2.34 2.74 3.09 4.43.22.5.86.81 1.32 1.2.29.24.59.48.9.7.12.08.29.08.44.11.05-.08.1-.16.15-.23.85 1.33 1.71 2.65 2.56 3.98.28.44.44.92.94 1.24.34.22.5.72.71 1.11.13.23.19.5.56.29.04-.03.29.18.35.32.65 1.43 1.24 2.88 1.92 4.3.68 1.42 1.44 2.81 2.15 4.22.19.37.28.79.46 1.17.16.33.43.62.56.96.15.41.21.86.31 1.3.08.34.13.62.61.73.18.04.22.74.31 1.14.02.08-.08.23-.05.27.7.68.47 1.65.8 2.44.57 1.41.51 2.92.68 4.39.12 1.03-.14 2.1-.22 3.15-.03.38-.04.75-.08 1.13-.28 2.47-.6 4.94-1.38 7.32-.4 1.22-.83 2.42-1.22 3.64-.24.75-.4 1.54-.67 2.28-.78 2.12-1.58 4.24-2.41 6.34-.28.7-.71 1.33-1.05 2.01-.34.69-.6 1.42-.96 2.1-.24.45-.6.82-.88 1.25-1.13 1.68-2.23 3.37-3.37 5.04-.41.6-.86 1.18-1.34 1.73-.22.25-.6.36-.82.62-.17.2-.21.53-.3.8.07.06.14.13.21.19.31-.15.62-.32.94-.44.13-.05.3.03.44.06-.09.41-.18.83-.28 1.24-.03.1-.15.18-.18.28-.17.57-.13 1.18-.77 1.59-.31.2-.39.79-.5 1.23-.31 1.2-1.27 1.98-1.88 2.98-.27.44-.45.95-.66 1.43-.2.45-.36.92-.59 1.35-.54.99-1.03 2.02-1.71 2.91-.5.65-.72 1.27-.52 2.09-.78-.04-1.12.45-1.36 1.04-.22.55-.35 1.14-.62 1.66-.29.57-.7 1.07-1.03 1.61-.53.84-1.05 1.7-1.57 2.55-.14.24-.26.49-.39.73-.3.58-.78 1.03-.83 1.78-.03.52-.49 1.01-.73 1.52-.43.94-.82 1.89-1.25 2.82-.15.32-.42.59-.56.91-.45 1.02-.85 2.07-1.3 3.09-.52 1.19-1.14 2.34-1.61 3.55-.21.55-.61.9-.96 1.32-.04.04-.1.09-.1.14.02 1.15-1 1.91-1.15 3-.03.19-.32.34-.48.51-.14.15-.29.3-.42.46-.15.18-.29.37-.47.54-.17.24-.35.47-.51.72-.11.17-.25.36-.26.55-.04.75-.3 1.39-.73 2.01-.44.64-.75 1.36-1.12 2.04-.05.08-.09.2-.17.23-1.05.4-1.22 1.42-1.62 2.28-.32.7-.57 1.44-.89 2.14-.08.18-.33.28-.46.37-.04.41-.07.81-.11 1.26-.63-.17-.88.02-.96.6-.04.31-.26.64-.48.88-.51.57-.86 1.23-1.48 1.74-.6.48-.91 1.32-1.33 2-.24.39-.46.78-.67 1.18-.34.67-.62 1.36-.98 2.02-.81 1.48-1.64 2.95-2.49 4.41-.65 1.12-1.32 2.22-2 3.32-.55.89-1.3 1.7-1.63 2.66-.36 1.03-1.18 1.66-1.66 2.57-.45.86-1.13 1.59-1.67 2.4-.13.2-.19.47-.2.72-.03.38-.1.56-.52.76-.49.23-.83.81-1.18 1.27-.32.43-.54.95-.85 1.39-.59.82-1.21 1.62-1.75 2.34-.23.2-.39.36-.58.48-.68.43-.84 1.19-1.24 1.81-.35.55-.77 1.05-1.07 1.66-.22.44-.86.67-1.32.99-.25.18-.67.3-.74.53-.3.96-1.17.64-1.77.81-.34.1-.8-.03-1.23.08-.45.12-.93.13-1.39.19-.14.02-.3.02-.4.1-.66.51-1.37.59-2.16.56zm-26.05-85.42c-.12.49.22 1.42.61 1.77.12.1.22.26.27.4.13.41.18.84.34 1.24.24.59.57 1.13.81 1.72.66 1.58 1.23 3.19 1.95 4.74.58 1.25 1.27 2.46 2.02 3.63.81 1.27 1.42 2.65 2.34 3.87.85 1.13 1.48 2.42 2.23 3.63.82 1.33 1.64 2.64 2.48 3.96.2.32.47.61.68.93.41.63.81 1.26 1.18 1.91.3.53.55 1.1.82 1.65.13.15.29.28.37.45.25.48.43.99.7 1.45.58 1.01 1.01 2.08 1.45 3.15.32.79.81 1.52 1.21 2.27.06.11.09.24.11.37.04.31-.06.7.1.91.51.7.68 1.55 1.06 2.29.49.94.78 1.92 1.06 2.93.3 1.07.6 2.14.96 3.19.33.96.76 1.89 1.14 2.83.06.15.1.3.15.45.16.5.3 1.02.5 1.51.53 1.33 1.05 2.67 1.65 3.98.23.5.06 1.07.35 1.53.38.59.57 1.23.77 1.9.24.82.76 1.55 1.07 2.35.26.68.34 1.43.58 2.12.22.61.55 1.18.89 1.89.38-.58.65-1.02.95-1.43.68-.93 1.42-1.81 2.06-2.76.34-.5.53-1.11.81-1.66.55-1.09 1.13-2.18 1.69-3.27.6-1.16 1.18-2.34 1.8-3.49.56-1.05 1.18-2.07 1.75-3.11.99-1.81 1.94-3.65 2.94-5.45.85-1.54 1.76-3.06 2.63-4.59 1.26-2.21 2.43-4.49 3.81-6.63 1.3-2.01 2.57-4.01 3.43-6.26.56-1.47 1.16-2.93 1.78-4.37.76-1.76 1.58-3.49 2.34-5.25.39-.91.63-1.88 1.03-2.78.41-.95.91-1.86 1.41-2.77 1.45-2.61 2.88-5.23 4.41-7.8 1.2-2.03 2.51-3.99 3.82-5.96.73-1.1 1.55-2.15 2.31-3.23.22-.32.38-.68.57-1.02-.02-.06-.03-.11-.05-.17-.66.42-.67.02-.66-.37.01-.16.06-.32.12-.46.33-.72.77-1.4 1-2.15.46-1.53 1.39-2.76 2.25-4.04.33-.49.6-1.02.87-1.54.15-.3.23-.64.38-.94 1.09-2.19 2.06-4.42 2.6-6.82.06-.27.19-.54.2-.81.04-.78.31-1.42.76-2.07.29-.41.29-1.03.38-1.57.05-.28.01-.57.01-.86.72.02 1.19-.36 1.08-.95-.22-1.21.52-2.19.67-3.3.14-1 .57-1.97.66-2.97.11-1.22.03-2.46-.01-3.69-.02-.53-.28-1.08-.18-1.58.18-.9-.19-1.71-.43-2.46-.58-1.78-1.39-3.49-2.15-5.21-.38-.87-.86-1.69-1.28-2.55-.63-1.28-1.24-2.58-1.87-3.86-.55-1.11-1.05-2.25-1.68-3.31-.71-1.19-1.51-2.32-2.33-3.43-.19-.26-.77-.56-.95-.46-.78.44-1.04-.13-1.38-.57-.71-.91-1.17-2.05-2.33-2.55-.06-.03 0-.25-.06-.35-.07-.14-.24-.38-.28-.36-.42.17-.61-.11-.87-.34-.25-.22-.56-.38-.86-.51-.45-.19-.93-.29-1.37-.49-2.15-.99-4.12-2.34-6.48-2.87-1.82-.41-3.61-.99-5.48-1.12-2.49-.17-4.96-.1-7.43.42-1.37.29-2.8.33-4.21.4-2.17.1-4.32.32-6.43.82-2.02.49-4.03 1.06-6.04 1.6-.23.06-.5.11-.66.27-.34.32-.65.69-.93 1.08-.17.24-.19.65-.4.78-.73.44-.77 1.11-.73 1.99-.33-.06-.64-.13-.95-.16-.12-.01-.29-.01-.38.06-.27.24-.55.49-.76.78-.48.69-.94 1.36-1.93 1.37-.36 0-.73.19-1.06.35-.65.33-1.28.69-1.9 1.06-1.35.81-2.73 1.57-4.03 2.46-1.17.8-2.28 1.72-3.37 2.63-.75.63-1.42 1.36-2.13 2.03-.2.19-.5.3-.64.51-.6.92-1.17 1.87-1.73 2.82-.37.61-.63 1.31-1.1 1.83-.58.64-.96 1.28-.9 2.15.01.21-.03.42-.05.62-.6.02-.6.02-.82.53-.11.24-.17.52-.34.7-.53.56-.68 1.2-.64 1.95.01.21-.25.57-.46.63-.45.13-.47.41-.28.66.27.37.14.69.01 1.01-.2.5-.42 1-.71 1.45-1.02 1.59-1.34 3.42-1.83 5.19-.24.86-.28 1.78-.41 2.67-.14.99-.35 1.97-.41 2.96-.09 1.46-.07 2.93-.1 4.4-.02.86-.03 1.71-.05 2.57-.04 1.49.62 2.96.12 4.47-.03.1.04.23.04.35.01.65.35 1.23.33 1.93-.04 1.15.19 2.3.29 3.46.08.82.11 1.65.23 2.46.17 1.14.36 2.28.64 3.39.28 1.13.88 2.17.82 3.39-.01.19.24.57.37.57.48-.01.65.27.83.63.08.12.28.18.46.3z"/><path d="M66.17 195.28c.28.09.51.1.58.21.46.71.41 1.24-.18 1.61-.12-.55-.24-1.07-.4-1.82z"/><path class="st0" d="M44.33 111.72c-.18-.12-.38-.18-.45-.31-.18-.36-.34-.63-.83-.63-.13 0-.38-.38-.37-.57.06-1.22-.54-2.26-.82-3.39-.28-1.12-.47-2.25-.64-3.39-.12-.81-.15-1.64-.23-2.46-.11-1.15-.34-2.31-.29-3.46.03-.7-.32-1.27-.33-1.93 0-.12-.08-.25-.04-.35.5-1.5-.16-2.98-.12-4.47.02-.86.04-1.71.05-2.57.03-1.47.01-2.94.1-4.4.06-.99.27-1.97.41-2.96.13-.89.17-1.81.41-2.67.49-1.77.81-3.6 1.83-5.19.29-.45.51-.95.71-1.45.12-.31.26-.64-.01-1.01-.19-.25-.16-.53.28-.66.2-.06.47-.42.46-.63-.04-.75.12-1.39.64-1.95.17-.18.23-.46.34-.7.23-.51.22-.51.82-.53.02-.2.07-.41.05-.62-.06-.87.32-1.51.9-2.15.47-.52.74-1.22 1.1-1.83.57-.95 1.13-1.89 1.73-2.82.14-.22.44-.33.64-.51.71-.67 1.38-1.4 2.13-2.03 1.09-.92 2.19-1.83 3.37-2.63 1.3-.89 2.68-1.65 4.03-2.46.62-.37 1.26-.73 1.9-1.06.33-.17.7-.35 1.06-.35.99-.01 1.44-.68 1.93-1.37.21-.29.49-.54.76-.78.08-.07.25-.08.38-.06.31.04.61.1.95.16-.03-.88 0-1.55.73-1.99.21-.13.23-.54.4-.78.28-.38.59-.75.93-1.08.16-.15.43-.2.66-.27 2.01-.54 4.01-1.11 6.04-1.6 2.11-.51 4.26-.72 6.43-.82 1.41-.07 2.84-.11 4.21-.4 2.47-.52 4.94-.59 7.43-.42 1.87.13 3.66.71 5.48 1.12 2.36.53 4.33 1.89 6.48 2.87.44.2.92.3 1.37.49.31.13.61.29.86.51.26.23.45.51.87.34.04-.02.21.22.28.36.05.1 0 .33.06.35 1.16.51 1.62 1.64 2.33 2.55.34.44.6 1.01 1.38.57.18-.1.75.2.95.46.82 1.11 1.62 2.24 2.33 3.43.63 1.06 1.14 2.2 1.68 3.31.63 1.28 1.24 2.58 1.87 3.86.42.85.9 1.68 1.28 2.55.76 1.72 1.57 3.43 2.15 5.21.24.75.62 1.56.43 2.46-.1.49.16 1.05.18 1.58.04 1.23.12 2.47.01 3.69-.09 1-.53 1.97-.66 2.97-.15 1.12-.89 2.1-.67 3.3.11.59-.36.97-1.08.95 0 .29.04.58-.01.86-.09.53-.09 1.15-.38 1.57-.45.65-.72 1.3-.76 2.07-.01.27-.14.54-.2.81-.54 2.4-1.51 4.63-2.6 6.82-.15.3-.23.64-.38.94-.27.52-.54 1.05-.87 1.54-.87 1.29-1.8 2.52-2.25 4.04-.22.75-.66 1.43-1 2.15-.07.14-.12.3-.12.46-.02.4-.01.79.66.37.02.06.03.11.05.17-.19.34-.35.7-.57 1.02-.76 1.08-1.58 2.13-2.31 3.23-1.3 1.97-2.61 3.93-3.82 5.96-1.52 2.57-2.96 5.19-4.41 7.8-.5.9-1 1.82-1.41 2.77-.4.9-.64 1.87-1.03 2.78-.75 1.76-1.58 3.49-2.34 5.25-.62 1.44-1.22 2.9-1.78 4.37-.86 2.25-2.13 4.25-3.43 6.26-1.38 2.13-2.55 4.41-3.81 6.63-.87 1.53-1.78 3.04-2.63 4.59-1 1.81-1.95 3.64-2.94 5.45-.57 1.05-1.19 2.06-1.75 3.11-.62 1.15-1.2 2.33-1.8 3.49-.56 1.09-1.13 2.17-1.69 3.27-.28.55-.47 1.16-.81 1.66-.64.95-1.38 1.84-2.06 2.76-.3.41-.57.85-.95 1.43-.34-.71-.67-1.28-.89-1.89-.24-.69-.32-1.44-.58-2.12-.31-.8-.83-1.54-1.07-2.35-.2-.67-.4-1.31-.77-1.9-.29-.46-.12-1.02-.35-1.53-.59-1.31-1.12-2.64-1.65-3.98-.19-.49-.33-1-.5-1.51-.05-.15-.09-.31-.15-.45-.38-.94-.8-1.87-1.14-2.83-.37-1.05-.67-2.12-.96-3.19-.28-1-.57-1.99-1.06-2.93-.38-.74-.56-1.58-1.06-2.29-.16-.21-.06-.6-.1-.91a.936.936 0 0 0-.11-.37c-.4-.76-.89-1.48-1.21-2.27-.44-1.07-.87-2.14-1.45-3.15-.27-.46-.45-.97-.7-1.45-.09-.17-.24-.3-.37-.45-.27-.55-.52-1.11-.82-1.65-.37-.65-.77-1.28-1.18-1.91-.21-.32-.47-.6-.68-.93-.83-1.31-1.66-2.63-2.48-3.96-.74-1.21-1.38-2.5-2.23-3.63-.92-1.22-1.53-2.6-2.34-3.87-.74-1.16-1.44-2.37-2.02-3.63-.72-1.55-1.29-3.16-1.95-4.74-.24-.58-.58-1.13-.81-1.72-.16-.39-.21-.83-.34-1.24a.919.919 0 0 0-.27-.4c-.4-.34-.74-1.28-.62-1.76zm63.43-27.59c.75-1.15.79-2.29.92-3.58-.34.84-.62 1.54-.9 2.23-.08-.27-.05-.52 0-.76.4-1.93.8-3.86 1.22-5.78.12-.53.18-1.19.53-1.53.49-.49.59-.91.42-1.52-.06-.21 0-.53.13-.7.26-.33.4-.62.2-1.03-.06-.13-.06-.32-.04-.47.1-.59.22-1.17.32-1.75.02-.11-.06-.23-.06-.35-.01-.65-.14-1.33.01-1.94.15-.64.26-1.22.11-1.87-.11-.46.02-.87.54-1.04-.57-.39-.73-1.08-.42-1.7.05-.09.07-.27.02-.33-.52-.57-.16-1.41-.75-2.05-.52-.56-.69-1.46-1.25-2.09-.49-.55-.77-1.35-1.34-1.72-1.25-.8-2.12-2.15-3.65-2.51-.09-.02-.21-.07-.26-.15-.3-.5-.82-.63-1.32-.81-1.42-.54-2.82-1.12-4.24-1.66-.69-.26-1.4-.44-2.1-.65-.98-.3-1.95-.65-2.95-.89-1.02-.24-2.08-.31-3.09-.57-1.47-.38-2.92-.69-4.45-.36-.75.16-1.53.13-2.29.26-.76.14-1.51.35-2.25.57-.6.18-1.28.32-1.75.7-.47.38-.93.55-1.48.64-.18.03-.37.15-.52.27-.71.58-1.43 1.16-2.11 1.78-.79.72-1.56 1.46-2.32 2.21-1.45 1.44-2.77 3.04-4.35 4.31-1.22.98-1.88 2.29-2.78 3.45-.58.75-.98 1.63-1.83 2.14-.08.05-.18.11-.23.19-.75 1.28-1.52 2.55-2.22 3.86-.99 1.86-1.96 3.73-2.88 5.63-.7 1.45-1.61 2.81-1.49 4.58.08 1.16-.02 2.34.27 3.49.29 1.18.62 2.35 1.37 3.35.89 1.19 1.74 2.42 2.61 3.62.65.9 1.19 1.89 2.18 2.5.83.51 1.6 1.12 2.44 1.61 1.3.76 2.58 1.62 3.98 2.13 1.63.59 3.36.97 5.08 1.2 2.38.32 4.73 1 7.18.58 2.13-.37 4.27-.67 6.39-1.05.48-.09.92-.41 1.37-.64.87-.44 2.06-.11 2.69-1.13.05-.08.22-.08.33-.11.23-.07.45-.15.68-.19 1.02-.18 1.96-.82 3.07-.48.1.03.25-.02.33-.08.35-.27.69-.56 1.02-.84-.11-.2-.19-.36-.31-.6.2-.04.33-.09.47-.09.6 0 1.09-.11 1.39-.75.2-.43.54-.98.93-1.09.61-.17.94-.47 1.24-.97.18-.31.46-.55.72-.81.26-.26.55-.51.9-.84.02 0 .19.01.35.02-.03-.05-.06-.11-.1-.16.22-.2.41-.51.66-.58.67-.19.69-.17.33-.77.27-.2.56-.38.81-.6.29-.27.6-.55.81-.88.2-.31.26-.7.4-1.04.19-.44.64-.51 1-.17.11.05.17.17.31.36z"/><path d="M107.76 84.13c-.14-.2-.2-.31-.28-.39-.35-.34-.8-.27-1 .17-.15.34-.21.73-.4 1.04-.21.33-.51.61-.81.88-.25.23-.54.4-.81.6.36.61.34.59-.33.77-.25.07-.44.38-.66.58.03.05.06.11.1.16-.17-.01-.33-.02-.35-.02-.36.33-.64.57-.9.84-.25.26-.54.5-.72.81-.29.5-.63.8-1.24.97-.39.11-.73.66-.93 1.09-.3.64-.79.74-1.39.75-.14 0-.28.05-.47.09.12.24.2.39.31.6-.33.28-.67.57-1.02.84-.08.07-.24.11-.33.08-1.1-.34-2.05.3-3.07.48-.23.04-.46.12-.68.19-.11.03-.29.03-.33.11-.64 1.01-1.83.68-2.69 1.13-.45.23-.89.55-1.37.64-2.12.39-4.26.68-6.39 1.05-2.45.43-4.8-.26-7.18-.58-1.72-.23-3.45-.61-5.08-1.2-1.4-.5-2.68-1.37-3.98-2.13-.84-.49-1.61-1.1-2.44-1.61-.99-.61-1.53-1.6-2.18-2.5-.88-1.2-1.72-2.43-2.61-3.62-.75-1.01-1.08-2.17-1.37-3.35-.28-1.15-.19-2.32-.27-3.49-.12-1.77.8-3.13 1.49-4.58.91-1.9 1.88-3.77 2.88-5.63.7-1.31 1.47-2.58 2.22-3.86.05-.08.15-.14.23-.19.85-.51 1.25-1.39 1.83-2.14.9-1.16 1.56-2.48 2.78-3.45 1.58-1.27 2.9-2.87 4.35-4.31.76-.75 1.53-1.49 2.32-2.21.68-.62 1.4-1.19 2.11-1.78.15-.12.34-.24.52-.27.56-.08 1.01-.25 1.48-.64.46-.38 1.14-.51 1.75-.7.74-.23 1.49-.44 2.25-.57.75-.13 1.54-.1 2.29-.26 1.53-.33 2.98-.02 4.45.36 1.01.26 2.07.33 3.09.57 1 .24 1.97.59 2.95.89.7.22 1.42.4 2.1.65 1.42.53 2.82 1.12 4.24 1.66.5.19 1.01.32 1.32.81.05.07.16.13.26.15 1.53.37 2.41 1.71 3.65 2.51.58.37.86 1.18 1.34 1.72.56.63.73 1.53 1.25 2.09.6.64.23 1.48.75 2.05.05.06.03.24-.02.33-.31.62-.15 1.31.42 1.7-.52.18-.65.59-.54 1.04.15.64.05 1.23-.11 1.87-.15.61-.02 1.29-.01 1.94 0 .12.08.24.06.35-.1.59-.23 1.17-.32 1.75-.03.15-.02.34.04.47.19.41.06.7-.2 1.03-.13.17-.19.49-.13.7.17.61.07 1.03-.42 1.52-.35.34-.41 1-.53 1.53-.42 1.92-.82 3.85-1.22 5.78-.05.24-.08.49 0 .76.28-.69.56-1.38.9-2.23-.16 1.32-.21 2.46-.95 3.61zM75.33 70.91c-.71-.3-.87-.32-.95.36-.1.86-.69 1.57-.52 2.51.12.66-.16 1.38-.08 2.06.09.73.3 1.48.61 2.15.25.53.7.98 1.13 1.39.8.78 1.65 1.51 2.49 2.25.04.04.11.05.17.06 1.09.3 2.17.66 3.27.9 1.78.38 3.59.35 5.35-.01 2.2-.45 4.38-1.05 6.56-1.62.25-.07.52-.35.62-.6.17-.44.22-.92.32-1.38.27-1.25.57-2.49.79-3.75.07-.41-.05-.87-.11-1.3-.07-.55-.22-1.09-.23-1.64-.02-.91-.12-1.74-.93-2.34-.26-.2-.64-.49-.65-.74-.01-.59-.4-.68-.77-.86-.13-.07-.35-.19-.34-.26.08-.64-.47-.7-.82-.96-.32-.24-.69-.49-.89-.82-.3-.52-.93-.99-1.53-.96-.13.01-.27.01-.4-.01-.55-.05-1.1-.13-1.64-.14-.16 0-.46.19-.46.3-.01.53-.43.53-.75.68-.27.12-.63.21-.77.42-.49.77-1.38.84-2.08 1.17-1.08.5-1.76 1.35-2.53 2.15-.28.29-.57.56-.85.84-.03-.04-.07-.08-.1-.12l.69-1.67c-.85-.61-1.21-.07-1.59.4-.14.17-.27.35-.43.5-.1.09-.26.13-.38.21-.17.11-.33.24-.49.36.02.07.04.14.05.21-.22-.14-.47-.25-.66-.42-.37-.35-.64-.33-.89.11-.09.15-.13.35-.21.57z"/><path class="st0" d="M75.33 70.91c.08-.22.12-.42.22-.58.25-.45.52-.46.89-.11.19.18.44.28.66.42-.02-.07-.04-.14-.05-.21.16-.12.32-.25.49-.36.12-.08.27-.11.38-.21.16-.15.29-.33.43-.5.38-.47.74-1.01 1.59-.4l-.69 1.67c.03.04.07.08.1.12.28-.28.58-.55.85-.84.77-.8 1.45-1.65 2.53-2.15.7-.32 1.59-.4 2.08-1.17.14-.22.5-.3.77-.42.32-.15.74-.14.75-.68 0-.11.3-.3.46-.3.55.01 1.1.09 1.64.14.13.01.27.01.4.01.6-.03 1.23.44 1.53.96.2.33.56.58.89.82.35.26.9.32.82.96-.01.07.21.2.34.26.37.19.76.28.77.86 0 .25.38.54.65.74.8.6.91 1.43.93 2.34.01.55.16 1.09.23 1.64.06.43.18.88.11 1.3-.22 1.26-.52 2.5-.79 3.75-.1.46-.15.95-.32 1.38-.1.25-.37.54-.62.6-2.18.57-4.35 1.17-6.56 1.62-1.76.36-3.57.39-5.35.01-1.11-.24-2.18-.59-3.27-.9-.06-.02-.13-.03-.17-.06-.83-.75-1.68-1.48-2.49-2.25-.43-.42-.88-.87-1.13-1.39a6.78 6.78 0 0 1-.61-2.15c-.08-.67.2-1.4.08-2.06-.17-.94.42-1.66.52-2.51.07-.67.23-.66.94-.35zm3.43.75c-.05-.03-.09-.06-.14-.09-.48.55-.96 1.1-1.44 1.66.54-.51 1.32-.8 1.58-1.57z"/><path d="M78.76 71.66c-.26.77-1.03 1.06-1.58 1.56.48-.55.96-1.1 1.44-1.66.04.03.09.07.14.1z"/></svg>