<svg version="1.0" xmlns="http://www.w3.org/2000/svg" width="1440" height="1440" viewBox="0 0 1080 1080"><path d="M189.8 1.6c-2.2 1.1-2.8 2.2-2.8 4.8 0 2.1-.6 3.6-1.5 4-.8.3-1.5 1.2-1.5 2 0 .9-.7 1.2-1.8.9-2.1-.5-4.9 2.2-3.2 3.2 1.6 1 1.2 2.3-.9 3-2.7.8-6.4 8.5-4.9 10.2.8 1 .7 1.8-.6 3.1-.9 1-1.6 3-1.6 4.4 0 1.4-.6 3.1-1.4 3.7-.7.6-1.6 2.7-1.9 4.7-.3 1.9-1.7 4.8-3.1 6.4-1.6 1.9-2.2 3.7-1.9 5 .4 1.5 0 2.3-1.3 2.6-1.9.5-6.4 8.9-6.4 11.8 0 .9-1.1 1.8-2.5 2.2-1.4.4-2.4 1.1-2.2 1.8.2.6-.4 2.2-1.4 3.5-1.1 1.3-1.9 4-1.9 6.2 0 2.9-.5 3.9-2 4.4-1.1.4-2 1.5-2 2.7 0 1.1-.8 2.2-1.9 2.5-1.1.3-1.7 1.1-1.5 1.8.3.7 0 1.6-.6 2-.8.5-.8 1.1 0 2 1.2 1.5-1.3 4.1-3 3-.5-.3-1.4.4-1.9 1.7-.5 1.3-1.8 3.2-3 4.2-1.4 1.3-2 2.9-1.9 4.8.2 2-.4 3.3-1.5 4-1.2.6-1.6 1.6-1.2 2.9.4 1.3.2 1.9-.9 1.9-.9 0-1.6.4-1.6 1 0 .5-.7 1-1.5 1-2 0-1.9.9.2 3.3 1.7 1.9 1.6 2.1-2.9 6.1-2.7 2.3-4.8 4.7-4.8 5.2 0 .6-1.8 3-4 5.3-2.7 2.8-4.2 5.4-4.6 8.1-.4 2.4-2 5.5-4.1 7.9-2.9 3.4-3.2 4.4-2.3 6.1.8 1.6.7 2.5-.7 4.5-1 1.3-2.6 2.7-3.5 3-1.2.4-1.8 1.7-1.9 3.8-.1 4-2.8 8.9-5.6 10.2-2.1.9-2.6 2.1-4.1 9.5-.4 1.9-1.3 3.6-2 3.6-.6.1-1.4.2-1.6.3-.2 0 0 1.7.4 3.6.6 2.5.4 3.8-.6 4.6-.8.6-1.4 2.2-1.4 3.5 0 1.6-1 2.8-3 3.9-2.8 1.4-3.5 2.6-3.1 4.9.3 1.4-2.7 7.2-4.4 8.6-.8.7-1.5 2.7-1.5 4.6 0 2-1.2 5.2-2.9 8-1.7 2.5-3.3 6-3.7 7.8-.3 1.7-1.4 4-2.4 5.1-1 1.1-3 5.1-4.5 9-1.5 3.8-3.2 8.1-4 9.5-.7 1.4-1.8 4.9-2.4 7.8-1.3 6.3-2.7 9.2-5.3 11-1 .7-1.8 2-1.8 2.8 0 .8-1.7 3.3-3.8 5.7-5 5.5-19.8 36.3-21.2 44-.6 3.1-1.7 6.9-2.5 8.4-.8 1.6-1.5 3.9-1.5 5.2 0 1.3-1.1 3.9-2.5 5.6-1.3 1.8-2.2 3.5-2 3.7.3.3-1.1 7-3.1 14.9l-3.6 14.4.6 27c.7 30.8 1.3 40.5 2.8 42.3.6.7 1.1 4.3 1.3 8 .1 3.7.7 7.7 1.3 8.9.7 1.2 1.2 3.7 1.2 5.6 0 1.8.7 5.6 1.5 8.3.9 3.1 1.1 5.2.5 5.8-1.9 1.9-1 5.2 2 7.5 2.5 1.8 2.9 2.5 2 4.1-.7 1.3-.7 2.7-.2 3.7.5 1 1.2 5.6 1.5 10.3.8 10.4 3.5 25.8 5 28.5 1 1.8 1.3 4.3 1.8 14.5 0 1.3.7 3.3 1.4 4.3.9 1.3 1.2 3.5.8 6.7-.5 3.9-.2 5.3 1.8 7.9 2 2.8 2.3 4.3 2.2 10.9-.1 5.2.5 9.6 1.8 13.6 1 3.3 1.9 7.2 1.9 8.8 0 1.6.7 4.2 1.4 5.7.8 1.5 1.3 3.7 1 4.7-.3 1.1.2 4 1 6.4.9 2.5 1.6 6.3 1.6 8.5s.7 6.8 1.5 10.3c.8 3.5 1.2 7.4.9 8.6-.4 1.6 0 2.5 1 2.9 1.2.5 1.6 2.2 1.6 7.4 0 8.7 2.4 25.5 4.4 31.2.9 2.4 1.6 6.1 1.6 8.3 0 2.1.7 5.5 1.6 7.6.8 2 1.8 7 2.1 11.1.2 4.1 1.3 10.7 2.3 14.7 2.5 9.8 3.4 18.3 2.2 21.5-.7 1.6-.7 3.1 0 4.3 2.1 3.8 8.5 34.6 9.1 44.1.1 1.6.5 3.5 1 4.2.4.6 1.6 5.5 2.7 10.9s3.1 11.7 4.4 14.1c1.8 3.1 2.3 5.3 1.9 7.6-.3 1.9.2 4.9 1.1 7 1.3 3.3 1.9 3.7 5 3.7 2 0 3.6.5 3.6 1.1 0 .7-1.1.8-3.1.4l-3.2-.7.7 4.3c1.8 12.8 2.4 15.2 4.5 18 1.8 2.4 2.1 3.8 1.6 6.8-.4 2.3 0 5.4.9 8.2.9 2.4 1.6 5.4 1.6 6.6 0 1.2.4 2.4.8 2.7.5.3.9 3.6 1 7.3.3 7.9 1.5 15.7 3.6 23 .8 2.8 1.2 6.9.9 9-.4 2.8-.1 4.4 1.1 5.5 1.2 1.3 1.6 3.7 1.6 10 0 6.4.8 11.5 3.6 21.8 1.9 7.4 3.6 14.4 3.6 15.5 0 1.1.6 3.6 1.3 5.5.8 1.9 2.3 10 3.5 18 1.4 9 3.1 16.7 4.7 20.3 2.1 5 2.4 6.7 1.8 11.7-.5 4.5-.3 6.7.9 9.1.9 1.8 1.6 3.8 1.6 4.6 0 1.1 67.5 1.3 412.9 1.3h412.8l3.6-3.3c2.8-2.7 3.5-4.1 3.5-7.3 0-2.8.6-4.2 2.1-5.3 2-1.3 2-1.4.4-2.7-1.7-1.3-1.7-1.5-.1-2.7 1.4-1.1 1.5-2.1.8-5.1-.9-4 1-10.2 3.7-11.9.8-.5 1.1-3 .9-7.3-.2-3.5.1-6.7.6-7 .5-.4.7-1.8.4-3.3-.5-1.8-.4-2.2.3-1.2.8 1.2 1.1.9 1.7-1.5.3-1.6 1.3-3.5 2.2-4.2 1.2-.9 1.3-1.5.4-2.4-1.7-1.7-1.5-2.2 1.2-5.5 2.4-2.8 3.8-9.5 2.3-10.9-1.3-1.3-.7-2.4 1.2-2.4 2.5 0 3.7-5 1.9-7.9-1.1-1.8-.9-2.3 1-4.1 1.8-1.7 2-2.4 1-4-1-1.5-.9-2.3.6-3.9 1.3-1.5 1.7-2.8 1.1-4.8-1.1-4.5-.8-7.3.9-9.2 1.1-1.3 1.5-2.7 1.1-4.4-.4-1.4-.2-3.4.4-4.4.7-1.2 1-1.3 1.1-.4 0 1.1.3 1.1 1.5.1 1.8-1.5 2-4.7.3-5.2-.8-.3-.7-1.1.5-2.8.9-1.4 1.7-3.2 1.7-4.1 0-1 .6-2 1.3-2.3 1-.5 1-.7 0-1.2-2-.9-1.5-3.2.7-3.9 2-.6 2-1.5.3-7.8-.2-.9.2-2 1.1-2.3 1-.4 1.4-1.8 1.3-4.5-.2-2.2.3-4.5.9-5 .8-.7 1-2 .4-4-.7-2.2-.5-2.9.5-2.9.9 0 1.2.6.8 1.6-.4 1.2-.2 1.5.8 1.2 1.7-.6 2.4-4.7 1.1-6-.7-.7-.7-1.9 0-3.7.6-1.4 1.4-3.5 1.8-4.6.4-1.1 1.3-3.6 2-5.5 1.5-3.8 2.1-12.5 2-26.2 0-7.9.3-9.7 3.6-17.5 3.3-8 3.5-9.1 2.4-12.6-.9-3.1-.8-4 .5-5.3 1.9-2 1.9-2.1-.5-5.1-2.6-3.4-2.5-4.5.3-3.8 2.1.6 2.3.2 3.5-6.4.6-3.8.9-8.3.6-10-.5-2.1 0-3.8 1.5-5.9 2.9-4.1 2.7-4.7-1.9-6.2-4-1.3-5.8-3.7-2.1-2.7 2.3.6 6.4-2 5.5-3.4-.3-.6.2-1.9 1.2-3 1.8-2 1.8-2.2.1-5.1-1.7-3-1.7-3.2.8-7 1.4-2.1 2.2-4.4 1.8-5.1-1.2-2-3.1-13.5-2.6-16.2.3-1.4 1.1-2.5 1.8-2.5s1.6-1.9 2-4.7c.6-3.9.4-4.9-1.1-6-1.7-1.2-1.7-1.4.1-3.3 1.3-1.4 1.9-3.9 2.1-9 .1-3.9.7-7.7 1.3-8.4.6-.6 1.2-3.6 1.5-6.5.4-4.1 1.2-6.1 3.2-8.2 2.9-3 2.6-3.6-.7-1.9-1.5.8-1.9.7-1.9-.4 0-.8.5-1.8 1.1-2.1.6-.4.8-1.3.5-2.1-.3-.7.6-2.7 1.9-4.3 2.2-2.5 2.3-3 1-4.1-2.1-1.8-1.9-4.1.5-4.7 1.6-.4 2-1.4 2-4.9 0-3.2.5-4.7 1.9-5.5 1.5-1 1.6-1.7.8-4-1.3-3.3.7-10.6 3.6-12.9 1.5-1.3 1.7-2 .8-4.3-.8-2.1-.8-3.4.1-5 .6-1.2 1.2-3.9 1.2-5.9.1-2 .4-4 .8-4.4.4-.4.5-1.8.1-3.2-.4-1.6-.2-2.3.4-1.9 1.3.8 3-5.7 3.7-13.4.2-3.1 1.1-7.1 2-8.7 1.1-2.2 1.6-5.8 1.6-12 0-8.4.1-8.9 2.4-10 2-.9 2.5-2 2.9-6.9.8-8.9 2.4-17.3 3.7-18.7.6-.8 1.3-3.8 1.6-6.7.3-3 1.1-7 1.8-8.9 2.2-5.7 5.6-18.8 5.6-21.2 0-2.9 3.2-13.1 4.6-14.9.6-.8 1.4-3.9 1.8-6.9.7-5.9 3.6-16.2 4.7-17 .4-.3.7-1.6.8-3 0-4.5 2-14.3 2.9-14.9 1.2-.7 2-6.2 3.1-20.6.6-8.2.4-13-.6-19-1.7-9.5-6-24.2-7.3-25-.5-.3-1.5-2.5-2.1-4.8-.6-2.3-2-5.4-3-6.8-1-1.5-1.9-3.3-1.9-4.1 0-.8-.7-2.3-1.5-3.4-.8-1-1.5-2.7-1.5-3.7 0-1.1-3.6-9.4-8.1-18.5-8.1-16.7-8.1-16.7-7.5-22.9.7-7.1.1-8.9-6.9-18.8-5.4-7.6-8.1-13-8.8-17.6-.3-2-2.1-7-4-11-1.9-4.1-4.4-10.6-5.6-14.4-1.2-3.9-2.8-7.9-3.5-9-.7-1.1-1.6-3.9-2-6.3-.3-2.4-2.5-7.6-4.7-11.5-2.2-4-5-10.1-6.2-13.7-1.1-3.6-2.6-7.2-3.2-8-.7-.8-2.2-3.7-3.4-6.3-1.1-2.7-3.2-6.2-4.6-7.9-1.4-1.6-2.5-4.1-2.5-5.5 0-1.4-.9-4-1.9-5.7-1-1.7-2.2-4.6-2.6-6.4-.4-1.8-3.1-8.1-6.1-13.9-3-5.9-5.4-11.4-5.4-12.3 0-1-.7-3.4-1.5-5.3-.8-2-1.5-4.9-1.5-6.5 0-1.6-1.3-4.9-3-7.3-1.6-2.4-3-5.3-3-6.5 0-3.2-2-8.2-5.6-14.4-4.1-7.1-9.7-25.2-8.9-29 .5-2.3-.2-3.6-4.1-8.1-2.5-3-5.4-7.2-6.4-9.4-.9-2.2-2.4-4.6-3.3-5.3-1.6-1.4-5-10.9-6.2-17.2-.8-4.6-6.2-17.3-9.7-22.9-1.6-2.5-2.8-4.8-2.8-5.3 0-.4-1.1-2.4-2.5-4.4-1.4-2.1-3.2-6-4-8.8-1.1-3.7-2.8-6.4-6.3-9.7-5.8-5.7-8.5-7.1-13.7-7.4-4.7-.3-6.5.8-6.5 4.2 0 1.7-.7 2.7-2 3-1.7.4-1.8.8-.8 2s.5 2-2.4 4.6c-4.2 3.7-5.8 6.5-5.8 10.1 0 3.1-4.5 6.8-7.4 6.1-1.9-.5-1.9-.4.2.6 2.9 1.6 2.8 2.1-1.3 7.5-1.9 2.5-3.5 5.4-3.5 6.5 0 1.6-.4 1.9-2.1 1.4-1.9-.6-2.1-.4-1.7 2.4.4 2.7.1 3.2-2 3.8-1.7.4-2.2 1.1-1.9 2.4.3 1-.4 3-1.5 4.4-1.3 1.7-1.8 3.4-1.4 5 .9 3.4-.3 5.7-2.5 5-2.5-.8-2.4.3.3 2.4l2.2 1.8-2.5 1.5c-1.3.8-3.6 2.2-5.1 3.2-3.1 1.8-3.7 3.6-1.3 3.6 2.5 0 1.7 2.9-1 3.6-1.4.3-2.5 1.1-2.5 1.6 0 .6-.7.8-1.5.5-.8-.4-1.7-.2-2.1.4-1.1 1.8.5 2.3 3.1.9 1.4-.7 2.7-1.1 2.9-.9.2.2-.1 2.6-.8 5.3-1.4 5.3-3.8 7.5-6.1 5.6-2-1.7-3.7-.3-2.5 2 1.5 2.8 1.3 3.3-2.5 7.5-4.3 4.6-7.3 12.3-8.8 22.2-.9 5.9-1.4 7.3-2.8 7.3-2.7 0-3 1.4-.9 4.8 2 3.3 2 3.3-2.5 3.6-3.1.2-3.3 1.9-.2 3.4 1.5.7 2.7 1.7 2.7 2.2 0 .5-1.2 1.2-2.7 1.6-1.6.3-3.4.7-4 1-1.9.5-1.6 3.4.3 3.4 1.8 0 1.9-.2-2.4 7.2-2.3 3.9-4 5.8-5.3 5.8-2.5 0-2.4 2.6.1 4.2 2.9 1.8 2.5 3.8-.9 4.4-2 .4-3.3 1.5-4 3.3-.6 1.4-2.4 4.2-4 6.1-1.6 1.9-3.3 4.7-3.6 6.2-.6 2.2-.3 2.7 1.7 3.1 2.2.4 2.1.5-1 1.8-3.6 1.5-4.8 4.3-3.8 8.5.5 2 .2 3-1.3 4-1.1.8-1.8 2.1-1.5 2.9.4.9-.3 1.9-1.8 2.6-1.9.8-2.7 2.3-3.7 7.2-.7 3.4-2.2 7.5-3.3 9-1.5 2.2-1.7 3.1-.8 4.3 1 1.1.8 1.8-1.1 3.4-1.3 1-2.7 1.9-3.2 2-2 .1-4.7 6.8-4.7 11.7 0 4.6-.3 5.4-2.9 7.2-1.6 1.2-3.5 2.1-4.3 2.1-1 0-1 .2.2 1 1.5.9.7 2.5-1.3 2.5-.7 0-1.4 1.1-1.5 2.5-.2 1.3-1.3 4.6-2.3 7.2-1 2.7-1.9 6.5-1.9 8.4 0 2.4-.9 4.6-2.5 6.6-1.4 1.6-2.5 4.2-2.5 5.6 0 1.5-.9 3.8-2 5.2-1.1 1.4-2 3-2 3.7 0 2.4-3.5 8.2-5.2 8.6-1.1.3-1.8 1.5-1.8 3s-1 3.3-2.4 4.4c-2.3 1.7-6.5 11.3-6.9 15.8-.2 1.5.3 1.9 1.8 1.7 1.7-.3 1.6-.1-.5 1.4-3.9 2.7-5 4.5-5 8.6 0 2.7.4 3.8 1.5 3.8 1.8 0 2 4.1.3 5.8-.7.7-2 1.2-2.9 1.2-2.4 0-4.9 2.7-4.9 5.4 0 1.2-1.7 4-3.8 6.2-3.2 3.3-3.7 4.4-3.1 6.6.5 1.9-.1 4.1-2.2 8.2-1.6 3.1-2.9 7.2-2.9 9 0 5-.8 6.4-4.4 7.6-1.8.6-4.7 2.8-6.5 5-2.3 2.9-4 4-5.9 4-1.5 0-4.7.9-7.1 2-3.3 1.5-5.5 1.9-9.5 1.4-2.8-.3-7-.1-9.4.6-3.7.9-4.7.9-6.1-.4-2.1-1.9-5.6-2-9.2-.3-3.7 1.7-13.6 13.1-14.9 17.3-.9 2.6-1.7 3.4-3.6 3.4-3.2 0-10.2 5-11 7.8-.4 1.4-2.7 3.6-5.3 5.3-2.6 1.5-6.2 4.4-7.9 6.4-1.8 1.9-5 4.4-7.1 5.4-2.1 1.1-6.4 4.5-9.6 7.5-3.6 3.5-6.6 5.6-8.1 5.6-1.2 0-4.6 2-7.6 4.6-2.9 2.5-7.1 5-9.5 5.6-3.5 1-4.4 1.8-5.7 5.1-1.3 3.4-1.8 3.8-3.1 2.7-2-1.6-4.5-.6-4.5 2 0 3.2-3.6 6.1-6.5 5.4-2-.5-2.5-.2-2.5 1.3 0 1.1-1.1 2.5-2.4 3.2-1.3.7-2.9 2.4-3.5 3.7-.6 1.4-1.9 2.4-3.2 2.4-2.9 0-7.9 3.8-7.9 6 0 1-.9 2.2-2 2.5-1.1.4-2.8 1.7-3.6 3.1-.9 1.3-2.1 2.4-2.6 2.4-2 0-10.7 8.1-11 10.3-.2 1.7-1 2.1-4.1 2.3-3.8.1-6.1 1.3-3.9 2.1 1.9.7 1.4 3.3-.6 3.3-1 0-3.8 2.1-6.2 4.6-5.3 5.3-10.5 8.8-12 7.9-.6-.4-3.3.1-6 1.1-4.8 1.7-5 1.7-8.7-.2-5.6-2.8-7.3-4.4-7.3-7 0-1.7-1.2-3.1-3.8-4.8-2.7-1.7-4.2-3.5-5-6.4-.7-2.2-1.9-4.5-2.7-5.2-.8-.7-1.5-2-1.5-3 0-.9-.9-2.8-1.9-4.1-1-1.4-3.1-6.3-4.5-11.1-2.6-8.5-7.5-16.8-9.9-16.8-.7 0-3.4-1.2-6.1-2.6l-4.8-2.6-7.2 1.7c-13.2 3.1-17 4.7-24.8 10.6-4.3 3.3-8.4 5.9-9.2 5.9-.8 0-1.7.4-2.1.9-.3.5-1.9 1.2-3.5 1.6-1.7.4-5.6 2.6-8.8 4.9-8.5 6.4-14.8 9.8-18.7 10.1-3.6.4-7.6 2.7-11 6.5-1.1 1.2-4 3.6-6.5 5.3-2.5 1.7-7.1 5.7-10.3 8.8-6.1 5.9-8.8 6.9-18.4 6.9-6.9 0-14-5.3-15-11.2-.3-2.3-1.3-4.3-2.5-4.9-2.4-1.3-1.4-2.9 1.7-2.9 3.3 0 4.3-2.2 5.1-11.6.7-8.3 2.7-13.6 6.4-16.9 1.2-1.1 2.9-3.3 3.7-5 .9-1.6 3-4.2 4.8-5.7 1.8-1.5 3.6-3.9 3.9-5.3.5-2 1.3-2.5 3.6-2.5 2.5 0 4.8-1.8 13.6-10.6 5.8-5.9 11.1-12.1 11.8-13.9.8-1.7 3.3-5.5 5.7-8.3 6.1-7.1 12-14.9 14.3-18.6 1.1-1.7 3.4-5.5 5.3-8.4 2-3.1 3.8-7.3 4.2-10.4.5-3 1.5-5.5 2.5-6 1.8-1 2.2-6.8.5-8.5-.7-.7-.4-2 1-4.3 2-3.3 2-3.4.1-7.1-1.1-2-2.4-5.9-3-8.5-1.2-5.4-14-33.4-17-37.2-1.1-1.4-2-3.6-2-4.9 0-1.3-1.1-3.5-2.5-4.9-1.3-1.3-2.2-3.1-1.9-3.8.3-.8-1-4.1-2.9-7.3-2.4-4.2-3.3-6.8-3-8.9.3-2.2-.2-3.5-2.1-5.3-1.7-1.6-2.6-3.5-2.6-5.6 0-1.8-.9-4.4-2-5.8-1.1-1.4-2-3.2-2-4 0-.8-.7-2-1.5-2.7-.8-.7-1.5-2.4-1.5-3.9 0-3.5-2.5-11.3-6.2-18.9-2.8-5.8-3.2-6.2-6.4-6.2-1.9 0-3.4-.5-3.4-1 0-.6.9-1 1.9-1 2.7 0 3.7-2.1 1.8-3.5-1-.7-1.7-2.6-1.7-4.7 0-2.4-.8-4.2-2.5-5.8-1.4-1.3-2.5-2.9-2.5-3.6 0-.7-1.1-2.5-2.4-4.1-2.1-2.4-2.6-2.6-4-1.4-2.3 2-3.1.6-1.2-2.1.9-1.2 1.6-3 1.6-3.9 0-4.6-11.2-29.1-14.5-31.9-1-.9-1.3-2.4-.9-5.4.5-3.1.1-5.4-1.5-8.5-2.5-5.3-4.4-18.6-3.6-24.5.5-3.1.3-5.1-.8-6.7-.8-1.3-1.7-3.9-2.1-5.6-.5-3-2.6-7.9-5.4-12.8-2.9-5.1-4.3-9.6-4-12.7.3-2.9 0-3.3-1.8-3.1-1.6.2-2.5-.6-3.4-2.7-1.4-3.4-3.8-5.7-6.4-6.1-1.8-.4-1.9-.5-.3-2.1 3-2.9 2.1-8.6-2.3-15.3-2.2-3.3-4-6.4-4-7 0-.6-.9-1.6-2-2.3-1.7-1-2-2.3-2-8.1 0-5.5-.4-7.1-2-8.6-1.2-1.1-2-3.1-2-4.9 0-2.3-.9-3.7-3.4-5.6-2.1-1.5-3.7-3.7-4-5.5-.3-1.7-1.2-4.4-2-6-.8-1.7-2.2-5.7-3.2-9-.9-3.3-2.5-6.7-3.5-7.5-.9-.8-2-3.2-2.3-5.3-.4-2-2-5.3-3.6-7.1-1.7-1.9-3-4.3-3-5.4 0-1.2-1.1-3.7-2.5-5.8-1.3-2-3-5.1-3.6-6.9-1.2-3.2-1.4-3.3-7.3-3.3-3.6-.1-7.2.5-8.8 1.4zM881 18.2c0 1.3-2.3.5-2.8-1-.2-.7.2-1 1.2-.6.9.3 1.6 1.1 1.6 1.6zM194.8 28.9c.3.8-.1 1.2-.9.9-.7-.2-1.5-1-1.7-1.7-.3-.8.1-1.2.9-.9.7.2 1.5 1 1.7 1.7zm22 25.3c1.7 1.7 1.5 2.8-.6 2.8-1.9 0-4.2-1.8-4.2-3.2 0-1.2 3.5-.9 4.8.4zm641.9 1c-.3.8-.6.5-.6-.6-.1-1.1.2-1.7.5-1.3.3.3.4 1.2.1 1.9zM212.1 97.3c-.1 1.2-1.5.9-1.9-.4-.3-.6.1-1 .8-.8.6.3 1.1.8 1.1 1.2zm-60.7 12.3c.8 2.2-.4 4-1.5 2.3-1.1-1.8-1.1-3.9 0-3.9.5 0 1.2.7 1.5 1.6zm27.1 14.4c.3.5-.1 1-1 1s-1.3-.5-1-1c.3-.6.8-1 1-1 .2 0 .7.4 1 1zm24.5 46c0 .5-.7 1-1.6 1-.8 0-1.2-.5-.9-1 .3-.6 1-1 1.6-1 .5 0 .9.4.9 1zm-52 7c0 .5-.4 1-1 1-.5 0-1-.5-1-1 0-.6.5-1 1-1 .6 0 1 .4 1 1zm22.8 2.9c-.2.9-1.3 1.7-2.6 1.9-1.9.3-2.2-.1-2.2-2.7 0-2.9.1-3 2.5-1.9 1.5.7 2.4 1.8 2.3 2.7zm9.8.6c2 .8 3.3 1.8 3 2.3-.3.5.6 3.1 1.9 5.8 1.4 2.7 2.5 5.5 2.5 6.1 0 .7 1.8 2.5 4 3.9 2.2 1.5 4 3.1 4 3.5 0 1.8-.5 2.4-1.7 2.1-.7-.2-1.3.6-1.3 1.8 0 1.1.7 2 1.5 2 1.7 0 3.5 3.8 3.5 7.4 0 2.3 5.4 12.1 8.5 15.6.8.9 1.5 2.2 1.5 2.8 0 .7.8 1.7 1.8 2.3 1.2.8 1.7 2 1.4 4.3-.4 4 3.9 13.9 8.3 18.8 3.1 3.4 3.4 4.2 3.3 9.5-.1 3.8.5 7.2 1.7 9.8 2.9 6.1 3.2 7.8 2.3 10.4-.7 1.8-.4 2.9 1.1 4.5 4.2 4.6 10 13 9.5 13.8-.4.5.3 1.2 1.5 1.5 1.5.4 2.1 1.3 2.1 3.4 0 5 4.1 4.9 5.9-.3.8-2.3 1.6-2.9 3.3-2.6 3.4.5 3.3 3.4-.1 7.4-3.6 4-3.7 4.9-1.3 8.9 1.1 1.7 2.2 4.7 2.6 6.6.3 2 2.4 7.8 4.6 12.9 2.6 6.1 4 10.9 4 13.6 0 3.4.5 4.6 2.1 5.5 1.5.8 1.8 1.4 1 2.2-1.7 1.7-1.3 8.2.9 14.4 1.1 3.2 2 7.8 2 10.3 0 4 .4 4.9 3 6.8 5.2 3.9 3 8.2-3.4 6.6-2.1-.5-3.1 0-5.8 3.2-8.2 9.6-11.1 11-25.3 11.8-8.2.5-15.6 2-20.6 4.2-2.7 1.2-4.2 1.3-5.5.6-2.3-1.3-11.1 1.2-14.1 4-1.7 1.6-2.9 1.9-6 1.3-2.6-.4-5.6 0-8.7 1-5.3 1.8-8.8 1.7-23.4-.9-6.9-1.2-9.7-1.4-11.3-.6-1.6.9-1.8 1.4-.8 2.6.9 1.1.9 1.8.1 2.6s-1.2.8-1.6-.3c-.2-.8-.7-2.2-1-3.2-.3-1-2.7-2.7-5.2-3.9-3.8-1.6-5.8-1.9-10.8-1.3-7.6.8-10.8-.3-16.4-5.8-8.7-8.3-17.7-24.7-20.3-36.7-1.4-6.5 2.6-24.3 8.7-38.5 3.3-7.9 4.6-12.2 4.5-15.1-.1-2.6.4-4.8 1.4-5.7 1.9-2 1.9-3.1 0-2.3-1.8.6-4.5-.2-4.5-1.5 0-1.7 5.5-3.8 7.4-2.7 2.1 1.2 1.7 1.6 5.1-5.2 2-3.9 2.7-6.8 2.6-10.3-.1-4.5.1-4.9 3-5.9 2.1-.7 3.2-1.9 3.6-3.8.3-1.7 1.5-3.2 3-3.9 2.2-1 2.5-1.6 2-4.7-.3-2-.2-6.1.3-9.2 2.6-15.7 3.4-19.3 4.2-19.8.4-.3.8-1.6.8-3 0-1.8-.5-2.4-2.1-2.4s-2-.5-1.7-2.7c.4-3.2 2-3.9 4.1-1.8 2.1 2.1 3.7 1.9 3.7-.5 0-2.7 2-11.1 3.1-13 2.3-3.9 3.9-8.5 3.9-11 0-1.7.8-3.3 2.2-4.2 2-1.3 2.1-1.7.9-3.2-1.2-1.4-1.2-1.9.1-3.4 2.3-2.7 2.8-5 1.8-7.8-1.2-3.2-.1-4.9 3.8-5.9 4-1 7.2-4.4 7.2-7.7 0-2.6.3-2.8 3.8-2.8h3.7l-3.2 2c-1.8 1.1-3.3 2.2-3.3 2.6 0 .3 1.5.2 3.3-.1 2.1-.5 4.7-2.4 7.5-5.6 4.8-5.4 5.6-5.6 10.8-3.4zm-31.6.5c0 .5-.5 1-1.1 1-.5 0-.7-.5-.4-1 .3-.6.8-1 1.1-1 .2 0 .4.4.4 1zm74 .4c0 .3-.4.8-1 1.1-.5.3-1 .1-1-.4 0-.6.5-1.1 1-1.1.6 0 1 .2 1 .4zM144 196c0 .5.9 1.8 2 2.8 1.8 1.6 1.8 2.1.6 3.1-1.1.9-1.8.5-3.4-2.1-2-3.1-2.1-4.8-.1-4.8.5 0 .9.4.9 1zm739.8 5.6c1.7 2.7 2.9 3.5 4.3 3.1 1.6-.4 1.9-.1 1.4 1.3-.3 1-.2 2.7.4 3.7 3.3 6.1 6.1 13 6.1 14.9 0 1.2.9 3.3 2 4.7 1.3 1.7 2 4 2 7.1 0 3.2.5 4.8 1.8 5.5 1.4.8 1.5 1.2.5 2.2-2 2-1.6 4.5 2.2 13 1.9 4.4 3.5 9.3 3.5 10.9 0 1.6 1.1 4.1 2.4 5.7 3.9 4.7 9.6 21.3 10.1 29.6.7 10.3 1.5 15 3.1 16.7 2.2 2.6 4.4 8.7 4.4 12.4 0 2.5.9 4.5 3 6.9 1.7 1.9 3 4.4 3 5.6 0 1.2.5 3 1 4.1.6 1.1 1.5 2.9 2 4 .6 1.1 1 2.6 1 3.4 0 .8.7 1.9 1.6 2.4 1.5.8 1.5 1.2 0 4-1.9 3.7-1.3 5.5 3.8 12.6 2.6 3.7 3.4 5.6 2.9 7.6-.3 1.5 0 3 .5 3.4.7.4.9 3.3.5 7.9-.5 6.1-1.1 7.7-3.5 10.6-1.6 1.8-3.7 4.9-4.6 6.7-1.2 2.6-2.2 3.4-4.2 3.4-1.4 0-3.1.5-3.7 1.1-.7.7-3 .9-6 .5-6.2-.7-4.2-.7-23.8-.2-12 .2-17.9 0-20.1-.9-2.5-1-4.5-1-10.5.2-4.1.7-8.4 1.1-9.6.8-1.2-.3-4.1 0-6.5.6-3 .8-6 .9-10 .2-4.3-.7-6.2-.7-8 .4-2.3 1.3-15.2.8-17.3-.7-.5-.3-3.2-1.5-5.9-2.5-5.2-1.9-13.6-8.8-13.6-11.1 0-.7-1.2-4-2.6-7.3l-2.6-6 1.6-7.2c.9-3.9 1.6-8.4 1.6-9.8 0-1.5.4-3.1 1-3.7.5-.5 1-3.8 1.2-7.4.2-5.7.6-6.8 3-8.8 1.7-1.4 3-3.7 3.3-6 .3-2 2.2-7.4 4.1-11.9 1.9-4.5 3.4-8.6 3.4-9.1s.9-1.7 2-2.7c1-.9 2.7-3.8 3.6-6.4 1-2.5 2.4-5.5 3.1-6.6.7-1.1 1.3-2.6 1.3-3.4 0-.8.6-2.2 1.4-3 1.8-2.2 2.7-7.6 1.4-8.9-1.2-1.2-.2-3.2 1.6-3.2.8 0 2.2-1.2 3.1-2.7 1.6-2.4 1.6-2.7.1-3.8-2.1-1.6-2.2-7-.1-6.1 2.5.9 8.5-12.9 8.5-19.6 0-3.8.4-5.8 1.4-6.1.7-.3 1.6-2.6 1.9-5.1.4-2.5 1.4-5.7 2.3-7.1.9-1.4 1.3-3.2.9-4.5-.5-1.5.1-2.7 2.3-4.5 2.9-2.4 3.8-5.3 4.8-14.5.6-6.1 2.8-12.7 4.1-12.3.7.3 2.4-.4 3.8-1.5s5.4-2.5 9-3.2c3.6-.7 6.8-1.6 7.1-2.1 1.2-1.9 4-.7 6.2 2.7zm-742.8.9c0 3.5-1.8 4-3.2 1-1-2.1-.9-2.8.2-3.5 1.9-1.2 3-.3 3 2.5zm752 .5c0 .5-.5 1-1.1 1-.5 0-.7-.5-.4-1 .3-.6.8-1 1.1-1 .2 0 .4.4.4 1zm-43 2.1c0 .5-.7.9-1.5.9-1.5 0-2-1.2-.9-2.3.8-.8 2.4.1 2.4 1.4zm-1 13.9c0 .5-.8 1-1.7 1-1.5 0-1.6-.2-.3-1 1.9-1.2 2-1.2 2 0zm-607 1c0 .5-.2 1-.4 1-.3 0-.8-.5-1.1-1-.3-.6-.1-1 .4-1 .6 0 1.1.4 1.1 1zm-30 8.9c0 .6-.4 1.3-1 1.6-.5.3-1-.1-1-.9 0-.9.5-1.6 1-1.6.6 0 1 .4 1 .9zm-86 12.6c1 1.2 1 1.9.2 2.7-1.3 1.3-6.6-1.7-5.7-3.2.9-1.5 4.1-1.2 5.5.5zm-7.9 3c-.1 1.5-2.4 1.2-2.9-.3-.3-.9.2-1.3 1.2-1 1 .1 1.7.7 1.7 1.3zm104.9.5c0 .5-.2 1-.4 1-.3 0-.8-.5-1.1-1-.3-.6-.1-1 .4-1 .6 0 1.1.4 1.1 1zm-158 2c0 .5-.4 1-1 1-.5 0-1-.5-1-1 0-.6.5-1 1-1 .6 0 1 .4 1 1zm208.9.3c1.4 1.7.5 2.7-2.4 2.7-2.4 0-4.9-2.2-3.8-3.3 1.1-1.2 5-.8 6.2.6zm10.1-.3c0 .5-.5 1-1.1 1-.5 0-.7-.5-.4-1 .3-.6.8-1 1.1-1 .2 0 .4.4.4 1zm631.8 12.7c-.5 2.6-3.8 2.9-3.8.4 0-1.5.6-2.1 2.1-2.1 1.4 0 1.9.5 1.7 1.7zm-806.2 2.4c.8 1.4-1.4 2.9-3.3 2.2-.7-.3-1.3-1.1-1.3-1.9 0-1.7 3.6-1.9 4.6-.3zm5.4-.1c0 .5-.4 1-1 1-.5 0-1-.5-1-1 0-.6.5-1 1-1 .6 0 1 .4 1 1zm12 6.5c.6.8.8 1.9.4 2.6-.4.6-.7 2-.8 3-.2 2.9-2 2.3-2.7-.8-.4-1.5-.7-3.3-.9-3.8-.7-2.8 1.9-3.5 4-1zm-7 3.8c0 1.7-3.7 3.9-4.5 2.6-.4-.5-.4-1.6-.1-2.4.7-1.8 4.6-2 4.6-.2zm1 11.7c0 .5-.7 1-1.5 1s-1.5-.5-1.5-1c0-.6.7-1 1.5-1s1.5.4 1.5 1zm198.3 5.5c-.4 1.5-3.6 1.2-4.1-.3-.3-.9.3-1.3 1.9-1 1.3.1 2.3.7 2.2 1.3zM117 291.4c0 .3-.4.8-1 1.1-.5.3-1 .1-1-.4 0-.6.5-1.1 1-1.1.6 0 1 .2 1 .4zm145 17.1c0 .8-.4 1.5-1 1.5-.5 0-1-.7-1-1.5s.5-1.5 1-1.5c.6 0 1 .7 1 1.5zm-156 5.3c0 1.3-1.2 2.2-2.2 1.6-1-.6-.1-2.4 1.3-2.4.5 0 .9.4.9.8zM807.5 332c.3.5.1 1-.4 1-.6 0-1.1-.5-1.1-1 0-.6.2-1 .4-1 .3 0 .8.4 1.1 1zm-756.1 7.1c-.3.5-1 .7-1.5.3-.5-.3-.7-1-.3-1.5.3-.5 1-.7 1.5-.3.5.3.7 1 .3 1.5zM729 346c0 .5-.2 1-.4 1-.3 0-.8-.5-1.1-1-.3-.6-.1-1 .4-1 .6 0 1.1.4 1.1 1zm60 4c0 .5-.2 1-.4 1-.3 0-.8-.5-1.1-1-.3-.6-.1-1 .4-1 .6 0 1.1.4 1.1 1zm-733 9.8c0 1.3-1.2 2.2-2.2 1.6-1-.6-.1-2.4 1.3-2.4.5 0 .9.4.9.8zM782 396c0 .5-.5 1-1.1 1-.5 0-.7-.5-.4-1 .3-.6.8-1 1.1-1 .2 0 .4.4.4 1zM68.1 430.3c-.1 1.2-1.5.9-1.9-.4-.3-.6.1-1 .8-.8.6.3 1.1.8 1.1 1.2zm94.4 5.7c0 .7-.6 1.5-1.2 1.7-.8.3-1.3-.4-1.3-1.7 0-1.3.5-2 1.3-1.8.6.3 1.2 1.1 1.2 1.8zM273 527.5c0 .8-.4 1.5-.9 1.5-1.3 0-2.2-1.6-1.4-2.4 1.1-1.1 2.3-.6 2.3.9zm-14.6 2.1c.7 1.8-2.1 3.1-3.6 1.6s-.2-4.3 1.6-3.6c.8.3 1.7 1.2 2 2zm425 158.5c2.5 1.1 5.4 3.1 6.3 4.5.9 1.4 2.8 3.8 4.3 5.4 1.5 1.6 3.3 5 4 7.5.7 2.5 1.7 4.8 2.1 5.1.5.3 1.4 2.4 2 4.7.6 2.3 4.4 9 8.4 14.8 4.7 6.8 6.9 11.1 6.3 11.7-.6.6.2 2.6 2.2 5.5 1.7 2.6 4.9 8.4 7 12.9 2.1 4.6 5.4 9.8 7.4 11.7 1.9 1.8 3.7 4.3 4 5.5.3 1.2 1.9 2.6 3.5 3.2 1.9.8 3.7 2.7 5.1 5.4 1.2 2.3 3.6 6.3 5.5 8.9 3 4.1 3.4 5.5 3.7 12.1.3 7.1.2 7.5-1.9 7.8-1.2.2-2.7 1-3.3 1.8-.7.8-2.4 1.4-3.9 1.4s-3.6.7-4.8 1.5c-2.5 1.7-5 1.1-5.8-1.5-1.1-3.4-3.3-4.5-5.3-2.6-2.8 2.5-5.4 2-11.8-2.5-7.5-5.2-12.2-9.6-14.1-13.3-.8-1.6-2.8-4-4.4-5.3-1.5-1.3-3.1-3.3-3.4-4.3-.4-1.3-1.5-2-3-2-1.6 0-2.6-.8-3.1-2.2-.4-1.3-2.4-4.6-4.6-7.5-2.8-3.8-4.5-5.3-6.3-5.3-1.5 0-2.6-.7-3-2.1-1.2-3.5-9.3-13.6-12.8-15.8-1.7-1.1-4.5-3.3-6.1-5-1.7-1.7-3.5-3.1-4.2-3.1-.7 0-3.9-2.5-7-5.5-3.2-3-6.6-5.5-7.5-5.5-1.2 0-1.9-1.2-2.4-4.1-.6-3.6-.1-5.2 3.7-12.9 3.1-6.1 4.2-9.2 3.5-9.9-1.2-1.2 1.8-5.1 4-5.1.8 0 2.4-.9 3.6-2.1 1.2-1.1 4.2-3.2 6.7-4.6 2.5-1.5 5.6-3.7 7-4.9 2.5-2.3 10.5-6.3 12.6-6.4.6 0 3.2.9 5.8 2.1zM58.8 699.4c.3 2 0 2.7-1 2.4-.7-.3-1.4-1.7-1.6-3.2-.3-2 0-2.7 1-2.4.7.3 1.4 1.7 1.6 3.2zm329.6 27.9c1.7 1.7 4.3 4 5.9 5 1.9 1.2 2.7 2.6 2.7 4.6 0 1.9.7 3.1 2.3 3.9 1.9.9 1.9 1.1.3 1.1-1.3.1-1.7.6-1.3 2.1.3 1-.1 2.4-.9 3.1-1.8 1.4-1.8 3.3-.1 4.8 2.3 1.9.8 6.6-3.5 10.7-8.2 7.8-12.8 12.9-12.8 14.1 0 .7-1.8 2.4-4 3.8s-4 2.9-4 3.5c0 .5-1.6 1.7-3.5 2.6-4.2 2-8.5 6.8-8.5 9.5 0 1-.5 1.9-1 1.9-.6 0-5.6 4.7-11.1 10.5-5.6 5.8-13.1 12.7-16.8 15.4-3.6 2.7-7.4 6.5-8.4 8.4-1.1 1.9-3 4-4.3 4.6-1.4.6-4.8 2.8-7.7 5-6.2 4.6-9.3 5.7-11.3 4.1-.8-.7-2.9-1.6-4.7-1.9l-3.2-.7.3-6.9c.2-5.1.9-8.1 2.8-11.6 1.8-3.2 2.4-5.4 1.9-6.9-.8-2.4 2.7-7 5.2-7 1 0 1.2-.9.7-3.5-.5-2.7-.3-3.6 1-4.1.9-.4 2.8-2.8 4.1-5.4 1.7-3.4 3.3-5.1 5.5-5.8 1.6-.6 3-1.8 3-2.7 0-.8 1.2-2.1 2.6-2.7 1.4-.7 3.6-3.3 5-6 1.5-3 3.9-5.7 6.3-7.3 2.2-1.3 5.3-4.4 6.9-6.8 1.7-2.4 3.7-4.9 4.6-5.6.8-.7 1.8-2.7 2.2-4.4.3-1.8 2.2-6.6 4.1-10.7 2.7-6 4.2-8.1 7.3-10 3.3-2.1 4-3 4-5.7 0-1.7.5-3.5 1.1-3.9.6-.3 5.4-1 10.7-1.4 5.4-.4 10.5-.8 11.6-.9 1 0 3.3 1.4 5 3.2zm251.4 16.9c2.1 2.1 1.4 4.8-1.1 4.8-2.8 0-4.7-1.7-4.7-4.2 0-2.1 3.9-2.5 5.8-.6zm21.2 20.7c1.2 2.3.4 5.1-1.5 5.1-1.4 0-2.5-2.2-2.5-5.1 0-2.5 2.6-2.5 4 0zm-559 53c0 .6-.4 1.3-1 1.6-.5.3-1-.1-1-.9 0-.9.5-1.6 1-1.6.6 0 1 .4 1 .9zM649.3 850c5.4 2.4 9.7 4.6 9.7 5 0 .4 1.9 2 4.3 3.5 2.3 1.5 7.4 6.5 11.2 11.1l7 8.3-.3 7.8c-.4 11.4-3.8 24.8-7.3 28.8-1.6 1.8-2.9 4-2.9 4.9 0 .8-1.5 2.3-3.2 3.2-1.8.9-4 2.4-5 3.4-1.9 2-12 3.4-17.2 2.5-2.3-.5-4.5-.1-7.2 1.3-6 2.9-15.6 1.8-21-2.5-2.2-1.7-6.4-4.2-9.4-5.6-3.4-1.5-7.3-4.4-10.2-7.6-2.6-2.8-5.1-5.1-5.5-5.1-1.5 0-.6-20.3 1.1-26.3 1-3.1 1.6-7.5 1.5-9.8-.2-2.7.1-4.3 1.1-4.9.8-.5 1.5-2 1.5-3.2 0-1.6.7-2.4 2.3-2.6 1.2-.2 3-1.5 4-3 .9-1.5 3.2-4 5-5.5 1.7-1.6 3.2-3.5 3.2-4.3 0-.9 1.2-1.4 3.8-1.4 2 0 5.7-.7 8.2-1.5 7.1-2.3 14.3-1.3 25.3 3.5zm-222.5 15.7c9.5 5.8 15.2 11 15.2 13.8 0 1.6.6 2.5 1.6 2.5.8 0 1.9 1.3 2.5 2.8.6 1.6 2.1 3.2 3.8 3.9 3.1 1.1 3.2 1.6 4.7 16.8.3 3.3 1.2 7 2 8.3 1.3 2 1.3 2.5-.1 4.4-.8 1.3-1.5 3.9-1.5 5.9 0 2-.7 4.2-1.5 4.9-.8.7-1.9 2.9-2.5 5-.5 2-2.1 5.4-3.5 7.4s-2.5 4.3-2.5 5c0 .8-.7 1.9-1.5 2.6-.9.7-1.4 1.9-1.1 2.7.3.8-.8 1.9-3.2 2.9-2 .8-4.9 2.6-6.3 4-1.4 1.3-3.6 2.6-4.8 2.9-1.2.2-5.1 1.6-8.6 3s-7.8 2.5-9.7 2.5c-1.8 0-5 .4-7 .9-2.8.7-5.9.3-13-1.6-5.1-1.4-10.3-2.7-11.4-3-1.2-.3-2.7-1.6-3.4-2.9-.7-1.3-2.1-2.6-3.2-3-1-.3-1.8-1.2-1.8-2s-1.6-3.1-3.5-5.2c-1.9-2.2-5.1-7.3-7-11.5-3-6.2-3.8-9.3-4.7-18.1-.8-8.9-.8-11.2.6-15.3 2.5-7.5 10.9-16.9 21.6-24.3 2.9-1.9 6.9-5 8.9-6.8 2.4-2 4.9-3.2 6.7-3.2 1.6 0 4.9-1 7.4-2.1 2.5-1.2 6.9-2.2 9.9-2.4 3.8-.2 5.9-.9 7.4-2.4 1.2-1.1 2.4-2.1 2.7-2.1.4 0 3.4 1.7 6.8 3.7z"/><path d="M877.4 5.5c-1.7 1.3-1.7 1.4-.2 1.5.9 0 2-.5 2.3-1.1 1.1-1.7 0-2-2.1-.4zM869.5 14c-.3.5-.2 1.7.3 2.6.8 1.4 1 1.4 1.5-.5.5-2.2-.7-3.8-1.8-2.1zM94 168.3c0 .8.7 1.8 1.6 2.1 1.1.4 1.4.1 1.2-1.1-.4-2.1-2.8-3-2.8-1z"/></svg>