<?xml version="1.0" standalone="no"?>
<!DOCTYPE svg PUBLIC "-//W3C//DTD SVG 20010904//EN"
 "http://www.w3.org/TR/2001/REC-SVG-20010904/DTD/svg10.dtd">
<svg version="1.0" xmlns="http://www.w3.org/2000/svg" width="1080.000000pt" height="1080.000000pt" viewBox="0 0 1080.000000 1080.000000" preserveAspectRatio="xMidYMid meet">
<metadata>
Created by potrace 1.14, written by Peter Selinger 2001-2017
</metadata>
<g transform="translate(0.000000,1080.000000) scale(0.100000,-0.100000)" fill="#000000" stroke="none">
<path d="M1898 10784 c-22 -11 -28 -22 -28 -48 0 -21 -6 -36 -15 -40 -8 -3
-15 -12 -15 -20 0 -9 -7 -12 -18 -9 -21 5 -49 -22 -32 -32 16 -10 12 -23 -9
-30 -27 -8 -64 -85 -49 -102 8 -10 7 -18 -6 -31 -9 -10 -16 -30 -16 -44 0 -14
-6 -31 -14 -37 -7 -6 -16 -27 -19 -47 -3 -19 -17 -48 -31 -64 -16 -19 -22 -37
-19 -50 4 -15 0 -23 -13 -26 -19 -5 -64 -89 -64 -118 0 -9 -11 -18 -25 -22
-14 -4 -24 -11 -22 -18 2 -6 -4 -22 -14 -35 -11 -13 -19 -40 -19 -62 0 -29 -5
-39 -20 -44 -11 -4 -20 -15 -20 -27 0 -11 -8 -22 -19 -25 -11 -3 -17 -11 -15
-18 3 -7 0 -16 -6 -20 -8 -5 -8 -11 0 -20 12 -15 -13 -41 -30 -30 -5 3 -14 -4
-19 -17 -5 -13 -18 -32 -30 -42 -14 -13 -20 -29 -19 -48 2 -20 -4 -33 -15 -40
-12 -6 -16 -16 -12 -29 4 -13 2 -19 -9 -19 -9 0 -16 -4 -16 -10 0 -5 -7 -10
-15 -10 -20 0 -19 -9 2 -33 17 -19 16 -21 -29 -61 -27 -23 -48 -47 -48 -52 0
-6 -18 -30 -40 -53 -27 -28 -42 -54 -46 -81 -4 -24 -20 -55 -41 -79 -29 -34
-32 -44 -23 -61 8 -16 7 -25 -7 -45 -10 -13 -26 -27 -35 -30 -12 -4 -18 -17
-19 -38 -1 -40 -28 -89 -56 -102 -21 -9 -26 -21 -41 -95 -4 -19 -13 -36 -20
-36 -6 -1 -14 -2 -16 -3 -2 0 0 -17 4 -36 6 -25 4 -38 -6 -46 -8 -6 -14 -22
-14 -35 0 -16 -10 -28 -30 -39 -28 -14 -35 -26 -31 -49 3 -14 -27 -72 -44 -86
-8 -7 -15 -27 -15 -46 0 -20 -12 -52 -29 -80 -17 -25 -33 -60 -37 -78 -3 -17
-14 -40 -24 -51 -10 -11 -30 -51 -45 -90 -15 -38 -32 -81 -40 -95 -7 -14 -18
-49 -24 -78 -13 -63 -27 -92 -53 -110 -10 -7 -18 -20 -18 -28 0 -8 -17 -33
-38 -57 -50 -55 -198 -363 -212 -440 -6 -31 -17 -69 -25 -84 -8 -16 -15 -39
-15 -52 0 -13 -11 -39 -25 -56 -13 -18 -22 -35 -20 -37 3 -3 -11 -70 -31 -149
l-36 -144 6 -270 c7 -308 13 -405 28 -423 6 -7 11 -43 13 -80 1 -37 7 -77 13
-89 7 -12 12 -37 12 -56 0 -18 7 -56 15 -83 9 -31 11 -52 5 -58 -19 -19 -10
-52 20 -75 25 -18 29 -25 20 -41 -7 -13 -7 -27 -2 -37 5 -10 12 -56 15 -103 8
-104 35 -258 50 -285 10 -18 13 -43 18 -145 0 -13 7 -33 14 -43 9 -13 12 -35
8 -67 -5 -39 -2 -53 18 -79 20 -28 23 -43 22 -109 -1 -52 5 -96 18 -136 10
-33 19 -72 19 -88 0 -16 7 -42 14 -57 8 -15 13 -37 10 -47 -3 -11 2 -40 10
-64 9 -25 16 -63 16 -85 0 -22 7 -68 15 -103 8 -35 12 -74 9 -86 -4 -16 0 -25
10 -29 12 -5 16 -22 16 -74 0 -87 24 -255 44 -312 9 -24 16 -61 16 -83 0 -21
7 -55 16 -76 8 -20 18 -70 21 -111 2 -41 13 -107 23 -147 25 -98 34 -183 22
-215 -7 -16 -7 -31 0 -43 21 -38 85 -346 91 -441 1 -16 5 -35 10 -42 4 -6 16
-55 27 -109 11 -54 31 -117 44 -141 18 -31 23 -53 19 -76 -3 -19 2 -49 11 -70
13 -33 19 -37 50 -37 20 0 36 -5 36 -11 0 -7 -11 -8 -31 -4 l-32 7 7 -43 c18
-128 24 -152 45 -180 18 -24 21 -38 16 -68 -4 -23 0 -54 9 -82 9 -24 16 -54
16 -66 0 -12 4 -24 8 -27 5 -3 9 -36 10 -73 3 -79 15 -157 36 -230 8 -28 12
-69 9 -90 -4 -28 -1 -44 11 -55 12 -13 16 -37 16 -100 0 -64 8 -115 36 -218
19 -74 36 -144 36 -155 0 -11 6 -36 13 -55 8 -19 23 -100 35 -180 14 -90 31
-167 47 -203 21 -50 24 -67 18 -117 -5 -45 -3 -67 9 -91 9 -18 16 -38 16 -46
0 -11 675 -13 4129 -13 l4128 0 36 33 c28 27 35 41 35 73 0 28 6 42 21 53 20
13 20 14 4 27 -17 13 -17 15 -1 27 14 11 15 21 8 51 -9 40 10 102 37 119 8 5
11 30 9 73 -2 35 1 67 6 70 5 4 7 18 4 33 -5 18 -4 22 3 12 8 -12 11 -9 17 15
3 16 13 35 22 42 12 9 13 15 4 24 -17 17 -15 22 12 55 24 28 38 95 23 109 -13
13 -7 24 12 24 25 0 37 50 19 79 -11 18 -9 23 10 41 18 17 20 24 10 40 -10 15
-9 23 6 39 13 15 17 28 11 48 -11 45 -8 73 9 92 11 13 15 27 11 44 -4 14 -2
34 4 44 7 12 10 13 11 4 0 -11 3 -11 15 -1 18 15 20 47 3 52 -8 3 -7 11 5 28
9 14 17 32 17 41 0 10 6 20 13 23 10 5 10 7 0 12 -20 9 -15 32 7 39 20 6 20
15 3 78 -2 9 2 20 11 23 10 4 14 18 13 45 -2 22 3 45 9 50 8 7 10 20 4 40 -7
22 -5 29 5 29 9 0 12 -6 8 -16 -4 -12 -2 -15 8 -12 17 6 24 47 11 60 -7 7 -7
19 0 37 6 14 14 35 18 46 4 11 13 36 20 55 15 38 21 125 20 262 0 79 3 97 36
175 33 80 35 91 24 126 -9 31 -8 40 5 53 19 20 19 21 -5 51 -26 34 -25 45 3
38 21 -6 23 -2 35 64 6 38 9 83 6 100 -5 21 0 38 15 59 29 41 27 47 -19 62
-40 13 -58 37 -21 27 23 -6 64 20 55 34 -3 6 2 19 12 30 18 20 18 22 1 51 -17
30 -17 32 8 70 14 21 22 44 18 51 -12 20 -31 135 -26 162 3 14 11 25 18 25 7
0 16 19 20 47 6 39 4 49 -11 60 -17 12 -17 14 1 33 13 14 19 39 21 90 1 39 7
77 13 84 6 6 12 36 15 65 4 41 12 61 32 82 29 30 26 36 -7 19 -15 -8 -19 -7
-19 4 0 8 5 18 11 21 6 4 8 13 5 21 -3 7 6 27 19 43 22 25 23 30 10 41 -21 18
-19 41 5 47 16 4 20 14 20 49 0 32 5 47 19 55 15 10 16 17 8 40 -13 33 7 106
36 129 15 13 17 20 8 43 -8 21 -8 34 1 50 6 12 12 39 12 59 1 20 4 40 8 44 4
4 5 18 1 32 -4 16 -2 23 4 19 13 -8 30 57 37 134 2 31 11 71 20 87 11 22 16
58 16 120 0 84 1 89 24 100 20 9 25 20 29 69 8 89 24 173 37 187 6 8 13 38 16
67 3 30 11 70 18 89 22 57 56 188 56 212 0 29 32 131 46 149 6 8 14 39 18 69
7 59 36 162 47 170 4 3 7 16 8 30 0 45 20 143 29 149 12 7 20 62 31 206 6 82
4 130 -6 190 -17 95 -60 242 -73 250 -5 3 -15 25 -21 48 -6 23 -20 54 -30 68
-10 15 -19 33 -19 41 0 8 -7 23 -15 34 -8 10 -15 27 -15 37 0 11 -36 94 -81
185 -81 167 -81 167 -75 229 7 71 1 89 -69 188 -54 76 -81 130 -88 176 -3 20
-21 70 -40 110 -19 41 -44 106 -56 144 -12 39 -28 79 -35 90 -7 11 -16 39 -20
63 -3 24 -25 76 -47 115 -22 40 -50 101 -62 137 -11 36 -26 72 -32 80 -7 8
-22 37 -34 63 -11 27 -32 62 -46 79 -14 16 -25 41 -25 55 0 14 -9 40 -19 57
-10 17 -22 46 -26 64 -4 18 -31 81 -61 139 -30 59 -54 114 -54 123 0 10 -7 34
-15 53 -8 20 -15 49 -15 65 0 16 -13 49 -30 73 -16 24 -30 53 -30 65 0 32 -20
82 -56 144 -41 71 -97 252 -89 290 5 23 -2 36 -41 81 -25 30 -54 72 -64 94 -9
22 -24 46 -33 53 -16 14 -50 109 -62 172 -8 46 -62 173 -97 229 -16 25 -28 48
-28 53 0 4 -11 24 -25 44 -14 21 -32 60 -40 88 -11 37 -28 64 -63 97 -58 57
-85 71 -137 74 -47 3 -65 -8 -65 -42 0 -17 -7 -27 -20 -30 -17 -4 -18 -8 -8
-20 10 -12 5 -20 -24 -46 -42 -37 -58 -65 -58 -101 0 -31 -45 -68 -74 -61 -19
5 -19 4 2 -6 29 -16 28 -21 -13 -75 -19 -25 -35 -54 -35 -65 0 -16 -4 -19 -21
-14 -19 6 -21 4 -17 -24 4 -27 1 -32 -20 -38 -17 -4 -22 -11 -19 -24 3 -10 -4
-30 -15 -44 -13 -17 -18 -34 -14 -50 9 -34 -3 -57 -25 -50 -25 8 -24 -3 3 -24
l22 -18 -25 -15 c-13 -8 -36 -22 -51 -32 -31 -18 -37 -36 -13 -36 25 0 17 -29
-10 -36 -14 -3 -25 -11 -25 -16 0 -6 -7 -8 -15 -5 -8 4 -17 2 -21 -4 -11 -18
5 -23 31 -9 14 7 27 11 29 9 2 -2 -1 -26 -8 -53 -14 -53 -38 -75 -61 -56 -20
17 -37 3 -25 -20 15 -28 13 -33 -25 -75 -43 -46 -73 -123 -88 -222 -9 -59 -14
-73 -28 -73 -27 0 -30 -14 -9 -48 20 -33 20 -33 -25 -36 -31 -2 -33 -19 -2
-34 15 -7 27 -17 27 -22 0 -5 -12 -12 -27 -16 -16 -3 -34 -7 -40 -10 -19 -5
-16 -34 3 -34 18 0 19 2 -24 -72 -23 -39 -40 -58 -53 -58 -25 0 -24 -26 1 -42
29 -18 25 -38 -9 -44 -20 -4 -33 -15 -40 -33 -6 -14 -24 -42 -40 -61 -16 -19
-33 -47 -36 -62 -6 -22 -3 -27 17 -31 22 -4 21 -5 -10 -18 -36 -15 -48 -43
-38 -85 5 -20 2 -30 -13 -40 -11 -8 -18 -21 -15 -29 4 -9 -3 -19 -18 -26 -19
-8 -27 -23 -37 -72 -7 -34 -22 -75 -33 -90 -15 -22 -17 -31 -8 -43 10 -11 8
-18 -11 -34 -13 -10 -27 -19 -32 -20 -20 -1 -47 -68 -47 -117 0 -46 -3 -54
-29 -72 -16 -12 -35 -21 -43 -21 -10 0 -10 -2 2 -10 15 -9 7 -25 -13 -25 -7 0
-14 -11 -15 -25 -2 -13 -13 -46 -23 -72 -10 -27 -19 -65 -19 -84 0 -24 -9 -46
-25 -66 -14 -16 -25 -42 -25 -56 0 -15 -9 -38 -20 -52 -11 -14 -20 -30 -20
-37 0 -24 -35 -82 -52 -86 -11 -3 -18 -15 -18 -30 0 -15 -10 -33 -24 -44 -23
-17 -65 -113 -69 -158 -2 -15 3 -19 18 -17 17 3 16 1 -5 -14 -39 -27 -50 -45
-50 -86 0 -27 4 -38 15 -38 18 0 20 -41 3 -58 -7 -7 -20 -12 -29 -12 -24 0
-49 -27 -49 -54 0 -12 -17 -40 -38 -62 -32 -33 -37 -44 -31 -66 5 -19 -1 -41
-22 -82 -16 -31 -29 -72 -29 -90 0 -50 -8 -64 -44 -76 -18 -6 -47 -28 -65 -50
-23 -29 -40 -40 -59 -40 -15 0 -47 -9 -71 -20 -33 -15 -55 -19 -95 -14 -28 3
-70 1 -94 -6 -37 -9 -47 -9 -61 4 -21 19 -56 20 -92 3 -37 -17 -136 -131 -149
-173 -9 -26 -17 -34 -36 -34 -32 0 -102 -50 -110 -78 -4 -14 -27 -36 -53 -53
-26 -15 -62 -44 -79 -64 -18 -19 -50 -44 -71 -54 -21 -11 -64 -45 -96 -75 -36
-35 -66 -56 -81 -56 -12 0 -46 -20 -76 -46 -29 -25 -71 -50 -95 -56 -35 -10
-44 -18 -57 -51 -13 -34 -18 -38 -31 -27 -20 16 -45 6 -45 -20 0 -32 -36 -61
-65 -54 -20 5 -25 2 -25 -13 0 -11 -11 -25 -24 -32 -13 -7 -29 -24 -35 -37 -6
-14 -19 -24 -32 -24 -29 0 -79 -38 -79 -60 0 -10 -9 -22 -20 -25 -11 -4 -28
-17 -36 -31 -9 -13 -21 -24 -26 -24 -20 0 -107 -81 -110 -103 -2 -17 -10 -21
-41 -23 -38 -1 -61 -13 -39 -21 19 -7 14 -33 -6 -33 -10 0 -38 -21 -62 -46
-53 -53 -105 -88 -120 -79 -6 4 -33 -1 -60 -11 -48 -17 -50 -17 -87 2 -56 28
-73 44 -73 70 0 17 -12 31 -38 48 -27 17 -42 35 -50 64 -7 22 -19 45 -27 52
-8 7 -15 20 -15 30 0 9 -9 28 -19 41 -10 14 -31 63 -45 111 -26 85 -75 168
-99 168 -7 0 -34 12 -61 26 l-48 26 -72 -17 c-132 -31 -170 -47 -248 -106 -43
-33 -84 -59 -92 -59 -8 0 -17 -4 -21 -9 -3 -5 -19 -12 -35 -16 -17 -4 -56 -26
-88 -49 -85 -64 -148 -98 -187 -101 -36 -4 -76 -27 -110 -65 -11 -12 -40 -36
-65 -53 -25 -17 -71 -57 -103 -88 -61 -59 -88 -69 -184 -69 -69 0 -140 53
-150 112 -3 23 -13 43 -25 49 -24 13 -14 29 17 29 33 0 43 22 51 116 7 83 27
136 64 169 12 11 29 33 37 50 9 16 30 42 48 57 18 15 36 39 39 53 5 20 13 25
36 25 25 0 48 18 136 106 58 59 111 121 118 139 8 17 33 55 57 83 61 71 120
149 143 186 11 17 34 55 53 84 20 31 38 73 42 104 5 30 15 55 25 60 18 10 22
68 5 85 -7 7 -4 20 10 43 20 33 20 34 1 71 -11 20 -24 59 -30 85 -12 54 -140
334 -170 372 -11 14 -20 36 -20 49 0 13 -11 35 -25 49 -13 13 -22 31 -19 38 3
8 -10 41 -29 73 -24 42 -33 68 -30 89 3 22 -2 35 -21 53 -17 16 -26 35 -26 56
0 18 -9 44 -20 58 -11 14 -20 32 -20 40 0 8 -7 20 -15 27 -8 7 -15 24 -15 39
0 35 -25 113 -62 189 -28 58 -32 62 -64 62 -19 0 -34 5 -34 10 0 6 9 10 19 10
27 0 37 21 18 35 -10 7 -17 26 -17 47 0 24 -8 42 -25 58 -14 13 -25 29 -25 36
0 7 -11 25 -24 41 -21 24 -26 26 -40 14 -23 -20 -31 -6 -12 21 9 12 16 30 16
39 0 46 -112 291 -145 319 -10 9 -13 24 -9 54 5 31 1 54 -15 85 -25 53 -44
186 -36 245 5 31 3 51 -8 67 -8 13 -17 39 -21 56 -5 30 -26 79 -54 128 -29 51
-43 96 -40 127 3 29 0 33 -18 31 -16 -2 -25 6 -34 27 -14 34 -38 57 -64 61
-18 4 -19 5 -3 21 30 29 21 86 -23 153 -22 33 -40 64 -40 70 0 6 -9 16 -20 23
-17 10 -20 23 -20 81 0 55 -4 71 -20 86 -12 11 -20 31 -20 49 0 23 -9 37 -34
56 -21 15 -37 37 -40 55 -3 17 -12 44 -20 60 -8 17 -22 57 -32 90 -9 33 -25
67 -35 75 -9 8 -20 32 -23 53 -4 20 -20 53 -36 71 -17 19 -30 43 -30 54 0 12
-11 37 -25 58 -13 20 -30 51 -36 69 -12 32 -14 33 -73 33 -36 1 -72 -5 -88
-14z m6912 -166 c0 -13 -23 -5 -28 10 -2 7 2 10 12 6 9 -3 16 -11 16 -16z
m-6862 -107 c3 -8 -1 -12 -9 -9 -7 2 -15 10 -17 17 -3 8 1 12 9 9 7 -2 15 -10
17 -17z m220 -253 c17 -17 15 -28 -6 -28 -19 0 -42 18 -42 32 0 12 35 9 48 -4z
m6419 -10 c-3 -8 -6 -5 -6 6 -1 11 2 17 5 13 3 -3 4 -12 1 -19z m-6466 -421
c-1 -12 -15 -9 -19 4 -3 6 1 10 8 8 6 -3 11 -8 11 -12z m-607 -123 c8 -22 -4
-40 -15 -23 -11 18 -11 39 0 39 5 0 12 -7 15 -16z m271 -144 c3 -5 -1 -10 -10
-10 -9 0 -13 5 -10 10 3 6 8 10 10 10 2 0 7 -4 10 -10z m245 -460 c0 -5 -7
-10 -16 -10 -8 0 -12 5 -9 10 3 6 10 10 16 10 5 0 9 -4 9 -10z m-520 -70 c0
-5 -4 -10 -10 -10 -5 0 -10 5 -10 10 0 6 5 10 10 10 6 0 10 -4 10 -10z m228
-29 c-2 -9 -13 -17 -26 -19 -19 -3 -22 1 -22 27 0 29 1 30 25 19 15 -7 24 -18
23 -27z m98 -6 c20 -8 33 -18 30 -23 -3 -5 6 -31 19 -58 14 -27 25 -55 25 -61
0 -7 18 -25 40 -39 22 -15 40 -31 40 -35 0 -18 -5 -24 -17 -21 -7 2 -13 -6
-13 -18 0 -11 7 -20 15 -20 17 0 35 -38 35 -74 0 -23 54 -121 85 -156 8 -9 15
-22 15 -28 0 -7 8 -17 18 -23 12 -8 17 -20 14 -43 -4 -40 39 -139 83 -188 31
-34 34 -42 33 -95 -1 -38 5 -72 17 -98 29 -61 32 -78 23 -104 -7 -18 -4 -29
11 -45 42 -46 100 -130 95 -138 -4 -5 3 -12 15 -15 15 -4 21 -13 21 -34 0 -50
41 -49 59 3 8 23 16 29 33 26 34 -5 33 -34 -1 -74 -36 -40 -37 -49 -13 -89 11
-17 22 -47 26 -66 3 -20 24 -78 46 -129 26 -61 40 -109 40 -136 0 -34 5 -46
21 -55 15 -8 18 -14 10 -22 -17 -17 -13 -82 9 -144 11 -32 20 -78 20 -103 0
-40 4 -49 30 -68 52 -39 30 -82 -34 -66 -21 5 -31 0 -58 -32 -82 -96 -111
-110 -253 -118 -82 -5 -156 -20 -206 -42 -27 -12 -42 -13 -55 -6 -23 13 -111
-12 -141 -40 -17 -16 -29 -19 -60 -13 -26 4 -56 0 -87 -10 -53 -18 -88 -17
-234 9 -69 12 -97 14 -113 6 -16 -9 -18 -14 -8 -26 9 -11 9 -18 1 -26 -8 -8
-12 -8 -16 3 -2 8 -7 22 -10 32 -3 10 -27 27 -52 39 -38 16 -58 19 -108 13
-76 -8 -108 3 -164 58 -87 83 -177 247 -203 367 -14 65 26 243 87 385 33 79
46 122 45 151 -1 26 4 48 14 57 19 20 19 31 0 23 -18 -6 -45 2 -45 15 0 17 55
38 74 27 21 -12 17 -16 51 52 20 39 27 68 26 103 -1 45 1 49 30 59 21 7 32 19
36 38 3 17 15 32 30 39 22 10 25 16 20 47 -3 20 -2 61 3 92 26 157 34 193 42
198 4 3 8 16 8 30 0 18 -5 24 -21 24 -16 0 -20 5 -17 27 4 32 20 39 41 18 21
-21 37 -19 37 5 0 27 20 111 31 130 23 39 39 85 39 110 0 17 8 33 22 42 20 13
21 17 9 32 -12 14 -12 19 1 34 23 27 28 50 18 78 -12 32 -1 49 38 59 40 10 72
44 72 77 0 26 3 28 38 28 l37 0 -32 -20 c-18 -11 -33 -22 -33 -26 0 -3 15 -2
33 1 21 5 47 24 75 56 48 54 56 56 108 34z m-316 -5 c0 -5 -5 -10 -11 -10 -5
0 -7 5 -4 10 3 6 8 10 11 10 2 0 4 -4 4 -10z m740 -4 c0 -3 -4 -8 -10 -11 -5
-3 -10 -1 -10 4 0 6 5 11 10 11 6 0 10 -2 10 -4z m-820 -146 c0 -5 9 -18 20
-28 18 -16 18 -21 6 -31 -11 -9 -18 -5 -34 21 -20 31 -21 48 -1 48 5 0 9 -4 9
-10z m7398 -56 c17 -27 29 -35 43 -31 16 4 19 1 14 -13 -3 -10 -2 -27 4 -37
33 -61 61 -130 61 -149 0 -12 9 -33 20 -47 13 -17 20 -40 20 -71 0 -32 5 -48
18 -55 14 -8 15 -12 5 -22 -20 -20 -16 -45 22 -130 19 -44 35 -93 35 -109 0
-16 11 -41 24 -57 39 -47 96 -213 101 -296 7 -103 15 -150 31 -167 22 -26 44
-87 44 -124 0 -25 9 -45 30 -69 17 -19 30 -44 30 -56 0 -12 5 -30 10 -41 6
-11 15 -29 20 -40 6 -11 10 -26 10 -34 0 -8 7 -19 16 -24 15 -8 15 -12 0 -40
-19 -37 -13 -55 38 -126 26 -37 34 -56 29 -76 -3 -15 0 -30 5 -34 7 -4 9 -33
5 -79 -5 -61 -11 -77 -35 -106 -16 -18 -37 -49 -46 -67 -12 -26 -22 -34 -42
-34 -14 0 -31 -5 -37 -11 -7 -7 -30 -9 -60 -5 -62 7 -42 7 -238 2 -120 -2
-179 0 -201 9 -25 10 -45 10 -105 -2 -41 -7 -84 -11 -96 -8 -12 3 -41 0 -65
-6 -30 -8 -60 -9 -100 -2 -43 7 -62 7 -80 -4 -23 -13 -152 -8 -173 7 -5 3 -32
15 -59 25 -52 19 -136 88 -136 111 0 7 -12 40 -26 73 l-26 60 16 72 c9 39 16
84 16 98 0 15 4 31 10 37 5 5 10 38 12 74 2 57 6 68 30 88 17 14 30 37 33 60
3 20 22 74 41 119 19 45 34 86 34 91 0 5 9 17 20 27 10 9 27 38 36 64 10 25
24 55 31 66 7 11 13 26 13 34 0 8 6 22 14 30 18 22 27 76 14 89 -12 12 -2 32
16 32 8 0 22 12 31 27 16 24 16 27 1 38 -21 16 -22 70 -1 61 25 -9 85 129 85
196 0 38 4 58 14 61 7 3 16 26 19 51 4 25 14 57 23 71 9 14 13 32 9 45 -5 15
1 27 23 45 29 24 38 53 48 145 6 61 28 127 41 123 7 -3 24 4 38 15 14 11 54
25 90 32 36 7 68 16 71 21 12 19 40 7 62 -27z m-7428 -9 c0 -35 -18 -40 -32
-10 -10 21 -9 28 2 35 19 12 30 3 30 -25z m7520 -5 c0 -5 -5 -10 -11 -10 -5 0
-7 5 -4 10 3 6 8 10 11 10 2 0 4 -4 4 -10z m-430 -21 c0 -5 -7 -9 -15 -9 -15
0 -20 12 -9 23 8 8 24 -1 24 -14z m-10 -139 c0 -5 -8 -10 -17 -10 -15 0 -16 2
-3 10 19 12 20 12 20 0z m-6070 -10 c0 -5 -2 -10 -4 -10 -3 0 -8 5 -11 10 -3
6 -1 10 4 10 6 0 11 -4 11 -10z m-300 -89 c0 -6 -4 -13 -10 -16 -5 -3 -10 1
-10 9 0 9 5 16 10 16 6 0 10 -4 10 -9z m-860 -126 c10 -12 10 -19 2 -27 -13
-13 -66 17 -57 32 9 15 41 12 55 -5z m-79 -30 c-1 -15 -24 -12 -29 3 -3 9 2
13 12 10 10 -1 17 -7 17 -13z m1049 -5 c0 -5 -2 -10 -4 -10 -3 0 -8 5 -11 10
-3 6 -1 10 4 10 6 0 11 -4 11 -10z m-1580 -20 c0 -5 -4 -10 -10 -10 -5 0 -10
5 -10 10 0 6 5 10 10 10 6 0 10 -4 10 -10z m2089 -3 c14 -17 5 -27 -24 -27
-24 0 -49 22 -38 33 11 12 50 8 62 -6z m101 3 c0 -5 -5 -10 -11 -10 -5 0 -7 5
-4 10 3 6 8 10 11 10 2 0 4 -4 4 -10z m6318 -127 c-5 -26 -38 -29 -38 -4 0 15
6 21 21 21 14 0 19 -5 17 -17z m-8062 -24 c8 -14 -14 -29 -33 -22 -7 3 -13 11
-13 19 0 17 36 19 46 3z m54 1 c0 -5 -4 -10 -10 -10 -5 0 -10 5 -10 10 0 6 5
10 10 10 6 0 10 -4 10 -10z m120 -65 c6 -8 8 -19 4 -26 -4 -6 -7 -20 -8 -30
-2 -29 -20 -23 -27 8 -4 15 -7 33 -9 38 -7 28 19 35 40 10z m-70 -38 c0 -17
-37 -39 -45 -26 -4 5 -4 16 -1 24 7 18 46 20 46 2z m10 -117 c0 -5 -7 -10 -15
-10 -8 0 -15 5 -15 10 0 6 7 10 15 10 8 0 15 -4 15 -10z m1983 -55 c-4 -15
-36 -12 -41 3 -3 9 3 13 19 10 13 -1 23 -7 22 -13z m-2023 -19 c0 -3 -4 -8
-10 -11 -5 -3 -10 -1 -10 4 0 6 5 11 10 11 6 0 10 -2 10 -4z m1450 -171 c0 -8
-4 -15 -10 -15 -5 0 -10 7 -10 15 0 8 5 15 10 15 6 0 10 -7 10 -15z m-1560
-53 c0 -13 -12 -22 -22 -16 -10 6 -1 24 13 24 5 0 9 -4 9 -8z m7015 -182 c3
-5 1 -10 -4 -10 -6 0 -11 5 -11 10 0 6 2 10 4 10 3 0 8 -4 11 -10z m-7561 -71
c-3 -5 -10 -7 -15 -3 -5 3 -7 10 -3 15 3 5 10 7 15 3 5 -3 7 -10 3 -15z m6776
-69 c0 -5 -2 -10 -4 -10 -3 0 -8 5 -11 10 -3 6 -1 10 4 10 6 0 11 -4 11 -10z
m600 -40 c0 -5 -2 -10 -4 -10 -3 0 -8 5 -11 10 -3 6 -1 10 4 10 6 0 11 -4 11
-10z m-7330 -98 c0 -13 -12 -22 -22 -16 -10 6 -1 24 13 24 5 0 9 -4 9 -8z
m7260 -362 c0 -5 -5 -10 -11 -10 -5 0 -7 5 -4 10 3 6 8 10 11 10 2 0 4 -4 4
-10z m-7139 -343 c-1 -12 -15 -9 -19 4 -3 6 1 10 8 8 6 -3 11 -8 11 -12z m944
-57 c0 -7 -6 -15 -12 -17 -8 -3 -13 4 -13 17 0 13 5 20 13 18 6 -3 12 -11 12
-18z m1105 -915 c0 -8 -4 -15 -9 -15 -13 0 -22 16 -14 24 11 11 23 6 23 -9z
m-146 -21 c7 -18 -21 -31 -36 -16 -15 15 -2 43 16 36 8 -3 17 -12 20 -20z
m4250 -1585 c25 -11 54 -31 63 -45 9 -14 28 -38 43 -54 15 -16 33 -50 40 -75
7 -25 17 -48 21 -51 5 -3 14 -24 20 -47 6 -23 44 -90 84 -148 47 -68 69 -111
63 -117 -6 -6 2 -26 22 -55 17 -26 49 -84 70 -129 21 -46 54 -98 74 -117 19
-18 37 -43 40 -55 3 -12 19 -26 35 -32 19 -8 37 -27 51 -54 12 -23 36 -63 55
-89 30 -41 34 -55 37 -121 3 -71 2 -75 -19 -78 -12 -2 -27 -10 -33 -18 -7 -8
-24 -14 -39 -14 -15 0 -36 -7 -48 -15 -25 -17 -50 -11 -58 15 -11 34 -33 45
-53 26 -28 -25 -54 -20 -118 25 -75 52 -122 96 -141 133 -8 16 -28 40 -44 53
-15 13 -31 33 -34 43 -4 13 -15 20 -30 20 -16 0 -26 8 -31 22 -4 13 -24 46
-46 75 -28 38 -45 53 -63 53 -15 0 -26 7 -30 21 -12 35 -93 136 -128 158 -17
11 -45 33 -61 50 -17 17 -35 31 -42 31 -7 0 -39 25 -70 55 -32 30 -66 55 -75
55 -12 0 -19 12 -24 41 -6 36 -1 52 37 129 31 61 42 92 35 99 -12 12 18 51 40
51 8 0 24 9 36 21 12 11 42 32 67 46 25 15 56 37 70 49 25 23 105 63 126 64 6
0 32 -9 58 -21z m-6246 -113 c3 -20 0 -27 -10 -24 -7 3 -14 17 -16 32 -3 20 0
27 10 24 7 -3 14 -17 16 -32z m3296 -279 c17 -17 43 -40 59 -50 19 -12 27 -26
27 -46 0 -19 7 -31 23 -39 19 -9 19 -11 3 -11 -13 -1 -17 -6 -13 -21 3 -10 -1
-24 -9 -31 -18 -14 -18 -33 -1 -48 23 -19 8 -66 -35 -107 -82 -78 -128 -129
-128 -141 0 -7 -18 -24 -40 -38 -22 -14 -40 -29 -40 -35 0 -5 -16 -17 -35 -26
-42 -20 -85 -68 -85 -95 0 -10 -5 -19 -10 -19 -6 0 -56 -47 -111 -105 -56 -58
-131 -127 -168 -154 -36 -27 -74 -65 -84 -84 -11 -19 -30 -40 -43 -46 -14 -6
-48 -28 -77 -50 -62 -46 -93 -57 -113 -41 -8 7 -29 16 -47 19 l-32 7 3 69 c2
51 9 81 28 116 18 32 24 54 19 69 -8 24 27 70 52 70 10 0 12 9 7 35 -5 27 -3
36 10 41 9 4 28 28 41 54 17 34 33 51 55 58 16 6 30 18 30 27 0 8 12 21 26 27
14 7 36 33 50 60 15 30 39 57 63 73 22 13 53 44 69 68 17 24 37 49 46 56 8 7
18 27 22 44 3 18 22 66 41 107 27 60 42 81 73 100 33 21 40 30 40 57 0 17 5
35 11 39 6 3 54 10 107 14 54 4 105 8 116 9 10 0 33 -14 50 -32z m2514 -169
c21 -21 14 -48 -11 -48 -28 0 -47 17 -47 42 0 21 39 25 58 6z m212 -207 c12
-23 4 -51 -15 -51 -14 0 -25 22 -25 51 0 25 26 25 40 0z m-5590 -530 c0 -6 -4
-13 -10 -16 -5 -3 -10 1 -10 9 0 9 5 16 10 16 6 0 10 -4 10 -9z m5473 -321
c54 -24 97 -46 97 -50 0 -4 19 -20 43 -35 23 -15 74 -65 112 -111 l70 -83 -3
-78 c-4 -114 -38 -248 -73 -288 -16 -18 -29 -40 -29 -49 0 -8 -15 -23 -32 -32
-18 -9 -40 -24 -50 -34 -19 -20 -120 -34 -172 -25 -23 5 -45 1 -72 -13 -60
-29 -156 -18 -210 25 -22 17 -64 42 -94 56 -34 15 -73 44 -102 76 -26 28 -51
51 -55 51 -15 0 -6 203 11 263 10 31 16 75 15 98 -2 27 1 43 11 49 8 5 15 20
15 32 0 16 7 24 23 26 12 2 30 15 40 30 9 15 32 40 50 55 17 16 32 35 32 43 0
9 12 14 38 14 20 0 57 7 82 15 71 23 143 13 253 -35z m-2225 -157 c95 -58 152
-110 152 -138 0 -16 6 -25 16 -25 8 0 19 -13 25 -28 6 -16 21 -32 38 -39 31
-11 32 -16 47 -168 3 -33 12 -70 20 -83 13 -20 13 -25 -1 -44 -8 -13 -15 -39
-15 -59 0 -20 -7 -42 -15 -49 -8 -7 -19 -29 -25 -50 -5 -20 -21 -54 -35 -74
-14 -20 -25 -43 -25 -50 0 -8 -7 -19 -15 -26 -9 -7 -14 -19 -11 -27 3 -8 -8
-19 -32 -29 -20 -8 -49 -26 -63 -40 -14 -13 -36 -26 -48 -29 -12 -2 -51 -16
-86 -30 -35 -14 -78 -25 -97 -25 -18 0 -50 -4 -70 -9 -28 -7 -59 -3 -130 16
-51 14 -103 27 -114 30 -12 3 -27 16 -34 29 -7 13 -21 26 -32 30 -10 3 -18 12
-18 20 0 8 -16 31 -35 52 -19 22 -51 73 -70 115 -30 62 -38 93 -47 181 -8 89
-8 112 6 153 25 75 109 169 216 243 29 19 69 50 89 68 24 20 49 32 67 32 16 0
49 10 74 21 25 12 69 22 99 24 38 2 59 9 74 24 12 11 24 21 27 21 4 0 34 -17
68 -37z"></path>
<path d="M8774 10745 c-17 -13 -17 -14 -2 -15 9 0 20 5 23 11 11 17 0 20 -21
4z"></path>
<path d="M8695 10660 c-3 -5 -2 -17 3 -26 8 -14 10 -14 15 5 5 22 -7 38 -18
21z"></path>
<path d="M940 9117 c0 -8 7 -18 16 -21 11 -4 14 -1 12 11 -4 21 -28 30 -28 10z"></path>
</g>
</svg>
