<svg version="1.1" id="Vrstva_1" xmlns="http://www.w3.org/2000/svg" x="0" y="0" viewBox="0 0 285.24 285.24" style="enable-background:new 0 0 285.24 285.24" xml:space="preserve"><style>.st0{fill:#fff}</style><path d="M13.72 151.91c.16-.97-.16-1.86-.4-2.78-.27-1.05-.26-2.17-.37-3.26.59-.17.97-.06.94.56-.03.58.22.97.85 1.43.02-.59.1-1.03.03-1.44-.11-.6.14-1.29-.41-1.79-.08-.07-.16-.21-.14-.31.27-1.56-.52-3-.46-4.54.06-1.51.04-3.02.09-4.53.06-1.78.16-3.56.25-5.34.02-.35.09-.7.14-1.05.29-.04.52-.08 1.03-.16-.44-.3-.67-.45-.93-.63.06-.63 0-1.34.21-1.96.47-1.39.31-2.94 1.11-4.23.07-.11 0-.3-.01-.45-.08-.67-.43-1.43.61-1.74.12-.04.24-.34.24-.52 0-1.49.8-2.79.96-4.25.13-1.24.27-1.29 1.26-2.05-.18-.16-.44-.29-.51-.48-.07-.2.01-.47.08-.69.32-1.15.65-2.3.97-3.45.05-.17.04-.35-.12-.58-.23.38-.45.77-.68 1.15.06-.65-.07-1.36.72-1.7.15-.06.32-.41.27-.57-.26-.83.17-1.4.63-1.99.17-.21.36-.49.36-.73-.01-1.8 1.03-3.19 1.75-4.71.1-.21.23-.42.27-.65.12-.77.6-1.07 1.38-1.07v-1.24c.25.4.4.62.6.94.34-.64.6-1.27.99-1.83.26-.38.68-.65 1.04-.95.08-.07.25-.04.34-.11 1.35-.99 2.86-1.8 3.99-3.07-1.09-1.11-1.09-1.11-2.01-1.03.58-1.1 1.14-2.1 1.63-3.14.14-.29.15-.71.05-1.02-.35-1.08-.26-1.54.59-2.31.08-.08.14-.18.24-.33-.85-.45-1.5-1.04-1.65-1.99.47-.24.95-.41 1.34-.71.14-.11.06-.51.09-.78-.34-.13-.62-.24-1.01-.4.45-.63 1.35-1.13.25-1.95.67-.35 1.15-.6 1.69-.89.2.17.4.33.64.53.6-.35 1.23-.7 1.96-.32-.24.08-.49.16-.73.24.47.3.59.02.7-.28.35.02.66.46 1.08 0 .36-.39.81-.29 1.1.17.32.52.73.5 1.24.35.28-.08.6-.07.89-.05.79.06 1.58.27 2.2-.52.13-.17.51-.17.78-.19 2.7-.18 5.38-.65 8.11-.5 1.81.1 3.65-.14 5.47-.18 1.45-.03 2.91.02 4.36.02.31 0 .63-.06.93-.16.76-.25 1.49-.64 2.28-.09.03.02.09.04.11.02.7-.46 1.57-.07 2.23-.35 1.47-.63 2.95-.49 4.45-.44.19.01.41.02.57-.06 1.4-.7 2.92-.76 4.43-.92 2.02-.22 4.03-.48 6.06-.67 1.61-.15 3.24-.13 4.84-.31 1.88-.22 3.77-.06 5.66-.41 1.89-.35 3.85-.55 5.77-.47 1.2.05 2.4-.12 3.61.02 1.45.16 2.94-.09 4.41-.13.98-.03 1.97-.01 3.26-.01-.38.27-.52.45-.68.47-.67.07-1.34.09-2.16.14.34.31.55.51.73.68.59-.07 1.13-.11 1.66-.22.25-.05.59-.19.68-.39.39-.85 1.17-.73 1.93-.79-.3.28-.59.57-.96.92.37.07.65.12.93.17.6-1.2 1.54-1.6 3.09-1.27.4.08.72.07 1.12 0 .93-.17 1.9-.22 2.85-.23.24 0 .48.33.72.51 1.21-.73 2.47-1.23 3.93-.98.25.04.54-.11.81-.14.75-.08 1.56-.48 2.2.3 1.32-.17 2.69.33 3.98-.22.5-.21.92-.6 1.4-.93.03.19.06.37.1.61 1.68-.33 3.32-.95 5.14-.44-.82.57-1.6.83-2.52.74-.41-.04-.86.11-1.27.24-.64.2-1.26.47-1.89.69-.14.05-.33.08-.45.03-1.09-.43-2.15-.21-3.22.07-.84.22-1.67.39-2.38-.59-.29.92-.96 1.08-1.7 1.21-.31.06-.6.31-.88.5-.03.02.06.32.17.38.32.2.64.19 1-.03.33-.2.73-.32 1.12-.37 2.92-.33 5.84-.63 8.77-.93.95-.1 1.9-.15 2.85-.25.85-.1 1.69-.27 2.54-.37 1.09-.12 2.18-.18 3.27-.31 1.34-.17 2.67-.4 4-.59.75-.11 1.5-.21 2.25-.27 1.89-.15 3.76-.76 5.68-.34.17.04.37-.04.75-.1-.61.24-1.05.42-1.48.59.02.1.05.21.07.31 1.55.07 3.07-.49 4.6-.41.35-.89.77-1.17 1.64-1.15.43.01.88.03 1.3-.06 2.5-.55 5.05-.68 7.59-.81.67-.03 1.34-.07 2.01-.04.38.02.75.16 1.21.27 1.21-.83 2.79-.34 4.21-.76-.04-.36-.19-.79-.07-.91.23-.21.63-.3.97-.31.42 0 .78 0 1.05-.68-.51.07-.88.21-1.22.16-1.4-.18-2.54.44-3.69 1.07-.45.25-1 .27-1.3-.17-.5-.76-.97-.39-1.6-.16.08-.15.14-.4.25-.44 1.05-.3 2.12-.59 3.19-.84.34-.08.71-.06 1.07-.05.87.01 1.74.14 2.59.05.84-.09 1.63-.13 2.48 0 .68.11 1.41-.16 2.13-.2.58-.04 1.17 0 1.76.02.28.01.55.06.83.07.9.04 1.81.08 2.75.12-.02.41-.04.72-.06 1.05-.12.05-.23.12-.34.12-.34.01-.68-.02-1.02-.03.02-.04.05-.08.04-.11-.05-.2-.11-.39-.17-.58-.07.03-.14.05-.21.08.11.16.21.32.32.49.02.03.03.07.04.11-.35.61-.92.3-1.39.29-.41-.01-.81-.13-1.07.29-.06.1-.01.4.05.42.36.12.74.24 1.11.24.26 0 .51-.2.77-.29.18-.06.47-.17.55-.09.55.55 1.22.29 1.83.26.82-.03 1.63-.21 2.45-.3.21-.02.44.07.65.12.19.04.45.2.55.13.85-.58 1.74-.2 2.62-.18.11 0 .21-.09.59-.25-.55-.14-.87-.21-1.19-.3-.88-.25-1.76-.48-2.62-.77-.46-.16-.81-.13-1.23.14-.5.33-.53.29-1.18.17.41-.2.82-.4 1.48-.71-.62-.17-.93-.26-1.24-.35 0-.06.01-.13.01-.19.25-.03.5-.09.75-.1 1.11-.02 2.22.03 3.32-.06.6-.05 1.11-.05 1.41.49 1.39-.16 2.67-.71 4.04-.39.29.07.62-.12.94-.13.51-.02 1.07-.12 1.54.03 1.29.41 2.54.43 3.83.05.17-.05.43-.05.56.05.6.47 1.27.33 1.95.34.53.01 1.07.21 1.6.33.51.12 1.05.51 1.3-.39.11-.38.61-.37.78-.08.46.81 1.27.7 1.98.9.35.09.72.1 1.04.25.33.15.6.41.86.76-1.07-.42-1.8.42-2.75.58.7.86 1.62 1.25 2.62 1.44.47.09.89.15 1.29.5.55.48 1.03.08 1.64-.15 1.09-.42 1.97-1.3 3.48-1.35-.49-.35-.73-.52-.86-.61v-1.73h1.46c.2 0 .46.08.59-.01 1.45-1.11 2.49.1 3.65.62.57.26 1.13.57 1.71.81 1.4.58 2.42 1.76 3.76 2.43.74.37 1.53.68 2.31.97.54.2 1.19.17 1.38.92.04.15.39.31.6.32 1.38.06 2.43.92 3.56 1.52 1.4.74 2.71 1.68 3.96 2.65 1.41 1.1 2.7 2.35 4.08 3.49.29.24.71.35 1.09.53-.25.53.12.97.57 1.31.41.31.71.6.75 1.15.01.17.16.35.28.5.9 1.13 1.84 2.24 2.71 3.4.3.4.51.92.59 1.41.14.85.92 1.24 1.25 1.95.25.56.74 1.02 1.04 1.57.81 1.5 1.63 3 2.34 4.56.49 1.08.82 2.24 1.2 3.38.15.44.04.79-.53.79.25-1.03.24-1.1-.56-1.74.22.67.4 1.2.57 1.73.15.37.31.74.46 1.1.05.11.09.25.17.31.32.22.81.34.96.64.17.33-.01.81.04 1.22.03.27.17.53.25.75.25.34.71-.38.88.25.08.29.38.54-.07.8-.08.05-.03.44.05.64.28.64.6 1.27.94 1.97.14-.1.3-.22.51-.37.27.49.6.95.78 1.47.57 1.65 1.4 3.22 1.26 5.06-.03.43.17.97.44 1.32.92 1.2 1.19 2.53 1.02 4-.03.27.05.69.24.84.84.64.75 1.58.86 2.45.15 1.14.27 2.29.37 3.44.08.91.09 1.83.21 2.73.16 1.25.39 2.49.59 3.74.04.28.22.63.11.81-.47.78.04 1.44.14 2.15.12.83.1 1.68.24 2.5.32 1.78.09 3.65.84 5.36.09.21.2.46.17.66-.22 1.37.02 2.67.35 4 .26 1.06.53 2.19-.29 3.21-.16.2-.23.72-.09.89.7.87.12 1.67-.07 2.48-.11.47-.23.86-.04 1.37.18.5.12 1.1.11 1.65-.02.75-.17 1.5-.11 2.24.04.5.35.98.55 1.52-1.05 1.12-1.06 1.18-.55 2.28-1.15 1.44-.52 3.26-1.07 5-.08.06-.29.22-.52.39.79.66-.08 1.53.46 2.2-.62.43-1.51.64-1.05 1.48-.29.46-.53.83-.77 1.2.29.14.58.28.97.48.13.64-.15 1.15-.93 1.37.28.45.56.79-.16 1.11-.86.39-.85.66-.1 1.37-.46 1.17-.93 2.37-1.41 3.56-.04.11-.06.29-.13.31-1.03.35-.67 1.05-.36 1.89-.61.09-1.15.16-1.76.25.11.45.2.86.31 1.29-.58.64-1.19 1.31-1.87 2.05.05.04.18.16.38.34-.46.38-.6.97-1.21 1.3-.71.39-.82 1.37-.42 2.25.42-.34.86-.48 1.34.04-.62.6-1.35 1.12-1.83 1.81-.41.59-.56 1.37-.81 2.03.62.54.81-.41 1.29-.28-.47.97-1.1 1.78-2.17 2.1.23.96.85.31 1.38.45-.36.32-.63.57-1.05.94.83.09 1.53.16 2.5.26-.87.76-1.58 1.29-1.7 2.23.77-.16.77-.16 1.08-.91.26.02.53.03.87.06-.31.97-.91 1.66-1.54 2.3-.55.56-.78 1.15-.61 1.84-1.01 1.09-2.02 2.13-2.97 3.21-.62.7-1.3 1.23-2.2 1.57-1.39.54-2.77 1.12-3.93 2.11-.11.1-.18.25-.35.5.38.02.65.04 1.01.06-.1.26-.18.5-.33.9-.54-.49-.97-.88-1.4-1.28-1.07 1.12-1.78 2.51-3.1 3.27-.06-.07-.13-.13-.19-.2.24-.17.48-.34.84-.6-1.05.19-1.95.36-2.86.52-.01-.05-.03-.1-.04-.16 1.09-.65 2.18-1.31 3.27-1.97-.03-.09-.07-.19-.1-.28-3.14 1.18-6.41 1.78-9.67 2.53h3.2l.03.22c-.52.08-1.03.15-1.55.24-.47.08-.93.27-1.39.28-.66 0-.9.38-1.01.99-1.3.04-2.53.09-3.76.1-.3 0-.61-.13-.89-.27-.09-.05-.1-.28-.14-.42.46-.48 1.46-.1 1.6-1.08-.44-.32-1.57.5-1.38-.84-1.63-.39-3.08.16-4.49.92-.04-.13-.08-.25-.11-.38.22-.14.43-.28.65-.41-.08-.46-1.11-.12-1.43.47-.05.1-.12.2-.25.4-1.29.05-2.63.05-3.97.17-1.45.13-2.89.32-4.33.58-.37.07-.68.46-1.12.77.35.23.55.36.76.51-.11.09-.17.16-.23.17-.82.1-1.66.31-2.47.24-.98-.09-1.89.26-2.82.25-.56 0-1.05.01-1.59.21-.5.19-1.18.31-1.64.13-1.06-.43-2.03-.02-3.04.06-.89.07-1.77.39-2.61-.27-.15-.12-.57.09-.87.15-.42.09-.84.24-1.26.26-1.28.06-2.55.09-3.83.11-1.08.01-2.17-.02-3.25-.03-.35 0-.71.01-1.06.04-.24.02-.48.16-.7.12-1.52-.31-3.04.22-4.57-.05-.67-.12-1.4.15-2.1.24-.24.03-.54.14-.7.03-1.19-.77-2.31-.04-3.5.1-.05-.17-.11-.35-.19-.61-.31.09-.63.19-1 .3.23.22.39.37.63.59-1.38.5-2.69-.05-4.03.03.28-.11.55-.23.9-.37-.14-.08-.23-.19-.31-.18-1.08.14-2.16.34-3.25.43-.61.05-1.24-.08-1.9-.13.02-.34.03-.66.04-.97-.87-.05-.71 1.01-1.49 1.12-.66.09-1.29.21-1.98-.02.26-.12.52-.24.97-.45h-1.79c.03.24.06.45.1.69-1.12.07-2.22.14-3.6.23.4-.23.56-.33.72-.42-.82-.26-1.52-.35-1.84.54-2.83.06-5.58.79-8.39.71 1.19-.69 2.65-.14 3.98-.86-.71-.41-1.34-.24-1.95-.18-.71.07-1.41.26-2.12.32-2.18.17-4.37.3-6.55.46-.39.03-.8.07-1.17.19-1.4.45-2.82.41-4.25.26-.31-.03-.63.06-.94.09-.47.04-.95.1-1.43.08-.79-.03-1.52-.08-2.32.24-.74.29-1.65.09-2.48.18-1.85.21-3.69.47-5.54.88.24.08.48.16.72.23 0 .05-.01.11-.01.16h-3.1c-.01-.03-.03-.05-.04-.08.35-.1.69-.2 1.13-.33-.61-.14-1.14-.26-1.55-.35-.56.19-1.04.46-1.54.5-.68.04-1.31.18-1.95.42-1.74.66-3.57.74-5.4.81-1.67.06-3.34.15-5.01.22-.28.01-.56 0-.84-.02-.69-.04-1.37-.34-2.06.11-.19.13-.55.03-.83.01-.2-.02-.39-.12-.59-.11-1.26.06-2.54.04-3.78.26-.55.1-.85-.03-1.21-.37-.91.88-1.95.47-2.93.34-.59-.07-1.15-.34-1.71.11-.13.11-.38.1-.58.11-1.75.06-3.51.1-5.26.18-1.11.05-2.22.18-3.33.25-.99.06-1.98.08-2.97.13-.11.01-.22.06-.37.1-.03.22-.06.45-.1.72-.94-.12-2 .04-2.69-.66-.85-.86-1.75-.48-2.66-.41-.3.02-.64.27-.89.2-.79-.23-1.54.05-2.26.17-1.07.18-2.1.24-3.16.02-.22-.05-.47.07-.69.02-.53-.11-1.17-.12-1.54-.43-.6-.5-1.18-.43-1.79-.23-.52.17-.98.44-1.58.41-.34-.02-.77.24-1.02.51-.43.47-.91.6-1.49.52-1.35-.18-2.69-.11-4.03.06-.23.03-.47-.02-.71-.06-1.33-.18-2.66-.36-3.99-.56-1.57-.23-3.15-.41-4.7-.73-.58-.12-1.19-.31-1.67-.83-.4-.44-1.06-.64-1.58-.98-1.51-.99-3.09-1.83-4.79-2.46-.25-.09-.6-.26-.66-.46-.31-1.15-1.29-1.2-2.17-1.33-.73-.1-1.32-.68-1.4-1.1-.21-1.11-.97-.99-1.69-1.1-.15-.02-.3 0-.51 0 .05-.28.08-.5.13-.8-.67-.21-1.36-.42-2.03-.63.35-.37.35-.37 1.69-.32-.25-.81-.56-.82-2.3-.14-1.23-1.19-2.42-2.33-3.58-3.5-.58-.59-1.1-1.24-1.63-1.88-.11-.13-.12-.34-.21-.61.82-.04 1.55-.08 2.32-.11-.34-.83-.9-.11-1.43-.46.09-.32.19-.69.28-1.06-.8-.16-1.11.07-1.65 1.23-.58.11-.66-.33-.76-.71-.13-.54-.3-.99-1-.96-.17.01-.39-.13-.52-.26-.92-.95-1.84-1.91-2.73-2.89-.42-.47-.78-.99-1.17-1.49.33-.11.62-.28.93-.3.23-.02.57.07.69.23.38.56.76.45 1.26.11-.22-1-1.24-.71-1.69-1.16l-1.42.56c-.59-.56-1.1-1.05-1.62-1.54-.11-.11-.29-.21-.32-.34-.3-1.22-.97-2.26-1.67-3.35.24-.07.39-.12.66-.2-.15-.16-.27-.26-.36-.4-.07-.11-.1-.25-.21-.54.45.13.73.22 1.02.3.1.2.2.4.3.61.35-.1.66-.18.99-.28-.31-.9-.85-.44-1.32-.3.22-.23.44-.46.66-.68.34.11.67.22 1.04.34.03-.18.08-.31.05-.39-.29-.69-.59-1.36-.92-2.09-1.49-.46-1.95-1.41-.98-2.46l-1.19-1.52c-.18-1.85-.72-3.89-2.25-5.73h-1.49l-.24-.27c.28-.12.56-.23.87-.37-.23-.27-.37-.45-.56-.67l.93-.26c-.03-.21-.07-.4-.11-.67l-.78.26c-.05-.09-.13-.17-.11-.21.32-.72.04-1.52-.23-2.04-.55-1.04-.61-2-.31-3.07.03-.11.01-.23.02-.39-.22-.08-.43-.16-.64-.24.22-.19.44-.38.9-.78-.79-.09-1.3-.15-1.97-.23-.38-.85-.83-1.76-1.18-2.71-.1-.27.11-.64.19-.99-.97-.51-1.23-1.65-.74-3.69.26.06.52.13.93.23-.13.39-.26.74-.34 1.1-.06.25-.12.54-.04.75.06.15.4.3.56.26.15-.04.31-.34.31-.53 0-.49-.09-.98-.13-1.46 0-.02.05-.05.15-.15.2.09.42.2.76.35-.13-.45-.24-.81-.35-1.18.87-.52.86-.51.21-1.38-.18-.25-.28-.56-.48-.96.59-.12 1.11-.22 1.62-.32.04.45.05.86.13 1.25.16.8.39 1.59.52 2.39.18 1.09-.59 1.62-1.48 2.18.21.05.36.13.47.1.82-.26 1.46-.11 1.91.74v-1.78c.29.36.46.58.68.86.3-.07.63-.14.98-.22-.49-.82-.93-1.56-1.37-2.3.05-.03.1-.07.14-.1.3.25.59.51.89.76.07-.06.15-.11.22-.17-.15-.28-.3-.56-.49-.91.85-.93-.43-1.86-.03-2.85-.35-.21-.65-.38-1.02-.6.57-.67.46-1.26.01-1.95-.27-.42-.14-1.08-.28-1.62-.4-1.52-.87-3.03-1.28-4.56-.08-.29.01-.62-.03-.93-.07-.47-.14-.98-.84-.86l.01.12zm25.64 55.07c.06.47.25.79.89.62-.31-.19-.61-.39-.92-.58-.43-.62-.7.09-1.14-.01.55.79.83.17 1.17-.03zm-17.17-27.35v-1.47c-.07 0-.14.01-.21.01l.21 1.46c.19.56.37 1.12.56 1.68.29-.75-.15-1.21-.56-1.68zm17.36 17.59c.11.26.1.66.64.54 0-.49-.28-.57-.67-.51-.24-.77-.37-1.65-1.6-1.92.39.98.9 1.52 1.63 1.89zm-2.65 12.01c-.07-.32-.12-.63-.2-.95-.06-.24-.15-.47-.23-.7-.13-.06-.31-.08-.39-.18-.67-.88-1.15-.94-2.04-.24.49.38 1.35-.1 1.58.72.35-.12.61-.21.86-.3-.27.33-.55.65-.82.97.58.55.58.57 1.28.65.03.96.06.98 1.35 1.2-.47-.9-.71-1.11-1.39-1.17zm-.97-10.01c.52.36.75 1.19 1.61 1.01-.19.99-.01 1.76 1.06 2.18.42.16.88.5 1.08.88.43.83.96 1.5 1.77 1.98.28.17.42.69.68.75.89.19 1.35.92 2.01 1.41.31-.08.61-.16.9-.23-1.07-1.11-2.02-2.23-3.11-3.2-1.09-.97-1.82-2.31-3.17-3.26v.95c-.48-.53-.87-.97-1.27-1.41-.41-.53-.81-1.06-1.24-1.57-.84-.99-.96-1.07-1.58-1.2.44.58.85 1.15 1.26 1.71-.65-.06-1.3-.11-2.13-.18.22.46.36.76.57 1.19.58-.37 1.07-.69 1.56-1.01zm6.58 2.93c.34.29.71.56 1 .89.39.44.37.46 1.28.62-.84-.62-1.18-1.6-2.28-1.51-.07-.39-.14-.78-.23-1.22.39.11.7.19 1 .27-.35-1.17-1.29-1.62-2.24-2.09.32.44.63.88 1.02 1.42-.17.09-.38.19-.7.35.4.33.65.5.85.72.14.14.2.36.3.55zm-8.71-5.42 1.14-.19c-.71-1.03-1.32-1.95-1.97-2.84-.22-.3-.51-.63-1.13-.21.51.68 1.02 1.31 1.46 1.99.25.39.36.85.54 1.28-.59-.68-1.18-1.36-1.78-2.04.09.63.3 1.21.55 1.77.09.21.25.44.44.53.26.13.58.13.97.2-.13-.27-.17-.38-.22-.49zm-13.45-17.34c-.8-.27-1.55-.83-2.55-.45.21.99 1.67 1.19 1.42 2.48 1.03-.85 1.13-1.06 1.11-2.06.74.16.74.16.87-.61-.54-.12-.66.3-.85.64zm2.86 8.85c-.34-.52-.69-1.03-1.01-1.52l.12-2.12c.27.23.51.44.75.66.06-.47.05-.97-.19-1.17-.61-.5-1.34-.87-2.01-1.28.07-.09.2-.26.39-.5-1.19-.18-1.01.92-1.54 1.39.27.08.61.08.67.21.32.66.58 1.35.82 2.04.15.43.1.98.35 1.33.72.99.51 1.89-.04 2.82-.05.08.01.22.03.39.25-.02.46-.04.69-.06.39.37.18 1.27 1.05 1.25.18.5.36 1.01.58 1.64-.48-.1-.76-.16-1.07-.22-.29 1.28.92.87 1.41 1.24-.61.54-1.16.54-1.75-.08-.14.69.58 1.14.11 1.53l1.55.76c.05-.08.15-.24.25-.38.3.1.58.19 1.03.33-.44.28-.75.48-1.04.66.22.32.43.62.68.98.41.03 1.2-.08 1.29.12.42.93 1.28.54 1.9.8.51.21.59-.17.63-.44-.48-.36-.93-.66-1.34-1-.43-.37-.82-.78-1.34-1.28-.3-.58-.7-1.34-1.13-2.16.42-.04.75-.07 1.22-.11-.48-.57-1.62-.15-1.39-1.22.2-.06.4-.12.59-.18l.03-.24c-.34-.14-.69-.28-1.11-.44.23-.16.42-.3.61-.43-.02-.06-.05-.12-.07-.17-.56.12-1.12.23-1.68.35-.11-.57-.23-1.13-.36-1.77.85-.41.38-1.1.3-1.72.31.44.62.88.94 1.31.16.22.32.52.54.61.85.35 1.38.92 1.37 1.96.52-.52.58-.57.35-.91-.4-.61-.57-1.28-.63-1.99 0-.05-.12-.09-.18-.13-.6.06-.28.6-.44.88-.63.1-.5-.5-.72-.76-.41-.47-.07-.86.14-1.23-.63-.45-1.03-.27-1.35.25zm6.69 17.36-.09-1.03c-.72.25-.79-.19-.83-.66.48-.18.93-.34 1.48-.55.22.39.39 1.15.81 1.33.54.24.88.56 1.19 1.28.05-.62.07-.94.1-1.27l.21-.03c.14.51.27 1.02.42 1.55.33.05.63.09 1.01.14-.02-.6.05-1.14-.42-1.48-.81-.58-.96-1.85-2.17-2.01-.16-.02-.27-.37-.4-.57-.63-.96-1.34-1.12-2.31-.56.19.77.85.46 1.48.58-.74.52-1.36.97-1.94 1.37-.68-.64-1.23-1.17-1.85-1.75-.22.34-.36.55-.44.66.43.52.79.95 1.14 1.38.4.09.85.18 1.16.25-.1.57-.32 1.04-.19 1.34.16.37.62.6.97.91.21-.32.4-.6.6-.89l.07.01zm196.94-12.24c.64-.08 1.28-.16 1.92-.23-.98-.73-1.26-.7-1.92.26-.03-.88-.1-.96-.81-.86-.39.06-.81.26-1.15.16-.88-.25-1.65.09-2.46.25-.34.07-.68.2-1.02.22-1.27.08-2.55.1-3.81.21-.5.04-.99.24-1.48.37-.3.08-.6.25-.9.25-.82-.01-1.63-.09-2.49-.15-.01-.07-.04-.24-.06-.35-2.13.13-4.22.26-6.32.4-.12.01-.24.02-.35.07-1.9.87-4.03.21-5.97.87-.14.05-.33.04-.47-.01-1.23-.44-2.44-.01-3.65.07-.46.03-.92-.02-1.38-.05-.71-.04-1.46-.25-2.11.56 1.05.1 1.95.27 2.84.26 1.13-.01 2.26-.21 3.39-.23 3.02-.06 6.04-.05 9.04-.49 1.06-.16 2.14-.22 3.21-.26 1.74-.05 3.47-.56 5.23-.23.07.01.16-.03.23-.06 1.6-.71 3.36-.37 5.02-.73.6-.13 1.26.04 1.89.01 1.18-.04 2.36-.4 3.58-.31zm-73.2 2.76c-.33-.03-.66-.06-.98-.08v-.3c1.2-.14 2.4-.27 3.63-.41.07.25.14.45.2.67.77.05 1.53.22 1.92-.73.43.71.77.81 1.21.42.17-.16.29-.38.46-.54.07-.06.22-.04.36-.07.06.22.11.43.18.69.87-.1 1.7-.21 2.52-.28 1.9-.18 3.81-.28 5.69-.53.71-.09 1.4-.32 2.11-.14.96.24 1.87-.13 2.8-.2 1.75-.12 3.5-.31 5.25-.39 2.26-.11 4.53-.17 6.79-.19 1.18-.01 2.36.15 3.54.15 1.11 0 2.23-.08 3.34-.22.39-.05.75-.37 1.12-.56.1-.05.21-.09.36-.15-.04.23-.07.4-.13.72.76-.25 1.31-1.35 2.15-.46-.08.05-.18.11-.46.28 1.28 0 2.38-.01 3.48 0 .45 0 .83-.07 1.2-.4.21-.19.64-.22.97-.2.34.03.66.22.97.33.34-.33.63-.61.93-.89l.14.11c-.06.22-.13.44-.22.75.79-.09 1.47-.16 2.33-.26-.55-.08-.92-.14-1.34-.2.21-.61.64-.52 1.02-.59 1.04-.2 2.09.07 3.15-.22.86-.24 1.79-.21 2.69-.29 1.25-.12 2.51-.23 3.76-.34.07-.01.15.03.27.06.03.2.07.41.1.6.71.25 1.02-.23 1.2-.57.55.22.98.49 1.44.55.47.06.97-.08 1.46-.14 0-.07.01-.15.01-.22-.27-.12-.55-.23-.82-.35l.03-.24c2.99-.4 6.01-.52 9.03-.48l.65-.68c.19.23.34.39.48.55.43-.53 1.04.12 1.52-.22.05-.04.21.07.34.12-.04.24-.07.47-.12.79.43.07.85.14 1.3.21.19-.39.35-.7.55-1.11.36.05.75.18 1.11.15.39-.04.76-.29 1.15-.34 1.37-.19 2.75-.32 4.12-.5.26-.03.51-.19.75-.32 1.79-.96 2.59-2.73 3.19-4.46.7-2.02.98-4.18 1.42-6.29.42-1.98.8-3.97 1.21-5.96.05-.25.17-.64.32-.68.59-.13.61-.61.69-1.01.17-.81.29-1.63.37-2.45.03-.37-.12-.75-.15-1.12-.07-.85-.34-1.73.41-2.41-.62-.86-.61-.88.37-1.08.42 1.56.42 1.56.05 3.13-.02.08-.02.16-.03.24l-.39 3.13c.79.67 1.04-.54 1.82-.42-.15.61-.3 1.21-.44 1.81-.11.46-.25.92-.34 1.38-.45 2.3-.81 4.62-1.35 6.9-.21.87-.21 1.68-.07 2.54.49-1.25.89-2.52 1.22-3.81.21-.8.27-1.64.46-2.45.22-.97.7-1.92.67-2.87-.03-1.04.79-1.81.54-2.93-.18-.84.3-1.81.44-2.73.16-1.05.46-2.13.35-3.16-.1-.96.09-1.88.05-2.81-.05-1.11-.01-2.22-.16-3.35-.41-3.11-.61-6.25-.93-9.38-.07-.7-.15-1.3.76-1.44v-1.12c.45 1.14.63 2.27-.11 3.39.75-.13 1.52-.1 1.39-1.05l-.75-3.98-.02.02c.39-.54-.09-.94-.14-1.3-.42-.05-.74-.09-1.11-.13-.05.56-.11 1.15-.16 1.73-.61-1.26-.41-2.54-.38-3.81h.85c.23-1.19.28-2.21-.87-3.15-.13 1.18.15 2.19.05 3.19-.17-.69-.4-1.37-.51-2.07-.21-1.32-.33-2.66-.55-3.99-.23-1.33-.54-2.64-.8-3.96-.02-.1.05-.22.08-.34.25.04.47.07.7.1.08-.63.08-.63-.77-2.48v1.33c-.65-1.51-1.29-3-1.59-4.56-.31-1.61-1.34-2.9-1.87-4.41 1.12-.24.97 1.07 1.93 1.18-.49-1.21-.85-2.34-1.4-3.37-1.07-1.99-1.59-4.21-2.74-6.17-.55-.94-.97-1.97-1.33-3-.41-1.17-1.21-2.1-1.77-3.17-.03-.06-.12-.09-.16-.12-.36.05-.7.09-1.11.14-.27-.72-.52-1.37-.75-1.99.35-.25.57-.42.82-.6-.12-.31-.22-.6-.35-.88-.03-.06-.19-.07-.32-.11.05.36.1.66.16 1.06-.7-.41-1.43-1.64-1.59-2.56.23-.06.47-.11.81-.2-.54-1.27-1.07-2.42-1.94-3.38-.93-1.03-1.91-2.02-2.83-3.06-.41-.47-.98-1.04-.99-1.56 0-.55-.3-.63-.51-.94-.44-.65-.72.09-1.14-.12.13.31.2.47.26.63l-.12.12c-.91-.78-1.82-1.56-2.77-2.37 1.13-.52 1.44.94 2.52.83-.35-.76-.8-1.24-1.44-1.58-.52-.28-1.01-.62-1.51-.95-.42-.27-.82-.6-1.26-.83-.88-.46-1.83-.79-2.66-1.33-.66-.43-1.36-.39-2.07-.53.7 1.09 2.14 1.23 2.86 2.31-.5 0-1.01 0-1.38-.23-1.14-.69-2.46-.93-3.63-1.53-.41-.21-.86-.17-1.21.2-.36.38-.37.76.03 1.14.08.08.04.28.06.5h-1.04c.36.52.71 1.03 1.05 1.53-.06.05-.11.11-.17.16-.25-.12-.49-.24-.83-.4-.17.53-.31.99-.47 1.48-.58.4-.97-.15-1.44-.38-.16-.88-.16-.88-.93-.81-.04.72.35.89.97.77-.31.12-.69.42-.92.33-.44-.17-.79-.27-1.24-.06-.13.06-.38-.05-.55-.13-.98-.44-.98-.44-1.89.41-.55-.22-1.14-.44-1.77-.69-.66.51.73 1 .24 1.46-.86-.12-1.68-.09-2.38-.38-.89-.37-2.12.07-2.73-1.11-.11-.21-.81-.16-1.23-.15-.26.01-.51.18-.62.23-.37-.25-.6-.54-.87-.58-1.83-.26-3.66-.5-5.5-.69-.74-.08-1.51.13-2.18-.4-.1-.08-.32-.06-.47-.03-.77.16-1.53.34-2.3.49-.27.05-.59.14-.81.05-.84-.35-1.67-.12-2.47.06-.94.21-1.78-.05-2.69-.22-.86-.16-1.82.22-2.69.09-1.07-.16-2.22-.34-3.16-.01-1.33.46-2.6-.55-3.84.13-.63-.42-1.31-.12-1.96-.1-.74.03-1.49.13-2.23.17-1.19.07-2.38.11-3.58.16-.23.01-.46.02-.68.06-.55.09-1.09.24-1.64.29-1.98.17-3.97.27-5.95.46-2.06.2-4.12.48-6.18.71-3.21.37-6.42.75-9.64 1.07-2.45.25-4.91.44-7.36.64-.39.03-.84-.14-1.17-.01-1.32.52-2.74.51-4.09.82-2.12.49-4.26.58-6.41.61-1.34.01-2.61.47-4 .33-1.19-.12-2.43.23-3.64.37-.89.1-1.78.17-2.67.27-.59.07-1.19.14-1.77.25-1.12.2-2.24.54-3.37.62-2.06.14-4.13.11-6.2.19-.55.02-1.09.2-1.65.24-2.1.14-4.22.11-6.3.41-1.81.26-3.59.58-5.43.54-.61-.01-1.21.37-1.83.43-1.33.13-2.68.15-4.02.24-2.1.14-4.21.29-6.31.46-1.11.09-2.22.38-3.32.35-.95-.03-1.88-.08-2.82.07-1.04.17-2.09.3-3.14.44-1.14.15-2.29.44-3.43.43-2.45-.02-4.67.77-6.88 1.66-.64.87-1.61.76-2.5.77-2.87.03-5.68.54-8.48 1.09-.3.06-.59.35-.79.61-.88 1.12-1.24 2.47-1.6 3.81-.5 1.87-1.04 3.74-1.45 5.63-.27 1.27-.31 2.58-.48 3.87-.29 2.27-.63 4.53-.89 6.8-.16 1.34-.29 2.69-.32 4.04-.06 3.81.96 7.45 1.8 11.12.2.85.43 1.7.66 2.54.6 2.26 1.21 4.53 1.82 6.79.62 2.31 1.32 4.59 1.87 6.92.62 2.62 1.88 4.96 3.04 7.34.03.07.1.13.14.19.45.74.93 1.47 1.34 2.23 1.02 1.88 2.43 3.46 3.9 4.98.99 1.02 2.15 1.87 3.2 2.83.52.48.95 1.07 1.44 1.59 1.26 1.33 2.88 2.32 3.7 4.06.08.17.38.25.59.36.99.57 2.08 1.02 2.96 1.74 1.19.97 2.17 2.19 3.66 2.75.17.06.3.26.44.39 1.08.98 1.13 2.41 1.65 3.64.31.73-.28 1.63.6 2.2-.91.4-.91.4-.85 1.35-.26.32-.57.56-.66.86-.08.31.06.68.1 1-1.02.48-1.33.98-.89 1.49.26.31.72.66 1.07.65.82-.04 1.41.41 2.09.69.59.24 1.21.56 1.82.57.56.02.94-.02.97.66.02.39.26.54.64.57.13.01.25.17.38.26-.07.22-.13.4-.19.59 1.43 1.45 1.8 1.51 3.34.6 1.54.39 3.07.79 4.68 1.2l-.13-.78c1.02.02 2.03.2 2.95-.34.08-.05.23.03.35.02.79-.06 1.58-.12 2.37-.2.51-.05 1.04-.25 1.53-.2 1.28.13 2.52-.13 3.79-.18.31-.01.62 0 .95 0 .07.66-.7.26-.92.76h1.44c-.23-.32-.39-.54-.54-.76 1.31-.03 2.61-.04 3.92-.08.83-.03 1.66-.07 2.49-.14 1.29-.1 2.58-.51 3.88-.04.28.1.69.23.76.44.18.56.54.49.95.45.35-.04.71-.17 1.04-.13 1.81.26 3.61.06 5.4-.11.8-.08 1.6-.18 2.4-.39 1.03-.27 2.18-.06 3.28-.06.52 0 1.04-.07 1.54-.01.69.08.84-.51 1.2-1.07.1.63.17 1.04.25 1.5-1.09.33-2.1.64-3.11.95.02.1.05.2.07.3.52-.06 1.05-.18 1.57-.16.78.02 1.52-.18 2.35.01.67.15 1.42-.51 2.27-.13.35.16.92-.05 1.35-.21.65-.23 1.27-.42 1.97-.18.21.07.48.02.71-.02 1.28-.19 2.55-.4 3.83-.6-.01.15-.02.3-.04.53.84-.19 1.59-.37 2.34-.54-.02-.09-.03-.18-.05-.28-.76.11-1.53.23-2.29.34-1.21-.53-2.43-.77-3.74-.31-.55.19-1.19.38-1.73.27-1.45-.28-2.8.33-4.21.3-.66-.01-.96-.1-1.03-.81.41-.08.77-.15 1.3-.25-.34-.35-.56-.58-.8-.82 1.01-.06 2.06-.12 3.2-.19l-.22.74h1.28c-.11-.33-.18-.53-.28-.83.61 0 1.13-.03 1.64.01.46.04.92-.51 1.37 0-.47.65-1.42-.08-2.01.77 1.66-.11 3.13-.2 4.61-.3v-.2l-1.29-.19c.99-.25 1.68-.49 2.38-.59.95-.13 1.92-.09 2.86-.22.71-.1 1.16.05 1.21.86.65-.08 1.21-.23 1.75-.18.69.06 1.04-.24 1.31-.8.02-.05.14-.04.29-.08.06.23.13.46.2.74.48-.04.9-.07 1.43-.12-.2-.27-.32-.43-.5-.69 1.27-.16 2.45-.31 3.64-.45.35-.04.65-.09.9.35.31.53 1.21.48 1.57 0 .5-.66 1.23-.9 1.83-.36.42.38.72.33 1.15.26.43-.06.87 0 1.3-.05.13.05.26-.15.42-.26.5.02 1.01.04 1.51.07v-.14c-.5.03-1.01.05-1.51.07zm9.3.71c.35.13.73.39.85.3.39-.29.67 0 1 .05.31.04.62.09.93.05 1.86-.25 3.71-.54 5.6-.31.16.02.32.01.48-.01 1.89-.25 3.77-.51 5.66-.77.39-.05.77-.15 1.16-.17 1.97-.09 3.96-.05 5.91-.27 1.71-.2 3.41-.14 5.11-.12.56.01 1.13-.13 1.69-.21 0-.1-.01-.2-.01-.3-1.72-.27-3.48-.48-5.2-.32-1.78.16-3.61-.29-5.34.56-.06-.76-.1-.82-.5-.75-.55.1-1.08.31-1.63.33-2.21.08-4.39.73-6.63.45-1.38.49-2.83.37-4.25.53-2.16.25-4.33.45-6.5.6-.58.04-1.09.07-1.39.57-1.54-.4-3.01-.02-4.46-.06-1.64-.04-2.83 1.06-4.34 1.29.9.1 1.79.1 2.68.09.11 0 .24-.02.33-.07.67-.4 1.44-.34 2.15-.39 1.43-.11 2.91.39 4.25-.5.99.4 1.72-.3 2.45-.57zM17.26 123.78c.54-.46.96-.63.69-1.23-.11-.24-.01-.62.1-.89.22-.56.38-1.1.27-1.71-.11-.61-.02-1.17.37-1.68.12-.15.22-.36.22-.54-.04-1.25.32-2.43.56-3.63.17-.83.21-1.75.61-2.46.6-1.08.68-2.27 1-3.4.06-.21-.03-.47-.05-.71-.47.77-.75 1.54-.99 2.33-.22.74-.8 1.31-.64 2.26.13.75-.24 1.64-.55 2.4-.31.73.36 1.75-.68 2.24-.03.02-.01.15-.01.23-.05.75.1 1.6-.21 2.22-.36.72-.07 1.42-.32 2.11-.24.69-.23 1.47-.37 2.46zm-.89 32.68.31-.06c-.18-.88-.26-1.76.07-2.61.02-.06 0-.18-.05-.22-.63-.57-.38-1.31-.45-2.01-.06-.61-.34-1.21-.52-1.81-1.11.39-1.18.5-.92 1.35.11.34.16.71.34 1.02.34.6.23 1.18.02 1.77-.04.1-.02.22-.02.36.22.04.41.08.52.11.25.72.47 1.41.7 2.1zm9.89 30.84c-.1 1.61.81 4.25 1.72 4.79-.05-.26-.05-.46-.13-.61-.53-1-.63-1.94-.28-3.09.23-.77-.21-1.75-.37-2.63-.05-.29-.19-.57-.29-.88l-1.02.39c-.21-.25-.38-.45-.55-.65-.04.03-.08.07-.12.1l.3.99c.29-.06.55-.12.88-.19.21.6.39 1.15.6 1.77-.3.01-.52.01-.74.01zM198.7 67.26c1.17.05 2.24.1 3.31.14.2.01.41-.01.59.05.83.26 1.67.68 2.27-.4.02-.04.15-.02.23-.02.59-.02.79-.43 1-1.05-.43-.02-1.04-.17-1.11-.03-.37.73-.93.34-1.25.41-.24-.3-.38-.47-.63-.78-.13.47-.2.76-.28 1.04.25.08.42.13.59.18-1.18 0-2.37.05-3.54-.02-.47-.04-.83-.07-1.18.48zm-16.19 3.19c-1.03 0-1.9.01-2.77-.01-.17 0-.35-.09-.5-.18-.74-.47-2.26-.23-2.89.48 1.62.48 1.62.48 2.39.06.88.47 2.57.35 3.77-.35zm-24.37 1.47-.03-.28c-.66.02-1.36-.24-1.97.11-.42.24-.78.32-1.23.24-.35-.07-.7-.15-1.05-.19-.84-.1-1.54.18-2.14.77.37.09.71.05 1.05.01.43-.04.9-.19 1.3-.09 1.04.28 2.01-.29 3.03-.18.32.04.69-.25 1.04-.39zm-37.06 1.07c-.46-.66-.94-.6-1.46-.49-.34.07-.77.21-1.03.08-.75-.37-1.15.05-1.71.54.27.12.44.24.61.25.79.05 1.58.11 2.36.07.4-.01.78-.27 1.23-.45zm129 77.88c-.08.01-.16.01-.24.02-.02.55.02 1.1-.07 1.64-.07.45.13.7.46.84.35.15 1.24-.19 1.34-.46.05-.14.06-.33 0-.46-.24-.54-.5-1.07-.76-1.61h-.15v1.68c-.07 0-.14 0-.21.01-.13-.56-.25-1.11-.37-1.66zm-109.97 47.88c.02.14.03.29.05.43 1.4 0 2.79.01 4.19-.02.14 0 .28-.29.42-.44-.15-.1-.3-.3-.45-.3-.26 0-.6.26-.77.17-.75-.41-1.46-.05-2.18.03-.42.04-.84.09-1.26.13zm43.33.02c.37.22.71.5 1.1.62.41.13.88.11 1.43.17.17-.18.4-.42.67-.71-1.07-.59-2.07-.89-3.2-.08zm26.79 18.11c.44-.27.83-.52 1.22-.76-1.59.09-3.2-.3-4.72.4 1.14.73 2.45-.63 3.5.36zM29.4 188.4l.31-.09c.19.52.37 1.05.59 1.64 1-.8-.15-1.36.09-2.04-.61.04-1.1.06-1.75.1.56.69.04 1.69 1.17 2.15-.17-.68-.29-1.22-.41-1.76zm-4.76-25.59c.45-.67-.24-3.89-.78-4.83-.34.49 0 .85.14 1.31.23.77.18 1.63.3 2.44.05.37.22.72.34 1.08zm151.94-95.29c1.1.06 1.91.15 2.73.12.35-.01.68-.27 1.02-.41-1.25-.29-2.5-.95-3.75.29zm76.07 74.54c-.3 1.84-.14 3.58.48 5.27-.15-1.76-.32-3.51-.48-5.27zm-236.03-9.71c-.98 1.13-1.04 2.48-.18 3.22.07-1.13.13-2.17.18-3.22zm28.49 77.97c.12-.26.22-.47.31-.68-.56.33-.71-.12-.99-.39-.28-.28-.65-.48-1.06-.78-.06 1.12.46 1.63 1.74 1.85zm165.28-12.82c-.04-.12-.08-.25-.12-.37-.91.28-1.83.51-2.71.86-.32.12-.54.5-.81.76 1.26-.31 2.48-.69 3.64-1.25zm34.82-74.57c-.07.66.25 1.22.46 1.82.23.66.37 1.34.55 2.02.1-.03.19-.06.29-.08-.22-1.31-.6-2.57-1.3-3.76zm-60.44-54.44c-.71-.11-1.42-.3-2.13-.32-.48-.01-1.09-.14-1.55.49 1.34.5 2.5-.32 3.68-.17zM25.83 182.13c-.42.74-1.4.72-1.24 1.54.71-.04 1.33-.07 2.05-.1-.21-.38-.45-.8-.81-1.44zm59.95 18.45c1.95.24 3.22.11 3.96-.5-.8.1-1.45.2-2.1.27-.62.06-1.3-.34-1.86.23zm-72.49-29.35c1.05.17.72-.91 1.32-1.05-.32-.4-.56-.71-.8-1.02-.76.58-.39 1.33-.52 2.07zM170.26 68.8c-.38-.46-.72-.5-1.19-.27-.37.18-.81.2-1.46.35 1.34.55 1.94.51 2.65-.08zM37.89 196.65c-.23.29-.39.49-.58.72.47.43.89.82 1.37 1.25.48-.98-.39-1.31-.79-1.97zM194.32 66.11c.8-.14 1.63.65 2.51.02-.8-.68-.8-.68-2.51-.02zm-5.25 132.32c0 .1 0 .21.01.31 1.11.47 2.18-.13 3.27-.31h-3.28zM118 200.88c.01-.11.01-.22.02-.33-.99-.24-1.91.17-2.85.38.01.08.01.16.02.24.94-.1 1.88-.19 2.81-.29zm81.48.93c.99.94 1.74.13 2.5-.05-.76-.09-1.51-.56-2.5.05zm-167.47 7.92c.55.33 1.09.69 1.67.97.13.06.39-.16.65-.28-.69-.87-1.5-.81-2.32-.69zM175.74 68.74c.96.4 1.82.23 2.84-.1-1.16-.27-2.27-.23-2.84.1zM29.61 196.92c-.13-.41-.15-.87-.39-1.11-.24-.23-.46-.84-1.09-.4.5.48.57 1.34 1.48 1.51zm5.81-13.04c-.42-.38.13-1.37-.9-1.47-.25.83.34 1.14.9 1.47zM21.38 167.6c-.34.67-.02 1.53.59 1.96-.22-.71-.41-1.33-.59-1.96zm143.99-95.99c.68.52.95.6 1.22.34.28-.28.19-.56-.12-.82l-1.1.48zm31.22 145.03c0-.13 0-.25-.01-.38l-2.35.12c0 .09 0 .17.01.26h2.35zM21.35 150.27h.19c0-.58.01-1.16-.02-1.74 0-.05-.3-.08-.55-.15.14.72.26 1.31.38 1.89zm-.82 27.07c-.21-.78-.75-1.02-1.85-.67.68.24 1.23.44 1.85.67zm89.15 23.87c-.01-.09-.02-.18-.02-.26-.57-.04-1.15-.19-1.7.09.01.09.01.17.02.26l1.7-.09zm-92.01-30.86c.2-.65.19-1.13-.28-1.56-.45.9-.43 1.04.28 1.56zm.42 2.63c.03.56-.69 1.05.16 1.46.57-.52.49-.95-.16-1.46zm122.2-99.08c.87.4 1.06.38 1.89-.2-.63.07-1.26.13-1.89.2zm20.26 145.26c0-.11-.01-.22-.01-.32-.72.09-1.44.18-2.16.28 0 .02.01.03.01.05.72-.01 1.44-.01 2.16-.01zm54.61-148.24c-.69-.89-.88-.94-1.69-.37.6.13 1.06.23 1.69.37zm38.77 122.09c-.42-.15-.66-.34-.83-.29-.42.14-.63.48-.6 1.02.46-.23.83-.42 1.43-.73zM181.14 67.42c.38-.13.72-.19.73-.27.03-.37.15-.82-.39-1.09-.1.42-.18.75-.34 1.36zM43.11 193.88l-.21.27c.43.33.86.66 1.49 1.14-.22-.95-.74-1.19-1.28-1.41zm-21.3 2c-.23.14-.55.32-.54.34.2.39-.31 1.02.43 1.35.03-.58.06-1.06.11-1.69zm204.73 1.27.3.15c.21-.4.42-.79.69-1.31-.85.16-.93.65-.99 1.16zm-206.4-21.08c-.28-.58.2-1.3-.4-1.82 0 .63-.2 1.3.4 1.82zm216.05 37.21c.01.1.01.21.02.31.53.34.98.1 1.4-.4l-1.42.09zm-195.17-4.67c-.89-.38-.89-.38-1.47.24.45-.07.9-.15 1.47-.24zm-3.84-2.39c.74.4.74.4 1.2-.58-.42.21-.76.37-1.2.58zm-7.05-29.03c.51-.79-.2-.95-.62-1.29.21.43.41.86.62 1.29zm220.43-22.76c-.02 0-.04 0-.07.01v2.27c.07 0 .13-.01.2-.01-.04-.76-.08-1.51-.13-2.27zM38.17 213.76c.16.4.26.65.36.89.13-.06.33-.08.38-.18.17-.38 0-.6-.74-.71zm109.61-15.15c.38 0 .76.01 1.15-.01.1 0 .19-.07.46-.17-.66-.39-1.13-.2-1.61.18zm17.99 20.14c-.01-.12-.02-.25-.04-.37-.49.07-.97.15-1.67.25.75.66 1.22.09 1.71.12zm-2.63-149.28c-.53.16-1.18-.58-1.82.36.75-.15 1.29-.26 1.82-.36zm85.24 68.47c.13-.03.26-.05.39-.08-.09-.49-.17-.99-.26-1.48-.1.02-.21.03-.31.05.05.5.12 1 .18 1.51zm-227.4 42.77c-.26.65-.26.65.32 1.02-.13-.43-.22-.73-.32-1.02zm236.64 11.1c-.61-.95-.61-.95-1.23-.55.39.18.7.31 1.23.55zm-58.7 6.58c-.41-.13-.81-.35-1.28.07.59.23.59.23 1.28-.07zm-177.89-8.98c.37-.51.56-1 .47-1.19-.06-.14-.24-.22-.47-.42v1.61zm21.26 3.93c-.24-.87-.24-.87-.95-1 .27.29.55.58.95 1zm214.53-.34c.75.21 1.23.13 1.45-.56-.46.18-.87.34-1.45.56zm-36.21 4.3c-.01-.03-.03-.07-.04-.1-.37.07-.74.13-1.12.2.03.09.05.18.08.27.36-.12.72-.25 1.08-.37zm-37.49 20.42c.01.11.02.23.04.34.44.09.87.15 1.18-.49l-1.22.15zM26.73 168.14c.02-.11.03-.22.05-.33-.31-.24-.63-.3-1 .15.32.06.64.12.95.18zm133.23-80.18v.42c.38-.04.75-.09 1.13-.13 0-.08-.01-.15-.01-.23a21 21 0 0 1-1.12-.06zM36.04 195.24c-.3-.8-.3-.8-.76-.85.2.23.43.49.76.85zm-7.3 4.3c-.05.85-.05.85.89 1.06-.33-.39-.56-.66-.89-1.06zm195.32 14.5c-.03-.1-.05-.2-.08-.29-.32.25-.8-.13-1.2.65.57-.16.93-.26 1.28-.36zm-2-22.16c-.52-.74-.91-.12-1.31.07.41-.02.83-.04 1.31-.07zm-190.63.03c.04.83.28 1.01.95.72-.31-.23-.54-.41-.95-.72zM187.37 68.66c.37.05.8.25 1.15-.22-.49-.33-.81-.01-1.15.22zM27.25 193.09c-.14-.43-.02-.9-.73-.85.02.46.11.77.73.85zm.88-2.48c.1-.03.21-.05.31-.08.14-.35.01-.56-.61-.83.15.44.22.67.3.91zm-13.71-19.05c-.06.41-.1.67-.13.93.11.01.25.07.31.03.27-.22.38-.48-.18-.96zm8.98 2c-.07-.25-.13-.43-.19-.63-.3.26-.55.47-.96.82.5-.08.8-.13 1.15-.19zm79.61-100.68.06-.25c-.39-.08-.78-.16-1.18-.24l-.06.25c.39.07.79.16 1.18.24zm67.26 11.32c-.77-.35-.77-.35-.9.38.35-.15.63-.27.9-.38zM31.13 177.24c-.09.09-.19.18-.28.27.13.49.13.49.88.36-.28-.3-.44-.47-.6-.63zM162.95 71.37c-.03-.13-.06-.26-.09-.38-.21.06-.43.1-.63.19-.03.01.04.25.06.38.22-.07.44-.13.66-.19zm28.45-3.27c-.01.1-.01.2-.02.3.29.23.59.3 1.15-.18-.54-.06-.83-.09-1.13-.12zm64.9 128.09c-.04-.08-.08-.17-.12-.25-.43 0-.58.35-.68.78.27-.17.54-.35.8-.53zM41.32 207.72c.23-.7.23-.7-.19-1.16.06.35.12.74.19 1.16zM192.6 66.15l-.03-.12c-.31.06-.62.11-.93.17l.06.26c.3-.11.6-.21.9-.31zm60.81 82.88-.27-.03v.79c.08 0 .15.01.23.01.01-.26.02-.51.04-.77zM16.83 126.47c.12.01.24.01.36.02v-.81l-.22-.03c-.04.27-.09.55-.14.82zm195.71 71.5c0-.1 0-.2.01-.29l-.85.09c.01.07.01.14.02.2h.82zm-87 .09c-.14.17-.27.29-.35.43-.02.03.18.23.2.21.15-.09.28-.21.4-.33.01 0-.12-.15-.25-.31zM15.12 169.54c.24.41.34.58.44.76.12-.13.23-.26.35-.39-.17-.09-.35-.17-.79-.37zm10.18 32.34c-.08.05-.17.09-.25.14.16.29-.01.8.8.87-.23-.42-.39-.72-.55-1.01zm15.92 7.08-.03.37h.72l.03-.23c-.25-.05-.48-.1-.72-.14zM213.9 90.57c.02-.11.04-.21.07-.32-.27-.05-.54-.11-.82-.16-.02.08-.04.16-.06.23.27.08.54.16.81.25zm-16.44-20.04c.02.11.05.23.07.34l.87-.15c-.02-.1-.03-.2-.05-.31l-.89.12zm11.53-3.27c-.01.08-.03.17-.04.25.23.03.46.07.7.1.01-.08.03-.16.04-.24-.23-.03-.46-.07-.7-.11zm-191.15 57.7c-.43-.23-.56-.36-.67-.34-.12.02-.21.18-.31.28.13.1.25.25.39.28.13.02.28-.1.59-.22zm5.69 72.94c.02-.11.03-.21.05-.32l-.78-.12c-.02.08-.03.16-.05.23l.78.21zm221.16-19.49-.33-.06c-.04.27-.08.54-.11.82.08.01.16.03.24.04.07-.27.13-.54.2-.8zm-212.8 9.49c.09-.05.18-.1.27-.16-.04-.25.02-.58-.6-.41.12.22.23.4.33.57zm198.86 4.8-.03-.17c-.14 0-.28-.03-.4.01-.13.05-.23.16-.34.25.03.05.07.09.1.14.22-.08.45-.16.67-.23zM180.91 86.47c0 .08 0 .15-.01.23.21-.02.43-.05.64-.07 0-.05-.01-.1-.01-.15-.2-.01-.41-.01-.62-.01zm1.75-5.23c-.01-.04-.01-.08-.02-.13-.26.03-.53.05-.79.08.01.07.03.14.04.21.26-.06.52-.11.77-.16zm.5-15c.03.07.05.15.08.22.22-.06.45-.11.67-.17-.02-.07-.04-.15-.07-.22-.23.06-.45.11-.68.17zm18.04-.04c0 .07 0 .14-.01.21h.86c0-.04 0-.09.01-.13-.28-.03-.57-.05-.86-.08zm-79.88 5.35c0 .04 0 .09-.01.13.3.02.59.03.89.05 0-.06 0-.12.01-.18h-.89zM232.34 192.7c.01.05.02.1.04.15l.68-.12c-.01-.07-.03-.15-.04-.22-.23.06-.45.13-.68.19zm-202.5-11.45.24-.06c-.1-.26-.2-.52-.29-.78-.05.02-.11.03-.16.05.07.27.14.53.21.79zm144.28 18.35c.02.1.04.2.06.29.24-.08.48-.15.71-.23-.02-.07-.03-.14-.05-.21l-.72.15zm28.29-108.41v.14h.93v-.14h-.93zM178.48 66.3c-.16-.14-.23-.26-.3-.26-.09 0-.22.07-.27.15-.03.05.07.24.11.24.12 0 .24-.06.46-.13zm-164.5 99.05c-.06.12-.1.22-.14.31.1.04.21.12.31.11.06-.01.1-.15.15-.23-.09-.06-.18-.11-.32-.19zm12.2 33.49c-.06.03-.11.05-.17.08.07.14.15.28.22.42.05-.03.13-.07.13-.08-.05-.14-.11-.28-.18-.42zm177.3-.45c-.04-.07-.08-.13-.12-.2l-.6.24.06.18c.22-.07.44-.14.66-.22zm-3.98.01c.19.11.28.19.3.17.1-.06.17-.16.26-.24-.15.02-.29.04-.56.07zm-160.61-3.74c-.07.06-.13.13-.2.19.13.14.25.28.38.42.08-.08.17-.16.25-.25-.14-.11-.28-.23-.43-.36zm162.57-1.07c-.2-.13-.28-.21-.31-.19-.1.06-.18.15-.27.23.15-.02.3-.02.58-.04zm-166.78 17.5c-.13.1-.25.15-.29.24-.02.05.1.22.15.22.1 0 .23-.07.27-.15.03-.06-.07-.18-.13-.31zm.97 1.35-.25-.22c-.06.08-.12.16-.18.23.09.06.19.13.29.16.02.01.08-.1.14-.17zm218.86-20.22c.02.06.04.13.06.19l.57-.18c-.02-.07-.05-.14-.07-.21-.19.07-.38.14-.56.2zM183.68 86.35c.15-.1.24-.15.33-.21-.08-.1-.14-.23-.23-.28-.06-.03-.19.06-.29.1.05.13.11.24.19.39zm73.67 112.97c-.12.08-.2.14-.28.2.08.07.15.19.23.2.08.01.17-.09.26-.14-.06-.09-.13-.16-.21-.26zm-146.27 1.87c.01-.07.03-.13.04-.2l-.47-.09c-.01.06-.03.12-.04.18.16.04.32.07.47.11zm95.37-1.88c-.02-.06-.04-.11-.06-.17-.15.05-.3.09-.44.15-.01 0 .04.13.06.2.15-.06.3-.12.44-.18zm3.54-.21c-.06-.07-.12-.15-.18-.22-.14.11-.28.23-.42.34.03.05.07.1.1.15.17-.09.34-.18.5-.27zM144.31 73.63c.17-.12.3-.19.38-.3.03-.04-.06-.17-.09-.26-.12.07-.26.11-.35.21-.05.03.02.17.06.35zM206.34 193c.01.07.03.14.04.2.19-.05.39-.09.58-.14-.01-.06-.02-.11-.04-.17-.18.04-.38.07-.58.11zM162 198.21c-.02-.06-.03-.16-.07-.18-.06-.03-.14.01-.22.02l.09.24c.06-.02.13-.05.2-.08zm-136.92 1.34c-.05.06-.11.11-.16.17l.4.4.18-.18-.42-.39zm162.87-.95c-.18-.07-.27-.13-.36-.13-.06 0-.12.07-.19.1.07.07.13.19.21.21.08.01.17-.08.34-.18zm-157-7.44c.09-.03.17-.07.26-.1-.07-.15-.14-.31-.22-.45-.01-.02-.13.03-.21.05.05.17.11.33.17.5zm143.72 6.01c.14.09.24.2.32.19.09-.01.16-.12.25-.19-.08-.07-.16-.18-.24-.19-.1 0-.19.1-.33.19zM11.85 133.57c.34.85.23 3.06-.15 3.81-.58-.78-.54-2.69.15-3.81z"/><path d="M145.56 69.22c1.43-.42 2.72-.48 3.75-1.42.18.23.36.46.63.8-.46.19-.87.54-1.13.44-.7-.25-1.23.04-1.79.3-.41.19-.81.23-1.46-.12zM48.58 224.5c1.29.74 2.45 1.41 3.7 2.13-.31 0-.61.07-.86-.01-.85-.3-1.7-.63-2.53-.99-.4-.18-.39-.21-.31-1.13zM13.93 158.11c-.39.04-.66.07-1.11.11.16-1.05.31-2.05.46-3.04h.23c.13.94.27 1.88.42 2.93zM163.32 66.62c1.04-.66 1.17-.66 2.59-.08-.74 1.29-1.33.95-2.59.08zM12.93 144.87c-.16-.14-.44-.27-.46-.43-.14-.9-.56-1.8-.02-2.77.23 1.02.47 2.03.7 3.05-.07.05-.14.1-.22.15zM18.73 192.82c1.24-.74 1.48-.7 2.5.47-.53-.03-.98-.11-1.42-.05-.47.07-.95.33-1.08-.42zM217.84 216.77c.84-.21 1.67-.44 2.51-.6.26-.05.55.1.81.29-1.08.78-2.26.22-3.32.31zM10.5 161.23v-2.78c.53.56.67 1.94 0 2.78zM141.84 221c1.14-.09 2.28-.18 3.42-.28-1.11.5-2.24.69-3.42.28zM251.62 211.26c-.62.13-.62.13-1.16-.19.49-.34.93-.64 1.49-1.03-.14.51-.23.82-.33 1.22zM20.27 98.99c-.02.63-.28 1.05-.9 1.22-.1-.88-.1-.88.9-1.22zM14.26 160.6c-1.17.07-1.19.06-1.22-.8.58-.08.91.17 1.22.8zM219.51 215.79c.76-.1 1.56-.2 2.4-.31-.64.43-.64.43-2.4.31zM143.73 69.4c-.48.52-.81.28-1.16-.01.42-.54.42-.54 1.16.01zM17.79 194.05c.54.05.76.08 1.07.11-.14.39-.27.72-.44 1.2-.21-.44-.37-.77-.63-1.31zM19.75 200.68c-.51-.28-.79-.65-.52-1.23.18.41.35.82.52 1.23zM227.17 216.24c-.45.13-.63.2-.81.23-.18.03-.37.01-.59.01.36-.57.36-.57 1.4-.24zM69.73 225.66c-.7.03-1.13.05-1.66.07.54-.44.54-.44 1.66-.07zM136.39 70.5c.38-.32.59-.49.8-.67.11.15.19.21.19.26-.03.49-.23.71-.99.41zM18.51 191.37c-.11-.24-.23-.39-.23-.56 0-.09.18-.18.28-.27.11.16.26.31.32.48.02.05-.2.19-.37.35zM13.69 151.87c.05.34.11.69.17 1.07-.62-.43-.64-.66-.13-1.04-.01.01-.04-.03-.04-.03zM11.69 139.12c.33-.13.61-.24.87-.33-.14.55-.23.59-.87.33zM139.16 70.39c-.3-.04-.61-.09-.91-.13 0-.07.01-.15.01-.22h.94c-.01.11-.02.23-.04.35zM131.43 221.88l-1.05.27c-.02-.08-.03-.16-.05-.24.36-.07.71-.14 1.07-.2l.03.17zM152.38 68.51c-.34.04-.68.07-1.02.11-.01-.07-.01-.14-.02-.21.34-.03.68-.06 1.02-.08 0 .06.01.12.02.18zM206.13 64.73c.39.04.79.07 1.18.11 0 .03 0 .05-.01.08h-1.19c.02-.06.02-.12.02-.19zM20.46 199.2c.18.25.36.49.55.74l-.15.12c-.19-.24-.37-.49-.56-.73.05-.05.1-.09.16-.13zM159.34 66.58h.6c0 .06 0 .12.01.18-.2.02-.4.03-.59.05-.01-.08-.02-.15-.02-.23zM166.86 66.6c.23-.04.46-.09.69-.13.01.07.03.14.04.2-.23.04-.46.07-.69.11-.02-.06-.03-.12-.04-.18zM266.94 175.45c.1-.22.2-.44.3-.65.07.03.14.05.21.08-.05.23-.11.46-.16.69-.12-.05-.24-.08-.35-.12zM13.27 154.26c.14-.16.28-.33.42-.49.05.04.11.07.16.11-.12.18-.23.37-.35.55-.07-.06-.15-.11-.23-.17zM11.61 132.4l.12-.68.26.03c-.02.23-.05.47-.07.7-.1-.02-.21-.03-.31-.05zM25.79 206.79l-.54-.6.1-.13c.22.17.44.33.66.5-.07.08-.14.16-.22.23zM16.18 183.61c.28.35.41.51.55.7-.58.16-.58.16-.55-.7zM99.53 225.26c-.24.07-.48.13-.71.2-.02-.06-.04-.13-.06-.19.24-.07.48-.14.71-.2.02.06.04.13.06.19zM148.73 220.64c-.29.04-.59.09-.88.13l-.03-.2.88-.09.03.16zM224.35 216.23c-.16.08-.33.16-.49.22a.7.7 0 0 1-.09-.17c.16-.1.32-.19.49-.29l.09.24zM151.26 220.31h.86v.04h-.86v-.04zM12.44 136.84v-.66c.06 0 .12 0 .18-.01v.7c-.06 0-.12-.02-.18-.03zM15.88 110.21c-.1.27-.2.55-.31.82-.07-.02-.13-.04-.2-.07.1-.29.2-.58.29-.88.08.05.15.09.22.13zM24.86 205.56c-.22.09-.35.15-.48.2-.03-.09-.12-.21-.09-.27.04-.08.17-.15.26-.15.08 0 .16.1.31.22zM11.91 130.44l.39.99c-.49-.28-.81-.4-.39-.99zM14.34 161.24c-.05.12-.11.23-.16.35-.06-.04-.12-.07-.18-.11.07-.11.14-.21.21-.32.05.03.09.06.13.08zM16.3 118.22c-.06.16-.12.33-.18.49-.05-.01-.11-.03-.16-.04.05-.17.1-.34.16-.5.06.01.12.03.18.05zM12.61 134.43v.76c-.02 0-.05 0-.07.01-.02-.25-.04-.51-.05-.76.03 0 .08-.01.12-.01zM240.99 214.64c-.21.02-.43.05-.64.07-.01-.07-.01-.14-.02-.2.21-.02.43-.03.64-.05.01.06.01.12.02.18zM18.86 191.94c.19-.09.31-.2.39-.18.11.03.21.15.31.23-.08.06-.17.17-.25.18-.09.01-.18-.09-.45-.23zM15.53 191.36l.03.54c-.07-.01-.2-.01-.2-.02-.03-.17-.03-.34-.04-.52h.21zM155.05 69.9c-.25.05-.39.1-.51.08-.05-.01-.08-.18-.12-.27.1-.04.21-.11.31-.09.08.01.14.12.32.28zM100.4 225.11h.77v.09c-.25.01-.51.03-.76.04-.01-.05-.01-.09-.01-.13z"/><path class="st0" d="M248.53 141.54c-.03 1.27-.23 2.54.38 3.81.05-.59.11-1.17.16-1.73.37.04.69.08 1.11.13.05.36.53.76.13 1.31-.22-.16-.43-.32-.8-.61.16.69.45.73.83.59l.75 3.98c.13.95-.64.91-1.39 1.05.74-1.13.55-2.26.11-3.39v1.12c-.91.14-.84.74-.76 1.44.33 3.13.53 6.27.93 9.38.15 1.13.11 2.23.16 3.35.04.93-.15 1.85-.05 2.81.11 1.03-.19 2.11-.35 3.16-.14.92-.63 1.89-.44 2.73.25 1.13-.57 1.89-.54 2.93.03.95-.46 1.91-.67 2.87-.18.81-.25 1.65-.46 2.45-.33 1.29-.73 2.56-1.22 3.81-.14-.87-.14-1.68.07-2.54.54-2.28.91-4.6 1.35-6.9.09-.47.22-.92.34-1.38.15-.6.29-1.2.44-1.81-.78-.11-1.02 1.1-1.82.42l.39-3.13c.01-.08.01-.16.03-.24.36-1.57.36-1.57-.05-3.13-.98.2-.99.23-.37 1.08-.75.67-.48 1.56-.41 2.41.03.38.18.76.15 1.12-.07.82-.2 1.64-.37 2.45-.08.4-.11.88-.69 1.01-.15.03-.27.43-.32.68-.41 1.98-.8 3.97-1.21 5.96-.44 2.11-.72 4.27-1.42 6.29-.6 1.73-1.4 3.5-3.19 4.46-.24.13-.49.29-.75.32-1.37.18-2.75.31-4.12.5-.39.05-.76.31-1.15.34-.37.04-.75-.09-1.11-.15-.21.41-.36.72-.55 1.11-.45-.07-.86-.14-1.3-.21.05-.33.08-.55.12-.79-.13-.05-.29-.16-.34-.12-.47.34-1.08-.31-1.52.22-.14-.16-.28-.33-.48-.55l-.65.68c-3.02-.05-6.03.08-9.03.48l-.03.24c.27.12.55.23.82.35 0 .07-.01.15-.01.22-.49.05-.99.2-1.46.14-.46-.06-.89-.33-1.44-.55-.17.34-.48.82-1.2.57-.03-.2-.07-.41-.1-.6-.12-.03-.19-.07-.27-.06-1.25.11-2.51.22-3.76.34-.9.08-1.83.05-2.69.29-1.05.29-2.11.02-3.15.22-.38.07-.81-.01-1.02.59.43.06.79.12 1.34.2-.86.09-1.54.17-2.33.26.09-.31.15-.53.22-.75l-.14-.11c-.29.28-.58.56-.93.89-.31-.11-.63-.3-.97-.33-.32-.03-.75 0-.97.2-.37.33-.74.41-1.2.4-1.1-.01-2.2 0-3.48 0 .28-.17.38-.23.46-.28-.85-.89-1.4.21-2.15.46.06-.31.09-.49.13-.72-.15.06-.26.1-.36.15-.37.19-.73.51-1.12.56-1.11.14-2.23.22-3.34.22-1.18 0-2.36-.16-3.54-.15-2.26.02-4.53.08-6.79.19-1.75.08-3.5.27-5.25.39-.93.07-1.84.44-2.8.2-.72-.18-1.4.04-2.11.14-1.89.25-3.8.36-5.69.53-.83.08-1.65.18-2.52.28-.07-.26-.12-.47-.18-.69-.14.02-.29 0-.36.07-.17.16-.29.38-.46.54-.44.39-.78.29-1.21-.42-.39.95-1.15.78-1.92.73-.06-.22-.13-.42-.2-.67-1.23.14-2.43.28-3.63.41v.3c.33.03.66.06.98.08l-.02-.01c-.14.11-.26.31-.41.33-.43.05-.88-.01-1.3.05-.43.06-.74.11-1.15-.26-.59-.54-1.33-.3-1.83.36-.37.49-1.27.54-1.57 0-.25-.43-.55-.39-.9-.35-1.18.14-2.37.29-3.64.45.19.25.31.42.5.69-.53.04-.95.08-1.43.12-.08-.27-.14-.5-.2-.74-.15.04-.27.04-.29.08-.26.55-.62.86-1.31.8-.54-.05-1.1.1-1.75.18-.05-.82-.5-.96-1.21-.86-.95.13-1.92.1-2.86.22-.7.09-1.39.33-2.38.59l1.29.19v.2c-1.48.1-2.95.19-4.61.3.59-.86 1.54-.13 2.01-.77-.45-.51-.91.04-1.37 0-.51-.04-1.03-.01-1.64-.01.1.3.17.5.28.83h-1.28l.22-.74c-1.14.07-2.19.13-3.2.19.23.24.46.47.8.82-.52.1-.89.17-1.3.25.08.71.38.8 1.03.81 1.42.02 2.77-.59 4.21-.3.54.11 1.18-.08 1.73-.27 1.31-.46 2.53-.22 3.74.31l.05-.05c-1.28.2-2.55.41-3.83.6-.23.04-.5.09-.71.02-.7-.24-1.32-.05-1.97.18-.43.16-1 .37-1.35.21-.85-.38-1.6.28-2.27.13-.83-.19-1.57.01-2.35-.01-.52-.01-1.05.1-1.57.16-.02-.1-.05-.2-.07-.3 1.01-.31 2.03-.62 3.11-.95-.08-.46-.14-.87-.25-1.5-.37.56-.51 1.15-1.2 1.07-.51-.06-1.03.01-1.54.01-1.1 0-2.25-.21-3.28.06-.8.21-1.6.31-2.4.39-1.79.17-3.59.36-5.4.11-.34-.05-.69.09-1.04.13-.4.05-.76.11-.95-.45-.07-.21-.48-.34-.76-.44-1.29-.47-2.59-.06-3.88.04-.83.07-1.66.11-2.49.14-1.31.04-2.61.06-3.92.08h.01c-.31 0-.63-.01-.94 0-1.26.05-2.51.31-3.79.18-.5-.05-1.02.15-1.53.2-.79.08-1.58.14-2.37.2-.12.01-.27-.07-.35-.02-.92.54-1.93.36-2.95.34.04.23.07.41.13.78-1.6-.41-3.13-.8-4.68-1.2-1.54.91-1.91.85-3.34-.6.06-.18.12-.37.19-.59-.13-.09-.25-.24-.38-.26-.37-.04-.62-.19-.64-.57-.04-.68-.41-.64-.97-.66-.61-.02-1.23-.33-1.82-.57-.68-.28-1.27-.73-2.09-.69-.35.02-.81-.34-1.07-.65-.44-.51-.13-1.01.89-1.49-.04-.32-.19-.69-.1-1 .08-.3.4-.54.66-.86-.06-.95-.06-.95.85-1.35-.87-.57-.29-1.47-.6-2.2-.52-1.23-.57-2.67-1.65-3.64-.15-.13-.27-.32-.44-.39-1.5-.56-2.48-1.78-3.66-2.75-.87-.71-1.96-1.17-2.96-1.74-.2-.12-.5-.19-.59-.36-.81-1.74-2.44-2.73-3.7-4.06-.49-.52-.92-1.11-1.44-1.59-1.05-.97-2.21-1.81-3.2-2.83-1.47-1.52-2.88-3.09-3.9-4.98-.41-.76-.89-1.49-1.34-2.23-.04-.07-.11-.12-.14-.19-1.16-2.39-2.43-4.72-3.04-7.34-.55-2.32-1.25-4.61-1.87-6.92-.61-2.26-1.22-4.53-1.82-6.79-.23-.85-.46-1.69-.66-2.54-.84-3.67-1.86-7.31-1.8-11.12.02-1.35.16-2.7.32-4.04.27-2.27.6-4.54.89-6.8.17-1.29.21-2.6.48-3.87.4-1.89.95-3.76 1.45-5.63.36-1.34.71-2.69 1.6-3.81.2-.26.5-.55.79-.61 2.8-.56 5.61-1.07 8.48-1.09.89-.01 1.86.11 2.5-.77 2.21-.89 4.43-1.69 6.88-1.66 1.14.01 2.28-.27 3.43-.43 1.05-.14 2.1-.27 3.14-.44.94-.15 1.87-.1 2.82-.07 1.1.03 2.21-.25 3.32-.35 2.1-.18 4.2-.32 6.31-.46 1.34-.09 2.68-.12 4.02-.24.62-.06 1.22-.44 1.83-.43 1.84.04 3.62-.28 5.43-.54 2.08-.3 4.2-.27 6.3-.41.55-.04 1.09-.22 1.65-.24 2.07-.08 4.14-.05 6.2-.19 1.13-.08 2.24-.42 3.37-.62.59-.1 1.18-.18 1.77-.25.89-.1 1.78-.17 2.67-.27 1.22-.13 2.45-.48 3.64-.37 1.39.14 2.66-.32 4-.33 2.15-.02 4.29-.11 6.41-.61 1.35-.31 2.77-.31 4.09-.82.34-.13.78.04 1.17.01 2.46-.2 4.91-.39 7.36-.64 3.22-.33 6.43-.71 9.64-1.07 2.06-.23 4.12-.51 6.18-.71 1.98-.19 3.97-.29 5.95-.46.55-.05 1.09-.2 1.64-.29.22-.04.45-.05.68-.06 1.19-.06 2.38-.1 3.58-.16.74-.04 1.49-.15 2.23-.17.65-.02 1.33-.32 1.96.1 1.24-.69 2.51.33 3.84-.13.94-.32 2.09-.14 3.16.01.88.13 1.83-.25 2.69-.09.9.17 1.74.44 2.69.22.8-.18 1.62-.41 2.47-.06.23.09.55.01.81-.05.77-.15 1.53-.34 2.3-.49.15-.03.36-.05.47.03.66.53 1.44.32 2.18.4 1.84.19 3.67.43 5.5.69.27.04.51.33.87.58.11-.04.37-.22.62-.23.42-.01 1.12-.06 1.23.15.61 1.18 1.84.74 2.73 1.11.69.29 1.52.26 2.38.38.49-.46-.89-.95-.24-1.46.63.25 1.22.48 1.77.69.91-.85.9-.84 1.89-.41.17.08.42.19.55.13.44-.22.8-.11 1.24.06.23.09.61-.21.92-.33l-.04.03c.47.24.86.78 1.44.39.16-.49.3-.95.47-1.48.34.16.59.28.83.4.06-.05.11-.11.17-.16-.35-.51-.7-1.01-1.05-1.53h1.04c-.02-.22.02-.42-.06-.5-.4-.39-.39-.76-.03-1.14.35-.37.8-.41 1.21-.2 1.17.6 2.49.84 3.63 1.53.38.23.89.23 1.38.23-.72-1.08-2.16-1.22-2.86-2.31.71.14 1.41.1 2.07.53.82.54 1.78.87 2.66 1.33.44.23.84.56 1.26.83.5.32.99.67 1.51.95.64.35 1.09.83 1.44 1.58-1.08.11-1.39-1.34-2.52-.83.95.82 1.86 1.59 2.77 2.37l.12-.12c-.07-.16-.13-.32-.26-.63.43.2.7-.54 1.14.12.21.31.51.39.51.94 0 .53.57 1.09.99 1.56.91 1.05 1.89 2.03 2.83 3.06.87.96 1.4 2.1 1.94 3.38-.34.08-.57.14-.81.2.16.92.9 2.15 1.59 2.56-.06-.39-.1-.7-.16-1.06.13.04.29.04.32.11.14.28.23.58.35.88-.25.19-.47.35-.82.6.23.62.48 1.27.75 1.99.41-.05.75-.1 1.11-.14.04.03.13.06.16.12.56 1.07 1.36 2 1.77 3.17.36 1.03.78 2.06 1.33 3 1.15 1.96 1.68 4.18 2.74 6.17.55 1.03.91 2.16 1.4 3.37-.96-.11-.81-1.42-1.93-1.18.53 1.51 1.56 2.8 1.87 4.41.3 1.56.94 3.05 1.59 4.56v-1.33c.85 1.85.85 1.85.77 2.48-.23-.03-.45-.07-.7-.1-.03.12-.1.24-.08.34.26 1.32.58 2.63.8 3.96.23 1.32.34 2.66.55 3.99.11.7.34 1.38.51 2.07l-.03-.11zM139.85 98.6c.16.38.31.79.93.38-.32-.12-.64-.23-.95-.35.04-.73-.37-.67-.95-.53.23.49.57.57.97.5zm-27.12 39.87c-.58 1.07-.56 1.41.25 1.97l-.25-1.97c-.06-.2-.16-.4-.15-.6.02-.8-.35-2.14-.85-2.69.12 1 .18 1.87.35 2.71.04.23.42.39.65.58zm126.7-26.31c.22-.03.43-.05.72-.08-.12-.35-.17-.62-.29-.85-.13-.23-.36-.41-.49-.64-.13-.23-.14-.55-.3-.75-.21-.28-.52-.45-.95-.17.09.21.16.39.25.56.36.65.72 1.3 1.09 1.95-.05 1.27.83 1.89 1.78 2.67-.62-2.04-.62-2.04-1.81-2.69zm-74.63-1.8c-.4-.86-.51-.96-1.37-1.16.45.38.9.75 1.34 1.13-.69-.28-1.39-.56-2.09-.84-.26-.1-.52-.19-.78-.29-.59-.22-1.2-.41-1.77-.68-.82-.38-1.6-.85-2.42-1.23-.28-.13-.57-.38-.97-.01-.41.39-.62.06-.63-.39 0-.18.03-.37.05-.63-.62-.1-1.26-.05-1.72-.32-.46-.27-.79-.55-1.31-.23-.01.01-.05-.05-.13-.12.05-.22.11-.46.18-.76-.37-.06-.7-.05-.97-.18-2.51-1.18-5.02-2.39-7.52-3.59-.83-.4-1.57-1-2.61-.83-.24.04-.55-.34-.96-.61-.84.26-2.62-.2-2.91-1.51-.86.48-1.39-.39-2.34-.65.26.38.34.63.51.72.48.28 1.01.47 1.49.74.4.22.98.32.94 1.16-.9-.68-1.72-1.15-2.58-.2-1-.96-2.12-.93-3.21-.5-.24.52-.46.98-.64 1.35-.59.11-1.1.21-1.63.3.06.39.1.69.15 1.06-.46-.03-.83-.05-1.27-.08.34.41.61.73.98 1.18-1.28.49-2.47.94-3.65 1.39-.02.25-.04.46-.05.66-.55.08-1.04.16-1.58.24-.02.39-.05.75-.07 1.18-.42 0-.81-.1-1.11.02-.66.27-.84-.09-1.06-.58-.19-.41-.46-.78-.69-1.17-.12.51-.02.93.05 1.35.04.25.04.5.06.75-.26-.06-.53-.12-.79-.17-.06.19-.12.37-.18.56l.04-.04c-.71.06-1.44.17-1.91-.59-.6-.97-1.37-1.14-2.45-1.2-.72-.04-1.31.05-1.94.3-.13.05-.38-.18-.59-.29-.06.45-.11.86-.16 1.28-.91-.25-1.56-.97-2.81-.85.41.35.63.52.84.7l.72.63-.12.21h-1.1c-.04.07-.08.14-.12.22.48.39.95.77 1.49 1.21-.43.13-.72.21-1.08.32.32.56.47 1.25.9 1.52.81.52 1.76.8 2.86 1.27-.94.24-1.29.84-1.7 1.46.7.12 1.29.21 1.88.31-.06.41-.1.65-.14.92h1.73c.16.24.27.65.51.75.89.38.94 1.3 1.37 1.96.58.89-.01 1.71-.29 2.63-.32-.42-.56-.74-.84-1.09-.73 1 .18 1.81.01 2.66-.87.43-1.2-.37-1.77-.75-.26.63-.79.76-1.35.61-.55-.15-.99-.08-1.52.32.22 1.15.43 2.32.66 3.49.1.51.49.95.42 1.51-.04.34-.15.68-.11 1.01.25 1.89.52 3.78.8 5.67.02.15.12.29.15.37.23-.04.41-.07.69-.12-.06-.42-.15-.85-.17-1.27-.01-.17.11-.34.18-.52.35 2.32 1.19 4.51 1.08 7.09-.43-.46-.71-.75-1.18-1.24.09.74.1 1.24.23 1.72.59 2.32 1.19 4.63 1.82 6.93.21.78.09 1.68.74 2.32-.35.58-.12 1.18.01 1.74.53 2.37 1.1 4.73 1.68 7.08.2.81.49 1.6.66 2.42.3 1.44.55 2.9.79 4.35.17 1.01.33 2.03.42 3.05.09 1.03.07 2.06.11 3.1.01.4-.06.85.1 1.18.63 1.26.33 2.56.32 3.86 0 .47-.16.86-.81.79-.09-1.58-.17-3.17-.26-4.75-.04-.58 0-1.24-.97-1.22-.04.93-.21 1.87.57 2.45-.42 2.08-.19 4.04-.2 6.01-.22-.76-.46-1.54-.42-2.3.04-.86-.65-1.37-.86-2.07.26-.09.43-.15.67-.23-.12-.37-.15-.71-.33-.95-.16-.2-.48-.27-.88-.48.49-.2.8-.33 1.14-.46-.27-1.28-.54-2.53-.12-4.07.25.73.34 1.38 1.11 1.17.15-.61.34-1.21.42-1.82.06-.45-.27-.61-.72-.58-.26.44-.35 1.16-1.22.75-.01-.2-.12-.49-.03-.66.31-.58-.07-1.13-.06-1.69.01-.54-.53-1.09-.81-1.64-.12-.23-.35-.6-.27-.72.49-.66-.14-1.08-.3-1.62.62-.52.25-1.12.1-1.67-.13-.48-.2-.88.03-1.37.27-.57.19-1.16-.45-1.66-.04.39-.07.7-.13 1.27-.41-1.19-1.13-2.01-.93-3.09-.23-.15-.46-.3-.48-.31-.05-.63.02-1.08-.14-1.43-.53-1.19-.67-2.45-.71-3.73-.02-.47.1-.95.15-1.36-.13-.38-.34-.73-.36-1.09-.02-.33-.02-.5-.41-.54-.14-.02-.34-.35-.35-.54-.01-.55.06-1.1.1-1.66-1.44.19-.21 1.41-.76 2.16-.42-1.38-.76-2.6-.83-3.87.17.28.34.55.59.97.21-.44.47-.72.46-.99-.03-.53-.21-1.05-.34-1.62-.24-.02-.46-.03-.68-.05v1.72c-.23-.32-.55-.61-.67-.96-.12-.36-.07-.75-.66-.8.13.86.16 1.66.39 2.41.23.75.48 1.48.61 2.27.22 1.32.67 2.6 1.02 3.9.03.11.11.2.17.29.32-.03.61-.06.89-.09.46 1.41.46 1.41.09 2.03-.17-.35-.32-.66-.47-.98-.16.49-.16.92-.1 1.35.21 1.3.39 2.61.68 3.89.45 2.02.97 4.02 1.49 6.02.45 1.72 1.02 3.41 1.38 5.15.29 1.39.41 2.83.51 4.26.21 2.93.26 5.87.64 8.79.07.52-.19 1.08-.28 1.54.25.22.54.46.88.75.37-.24.75-.5 1.1-.74l.09-1.32c.36.03.6.05.88.08.08-1.11.78-1.44 1.69-1.52.2-.02.39-.07.58-.11.71-.15.78-.09.82.68.02.35.05.69.07.99.52-.24 1-.45 1.47-.67-.44.49-1.05.89-1.07 1.8.25-.13.44-.16.51-.26.46-.67 1.01-1.16 1.88-1.24.35-.03.4-.33.19-.55-.55.1-1.05.2-1.55.29 1.21-1.08 2.56-1.49 4.17-.66.16-.57.82-.58.93-1.29.07-.42.51-.9.49-1.44.7-.05.83.47 1.12.82 1.08 1.26 1.59 1.54 2.77.88.42-.23.95-.27 1.54-.43.19.83.6 1.47.27 2.24-.35-.33-.7-.67-1.09-1.04-.44.23-.88.46-1.33.7.03.09.06.19.09.28.25 0 .53-.07.75.02.24.1.43.35.66.56.3-.17.6-.35.91-.53.5-.3 1-.61 1.51-.89 1.01-.57 2.22-.67 3.19-1.39.61-.45 1.32-.77 1.99-1.15-1.27-.27-2.2.88-3.42.65.23-.45.46-.89.7-1.35.59.02 1.19.7 1.75-.03.57-.25 1.3-.27 1.68-1.11-.56.27-.99.45-1.39.68-.13.08-.17.3-.26.46-.32-.06-.63-.12-.95-.19v-.26c1.51-.32 2.64-1.6 4.24-1.58.29-.34.55-.92.83-.94.58-.03.95-.4 1.44-.54 2-.59 3.74-1.58 5.1-3.2.22-.26.68-.39 1.06-.45.7-.12 1.43-.08 1.72-.95.05-.15.33-.33.47-.31.77.11 1.07-.49 1.55-.94-.27-.07-.47-.12-.74-.18.68-.9 1.11-.11 1.52.13 1.31-.67 2.55-1.31 3.76-1.94.23.32.38.52.57.78l1.17-.76c-.03-.05-.06-.1-.09-.14-.26.03-.52.07-.78.1.76-.57 1.6-.89 2.41-1.27 2.11-.98 4.21-1.99 6.32-2.99.24-.11.51-.18.76-.27.4-.14.88-.19 1.19-.44.46-.38.91-.59 1.51-.55.35.03.75-.03 1.05-.19 1.56-.8 3.38-1.05 4.74-2.26.1-.09.31-.13.45-.1 1 .24 1.69-.13 2.2-1.01.15-.26.47-.36.92-.3 1.02.15 2.05.06 2.56-1.13.16-.38.48-.52.87-.22.18.14.37.26.53.38.51-.29.96-.54 1.41-.79.18-.1.35-.21.54-.27.51-.16 1.07-.22 1.54-.47.61-.32 1.16-.78 1.74-1.19.16.19.3.36.47.56.26-.44.5-.83.73-1.23-.24-.37-.45-.7-.66-1.01-1.3.22-1.3.22-1.81 0 1.26-.3 2.4-.89 3.79-.17-.09-.29-.12-.49-.22-.66s-.26-.29-.39-.43l.15-.24c.33.14.68.25.98.44.61.38 1.2.81 1.79 1.22-.12-.97-.94-1.54-.88-2.48 1.01-.31 1.02-.36.36-1.13-.2-.24-.36-.52-.52-.79-.03-.05.02-.15.04-.23h.59c-.18-.58-.35-1.1-.51-1.63.36.29.72.56 1.24 0-.41-.12-.73-.22-1.06-.3-.02 0-.09.23-.14.35-.19-.09-.39-.18-.68-.32.37-.27.64-.47 1.01-.75-.11-.71-.22-1.47-.33-2.23h-.01c.68.12.67.13.53-.39-.05-.2-.01-.42-.01-.55-.35-.17-.72-.34-1.09-.52l-.03.01c1.03-.37 2.06-.74 3.12-1.13.04-.19.08-.45.12-.63-.47-.19-.87-.35-1.45-.59.51-.37.81-.59 1.2-.87-.25-.19-.47-.36-.7-.55-.45.87-.45.87-1.3 1.1.13-.37.24-.7.35-1.03.26-.09.56-.13.77-.29.16-.12.32-.39.3-.57-.06-.62-1.36-1.92-2-1.86-.75.08-1.04-.38-1.53-.82.27-.17.47-.28.82-.49-.57-.34-1.03-.57-1.43-.87-1.34-.99-2.65-2.02-4.01-2.99-.35-.25-1.11-.24-1.2-.51-.25-.77-.84-.21-1.26-.48.03-.19.07-.41.11-.65-.9-.68-1.8-1.38-2.73-2.05a78.01 78.01 0 0 0-2.64-1.84c-1.33-.87-2.68-1.73-4.04-2.57-.49-.3-1.01-.55-1.56-.84-.14-.17-.29-.46-.53-.61-1.63-.99-3.27-1.97-4.93-2.91-1.07-.61-2.18-1.16-3.27-1.74-.46-.24-.93-.28-1.69-.17l2.21 1.34c-.03.06-.05.11-.08.17-1.52-.57-3.04-1.13-4.5-1.68-.22-.63-.07-1.04.6-1.36-.78-.47-1.43-.86-2.07-1.23-.28-.2-.66-.28-1 .09zm-53.42 21.79c.42-.69.4-.68.29-1.28-.14-.78-.24-1.56-.36-2.34-.15-.94-.29-1.87-.46-2.81-.03-.18-.19-.34-.29-.51-.26 2.4.7 4.6.82 6.94zm92.64-39.6c1.07.78 3.28 1.19 4.06.96-.39-.47-.82-.69-1.43-.66-.46.02-.93-.07-1.4-.13-.41-.05-.82-.11-1.23-.17zm25.58 3.59c-.28 1.16.71 1.64.96 2.44.03.1.31.13.61.24-.28-1.12-.68-1.97-1.57-2.68zm-113.38 45.1c-.17 1.51.66 2.77.99 4.15.18-1.51-.78-2.74-.99-4.15zm8.42 55.74c.01.08.02.16.02.24l3.95-.36-.03-.29c-1.31.14-2.62.28-3.94.41zm54.42-3.86c.85.9 1.27.95 2.51.36-.96-.14-1.74-.25-2.51-.36zm-58.56-34.65c-.16-.53-.28-.96-.42-1.39-.14-.43-.3-.86-.45-1.29-.17 1.31.11 2.1.87 2.68zm-8.14-25.85c.61-1.01.6-1.2 0-2.01v2.01zm9.24 31.71c-.02.74-.29 1.52.14 2.16l.32-.06c-.15-.7-.31-1.4-.46-2.1zm-8.76-30.94c-.65.82.18 1.43.04 2.08.33-.65.33-1.3-.04-2.08zm3.23 2c.11.59.21 1.07.3 1.55.57-1.02.57-1.02-.3-1.55zm-2.97-8.41c.17-.39.29-.69.41-.95-.3-.29-.56-.54-.82-.78-.05.03-.1.07-.14.1.17.5.34 1.01.55 1.63zm-5.3 71.77c-.03.12-.07.24-.1.35.48.26.98.07 1.5-.26-.47-.02-.93-.06-1.4-.09zm127.49-91.2c-.22.89-.22.89.42 1.36-.16-.53-.29-.94-.42-1.36zM73.66 195.73c-.26-.68-.26-.68-1.13-.44.51.2.82.32 1.13.44zm74.03.6c.02.1.04.21.05.31.32-.07.65-.14 1.14-.24-.56-.53-.87-.24-1.19-.07zm73.45-6.11c-.01-.08-.03-.16-.04-.24-.39.1-.82-.08-1.12.47.38-.07.77-.15 1.16-.23zm-43.2 3.46c-.61-.22-.61-.22-.97.24.33-.08.65-.16.97-.24zm70.5-31.52c.44-.57.3-.85-.02-1.08-.04-.03-.14.03-.29.08.08.27.16.54.31 1zm-.11 6.86c.08.01.17.03.25.04.05-.36.1-.73.14-1.09-.04-.01-.09-.01-.13-.02-.08.36-.17.71-.26 1.07zm-80.89-3.95c.02.05.04.1.06.16l.87-.33c-.02-.05-.04-.11-.06-.16-.29.1-.58.22-.87.33zm-54.26-28.62-.2.03c.05.33.11.65.16.98l.16-.03c-.03-.33-.08-.65-.12-.98zm110.59-47.11c-.07.03-.14.07-.2.1.07.16.13.32.2.48.09-.04.18-.09.28-.13-.1-.15-.19-.3-.28-.45zm-84.49 107.9c-.02-.12-.05-.25-.07-.37-.23.06-.46.12-.7.19.02.08.03.17.05.25.24-.03.48-.05.72-.07zm92.67-99.37c.07-.07.14-.13.21-.2-.16-.14-.32-.28-.47-.42l-.15.15.41.47zm-110.59 6.35c.07-.04.15-.09.22-.13-.14-.23-.29-.45-.43-.68-.07.04-.14.08-.2.12.13.24.27.47.41.69zm124.89 59.08c.07.02.14.03.2.05.05-.15.09-.3.14-.45-.09-.03-.18-.06-.27-.08-.02.16-.05.32-.07.48zm-130.56-20.63c.05-.04.1-.07.16-.11-.11-.25-.21-.5-.32-.75-.06.03-.11.05-.17.08l.33.78zM166 165.5c.04.09.08.17.12.26.17-.1.34-.21.52-.31-.02-.04-.04-.09-.06-.13-.2.05-.39.12-.58.18zm37.5-26.12c.05-.06.11-.12.16-.18-.22-.15-.43-.3-.65-.46-.03.05-.07.1-.1.16.19.16.39.32.59.48zm-82.33 23.34c-.08.14-.17.24-.15.31.02.09.14.15.21.22.06-.08.16-.17.16-.24-.01-.08-.12-.16-.22-.29zm128.09-.06c-.07-.03-.15-.06-.22-.1-.06.16-.12.32-.17.48.06.02.17.07.18.05.08-.13.14-.28.21-.43zm-125.88 17.12c.02.04.03.08.05.12.14-.06.29-.11.43-.17-.02-.04-.03-.08-.05-.12-.14.06-.28.11-.43.17zm118.87-62.33c.07-.04.15-.07.22-.11-.07-.12-.14-.24-.21-.35-.04.01-.08.03-.12.04.04.14.07.28.11.42zm-4.19-8.59c.1-.13.16-.21.22-.29-.06-.04-.13-.11-.18-.1-.09.03-.17.1-.25.16.06.06.12.13.21.23zm-4.1-8.61c-.07.07-.14.13-.2.2.14.15.27.31.41.46l.22-.22c-.14-.15-.29-.29-.43-.44zm15.09 46.27c-.09.18-.18.28-.17.37.01.06.15.11.24.16.03-.07.09-.14.08-.2-.01-.09-.08-.17-.15-.33z"/><path class="st0" d="M162.94 196.83c-.73.27-1.46.97-2.45.55-1.34.89-2.82.39-4.25.5-.71.06-1.48-.01-2.15.39-.09.06-.22.07-.33.07-.89.01-1.78 0-2.68-.09 1.51-.22 2.7-1.33 4.34-1.29 1.45.04 2.92-.34 4.46.06.3-.5.81-.53 1.39-.57 2.17-.15 4.34-.34 6.5-.6 1.42-.17 2.87-.05 4.25-.53 2.24.28 4.41-.36 6.63-.45.55-.02 1.08-.23 1.63-.33.4-.07.44-.01.5.75 1.72-.85 3.55-.39 5.34-.56 1.71-.16 3.48.05 5.2.32 0 .1.01.2.01.3-.56.07-1.13.21-1.69.21-1.71-.02-3.4-.07-5.11.12-1.96.22-3.94.18-5.91.27-.39.02-.77.11-1.16.17-1.89.26-3.77.51-5.66.77-.16.02-.32.03-.48.01-1.88-.23-3.74.07-5.6.31-.3.04-.62-.01-.93-.05-.33-.05-.61-.34-1-.05-.13.11-.51-.14-.85-.28zM226.84 193.38c-1.22-.1-2.4.25-3.6.3-.63.02-1.29-.14-1.89-.01-1.66.35-3.42.01-5.02.73-.07.03-.16.07-.23.06-1.76-.34-3.48.17-5.23.23-1.07.03-2.15.1-3.21.26-3 .45-6.02.43-9.04.49-1.13.02-2.26.22-3.39.23-.9.01-1.79-.16-2.84-.26.65-.8 1.4-.6 2.11-.56.46.02.92.08 1.38.05 1.22-.08 2.42-.52 3.65-.07.14.05.33.06.47.01 1.94-.66 4.06 0 5.97-.87.1-.05.23-.06.35-.07 2.1-.13 4.19-.27 6.32-.4.02.1.05.28.06.35.86.06 1.68.14 2.49.15.3 0 .6-.17.9-.25.49-.13.98-.33 1.48-.37 1.27-.1 2.54-.12 3.81-.21.34-.02.68-.15 1.02-.22.81-.16 1.58-.5 2.46-.25.34.1.76-.11 1.15-.16.7-.1.78-.02.81.86l.02-.02zM23.25 191.71c.56-.12 1.12-.23 1.69-.35.02.06.05.12.07.17-.19.13-.38.27-.61.43.42.17.76.31 1.11.44l-.03.24c-.19.06-.39.12-.59.18-.23 1.07.91.65 1.39 1.22-.47.04-.79.07-1.22.11.43.82.83 1.58 1.13 2.16.52.51.91.92 1.34 1.28.41.35.86.65 1.34 1-.04.27-.12.65-.63.44-.62-.26-1.48.13-1.9-.8-.09-.2-.88-.09-1.29-.12-.25-.36-.46-.66-.68-.98.29-.18.59-.38 1.04-.66-.45-.15-.73-.24-1.03-.33-.1.15-.2.31-.25.38l-1.55-.76c.47-.39-.25-.84-.11-1.53.59.62 1.13.62 1.75.08-.49-.37-1.7.04-1.41-1.24.3.06.59.12 1.07.22-.22-.63-.4-1.13-.58-1.64-.02.03-.05.06-.05.06zM29.84 205.61c-.19.29-.38.57-.6.89-.34-.3-.81-.54-.97-.91-.13-.31.09-.77.19-1.34-.32-.07-.77-.17-1.16-.25-.35-.43-.71-.86-1.14-1.38.07-.11.21-.32.44-.66.62.58 1.17 1.11 1.85 1.75.57-.4 1.2-.85 1.94-1.37-.63-.13-1.29.19-1.48-.58.97-.57 1.67-.4 2.31.56.13.2.25.54.4.57 1.21.16 1.37 1.43 2.17 2.01.47.34.4.89.42 1.48-.38-.05-.68-.1-1.01-.14-.14-.53-.28-1.04-.42-1.55l-.21.03c-.03.33-.05.66-.1 1.27-.31-.72-.65-1.04-1.19-1.28-.42-.19-.59-.94-.81-1.33-.56.21-1 .37-1.48.55.03.47.11.91.83.66l.09 1.03c-.08-.08-.16-.2-.25-.21-.14-.02-.29.04-.44.07.1.08.2.2.32.24.07 0 .19-.08.3-.11z"/><path class="st0" d="M23.18 188.21c.09.63.56 1.32-.29 1.73.13.64.24 1.21.36 1.77l.03-.03c-.87.02-.66-.87-1.05-1.25-.23.02-.44.04-.69.06-.02-.17-.07-.31-.03-.39.55-.94.76-1.84.04-2.82-.25-.34-.2-.89-.35-1.33-.24-.69-.5-1.38-.82-2.04-.06-.13-.4-.13-.67-.21.54-.47.36-1.57 1.54-1.39-.19.24-.32.42-.39.5.68.42 1.4.78 2.01 1.28.25.2.25.7.19 1.17l-.75-.66-.12 2.12c.32.49.67 1 1.01 1.52.01 0-.02-.03-.02-.03zM37.5 200.26c.39.44.79.88 1.27 1.41v-.95c1.35.95 2.08 2.29 3.17 3.26 1.09.97 2.04 2.09 3.11 3.2-.29.07-.6.15-.9.23-.67-.49-1.13-1.22-2.01-1.41-.27-.06-.4-.58-.68-.75-.81-.48-1.34-1.15-1.77-1.98-.2-.38-.66-.72-1.08-.88-1.07-.42-1.24-1.19-1.06-2.17-.02.02-.05.04-.05.04zM17.26 123.78c.14-1 .13-1.77.37-2.45.25-.69-.04-1.4.32-2.11.31-.62.16-1.47.21-2.22.01-.08-.02-.21.01-.23 1.03-.5.37-1.51.68-2.24.32-.76.68-1.65.55-2.4-.16-.95.41-1.52.64-2.26.24-.79.52-1.56.99-2.33.02.24.11.49.05.71-.31 1.14-.39 2.32-1 3.4-.4.71-.44 1.63-.61 2.46-.24 1.2-.6 2.38-.56 3.63.01.18-.1.39-.22.54-.39.51-.48 1.07-.37 1.68.11.6-.05 1.15-.27 1.71-.11.27-.21.65-.1.89.27.59-.15.76-.69 1.22zM16.37 156.46c-.23-.69-.45-1.38-.7-2.11-.11-.02-.3-.06-.52-.11.01-.14-.01-.26.02-.36.21-.6.32-1.17-.02-1.77-.17-.3-.23-.68-.34-1.02-.27-.84-.19-.96.92-1.35.18.61.46 1.2.52 1.81.07.7-.18 1.44.45 2.01.05.04.07.16.05.22-.33.85-.26 1.73-.07 2.61-.1.03-.21.05-.31.07zM26.26 187.3H27c-.21-.62-.4-1.17-.6-1.77-.33.07-.58.13-.88.19l-.3-.99c.04-.03.08-.07.12-.1.17.2.34.4.55.65l1.02-.39c.11.31.24.59.29.88.16.88.6 1.86.37 2.63-.35 1.15-.25 2.1.28 3.09.08.15.08.35.13.61-.91-.55-1.82-3.19-1.72-4.8zM198.7 67.26c.34-.54.71-.52 1.18-.49 1.18.07 2.36.02 3.54.02-.16-.05-.33-.1-.59-.18.08-.28.15-.56.28-1.04.25.31.39.48.63.78.32-.07.88.32 1.25-.41.07-.13.69.01 1.11.03-.21.62-.41 1.04-1 1.05-.08 0-.21-.01-.23.02-.6 1.07-1.44.66-2.27.4-.19-.06-.4-.04-.59-.05-1.07-.04-2.14-.08-3.31-.13zM182.51 70.45c-1.2.7-2.89.82-3.77.35-.77.42-.77.42-2.39-.06.64-.7 2.15-.95 2.89-.48.15.09.33.18.5.18.87.02 1.74.01 2.77.01zM158.14 71.92c-.35.14-.71.43-1.04.4-1.03-.11-1.99.46-3.03.18-.4-.11-.86.04-1.3.09-.34.03-.68.08-1.05-.01.6-.59 1.31-.87 2.14-.77.35.04.7.12 1.05.19.44.09.8.01 1.23-.24.61-.35 1.31-.09 1.97-.11.01.08.02.18.03.27zM20.33 179.36c.02 1-.08 1.22-1.11 2.06.25-1.29-1.21-1.48-1.42-2.48 1-.38 1.75.18 2.55.45l-.02-.03z"/><path class="st0" d="M23.21 188.24c.32-.52.72-.7 1.35-.28-.21.37-.55.76-.14 1.23.23.26.09.86.72.76.17-.28-.15-.82.44-.88.06.04.18.08.18.13.06.71.22 1.37.63 1.99.23.35.16.39-.35.91.01-1.04-.52-1.61-1.37-1.96-.23-.09-.38-.39-.54-.61-.32-.43-.63-.87-.94-1.31l.02.02zM33.83 196.77c-.18-.43-.29-.9-.54-1.29-.44-.68-.95-1.31-1.46-1.99.61-.41.91-.08 1.13.21.65.89 1.26 1.81 1.97 2.84l-1.14.19.04.04zM121.08 72.99c-.46.18-.83.44-1.22.46-.78.05-1.58-.02-2.36-.07-.17-.01-.34-.14-.61-.25.56-.49.96-.91 1.71-.54.27.13.69-.01 1.03-.08.52-.12.99-.18 1.45.48zM250.08 150.87c.12.55.25 1.1.37 1.65.07 0 .14 0 .21-.01v-1.68h.15c.26.53.53 1.06.76 1.61.06.13.05.32 0 .46-.1.28-.99.61-1.34.46-.33-.14-.53-.39-.46-.84.08-.54.05-1.09.07-1.64.08 0 .16 0 .24-.01zM140.11 198.75c.42-.05.84-.09 1.27-.14.72-.08 1.43-.44 2.18-.03.17.09.51-.16.77-.17.15 0 .3.19.45.3-.14.15-.28.44-.42.44-1.4.03-2.79.02-4.19.02-.03-.13-.05-.27-.06-.42zM183.44 198.77c1.13-.82 2.13-.52 3.19.09-.27.29-.51.53-.67.71-.55-.06-1.01-.04-1.43-.17-.38-.13-.72-.41-1.09-.63zM248.57 141.58c.09-1-.18-2.01-.05-3.19 1.15.94 1.09 1.96.87 3.15h-.85c-.01 0 .03.04.03.04zM210.23 216.88c-1.05-1-2.36.37-3.5-.35 1.51-.71 3.13-.31 4.72-.4l-1.22.75zM29.4 188.4l.39 1.76c-1.13-.46-.61-1.46-1.17-2.15.65-.04 1.14-.07 1.75-.1-.24.68.92 1.24-.09 2.04-.21-.59-.4-1.12-.59-1.64-.08.03-.19.06-.29.09zM42.51 202.15c-.1-.19-.16-.4-.3-.56-.2-.22-.45-.39-.85-.72.32-.16.53-.27.7-.35-.38-.54-.7-.98-1.02-1.42.95.47 1.89.93 2.24 2.09-.3-.08-.61-.16-1-.27.09.45.16.84.23 1.23zM24.64 162.81c-.12-.36-.29-.71-.34-1.08-.12-.81-.07-1.66-.3-2.44-.13-.46-.48-.82-.14-1.31.54.94 1.23 4.16.78 4.83zM176.58 67.52c1.26-1.24 2.5-.58 3.75-.29-.34.14-.68.4-1.02.41-.82.03-1.64-.06-2.73-.12zM252.65 142.06l.48 5.27c-.61-1.69-.77-3.42-.48-5.27zM16.62 132.35c-.06 1.05-.11 2.09-.18 3.22-.85-.73-.8-2.09.18-3.22zM45.11 210.32c-1.28-.21-1.8-.73-1.74-1.84.41.29.78.49 1.06.78.27.27.42.72.99.39-.09.2-.19.4-.31.67zM210.39 197.5c-1.15.56-2.38.94-3.63 1.25.27-.26.49-.64.81-.76.88-.34 1.81-.58 2.71-.86.03.12.07.25.11.37zM245.21 122.93c.71 1.19 1.08 2.45 1.3 3.76-.1.03-.19.06-.29.08-.18-.67-.32-1.36-.55-2.02-.22-.6-.54-1.16-.46-1.82zM184.77 68.49c-1.19-.15-2.34.67-3.68.18.46-.63 1.07-.5 1.55-.49.72.01 1.42.19 2.13.31zM25.83 182.13c.36.64.6 1.06.8 1.43-.72.04-1.34.07-2.05.1-.15-.81.83-.8 1.25-1.53zM85.78 200.58c.57-.57 1.24-.17 1.86-.23.65-.07 1.3-.16 2.1-.27-.74.61-2.01.74-3.96.5zM13.29 171.23c.13-.74-.24-1.49.52-2.06.24.3.49.62.8 1.02-.6.13-.27 1.21-1.32 1.04zM170.26 68.8c-.7.59-1.31.63-2.66.08.65-.15 1.1-.17 1.46-.35.47-.23.82-.19 1.2.27z"/><path class="st0" d="M33.8 196.73c.05.11.09.22.22.51-.39-.07-.71-.08-.97-.2-.19-.09-.35-.33-.44-.53-.25-.56-.46-1.14-.55-1.77.59.68 1.18 1.36 1.78 2.04-.01-.01-.04-.05-.04-.05zM35.94 199.22c-.41-.56-.83-1.12-1.27-1.72.62.13.74.21 1.58 1.2.43.51.83 1.05 1.25 1.57l.04-.03c-.86.17-1.09-.66-1.6-1.02-.01 0 0 0 0 0zM36.47 207.58c-.26.09-.51.18-.86.3-.23-.82-1.08-.34-1.58-.72.89-.71 1.37-.64 2.04.24.08.1.26.12.4.18-.01 0 0 0 0 0zM37.89 196.65c.39.66 1.27.99.79 1.97-.47-.44-.9-.82-1.37-1.25.19-.24.35-.43.58-.72zM194.32 66.11c1.71-.66 1.71-.66 2.51.02-.88.63-1.71-.17-2.51-.02zM189.07 198.43h3.27c-1.09.19-2.16.78-3.27.31.01-.1.01-.21 0-.31zM118 200.88c-.94.1-1.87.19-2.81.29-.01-.08-.01-.16-.02-.24.94-.21 1.86-.62 2.85-.38-.01.11-.01.22-.02.33zM199.48 201.81c.99-.61 1.74-.14 2.5-.05-.76.18-1.51.99-2.5.05zM32.01 209.73c.83-.13 1.63-.18 2.31.69-.26.12-.52.34-.65.28-.57-.28-1.11-.64-1.66-.97zM175.74 68.74c.58-.33 1.68-.37 2.84-.1-1.03.33-1.88.51-2.84.1zM35.93 199.22c-.49.32-.98.64-1.56 1.01-.21-.43-.35-.72-.57-1.19.83.07 1.48.13 2.13.18.01 0 0 0 0 0zM29.61 196.92c-.91-.17-.98-1.03-1.48-1.51.63-.44.85.16 1.09.4.24.24.26.7.39 1.11zM36.9 209.23c.68.06.93.26 1.38 1.17-1.29-.22-1.32-.25-1.35-1.2l-.03.03zM133.85 199.5l-.05.05c.76-.11 1.53-.23 2.29-.34.02.09.03.18.05.28-.75.17-1.5.35-2.34.54.03-.23.04-.38.05-.53zM35.42 183.88c-.56-.33-1.15-.64-.9-1.47 1.03.1.47 1.09.9 1.47zM39.55 197.22c-.73-.36-1.24-.91-1.64-1.88 1.24.27 1.36 1.14 1.6 1.92l.04-.04z"/><path class="st0" d="M36.46 207.58c.08.23.17.46.23.7.08.31.14.63.2.95l.03-.03c-.7-.08-.7-.09-1.28-.65.28-.32.55-.64.82-.97.01 0 0 0 0 0zM21.38 167.6c.19.63.38 1.25.59 1.96-.61-.43-.94-1.29-.59-1.96zM42.51 202.15c1.1-.08 1.44.9 2.29 1.51-.92-.16-.89-.18-1.28-.62-.3-.34-.67-.6-1.01-.89zM165.37 71.61c.47-.2.78-.34 1.1-.48.31.25.4.54.12.82-.27.26-.54.19-1.22-.34zM196.59 216.64h-2.35c0-.09 0-.17-.01-.26l2.35-.12c.01.12.01.25.01.38zM21.35 150.27c-.12-.59-.24-1.17-.38-1.88.25.06.54.1.55.15.03.58.02 1.16.02 1.74-.07-.01-.13-.01-.19-.01zM20.53 177.34c-.62-.23-1.17-.43-1.85-.67 1.1-.35 1.64-.12 1.85.67zM109.68 201.21l-1.7.09c-.01-.09-.01-.17-.02-.26.54-.28 1.12-.13 1.7-.09 0 .08.01.17.02.26zM226.84 193.39c.66-.95.94-.99 1.92-.26l-1.92.24v.02zM17.67 170.35c-.71-.52-.73-.66-.28-1.56.47.42.48.91.28 1.56zM18.09 172.98c.65.52.73.94.16 1.46-.85-.42-.13-.9-.16-1.46zM140.29 73.9c.63-.07 1.26-.13 1.89-.2-.83.58-1.02.6-1.89.2zM160.55 219.16h-2.15c0-.02-.01-.03-.01-.05.72-.09 1.44-.18 2.16-.28-.01.11-.01.22 0 .33zM215.16 70.92c-.63-.14-1.08-.24-1.69-.37.8-.57.99-.52 1.69.37zM253.93 193.01c-.6.31-.97.5-1.43.73-.03-.54.17-.88.6-1.02.17-.05.41.14.83.29zM181.14 67.42c.15-.61.24-.94.34-1.35.54.27.42.72.39 1.09 0 .07-.34.12-.73.26zM43.11 193.88c.53.22 1.06.46 1.28 1.41-.63-.48-1.06-.81-1.49-1.14l.21-.27zM212.87 91.1c-.62.12-1.02-.05-.97-.77.78-.07.78-.07.94.81-.01-.01.03-.04.03-.04zM21.81 195.88c-.04.63-.07 1.11-.11 1.69-.74-.33-.23-.96-.43-1.35-.01-.02.3-.19.54-.34zM226.54 197.15c.06-.51.14-1 .99-1.16-.27.52-.48.91-.69 1.31l-.3-.15zM20.14 176.07c-.6-.52-.41-1.19-.4-1.82.61.51.12 1.24.4 1.82zM236.19 213.28l1.42-.09c-.42.51-.87.74-1.4.4-.01-.1-.01-.2-.02-.31zM41.02 208.61c-.57.09-1.02.17-1.47.24.58-.62.58-.62 1.47-.24zM37.18 206.22c.44-.21.77-.37 1.2-.58-.46.98-.46.98-1.2.58zM20.37 194.58c.47-.13 1.01-.59 1.32.3-.34.09-.65.18-.99.28-.1-.21-.2-.41-.3-.61l-.03.03zM22.19 179.63c.4.47.85.92.56 1.68-.18-.56-.37-1.12-.56-1.68zM30.13 177.19c-.21-.43-.41-.86-.62-1.29.42.34 1.12.5.62 1.29zM250.56 154.43c.04.76.09 1.51.13 2.27-.07 0-.13.01-.2.01v-2.27c.03-.01.05-.01.07-.01zM38.17 213.76c.74.11.92.32.74.71-.05.1-.25.12-.38.18-.1-.24-.2-.49-.36-.89zM147.78 198.61c.48-.38.95-.57 1.6-.18-.27.1-.36.17-.46.17-.38.02-.76.01-1.14.01zM95.73 199.17c.16.22.32.44.54.76h-1.44c.22-.49.98-.1.91-.76h-.01zM165.77 218.75c-.49-.03-.96.55-1.7-.12.69-.1 1.18-.18 1.67-.25l.03.37zM163.14 69.47c-.53.11-1.07.21-1.82.36.64-.94 1.3-.2 1.82-.36zM248.38 137.94l-.18-1.51c.1-.02.21-.03.31-.05.09.49.17.99.26 1.48-.13.02-.26.05-.39.08zM20.98 180.71c.09.29.19.59.32 1.02-.57-.37-.57-.37-.32-1.02zM257.62 191.81c-.53-.24-.84-.37-1.23-.55.61-.4.61-.4 1.23.55zM198.92 198.39c-.7.3-.7.3-1.28.07.47-.42.88-.2 1.28-.07zM21.03 189.41v-1.6c.23.2.41.28.47.42.09.19-.1.68-.47 1.18zM257.27 100.2c-.17-.53-.35-1.06-.57-1.73.79.64.81.71.57 1.73-.02.02 0 0 0 0zM42.29 193.34c-.4-.42-.68-.71-.95-1 .71.13.71.13.95 1zM256.82 193c.58-.22 1-.39 1.45-.56-.22.7-.7.77-1.45.56zM220.61 197.3c-.36.12-.72.25-1.07.37-.03-.09-.05-.18-.08-.27.37-.07.74-.13 1.12-.2 0 .03.02.07.03.1zM183.12 217.72l1.22-.15c-.31.64-.74.57-1.18.49-.02-.12-.03-.23-.04-.34zM26.73 168.14l-.95-.18c.37-.45.69-.39 1-.15-.01.11-.03.22-.05.33zM159.96 87.96l1.12.06c0 .08.01.15.01.23-.38.04-.75.09-1.13.13v-.42zM36.04 195.24c-.33-.36-.56-.62-.76-.85.45.05.45.05.76.85zM28.74 199.54c.33.4.56.68.89 1.06-.94-.22-.94-.22-.89-1.06zM224.06 214.04c-.36.1-.71.2-1.28.36.4-.78.88-.4 1.2-.65.03.1.06.2.08.29zM222.06 191.88c-.49.03-.9.05-1.31.07.4-.19.79-.81 1.31-.07zM31.43 191.91c.41.31.64.49.95.72-.67.29-.91.11-.95-.72zM187.37 68.66c.34-.23.65-.55 1.15-.22-.35.47-.78.27-1.15.22zM27.25 193.09c-.62-.08-.7-.39-.73-.85.71-.05.58.42.73.85zM20.35 179.39c.18-.34.31-.76.85-.64-.13.78-.13.78-.87.61l.02.03zM28.13 190.61c-.07-.23-.15-.46-.3-.92.62.27.75.49.61.83-.11.03-.21.06-.31.09zM14.42 171.56c.56.48.46.74.18.95-.06.05-.21-.01-.31-.03.03-.25.07-.51.13-.92zM23.4 173.56c-.35.06-.65.11-1.15.19.41-.35.66-.56.96-.82.06.2.11.38.19.63zM103.01 72.88c-.39-.08-.78-.17-1.18-.25l.06-.25c.39.08.78.16 1.18.24l-.06.26zM170.27 84.2c-.27.12-.55.23-.9.38.13-.73.13-.73.9-.38zM31.13 177.24l.59.63c-.75.13-.75.13-.88-.36.1-.1.2-.19.29-.27zM162.95 71.37l-.66.18c-.02-.13-.09-.37-.06-.38.2-.09.42-.13.63-.19.02.13.05.26.09.39zM39.37 206.98c-.34.2-.63.82-1.17.03.44.09.72-.62 1.14.01l.03-.04zM191.4 68.1c.29.03.59.06 1.13.12-.56.48-.86.41-1.15.18.01-.1.02-.2.02-.3zM256.3 196.19c-.26.18-.53.35-.79.53.09-.43.25-.78.68-.78.03.09.07.17.11.25zM41.32 207.72c-.07-.42-.13-.8-.19-1.16.42.45.42.45.19 1.16zM192.6 66.15c-.3.1-.6.21-.9.31l-.06-.26c.31-.06.62-.11.93-.17l.03.12zM253.41 149.03c-.01.26-.03.51-.04.77-.08 0-.15-.01-.23-.01V149l.27.03zM16.83 126.47l.15-.82.22.03v.81c-.12 0-.24-.01-.37-.02zM212.54 197.97h-.82c-.01-.07-.01-.14-.02-.2l.85-.09c0 .1 0 .19-.01.29zM125.54 198.06c.13.16.26.3.25.31-.12.13-.25.24-.4.33-.02.01-.21-.19-.2-.21.09-.14.21-.26.35-.43zM15.12 169.54c.44.2.61.28.79.36-.12.13-.23.26-.35.39-.09-.17-.19-.34-.44-.75zM25.3 201.88c.16.29.32.59.55 1.01-.81-.08-.64-.58-.8-.87.09-.05.17-.1.25-.14zM41.22 208.96c.24.05.48.09.71.14l-.03.23h-.72c.02-.13.03-.25.04-.37zM213.9 90.57c-.27-.08-.54-.17-.81-.25.02-.08.04-.16.06-.23.27.05.54.11.82.16-.03.1-.05.21-.07.32zM197.46 70.53l.9-.12c.02.1.03.2.05.31l-.87.15c-.03-.11-.06-.22-.08-.34zM22.19 179.63l-.21-1.46c.07 0 .14-.01.21-.01v1.47zM208.99 67.26c.23.04.46.07.7.11-.01.08-.03.16-.04.24-.23-.03-.46-.07-.7-.1.02-.08.03-.16.04-.25zM17.84 124.96c-.31.12-.46.24-.59.22-.14-.03-.26-.18-.39-.28.1-.1.19-.26.31-.28.11-.02.25.11.67.34zM23.53 197.9c-.26-.07-.51-.13-.77-.2.02-.08.03-.16.05-.23l.78.12c-.03.1-.04.2-.06.31z"/><path d="M29.84 205.61c-.11.03-.23.11-.32.08-.12-.04-.21-.15-.32-.24.15-.03.3-.09.44-.07.09.01.17.14.25.21.01.01-.05.02-.05.02z"/><path class="st0" d="M39.33 207.02c.31.19.61.39.92.58-.64.18-.83-.15-.89-.62.01 0-.03.04-.03.04zM244.69 178.41c-.07.27-.13.54-.2.8-.08-.01-.16-.03-.24-.04.04-.27.08-.54.11-.82l.33.06zM31.89 187.9c-.1-.17-.2-.35-.33-.56.63-.17.56.16.6.41l-.27.15zM230.75 192.7c-.23.08-.45.15-.68.23-.03-.05-.07-.09-.1-.14.11-.09.22-.2.34-.25.12-.04.27-.01.4-.01.02.05.03.11.04.17zM153.64 196.12c.5-.02 1.01-.05 1.51-.07v.14c-.51-.02-1.02-.05-1.53-.07h.02zM180.91 86.47h.63c0 .05.01.1.01.15-.21.02-.43.05-.64.07-.01-.07 0-.14 0-.22zM182.66 81.24c-.26.05-.51.11-.77.16-.01-.07-.03-.14-.04-.21.26-.03.53-.05.79-.08.01.04.02.09.02.13zM183.16 66.24c.23-.06.46-.11.68-.17.02.07.04.15.07.22-.22.06-.45.11-.67.17-.03-.07-.05-.15-.08-.22zM201.2 66.2c.29.02.57.05.86.07 0 .04 0 .09-.01.13h-.86c.01-.06.01-.13.01-.2zM121.32 71.55h.89c0 .06 0 .12-.01.18-.3-.02-.59-.03-.89-.05.01-.04.01-.08.01-.13zM232.34 192.7c.22-.06.45-.13.67-.19.01.07.03.15.04.22l-.68.12c0-.05-.02-.1-.03-.15zM184.87 66.56a.358.358 0 0 0-.04-.11c-.1-.16-.21-.33-.32-.49.07-.03.14-.05.21-.08.06.19.12.39.17.58.01.03-.02.07-.04.11 0 .01.02-.01.02-.01zM29.84 181.25c-.07-.26-.14-.53-.22-.79.05-.02.11-.03.16-.05.1.26.2.52.29.78-.07.02-.15.04-.23.06zM174.12 199.6c.24-.05.48-.1.72-.14.02.07.03.14.05.21-.24.08-.48.15-.71.23-.02-.11-.04-.21-.06-.3zM39.52 197.25c.4-.06.67.02.67.51-.54.12-.52-.28-.64-.54l-.03.03zM202.41 91.19h.93v.14h-.93v-.14zM178.48 66.3c-.21.07-.34.13-.46.13-.04 0-.13-.19-.11-.24.05-.08.17-.15.27-.15.07 0 .14.12.3.26zM13.98 165.35c.13.08.22.13.32.19-.05.08-.1.22-.15.23-.1.01-.2-.07-.31-.11.04-.1.09-.19.14-.31zM26.18 198.84c.07.14.13.28.19.42 0 .01-.09.05-.13.08-.07-.14-.15-.28-.22-.42.05-.03.11-.06.16-.08zM203.48 198.39c-.22.07-.44.15-.66.22l-.06-.18.6-.24c.04.07.08.14.12.2zM199.5 198.4c.27-.03.41-.05.56-.07-.08.08-.16.17-.26.24-.02.02-.11-.06-.3-.17zM38.89 194.66c.15.12.29.25.44.37-.08.08-.17.16-.25.25-.13-.14-.25-.28-.38-.42.06-.07.12-.13.19-.2zM201.46 193.59c-.28.02-.43.03-.57.03.09-.08.17-.17.27-.23.02-.01.1.07.3.2zM34.68 211.09c.06.13.17.25.14.3-.05.08-.18.15-.27.15-.05 0-.17-.17-.15-.22.03-.08.15-.13.28-.23zM35.65 212.44c-.06.08-.12.18-.14.18-.1-.04-.19-.11-.29-.16.06-.08.12-.16.18-.23.09.06.17.13.25.21zM254.51 192.22c.19-.06.38-.13.56-.19.02.07.05.14.07.21l-.57.18c-.02-.07-.04-.14-.06-.2zM183.68 86.35c-.08-.15-.14-.27-.19-.38.1-.04.22-.13.29-.1.1.05.16.18.23.28-.09.05-.18.11-.33.2zM257.35 199.32c.08.1.15.18.21.26-.09.05-.18.15-.26.14-.08-.01-.15-.13-.23-.2.08-.06.17-.12.28-.2zM111.08 201.19c-.15-.03-.31-.07-.46-.1.01-.06.03-.12.04-.18l.47.09c-.02.06-.04.12-.05.19zM34.56 76.76c-.11.3-.23.58-.7.28.24-.08.49-.16.73-.24 0-.01-.03-.04-.03-.04zM206.45 199.31c-.15.06-.3.12-.44.18-.02-.07-.06-.19-.06-.2.14-.06.29-.1.44-.15.02.06.04.12.06.17zM209.99 199.1c-.17.09-.33.18-.5.27-.03-.05-.07-.1-.1-.15.14-.11.28-.23.42-.34.07.07.13.14.18.22zM144.31 73.63c-.04-.17-.1-.31-.07-.35.09-.09.23-.14.35-.21.03.09.12.22.09.26-.07.1-.21.17-.37.3zM206.34 193c.2-.03.39-.07.59-.1.01.06.02.11.04.17-.19.05-.39.09-.58.14-.02-.08-.03-.15-.05-.21zM162 198.21c-.07.03-.14.05-.2.08l-.09-.24c.07-.01.16-.04.22-.02.04.02.05.12.07.18zM25.08 199.55l.42.39-.18.18-.4-.4c.05-.06.11-.11.16-.17zM187.95 198.6c-.17.1-.27.19-.34.18-.08-.02-.14-.14-.21-.21.06-.04.13-.11.19-.1.09 0 .18.06.36.13zM30.95 191.16c-.06-.17-.12-.33-.17-.5.07-.02.19-.07.21-.05.09.14.15.3.22.45-.09.03-.18.07-.26.1zM174.67 197.17c.14-.09.24-.19.32-.19.08.01.16.12.24.19-.08.07-.16.19-.25.19-.08.01-.17-.1-.31-.19z"/><path d="M144.18 175.86c-.56.73-1.16.05-1.75.03-.23.45-.47.9-.7 1.35 1.22.23 2.15-.92 3.42-.65-.67.38-1.38.69-1.99 1.15-.96.72-2.17.82-3.19 1.39-.51.29-1.01.59-1.51.89l.02.03c.32-.77-.08-1.42-.27-2.24-.59.16-1.12.2-1.54.43-1.19.65-1.7.37-2.77-.88-.3-.35-.42-.87-1.12-.82.02.54-.42 1.02-.49 1.44-.12.71-.78.72-.93 1.29-1.61-.82-2.95-.42-4.17.66l.04-.03c-.47.22-.95.43-1.47.67-.02-.3-.05-.64-.07-.99-.04-.77-.11-.83-.82-.68-.19.04-.39.09-.58.11-.92.08-1.61.42-1.69 1.52-.28-.02-.52-.05-.88-.08-.03.45-.06.86-.09 1.32-.35.23-.73.49-1.1.74-.33-.28-.62-.53-.88-.75.09-.45.35-1.02.28-1.54-.38-2.92-.43-5.86-.64-8.79-.1-1.42-.21-2.86-.51-4.26-.36-1.74-.94-3.43-1.38-5.15-.52-2-1.04-4-1.49-6.02-.29-1.28-.47-2.59-.68-3.89-.07-.42-.06-.86.1-1.35.15.32.3.63.47.98.37-.62.37-.62-.09-2.03-.28.03-.58.06-.89.09-.06-.1-.14-.19-.17-.29-.36-1.3-.81-2.58-1.02-3.9-.13-.8-.39-1.52-.61-2.27-.23-.74-.26-1.55-.39-2.41.59.05.54.44.66.8.12.36.44.64.67.96l-.02-.04c.07 1.28.41 2.5.83 3.88.55-.75-.68-1.97.76-2.16-.04.56-.11 1.11-.1 1.66 0 .19.21.53.35.54.39.04.39.21.41.54.02.36.22.71.36 1.09-.05.41-.16.89-.15 1.36.04 1.27.18 2.53.71 3.73.16.35.09.81.14 1.43.02.01.24.16.48.31-.19 1.08.52 1.89.93 3.09.06-.57.09-.88.13-1.27.63.5.72 1.1.45 1.66-.23.49-.16.89-.03 1.37.15.55.53 1.15-.1 1.67.16.54.79.96.3 1.62-.08.11.15.48.27.72.28.55.82 1.1.81 1.64-.01.56.37 1.11.06 1.69-.09.17.02.45.03.66.87.42.96-.3 1.22-.75.45-.03.78.13.72.58-.08.61-.27 1.21-.42 1.82-.77.21-.86-.44-1.11-1.17-.42 1.54-.14 2.79.12 4.07-.34.14-.65.27-1.14.46.4.21.72.28.88.48.18.23.21.58.33.95-.24.08-.41.14-.67.23.21.71.9 1.21.86 2.07-.04.76.2 1.54.42 2.3.01-1.97-.22-3.93.2-6.01-.78-.58-.61-1.52-.57-2.45.96-.02.93.64.97 1.22.1 1.59.18 3.17.26 4.75.65.06.81-.33.81-.79.01-1.29.3-2.6-.32-3.86-.16-.33-.08-.78-.1-1.18-.04-1.03-.03-2.07-.11-3.1-.09-1.02-.25-2.04-.42-3.05-.24-1.45-.49-2.91-.79-4.35-.17-.82-.46-1.61-.66-2.42-.57-2.36-1.15-4.72-1.68-7.08-.13-.56-.36-1.16-.01-1.74-.65-.65-.53-1.54-.74-2.32-.63-2.31-1.23-4.62-1.82-6.93-.12-.48-.13-.98-.23-1.72.47.49.74.78 1.18 1.24.12-2.58-.73-4.77-1.08-7.09-.06.17-.19.35-.18.52.03.43.11.85.17 1.27-.27.05-.46.08-.69.12-.04-.08-.13-.22-.15-.37-.28-1.89-.56-3.78-.8-5.67-.04-.33.06-.67.11-1.01.07-.56-.32-1-.42-1.51-.22-1.17-.44-2.34-.66-3.49.53-.4.97-.47 1.52-.32.56.15 1.1.02 1.35-.61.57.39.9 1.18 1.77.75.17-.85-.74-1.65-.01-2.66.27.36.51.67.84 1.09.28-.92.87-1.74.29-2.63-.43-.66-.48-1.58-1.37-1.96-.24-.1-.35-.5-.51-.75h-1.73c.04-.27.08-.52.14-.92-.59-.1-1.18-.19-1.88-.31.41-.61.76-1.21 1.7-1.46-1.1-.47-2.06-.75-2.86-1.27-.42-.27-.58-.95-.9-1.52.36-.11.65-.19 1.08-.32-.54-.44-1.02-.83-1.49-1.21.04-.07.08-.14.12-.22h1.1l.12-.21-.72-.63c-.21-.18-.42-.35-.84-.7 1.25-.12 1.9.61 2.81.85.05-.42.1-.83.16-1.28.21.11.46.35.59.29.63-.25 1.22-.34 1.94-.3 1.09.06 1.85.23 2.45 1.2.47.76 1.19.65 1.91.59-.01.17-.03.34-.04.51l.42-.27c-.14-.06-.28-.13-.43-.19.06-.19.12-.37.18-.56.26.06.52.12.79.17-.02-.25-.02-.51-.06-.75-.07-.42-.17-.83-.05-1.35.23.39.5.76.69 1.17.22.48.4.85 1.06.58.3-.12.69-.02 1.11-.02.03-.43.05-.8.07-1.18.54-.08 1.02-.15 1.58-.24.02-.19.03-.41.05-.66 1.18-.45 2.37-.9 3.65-1.39-.37-.44-.64-.77-.98-1.18.44.03.81.05 1.27.08-.05-.38-.1-.67-.15-1.06.53-.1 1.04-.19 1.63-.3.18-.37.39-.83.64-1.35 1.09-.43 2.21-.46 3.21.5.86-.95 1.68-.48 2.58.2.04-.83-.54-.93-.94-1.16-.48-.27-1.01-.46-1.49-.74-.17-.1-.25-.34-.51-.72.95.26 1.49 1.13 2.34.65.29 1.31 2.07 1.77 2.91 1.51.42.28.72.65.96.61 1.04-.17 1.78.43 2.61.83 2.51 1.2 5.01 2.41 7.52 3.59.27.13.6.12.97.18-.07.3-.13.55-.18.76.08.07.12.12.13.12.52-.31.85-.04 1.31.23.46.27 1.1.22 1.72.32-.02.27-.06.45-.05.63.01.45.22.78.63.39.39-.37.69-.12.97.01.82.38 1.6.84 2.42 1.23.57.27 1.18.45 1.77.68.26.1.52.18.78.29.7.28 1.39.56 2.09.84l.03.03c.34-.37.72-.29 1.08-.07.65.37 1.29.77 2.07 1.23-.67.32-.82.73-.6 1.36 1.46.55 2.98 1.11 4.5 1.68.03-.06.05-.11.08-.17-.66-.4-1.33-.8-2.21-1.34.76-.11 1.23-.07 1.69.17 1.09.58 2.2 1.13 3.27 1.74 1.66.94 3.3 1.92 4.93 2.91.24.15.39.44.53.61.55.29 1.08.53 1.56.84 1.35.84 2.7 1.69 4.04 2.57.9.59 1.77 1.21 2.64 1.84.92.67 1.82 1.37 2.73 2.05-.04.24-.07.45-.11.65.42.28 1.01-.29 1.26.48.09.27.84.26 1.2.51 1.36.97 2.67 2 4.01 2.99.4.3.86.52 1.43.87-.35.21-.54.33-.82.49.48.45.77.9 1.53.82.64-.06 1.94 1.24 2 1.86.02.18-.14.46-.3.57-.21.16-.51.2-.77.29-.11.33-.23.66-.35 1.03.85-.23.85-.23 1.3-1.1.24.19.46.36.7.55-.39.29-.7.51-1.2.87.59.24.99.4 1.45.59-.03.17-.08.43-.12.63-1.06.38-2.09.76-3.12 1.12.2-.25.48-.47.05-.83l-.03.82c.37.17.73.35 1.09.52 0 .12-.04.35.01.55.13.52.15.52-.54.39-.31.14-.83-.69-.97.26.34-.09.66-.17.98-.26.11.76.23 1.52.33 2.23-.37.27-.64.47-1.01.75.29.14.48.23.68.32l-.04-.05c.16.52.33 1.04.51 1.63h-.59c-.02.08-.07.18-.04.23.16.27.32.55.52.79.66.77.65.82-.36 1.13-.06.94.76 1.51.88 2.48-.6-.41-1.18-.84-1.79-1.22-.3-.19-.65-.29-.98-.44l-.15.24c.13.14.29.27.39.43s.13.37.22.66c-1.39-.71-2.53-.12-3.79.17.51.22.51.22 1.81 0 .21.32.42.64.66 1.01-.23.39-.47.79-.73 1.23-.16-.2-.3-.36-.47-.56-.58.41-1.13.87-1.74 1.19-.47.24-1.03.31-1.54.47-.19.06-.36.17-.54.27-.45.25-.9.5-1.41.79-.16-.12-.35-.24-.53-.38-.39-.31-.7-.17-.87.22-.51 1.19-1.54 1.27-2.56 1.13-.45-.06-.77.04-.92.3-.52.88-1.2 1.24-2.2 1.01-.14-.03-.35.01-.45.1-1.36 1.21-3.18 1.46-4.74 2.26-.31.16-.71.22-1.05.19-.61-.04-1.05.17-1.51.55-.31.25-.79.3-1.19.44-.25.09-.52.16-.76.27-2.11.99-4.21 2-6.32 2.99-.81.38-1.65.7-2.41 1.27.26-.03.52-.07.78-.1.03.05.06.1.09.14-.37.24-.73.48-1.17.76-.19-.26-.34-.47-.57-.78-1.22.63-2.45 1.26-3.76 1.94-.41-.24-.84-1.04-1.52-.13.26.07.47.12.74.18-.49.45-.78 1.05-1.55.94-.15-.02-.42.17-.47.31-.29.87-1.02.83-1.72.95-.37.06-.83.18-1.06.45-1.37 1.62-3.1 2.61-5.1 3.2-.48.14-.86.51-1.44.54-.29.02-.54.59-.83.94-1.6-.02-2.73 1.26-4.24 1.58v.26c.32.06.63.12.95.19l-.1-.08zm-11.29-48.95c.33.34.33.34.8.08-.28-.01-.55-.03-.83-.04-.12-.35-.25-.7-.42-1.2-.36.43-.59.7-.85 1.01.5.06.9.11 1.3.15zm-14.1-1.88c-.62.56-.53 1-.46 1.42.14.81.36 1.6.44 2.41.12 1.22.17 2.43.35 3.65.36 2.57.98 5.07 1.76 7.54.07.23.17.45.31.81.09-.57.3-1 .19-1.33-.46-1.37-.23-2.82-.59-4.22-.5-1.94-.63-3.98-.86-5.99-.06-.55-.13-1-.78-1.15.73-.76.52-1.49.21-2.3-.25.11-.44.19-.76.32.06-.36.1-.63.19-1.16zm17.4.2c-.2.83-1.49.99-1.02 2.26.77-.09 1.62-.06 2.35-.34.34-.13.52-.83.64-1.31.1-.42.02-.89.02-1.46-.43 1.23-.66 1.32-1.99.85zm-19.26 31.54c.08-.02.16-.04.24-.05.02-.11.09-.24.05-.32-.39-.96-.66-1.94-.68-2.99-.01-.35-.23-.69-.36-1.04-.09.03-.17.06-.26.09.19 1.48.24 2.98 1.01 4.31zm15.12-32.44c-.91.49-1.91-.26-2.48.75.63 1.05 1.5.19 2.27.38l.21-1.13zm-9.35 54.28c.79-.15 1.68-.1 1.68-1.17-.38-.16-.73-.3-1.12-.47-.45.43-.97.83-.56 1.64zm.87-30.73c-.06-1.27-.38-2.33-.89-3.04-.36 1.03.09 1.94.38 2.86.03.09.31.11.51.18zm3.54 21.93.33.03c-.12-1.7-.23-3.41-.35-5.11-.06 0-.12.01-.19.01.08 1.69.14 3.38.21 5.07zm15.38-14.08c.05.1.11.2.16.29.43-.02.85-.04 1.34-.07-.14-.65-.39-1.05-.89-.95-.24.05-.41.48-.61.73zm14.36-13c.65 1.16.65 1.16 1.74.6-.69.07-.8-1.39-1.74-.6zm-23.91-16.57c.34.31.71.65 1.07.14.1-.15-.07-.72-.24-.78-.51-.2-.82.08-.83.64zm-6.46 35.44c.31-.75.16-1.24-.37-1.47-.3-.13-.7.01-.78.61.76-.35.82.32 1.15.86zm-4.63-17.99.35-.09c-.21-.56.16-1.33-.85-1.76.19.7.34 1.27.5 1.85zm22.58 5.47.63.51c-.38.54-.39.62-.15.95.61-1.07.58-1.19-.48-1.46zm7.52-13.82c-.07.07-.14.15-.21.22.64.41 1.28.83 1.94 1.26.06-.16.12-.28.11-.29-.62-.4-1.23-.79-1.84-1.19zm22.73-19.11c.05-.09.09-.17.14-.26-.66-.35-1.32-.7-1.98-1.04l-.12.24c.65.35 1.3.71 1.96 1.06zm-53.66 12.84c-.11 0-.21 0-.32.01.2.55-.28 1.2.41 1.92-.04-.8-.06-1.37-.09-1.93zm23.16 28.11c.93-.38.93-.38.79-1.03-.61.31-.61.31-.79 1.03zm-24.54-8.96c.12-.02.24-.05.35-.07.21-.56-.04-.98-.6-1.34.09.47.17.94.25 1.41zm16.08-25.84c-.04.07-.07.15-.11.22.25.19.19.79.73.56.12-.05.16-.29.24-.44-.29-.11-.58-.23-.86-.34zm.4 2.31h-1.2c.1.34.29.6.46.58.2-.02.38-.28.74-.58zm-12.03 20.84c.06 0 .13 0 .19-.01-.13-.57-.27-1.13-.4-1.7-.09.02-.18.05-.27.07l.48 1.64zm2.1 33.88c.04.11.08.22.12.32.45.05.79-.13.96-.7-.36.13-.72.26-1.08.38zm14.05-25.32c.62.18.98.29 1.42.42-.32-.49-.55-.94-1.42-.42zM121 179.88c-.34.61-.34.61-.04 1.06.42-.34.08-.7.04-1.06zm35.7-37.87c-.57-.3-.57-.3-.81.58.33-.24.55-.4.81-.58zm-7.19-4.6c.62.29.69-.01.66-.54-.28.23-.47.39-.66.54zm-29.17 11.97c-.36.47-.36.47.05.89-.02-.33-.03-.56-.05-.89zm-3.93-17.95c.09-.01.17-.01.26-.02-.05-.35-.1-.7-.14-1.06-.04 0-.08.01-.11.01-.01.37-.01.72-.01 1.07zm58.82-14.71c.01.09.01.19.02.28h.58c-.01-.11-.01-.3-.02-.3-.2-.01-.39.01-.58.02zm-13.82 26.15c.24.28.31.43.43.48.12.06.29.04.43.06.01-.06.03-.11.04-.17-.23-.1-.45-.19-.9-.37zm-35.85 12.54c-.26-.18-.39-.28-.54-.35-.02-.01-.18.17-.16.23.04.13.12.29.24.35.06.03.22-.11.46-.23zm-9.37-25.95.18-.06c-.04-.29-.09-.59-.13-.88-.02 0-.03.01-.05.01v.93zm25.54 20.5c-.13-.09-.22-.2-.3-.19-.09.01-.16.13-.24.2.08.08.15.21.24.22.08.01.17-.12.3-.23zm-.76-2.18c-.06.05-.12.09-.18.14.11.14.22.28.34.41.01.01.12-.07.18-.11-.11-.15-.22-.29-.34-.44zm-16.27-1.07c-.18-.18-.27-.3-.39-.35-.05-.02-.24.1-.24.15 0 .13.08.26.13.39.13-.05.26-.1.5-.19zm9.52-23.08c-.07.07-.15.14-.22.21.15.14.29.28.44.42.05-.05.1-.1.15-.14l-.37-.49zm34.28-8.37.15-.18c-.14-.11-.28-.22-.42-.34-.04.05-.09.1-.13.15.14.12.27.25.4.37zm-39.91 62.86c-.09.11-.22.2-.2.26.02.09.14.19.23.2.06.01.2-.13.2-.19-.01-.08-.13-.16-.23-.27zm27.64-39.56c.03-.07.06-.15.09-.22-.15-.03-.29-.05-.44-.08-.01.05-.02.09-.04.14.13.05.26.11.39.16zm-32.62-30.4c-.05.07-.1.15-.15.22.14.08.27.17.42.24.01 0 .11-.15.1-.15-.11-.11-.24-.21-.37-.31zm13.48 17.05.18-.09c-.06-.15-.13-.3-.19-.45l-.27.12c.09.14.18.28.28.42zm6.65 23.08c-.19-.11-.31-.23-.36-.21-.12.06-.22.18-.32.28.08.06.18.17.25.16.12-.03.23-.12.43-.23zM111.38 132.15c-.12-2.33-1.08-4.53-.82-6.94.1.17.26.33.29.51.17.93.31 1.87.46 2.81.12.78.22 1.56.36 2.34.11.59.13.59-.29 1.28zM204.02 92.55c.41.06.82.12 1.23.17.47.06.93.15 1.4.13.61-.03 1.04.19 1.43.66-.78.23-2.99-.18-4.06-.96zM239.45 112.16c-.36-.65-.72-1.29-1.08-1.95-.09-.17-.16-.35-.25-.56.43-.28.73-.1.95.17.16.2.17.52.3.75.13.23.36.41.49.64.13.23.18.5.29.85-.29.03-.51.06-.72.08l.02.02z"/><path d="M113.93 142.68v-1.72c.22.02.44.03.68.05.13.57.31 1.09.34 1.62.02.27-.24.55-.46.99-.25-.42-.42-.69-.59-.97.01-.01.03.03.03.03zM229.6 96.14c.89.71 1.3 1.56 1.57 2.69-.31-.12-.58-.14-.61-.24-.25-.81-1.25-1.29-.96-2.45zM239.43 112.16c1.19.65 1.19.65 1.81 2.67-.95-.77-1.83-1.4-1.79-2.67h-.02zM138.48 180c-.31.18-.61.36-.91.53-.24-.21-.42-.45-.66-.56-.21-.09-.5-.02-.75-.02-.03-.09-.06-.19-.09-.28.45-.23.89-.47 1.33-.7.39.37.74.71 1.1 1.04-.01.02-.02-.01-.02-.01zM116.22 141.24c.21 1.41 1.17 2.64.99 4.15-.33-1.39-1.16-2.65-.99-4.15zM127.18 179.92c.5-.09 1-.19 1.55-.29.21.22.16.52-.19.55-.87.08-1.42.57-1.88 1.24-.07.11-.25.14-.51.26.02-.91.63-1.31 1.07-1.8l-.04.04zM124.64 196.98c1.32-.14 2.63-.27 3.95-.41l.03.29-3.95.36-.03-.24zM179.06 193.12c.78.11 1.55.22 2.51.36-1.25.58-1.67.53-2.51-.36zM112.73 138.47c-.23-.19-.61-.35-.66-.58-.17-.84-.23-1.71-.35-2.71.5.54.87 1.89.85 2.69 0 .2.1.4.16.6zM120.5 158.47c-.75-.57-1.04-1.37-.87-2.67.15.43.31.85.45 1.29.14.42.26.85.42 1.38zM112.36 132.62v-2.01c.6.81.61 1 0 2.01zM121.6 164.33c.15.7.3 1.4.46 2.09l-.32.06c-.43-.63-.16-1.41-.14-2.15zM112.84 133.39c.37.78.37 1.42.04 2.08.14-.64-.69-1.26-.04-2.08zM116.07 135.39c.87.52.87.52.3 1.55-.09-.48-.18-.96-.3-1.55zM113.1 126.98c-.21-.62-.38-1.13-.55-1.63.05-.03.1-.07.14-.1.26.25.52.49.82.78-.11.26-.24.56-.41.95zM112.73 138.47l.25 1.97c-.81-.55-.83-.9-.25-1.97zM164.8 110.36l-.03-.03c-.44-.37-.89-.74-1.34-1.13.86.2.97.3 1.37 1.16zM144.21 175.89c.08-.16.12-.38.26-.46.4-.24.83-.41 1.39-.68-.38.85-1.11.86-1.68 1.11l.03.03zM107.8 198.75l1.39.09c-.52.33-1.02.52-1.5.26.04-.11.08-.23.11-.35zM199.75 143.7l.04.05c.05-.12.12-.35.14-.35.33.07.65.17 1.06.3-.52.57-.88.3-1.24 0zM235.29 107.55l.42 1.36c-.63-.47-.63-.47-.42-1.36zM73.66 195.73c-.31-.12-.62-.24-1.13-.44.87-.24.87-.24 1.13.44zM147.69 196.33c.32-.17.63-.47 1.19.07-.49.1-.81.17-1.14.24-.01-.1-.03-.2-.05-.31zM221.14 190.22l-1.17.24c.3-.56.74-.38 1.12-.47.02.07.04.15.05.23zM177.94 193.68c-.32.08-.64.16-.97.24.36-.46.36-.46.97-.24zM248.44 162.16c-.14-.45-.23-.72-.31-1 .15-.05.25-.11.29-.08.31.23.46.5.02 1.08zM248.33 169.02c.09-.36.18-.71.26-1.07.04.01.09.01.13.02-.05.36-.1.73-.14 1.09-.08-.01-.17-.03-.25-.04zM167.44 165.07l.87-.33c.02.05.04.11.06.16l-.87.33c-.02-.06-.04-.11-.06-.16zM139.85 98.6c-.41.07-.74-.01-.97-.51.58-.14.99-.19.95.53l.02-.02zM113.18 136.45c.04.33.08.65.13.98l-.16.03c-.05-.33-.11-.65-.16-.98.06-.01.12-.02.19-.03zM223.77 89.34c.09.15.18.29.27.44-.09.04-.18.09-.28.13-.07-.16-.13-.32-.2-.48a.95.95 0 0 0 .21-.09zM139.28 197.24c-.24.02-.48.05-.72.07-.02-.08-.03-.17-.05-.25.23-.06.46-.12.7-.19.02.12.04.24.07.37zM231.95 97.87l-.41-.47.15-.15c.16.14.32.28.47.42-.07.07-.14.13-.21.2zM121.36 104.22c-.14-.23-.27-.46-.41-.69.07-.04.14-.08.2-.12.14.23.29.45.43.68-.08.05-.15.09-.22.13z"/><path d="M139.83 98.62c.32.12.64.23.95.35-.63.42-.77.01-.93-.38 0 .01-.02.03-.02.03zM246.25 163.3c.02-.16.05-.32.07-.49.09.03.18.06.27.08-.05.15-.09.3-.14.45-.06-.01-.13-.02-.2-.04zM115.69 142.67l-.33-.78c.06-.03.11-.05.17-.08.11.25.21.5.32.75-.05.04-.11.07-.16.11zM166 165.5c.19-.06.38-.12.58-.18.02.04.04.09.06.13-.17.1-.34.21-.52.31a6.52 6.52 0 0 0-.12-.26z"/><path class="st0" d="M121.56 107.43c.14.06.28.13.43.19l-.42.27c.01-.17.03-.34.04-.51l-.05.05z"/><path d="M203.5 139.38c-.2-.16-.4-.32-.59-.48.03-.05.07-.1.1-.16.22.15.43.3.65.46-.05.06-.11.12-.16.18zM121.17 162.72c.1.13.21.2.21.29 0 .08-.1.16-.16.24-.07-.07-.19-.14-.21-.22-.01-.07.09-.17.16-.31zM249.26 162.66c-.07.15-.13.3-.22.44-.01.01-.12-.03-.18-.05.06-.16.12-.32.17-.48.08.03.16.06.23.09zM123.38 179.78c.14-.06.29-.11.43-.17.02.04.03.08.05.12-.14.06-.29.11-.43.17-.02-.04-.03-.08-.05-.12zM242.25 117.45c-.04-.14-.07-.28-.11-.42.04-.01.08-.03.12-.04.07.12.14.24.21.35-.08.04-.15.07-.22.11zM238.06 108.86c-.09-.1-.15-.16-.21-.23.08-.06.16-.13.25-.16.05-.01.12.06.18.1-.06.08-.12.16-.22.29zM250.34 145.03c-.38.14-.67.1-.83-.59.37.29.58.45.8.61.01 0 .03-.02.03-.02zM233.96 100.25c.14.15.29.29.43.44l-.22.22c-.14-.15-.27-.31-.41-.46l.2-.2zM249.05 146.52c.08.16.14.24.15.33.01.06-.05.13-.08.2-.08-.05-.23-.1-.24-.16-.01-.09.08-.19.17-.37z"/><path class="st0" d="M118.79 125.03c-.09.53-.13.8-.2 1.18.31-.13.51-.22.76-.32.3.8.51 1.53-.21 2.3.65.15.71.6.78 1.15.23 2.01.36 4.05.86 5.99.36 1.41.13 2.85.59 4.22.11.33-.1.76-.19 1.33-.14-.36-.23-.58-.31-.81-.78-2.47-1.39-4.97-1.76-7.54-.17-1.22-.22-2.44-.35-3.65-.08-.81-.3-1.61-.44-2.41-.06-.44-.15-.88.47-1.44zM136.19 125.23c1.33.48 1.55.38 1.99-.85 0 .57.08 1.04-.02 1.46-.12.48-.3 1.18-.64 1.31-.73.28-1.58.25-2.35.34-.47-1.28.82-1.43 1.02-2.26zM116.93 156.77c-.77-1.34-.82-2.84-1.01-4.31.09-.03.17-.06.26-.09.13.35.35.69.36 1.04.02 1.05.29 2.03.68 2.99.04.09-.03.21-.05.32-.08.02-.16.04-.24.05zM132.05 124.33l-.21 1.13c-.76-.19-1.64.67-2.27-.38.58-1.01 1.58-.27 2.48-.75zM122.7 178.61c-.41-.81.11-1.21.56-1.64.39.16.74.31 1.12.47 0 1.07-.89 1.02-1.68 1.17zM123.57 147.88c-.2-.07-.48-.09-.51-.18-.29-.92-.75-1.83-.38-2.86.51.71.83 1.77.89 3.04zM127.11 169.81c-.07-1.69-.13-3.38-.2-5.07.06 0 .12-.01.19-.01.12 1.7.23 3.41.35 5.11l-.34-.03zM142.49 155.73c.2-.25.37-.68.61-.72.5-.1.75.3.89.95-.49.02-.91.05-1.34.07-.05-.1-.1-.2-.16-.3zM156.85 142.73c.94-.79 1.05.67 1.74.6-1.09.56-1.09.56-1.74-.6zM132.94 126.16c.01-.57.32-.84.84-.64.17.06.34.64.24.78-.37.52-.75.18-1.08-.14zM126.48 161.6c-.33-.55-.39-1.21-1.15-.86.09-.6.48-.74.78-.61.53.23.68.72.37 1.47zM121.85 143.61c-.15-.57-.31-1.14-.5-1.85 1.01.42.64 1.19.85 1.76-.12.03-.24.06-.35.09zM144.43 149.08c1.06.26 1.09.39.48 1.46-.24-.33-.23-.41.15-.95l-.63-.51zM151.95 135.26c.61.39 1.23.78 1.84 1.18.01.01-.05.13-.11.29-.66-.43-1.3-.84-1.94-1.26.07-.06.14-.13.21-.21zM174.68 116.15c-.66-.36-1.31-.71-1.97-1.07l.12-.24c.66.35 1.32.7 1.98 1.04-.04.1-.09.18-.13.27zM121.02 128.99c.03.57.05 1.13.09 1.93-.68-.72-.21-1.36-.41-1.92.11-.01.21-.01.32-.01zM144.18 157.1c.18-.72.18-.72.79-1.03.14.65.14.65-.79 1.03zM119.64 148.14c-.08-.47-.16-.94-.25-1.41.56.36.81.78.6 1.34-.11.03-.23.05-.35.07zM135.72 122.3c.29.12.57.23.86.35-.08.15-.12.39-.24.44-.54.23-.48-.37-.73-.56.03-.09.07-.16.11-.23zM136.12 124.61c-.36.3-.54.56-.74.58-.17.02-.36-.24-.46-.58h1.2zM132.89 126.92c-.4-.05-.81-.09-1.3-.15.26-.31.49-.58.85-1.01.18.5.3.85.42 1.2l.03-.04zM124.09 145.45l-.48-1.63c.09-.02.18-.05.27-.07.13.57.27 1.13.4 1.7a.605.605 0 0 0-.19 0zM126.19 179.33c.36-.13.72-.25 1.08-.38-.17.57-.51.76-.96.7-.03-.1-.08-.21-.12-.32zM140.24 154.01c.88-.52 1.11-.06 1.42.42-.44-.14-.8-.24-1.42-.42zM121 179.88c.04.36.37.72-.04 1.06-.3-.44-.3-.44.04-1.06zM156.7 142.01c-.25.18-.48.34-.81.58.24-.88.24-.88.81-.58zM149.51 137.41c.19-.16.38-.31.66-.54.02.54-.04.83-.66.54zM120.34 149.38c.02.33.03.56.05.89-.4-.42-.4-.42-.05-.89z"/><path class="st0" d="M132.86 126.95c.28.01.55.03.83.04-.47.26-.47.26-.8-.08 0 .01-.03.04-.03.04zM199.79 140.46c-.32.08-.65.17-.98.26.14-.95.66-.12.97-.26h.01zM116.41 131.43v-1.06c.04 0 .08-.01.11-.01.05.35.1.7.14 1.06-.08 0-.17.01-.25.01zM175.23 116.72c.19-.01.38-.03.57-.02.01 0 .02.2.02.3h-.58c0-.09-.01-.19-.01-.28zM161.41 142.87c.45.18.67.28.9.37-.01.06-.03.11-.04.17-.15-.02-.31 0-.43-.06-.11-.06-.19-.2-.43-.48zM125.56 155.41c-.24.12-.4.26-.46.23-.11-.06-.2-.22-.24-.35-.02-.06.15-.24.16-.23.15.07.28.17.54.35zM116.19 129.46v-.93c.02 0 .03-.01.05-.01.04.29.09.59.13.88l-.18.06zM141.73 149.96c-.13.11-.23.23-.3.22-.09-.01-.16-.14-.24-.22.08-.07.16-.19.24-.2.08 0 .17.12.3.2zM140.97 147.78c.11.15.23.3.34.44-.06.04-.17.12-.18.11-.12-.13-.23-.27-.34-.41.06-.05.12-.09.18-.14zM124.7 146.71c-.24.09-.37.14-.5.19-.05-.13-.13-.26-.13-.39 0-.05.19-.17.24-.15.12.05.21.17.39.35zM134.22 123.63c.12.16.25.32.37.49-.05.05-.1.1-.15.14-.15-.14-.29-.28-.44-.42.07-.07.15-.14.22-.21zM168.5 115.26c-.13-.12-.26-.25-.4-.37.04-.05.09-.1.13-.15.14.11.28.22.42.34l-.15.18zM128.59 178.12c.1.11.22.19.22.28.01.06-.14.2-.2.19-.09-.01-.21-.12-.23-.2-.01-.07.12-.16.21-.27zM156.23 138.56c-.13-.05-.26-.11-.39-.16.01-.05.02-.09.04-.14.15.03.29.05.44.08-.04.07-.07.15-.09.22zM123.61 108.16c.12.1.25.2.37.31.01.01-.09.16-.1.15-.14-.07-.28-.16-.42-.24.05-.07.1-.14.15-.22zM137.09 125.21c-.09-.14-.18-.28-.28-.43l.27-.12c.06.15.13.3.19.45-.06.04-.12.07-.18.1zM199.23 138.99l.03-.82c.42.36.15.59-.05.83-.01.01.02-.01.02-.01zM143.74 148.29c-.2.11-.31.21-.43.23-.07.01-.16-.1-.25-.16.11-.1.2-.22.32-.28.05-.02.17.09.36.21z"/></svg>