<?xml version="1.0" encoding="utf-8"?>
<!-- Generator: Adobe Illustrator 26.5.0, SVG Export Plug-In . SVG Version: 6.00 Build 0)  -->
<svg version="1.1" id="Vrstva_1" xmlns="http://www.w3.org/2000/svg" xmlns:xlink="http://www.w3.org/1999/xlink" x="0px" y="0px"
	 viewBox="0 0 252.48 415.68" style="enable-background:new 0 0 252.48 415.68;" xml:space="preserve">
<style type="text/css">
	.st0{fill:#FFFFFF;}
</style>
<g>
	<path d="M149.26,94.54c0.35,0.15,0.73,0.26,1.05,0.46c0.66,0.43,1.3,0.91,1.89,1.33c1.17-0.33,1.96-0.95,2.48-1.92
		c0.04-0.07,0.09-0.13,0.13-0.2c1.77-3.21,3.53-6.44,5.33-9.64c0.8-1.42,1.71-2.79,2.5-4.21c0.48-0.87,0.82-1.82,1.27-2.71
		c0.53-1.03,1.06-2.06,1.69-3.02c0.87-1.33,1.8-2.62,2.77-3.88c0.78-1.01,1.75-1.88,2.45-2.93c0.63-0.94,1.52-1.63,2.18-2.49
		c1.78-2.31,4.47-3.26,6.72-4.84c0.62-0.44,1.25-0.87,1.92-1.22c0.56-0.29,1.17-0.49,1.77-0.66c0.19-0.06,0.45,0.05,0.66,0.13
		c0.25,0.09,0.49,0.31,0.73,0.32c0.63,0.01,1.09,0.33,1.42,0.78c0.51,0.7,1.15,0.98,1.96,0.85c0.59-0.1,0.88,0.21,1.29,0.59
		c1.28,1.17,1.7,2.84,2.73,4.25c-0.68,0.36-0.37,0.81-0.23,1.33c0.7,2.49,1.39,4.98,1.98,7.49c0.24,1.01,0.13,2.11,0.32,3.14
		c0.16,0.87,0.53,1.71,0.8,2.56c0.09,0.29,0.23,0.6,0.21,0.89c-0.16,2.27,0.11,4.53,0.15,6.79c0.04,2.03,0.08,4.08-0.15,6.09
		c-0.28,2.4-1.25,4.6-2.52,6.66c-0.08,0.13-0.21,0.29-0.34,0.31c-0.67,0.12-0.83,0.59-1.03,1.15c-0.21,0.57-0.59,1.09-0.98,1.57
		c-1.79,2.23-2.65,4.97-4.06,7.41c-0.63,1.1-1.39,2.13-2.1,3.18c-0.22,0.33-0.51,0.62-0.72,0.95c-0.41,0.68-0.8,1.36-1.81,1.19
		c0.13,1.45-0.43,2.54-1.36,3.47c-0.86,0.86-1.52,1.8-1.88,3c-0.45,1.48-1.33,2.82-1.43,4.42c-0.01,0.15-0.13,0.28-0.21,0.42
		c-0.61,1.14-1.02,2.33-0.94,3.64c0.01,0.23,0.01,0.51-0.1,0.69c-1.15,1.73-1.64,3.78-2.64,5.57c-0.31,0.55-0.68,1.08-1.05,1.6
		c-1.4,1.99-2.79,3.99-4.23,5.95c-0.94,1.28-1.97,2.49-2.93,3.75c-1.56,2.07-3.06,4.18-4.66,6.22c-1.53,1.96-0.58,4.58,0.88,5.77
		c0.27,0.22,0.48,0.51,0.71,0.76c0.32-0.59,0.56-1.15,0.89-1.66c0.69-1.06,1.75-1.25,2.85-0.91c2.16,0.66,4.34,1.16,6.61,1.17
		c0.9,0.01,1.14,0.83,1.41,1.41c0.36,0.78,0.66,1.66,1.17,2.26c0.73,0.86,1.77,1.47,2.75,2.08c2.85,1.77,5.65,3.6,8.13,5.88
		c1.61,1.48,3.35,2.83,4.97,4.31c1.56,1.43,2.96,3.01,3.97,4.9c0.2,0.37,0.63,0.6,0.84,0.96c0.57,1.02,1.49,1.89,1.37,3.21
		c-0.01,0.07,0,0.19,0.05,0.22c1.21,0.84,0.64,2.26,1.09,3.35c0.25,0.61,0.42,1.26,0.61,1.9c0.07,0.22,0.15,0.46,0.12,0.68
		c-0.13,0.98,0.2,1.87,0.49,2.78c0.44,1.39,1.04,2.75,1.03,4.27c0,0.33,0.36,0.68,0.57,1.01c0.3,0.47,0.38,0.89-0.23,1.16
		c0.23,0.32,0.52,0.58,0.63,0.9c0.22,0.62,0.24,1.31,0.51,1.89c0.29,0.63,0.29,1.18,0.17,1.84c-0.07,0.38,0.11,0.89,0.34,1.23
		c0.32,0.45,0.36,0.86,0.21,1.35c-0.02,0.08-0.06,0.17-0.04,0.23c0.56,1.65-0.02,3.39,0.4,5.03c0.54,2.09,0.43,4.25,0.91,6.36
		c-0.22,0.06-0.39,0.11-0.72,0.2c0.35,0.36,0.63,0.66,0.91,0.95c-0.06,0.01-0.11,0.03-0.17,0.04c0.13,0.68,0.28,1.35,0.4,2.03
		c0.05,0.27,0.06,0.54,0.1,0.81c0.06,0.47,0.02,0.99,0.23,1.4c0.26,0.52,0.39,0.94,0.04,1.44c-0.07,0.1-0.04,0.29-0.01,0.43
		c0.23,1.1,0.43,2.21,0.71,3.3c0.29,1.13,0.04,2.27,0.19,3.41c0.09,0.7-0.23,1.45-0.3,2.18c-0.16,1.56-0.18,3.13-0.53,4.69
		c-0.15,0.66-0.2,1.37-0.38,2.05c-0.26,0.99-0.6,1.99-0.29,3.06c0.06,0.2-0.08,0.46-0.15,0.68c-0.38,1.18-0.67,2.36-0.67,3.62
		c0,0.53-0.28,1.07-0.42,1.6c-0.28,1.03-0.55,2.06-0.81,3.1c-0.08,0.31-0.2,0.62-0.2,0.93c-0.04,2.36-1.11,4.38-2.16,6.39
		c-1.3,2.47-2.6,4.94-4.01,7.35c-1.65,2.82-3.37,5.61-5.14,8.36c-1.2,1.88-2.52,3.68-3.79,5.51c-0.2,0.29-0.47,0.54-0.7,0.81
		c-2.06,2.39-4.11,4.78-6.17,7.16c-1.05,1.22-1.42,2.61-1.29,4.21c0.08,1.1-0.03,2.21-0.14,3.31c-0.15,1.52-0.3,3.01,0.42,4.44
		c0.12,0.24,0.09,0.62,0,0.9c-0.38,1.3-0.32,2.59-0.12,3.9c0.06,0.38,0.03,0.8-0.07,1.17c-0.37,1.44-0.62,2.89-0.42,4.38
		c0.03,0.19,0.02,0.41-0.04,0.59c-0.4,1.22-0.26,2.44,0.03,3.66c0.34,1.37-0.15,2.68-0.23,4.02c-0.06,0.87-0.19,1.73-0.31,2.68
		c-0.87-0.55-0.59-1.22-0.16-1.95c-0.88,0.35-1.18,0.74-0.82,1.43c0.61,1.15,0.14,2.26,0.11,3.38c-0.02,0.63-0.05,1.26-0.09,1.89
		c-0.08,1.29,0.12,2.62-0.57,3.82c-0.11,0.19-0.07,0.46-0.11,0.7c-0.1,0.67-0.25,1.33-0.28,2c-0.04,0.81,0.05,1.64,0,2.45
		c-0.06,0.9-0.19,1.8-0.33,2.7c-0.03,0.21-0.22,0.42-0.38,0.57c-0.77,0.69-0.77,0.69-0.43,1.7c-0.61,0.27-0.96,0.73-1.08,1.41
		c-0.06,0.35-0.17,0.71-0.37,1c-0.91,1.31-1.22,2.9-1.98,4.27c-0.94,1.7-1.85,3.42-3.15,4.91c-0.75,0.86-1.46,1.82-1.93,2.85
		c-0.5,1.11-1.32,1.87-2.15,2.66c-1.01,0.96-1.97,1.97-2.98,2.93c-0.34,0.32-0.75,0.55-1.12,0.84c-0.31,0.24-0.64,0.47-0.91,0.75
		c-1.59,1.62-3.27,3.12-5.11,4.48c-0.8,0.59-1.5,1.37-2.34,1.96c-1.41,0.98-2.79,1.98-4.16,3.02c-2.2,1.66-4.4,3.31-6.55,5.04
		c-2.6,2.09-5.35,3.95-8.46,5.16c-1.67,0.65-3.45,1-5.18,1.5c-0.76,0.22-1.53,0.45-2.29,0.69c-1.62,0.52-3.19,0.61-4.72-0.33
		c-1.54-0.95-2.86-2.16-4.24-3.32c-1.4-1.18-2.29-2.74-3.36-4.16c-0.58-0.76-0.91-1.79-1.1-2.75c-0.54-2.7-0.98-5.42-1.41-8.14
		c-0.08-0.53,0.03-1.09,0.07-1.64c0.02-0.28,0.14-0.58,0.07-0.83c-0.31-1.09-0.3-2.19-0.01-3.31c-0.99,0.07-1.24,0.82-1.57,1.4
		c-1.27,2.23-2.87,4.17-4.86,5.79c-1.21,0.98-2.39,1.99-3.58,2.98c-0.37,0.3-0.73,0.63-1.15,0.86c-1.38,0.75-2.46,1.85-3.53,2.95
		c-0.63,0.65-1.32,1.14-2.24,1.25c-0.35,0.04-0.72,0.12-1.04,0.28c-1.41,0.69-2.93,0.7-4.44,0.77c-1.63,0.08-3.27,0.27-4.88,0.13
		c-3.81-0.32-7.58-0.79-11.17-2.41c-1.79-0.81-2.74-2.24-3.87-3.6c-1.12-1.34-2.14-2.77-3.29-4.07c-1.04-1.18-1.38-2.57-1.54-4.04
		c-0.19-1.86-0.35-3.72-0.49-5.58c-0.04-0.46-0.02-0.95,0.06-1.41c0.31-1.67,0.37-3.36,0.47-5.06c0.1-1.67,0.72-3.28,1.59-4.73
		c0.71-1.18,1.23-2.52,2.36-3.42c0.25-0.2,0.48-0.48,0.77-0.56c1.86-0.53,3.16-1.96,4.76-2.91c1.09-0.65,2.18-1.31,3.32-1.88
		c0.59-0.29,1.31-0.33,1.92-0.59c1.34-0.57,2.75-1.06,3.93-1.86c0.88-0.6,1.82-1.06,2.73-1.59c0.23-0.14,0.45-0.35,0.6-0.57
		c1.3-1.96,2.69-3.84,4.27-5.59c1.18-1.3,1.99-2.82,2.61-4.51c0.69-1.85,1.69-3.58,2.76-5.27c0.96-1.51,1.75-3.13,2.66-4.68
		c0.86-1.48,1.79-2.91,2.67-4.38c0.57-0.96,1.11-1.94,1.64-2.91c0.11-0.21,0.27-0.45,0.24-0.66c-0.13-0.99,0.4-1.76,0.78-2.59
		c1.22-2.61,0.97-5.1-0.74-7.42c-1.06-1.45-2.26-2.8-3.27-4.28c-1.49-2.17-2.89-4.4-4.31-6.62c-0.78-1.22-1.85-2.14-2.83-3.18
		c-1.36-1.44-3.15-2.31-4.5-3.73c-2.29-2.41-4.63-4.77-6.91-7.2c-1.23-1.31-2.47-2.63-3.51-4.08c-1.45-2-2.74-4.12-4.05-6.22
		c-0.31-0.49-0.4-1.12-0.62-1.67c-1.19-2.97-1.98-6.05-2.75-9.14c-0.3-1.2-0.47-2.44-0.89-3.59c-0.79-2.14-0.43-4.33-0.5-6.51
		c-0.07-2.38-0.31-4.76-0.48-7.15c-0.09-1.19-0.22-2.38-0.29-3.57c-0.09-1.31-0.11-2.63-0.2-3.94c-0.05-0.72-0.06-1.38,0.2-2.1
		c0.29-0.8,0.24-1.73,0.34-2.6c0.48-4.33,0.85-8.67,1.49-12.97c0.46-3.07,1.27-6.1,1.92-9.14c0.12-0.58,0.26-1.17,0.32-1.76
		c0.25-2.67,1.01-5.24,1.62-7.83c0.38-1.62,1.1-3.16,1.74-4.7c0.77-1.84,1.6-3.66,2.42-5.48c0.73-1.63,1.48-3.26,2.21-4.9
		c0.61-1.37,1.21-2.76,1.81-4.13c0.02-0.04,0.04-0.07,0.05-0.11c1.15-2.13,2.21-4.32,3.49-6.37c0.84-1.34,1.95-2.53,3.01-3.72
		c2.42-2.71,4.81-5.45,7.35-8.03c1.27-1.29,2.72-2.46,4.43-3.2c0.87-0.38,1.08-0.7,0.73-1.59c-0.69-1.74-1.43-3.46-2.23-5.16
		c-1.34-2.85-3.06-5.5-4.11-8.5c-1.25-3.57-3.26-6.74-5.63-9.69c-0.94-1.17-1.78-2.43-2.71-3.62c-0.23-0.29-0.63-0.49-0.99-0.61
		c-0.85-0.27-1.56-0.72-2.28-1.25c-0.79-0.59-1.74-0.96-2.62-1.42c-0.32-0.16-0.67-0.26-0.97-0.46c-1.26-0.84-2.53-1.67-3.76-2.56
		c-0.64-0.46-1.19-1.04-1.78-1.56c-1.49-1.32-3.1-2.51-4.24-4.2c-0.37-0.55-0.93-0.98-1.44-1.43c-1.28-1.14-2.01-2.67-2.9-4.08
		c-1.82-2.87-2.73-6.09-3.72-9.29c-0.13-0.42-0.21-0.86-0.38-1.26c-0.94-2.2-1.21-4.55-1.38-6.9c-0.15-1.95-0.15-3.91-0.29-5.85
		c-0.1-1.39-0.27-2.78-0.53-4.15c-0.37-1.91,0-3.69,0.61-5.48c0.39-1.13,0.78-2.23,1.56-3.18c0.37-0.44,0.5-1.06,1.16-1.27
		c0.18-0.06,0.26-0.38,0.4-0.57c0.79-1.17,1.58-2.35,2.36-3.52c-0.05,0.32-0.1,0.64-0.16,1.02c1.25-0.45,1.46-0.59,1.79-1.19
		c-0.6,0.07-1.13,0.14-1.67,0.21c0-0.56,0.31-0.79,0.83-0.78c2.79,0.06,5.57-0.03,8.34,0.5c1.51,0.29,3.1,0.22,4.64,0.4
		c1.11,0.13,2.2,0.37,3.29,0.6c2.6,0.54,5.11,1.31,7.28,2.91c0.13,0.09,0.28,0.15,0.4,0.26c2.48,2.24,5.14,4.33,7.39,6.79
		c1.64,1.79,3.63,3.11,5.29,4.82c0.41,0.42,0.75,0.92,1.11,1.4c0.31,0.41,0.57,0.85,0.88,1.27c0.37,0.51,0.88,0.97,1.12,1.53
		c0.65,1.52,1.63,2.83,2.53,4.18c1.55,2.32,3.2,4.57,4.84,6.84c0.35,0.48,0.81,0.88,1.29,1.4c0.8-0.34,1.62-0.65,2.39-1.04
		c1.29-0.63,2.54-1.34,3.83-1.97c0.5-0.24,1.04-0.44,1.59-0.51c3.25-0.42,6.49-0.98,9.77-0.93c1.23,0.02,2.46,0.16,3.67,0.38
		c1.88,0.34,3.76,0.75,5.61,1.22c1.19,0.3,2.34,0.78,3.51,1.18c0.15,0.05,0.34,0.09,0.43,0.2c1.5,1.72,3.73,2.52,5.26,4.23
		c0.58,0.65,1.47,1.03,2.34,1.61c-0.06-0.74-0.6-0.86-0.9-1.18c-0.41-0.43-0.84-0.83-1.27-1.24L149.26,94.54z M97.64,252.24
		c-0.06,0.26-0.06,0.47-0.15,0.63c-0.56,0.99-0.54,2.06-0.5,3.14c0.02,0.75,0.02,1.5,0.01,2.25c-0.01,0.55-0.03,1.1-0.07,1.65
		c-0.02,0.26-0.05,0.54-0.15,0.77c-0.23,0.49-0.55,0.94-0.76,1.44c-0.33,0.77-0.23,1.11,0.37,1.69c0.92,0.89,1.81,1.81,2.75,2.67
		c1.82,1.67,3.67,3.3,5.5,4.96c0.32,0.29,0.7,0.57,0.92,0.93c1.39,2.24,2.79,4.47,4.1,6.75c0.58,1.01,1.18,1.96,1.96,2.83
		c0.87,0.97,1.67,2.01,2.45,3.06c0.49,0.67,0.79,1.49,1.34,2.1c0.48,0.54,0.76,1.09,0.88,1.78c0.07,0.39,0.27,0.76,0.33,1.15
		c0.25,1.64,0.82,3.28,0.28,4.95c-0.19,0.58-0.15,1.09,0.07,1.61c0.35,0.82,0.12,1.51-0.31,2.25c-0.37,0.63-0.71,1.37-0.76,2.07
		c-0.09,1.45-0.38,2.88-0.51,4.31c-0.14,1.57-0.49,2.98-1.2,4.39c-0.83,1.64-1.49,3.38-2.19,5.09c-0.52,1.28-0.98,2.6-1.49,3.89
		c-0.11,0.29-0.27,0.57-0.44,0.84c-0.64,1.05-1.29,2.1-1.94,3.15c-1.01,1.63-1.92,3.34-3.08,4.85c-0.88,1.15-1.61,2.36-2.15,3.68
		c-0.86,2.1-1.6,4.24-2.42,6.35c-0.11,0.28-0.33,0.52-0.53,0.76c-1.1,1.29-2.22,2.57-3.33,3.87c-1.12,1.32-1.79,3-3.37,3.95
		c-0.45,0.27-0.73,0.82-1.11,1.23c-0.48,0.51-0.89,1.09-1.74,1.06c-0.3-0.01-0.64,0.28-0.92,0.48c-0.32,0.22-0.6,0.51-0.91,0.75
		c-0.86,0.68-1.79,1.28-2.7,1.9c-0.86,0.59-1.76,1-2.72,1.06c-1.13,0.07-2.09,0.47-3.04,0.98c-0.77,0.41-1.52,0.87-2.39,1.36
		c0.11,0.55,0.23,1.12,0.35,1.69c0.04,0.19,0.18,0.42,0.12,0.57c-0.28,0.76,0.2,1.11,0.71,1.45c0.47,0.3,0.98,0.54,1.43,0.87
		c0.37,0.28,0.81,0.59,0.98,0.99c0.36,0.86,0.97,0.94,1.75,0.87c0.79-0.07,1.59-0.13,2.38-0.1c1.3,0.04,2.55,0.02,3.59-0.93
		c0.25-0.23,0.64-0.3,0.95-0.48c0.48-0.28,0.97-0.55,1.41-0.88c0.54-0.4,1.05-0.85,1.55-1.3c0.86-0.77,1.71-1.55,2.55-2.33
		c0.29-0.27,0.55-0.57,0.83-0.85c1.32-1.26,2.72-2.46,3.27-4.31c0.06-0.18,0.19-0.35,0.31-0.51c0.76-1.03,1.58-2.01,2.26-3.09
		c1.11-1.74,2.16-3.53,3.18-5.33c0.28-0.49,0.31-1.12,0.53-1.66c0.4-0.99,0.85-1.96,1.27-2.94c0.62-1.47,1.28-2.93,1.84-4.42
		c0.54-1.43,1.69-2.65,1.51-4.33c-0.02-0.14,0.1-0.3,0.16-0.45c0.61-1.55,1.39-3.04,2.2-4.49c0.77-1.4,1.82-2.64,2.63-4.06
		c1.15-2.04,2.38-4.03,3.14-6.27c0.15-0.44,0.39-0.86,0.65-1.25c0.75-1.12,1.75-2.12,2.24-3.34c0.61-1.53,1.77-2.63,2.55-4.01
		c0.97-1.72,2.41-3.21,3.24-4.98c0.57-1.22,1.28-2.23,2.15-3.19c0.11-0.12,0.16-0.28,0.25-0.41c0.43-0.61,0.74-1.42,1.33-1.78
		c1.07-0.66,2.26-1.25,3.47-1.52c2.84-0.64,5.73-1.08,8.6-1.59c0.27-0.05,0.56-0.01,0.84,0.01c2.87,0.19,5.74,0.37,8.6,0.58
		c0.5,0.04,0.99,0.18,1.39,0.25c0.21,0.6,0.39,1.04,0.51,1.5c0.12,0.45,0.18,0.92,0.26,1.34c-0.98,0.68-0.98,0.67-0.28,1.49
		c0.13,0.15,0.19,0.42,0.34,0.48c0.88,0.32,1.04,1.13,1.12,1.84c0.08,0.76,0.07,1.64-0.24,2.3c-0.45,0.94-0.35,1.77,0.01,2.6
		c0.56,1.31,0.61,1.91,0.03,3.19c-0.15,0.33-0.28,0.67-0.36,1.01c-0.39,1.62-0.84,3.24-1.12,4.88c-0.13,0.75-0.06,1.63,0.22,2.33
		c0.22,0.54,0.35,1.02,0.32,1.58c-0.02,0.48,0.02,0.96,0.05,1.44c0.11,1.36,0.04,2.69-0.3,4.03c-0.22,0.89-0.46,1.88,0.04,2.58
		c-0.06,0.63-0.07,1.08-0.15,1.53c-0.15,0.86-0.34,1.71-0.53,2.56c-0.04,0.19-0.25,0.36-0.24,0.53c0.06,1.29,0.16,2.57,0.23,3.86
		c0.01,0.23,0.01,0.51-0.11,0.68c-0.88,1.23-0.98,2.7-1.31,4.09c-0.17,0.73-0.5,1.42-0.44,2.21c0.02,0.18-0.2,0.43-0.38,0.58
		c-0.75,0.64-0.56,1.7-1.09,2.44c-0.08,0.12,0.01,0.39,0.08,0.58c0.32,0.89,0.33,0.9-0.43,1.31c-0.28,0.15-0.6,0.24-0.86,0.42
		c-1.21,0.84-2.42,1.67-3.58,2.56c-0.75,0.58-1.45,1.23-2.14,1.88c-0.3,0.29-0.54,0.64-0.81,0.97c-0.12,0.15-0.18,0.35-0.32,0.46
		c-1.18,0.99-2.37,1.98-3.58,2.94c-1.39,1.1-2.81,2.16-4.22,3.24c-0.5,0.39-0.96,0.85-1.51,1.16c-1.32,0.74-2.69,1.39-4.02,2.1
		c-0.62,0.34-1.24,0.7-1.8,1.13c-0.94,0.72-1.81,1.53-2.74,2.26c-1.15,0.9-1.43,2.52-0.51,3.66c0.54,0.68,1.22,1.25,1.84,1.87
		c0.34,0.34,0.75,0.45,1.21,0.25c1.39-0.6,2.88-1.03,4.14-1.84c2.14-1.38,4.13-2.98,6.18-4.51c0.51-0.38,0.96-0.83,1.47-1.2
		c1-0.72,2.05-1.37,3.03-2.12c1.42-1.09,2.79-2.24,4.18-3.37c0.06-0.05,0.13-0.1,0.19-0.15c1.06-0.82,2.13-1.62,3.16-2.47
		c0.33-0.27,0.49-0.83,0.84-0.97c0.98-0.41,1.54-1.26,2.24-1.94c1.69-1.63,3.4-3.24,4.64-5.28c0.85-1.39,1.9-2.66,2.73-4.06
		c0.37-0.62,1.04-0.99,1.32-1.59c0.94-2.05,2.08-4.03,2.56-6.27c0.28-1.32,0.72-2.62,0.86-3.96c0.23-2.22,0.29-4.45,0.39-6.68
		c0.06-1.39,0.07-2.77,0.08-4.16c0.01-1.31-0.03-2.63-0.01-3.94c0.03-1.71,0.12-3.42,0.15-5.14c0.04-1.87,0.1-3.74,0.07-5.61
		c-0.03-1.67-0.18-3.33-0.25-5c-0.04-1.03,0.3-2.06-0.1-3.08c-0.05-0.13,0.01-0.31,0.02-0.47c0.04-0.75,0.05-1.51,0.13-2.26
		c0.09-0.91,0.16-1.83,0.37-2.71c0.29-1.2,0.67-2.38,1.07-3.55c0.62-1.84,0.98-3.79,2.4-5.29c0.51-0.54,0.85-1.25,1.29-1.86
		c0.47-0.64,0.95-1.27,1.47-1.88c2.39-2.78,4.81-5.53,7.18-8.33c0.62-0.73,1.05-1.6,1.63-2.36c0.45-0.59,1.08-1.06,1.48-1.68
		c1.42-2.26,2.8-4.56,4.15-6.87c0.64-1.1,1.23-2.23,1.69-3.41c0.35-0.87,0.44-1.85,0.67-2.77c0.23-0.93,0.49-1.85,0.74-2.77
		c0.19-0.69,0.35-1.39,0.56-2.08c0.47-1.59,0.67-3.21,0.57-4.88c-0.75,1.26-1.4,2.56-2.1,3.83c-1.01,1.81-2.06,3.58-3.09,5.38
		c-0.31,0.55-0.59,1.12-0.89,1.67c-0.26,0.49-0.55,0.96-0.79,1.46c-0.26,0.56-0.32,1.25-1.1,1.45c-0.16,0.04-0.35,0.4-0.33,0.58
		c0.05,0.39-0.19,0.51-0.39,0.76c-0.67,0.84-1.7,1.37-2.28,2.19c-0.65,0.93-1.47,1.58-2.02,2.1c-1,0.23-1.72,0.54-2.44,0.51
		c-0.52-0.02-0.78,0.1-1.11,0.42c-0.69,0.67-1.65,0.76-2.5,0.77c-0.87,0.01-1.74-0.36-2.6-0.6c-0.15-0.04-0.26-0.25-0.43-0.43
		c0.29-0.05,0.47-0.08,0.8-0.14c-0.37-0.3-0.6-0.5-0.76-0.63c0.19-1.05,0.6-2.04,0.5-2.97c-0.18-1.75,0.62-3.34,0.51-5.05
		c-0.01-0.15,0.07-0.31,0.11-0.46c0.4-1.82,0.77-3.65,1.22-5.46c0.34-1.39,0.58-2.86,1.21-4.12c1.41-2.81,3.04-5.51,4.57-8.26
		c0.22-0.4,0.41-0.82,0.73-1.45c-0.55,0.18-0.94,0.44-1.09,0.34c-0.96-0.63-1.46,0.13-2.05,0.6c-0.95,0.76-1.42,1.88-1.94,2.92
		c-0.22,0.45-0.46,0.73-0.89,0.85c-1.16,0.3-2.33,0.53-3.48,0.85c-0.76,0.21-1.53,0.45-2.21,0.84c-0.45,0.25-0.92,0.73-1.07,1.2
		c-0.27,0.83-0.81,1.38-1.45,1.83c-0.69,0.49-1.15,1.07-1.38,1.88c-0.15,0.54-0.37,0.96-0.92,1.3c-0.81,0.52-1.76,1.14-1.07,2.39
		c-0.97,0.38-1.56,0.99-1.59,2.03c-0.32-0.15-0.53-0.25-0.64-0.3c-0.29,0.25-0.52,0.47-0.77,0.66c-0.56,0.42-1.2,0.77-1.68,1.27
		c-0.39,0.41-0.77,0.52-1.27,0.44c-0.73-0.12-1.48-0.19-2.19-0.36c-1.11-0.26-1.12-0.28-1.4,0.71c-0.48-0.2-0.97-0.39-1.44-0.62
		c-0.2-0.1-0.36-0.28-0.51-0.45c-0.52-0.6-1.21-0.8-1.89-0.43c-0.95,0.51-1.94,0.67-3,0.5c-0.31-0.05-0.78-0.14-0.92,0.01
		c-0.58,0.64-1.41,0.44-2.08,0.73c-0.71,0.31-1.38,0.19-2.07-0.14c-0.49-0.24-1.04-0.32-1.56-0.49c-1.08-0.35-2.16-0.71-3.22-1.09
		c-0.12-0.04-0.23-0.23-0.27-0.37c-0.24-0.68-0.6-0.85-1.37-0.69c-1.31,0.27-2.69,0.38-3.97-0.22c-0.59-0.28-1.12-0.71-1.66-1.07
		c-0.57,0.46-0.57,0.46-1.1,0.12c-0.6,0.36-1.14,0.83-1.77,1.01c-0.43,0.13-0.99-0.24-1.48-0.19c-0.47,0.04-0.9,0.42-1.37,0.5
		c-0.79,0.12-1.61,0.18-2.41,0.16c-0.62-0.01-1.24-0.18-1.85-0.28c-0.24-0.89-1.16-1.25-1.58-2c-0.14-0.26-0.17-0.61-0.16-0.91
		c0.03-0.52,0.15-1.03,0.2-1.54c0.18-1.83-0.1-2.14-1.93-2.01c-0.6,0.04-1.07-0.06-1.51-0.51c-0.25-0.27-0.64-0.45-1-0.57
		c-0.86-0.28-1.75-0.52-2.63-0.75c-0.91-0.24-1.71-0.53-2-1.61c-0.11-0.43-0.54-0.77-0.82-1.16c-0.14-0.19-0.27-0.38-0.38-0.59
		c-0.81-1.64-1.19-3.47-2.31-4.96c-0.09-0.12-0.08-0.31-0.15-0.45c-0.33-0.71-0.25-1.46-0.32-2.21c-0.1-1.27-0.33-2.53-0.48-3.79
		c-0.03-0.22-0.03-0.48,0.07-0.66c0.52-0.9,0.44-2-0.25-2.74c-1.31-1.4-2.62-2.8-3.95-4.18c-0.46-0.47-0.97-0.89-1.5-1.37
		c-0.56,0.71-0.45,1.53-0.09,1.95c0.65,0.75,0.51,1.53,0.56,2.35c0.07,1.11,0.19,2.22,0.3,3.33c0.04,0.44,0.12,0.87,0.14,1.31
		c0.08,3.11,0.17,6.23,0.2,9.34c0.02,1.95-0.06,3.91-0.08,5.87c-0.01,0.52,0.04,1.04,0.06,1.55c0.04,1.04,0.1,2.07,0.12,3.11
		c0.02,0.95,0,1.9-0.01,2.85C96.72,251.14,96.8,251.87,97.64,252.24z M143.45,112.53c-1.39-1.17-2.64-2.21-3.89-3.26
		c-1.04-0.87-2.02-1.81-3.13-2.58c-1.23-0.86-2.51-1.7-4.04-2c-1.21-0.24-2.43-0.49-3.64-0.75c-1.36-0.3-2.7-0.07-4.04,0.14
		c-0.29,0.05-0.71,0.23-0.78,0.44c-0.31,0.97-0.97,1.83-0.82,2.95c0.11,0.89,0.26,1.82-0.3,2.68c-0.13,0.19-0.01,0.54-0.01,0.82
		c-0.01,1.47,0.11,2.95-0.06,4.4c-0.17,1.41-0.6,2.8-0.96,4.18c-0.44,1.67-0.73,3.34-0.49,5.09c0.17,1.18,0.22,2.38,0.32,3.59
		c-0.18,0.04-0.36,0.07-0.6,0.12c0,0.24-0.02,0.47,0,0.71c0.19,1.5,0.37,3,0.58,4.5c0.29,2.09,0.63,4.18,0.89,6.28
		c0.2,1.54,0.23,3.11,0.48,4.64c0.36,2.2,0.88,4.38,1.26,6.58c0.22,1.29,0.23,2.61,0.48,3.89c0.45,2.28,0.73,4.57,0.58,6.9
		c-0.08,1.23-0.19,2.47-0.27,3.7c-0.13,1.82-0.12,1.85,1.93,1.83c0.08,0,0.16-0.01,0.24-0.03c0.79-0.24,1.56-0.25,2.36-0.02
		c0.32,0.09,0.69,0.01,1.13,0.01c0-0.52,0.07-0.96-0.01-1.37c-0.35-1.64-0.78-3.26-1.1-4.9c-0.17-0.89-0.23-1.81-0.26-2.71
		c-0.02-0.72,0.18-1.44,0.11-2.15c-0.09-1.02,0.24-2.19-0.87-2.93c-0.13-0.08-0.16-0.36-0.18-0.55c-0.09-0.87-0.13-1.75-0.23-2.62
		c-0.06-0.5-0.18-1-0.32-1.48c-0.36-1.19-0.73-2.35-0.39-3.62c0.47-1.72,1.13-3.37,1.84-5.01c0.41-0.95,1.11-1.92,1.09-2.87
		c-0.03-1.23,0.31-2.29,0.74-3.34c0.82-1.99,1.94-3.87,2.65-5.89c0.69-1.98,1.95-3.54,3.05-5.24c0.34-0.53,0.73-1.04,1.13-1.54
		c1.08-1.34,2.1-2.73,3.27-3.97C142.45,115.84,142.67,114.1,143.45,112.53z M114,354.15c0.92-0.68,1.58-1.45,2.48-1.97
		c1.31-0.75,2.47-1.75,3.69-2.65c1.03-0.76,2.05-1.52,3.06-2.29c0.82-0.62,1.56-1.37,2.45-1.85c1.88-0.99,3.65-2.1,5.17-3.61
		c0.84-0.84,1.86-1.51,2.66-2.39c1.8-2.01,3.62-4.01,5.58-5.87c0.49-0.47,0.85-1.1,1.41-1.46c0.92-0.58,1.25-1.4,1.34-2.38
		c0.31-3.37,0.98-6.71,0.9-10.1c-0.06-2.53,0.68-4.95,0.79-7.45c0.05-1.22,0.32-2.43,0.43-3.65c0.09-0.98-0.17-1.33-1.14-1.46
		c-0.91-0.12-1.83-0.24-2.74-0.19c-0.66,0.03-1.5,0.14-1.9,0.55c-0.88,0.91-1.74,1.95-2.2,3.1c-0.42,1.05-1,1.98-1.55,2.93
		c-0.99,1.73-2.12,3.38-3.17,5.07c-1.15,1.86-2.29,3.74-3.42,5.61c-0.41,0.68-0.94,1.32-1.16,2.06c-0.68,2.23-1.94,4.16-2.97,6.2
		c-0.28,0.57-0.76,1.08-0.9,1.67c-0.2,0.89-0.64,1.61-1.1,2.37c-0.39,0.65-0.92,1.29-0.51,2.15c-0.24,0.14-0.41,0.24-0.58,0.34
		c-0.16,0.1-0.32,0.22-0.46,0.31c0.32,1.14,0.29,1.18-0.53,1.87c-0.26,0.22-0.41,0.55-0.6,0.84c-1.06,1.58-0.98,3.63-2.14,5.17
		c0.04,0.87-0.77,1.37-0.95,2.13c-0.39,1.66-0.78,3.31-1.97,4.62C113.95,353.86,113.97,353.91,114,354.15z M148.77,209.41
		c-0.44,0.08-0.84,0.08-1.17,0.23c-1.41,0.66-2.86,1.16-4.39,1.47c-0.21,0.04-0.41,0.19-0.6,0.32c-0.53,0.38-1.01,0.84-1.58,1.15
		c-1.97,1.1-4.16,1.03-6.31,0.99c-2.23-0.04-4.47-0.22-6.7-0.34c-0.56-0.03-1.13-0.03-1.66-0.17c-1.74-0.44-3.47-0.86-5.12-1.63
		c-2.71-1.27-5.51-2.35-8.24-3.6c-1.92-0.88-3.75-1.92-5.2-3.56c-1.64-1.85-3.52-3.49-5.13-5.36c-1.03-1.19-1.94-2.56-2.58-3.99
		c-0.82-1.85-1.32-3.84-1.96-5.77c-0.09-0.28-0.21-0.56-0.33-0.86c-0.14,0.11-0.25,0.16-0.26,0.21c-0.07,1.03-0.14,2.06-0.17,3.09
		c-0.01,0.23,0.06,0.49,0.17,0.69c0.44,0.8,0.9,1.6,1.39,2.37c0.51,0.81,1.06,1.59,1.58,2.39c0.08,0.12,0.07,0.3,0.11,0.45
		c0.13,0.49,0.19,1,0.4,1.45c0.57,1.25,1.57,2.28,1.85,3.68c0.02,0.11,0.12,0.21,0.18,0.31c0.72,1.1,1.42,2.22,2.18,3.29
		c0.7,1,1.22,2.18,2.46,2.69c0.2,0.08,0.33,0.34,0.49,0.52c0.53,0.59,1.03,1.24,1.61,1.77c0.79,0.72,1.57,1.55,2.51,2
		c1.72,0.83,3.54,1.43,5.33,2.11c0.59,0.22,1.2,0.4,1.81,0.59c1.29,0.39,2.59,0.78,3.88,1.16c1.45,0.42,2.93,0.15,4.39,0.15
		c1.55,0,3.11-0.03,4.66-0.13c3.92-0.25,7.64-1.28,11.14-3.02c0.96-0.48,1.86-1.08,2.75-1.68c0.55-0.37,0.93-0.92,1.59-1.22
		C148.4,210.91,148.77,210.29,148.77,209.41z M177.84,206.78c-0.6,0.47-1.05,0.77-1.62,0.32c-0.12-0.1-0.54,0.04-0.73,0.19
		c-1.51,1.15-2.77,2.47-2.84,4.49c1.28,1.17,2.53,0.38,4.04-0.11c-0.39,0.75-0.68,1.24-0.89,1.76c-0.08,0.2,0.02,0.48,0.03,0.72
		c0.66-0.12,0.5,0.65,0.88,0.82c0.6,0.27,0.56,0.68,0.29,1.17c-0.08,0.14-0.03,0.35-0.05,0.75c0.34-0.38,0.52-0.58,0.76-0.85
		c0.22,0.27,0.38,0.47,0.66,0.81c0.22-1.34,0.58-2.55,0.56-3.75c-0.02-1.46-0.34-2.93-0.58-4.38
		C178.25,208.12,178.04,207.53,177.84,206.78z M164.64,195.12c0.74-1.13,1.49-2.24,2.21-3.38c0.25-0.4,0.47-0.83,0.64-1.28
		c0.8-2.15,1.62-4.3,2.34-6.49c0.23-0.7,0.27-1.54-0.35-2.13c-0.47-0.45-1.05-0.79-1.77-1.31c-0.18,2.58-0.34,4.93-0.5,7.27
		c-0.21,0.02-0.35,0.03-0.48,0.04c0.1,0.36,0.33,0.72,0.26,1.02c-0.19,0.8-0.37,1.65-0.81,2.32c-0.32,0.49-0.27,1.14-0.63,1.45
		C164.77,193.31,164.81,194.24,164.64,195.12z M174.39,213.31c-0.37,0.11-0.69,0.21-1.27,0.38c0.56,0.45,0.93,0.74,1.31,1.05
		c0.07,0.24-0.75,0.67,0.15,0.79c0.17-0.32,0.33-0.64,0.49-0.96C174.87,214.18,174.66,213.8,174.39,213.31z M146.66,161.95
		c-0.32,0.29-0.83,0.53-0.89,0.85c-0.09,0.44,0.16,0.94,0.25,1.39C146.67,163.59,147.16,162.92,146.66,161.95z M160.74,199.38
		c-0.79,0.3-1.22,1.12-1.1,1.99C160.88,200.62,161.01,200.39,160.74,199.38z M149.33,343.39c-0.04-0.11-0.07-0.22-0.11-0.34
		c-0.88-0.24-1.4,0.36-1.93,0.97C147.98,343.82,148.66,343.6,149.33,343.39z M158.53,202.54c-0.01-0.06-0.01-0.12-0.02-0.18
		c-0.19,0.01-0.39,0.02-0.58,0.03c0.01,0.07,0.01,0.14,0.02,0.21C158.15,202.58,158.34,202.56,158.53,202.54z"/>
	<path d="M149.29,94.51c-0.21-0.1-0.45-0.16-0.64-0.29c-0.81-0.56-1.61-1.13-2.41-1.71c-0.28-0.2-0.52-0.45-0.99-0.86
		c0.44,0,0.65-0.07,0.75,0.01c1.07,0.8,2.13,1.61,3.18,2.44c0.09,0.07,0.05,0.29,0.07,0.45C149.26,94.54,149.29,94.51,149.29,94.51z
		"/>
	<path d="M189.46,106.62c0.1-0.21,0.19-0.43,0.29-0.64c0.05,0.02,0.1,0.04,0.16,0.07c-0.09,0.22-0.18,0.43-0.27,0.65
		C189.58,106.67,189.52,106.65,189.46,106.62z"/>
	<path class="st0" d="M97.64,252.24c-0.84-0.37-0.92-1.11-0.91-1.89c0.01-0.95,0.03-1.9,0.01-2.85c-0.02-1.04-0.08-2.07-0.12-3.11
		c-0.02-0.52-0.06-1.04-0.06-1.55c0.02-1.96,0.1-3.91,0.08-5.87c-0.03-3.11-0.12-6.23-0.2-9.34c-0.01-0.44-0.09-0.87-0.14-1.31
		c-0.1-1.11-0.23-2.22-0.3-3.33c-0.05-0.82,0.09-1.6-0.56-2.35c-0.37-0.42-0.47-1.25,0.09-1.95c0.53,0.48,1.05,0.9,1.5,1.37
		c1.33,1.38,2.63,2.78,3.95,4.18c0.69,0.73,0.77,1.83,0.25,2.74c-0.1,0.18-0.1,0.44-0.07,0.66c0.16,1.27,0.38,2.52,0.48,3.79
		c0.06,0.75-0.01,1.5,0.32,2.21c0.07,0.14,0.06,0.33,0.15,0.45c1.12,1.49,1.5,3.33,2.31,4.96c0.1,0.21,0.24,0.4,0.38,0.59
		c0.28,0.39,0.7,0.73,0.82,1.16c0.28,1.07,1.09,1.37,2,1.61c0.88,0.23,1.76,0.47,2.63,0.75c0.36,0.12,0.74,0.3,1,0.57
		c0.44,0.46,0.91,0.56,1.51,0.51c1.83-0.13,2.11,0.17,1.93,2.01c-0.05,0.52-0.17,1.03-0.2,1.54c-0.02,0.3,0.01,0.66,0.16,0.91
		c0.42,0.75,1.34,1.11,1.58,2c0.62,0.1,1.23,0.27,1.85,0.28c0.8,0.02,1.62-0.04,2.41-0.16c0.47-0.07,0.9-0.45,1.37-0.5
		c0.49-0.05,1.04,0.32,1.48,0.19c0.62-0.18,1.17-0.65,1.77-1.01c0.53,0.34,0.53,0.34,1.1-0.12c0.54,0.36,1.07,0.79,1.66,1.07
		c1.28,0.6,2.65,0.49,3.97,0.22c0.77-0.16,1.13,0.01,1.37,0.69c0.05,0.14,0.15,0.32,0.27,0.37c1.07,0.38,2.15,0.74,3.22,1.09
		c0.52,0.17,1.08,0.26,1.56,0.49c0.69,0.33,1.36,0.45,2.07,0.14c0.67-0.29,1.5-0.08,2.08-0.73c0.14-0.16,0.61-0.06,0.92-0.01
		c1.06,0.17,2.05,0.01,3-0.5c0.69-0.37,1.37-0.17,1.89,0.43c0.15,0.17,0.31,0.35,0.51,0.45c0.47,0.23,0.97,0.42,1.44,0.62
		c0.28-0.99,0.29-0.97,1.4-0.71c0.72,0.17,1.46,0.24,2.19,0.36c0.5,0.08,0.88-0.04,1.27-0.44c0.48-0.5,1.12-0.85,1.68-1.27
		c0.25-0.19,0.47-0.4,0.77-0.66c0.11,0.05,0.32,0.15,0.64,0.3c0.03-1.03,0.62-1.65,1.59-2.03c-0.68-1.25,0.26-1.87,1.07-2.39
		c0.54-0.35,0.77-0.76,0.92-1.3c0.22-0.8,0.69-1.39,1.38-1.88c0.64-0.45,1.18-1,1.45-1.83c0.15-0.47,0.62-0.95,1.07-1.2
		c0.68-0.38,1.45-0.63,2.21-0.84c1.15-0.32,2.32-0.55,3.48-0.85c0.43-0.11,0.66-0.4,0.89-0.85c0.52-1.04,0.99-2.16,1.94-2.92
		c0.59-0.47,1.09-1.24,2.05-0.6c0.15,0.1,0.54-0.16,1.09-0.34c-0.32,0.64-0.5,1.05-0.73,1.45c-1.53,2.75-3.16,5.45-4.57,8.26
		c-0.63,1.26-0.87,2.73-1.21,4.12c-0.44,1.81-0.81,3.64-1.22,5.46c-0.03,0.16-0.12,0.31-0.11,0.46c0.11,1.71-0.69,3.31-0.51,5.05
		c0.1,0.93-0.31,1.92-0.5,2.97c0.16,0.13,0.39,0.33,0.76,0.63c-0.33,0.06-0.51,0.09-0.8,0.14c0.17,0.18,0.28,0.39,0.43,0.43
		c0.86,0.24,1.73,0.61,2.6,0.6c0.85-0.01,1.81-0.1,2.5-0.77c0.33-0.32,0.59-0.45,1.11-0.42c0.71,0.03,1.44-0.28,2.44-0.51
		c0.55-0.52,1.37-1.17,2.02-2.1c0.57-0.82,1.6-1.35,2.28-2.19c0.2-0.24,0.44-0.37,0.39-0.76c-0.02-0.18,0.17-0.54,0.33-0.58
		c0.78-0.2,0.84-0.88,1.1-1.45c0.23-0.5,0.53-0.97,0.79-1.46c0.3-0.56,0.57-1.12,0.89-1.67c1.02-1.79,2.08-3.57,3.09-5.38
		c0.71-1.27,1.35-2.57,2.1-3.83c0.1,1.67-0.11,3.29-0.57,4.88c-0.2,0.69-0.37,1.38-0.56,2.08c-0.25,0.92-0.51,1.84-0.74,2.77
		c-0.23,0.92-0.32,1.9-0.67,2.77c-0.46,1.18-1.06,2.31-1.69,3.41c-1.34,2.31-2.72,4.6-4.15,6.87c-0.39,0.62-1.03,1.09-1.48,1.68
		c-0.58,0.76-1.01,1.64-1.63,2.36c-2.37,2.8-4.79,5.55-7.18,8.33c-0.52,0.6-1,1.24-1.47,1.88c-0.45,0.61-0.78,1.31-1.29,1.86
		c-1.42,1.5-1.78,3.45-2.4,5.29c-0.39,1.17-0.78,2.35-1.07,3.55c-0.21,0.88-0.28,1.8-0.37,2.71c-0.07,0.75-0.09,1.51-0.13,2.26
		c-0.01,0.16-0.07,0.33-0.02,0.47c0.4,1.02,0.06,2.06,0.1,3.08c0.07,1.67,0.22,3.33,0.25,5c0.03,1.87-0.03,3.74-0.07,5.61
		c-0.04,1.71-0.12,3.42-0.15,5.14c-0.02,1.31,0.02,2.62,0.01,3.94c-0.01,1.39-0.02,2.78-0.08,4.16c-0.1,2.23-0.16,4.46-0.39,6.68
		c-0.14,1.34-0.58,2.64-0.86,3.96c-0.48,2.24-1.62,4.22-2.56,6.27c-0.27,0.59-0.94,0.96-1.32,1.59c-0.84,1.4-1.89,2.67-2.73,4.06
		c-1.24,2.04-2.95,3.66-4.64,5.28c-0.71,0.68-1.26,1.54-2.24,1.94c-0.35,0.15-0.51,0.7-0.84,0.97c-1.03,0.85-2.1,1.65-3.16,2.47
		c-0.06,0.05-0.13,0.1-0.19,0.15c-1.39,1.13-2.76,2.28-4.18,3.37c-0.98,0.75-2.03,1.4-3.03,2.12c-0.51,0.37-0.96,0.83-1.47,1.2
		c-2.05,1.52-4.04,3.13-6.18,4.51c-1.25,0.81-2.75,1.24-4.14,1.84c-0.46,0.2-0.86,0.09-1.21-0.25c-0.62-0.61-1.3-1.19-1.84-1.87
		c-0.92-1.14-0.64-2.76,0.51-3.66c0.93-0.73,1.8-1.54,2.74-2.26c0.56-0.43,1.18-0.8,1.8-1.13c1.33-0.72,2.7-1.36,4.02-2.1
		c0.55-0.31,1-0.77,1.51-1.16c1.41-1.08,2.83-2.14,4.22-3.24c1.21-0.96,2.39-1.95,3.58-2.94c0.14-0.12,0.2-0.31,0.32-0.46
		c0.26-0.33,0.5-0.69,0.81-0.97c0.69-0.65,1.38-1.31,2.14-1.88c1.17-0.89,2.38-1.72,3.58-2.56c0.26-0.18,0.58-0.27,0.86-0.42
		c0.76-0.42,0.75-0.42,0.43-1.31c-0.07-0.18-0.16-0.46-0.08-0.58c0.53-0.74,0.34-1.8,1.09-2.44c0.17-0.15,0.39-0.4,0.38-0.58
		c-0.07-0.79,0.27-1.49,0.44-2.21c0.33-1.39,0.43-2.86,1.31-4.09c0.12-0.17,0.12-0.45,0.11-0.68c-0.07-1.29-0.17-2.57-0.23-3.86
		c-0.01-0.17,0.2-0.34,0.24-0.53c0.19-0.85,0.37-1.7,0.53-2.56c0.08-0.44,0.09-0.89,0.15-1.53c-0.51-0.7-0.26-1.69-0.04-2.58
		c0.34-1.34,0.4-2.67,0.3-4.03c-0.04-0.48-0.08-0.96-0.05-1.44c0.03-0.57-0.1-1.04-0.32-1.58c-0.28-0.7-0.34-1.58-0.22-2.33
		c0.28-1.64,0.73-3.26,1.12-4.88c0.08-0.35,0.21-0.69,0.36-1.01c0.58-1.28,0.53-1.88-0.03-3.19c-0.36-0.83-0.46-1.67-0.01-2.6
		c0.32-0.66,0.33-1.55,0.24-2.3c-0.08-0.71-0.24-1.52-1.12-1.84c-0.15-0.05-0.21-0.33-0.34-0.48c-0.7-0.81-0.71-0.81,0.28-1.49
		c-0.08-0.42-0.14-0.89-0.26-1.34c-0.12-0.46-0.3-0.9-0.51-1.5c-0.4-0.08-0.89-0.22-1.39-0.25c-2.87-0.21-5.73-0.39-8.6-0.58
		c-0.28-0.02-0.57-0.06-0.84-0.01c-2.87,0.51-5.76,0.95-8.6,1.59c-1.22,0.27-2.41,0.86-3.47,1.52c-0.59,0.36-0.9,1.17-1.33,1.78
		c-0.09,0.13-0.14,0.29-0.25,0.41c-0.87,0.96-1.57,1.97-2.15,3.19c-0.84,1.77-2.27,3.26-3.24,4.98c-0.78,1.38-1.94,2.48-2.55,4.01
		c-0.48,1.22-1.49,2.22-2.24,3.34c-0.26,0.39-0.5,0.81-0.65,1.25c-0.75,2.24-1.98,4.22-3.14,6.27c-0.8,1.42-1.85,2.66-2.63,4.06
		c-0.8,1.45-1.58,2.94-2.2,4.49c-0.06,0.15-0.18,0.31-0.16,0.45c0.18,1.68-0.98,2.9-1.51,4.33c-0.56,1.49-1.22,2.95-1.84,4.42
		c-0.42,0.98-0.87,1.95-1.27,2.94c-0.22,0.54-0.25,1.16-0.53,1.66c-1.02,1.8-2.06,3.59-3.18,5.33c-0.68,1.07-1.51,2.06-2.26,3.09
		c-0.12,0.16-0.25,0.33-0.31,0.51c-0.55,1.85-1.95,3.05-3.27,4.31c-0.29,0.27-0.54,0.58-0.83,0.85c-0.85,0.78-1.69,1.56-2.55,2.33
		c-0.5,0.45-1.01,0.9-1.55,1.3c-0.44,0.33-0.93,0.6-1.41,0.88c-0.31,0.18-0.7,0.25-0.95,0.48c-1.04,0.95-2.29,0.97-3.59,0.93
		c-0.79-0.02-1.59,0.03-2.38,0.1c-0.78,0.07-1.39-0.01-1.75-0.87c-0.17-0.4-0.61-0.71-0.98-0.99c-0.45-0.33-0.96-0.57-1.43-0.87
		c-0.51-0.33-0.99-0.69-0.71-1.45c0.06-0.15-0.08-0.38-0.12-0.57c-0.12-0.57-0.24-1.14-0.35-1.69c0.87-0.5,1.61-0.95,2.39-1.36
		c0.95-0.51,1.91-0.9,3.04-0.98c0.96-0.06,1.85-0.47,2.72-1.06c0.91-0.62,1.83-1.22,2.7-1.9c0.31-0.24,0.59-0.53,0.91-0.75
		c0.29-0.2,0.62-0.49,0.92-0.48c0.85,0.03,1.27-0.54,1.74-1.06c0.38-0.41,0.66-0.96,1.11-1.23c1.58-0.95,2.25-2.64,3.37-3.95
		c1.1-1.29,2.22-2.57,3.33-3.87c0.2-0.23,0.42-0.48,0.53-0.76c0.82-2.11,1.56-4.26,2.42-6.35c0.54-1.31,1.26-2.53,2.15-3.68
		c1.16-1.51,2.07-3.22,3.08-4.85c0.65-1.05,1.3-2.1,1.94-3.15c0.16-0.27,0.32-0.55,0.44-0.84c0.5-1.29,0.96-2.61,1.49-3.89
		c0.7-1.71,1.36-3.44,2.19-5.09c0.71-1.4,1.06-2.82,1.2-4.39c0.13-1.43,0.41-2.86,0.51-4.31c0.05-0.71,0.39-1.44,0.76-2.07
		c0.43-0.74,0.67-1.43,0.31-2.25c-0.22-0.52-0.26-1.02-0.07-1.61c0.55-1.67-0.03-3.31-0.28-4.95c-0.06-0.39-0.26-0.76-0.33-1.15
		c-0.12-0.69-0.4-1.24-0.88-1.78c-0.54-0.61-0.84-1.43-1.34-2.1c-0.77-1.05-1.57-2.09-2.45-3.06c-0.78-0.87-1.39-1.82-1.96-2.83
		c-1.31-2.28-2.71-4.52-4.1-6.75c-0.23-0.36-0.6-0.64-0.92-0.93c-1.83-1.65-3.68-3.29-5.5-4.96c-0.94-0.86-1.83-1.78-2.75-2.67
		c-0.6-0.58-0.7-0.92-0.37-1.69c0.21-0.5,0.53-0.95,0.76-1.44c0.11-0.23,0.13-0.51,0.15-0.77c0.04-0.55,0.07-1.1,0.07-1.65
		c0.01-0.75,0.01-1.5-0.01-2.25c-0.03-1.08-0.06-2.15,0.5-3.14C97.58,252.72,97.58,252.5,97.64,252.24z M125.72,266.41
		c-0.32-0.82-0.73-1.56-0.87-2.35c-0.11-0.66,0.21-1.4,0.13-2.07c-0.06-0.51,0.23-1.19-0.37-1.55c-0.55-0.33-0.7-0.87-0.84-1.39
		c-0.21-0.8-0.68-1.3-1.41-1.66c-1.19-0.57-2.29-1.29-3.16-2.33c-0.72-0.85-1.45-1.71-2.25-2.48c-1.62-1.56-2.89-3.51-5.1-4.4
		c-0.46-0.19-0.84-0.3-1.36-0.18c-0.6,0.14-1.25,0.09-1.88,0.1c-0.35,0.01-0.8-0.17-1.04-0.02c-0.71,0.47-1.51,0.48-2.28,0.62
		c-1.34,0.24-2.08,1.21-2.06,2.61c0,0.3-0.11,0.61-0.2,0.91c-0.13,0.41-0.37,0.81-0.41,1.23c-0.17,1.56-0.77,3.09-0.41,4.7
		c0.05,0.22,0.01,0.49-0.06,0.71c-0.39,1.19,0.11,2.27,0.72,3.14c0.97,1.4,2.2,2.62,3.31,3.92c0.82,0.96,1.61,1.96,2.47,2.89
		c0.76,0.81,1.55,1.61,2.42,2.29c0.94,0.72,2,1.3,3.07,1.97c1.05-0.91,1.1,0.75,1.53,0.78c0.62-0.34,1-0.55,1.4-0.76
		c-0.1-0.26-0.19-0.52-0.32-0.86c0.55,0.15,0.95,0.26,1.4,0.38c0-0.35,0-0.6,0-1.01c0.63,0.66,1.16,1.26,2.02,0.51
		c-0.11-0.28-0.22-0.56-0.39-0.98c2.17,0.72,3.13-0.55,3.83-1.9c0-0.53-0.02-0.86,0.01-1.19c0.02-0.26,0.24-0.57,0.15-0.76
		c-0.27-0.61,0.13-0.78,0.63-1.06C124.71,266.65,125.18,266.73,125.72,266.41z"/>
	<path class="st0" d="M143.45,112.53c-0.78,1.57-1,3.3-2.25,4.62c-1.18,1.24-2.2,2.63-3.27,3.97c-0.4,0.49-0.78,1-1.13,1.54
		c-1.1,1.7-2.36,3.26-3.05,5.24c-0.7,2.03-1.82,3.9-2.65,5.89c-0.43,1.04-0.77,2.1-0.74,3.34c0.02,0.95-0.68,1.92-1.09,2.87
		c-0.71,1.64-1.37,3.28-1.84,5.01c-0.35,1.27,0.03,2.44,0.39,3.62c0.15,0.48,0.26,0.98,0.32,1.48c0.1,0.87,0.15,1.74,0.23,2.62
		c0.02,0.19,0.05,0.46,0.18,0.55c1.11,0.74,0.77,1.92,0.87,2.93c0.07,0.71-0.13,1.43-0.11,2.15c0.03,0.91,0.08,1.83,0.26,2.71
		c0.32,1.64,0.75,3.26,1.1,4.9c0.09,0.41,0.01,0.85,0.01,1.37c-0.45,0-0.81,0.08-1.13-0.01c-0.8-0.23-1.58-0.21-2.36,0.02
		c-0.08,0.02-0.16,0.03-0.24,0.03c-2.05,0.02-2.06,0-1.93-1.83c0.09-1.23,0.19-2.47,0.27-3.7c0.16-2.33-0.12-4.62-0.58-6.9
		c-0.25-1.28-0.26-2.6-0.48-3.89c-0.38-2.2-0.9-4.38-1.26-6.58c-0.25-1.53-0.29-3.1-0.48-4.64c-0.27-2.1-0.6-4.19-0.89-6.28
		c-0.21-1.5-0.39-3-0.58-4.5c-0.03-0.23,0-0.47,0-0.71c0.24-0.05,0.42-0.09,0.6-0.12c-0.1-1.21-0.16-2.41-0.32-3.59
		c-0.24-1.74,0.05-3.42,0.49-5.09c0.36-1.38,0.79-2.77,0.96-4.18c0.17-1.45,0.05-2.93,0.06-4.4c0-0.28-0.12-0.63,0.01-0.82
		c0.55-0.86,0.41-1.79,0.3-2.68c-0.14-1.12,0.51-1.98,0.82-2.95c0.07-0.21,0.5-0.4,0.78-0.44c1.34-0.21,2.68-0.44,4.04-0.14
		c1.21,0.26,2.42,0.51,3.64,0.75c1.53,0.3,2.8,1.14,4.04,2c1.11,0.77,2.09,1.71,3.13,2.58
		C140.81,110.32,142.06,111.37,143.45,112.53z"/>
	<path class="st0" d="M148.77,209.41c0,0.88-0.37,1.51-0.9,1.74c-0.66,0.3-1.05,0.84-1.59,1.22c-0.89,0.61-1.79,1.21-2.75,1.68
		c-3.51,1.75-7.23,2.77-11.14,3.02c-1.55,0.1-3.11,0.13-4.66,0.13c-1.46,0-2.94,0.28-4.39-0.15c-1.3-0.38-2.59-0.76-3.88-1.16
		c-0.61-0.18-1.22-0.36-1.81-0.59c-1.79-0.68-3.62-1.28-5.33-2.11c-0.94-0.46-1.72-1.28-2.51-2c-0.59-0.54-1.08-1.18-1.61-1.77
		c-0.16-0.18-0.29-0.44-0.49-0.52c-1.25-0.52-1.76-1.69-2.46-2.69c-0.76-1.08-1.46-2.19-2.18-3.29c-0.07-0.1-0.16-0.2-0.18-0.31
		c-0.28-1.4-1.28-2.43-1.85-3.68c-0.21-0.45-0.27-0.97-0.4-1.45c-0.04-0.15-0.03-0.33-0.11-0.45c-0.52-0.8-1.07-1.58-1.58-2.39
		c-0.49-0.78-0.94-1.57-1.39-2.37c-0.11-0.2-0.18-0.46-0.17-0.69c0.04-1.03,0.11-2.06,0.17-3.09c0-0.05,0.11-0.09,0.26-0.21
		c0.12,0.31,0.24,0.58,0.33,0.86c0.64,1.93,1.13,3.92,1.96,5.77c0.64,1.43,1.55,2.8,2.58,3.99c1.61,1.87,3.49,3.51,5.13,5.36
		c1.45,1.64,3.28,2.67,5.2,3.56c2.72,1.25,5.52,2.33,8.24,3.6c1.65,0.77,3.38,1.19,5.12,1.63c0.53,0.13,1.1,0.13,1.66,0.17
		c2.23,0.13,4.46,0.31,6.7,0.34c2.15,0.04,4.34,0.11,6.31-0.99c0.56-0.31,1.05-0.77,1.58-1.15c0.18-0.13,0.38-0.28,0.6-0.32
		c1.52-0.32,2.98-0.81,4.39-1.47C147.93,209.49,148.33,209.49,148.77,209.41z"/>
	<path class="st0" d="M177.84,206.78c0.2,0.75,0.42,1.34,0.51,1.94c0.24,1.46,0.56,2.92,0.58,4.38c0.02,1.21-0.35,2.42-0.56,3.75
		c-0.28-0.34-0.44-0.54-0.66-0.81c-0.24,0.27-0.42,0.47-0.76,0.85c0.02-0.4-0.03-0.61,0.05-0.75c0.27-0.5,0.32-0.9-0.29-1.17
		c-0.38-0.17-0.22-0.94-0.88-0.82c-0.02-0.24-0.11-0.52-0.03-0.72c0.21-0.52,0.5-1.01,0.89-1.76c-1.51,0.5-2.77,1.29-4.04,0.11
		c0.07-2.03,1.34-3.34,2.84-4.49c0.19-0.15,0.61-0.29,0.73-0.19C176.78,207.55,177.23,207.26,177.84,206.78z M173.97,211
		c-0.07,0.03-0.15,0.05-0.22,0.08c0.08,0.24,0.15,0.49,0.26,0.72c0.02,0.05,0.19,0.03,0.42,0.06
		C174.24,211.5,174.1,211.25,173.97,211z"/>
	<path class="st0" d="M164.64,195.12c0.17-0.88,0.13-1.81,0.91-2.49c0.36-0.31,0.31-0.97,0.63-1.45c0.44-0.66,0.62-1.52,0.81-2.32
		c0.07-0.29-0.16-0.65-0.26-1.02c0.13-0.01,0.27-0.02,0.48-0.04c0.16-2.34,0.32-4.69,0.5-7.27c0.71,0.52,1.3,0.86,1.77,1.31
		c0.61,0.59,0.58,1.43,0.35,2.13c-0.72,2.18-1.54,4.33-2.34,6.49c-0.16,0.44-0.38,0.88-0.64,1.28
		C166.13,192.87,165.38,193.99,164.64,195.12z"/>
	<path class="st0" d="M174.39,213.31c0.27,0.49,0.48,0.88,0.69,1.25c-0.17,0.32-0.33,0.64-0.49,0.96c-0.89-0.11-0.07-0.54-0.15-0.79
		c-0.38-0.3-0.75-0.6-1.31-1.05C173.7,213.52,174.01,213.42,174.39,213.31z"/>
	<path class="st0" d="M146.66,161.95c0.5,0.97,0.02,1.64-0.64,2.24c-0.1-0.44-0.34-0.95-0.25-1.39
		C145.83,162.48,146.34,162.24,146.66,161.95z"/>
	<path class="st0" d="M160.74,199.38c0.28,1.01,0.14,1.25-1.1,1.99C159.52,200.49,159.95,199.68,160.74,199.38z"/>
	<path class="st0" d="M63.84,60.44c0.54-0.07,1.08-0.14,1.67-0.21c-0.33,0.61-0.54,0.75-1.79,1.19c0.06-0.39,0.11-0.7,0.16-1.02
		C63.88,60.4,63.84,60.44,63.84,60.44z"/>
	<path class="st0" d="M149.33,343.39c-0.68,0.21-1.36,0.42-2.04,0.63c0.52-0.61,1.05-1.21,1.93-0.97
		C149.26,343.17,149.3,343.28,149.33,343.39z"/>
	<path class="st0" d="M158.53,202.54c-0.19,0.02-0.38,0.04-0.57,0.06c-0.01-0.07-0.01-0.14-0.02-0.21c0.19-0.01,0.39-0.02,0.58-0.03
		C158.52,202.42,158.53,202.48,158.53,202.54z"/>
	<path d="M125.72,266.41c-0.54,0.32-1.01,0.24-1.33-0.22c-0.5,0.28-0.9,0.45-0.63,1.06c0.09,0.19-0.13,0.5-0.15,0.76
		c-0.03,0.33-0.01,0.67-0.01,1.19c-0.7,1.35-1.66,2.62-3.83,1.9c0.17,0.43,0.28,0.7,0.39,0.98c-0.85,0.75-1.39,0.15-2.02-0.51
		c0,0.42,0,0.66,0,1.01c-0.45-0.12-0.85-0.23-1.4-0.38c0.13,0.35,0.22,0.6,0.32,0.86c-0.4,0.22-0.78,0.43-1.4,0.76
		c-0.44-0.02-0.48-1.69-1.53-0.78c-1.07-0.68-2.13-1.25-3.07-1.97c-0.88-0.67-1.67-1.48-2.42-2.29c-0.86-0.92-1.65-1.92-2.47-2.89
		c-1.11-1.3-2.34-2.52-3.31-3.92c-0.61-0.88-1.11-1.95-0.72-3.14c0.07-0.22,0.11-0.49,0.06-0.71c-0.37-1.61,0.24-3.14,0.41-4.7
		c0.05-0.42,0.29-0.82,0.41-1.23c0.09-0.3,0.2-0.61,0.2-0.91c-0.01-1.4,0.72-2.36,2.06-2.61c0.78-0.14,1.57-0.14,2.28-0.62
		c0.24-0.16,0.69,0.02,1.04,0.02c0.63-0.01,1.28,0.04,1.88-0.1c0.52-0.12,0.9-0.01,1.36,0.18c2.21,0.89,3.49,2.84,5.1,4.4
		c0.8,0.77,1.53,1.63,2.25,2.48c0.87,1.03,1.96,1.75,3.16,2.33c0.74,0.35,1.21,0.86,1.41,1.66c0.14,0.53,0.3,1.07,0.84,1.39
		c0.6,0.36,0.31,1.04,0.37,1.55c0.08,0.68-0.24,1.41-0.13,2.07C124.99,264.85,125.4,265.59,125.72,266.41z"/>
	<path d="M117.28,348.87c0.02,0.96-0.32,1.45-0.98,1.78C116.58,350.13,116.87,349.61,117.28,348.87z"/>
	<path d="M173.97,211c0.13,0.25,0.26,0.51,0.45,0.86c-0.23-0.03-0.4-0.01-0.42-0.06c-0.11-0.23-0.17-0.48-0.26-0.72
		C173.82,211.05,173.9,211.02,173.97,211z"/>
</g>
</svg>
