<?xml version="1.0" encoding="utf-8"?>
<!-- Generator: Adobe Illustrator 26.5.0, SVG Export Plug-In . SVG Version: 6.00 Build 0)  -->
<svg version="1.1" xmlns="http://www.w3.org/2000/svg" xmlns:xlink="http://www.w3.org/1999/xlink" x="0px" y="0px"
	 viewBox="0 0 420.36 250.56" style="enable-background:new 0 0 420.36 250.56;" xml:space="preserve">
<style type="text/css">
	.st0{fill:#FFFFFF;}
</style>
<g id="Vrstva_2">
	<polygon class="st0" points="184.13,54.91 350.43,50.96 344.96,76.04 290.57,81.52 308.07,185.15 308.11,199.51 210.18,205.95 
		191.96,117.52 184.13,67.04 	"/>
</g>
<g id="Vrstva_1">
	<g>
		<path d="M351.77,78.69c0.1,0.21,0.21,0.42,0.29,0.59c-0.53,0.34-1.02,0.7-1.55,0.97c-0.25,0.12-0.6,0.08-0.9,0.07
			c-0.45-0.02-0.9-0.08-1.34-0.12c-0.02,0.1-0.03,0.19-0.05,0.29c0.46,0.13,0.92,0.27,1.44,0.42c-0.45,0.6-1.51-0.41-1.73,0.62
			c0.18,0.61,1.27-0.12,1.16,0.92c-0.75-0.04-1.41,0.65-2.25,0.27c-0.12-0.06-0.37-0.04-0.46,0.05c-0.7,0.68-1.58,0.4-2.39,0.46
			c-1.19,0.1-2.39,0.14-3.59,0.15c-1.16,0-2.32,0.02-3.46-0.14c-3.43-0.48-6.84-0.34-10.27-0.05c-2.1,0.18-4.22,0.14-6.33,0.24
			c-2.03,0.1-4.06,0.2-6.08,0.4c-2.27,0.23-4.53,0.28-6.8,0.12c-2.34-0.17-4.69-0.18-7.02,0.15c-0.74,0.11-1.5,0.04-2.24,0.1
			c-0.34,0.02-0.68,0.15-1.14,0.25c0.11,0.58,0.13,1.1,0.31,1.56c0.61,1.57,0.88,3.21,1.04,4.88c0.01,0.08,0.01,0.16,0.03,0.24
			c0.66,3.09,1.03,6.23,1.94,9.27c0.35,1.17,0.37,2.44,0.48,3.67c0.11,1.23,0.05,2.48,0.24,3.7c0.38,2.37,0.21,4.77,0.45,7.14
			c0.11,1.15,0.04,2.28,0.06,3.42c0.01,0.67,0.09,1.3,0.42,1.95c0.36,0.71,0.45,1.57,0.61,2.38c0.28,1.4,0.51,2.81,0.77,4.21
			c0.27,1.45,0.67,2.88,0.81,4.34c0.19,1.98,0.17,3.98,0.29,5.96c0.03,0.48-0.31,1.21,0.63,1.34c0.1,0.01,0.18,0.5,0.19,0.77
			c0.02,1.42-0.02,2.85,0.02,4.27c0.02,0.71,0.22,1.41,0.25,2.12c0.16,3.79,0.3,7.58,0.44,11.37c0.01,0.22,0.03,0.44,0.24,0.65
			c0-2.52,0-5.03,0-7.55c0.07-0.01,0.13-0.02,0.2-0.04c0.06,0.19,0.17,0.38,0.18,0.57c0.14,2.94,0.44,5.88,0.15,8.83
			c-0.07,0.66,0.07,1.33,0.08,2c0.03,2.14-0.11,4.3,0.12,6.42c0.15,1.39,0.34,2.81,1,4.15c0.5,1.01,0.59,2.23,0.76,3.37
			c0.3,2.09,0.58,4.18,0.76,6.29c0.07,0.88,0.17,1.8-0.14,2.67c-0.14,0.4-0.33,0.78-0.52,1.23c-0.33-0.2-0.55-0.33-0.79-0.47
			c-0.08,0.36-0.05,0.73-0.23,0.94c-0.18,0.21-0.55,0.25-0.83,0.37c-0.21,0.63-0.37,1.27-0.99,1.93c0.01-1.03,0.2-1.88-0.5-2.7
			c-0.31,0.35-0.58,0.66-0.86,0.96c-0.5-0.16-0.86-0.14-1.11,0.47c-0.21,0.49-0.64,0.89-1.02,1.28c-0.7,0.72-0.71,1.51-0.34,2.48
			c-0.22,0-0.46,0.07-0.58-0.01c-0.43-0.32-0.82-0.69-1.34-1.13c0.38-0.07,0.6-0.11,0.97-0.17c-0.76-0.41-0.12-1.55-1.14-1.75
			c-0.73,0.83-0.63,2.47,0.06,3.47c-0.92,0.25-1.8,0.5-2.84,0.78c0-0.01-0.02,0.19-0.12,0.35c-0.3,0.44-0.6,0.48-0.98,0.14
			c-0.42-0.38-0.6-1.01-1.3-1.11c-0.13-0.02-0.25-0.55-0.28-0.86c-0.23-2.34-0.35-4.7-0.68-7.03c-0.29-2.05-0.39-4.13-1.04-6.16
			c-0.68-2.11-0.71-4.37-0.68-6.6c0.03-2.27,0.03-4.54,0.05-6.81c0-0.08,0.01-0.16,0-0.24c-0.58-3.56-0.25-7.17-0.58-10.74
			c-0.35-3.8-0.46-7.63-0.84-11.43c-0.2-2.02-0.68-4.01-1.14-5.99c-1.15-4.99-1.69-10.05-2.16-15.15
			c-0.41-4.48-0.32-8.99-1.12-13.44c-0.84-4.67-1.44-9.39-2.18-14.08c-0.28-1.77-0.78-3.5-1.01-5.27c-0.13-0.96,0.04-1.97,0.14-2.95
			c0.05-0.46,0.26-0.91,0.38-1.36c0.16-0.61-0.19-1.38,0.58-1.8c0.04-0.02,0.05-0.16,0.03-0.23c-0.21-1.04,0.21-2.06,0.15-3.17
			c-0.61,0-1.16,0-1.83,0c0.36-0.55,0.78-0.69,1.27-0.7c0.68-0.01,1.02-0.37,1.06-1.04c0.01-0.15,0.01-0.41,0.09-0.45
			c1.29-0.54,1.07-2.14,2.06-2.89c0.17-0.13,0.31-0.38,0.35-0.59c0.07-0.41,0.26-0.55,0.64-0.73c0.43-0.2,0.77-0.65,1.1-1.02
			c0.29-0.32,0.49-0.71,0.77-1.05c0.29-0.36,0.62-0.57,1.14-0.47c2.75,0.52,5.48-0.13,8.21-0.2c0.91-0.02,1.83-0.12,2.74-0.18
			c3.31-0.22,6.61-0.36,9.92,0.01c1.42,0.16,2.87,0.03,4.31-0.05c2.51-0.12,5.02-0.3,7.53-0.45c2.34-0.15,4.69-0.33,7.03-0.43
			c0.91-0.04,1.82,0.17,2.73,0.17c0.67,0,1.33-0.2,2-0.2c1.03,0,2.07,0.11,3.1,0.12c0.7,0.01,1.4-0.06,2.18-0.1
			c0.58-2.31,0.76-4.48,0.43-6.83c-0.97-0.05-1.87-0.1-2.78-0.16c-2.99-0.21-5.97-0.44-8.96-0.64c-1.87-0.13-3.74-0.2-5.61-0.35
			c-1.35-0.1-2.69-0.3-4.04-0.41c-1.55-0.12-3.1-0.23-4.65-0.28c-3.55-0.1-7.11-0.31-10.66-0.2c-3.32,0.1-6.6-0.51-9.91-0.35
			c-3.67,0.18-7.33,0.46-11,0.7c-2.75,0.18-5.5,0.35-8.24,0.54c-2.02,0.14-4.05,0.34-6.07,0.44c-1.94,0.1-3.89,0.11-5.83,0.18
			c-1.19,0.04-2.39,0.11-3.58,0.19c-2.84,0.19-5.65-0.04-8.46-0.35c-1.14-0.13-2.3-0.16-3.44-0.25c-0.51-0.04-1.01-0.14-1.52-0.21
			c-0.15-0.02-0.32-0.07-0.46-0.05c-1.82,0.31-3.65,0.14-5.48,0.17c-1.83,0.02-3.66,0.18-5.5,0.2c-1.99,0.02-3.98-0.03-5.97-0.08
			c-4.21-0.12-8.37,0.29-12.53,0.9c-3.36,0.5-6.76,0.61-10.15,0.22c-3.12-0.36-6.22-0.11-9.32,0.28c-1.18,0.15-2.35,0.35-3.53,0.49
			c-0.97,0.12-1.86,0.4-2.78,1.1c0.1,1.5,0.21,3.08,0.31,4.67c0.02,0.4,0.04,0.79,0.02,1.19c-0.01,0.37,0.14,0.61,0.32,0.93
			c0.46,0.82,0.8,1.8,0.42,2.72c-0.59,1.42-0.16,2.8-0.18,4.19c0.08,0,0.15,0,0.23,0c-0.01-0.27-0.03-0.54-0.04-0.82
			c0.11,0.03,0.22,0.03,0.24,0.07c0.12,0.25,0.26,0.51,0.3,0.77c0.26,1.73,0.48,3.47,0.74,5.2c0.06,0.43,0.18,0.85,0.28,1.27
			c0.66,2.9,1.56,5.76,1.54,8.79c0,0.7,0.14,1.42,0.33,2.11c0.35,1.31,0.14,2.62,0.1,3.93c-0.01,0.27-0.02,0.55,0.02,0.82
			c0.22,1.45,0.49,2.9,0.67,4.36c0.29,2.34,0.86,4.6,1.46,6.88c0.47,1.76,0.65,3.6,1.09,5.37c0.4,1.58,0.33,3.25,0.99,4.77
			c0.11,0.25,0.08,0.55,0.14,0.82c0.17,0.78,0.35,1.55,0.52,2.32c0.3,1.36,0.6,2.72,0.88,4.08c0.4,1.95,0.81,3.89,1.17,5.85
			c0.27,1.46,0.85,2.89,0.63,4.42c-0.03,0.18,0.04,0.42,0.15,0.56c0.96,1.16,0.84,2.62,1.08,3.97c0.45,2.59,0.64,5.22,1.14,7.79
			c1.01,5.12,1.89,10.26,2.78,15.39c0.24,1.41,0.32,2.84,0.54,4.25c0.14,0.94,0.46,1.87,0.57,2.81c0.22,1.82,0.39,3.65,0.49,5.48
			c0.11,1.98,0.16,3.97,0.18,5.96c0.01,0.67-0.15,1.34-0.21,2.01c-0.14,1.38-0.43,2.77,0.43,4.06c0.16,0.25,0.16,0.61,0.21,0.92
			c0.17,1.06,0.37,2.11,0.48,3.17c0.07,0.64,0.35,0.9,0.97,0.95c1.66,0.12,3.32,0.28,4.98,0.44c1.55,0.15,3.11,0.26,4.64,0.49
			c1.13,0.17,2.22,0.57,3.34,0.76c4.11,0.71,8.25,0.69,12.41,0.49c2.59-0.13,5.19,0.08,7.79,0.05c2.31-0.03,4.63-0.14,6.93-0.29
			c5.1-0.33,10.21-0.65,15.3-1.08c3.58-0.3,7.14-0.79,10.72-1.16c2.34-0.24,4.69-0.44,7.04-0.65c3.62-0.32,7.23-0.68,10.85-0.92
			c2.53-0.17,5.08-0.15,7.61-0.22c0.12,0,0.28-0.06,0.35-0.01c1.16,0.84,2.75,0.66,3.87,1.65c0.39,0.35,0.99,0.45,1.53,0.68
			c0.43,1.02,0.43,1.02-0.41,1.32c0.07,1.03,0.15,2.08,0.22,3.13c-0.75,0.27-0.52-0.99-1.29-0.73c-0.44,0.15-0.96,0.06-1.45,0.07
			c0,0.1,0,0.19,0,0.29c0.54,0,1.07,0,1.75,0c-0.37,0.64-1.47,0.63-0.97,1.66c-1.84-0.02-3.68-0.21-5.49,0.62
			c-0.01,0.3-0.03,0.72-0.06,1.18c-0.26,0.08-0.52,0.16-0.82,0.26c0,0.26,0,0.52,0,0.76c0.37,0.13,0.68,0.25,1,0.36
			c-2.61,0.23-5.21,0.19-7.78,0.73c1.5,0,3,0,4.5,0c0.03,0.54-0.19,0.55-0.66,0.56c-1.87,0.02-3.73,0.15-5.6,0.25
			c-0.15,0.01-0.3,0.09-0.44,0.18c1.9,0.12,3.81-0.25,5.71,0.1c-0.39,0.42-0.88,0.44-1.36,0.47c-1.95,0.09-3.91,0.15-5.86,0.26
			c-0.71,0.04-1.41,0.23-2.12,0.31c-0.42,0.05-0.85,0.01-1.27,0.05c-0.71,0.06-1.42,0.18-2.13,0.24c-3.06,0.27-6.13,0.52-9.19,0.82
			c-1.14,0.11-2.27,0.35-3.4,0.53c0,0.08-0.01,0.16-0.01,0.24c0.24,0.03,0.48,0.1,0.71,0.08c1.83-0.17,3.65-0.38,5.48-0.52
			c1.67-0.12,3.36-0.35,5.01-0.19c1.66,0.16,3.23,0.12,4.83-0.31c0.37-0.1,0.8,0.02,1.21,0.17c-0.86,0.6-1.84,0.74-2.8,0.84
			c-3.18,0.33-6.36,0.57-9.54,0.87c-3.18,0.31-6.35,0.68-9.53,0.98c-4,0.38-8.02,0.68-12.02,1.06c-2.26,0.21-4.5,0.58-6.76,0.77
			c-3.69,0.31-7.38,0.47-11.08,0.29c-2.51-0.13-5.03-0.03-7.53,0.24c-0.54,0.06-1.08,0.01-1.63,0.01c-0.01,0.1-0.02,0.21-0.03,0.31
			c0.63,0.09,1.26,0.18,1.89,0.26c-1.78,0.46-3.58,0.49-5.36,0.32c-3.5-0.34-6.98-0.85-10.48-1.17c-3.3-0.31-6.62-0.46-9.92-0.69
			c-0.52-0.03-1.04-0.08-1.55-0.1c-0.54-0.03-0.93-0.17-1.29-0.68c-0.39-0.57-0.99-1.01-1.56-1.43c-0.37-0.27-0.52-0.55-0.52-0.99
			c0-0.23-0.02-0.56-0.16-0.66c-0.64-0.48-0.4-0.95,0.01-1.41c-0.46-0.41-0.84-0.75-1.09-0.98c0.12-2.51-0.82-4.68-1.1-6.98
			c0.1-0.36,0.77-0.49,0.52-1.11c-0.57-1.43-0.16-2.92-0.29-4.38c-0.19-2.13-0.41-4.26-0.59-6.38c-0.06-0.63-0.1-1.28-0.05-1.91
			c0.09-1.43,0.11-2.84-0.15-4.26c-0.25-1.37-0.37-2.76-0.73-4.14c-0.04,0.24-0.09,0.48-0.18,1c-0.41-1.26-0.54-2.26-0.47-3.29
			c0.01-0.2,0.34-0.37,0.52-0.56c-0.03,0.62-0.06,1.24-0.1,1.86c0.03,0,0.06,0,0.1,0c0-0.62,0-1.24,0-1.86
			c-0.1-0.75-0.24-1.5-0.28-2.25c-0.08-1.32-0.91-2.36-1.26-3.57c-0.44-1.5-0.78-3.04-1.05-4.58c-0.5-2.86-0.89-5.74-1.37-8.61
			c-0.14-0.83-0.42-1.63-0.63-2.44c-0.03-0.11-0.09-0.24-0.06-0.34c0.55-1.93-0.67-3.6-0.82-5.44c-0.15-1.78-0.55-3.55-0.9-5.31
			c-1.26-6.21-2.47-12.44-3.84-18.63c-0.71-3.19-1.77-6.3-2.57-9.47c-0.44-1.73-0.71-3.51-0.99-5.28c-0.23-1.45-0.37-2.92-0.54-4.38
			c-0.17-1.46-0.17-2.97-0.56-4.37c-0.25-0.89-0.34-1.75-0.44-2.64c-0.11-0.95-0.18-1.9-0.27-2.85c-0.02-0.16-0.13-0.32-0.1-0.46
			c0.13-0.66-0.77-0.94-0.53-1.72c0.15-0.5-0.17-1.13-0.27-1.71c-0.11-0.63-0.23-1.26-0.28-1.89c-0.14-1.58-0.23-3.17-0.37-4.75
			c-0.07-0.75-0.19-1.5-0.3-2.25c-0.03-0.19-0.05-0.48-0.18-0.55c-0.78-0.43-0.55-1.21-0.67-1.85c-0.17-0.89-0.25-1.8-0.33-2.71
			c-0.11-1.38-0.22-2.77-0.27-4.15c-0.05-1.23,0-2.46-0.03-3.69c-0.02-0.84-0.26-1.16-0.98-1.42c0.13-0.66,0.18-1.34,0.42-1.95
			c0.22-0.58,0.64-1.08,0.96-1.63c0.16-0.27,0.31-0.55,0.44-0.84c0.22-0.5,0.32-1.09,0.64-1.5c0.67-0.87,0.79-1.88,0.61-2.83
			c-0.27-1.49,0.27-2.56,1.27-3.51c0.56-0.53,1.03-1.07,1.16-1.89c0.05-0.31,0.43-0.68,0.74-0.82c1-0.45,1.29-0.63,1.86-1.46
			c3.82-0.48,7.6-1.02,11.39-1.4c3.52-0.36,7.06-0.55,10.59-0.82c0.28-0.02,0.61,0.03,0.83-0.09c0.77-0.44,1.53-0.21,2.29-0.05
			c0.37,0.08,0.66,0.1,0.99-0.16c0.29-0.22,0.7-0.35,1.07-0.39c2.3-0.24,4.61-0.48,6.92-0.66c2.03-0.16,4.06-0.22,6.09-0.35
			c0.87-0.05,1.75-0.17,2.62-0.24c0.6-0.04,1.19-0.07,1.79-0.05c2.55,0.08,5.11,0.32,7.65,0.23c1.17-0.04,2.4-0.1,3.59-0.54
			c0.73-0.27,1.67-0.2,2.47-0.04c1.3,0.25,2.62,0.23,3.73-0.32c0.68-0.34,1.22-0.3,2.08-0.35c-0.59,0.18-0.95,0.29-1.3,0.39
			c0.1,0.53,0.36,0.44,0.64,0.34c0.96-0.36,1.9-0.77,2.96-0.63c0.44,0.06,0.88,0.1,1.57,0.17c-0.79,0.13-1.33,0.22-1.87,0.3
			c0,0.07-0.01,0.13-0.01,0.2c0.15,0.05,0.29,0.12,0.44,0.13c1.4,0.06,2.7-0.68,4.14-0.5c1.38,0.18,2.79,0.23,4.18,0.29
			c1.48,0.06,2.96,0.11,4.43,0.06c2.75-0.09,5.5-0.25,8.25-0.4c2.57-0.14,5.14-0.33,7.71-0.47c2.46-0.14,4.93-0.23,7.4-0.39
			c0.99-0.06,1.97-0.27,2.96-0.34c4.46-0.33,8.91-0.66,13.39-0.27c1.47,0.13,2.96,0.08,4.43,0.14c4.47,0.16,8.94,0.27,13.4,0.51
			c4.07,0.22,8.13,0.61,12.19,0.91c3.14,0.24,6.29,0.46,9.43,0.68c0.66,0.05,1.21-0.03,1.83-0.52c0.5-0.39,0.91-0.68,1.25-1.26
			c0.37-0.61,0.88-1.29,1.77-1.35c0.19-0.01,0.39-0.07,0.56-0.16c0.66-0.34,1.31-0.42,1.97,0.17c0.21-0.41,0.37-0.73,0.6-1.18
			c1.9,1.28,1.55,3.43,2.22,5.15c0.24-0.62,0-1.44,1.1-1.62c0.11,0.39,0.28,0.81,0.33,1.25c0.09,0.74,0.27,1.4,0.97,1.74
			c-0.08,1.28-0.62,2.47-0.25,3.74c0.11,0.37-0.13,0.84-0.2,1.26c-0.06,0.38-0.22,0.81-0.12,1.15c0.55,1.9,0.26,3.81,0.13,5.71
			c-0.11,1.46-0.33,2.9-0.13,4.36c0.03,0.22-0.08,0.46-0.12,0.69c-0.05,0.27-0.23,0.59-0.15,0.81c0.43,1.15-0.01,2.23-0.17,3.33
			c-0.02,0.11,0.01,0.24,0.06,0.34c0.4,0.74,0.11,1.36-0.36,2.07c-0.23-0.36-0.43-0.67-0.72-1.12c-0.1,0.93-0.19,1.74-0.28,2.56
			c0.03,0.01,0.07,0.02,0.1,0.04c0.09-0.28,0.18-0.57,0.35-1.09c0.18,1.35,0.01,2.42-0.46,3.51c0.33,0,0.63,0,0.89,0
			c0.49,0.74-0.26,0.64-0.54,0.9c0.11,0.23,0.23,0.47,0.4,0.81c-0.69,0.18-1.29,0.33-2.05,0.53
			C351.61,78.22,351.69,78.46,351.77,78.69L351.77,78.69z M280.3,205.73c-0.76,0.11-1.52,0.22-2.27,0.34
			c0.6,0.09,1.21,0.12,1.81,0.07C280,206.13,280.15,205.87,280.3,205.73c0.3,0.24,0.59,0.55,1.08,0.1
			C280.96,205.79,280.63,205.76,280.3,205.73z M288.94,205.42c-1.37,0.01-2.81-0.66-4.23,0.31
			C286.2,205.62,287.57,205.52,288.94,205.42z M282.58,205.76c0,0.03,0,0.06,0,0.09c0.19,0,0.38,0,0.58,0c0-0.03,0-0.06,0-0.09
			C282.97,205.76,282.78,205.76,282.58,205.76z M294.91,190.32c0.09-0.01,0.17-0.01,0.26-0.02c-0.06-0.17-0.12-0.34-0.18-0.5
			C294.97,189.97,294.94,190.15,294.91,190.32z"/>
		<path d="M81.42,179.51c-0.34-0.14-0.55-0.22-0.86-0.35c0.5-0.57,0.62-1.18,0.33-1.84c-0.05-0.11-0.04-0.29-0.12-0.33
			c-1.07-0.55-0.82-1.53-0.75-2.41c0.09-1.2-0.17-2.35-0.4-3.51c-0.19-0.96-0.29-1.94-0.39-2.91c-0.11-1.11-0.25-2.18-0.69-3.23
			c-0.26-0.62-0.11-1.42-0.08-2.13c0.13-2.82,0.29-5.64,0.43-8.46c0.01-0.2,0-0.4-0.03-0.6c-0.14-1.02-0.38-2.04-0.4-3.06
			c-0.02-0.96,0.28-1.93,0.3-2.89c0.04-1.86-0.01-3.73-0.02-5.6c0-0.95-0.05-1.91,0.03-2.86c0.27-3.15,0.07-6.27-0.39-9.39
			c-0.2-1.37-0.3-2.75-0.43-4.12c-0.02-0.16-0.01-0.32,0.01-0.48c0.35-2.25,0.18-4.51,0.09-6.77c-0.13-3.31-0.1-6.62-0.17-9.93
			c-0.02-0.92-0.08-1.84-0.19-2.74c-0.11-0.85-0.31-0.99-1.21-0.9c-2.34,0.24-4.67,0.53-7.01,0.75c-1.51,0.14-3.05,0.02-4.52,0.33
			c-1.75,0.36-3.49,0.32-5.23,0.39c-5.43,0.22-10.86,0.22-16.29-0.02c-1.79-0.08-3.59-0.21-5.39-0.14c-1.3,0.05-2.59,0.39-3.88,0.61
			c-0.12,0.02-0.24,0.04-0.35,0.06c-2.29,0.28-4.59,0.52-6.88,0.86c-1.8,0.26-3.35-0.4-4.93-1.06c-0.51-0.21-0.99-0.51-1.51-0.64
			c-0.66-0.17-1.05-0.53-1.2-1.17c-0.12-0.5-0.22-1.01-0.29-1.53c-0.38-2.52-0.75-5.05-1.14-7.57c-0.62-4.07-1.21-8.13-1.09-12.27
			c0.07-2.43,0.18-4.87,0.19-7.3c0-1.02-0.28-2.04-0.33-3.07c-0.03-0.66-0.04-1.44,0.27-1.97c0.71-1.21,0.97-2.57,1.55-3.82
			c0.53-1.14,0.85-2.38,1.8-3.32c0.37-0.37,0.57-0.93,0.8-1.43c0.41-0.88,1.14-1.26,1.75-1.02c0.69-0.3,1.33-0.45,1.8-0.81
			c1.38-1.07,2.98-0.58,4.46-0.63c4.79-0.16,9.59-0.2,14.38-0.18c2.59,0.01,5.19,0.17,7.77,0.41c5.53,0.52,11.07,0.9,16.62,0.87
			c4.51-0.03,9.03-0.2,13.54-0.3c2.4-0.05,4.8-0.04,7.19-0.13c2.19-0.08,4.38-0.27,6.57-0.39c2.51-0.13,5.03-0.2,7.54-0.35
			c2.11-0.13,4.23-0.28,6.32-0.55c5.83-0.73,11.65-1.39,17.54-1.39c3.31,0,6.62-0.38,9.93-0.57c3.95-0.22,7.89-0.52,11.85-0.17
			c1.83,0.16,3.67,0.12,5.51,0.12c1.15,0,1.26-0.17,1.09-1.38c-0.02-0.15,0-0.3,0-0.51c0.29,0.03,0.51,0.05,0.62,0.06
			c0.97-1.47,1.12-3.08,1-4.79c0.33,0,0.63,0,1.03,0c0.05,0.31,0.06,0.67,0.18,0.99c0.1,0.26,0.34,0.47,0.52,0.71
			c0.51-0.26,0.23-1.1,1-0.98c0.44,0.24,0.03,1.2,0.78,1.11c0.41-0.05,0.78-0.45,1.27-0.76c0.07,0.36,0.05,0.73,0.22,0.99
			c0.14,0.21,0.49,0.29,0.81,0.46c-0.16,0.3-0.32,0.59-0.52,0.96c0.25,0.07,0.46,0.13,0.82,0.24c0.05-0.79,0.09-1.47,0.14-2.19
			c0.28,0.14,0.51,0.26,0.93,0.48c0,0.59,0.03,1.3-0.01,2.01c-0.04,0.55,0.2,0.81,0.7,0.89c-0.08,1.73,0.32,2.17,2.41,2.67
			c0.17,0.58,0.34,1.13,0.49,1.69c0.05,0.19,0.15,0.44,0.08,0.57c-0.81,1.33-0.14,2.63,0.04,3.94c0.25,1.88,0.53,3.75,0.81,5.62
			c0.12,0.82,0.26,1.63,0.45,2.44c0.51,2.12,1.12,4.22,1.55,6.35c0.24,1.2,0.26,2.46,0.31,3.7c0.06,1.45,0.04,2.9,0.07,4.35
			c0,0.19,0.06,0.39,0.12,0.58c0.4,1.21,0.32,2.45,0.07,3.65c-0.21,0.98-0.11,1.93,0.1,2.83c0.2,0.87,0.23,1.71,0.25,2.57
			c0.05,1.82,0.65,3.52,1.1,5.25c0.44,1.73,1.02,3.43,1.3,5.19c0.29,1.87,0.04,3.84,0.49,5.65c0.6,2.4,0.07,4.87,0.75,7.2
			c0.48,1.64,0.16,3.32,0.5,4.95c0.05,0.22,0.03,0.52-0.09,0.68c-0.5,0.66-0.27,1.3,0.04,1.91c0.28,0.55,0.57,1.05,0.07,1.64
			c-0.11,0.13-0.12,0.38-0.09,0.56c0.32,2.17,0.54,4.33,0.35,6.53c-0.06,0.73,0.17,1.49,0.26,2.24c0.24,2.1,0.31,4.23,0.75,6.28
			c0.62,2.87,0.48,5.76,0.64,8.64c0.19,3.56,0.29,7.12,0.28,10.68c-0.01,3.61,0.12,7.21,0.19,10.81c0.02,1.11,0.05,2.22,0.02,3.33
			c-0.01,0.26-0.25,0.52-0.41,0.84c0.58,0.13,0.41,0.58,0.36,1.01c-0.08,0.75,0.01,1.48-0.74,2.09c-0.36,0.29-0.33,1.09-0.43,1.66
			c-0.08,0.46-0.05,0.95-0.14,1.41c-0.3,1.49-0.44,2.95,0.22,4.39c0.09,0.2,0.14,0.52,0.04,0.67c-0.45,0.71-0.22,1.48-0.27,2.22
			c-0.07,1.15-0.09,2.31-0.1,3.47c0,0.51,0.1,1.02,0.11,1.54c0.07,2.3,0.13,4.6,0.19,6.9c0,0.12-0.02,0.25,0.02,0.36
			c0.58,1.62,0.46,3.31,0.53,4.98c0.01,0.23,0.14,0.45,0.21,0.67c-0.99,0.38-0.87,0.39-0.92,1.32c-0.04,0.8,0.2,1.75-0.9,2.28
			c-0.5,0.24-0.75,1.02-1.11,1.55c-0.28-0.11-0.45-0.18-0.51-0.21c-0.52,0.29-0.97,0.54-1.41,0.78c0.63,1.03,0.98,1.15,2.12,0.61
			c0.11,0.15,0.25,0.34,0.39,0.54c-0.02,0.05-0.03,0.17-0.07,0.18c-0.85,0.21-1.68,0.51-2.54,0.59c-0.89,0.08-1.71,0.2-2.44,0.79
			c-0.33,0.26-0.77,0.38-1.16,0.56c0.18,1.12,1.24,1.55,1.83,2.35c-1.1,0.59-1.68,0.61-2.73,0.18c-0.24-0.1-0.55-0.08-0.82-0.09
			c-0.82-0.01-1.65,0-2.55,0c0.25-0.79,0.85-0.65,1.34-0.95c-0.62-0.12-1.23-0.33-1.86-0.35c-0.87-0.03-1.77-0.01-2.63,0.14
			c-2.46,0.44-4.97,0.3-7.44,0.67c-2.87,0.43-5.76,0.81-8.64,1.21c-0.83,0.11-1.67,0.18-2.49,0.32c-0.66,0.11-1.31,0.31-1.96,0.47
			c-0.19,0.05-0.39,0.17-0.57,0.15c-1.83-0.21-3.55,0.25-5.23,0.9c-0.18,0.07-0.39,0.08-0.59,0.07c-1.64-0.06-4.32,0.61-5.89,1
			c-1,0.25-2.03,0.6-3.07,0.64c-0.45,0.02-0.81,0.04-1.2,0.27c-0.23,0.13-0.57,0.22-0.81,0.16c-1.25-0.34-2.29,0.15-3.37,0.69
			c-0.67,0.33-1.45,0.41-2.19,0.6c-0.32,0.08-0.65,0.15-0.46,0.67c-1.42,0.33-2.79,0.77-4.21,1.34c0.47,0.73,1.08,0.02,1.58,0.48
			c-0.82,0.24-1.57,0.48-2.33,0.69c-1.18,0.33-2.36,0.68-3.55,0.98c-2.43,0.61-4.86,1.18-7.29,1.77c-1.07,0.26-2.14,0.53-3.38,0.84
			c0.77-0.04,1.39-0.06,2.02-0.09c-2.75,0.93-5.58,0.66-8.39,0.72c1.67-0.51,3.4-0.44,5.12-0.61c-0.44,0-0.87-0.02-1.31,0
			c-1.91,0.09-3.82,0.25-5.74,0.27c-0.85,0.01-1.7-0.26-2.63-0.41c-0.21-1.03-0.7-2.01-0.73-3.11c-0.01-0.43-0.8-1.73-1.2-1.85
			c-0.45-0.13-0.49-0.39-0.53-0.79c-0.27-2.65-0.55-5.3-0.88-7.94c-0.18-1.45-0.46-2.89-0.74-4.33c-0.29-1.5-0.27-2.97,0.05-4.47
			c0.16-0.75,0.18-1.52-0.57-2.15c-0.3-0.25-0.33-0.93-0.33-1.41c0-1.79,0.07-3.58,0.1-5.37c0-0.16,0-0.33-0.05-0.47
			c-0.62-1.84-0.32-3.68-0.03-5.53c0.07-0.47,0.06-0.95,0.06-1.43c-0.02-1.89,0.01-3.78-0.09-5.66c-0.07-1.33-0.42-2.64-0.43-3.97
			c-0.01-1.39-0.83-2.66-0.52-4.09c0.04-0.16-0.1-0.38-0.19-0.54C80.89,180.86,80.89,180.22,81.42,179.51z M93.94,180.92
			c0.68,0.76,0.53,1.64,0.35,2.52c-0.16-0.35-0.15-0.72-0.23-1.07c-0.03-0.14-0.24-0.24-0.37-0.36c-0.09,0.15-0.27,0.32-0.24,0.45
			c0.06,0.34,0.33,0.67,0.31,0.99c-0.06,1.48-0.13,2.96,0.28,4.42c0.06,0.2-0.09,0.46-0.13,0.7c-0.1,0.63-0.25,1.26-0.28,1.89
			c-0.03,0.58,0.07,1.16,0.12,1.8c0.18-0.14,0.28-0.21,0.43-0.33c-0.06,0.31-0.14,0.56-0.16,0.82c-0.16,1.75-0.26,3.52-0.48,5.26
			c-0.16,1.28-0.32,2.51-0.23,3.84c0.2,3.02,0.56,6.02,0.99,9.01c0.08,0.55,0.29,1.13,0.2,1.65c-0.25,1.52,0.13,3.01,0.08,4.52
			c-0.02,0.6,0.34,0.87,0.86,0.97c0.31,0.06,0.64,0.05,0.96,0.04c1.63-0.08,3.26-0.2,4.89-0.27c2.93-0.13,5.77-0.67,8.59-1.46
			c3.41-0.95,6.86-1.79,10.34-2.51c5.75-1.18,11.51-2.29,17.29-3.31c4.23-0.75,8.5-1.33,12.75-1.97c1.29-0.19,2.59-0.33,3.89-0.51
			c1.49-0.2,2.98-0.42,4.48-0.62c0.63-0.08,1.27-0.12,1.9-0.21c1.28-0.19,2.64,0.04,3.85-0.63c0.38-1.6,0.25-3.19,0.14-4.78
			c-0.12-1.71-0.29-3.41-0.36-5.12c-0.08-2.07,0.04-4.15-0.14-6.21c-0.3-3.37-0.03-6.71,0.34-10.04c0.33-2.98,0.62-5.95,0.13-8.94
			c-0.05-0.31-0.01-0.64,0.01-0.95c0.08-1.07,0.24-2.13,0.23-3.2c-0.03-2.16-0.13-4.31-0.24-6.47c-0.12-2.35-0.27-4.7-0.43-7.04
			c-0.03-0.43-0.03-0.99-0.29-1.25c-0.44-0.44-0.4-0.93-0.43-1.42c-0.07-1.59-0.11-3.19-0.17-4.78c-0.01-0.19,0-0.44-0.11-0.57
			c-0.91-1.15-0.72-2.49-0.57-3.77c0.08-0.72,0.04-1.4-0.06-2.1c-0.11-0.79-0.21-1.58-0.24-2.37c-0.05-1.26-0.05-2.55-0.82-3.59
			c-0.71-0.97-0.88-1.96-0.81-3.11c0.2-2.87-0.11-5.72-0.33-8.57c-0.02-0.21,0.04-0.42,0.08-0.78c0.41,0.58,0.72,1.02,1.04,1.48
			c0.04,0.48-0.52,1.1,0.36,1.61c0.14-1.47,0.05-2.81-0.1-4.15c-0.1-0.9-0.52-1.02-1.28-0.42c-0.07,0.05-0.11,0.15-0.22,0.32
			c0-0.36,0-0.58,0-0.75c0.45-0.15,0.85-0.28,1.24-0.4c-0.01-0.06-0.01-0.12-0.02-0.18c-0.43-0.11-0.85-0.22-1.14-0.3
			c0-0.43-0.02-0.73,0.01-1.02c0.01-0.09,0.14-0.17,0.27-0.31c0.24,0.2,0.46,0.39,0.68,0.58c0.06-0.03,0.12-0.06,0.19-0.09
			c-0.17-0.62-0.34-1.24-0.51-1.85c-0.07,0-0.14,0.01-0.22,0.01c-0.06,0.13-0.11,0.25-0.22,0.5c-0.27-0.85-0.34-1.75-0.8-2.34
			c-1.01-1.32-1.39-2.8-1.67-4.37c-0.1-0.57-0.18-1.06,0.43-1.56c-1.31-0.22-1.83-1.06-2.07-2.06c-0.13-0.52-0.03-1.11,0.01-1.66
			c0.11-1.47,0.27-2.93,0.37-4.39c0.13-2.02,0.55-4.01,0.4-6.06c-0.08-1.05,0.24-2.13,0.13-3.17c-0.24-2.36-0.22-4.77-1.14-7.03
			c-0.06-0.15-0.1-0.31-0.09-0.47c0.04-1.23-0.24-2.43-0.52-3.61c-0.2-0.85-0.42-1.71-0.77-2.5c-0.16-0.36-0.17-0.62-0.16-0.98
			c0.02-0.56,0.59-0.4,0.73-0.61c-0.11-0.55-0.19-1.01-0.29-1.52c-0.22,0-0.51,0-0.93,0c0.32-0.46,0.57-0.82,0.92-1.32
			c-1.11,0-2.02,0.01-2.93,0c-1.58-0.02-3.17-0.03-4.75-0.09c-1.8-0.06-3.59-0.27-5.39-0.23c-3.07,0.06-6.14,0.27-9.2,0.4
			c-4.67,0.2-9.34,0.34-14.01,0.58c-2.35,0.12-4.7,0.35-7.04,0.58c-3.02,0.3-6.02,0.88-9.04,0.92c-4.31,0.06-8.61,0.39-12.91,0.56
			c-2.98,0.12-5.95,0.42-8.94,0.23c-0.2-0.01-0.4,0.02-0.6,0.04c-1.3,0.09-2.61,0.22-3.91,0.25c-2.12,0.06-4.23,0.03-6.35,0.1
			c-3.39,0.1-6.77,0.37-10.17,0.18c-3.43-0.19-6.86-0.38-10.29-0.6c-0.83-0.05-1.65-0.31-2.48-0.38c-1.83-0.15-3.66-0.3-5.49-0.34
			c-3.27-0.08-6.55-0.09-9.82-0.12c-0.3,0-0.61,0.09-1.01,0.15c-0.26,5.65-0.74,11.24,0.82,16.88c1.41-0.1,2.76-0.12,4.1-0.29
			c3.18-0.4,6.36-0.57,9.57-0.42c2.91,0.14,5.83,0.35,8.74,0.34c4.4-0.01,8.8-0.05,13.18-0.31c4.86-0.29,9.71-0.87,14.57-1.27
			c1.19-0.1,2.41-0.13,3.58,0.05c1.13,0.17,2.22,0.58,3.3,0.31c0.53,0.57,1.06,1,1.42,1.55c0.54,0.84,1.38,1.64,0.75,2.83
			c-0.22,0.42-0.07,0.8,0.28,1.17c0.28,0.3,0.55,0.71,0.61,1.11c0.23,1.65,0.42,3.3,0.56,4.96c0.14,1.71,0.28,3.43,0.28,5.14
			c0,2.91-0.13,5.82-0.18,8.73c-0.03,1.92,0.02,3.84-0.01,5.75c-0.01,0.91-0.2,1.83-0.16,2.74c0.08,1.83,0.28,3.66,0.41,5.49
			c0.07,1.03,0.16,2.07,0.15,3.1c-0.02,2.14-0.12,4.28-0.14,6.43c-0.02,2.11,0,4.22,0.03,6.33c0.01,0.77,0.03,1.51-0.87,1.83
			c-0.04,0.01-0.03,0.15-0.05,0.27c0.37,0.1,0.66,0.24,0.59,0.75c-0.08,0.63-0.07,1.27-0.1,1.9c0,0.06-0.09,0.11-0.12,0.15
			c-0.18-0.09-0.36-0.18-0.6-0.29c0,0.5,0,0.87,0,1.27c0.24-0.14,0.42-0.25,0.83-0.49c-0.1,1.44-0.18,2.65-0.29,4.14
			c-0.13-0.74-0.21-1.2-0.3-1.67c-0.11,0-0.23,0.01-0.34,0.01c-0.19,1.47-0.39,2.95-0.61,4.68c0.42-0.51,0.66-0.8,0.9-1.09
			l-0.03-0.03c0.02,0.55,0.11,1.11,0.05,1.65c-0.21,1.94-0.11,3.87,0.23,5.78c0.18,0.97,0.49,1.96,0.44,2.92
			c-0.07,1.29,0.11,2.52,0.4,3.76c0.1,0.45,0.19,0.91,0.28,1.38c-0.31,0-0.49,0-0.78,0c0.11,0.68,0.17,1.31,0.31,1.91
			c0.26,1.08,0.58,2.15,0.84,3.22c0.09,0.38,0.21,0.81,0.12,1.16c-0.25,0.98,0.39,1.76,0.37,2.68c0.08-0.01,0.16-0.02,0.23-0.02
			c0-0.21,0-0.42,0.01-0.64L93.94,180.92z M157.28,219.57c0,0.1,0,0.19,0,0.29c0.27,0,0.54,0.02,0.81,0c1.29-0.13,2.57-0.25,3.86,0
			c0.42,0.08,0.95,0.22,1.28-0.42c-0.2-0.09-0.38-0.24-0.54-0.23C160.89,219.32,159.09,219.45,157.28,219.57z M150.86,220.71
			c0.02,0.11,0.05,0.23,0.07,0.34c1.09-0.46,2.4,0.1,3.6-0.96C153.15,220.32,152.01,220.52,150.86,220.71z M145.76,221.72
			c0-0.13,0-0.26,0-0.39c-0.87,0.11-1.73,0.22-2.6,0.32c0.01,0.1,0.02,0.2,0.03,0.3C144.05,221.88,144.9,221.8,145.76,221.72z
			 M142.5,218.32c0.6,0.06,1.26,0.32,1.83-0.33C143.58,217.6,143.05,218,142.5,218.32z M112.93,230.57
			c-0.03-0.14-0.06-0.29-0.1-0.43c-0.65,0.18-1.3,0.37-1.96,0.55c0.02,0.07,0.03,0.14,0.05,0.2
			C111.6,230.79,112.26,230.68,112.93,230.57z M134.7,223.01c0.04,0.15,0.07,0.3,0.11,0.45c0.44-0.17,0.89-0.34,1.33-0.52
			c-0.02-0.06-0.03-0.12-0.05-0.17C135.63,222.85,135.17,222.93,134.7,223.01z M148.33,220.93c0.95,0.27,0.95,0.27,1.39,0
			C149.35,220.93,148.95,220.93,148.33,220.93z M138.56,222.47c0.42,0.12,0.56,0.2,0.69,0.18c0.14-0.03,0.26-0.16,0.39-0.24
			c-0.03-0.06-0.05-0.11-0.08-0.17C139.32,222.3,139.08,222.35,138.56,222.47z M91.79,146.58c-0.05-0.04-0.1-0.08-0.15-0.12
			c-0.04,0.06-0.12,0.14-0.1,0.17c0.04,0.06,0.12,0.1,0.19,0.15C91.74,146.72,91.77,146.65,91.79,146.58z M141.44,221.88
			c0.02,0.08,0.04,0.15,0.05,0.23c0.17-0.04,0.34-0.08,0.5-0.12c-0.01-0.05-0.02-0.1-0.03-0.15
			C141.79,221.85,141.62,221.86,141.44,221.88z M137.09,222.66c0.02,0.07,0.04,0.14,0.06,0.2c0.17-0.06,0.34-0.13,0.51-0.19
			c-0.02-0.05-0.03-0.1-0.05-0.15C137.44,222.57,137.26,222.62,137.09,222.66z"/>
		<path d="M306.09,138.25c0.11,2.73,0.22,5.47,0.33,8.2c-0.07,0.01-0.13,0.02-0.2,0.03c-0.07-0.08-0.19-0.16-0.19-0.24
			c-0.14-2.58-0.27-5.16-0.39-7.74c0-0.09,0.11-0.19,0.16-0.28C305.89,138.23,305.99,138.24,306.09,138.25z"/>
		<path d="M305.56,135.34c-0.49-1.54-0.78-3.11-0.87-4.73C305.3,132.13,305.41,133.74,305.56,135.34z"/>
		<path d="M304.14,127.3c0.15,0.74,0.3,1.47,0.45,2.21c-0.09,0.02-0.19,0.04-0.28,0.05c-0.14-0.76-0.29-1.51-0.43-2.27
			C303.97,127.29,304.06,127.29,304.14,127.3z"/>
		<path d="M302.79,189.84c-0.21-0.68-0.12-0.95,0.25-1.04c0.09-0.02,0.23,0.15,0.35,0.23C303.23,189.25,303.07,189.47,302.79,189.84
			z"/>
		<path d="M305.87,136.67c0.02,0.32,0.04,0.65,0.07,1.1C305.52,137.27,305.52,137.27,305.87,136.67z"/>
		<path d="M162,222.18c-0.49,0-0.99,0-1.48,0c0-0.03,0-0.06-0.01-0.09c0.48,0,0.95,0,1.43,0C161.96,222.11,161.98,222.15,162,222.18
			z"/>
		<path d="M306.2,148.59c0-0.38,0-0.75,0-1.13c0.06-0.01,0.12-0.01,0.18-0.02c0.04,0.38,0.08,0.76,0.12,1.13
			C306.41,148.58,306.3,148.59,306.2,148.59z"/>
		<path d="M303.59,126.08c-0.09-0.31-0.37-0.6,0.1-1.24c0.06,0.57,0.1,0.89,0.13,1.21C303.74,126.06,303.66,126.07,303.59,126.08z"
			/>
		<path d="M195.3,172.83c0.02,0.21,0.04,0.42,0.06,0.64c-0.06,0-0.12,0.01-0.19,0.01c0-0.21,0-0.42,0-0.63
			C195.22,172.84,195.26,172.84,195.3,172.83z"/>
		<path d="M351.77,78.69c0.44,0.02,0.87,0.04,1.31,0.05c-0.02,0.1-0.03,0.21-0.05,0.31C352.61,78.94,352.19,78.81,351.77,78.69
			C351.77,78.69,351.77,78.69,351.77,78.69z"/>
		<path d="M177.44,183.02c-0.03,0.18-0.07,0.36-0.1,0.54c-0.04,0-0.08-0.01-0.13-0.01c0-0.18,0-0.36,0-0.55
			C177.29,183.01,177.37,183.01,177.44,183.02z"/>
		<path d="M196.06,178.76c0.05,0.18,0.1,0.35,0.14,0.53c-0.06,0.02-0.12,0.04-0.19,0.05c-0.05-0.17-0.1-0.35-0.16-0.52
			C195.93,178.8,195.99,178.78,196.06,178.76z"/>
		<path d="M80.52,177.91c-0.05-0.19-0.09-0.39-0.14-0.58c0.05-0.01,0.1-0.03,0.15-0.04c0.07,0.19,0.13,0.38,0.2,0.56
			C80.65,177.87,80.59,177.89,80.52,177.91z"/>
		<path d="M136.24,224.96c0.14,0.05,0.28,0.11,0.42,0.17c0.01,0-0.04,0.12-0.06,0.18c-0.14-0.06-0.28-0.13-0.43-0.19
			C136.2,225.06,136.22,225.01,136.24,224.96z"/>
		<path class="st0" d="M288.94,205.42c-1.37,0.1-2.74,0.2-4.23,0.31C286.13,204.76,287.57,205.43,288.94,205.42z"/>
		<path class="st0" d="M280.3,205.73c-0.16,0.14-0.3,0.4-0.47,0.41c-0.6,0.05-1.2,0.02-1.81-0.07
			C278.78,205.96,279.54,205.85,280.3,205.73C280.3,205.73,280.3,205.73,280.3,205.73z"/>
		<path class="st0" d="M195.92,174.13c0,0.62,0,1.24,0,1.86c-0.03,0-0.06,0-0.1,0C195.85,175.37,195.88,174.75,195.92,174.13
			C195.92,174.13,195.92,174.13,195.92,174.13z"/>
		<path class="st0" d="M280.3,205.73c0.33,0.03,0.66,0.06,1.08,0.1C280.89,206.28,280.6,205.98,280.3,205.73
			C280.3,205.73,280.3,205.73,280.3,205.73z"/>
		<path class="st0" d="M282.58,205.76c0.19,0,0.38,0,0.58,0c0,0.03,0,0.06,0,0.09c-0.19,0-0.38,0-0.58,0
			C282.58,205.83,282.58,205.8,282.58,205.76z"/>
		<path class="st0" d="M294.91,190.32c0.03-0.17,0.05-0.35,0.08-0.52c0.06,0.17,0.12,0.34,0.18,0.5
			C295.09,190.31,295,190.31,294.91,190.32z"/>
		<path class="st0" d="M91.47,157.12c-0.24,0.29-0.48,0.58-0.9,1.09c0.23-1.73,0.42-3.2,0.61-4.68c0.11,0,0.23-0.01,0.34-0.01
			c0.08,0.46,0.16,0.93,0.3,1.67c0.1-1.49,0.19-2.7,0.29-4.14c-0.41,0.24-0.59,0.35-0.83,0.49c0-0.4,0-0.77,0-1.27
			c0.24,0.12,0.42,0.21,0.6,0.29c0.03-0.03,0.11-0.09,0.12-0.15c0.04-0.64,0.02-1.28,0.1-1.9c0.07-0.51-0.22-0.65-0.59-0.75
			c0.02-0.12,0.01-0.26,0.05-0.27c0.91-0.32,0.88-1.06,0.87-1.83c-0.03-2.11-0.05-4.22-0.03-6.33c0.02-2.14,0.12-4.28,0.14-6.43
			c0.01-1.03-0.08-2.07-0.15-3.1c-0.13-1.83-0.33-3.66-0.41-5.49c-0.04-0.91,0.15-1.83,0.16-2.74c0.03-1.92-0.02-3.84,0.01-5.75
			c0.05-2.91,0.18-5.82,0.18-8.73c0-1.71-0.14-3.43-0.28-5.14c-0.14-1.66-0.32-3.32-0.56-4.96c-0.06-0.39-0.32-0.81-0.61-1.11
			c-0.35-0.37-0.5-0.75-0.28-1.17c0.62-1.19-0.21-1.99-0.75-2.83c-0.35-0.55-0.89-0.98-1.42-1.55c-1.08,0.27-2.17-0.14-3.3-0.31
			c-1.17-0.18-2.39-0.15-3.58-0.05c-4.86,0.4-9.7,0.98-14.57,1.27c-4.39,0.26-8.79,0.3-13.18,0.31c-2.91,0.01-5.83-0.2-8.74-0.34
			c-3.2-0.15-6.39,0.02-9.57,0.42c-1.34,0.17-2.69,0.2-4.1,0.29c-1.56-5.64-1.08-11.23-0.82-16.88c0.4-0.06,0.71-0.16,1.01-0.15
			c3.27,0.03,6.55,0.04,9.82,0.12c1.83,0.05,3.66,0.19,5.49,0.34c0.83,0.07,1.65,0.33,2.48,0.38c3.43,0.23,6.86,0.41,10.29,0.6
			c3.39,0.19,6.78-0.07,10.17-0.18c2.12-0.06,4.23-0.04,6.35-0.1c1.31-0.04,2.61-0.17,3.91-0.25c0.2-0.01,0.4-0.05,0.6-0.04
			c2.99,0.19,5.96-0.11,8.94-0.23c4.3-0.17,8.6-0.51,12.91-0.56c3.02-0.04,6.03-0.62,9.04-0.92c2.34-0.23,4.69-0.46,7.04-0.58
			c4.67-0.23,9.34-0.38,14.01-0.58c3.07-0.13,6.13-0.34,9.2-0.4c1.79-0.03,3.59,0.17,5.39,0.23c1.58,0.06,3.17,0.07,4.75,0.09
			c0.91,0.01,1.81,0,2.93,0c-0.35,0.5-0.59,0.86-0.92,1.32c0.43,0,0.71,0,0.93,0c0.1,0.51,0.18,0.97,0.29,1.52
			c-0.14,0.21-0.71,0.04-0.73,0.61c-0.01,0.36,0,0.62,0.16,0.98c0.36,0.79,0.57,1.65,0.77,2.5c0.28,1.18,0.56,2.38,0.52,3.61
			c-0.01,0.16,0.04,0.32,0.09,0.47c0.91,2.26,0.89,4.67,1.14,7.03c0.11,1.04-0.21,2.12-0.13,3.17c0.15,2.05-0.28,4.04-0.4,6.06
			c-0.09,1.47-0.25,2.93-0.37,4.39c-0.04,0.55-0.14,1.14-0.01,1.66c0.24,1,0.77,1.84,2.07,2.06c-0.61,0.49-0.53,0.99-0.43,1.56
			c0.28,1.57,0.66,3.05,1.67,4.37c0.46,0.6,0.53,1.49,0.8,2.34c0.11-0.24,0.16-0.37,0.22-0.5c0.07,0,0.14-0.01,0.22-0.01
			c0.17,0.62,0.34,1.24,0.51,1.85c-0.06,0.03-0.12,0.06-0.19,0.09c-0.22-0.19-0.44-0.38-0.68-0.58c-0.13,0.14-0.26,0.22-0.27,0.31
			c-0.03,0.3-0.01,0.6-0.01,1.02c0.29,0.08,0.72,0.19,1.14,0.3c0.01,0.06,0.01,0.12,0.02,0.18c-0.39,0.13-0.78,0.25-1.24,0.4
			c0,0.17,0,0.39,0,0.75c0.11-0.17,0.15-0.26,0.22-0.32c0.76-0.6,1.18-0.48,1.28,0.42c0.15,1.33,0.25,2.68,0.1,4.15
			c-0.87-0.51-0.32-1.13-0.36-1.61c-0.32-0.46-0.63-0.9-1.04-1.48c-0.04,0.36-0.1,0.57-0.08,0.78c0.22,2.85,0.53,5.71,0.33,8.57
			c-0.08,1.15,0.1,2.15,0.81,3.11c0.76,1.04,0.77,2.33,0.82,3.59c0.03,0.79,0.13,1.58,0.24,2.37c0.1,0.7,0.14,1.38,0.06,2.1
			c-0.14,1.28-0.34,2.62,0.57,3.77c0.11,0.14,0.1,0.38,0.11,0.57c0.06,1.59,0.1,3.19,0.17,4.78c0.02,0.49-0.02,0.98,0.43,1.42
			c0.26,0.26,0.26,0.82,0.29,1.25c0.16,2.35,0.31,4.7,0.43,7.04c0.11,2.15,0.21,4.31,0.24,6.47c0.01,1.06-0.15,2.13-0.23,3.2
			c-0.02,0.32-0.06,0.64-0.01,0.95c0.48,2.99,0.2,5.95-0.13,8.94c-0.37,3.33-0.64,6.67-0.34,10.04c0.18,2.06,0.06,4.14,0.14,6.21
			c0.07,1.71,0.25,3.42,0.36,5.12c0.11,1.59,0.24,3.18-0.14,4.78c-1.21,0.67-2.57,0.44-3.85,0.63c-0.63,0.09-1.27,0.13-1.9,0.21
			c-1.49,0.2-2.98,0.41-4.48,0.62c-1.3,0.17-2.6,0.31-3.89,0.51c-4.25,0.64-8.52,1.22-12.75,1.97c-5.78,1.02-11.54,2.13-17.29,3.31
			c-3.47,0.71-6.92,1.56-10.34,2.51c-2.82,0.79-5.66,1.33-8.59,1.46c-1.63,0.07-3.26,0.18-4.89,0.27c-0.32,0.02-0.65,0.02-0.96-0.04
			c-0.51-0.1-0.88-0.37-0.86-0.97c0.05-1.5-0.33-3-0.08-4.52c0.09-0.53-0.12-1.1-0.2-1.65c-0.44-2.99-0.79-5.99-0.99-9.01
			c-0.09-1.33,0.07-2.56,0.23-3.84c0.22-1.75,0.32-3.51,0.48-5.26c0.02-0.26,0.1-0.51,0.16-0.82c-0.16,0.12-0.25,0.19-0.43,0.33
			c-0.05-0.64-0.15-1.22-0.12-1.8c0.03-0.63,0.18-1.26,0.28-1.89c0.04-0.23,0.19-0.49,0.13-0.7c-0.42-1.46-0.34-2.93-0.28-4.42
			c0.01-0.33-0.25-0.65-0.31-0.99c-0.02-0.13,0.15-0.3,0.24-0.45c0.13,0.12,0.34,0.22,0.37,0.36c0.08,0.35,0.08,0.72,0.23,1.07
			c0.18-0.88,0.33-1.76-0.35-2.52c0.25-1.27-0.04-2.46-0.44-3.65c0.34-0.85,0.02-1.62-0.31-2.38c-0.07,0.81-0.08,1.61,0.33,2.36
			c0.14,1.22,0.28,2.44,0.43,3.66c0,0.21,0,0.42,0,0.63c-0.08,0.01-0.16,0.02-0.23,0.02c0.02-0.91-0.62-1.69-0.37-2.68
			c0.09-0.36-0.03-0.78-0.12-1.16c-0.26-1.08-0.58-2.14-0.84-3.22c-0.14-0.61-0.2-1.24-0.31-1.91c0.29,0,0.47,0,0.78,0
			c-0.1-0.47-0.18-0.93-0.28-1.38c-0.29-1.24-0.46-2.46-0.4-3.76c0.05-0.96-0.27-1.95-0.44-2.92c-0.35-1.92-0.44-3.84-0.23-5.78
			c0.06-0.54-0.03-1.1-0.05-1.65c0.42-0.37,0.48-0.79,0.31-1.25c-0.09-0.01-0.19-0.02-0.28-0.03
			C91.47,156.24,91.47,156.68,91.47,157.12z M94.82,185.53c-0.12-0.02-0.24-0.04-0.36-0.06c-0.07,0.85-0.13,1.7-0.2,2.55
			c0.08,0.01,0.16,0.01,0.24,0.02C94.61,187.2,94.71,186.37,94.82,185.53z M94.71,204.29c-0.1,0.01-0.2,0.02-0.3,0.02
			c0.05,0.67,0.1,1.33,0.15,2c0.09-0.01,0.18-0.01,0.28-0.02C94.79,205.63,94.75,204.96,94.71,204.29z M94.7,208.81
			c0.08,0.01,0.17,0.02,0.25,0.02c0.12-0.26,0.16-0.54-0.04-0.85c-0.03-0.04-0.13-0.04-0.28-0.08
			C94.66,208.22,94.68,208.51,94.7,208.81z M95.7,216.1c-0.31,0.26-0.51,0.52-0.05,0.93C95.68,216.63,95.69,216.37,95.7,216.1z
			 M94.25,201.83c-0.45,0.38-0.45,0.65,0,1.14C94.25,202.5,94.25,202.23,94.25,201.83z"/>
		<path class="st0" d="M157.28,219.57c1.8-0.12,3.61-0.25,5.41-0.36c0.16-0.01,0.33,0.14,0.54,0.23c-0.33,0.64-0.87,0.5-1.28,0.42
			c-1.29-0.25-2.57-0.13-3.86,0c-0.27,0.03-0.54,0-0.81,0C157.28,219.76,157.28,219.67,157.28,219.57z"/>
		<path class="st0" d="M150.86,220.71c1.15-0.19,2.29-0.39,3.67-0.62c-1.2,1.05-2.51,0.5-3.6,0.96
			C150.91,220.94,150.89,220.82,150.86,220.71z"/>
		<path class="st0" d="M145.76,221.72c-0.86,0.08-1.71,0.15-2.57,0.23c-0.01-0.1-0.02-0.2-0.03-0.3c0.87-0.11,1.73-0.22,2.6-0.32
			C145.76,221.46,145.76,221.59,145.76,221.72z"/>
		<path class="st0" d="M142.5,218.32c0.55-0.32,1.08-0.72,1.83-0.33C143.76,218.64,143.1,218.38,142.5,218.32z"/>
		<path class="st0" d="M112.93,230.57c-0.67,0.11-1.33,0.21-2,0.32c-0.02-0.07-0.03-0.14-0.05-0.2c0.65-0.18,1.3-0.37,1.96-0.55
			C112.87,230.28,112.9,230.43,112.93,230.57z"/>
		<path class="st0" d="M134.7,223.01c0.47-0.08,0.93-0.16,1.4-0.24c0.02,0.06,0.03,0.12,0.05,0.17c-0.44,0.17-0.89,0.34-1.33,0.52
			C134.78,223.31,134.74,223.16,134.7,223.01z"/>
		<path class="st0" d="M148.33,220.93c0.61,0,1.02,0,1.39,0C149.28,221.2,149.28,221.2,148.33,220.93z"/>
		<path class="st0" d="M138.56,222.47c0.52-0.12,0.76-0.18,1-0.23c0.03,0.06,0.05,0.11,0.08,0.17c-0.13,0.08-0.25,0.21-0.39,0.24
			C139.12,222.67,138.98,222.59,138.56,222.47z"/>
		<path class="st0" d="M91.79,146.58c-0.02,0.07-0.04,0.13-0.06,0.2c-0.07-0.05-0.15-0.09-0.19-0.15c-0.02-0.02,0.07-0.11,0.1-0.17
			C91.69,146.51,91.74,146.55,91.79,146.58z"/>
		<path class="st0" d="M141.44,221.88c0.18-0.01,0.35-0.03,0.53-0.04c0.01,0.05,0.02,0.1,0.03,0.15c-0.17,0.04-0.34,0.08-0.5,0.12
			C141.48,222.03,141.46,221.95,141.44,221.88z"/>
		<path class="st0" d="M137.09,222.66c0.18-0.05,0.35-0.09,0.53-0.14c0.02,0.05,0.03,0.1,0.05,0.15c-0.17,0.06-0.34,0.13-0.51,0.19
			C137.13,222.8,137.11,222.73,137.09,222.66z"/>
		<path d="M94.82,185.53c-0.1,0.84-0.21,1.67-0.31,2.51c-0.08-0.01-0.16-0.01-0.24-0.02c0.07-0.85,0.13-1.7,0.2-2.55
			C94.58,185.49,94.7,185.51,94.82,185.53z"/>
		<path d="M93.49,177.27c0.4,1.18,0.7,2.38,0.45,3.64c0,0,0.01-0.02,0.01-0.01c-0.15-1.22-0.29-2.44-0.43-3.66L93.49,177.27z"/>
		<path d="M94.71,204.29c0.04,0.67,0.08,1.34,0.12,2c-0.09,0.01-0.18,0.01-0.28,0.02c-0.05-0.67-0.1-1.33-0.15-2
			C94.5,204.31,94.61,204.3,94.71,204.29z"/>
		<path d="M93.52,177.25c-0.41-0.75-0.4-1.55-0.33-2.36c0.33,0.76,0.65,1.53,0.31,2.38C93.49,177.27,93.52,177.25,93.52,177.25z"/>
		<path d="M91.47,157.12c0-0.44,0-0.87,0-1.31c0.09,0.01,0.19,0.02,0.28,0.03c0.17,0.46,0.11,0.88-0.31,1.25
			C91.44,157.09,91.47,157.12,91.47,157.12z"/>
		<path d="M94.7,208.81c-0.02-0.29-0.04-0.59-0.06-0.91c0.15,0.04,0.25,0.04,0.28,0.08c0.2,0.31,0.16,0.59,0.04,0.85
			C94.87,208.82,94.78,208.82,94.7,208.81z"/>
		<path d="M95.7,216.1c-0.01,0.27-0.03,0.53-0.05,0.93C95.2,216.62,95.4,216.36,95.7,216.1z"/>
		<path d="M94.25,201.83c0,0.4,0,0.67,0,1.14C93.8,202.49,93.8,202.22,94.25,201.83z"/>
	</g>
</g>
</svg>
