<?xml version="1.0" encoding="utf-8"?>
<!-- Generator: Adobe Illustrator 26.5.0, SVG Export Plug-In . SVG Version: 6.00 Build 0)  -->
<svg version="1.1" id="Vrstva_1" xmlns="http://www.w3.org/2000/svg" xmlns:xlink="http://www.w3.org/1999/xlink" x="0px" y="0px"
	 viewBox="0 0 431.88 160.32" style="enable-background:new 0 0 431.88 160.32;" xml:space="preserve">
<style type="text/css">
	.st0{fill:#FFFFFF;}
</style>
<g>
	<path d="M39.34,16.69c0.88,0.26,1.77,0.5,2.66-0.22c0.2-0.17,0.77-0.14,1.01,0.02c0.49,0.34,0.91,0.16,1.36,0.04
		c2.97-0.79,5.93-1.62,8.99-2.03c0.44-0.06,0.87-0.15,1.31-0.14c3.75,0.12,7.36-0.85,11.03-1.37c3.95-0.56,7.89-1.3,11.91-0.89
		c1.87,0.19,3.73,0.41,5.6,0.54c2.37,0.18,4.7-0.16,7.04-0.54c6.03-0.98,12.06-1.98,18.17-2.38c2.63-0.17,5.26-0.34,7.89-0.41
		c0.85-0.02,1.7,0.34,2.56,0.42c1.39,0.13,2.79,0.23,4.18,0.25c0.97,0.02,1.95-0.11,2.95-0.17c0,0.07,0.01,0.22,0.02,0.37
		c0.08,0.01,0.17,0.05,0.23,0.02c0.34-0.16,0.58-0.41,1.06-0.09c0.36,0.24,0.98,0.12,1.48,0.14c1.14,0.05,2.27,0.1,3.41,0.14
		c0.24,0.01,0.49-0.02,0.71,0.06c1.05,0.37,2.05,0.44,3.14,0.02c0.53-0.2,1.43-0.14,1.84,0.2c0.98,0.83,2.03,0.4,3.05,0.47
		c0.63,0.04,1.27-0.03,1.91-0.05c0.11,0,0.31,0,0.33,0.06c0.46,0.95,1.35,0.57,2.01,0.55c2.03-0.06,3.95,0.45,5.88,0.89
		c1.87,0.43,3.74,0.77,5.66,0.86c1.34,0.07,2.67,0.43,4.01,0.54c1.26,0.1,2.54,0.02,3.81,0.06c1.95,0.06,3.89,0.15,5.83,0.23
		c0.16,0.01,0.32,0,0.48,0c1.58-0.04,3.17-0.14,4.75-0.12c1.51,0.02,3.02,0.17,4.54,0.24c2.06,0.09,4.13,0.19,6.19,0.21
		c1.95,0.02,3.91,0,5.86-0.07c2.19-0.08,4.38-0.23,6.56-0.35c2.59-0.13,5.18-0.29,7.78-0.36c0.65-0.02,1.3,0.3,1.96,0.4
		c0.65,0.1,1.28,0.24,1.85-0.41c0.37-0.43,1.03-0.19,1.58,0.01c0.35,0.13,0.84,0.27,1.11,0.12c1.04-0.56,2.08-0.15,3.11-0.13
		c0.57,0.02,1.19-0.13,1.73,0.21c0.08,0.05,0.27,0.03,0.34-0.03c0.85-0.77,1.88-0.52,2.86-0.5c1.43,0.03,2.85,0.15,4.28,0.21
		c0.22,0.01,0.45-0.16,0.68-0.15c0.67,0.03,1.34,0.23,1.99,0.15c1.14-0.13,2.31,0.18,3.37-0.05c1.08-0.23,2.07-0.28,3.12-0.07
		c0.12,0.02,0.26,0.06,0.36,0.01c1.32-0.69,2.67-0.3,4.01-0.12c0.04,0.01,0.09,0.02,0.12,0c1.1-0.71,2.23-0.08,3.34-0.08
		c0.16,0,0.36,0.05,0.47-0.03c0.71-0.44,1.46-0.3,2.23-0.27c0.57,0.03,1.26,0.42,1.76-0.25c0.04-0.06,0.24-0.04,0.34,0
		c1.59,0.61,3.14,0.08,4.7-0.18c0.2-0.03,0.39-0.11,0.59-0.12c1.3-0.1,2.61-0.2,3.91-0.28c1.15-0.07,2.31-0.2,3.46-0.15
		c1.5,0.06,2.89-0.49,4.36-0.56c0.31-0.02,0.65-0.07,0.94,0.01c0.88,0.23,1.7,0.4,2.67,0.12c0.95-0.27,2.02-0.12,3.04-0.15
		c0.83-0.02,1.67-0.04,2.5-0.04c0.38,0,0.76-0.09,1.08,0.32c0.11,0.14,0.71,0.14,0.85-0.01c0.42-0.45,0.84-0.26,1.32-0.24
		c1.55,0.07,3.11,0.06,4.66,0.1c0.57,0.01,1.13,0.04,1.69,0.11c1.09,0.14,2.19-0.32,3.27,0.06c0.15,0.05,0.35-0.06,0.52-0.11
		c0.35-0.09,0.7-0.26,1.06-0.26c1.18,0,2.36,0.12,3.53,0.07c2.27-0.1,4.54-0.29,6.81-0.44c1.79-0.12,3.57-0.23,5.35-0.39
		c1.07-0.1,2.13-0.32,3.19-0.43c0.47-0.05,0.95,0.03,1.42,0.06c0.24,0.02,0.48,0.1,0.71,0.09c1.93-0.12,3.86-0.25,5.79-0.38
		c0.48-0.03,0.95-0.04,1.43-0.06c0.32-0.02,0.69,0.06,0.94-0.09c1.06-0.61,2.24-0.53,3.38-0.71c0.47-0.07,0.93-0.1,1.43,0.24
		c0.37,0.24,1.01,0.11,1.52,0.09c0.88-0.03,1.75-0.1,2.62-0.16c0.24-0.02,0.52,0.01,0.7-0.11c1.38-0.86,2.88-0.51,4.35-0.5
		c0.82,0.01,1.63-0.2,2.45-0.19c0.99,0,2-0.16,2.97,0.18c0.04,0.01,0.08,0.02,0.12,0.01c1.65-0.57,3.28,0.07,4.93,0.08
		c1.67,0.01,3.34,0.15,5.01,0.23c0.99,0.05,2.04-0.08,2.97,0.2c0.98,0.29,1.91,0.06,2.86,0.18c0.94,0.11,1.9,0.05,2.85,0.09
		c1.03,0.05,2.1-0.01,3.08,0.24c1.17,0.29,2.29-0.07,3.43,0.05c1.34,0.14,2.7,0.1,4.04,0.11c1.07,0.01,2.15-0.01,3.22-0.07
		c0.8-0.04,1.6,0.25,2.43-0.29c0.42-0.28,1.21,0.04,1.83,0.04c1.19,0.02,2.39-0.01,3.58,0.02c1.48,0.04,2.95,0.14,4.42,0.18
		c0.91,0.03,1.82,0.01,2.86,0.01c-0.39,0.82,0.76,1.54-0.14,2.12c1.23,0.74,2.42,1.49,3.64,2.17c1,0.56,2.07,1.01,3.05,1.59
		c0.77,0.46,1.45,1.05,2.16,1.59c0.16,0.12,0.34,0.27,0.39,0.45c0.49,1.87,1.92,3.27,2.53,5.07c0.06,0.19,0.24,0.38,0.21,0.54
		c-0.21,1.15,0.38,2.05,0.95,2.93c0.28,0.44,0.38,0.82,0.27,1.33c-0.24,1.14-0.03,2.28,0.13,3.42c0.1,0.71,0.13,1.43,0.14,2.14
		c0.03,1.39,0.07,2.78,0.01,4.16c-0.05,1.26-0.22,2.52-0.35,3.78c-0.25,2.54-0.37,5.08,0.02,7.62c0.11,0.7,0.04,1.43,0.06,2.14
		c0.01,0.86,0.03,1.73,0.03,2.59c0.01,1.5,0.02,3.01,0.03,4.51c0.02,1.86,0.02,3.72,0.06,5.58c0.05,2.23,0.13,4.45,0.2,6.67
		c0.01,0.44,0.06,0.88,0.03,1.31c-0.04,0.7-0.12,1.4-0.2,2.1c-0.26,2.28-0.73,4.54-0.62,6.87c0.06,1.34-0.18,2.7-0.28,4.05
		c-0.1,1.35-0.31,2.71-0.27,4.05c0.04,1.39-0.5,2.71-0.38,4.1c0.12,1.48-0.14,2.94-0.49,4.38c-0.03,0.11-0.05,0.24-0.03,0.36
		c0.31,1.39-0.19,2.73-0.2,4.11c-0.01,1.06-0.36,2.11-0.49,3.17c-0.08,0.66-0.14,1.36,0.01,2c0.15,0.66,0.04,1.19-0.35,1.66
		c-0.52,0.62-0.67,1.34-0.66,2.09c0.01,0.31,0.17,0.68,0.38,0.92c0.25,0.29,0.38,0.53,0.12,0.83c-1.07,1.22-1.01,2.74-1.05,4.19
		c-0.02,0.75-0.14,1.39-0.5,2.02c-0.26,0.45-0.43,0.94-0.6,1.43c-0.07,0.21-0.13,0.49-0.06,0.69c0.38,1.06,0.1,1.99-0.39,2.93
		c-0.22,0.42-0.31,0.9-0.5,1.33c-0.19,0.43-0.45,0.82-0.68,1.23c-0.12,0.21-0.32,0.39-0.36,0.61c-0.35,1.95-1.89,2.96-3.24,4.13
		c-0.31,0.27-0.61,0.56-1,0.91c0.37,0.1,0.55,0.14,0.92,0.24c-0.5,0.22-0.88,0.38-1.24,0.56c-0.14,0.07-0.37,0.2-0.37,0.31
		c-0.02,0.84-0.67,0.84-1.22,0.91c-0.37,0.05-0.75,0.01-1.16,0.22c0.37,0.16,0.74,0.32,1.09,0.48c-0.48,0.52-0.92,1-1.44,1.56
		c-0.36,0.04-0.81,0.08-1.46,0.15c0.3,0.32,0.48,0.52,0.71,0.76c-0.31,0.06-0.58,0.17-0.84,0.15c-0.48-0.04-0.92-0.18-1.24,0.39
		c-0.1,0.18-0.56,0.22-0.85,0.22c-4.75-0.05-9.5-0.19-14.26-0.15c-2.87,0.03-5.74,0.35-8.61,0.54c-5.9,0.4-11.8,0.86-17.7,1.17
		c-3.99,0.21-7.99,0.17-11.98,0.3c-2.55,0.09-5.1,0.26-7.65,0.43c-2.15,0.14-4.3,0.33-6.45,0.49c-3.47,0.26-6.93,0.5-10.4,0.76
		c-6.53,0.5-13.06,1-19.59,1.51c-3.62,0.29-7.24,0.6-10.87,0.9c-7.16,0.59-14.31,1.19-21.47,1.75c-2.39,0.19-4.78,0.22-7.17,0.37
		c-3.03,0.19-6.05,0.47-9.08,0.64c-1.06,0.06-2.14-0.12-3.21-0.13c-1.56-0.01-3.12,0.05-4.67,0.08c-1.16,0.02-2.32,0-3.47,0.04
		c-0.58,0.02-1.13,0.06-1.72,0.21c-0.94,0.25-1.98,0.18-2.97,0.17c-2.91-0.02-5.81-0.12-8.72-0.1c-2.31,0.02-4.62,0.19-6.94,0.28
		c-3.75,0.15-7.5,0.27-11.25,0.42c-1.59,0.06-3.23-0.02-4.77,0.31c-2.32,0.49-4.65,0.69-7,0.77c-1.66,0.05-3.33-0.04-4.99-0.03
		c-1.32,0-2.63,0.08-3.95,0.08c-1.59,0-3.19-0.08-4.78-0.08c-1.31,0-2.62,0.12-3.93,0.12c-1.11,0-2.21-0.11-3.32-0.15
		c-0.87-0.03-1.75,0.01-2.62-0.01c-0.95-0.02-1.9-0.03-2.84-0.12c-2.07-0.19-4.12-0.5-6.19-0.61c-3.34-0.18-6.68-0.23-10.02-0.34
		c-1.51-0.05-3.03-0.13-4.54-0.18c-4.66-0.15-9.32-0.26-13.97-0.46c-1.94-0.08-3.88-0.36-5.82-0.55c-3.93-0.37-7.86-0.76-11.79-1.11
		c-2.23-0.2-4.45-0.4-6.69-0.49c-1.18-0.04-2.37,0.29-3.54,0.24c-1.86-0.08-3.72-0.34-5.58-0.51c-1.39-0.12-2.82-0.47-4.17-0.28
		c-3.35,0.47-6.68-0.1-10.02,0.09c-2.23,0.13-4.47,0.2-6.7,0.42c-4.42,0.44-8.85,0.47-13.28,0.5c-0.78,0-1.63-0.18-2.26,0.66
		c-1.93-0.82-3.88-0.34-5.86-0.07c-1.32,0.18-2.66,0.31-3.96-0.29c-0.37-0.17-0.86-0.07-1.28-0.09c-0.1-0.26-0.19-0.46-0.33-0.81
		c-1.03,0.14-2.05,0.28-3.06,0.41c-0.39,0.05-0.79,0.15-1.17,0.13c-1.62-0.09-3.21-0.23-4.84,0.07c-1.09,0.2-2.1-0.37-3.01-0.97
		c-0.37-0.25-0.67-0.44-1.16-0.47c-0.48-0.03-1-0.26-1.41-0.54c-0.86-0.57-1.7-1.19-2.48-1.87c-0.69-0.59-1.33-1.25-1.91-1.95
		c-1.04-1.26-2.04-2.55-2.99-3.86c-0.49-0.67-0.9-1.42-1.25-2.17c-0.9-1.95-1.85-3.89-2.58-5.9c-0.47-1.3-0.62-2.71-0.87-4.08
		c-0.67-3.68-1.32-7.37-1.98-11.05c-0.3-1.67-0.8-3.33-0.87-5.01c-0.1-2.55,0.11-5.1,0.19-7.66c0.02-0.68,0.01-1.35,0.03-2.03
		c0.11-2.75,0.25-5.5,0.35-8.25c0.07-1.87,0.11-3.74,0.17-5.62c0.04-1.24,0.09-2.47,0.14-3.71c0.09-2.39,0.14-4.79,0.29-7.18
		c0.26-4.14,0.52-8.29,0.88-12.42c0.45-5.14,1.74-10.14,2.79-15.18c0.65-3.14,2-6.04,3.07-9.04c1.12-3.14,3.22-5.58,5.17-8.14
		c0.45-0.58,1.12-1.01,1.73-1.44c0.84-0.59,1.76-1.03,2.5-1.81c0.64-0.68,1.52-1.09,2.48-1.36c1.45-0.4,2.83-1.05,4.27-1.52
		c1.1-0.36,2.22-0.65,3.35-0.89c0.84-0.18,1.33-0.59,1.55-1.43c0.24-0.91,0.66-1.61,1.84-1.72C38.01,17.68,38.65,17.07,39.34,16.69z
		 M379.36,28.41c-0.62-0.76-1.1-1.34-1.57-1.93c-0.47-0.59-1.14-0.72-1.82-0.74c-1.27-0.05-2.55-0.05-3.82-0.03
		c-3.88,0.05-7.75,0.13-11.63,0.18c-2.48,0.04-4.96,0.17-7.43,0.06c-4.83-0.21-9.64-0.63-14.47-0.82c-3.58-0.14-7.18-0.2-10.77-0.06
		c-4.58,0.18-9.16,0.61-13.74,0.92c-2.87,0.19-5.74,0.38-8.61,0.55c-3.15,0.18-6.3,0.28-9.45,0.49c-2.79,0.18-5.57,0.51-8.36,0.66
		c-2.15,0.11-4.31,0.05-6.47,0.07c-2.83,0.03-5.65,0.07-8.48,0.08c-3.87,0.01-7.74-0.34-11.61-0.08c-3.23,0.22-6.47,0.29-9.68,0.65
		c-4.89,0.54-9.79,0.76-14.7,0.94c-1.35,0.05-2.71,0.08-4.07,0.1c-1.19,0.02-2.39-0.02-3.58,0.03c-3.03,0.12-6.06,0.31-9.08,0.41
		c-1.27,0.04-2.55-0.14-3.83-0.14c-1.59,0-3.18,0.08-4.77,0.15c-5.7,0.26-11.39,0.55-17.09,0.81c-2.55,0.11-5.1,0.18-7.65,0.26
		c-1.2,0.04-2.4,0.12-3.59,0.08c-1.51-0.05-3.01-0.22-4.51-0.29c-1.99-0.09-3.98-0.12-5.97-0.18c-1.79-0.05-3.59-0.09-5.38-0.12
		c-2.55-0.05-5.11,0.03-7.64-0.15c-2.58-0.18-5.15-0.61-7.73-0.94c-3.64-0.47-7.28-0.99-10.93-1.41c-2.74-0.31-5.49-0.5-8.23-0.72
		c-1.51-0.12-3.07,0.01-4.54-0.31c-1.93-0.42-3.88-0.36-5.82-0.57c-1.34-0.14-2.69-0.19-4.04-0.25c-2.27-0.09-4.55-0.27-6.82-0.2
		c-2.07,0.07-4.12,0.44-6.19,0.65c-0.79,0.08-1.62-0.02-2.38,0.16c-2.72,0.63-5.52,0.65-8.27,1.16c-4,0.74-8.07,1.09-12.11,1.59
		c-0.59,0.07-1.19,0.06-1.79,0.06c-3.91-0.03-7.83-0.09-11.74-0.07c-0.73,0-1.46,0.36-2.19,0.48c-1.42,0.24-2.85,0.42-4.27,0.63
		c-2.8,0.42-5.61,0.8-8.41,1.27c-1.07,0.18-2.23,0.07-3.27,0.87c0.31,0.2,0.58,0.37,0.8,0.51c-0.19,0.26-0.4,0.52-0.59,0.79
		c-0.16,0.22-0.28,0.54-0.49,0.65c-1,0.49-2.02,0.97-3.19,0.47c-0.31-0.13-0.8-0.28-1.02-0.14c-0.53,0.34-1,0.12-1.5,0.08
		c-0.43-0.03-0.87-0.19-1.29-0.13c-0.97,0.12-1.87,0.08-2.7-0.51c-0.16-0.12-0.44-0.07-0.67-0.1c-0.2-0.02-0.41-0.02-0.6-0.08
		c-0.96-0.27-1.91-0.72-2.91-0.1c-0.18-0.14-0.35-0.39-0.54-0.4c-1.14-0.08-2.4-0.62-3.24,0.71c-0.12,0.2-0.32,0.36-0.51,0.5
		c-1.44,1.03-2.27,2.57-3.08,4.06c-0.83,1.53-1.41,3.2-1.76,4.93c-0.29,1.45-0.68,2.87-1.08,4.3c-0.41,1.49-0.89,2.97-1.32,4.45
		c-0.78,2.74-1.03,5.57-1.37,8.38c-0.24,2.01-0.59,4.02-0.75,6.03c-0.13,1.63-0.03,3.27-0.1,4.9c-0.08,1.91-0.29,3.82-0.35,5.73
		c-0.07,2.79-0.03,5.59-0.09,8.38c-0.01,0.75-0.05,1.56-0.36,2.21c-0.28,0.58-0.37,1.12-0.39,1.71c-0.06,1.59-0.09,3.18-0.12,4.77
		c-0.02,1.35-0.05,2.71-0.04,4.06c0.01,1.09,0.63,2.17,0.04,3.27c-0.03,0.05,0.04,0.15,0.05,0.23c0.07,0.55,0.13,1.1,0.19,1.64
		c0.17,1.79,0.24,3.59,0.53,5.36c0.61,3.7,1.33,7.38,2.01,11.07c0.09,0.47,0.13,0.95,0.27,1.41c1.02,3.4,2.5,6.54,4.98,9.17
		c0.62,0.66,1.3,1.08,2.12,1.17c1.86,0.19,3.74,0.27,5.61,0.37c0.23,0.01,0.66-0.17,0.68-0.29c0.08-0.64,0.53-0.59,0.96-0.65
		c1.93-0.29,3.86-0.61,5.8-0.88c0.78-0.11,1.58-0.13,2.37-0.22c0.56-0.07,1.35,0.3,1.52-0.7c0.02-0.09,0.34-0.17,0.53-0.19
		c2.39-0.35,4.78-0.18,7.17-0.07c1.31,0.06,2.65,0.14,3.94-0.03c4.84-0.61,9.7-1.05,14.58-0.93c4.07,0.1,8.14,0.35,12.21,0.53
		c4.63,0.2,9.27,0.39,13.9,0.58c0.71,0.03,1.43,0,2.14,0.05c0.67,0.05,1.34,0.21,2.01,0.26c1.75,0.13,3.5,0.18,5.25,0.33
		c2.5,0.21,4.99,0.55,7.49,0.7c3.67,0.21,7.34,0.34,11.01,0.44c4.39,0.12,8.78,0.18,13.17,0.27c0.72,0.01,1.44,0.06,2.16,0.07
		c2.91,0.06,5.82-0.12,8.72,0.22c2.53,0.3,5.08,0.49,7.62,0.67c2.59,0.19,5.18,0.36,7.78,0.44c2.31,0.07,4.63,0,6.95-0.04
		c2.11-0.03,4.23-0.05,6.34-0.16c3.31-0.16,6.62-0.41,9.93-0.57c2.11-0.11,4.23-0.13,6.35-0.19c5.47-0.17,10.94-0.37,16.41-0.52
		c4.91-0.14,9.83-0.21,14.74-0.35c2.07-0.06,4.15-0.2,6.22-0.35c1.74-0.13,3.47-0.39,5.22-0.49c1.83-0.11,3.67-0.03,5.49-0.16
		c5.1-0.37,10.19-0.8,15.29-1.23c2.54-0.22,5.08-0.54,7.62-0.73c4.82-0.35,9.64-0.62,14.46-0.97c3.31-0.24,6.6-0.56,9.91-0.82
		c3.06-0.24,6.13-0.44,9.2-0.69c2.79-0.23,5.56-0.53,8.35-0.75c3.03-0.24,6.06-0.44,9.09-0.64c3.35-0.22,6.7-0.5,10.05-0.62
		c3.67-0.13,7.36,0.01,11.03-0.17c6.59-0.32,13.17-0.76,19.75-1.22c5.91-0.41,11.83-0.32,17.74-0.26c0.5,0.01,1.15,0.05,1.47-0.22
		c0.59-0.49,1.15-1.15,1.43-1.86c0.35-0.87,0.47-1.85,0.56-2.8c0.23-2.41,0.37-4.83,0.56-7.25c0.07-0.87,0.17-1.74,0.23-2.62
		c0.1-1.23,0.17-2.46,0.27-3.7c0.36-4.37,0.8-8.73,1.06-13.11c0.22-3.58,0.17-7.17,0.36-10.75c0.16-3.06,0.67-6.11,0.36-9.18
		c-0.1-1.02-0.3-2.04-0.41-3.06c-0.06-0.55-0.06-1.11-0.08-1.66c-0.01-0.27,0.07-0.59-0.03-0.82c-0.33-0.73-0.22-1.46-0.16-2.21
		c0.1-1.33,0.15-2.68-0.23-4.01c0.72-0.52,0.77-0.53,0.74-1.52c-0.09-2.55-0.25-5.1-0.33-7.65c-0.06-1.79-0.15-3.58-0.02-5.36
		c0.1-1.39,0.23-2.77,0.18-4.17c-0.07-1.83,0.02-3.67-0.06-5.5c-0.09-1.98-1.05-3.44-2.87-4.32c-0.85-0.41-1.65-0.91-2.49-1.38
		C379.23,28.67,379.35,28.43,379.36,28.41z M195.59,15.06c0-0.08-0.01-0.15-0.01-0.23c-0.6,0.03-1.21,0.06-1.81,0.09
		c0,0.05,0.01,0.1,0.01,0.14C194.38,15.06,194.98,15.06,195.59,15.06z M129.49,11.06c-0.04-0.06-0.08-0.15-0.13-0.16
		c-0.06-0.02-0.14,0.03-0.21,0.05c0.04,0.06,0.07,0.15,0.13,0.16C129.34,11.13,129.42,11.08,129.49,11.06z"/>
	<path d="M154.33,12.4c0.34,0.03,0.67,0.05,1.01,0.08c0,0.05,0,0.1-0.01,0.15c-0.35,0-0.7,0-1.05,0
		C154.3,12.55,154.32,12.48,154.33,12.4z"/>
	<path class="st0" d="M379.36,28.41c-0.01,0.02-0.12,0.27-0.3,0.66c0.84,0.47,1.64,0.97,2.49,1.38c1.82,0.88,2.78,2.35,2.87,4.32
		c0.09,1.83,0,3.67,0.06,5.5c0.05,1.4-0.08,2.78-0.18,4.17c-0.13,1.78-0.04,3.58,0.02,5.36c0.08,2.55,0.25,5.1,0.33,7.65
		c0.03,0.99-0.01,0.99-0.74,1.52c0.38,1.33,0.33,2.68,0.23,4.01c-0.06,0.76-0.17,1.48,0.16,2.21c0.1,0.23,0.02,0.54,0.03,0.82
		c0.02,0.55,0.02,1.11,0.08,1.66c0.12,1.02,0.31,2.04,0.41,3.06c0.31,3.08-0.2,6.12-0.36,9.18c-0.18,3.58-0.14,7.17-0.36,10.75
		c-0.27,4.37-0.71,8.74-1.06,13.11c-0.1,1.23-0.17,2.46-0.27,3.7c-0.07,0.87-0.17,1.74-0.23,2.62c-0.19,2.42-0.34,4.84-0.56,7.25
		c-0.09,0.95-0.21,1.93-0.56,2.8c-0.28,0.71-0.84,1.36-1.43,1.86c-0.33,0.27-0.97,0.23-1.47,0.22c-5.92-0.07-11.83-0.15-17.74,0.26
		c-6.58,0.45-13.16,0.89-19.75,1.22c-3.67,0.18-7.35,0.04-11.03,0.17c-3.35,0.12-6.7,0.4-10.05,0.62c-3.03,0.2-6.06,0.4-9.09,0.64
		c-2.79,0.22-5.57,0.52-8.35,0.75c-3.06,0.25-6.13,0.45-9.2,0.69c-3.3,0.26-6.6,0.58-9.91,0.82c-4.82,0.35-9.64,0.61-14.46,0.97
		c-2.54,0.19-5.08,0.52-7.62,0.73c-5.09,0.43-10.19,0.86-15.29,1.23c-1.82,0.13-3.66,0.05-5.49,0.16c-1.74,0.1-3.48,0.36-5.22,0.49
		c-2.07,0.15-4.14,0.29-6.22,0.35c-4.91,0.14-9.83,0.22-14.74,0.35c-5.47,0.15-10.94,0.35-16.41,0.52
		c-2.12,0.07-4.24,0.09-6.35,0.19c-3.31,0.17-6.62,0.41-9.93,0.57c-2.11,0.1-4.22,0.13-6.34,0.16c-2.32,0.03-4.63,0.1-6.95,0.04
		c-2.59-0.07-5.19-0.25-7.78-0.44c-2.54-0.18-5.09-0.37-7.62-0.67c-2.91-0.34-5.82-0.16-8.72-0.22c-0.72-0.02-1.44-0.06-2.16-0.07
		c-4.39-0.09-8.78-0.15-13.17-0.27c-3.67-0.1-7.34-0.23-11.01-0.44c-2.5-0.15-4.99-0.49-7.49-0.7c-1.75-0.15-3.5-0.2-5.25-0.33
		c-0.67-0.05-1.34-0.21-2.01-0.26c-0.71-0.05-1.43-0.02-2.14-0.05c-4.63-0.19-9.27-0.38-13.9-0.58c-4.07-0.18-8.14-0.43-12.21-0.53
		c-4.88-0.12-9.74,0.32-14.58,0.93c-1.3,0.16-2.63,0.09-3.94,0.03c-2.39-0.11-4.79-0.28-7.17,0.07c-0.19,0.03-0.51,0.1-0.53,0.19
		c-0.17,1-0.95,0.63-1.52,0.7c-0.79,0.1-1.58,0.11-2.37,0.22c-1.94,0.28-3.87,0.59-5.8,0.88c-0.43,0.06-0.88,0.01-0.96,0.65
		c-0.01,0.13-0.44,0.3-0.68,0.29c-1.87-0.09-3.75-0.17-5.61-0.37c-0.82-0.08-1.5-0.51-2.12-1.17c-2.48-2.63-3.96-5.77-4.98-9.17
		c-0.14-0.46-0.18-0.94-0.27-1.41c-0.68-3.69-1.4-7.37-2.01-11.07c-0.29-1.77-0.36-3.57-0.53-5.36c-0.05-0.55-0.12-1.1-0.19-1.64
		c-0.01-0.08-0.08-0.17-0.05-0.23c0.58-1.1-0.03-2.18-0.04-3.27c-0.01-1.35,0.02-2.71,0.04-4.06c0.03-1.59,0.06-3.18,0.12-4.77
		c0.02-0.59,0.11-1.13,0.39-1.71c0.31-0.65,0.35-1.46,0.36-2.21c0.06-2.79,0.01-5.59,0.09-8.38c0.05-1.91,0.26-3.82,0.35-5.73
		c0.07-1.63-0.04-3.28,0.1-4.9c0.17-2.02,0.51-4.02,0.75-6.03c0.34-2.81,0.59-5.64,1.37-8.38c0.43-1.49,0.91-2.96,1.32-4.45
		c0.39-1.42,0.78-2.85,1.08-4.3c0.35-1.73,0.93-3.41,1.76-4.93c0.81-1.48,1.63-3.02,3.08-4.06c0.19-0.14,0.39-0.3,0.51-0.5
		c0.84-1.34,2.1-0.79,3.24-0.71c0.19,0.01,0.37,0.26,0.54,0.4c1-0.62,1.95-0.17,2.91,0.1c0.19,0.05,0.4,0.05,0.6,0.08
		c0.23,0.03,0.51-0.02,0.67,0.1c0.83,0.59,1.74,0.63,2.7,0.51c0.42-0.05,0.86,0.1,1.29,0.13c0.5,0.04,0.97,0.26,1.5-0.08
		c0.22-0.14,0.7,0.01,1.02,0.14c1.17,0.5,2.19,0.03,3.19-0.47c0.22-0.11,0.33-0.43,0.49-0.65c0.2-0.27,0.4-0.53,0.59-0.79
		c-0.22-0.14-0.49-0.31-0.8-0.51c1.04-0.8,2.2-0.69,3.27-0.87c2.8-0.46,5.6-0.85,8.41-1.27c1.42-0.21,2.85-0.4,4.27-0.63
		c0.74-0.12,1.46-0.48,2.19-0.48c3.91-0.02,7.83,0.05,11.74,0.07c0.6,0,1.2,0.02,1.79-0.06c4.04-0.5,8.11-0.85,12.11-1.59
		c2.75-0.51,5.55-0.53,8.27-1.16c0.76-0.18,1.59-0.08,2.38-0.16c2.06-0.21,4.12-0.58,6.19-0.65c2.27-0.08,4.55,0.1,6.82,0.2
		c1.35,0.05,2.7,0.1,4.04,0.25c1.94,0.21,3.88,0.14,5.82,0.57c1.46,0.32,3.02,0.19,4.54,0.31c2.75,0.22,5.5,0.41,8.23,0.72
		c3.65,0.41,7.29,0.94,10.93,1.41c2.57,0.33,5.14,0.76,7.73,0.94c2.54,0.18,5.1,0.11,7.64,0.15c1.79,0.03,3.59,0.07,5.38,0.12
		c1.99,0.05,3.98,0.09,5.97,0.18c1.51,0.07,3.01,0.24,4.51,0.29c1.2,0.04,2.39-0.04,3.59-0.08c2.55-0.08,5.1-0.14,7.65-0.26
		c5.7-0.26,11.39-0.55,17.09-0.81c1.59-0.07,3.18-0.15,4.77-0.15c1.28,0,2.55,0.18,3.83,0.14c3.03-0.09,6.06-0.29,9.08-0.41
		c1.19-0.05,2.39-0.01,3.58-0.03c1.36-0.02,2.71-0.05,4.07-0.1c4.91-0.19,9.81-0.4,14.7-0.94c3.21-0.36,6.45-0.43,9.68-0.65
		c3.87-0.26,7.74,0.09,11.61,0.08c2.83-0.01,5.65-0.06,8.48-0.08c2.16-0.02,4.32,0.05,6.47-0.07c2.79-0.15,5.57-0.48,8.36-0.66
		c3.15-0.2,6.3-0.31,9.45-0.49c2.87-0.16,5.74-0.35,8.61-0.55c4.58-0.31,9.15-0.74,13.74-0.92c3.58-0.14,7.18-0.09,10.77,0.06
		c4.83,0.19,9.64,0.61,14.47,0.82c2.47,0.11,4.95-0.03,7.43-0.06c3.88-0.06,7.75-0.13,11.63-0.18c1.27-0.02,2.55-0.02,3.82,0.03
		c0.67,0.03,1.35,0.15,1.82,0.74C378.26,27.07,378.74,27.65,379.36,28.41z M250.07,105.81c0.34,0.92,0.68,1.85,1.07,2.92
		c0.49-0.25,0.88-0.46,1.5-0.78c0.11,0.27,0.25,0.6,0.4,0.93c0.1-0.05,0.2-0.1,0.3-0.16c0.12-0.68,0.25-1.36,0.39-2.11
		c0.26-0.1,0.58-0.22,1.02-0.39c0.24,0.49,0.38,1.01,0.71,1.38c0.31,0.35,0.8,0.53,1.33,0.85c-0.05-1.04-0.54-1.97,0.13-2.99
		c0.22,0.17,0.51,0.29,0.62,0.51c0.47,0.96,0.45,0.97,1.62,0.93c-0.11-1.04-0.23-2.07-0.36-3.23c0.25,0.25,0.44,0.55,0.57,0.53
		c0.57-0.09,1.28-0.1,1.64-0.45c0.6-0.58,0.96-1.4,1.41-2.13c0.05-0.07-0.03-0.23-0.06-0.34c-0.16-0.86-0.27-1.73-0.5-2.57
		c-0.29-1.1-0.81-2.15-0.98-3.26c-0.59-3.94-1.1-7.89-1.22-11.87c-0.03-1.06,0.06-2.12,0.17-3.17c0.02-0.2,0.39-0.36,0.57-0.52
		c-0.26-0.25-0.53-0.5-0.79-0.75c0.13-0.17,0.16-0.25,0.22-0.3c0.89-0.76,1.69-1.73,3.09-0.98c0.33,0.17,0.55-0.17,0.57-0.53
		c-0.23-0.12-0.45-0.23-0.92-0.47c1.12-0.45,2.22-0.41,2.85-1.38c-0.64-0.16-1.32-0.28-1.56-1c0.69-0.19,1.37-0.37,2.02-0.54
		c0.12-0.46,0.22-0.84,0.34-1.28c0.74,0.04,1.44,0.08,2.24,0.13c-0.24-0.28-0.39-0.45-0.68-0.78c0.67,0,1.12,0,1.61,0
		c0.04-0.67-0.33-0.99-0.78-1.15c-0.49-0.17-0.79-0.47-1.08-0.88c-0.16-0.23-0.5-0.35-0.78-0.5c-0.52-0.28-1.04-0.58-1.58-0.83
		c-0.83-0.38-1.67-0.72-2.51-1.07c-0.29-0.12-0.73-0.15-0.85-0.37c-0.37-0.65-0.99-0.67-1.55-0.72c-2.5-0.2-5.01-0.41-7.52-0.47
		c-2.71-0.07-5.41,0.19-8.04,0.9c-0.63,0.17-1.19,0.6-1.76,0.94c-0.46,0.28-0.88,0.63-1.34,0.92c-0.29,0.18-0.62,0.3-0.91,0.44
		c0.03,0.23,0.05,0.34,0.05,0.46c0.05,1.31-0.17,1.49-1.41,1.13c-1.13-0.33-2.25,0.26-2.47,1.42c-0.11,0.61-0.35,0.92-0.92,1
		c-0.21-0.16-0.4-0.32-0.61-0.48c-0.09,0.16-0.17,0.25-0.16,0.3c0.44,1.26-0.58,2.25-0.65,3.43c-0.02,0.27-0.55,0.5-0.61,0.79
		c-0.19,1.03-0.93,1.95-0.57,3.08c0.04,0.14-0.02,0.32-0.05,0.47c-0.37,1.57-0.44,3.22-1.17,4.71c-0.1,0.2-0.03,0.48-0.09,0.7
		c-0.11,0.42-0.21,0.84-0.39,1.23c-0.26,0.57-0.6,1.1-0.86,1.67c-0.38,0.84-0.7,1.7-1.07,2.53c-0.17,0.38-0.39,0.75-0.88,0.97
		c-0.09-0.31-0.2-0.53-0.22-0.75c-0.21-3.13-0.44-6.26-0.58-9.4c-0.08-1.86,0.09-3.74-0.02-5.6c-0.06-1-0.36-2.04-0.82-2.92
		c-0.2-0.38-0.39-0.7-0.43-1.13c-0.03-0.4,0.16-0.86-0.32-1.27c-0.24,0.62,0.41,1.3-0.28,1.86c-0.16-0.66-0.31-1.23-0.42-1.7
		c-0.7-0.23-1.33-0.44-1.95-0.64c-0.1-0.44-0.2-0.88-0.32-1.38c-0.45,0.15-0.77,0.26-1.07,0.36c-0.17-0.3-0.3-0.52-0.42-0.73
		c-0.9,0.25-0.89,1.02-1.09,1.7c-0.92-0.03-1.33,0.53-1.58,1.3c-0.16,0.49-0.27,1.07-0.61,1.42c-0.82,0.86-1.05,1.87-1.08,2.99
		c-0.01,0.47-0.05,0.94-0.08,1.41c-0.07,0-0.14,0.01-0.21,0.01c-0.09-0.73-0.17-1.45-0.26-2.18c-0.27,0.27-0.36,0.53-0.36,0.79
		c-0.02,1.62,0.01,3.24-0.03,4.86c-0.05,2.07-0.14,4.14-0.21,6.2c-0.13,3.63,0.07,7.24,0.58,10.84c0.38,2.72,0.81,5.43,1.89,7.99
		c0.5,1.18,1.28,2.1,2.33,2.8c0.71,0.47,1.52,0.37,2.35,0.39c-0.31-0.57-0.32-0.74-0.06-1.02c0.28-0.3,0.59-0.4,0.95-0.15
		c0.2,0.13,0.41,0.26,0.58,0.42c0.33,0.32,0.67,0.3,1.09,0.18c0.73-0.2,0.85-0.69,0.67-1.37c0.29-0.03,0.5-0.11,0.67-0.06
		c1.42,0.49,2.26-0.57,3.23-1.22c0.11-0.08,0.11-0.36,0.13-0.55c0.07-0.85,0.09-0.87,0.96-0.5c0.46-0.37,0.91-0.76,1.38-1.11
		c0.98-0.73,1.64-1.7,2.31-2.69c0.62-0.91,0.88-1.93,1.27-2.93c1.12-2.88,2.37-5.71,3.56-8.57c0.21-0.5,0.34-1.03,0.57-1.52
		c0.34-0.72,0.78-1.4,1.11-2.13c0.34-0.76,0.6-1.56,0.89-2.35c0.37-0.97,0.87-1.91,1.07-2.9c0.21-1.05,0.97-1.87,1.06-2.96
		c0.03-0.38,0.27-0.78,0.77-0.78c0.87-0.01,1.74,0,2.72,0c0.03,0.47,0.1,0.86,0.08,1.24c-0.06,1.11-0.23,2.22-0.23,3.33
		c-0.02,3.07,0.14,6.15,0.01,9.21c-0.11,2.49,0.19,4.93,0.48,7.37c0.28,2.37,0.79,4.71,1.2,7.06c-0.47-0.71-0.62-1.52-0.71-2.36
		c-0.11-1.04-0.16-1.14-0.61-1.83c0.12,1.64,0.56,3.12,1.03,4.87C249.96,106.09,250.02,105.95,250.07,105.81z M157.39,108.5
		c0.22-0.37,0.47-0.67,0.58-1.01c0.13-0.41,0.1-0.86,0.21-1.27c0.05-0.21,0.23-0.39,0.35-0.58c0.41-0.69,1.1-1.21,1.18-2.11
		c0.36-4.26,0.37-8.53,0.24-12.81c-0.03-1.09-0.01-2.19,0.25-3.47c1.2,0.66,2.27,1.25,3.34,1.83c2.28,1.23,4.55,1.71,6.79-0.09
		c0.15-0.12,0.28-0.29,0.45-0.37c0.18-0.08,0.4-0.09,0.6-0.13c-0.17,1.19-0.41,2.29-0.47,3.39c-0.12,2.49-0.75,4.93-0.61,7.45
		c0.12,2.22-0.02,4.45,0.11,6.66c0.06,1.05,0.5,2.07,0.79,3.11c0.04,0.14,0.19,0.34,0.29,0.34c0.73-0.03,0.63,0.58,0.8,0.98
		c0.1,0.22,0.23,0.44,0.34,0.65c0.09-0.03,0.18-0.06,0.27-0.08c-0.13-0.77-0.27-1.53-0.4-2.31c0.09-0.04,0.28-0.14,0.3-0.11
		c0.63,0.87,1.24,1.74,1.87,2.64c0.5-0.56,0.94-1.05,1.37-1.53c-0.81-1.16-0.81-1.16-0.53-1.64c0.5,0.38,0.99,0.77,1.57,1.22
		c0.21-0.27,0.52-0.54,0.66-0.88c0.26-0.63,0.43-1.29,0.68-2.09c0.48,0.33,0.81,0.55,1.19,0.81c0.31-0.58,0.6-1.13,0.9-1.68
		c0.54,0.19,0.92-0.11,1.36-0.38c0.35-0.21,0.84-0.2,1.29-0.28c0.19,0.66,0.32,1.25,0.53,1.8c0.34,0.9,0.49,1.91,1.4,2.53
		c0.22,0.15,0.4,0.82,0.3,0.9c-0.45,0.37-0.17,0.64,0.04,0.91c0.39,0.5,0.8,0.99,1.23,1.47c0.84,0.94,2.01,1.31,3.13,1.68
		c0.5,0.16,1.16-0.1,1.72-0.26c0.46-0.13,0.84-0.4,0.84-1c0-0.11,0.32-0.22,0.6-0.41c-0.1,0.34-0.15,0.51-0.24,0.81
		c0.47,0.05,0.9,0.09,1.54,0.16c-0.33-0.37-0.48-0.53-0.66-0.73c0.42-0.44,0.8-0.93,1.39-0.89c0.88,0.06,1.54-0.29,2.22-0.95
		c0.15,0.76,0.64,0.71,1.1,0.59c0.49-0.12,1.05-0.24,0.91-0.99c-0.02-0.08,0.24-0.31,0.28-0.29c0.4,0.18,0.43-0.12,0.59-0.36
		c0.28-0.42,0.58-0.88,0.97-1.18c1.56-1.19,2.93-2.57,4.18-4.06c0.38-0.46,0.92-0.85,1.12-1.38c0.59-1.54,1.58-2.84,2.36-4.27
		c0.53-0.98,1.29-1.94,1.45-2.99c0.22-1.43,0.93-2.58,1.47-3.83c0.22-0.51,0.41-1.04,0.59-1.56c0.06-0.18,0.14-0.42,0.07-0.57
		c-0.62-1.44,0.02-2.7,0.46-4.02c0.64-1.93,0.82-3.92-0.07-5.82c-0.7-1.5-1.05-3.2-2.34-4.39c-0.03-0.03-0.06-0.07-0.06-0.1
		c0.03-1.13-0.94-1.5-1.61-2.07c-0.76-0.64-1.6-1.17-2.41-1.75c-0.23-0.16-0.44-0.37-0.69-0.46c-1.79-0.61-3.39-1.83-5.41-1.67
		c-0.15,0.01-0.31-0.07-0.46-0.12c-1-0.33-2.06-0.39-3.06-0.19c-1.51,0.29-3.25-0.02-4.37,1.47c-0.08,0.11-0.3,0.11-0.42,0.21
		c-0.3,0.25-0.58,0.52-0.91,0.82c0.21,0.36,0.38,0.66,0.56,0.97c-0.32,0.39-0.58,0.8-0.94,1.1c-0.97,0.78-1.72,1.74-2.49,2.78
		c0.77,0.16,1.45,0.3,2.09,0.44c0.14,0.75-0.37,0.8-0.76,0.95c-0.39,0.14-0.8,0.15-1.11,0.6c-0.4,0.57,0.24,0.85,0.23,1.3
		c-0.28,0.22-0.54,0.43-0.88,0.71c0.39,0.16,0.67,0.27,0.88,0.36c-0.99,2.42-1.96,4.78-2.91,7.14c-1.9,4.74-3.24,9.59-2.81,14.77
		c0.01,0.09-0.09,0.19-0.22,0.46c-0.16-0.43-0.31-0.69-0.35-0.97c-0.32-1.86-0.86-3.71-0.27-5.62c0.04-0.14-0.04-0.31-0.04-0.47
		c-0.01-0.64-0.06-1.28,0-1.91c0.11-1.15,0.3-2.29,0.43-3.43c0.31-2.73,0.55-5.46,0.96-8.17c0.11-0.69,0.08-1.2-0.29-1.68
		c1.01-1.9,1.14-3.93,1.42-5.92c0.28-2,0.73-4.02-0.11-6.12c-0.42-0.11-0.99-0.47-1.38-0.33c-0.76,0.28-0.99-0.19-1.22-0.6
		c-0.38,0.14-0.66,0.24-0.94,0.34c-0.02-0.32-0.04-0.64-0.06-0.84c-0.62-0.45-1.21-0.85-1.76-1.29c-0.38-0.3-0.71-0.33-1.04,0.03
		c-0.19,0.2-0.42,0.4-0.51,0.64c-0.34,0.94-0.94,1.51-1.97,1.61c-0.53,0.05-0.87,0.32-0.92,0.91c-0.19,2.01-1.49,3.65-1.9,5.62
		c-0.26,1.24-1.06,2.37-1.63,3.54c-0.11,0.23-0.31,0.42-0.53,0.73c-0.97-0.71-1.92-1.31-2.75-2.05c-1.19-1.06-2.4-2.13-3.38-3.37
		c-1.13-1.42-2.04-3.01-3.02-4.55c-0.36-0.57-0.85-1.14-0.96-1.77c-0.21-1.19-1.13-1.51-1.99-1.74c-1.22-0.33-2.27-0.77-2.81-1.94
		c-0.48-0.12-0.87,0.42-1.36-0.13c-0.38-0.42-0.91-0.08-1.11,0.53c-0.08,0.25-0.18,0.52-0.34,0.73c-0.33,0.46-0.7,0.9-1.13,1.44
		c-0.57-0.05-0.98,0.2-0.94,1.02c0.02,0.34-0.22,0.68-0.3,1.02c-0.07,0.3-0.2,0.67-0.09,0.91c0.3,0.63,0.13,1.28-0.12,1.73
		c-0.46,0.81-0.33,1.58-0.29,2.4c0.04,0.72-0.1,1.41-0.56,2.09c-0.16-0.73-0.31-1.47-0.47-2.2c-0.08,0.57-0.08,1.13,0.04,1.66
		c0.31,1.39,0.66,2.77,1.03,4.14c0.18,0.67,0.05,1.45,0.73,1.96c0.15,0.11,0.13,0.44,0.18,0.68c0.11,0.55,0.23,1.09,0.31,1.64
		c0.03,0.16-0.04,0.34-0.09,0.71c-0.88-0.98-0.6-2.21-1.19-3.2c-0.45,1.05-0.04,1.89,0.36,2.64c0.34,0.64,0.49,1.25,0.47,1.94
		c-0.05,1.75,0.26,3.54-0.57,5.2c-0.03,0.07-0.02,0.16-0.02,0.24c-0.01,2.46-0.08,4.93-0.02,7.39c0.05,1.91,0.22,3.82-0.1,5.72
		c-0.04,0.22,0.1,0.46,0.11,0.69c0.02,1.24,0.94,2.36,0.32,3.83c0.78-0.16,1.37-0.27,1.98-0.4c0.24,0.8,0.45,1.53,0.67,2.26
		c0.65,0.18,1.14-0.34,1.73-0.5c0.57-0.16,1.21-0.03,1.79-0.03c0.15-0.8,0.28-1.49,0.43-2.32
		C157.2,108.13,157.29,108.3,157.39,108.5z M357.15,100.53c-0.31-0.4-0.51-0.66-0.79-1.03c0.56-0.13,0.98-0.23,1.4-0.33
		c0.23-0.05,0.55-0.01,0.68-0.15c0.71-0.82,1.61-1.09,2.72-0.96c-0.22-0.27-0.37-0.46-0.58-0.72c0.47-0.18,0.83-0.32,1.3-0.5
		c-0.2-0.56-0.25-1.28-0.64-1.65c-0.76-0.72-1.64-1.43-2.6-1.81c-0.86-0.34-1.52-0.8-2.1-1.46c-0.5-0.57-1.12-0.75-1.88-0.89
		c-1.84-0.33-3.66-0.03-5.49-0.05c-2.19-0.03-4.38,0.13-6.57,0.23c-0.98,0.05-1.95,0.15-2.98,0.23c-0.06-0.38-0.16-0.65-0.13-0.91
		c0.16-1.46,0.13-2.94,0.64-4.36c0.38-1.04,0.46-1.19,1.44-1.32c0.2-0.02,0.4-0.03,0.6-0.04c0.59-0.05,1.19-0.08,1.78-0.15
		c2.06-0.24,4.1-0.6,6.17-0.72c1.72-0.1,3.17-0.87,4.93-1.43c-0.35-0.46-0.59-0.78-0.87-1.15c0.86-0.25,1.81,0.03,2.53-0.58
		c-0.2-0.44-0.39-0.84-0.56-1.21c0.41-0.22,0.71-0.37,1.16-0.61c-0.39-0.11-0.55-0.16-0.72-0.2c0.01-0.05,0.02-0.1,0.02-0.16
		c1.05-0.14,2.1-0.29,3.3-0.45c-0.18-0.48-0.2-0.98-0.46-1.17c-1.14-0.87-1.8-2.44-3.54-2.46c-0.12,0-0.25-0.16-0.35-0.27
		c-0.43-0.43-0.78-1-1.29-1.27c-1.16-0.6-2.4-0.99-3.77-0.83c-2.02,0.24-4.05,0.42-6.08,0.62c-0.7,0.07-1.4,0.11-2.12,0.16
		c-0.06-0.32-0.09-0.47-0.11-0.62c-0.3-1.87-0.2-2.16,1.67-2.28c2.76-0.17,5.55-0.9,8.31,0.14c0.37,0.14,0.79,0.01,0.93-0.48
		c0.32-1.13,0.57-1.36,1.68-1.32c1.05,0.04,2.09,0.16,3.29,0.26c-0.4-0.56-0.74-1.02-1.18-1.64c0.7-0.12,1.29-0.22,1.98-0.33
		c-0.14-0.52-0.28-1.01-0.44-1.59c1.35-0.08,2.69,0.08,3.84-0.76c-0.57-0.72-1.65-0.54-1.81-1.57c-0.15,0.19-0.26,0.32-0.33,0.41
		c-0.28-0.37-0.5-0.8-0.85-1.06c-0.39-0.29-0.9-0.4-1.48-0.64c0.26-0.11,0.36-0.16,0.46-0.2c0.1-0.04,0.2-0.09,0.43-0.2
		c-0.82-0.64-1.67-1.01-2.53-1.34c0.2-0.33,0.33-0.62,0.54-0.85c0.26-0.29,0.57-0.73,0.87-0.74c1.69-0.07,2.92-1.56,4.65-1.47
		c0.24,0.01,0.5-0.22,0.75-0.34c1.78-0.82,2.38-2.58,2.9-4.18c0.4-1.23,0.91-2.25,1.75-3.17c0.16-0.17,0.27-0.39,0.39-0.59
		c0.33-0.53,0.66-1.07,1-1.6c0.39-0.6,1.05-1.17,1.11-1.8c0.06-0.66,0.3-1.18,0.58-1.69c-0.88-1.18-1.51-0.07-2.29,0.16
		c0.14-0.39,0.35-0.69,0.57-0.98c0.26-0.33,0.61-0.63,0.34-1.21c-0.2,0.08-0.37,0.17-0.54,0.21c-0.32,0.08-0.64,0.15-0.97,0.22
		c0.01-0.29,0.02-0.57,0.03-0.86c0-0.39,0-0.77,0-1.19c-0.3-0.01-0.52-0.02-0.73-0.03c-0.03-0.26-0.06-0.48-0.09-0.7
		c-0.43,0.18-0.84,0.3-1.21,0.5c-0.68,0.37-1.48,0.67-1.99,1.22c-1.7,1.84-3.33,3.75-4.92,5.69c-1.11,1.36-1.25,1.47-2.89,1
		c-0.46,0.48-0.91,0.95-1.48,1.55c-1.28-1.36-1.87-2.96-2.68-4.51c-0.2,0.33-0.33,0.54-0.54,0.9c-0.54-0.87-1.01-1.63-1.37-2.22
		c-0.57-0.43-1.01-0.74-1.43-1.08c-0.25-0.2-0.46-0.45-0.71-0.64c-0.74-0.57-1.33-0.59-2.05-0.05c-0.7,0.52-1.41,1.03-2.05,1.62
		c-0.46,0.42-0.8,0.97-1.17,1.45c-0.39-0.08-0.72-0.15-1.06-0.22c-0.03,1.48-0.4,2.81-0.56,4.23c-0.25-0.43-0.5-0.87-0.75-1.3
		c-0.08,0.05-0.17,0.09-0.25,0.14c0.64,1.33,1.29,2.66,2,4.13c-0.39-0.17-0.65-0.28-0.91-0.4c-0.09,0.22-0.14,0.35-0.19,0.49
		c-0.17-0.12-0.3-0.22-0.44-0.31c0.3,1.03,0.71,1.97,1.19,2.87c0.69,1.29,1.99,1.93,3.14,2.7c1.15,0.77,2.21,1.65,3.36,2.77
		c-1.59,0.11-2.96,0.29-4.34,0.28c-1.7-0.01-3.26,0.27-4.57,1.41c-0.23,0.2-0.46,0.41-0.67,0.63c-0.47,0.49-0.94,0.93-1.67,1.03
		c-0.45,0.06-0.89,0.25-1.4,0.4c0.18,0.4,0.3,0.68,0.44,0.99c-0.27,0.2-0.51,0.38-0.7,0.52c0.09,0.3,0.16,0.5,0.18,0.56
		c-0.42,0.32-1.02,0.57-1.01,0.8c0.03,0.68,0.63,0.53,1.11,0.48c0.04,0,0.08-0.01,0.12-0.01c0.98-0.01,1.13,0.25,0.74,1.05
		c-0.9,0.17-1.71,0.32-2.49,0.46c-0.05,0.55-0.09,0.94-0.13,1.35c-0.49,0.07-0.91,0.14-1.45,0.22c-0.21,1.38-0.41,2.76-0.62,4.13
		c-0.14,0.91-0.24,1.82-0.45,2.71c-0.1,0.39-0.36,0.83-0.68,1.07c-0.7,0.52-1.49,0.93-2.21,1.37c0.05,1.16-0.18,2.17-1.08,3.14
		c0.51,0,0.89-0.02,1.26,0c0.82,0.06,1.56,0.98,1.15,1.56c-0.4,0.58-0.44,1.55-1.44,1.61c-0.04,0-0.08,0.19-0.12,0.31
		c0.48,0.12,0.93,0.23,1.4,0.35c-0.02,0.33-0.02,0.57-0.04,0.8c-0.37,3.49-0.74,6.98-1.12,10.47c-0.06,0.59-0.24,1.17,0.35,1.66
		c0.17,0.14,0.29,0.58,0.2,0.76c-0.34,0.7,0.21,1.2,0.33,1.79c0.07,0.35,0.24,0.67,0.37,1.02c0.95,0.15,2,0.49,3.02,0.43
		c1.13-0.07,1.95,0.96,3.09,0.66c0.13-0.27,0.25-0.54,0.4-0.86c-0.51-0.13-0.98-0.25-1.45-0.38c0.01-0.08,0.01-0.16,0.02-0.25
		c0.38-0.03,0.75-0.09,1.13-0.1c1.39-0.02,2.78,0.06,4.17-0.04c1.86-0.13,3.69-0.28,5.55,0.12c1.39,0.3,2.84,0.35,4.26,0.52
		c0.27,0.03,0.53,0.14,0.78,0.25c0.31,0.14,0.59,0.32,0.74,0.4c0.17-0.46,0.22-0.85,0.43-1.08c0.34-0.35,0.79-0.46,1.32-0.3
		c0.7,0.21,1.29,0.05,2.01-0.3C355.68,101.1,356.13,100.28,357.15,100.53z M72.88,91.64c-0.12-0.01-0.24-0.01-0.36-0.02
		c-0.56-1.69-1.27-3.35-1.65-5.09c-0.86-3.97-2.34-7.7-4.07-11.34c-1.1-2.32-2.45-4.4-4.61-5.95c-0.96-0.69-2.27-0.39-3.04-1.37
		c-0.07-0.09-0.38,0.01-0.58,0.02c-0.23,0.01-0.47,0.05-0.7,0.03c-0.97-0.07-1.3,0.15-1.75,1.02c-0.31,0.59-0.63,1.22-1.46,1.22
		c-0.61,0-0.88,0.36-1.13,0.89c-0.26,0.56-0.71,1.03-1.04,1.56c-0.36,0.57-0.68,1.16-1,1.76c-0.15,0.28-0.17,0.65-0.37,0.87
		c-1.03,1.14-1.17,2.59-1.45,3.99c-0.63,3.12-1.2,6.26-1.8,9.39c-0.29,1.53-0.63,3.05-0.87,4.58c-0.44,2.84-0.8,5.69-1.22,8.53
		c-0.22,1.46-0.48,2.91-0.75,4.36c-0.17,0.91,0.04,1.56,0.86,2.14c0.51,0.36,0.86,0.86,1.59,0.72c0.13-0.02,0.3,0.19,0.47,0.3
		c0.14-0.15,0.22-0.29,0.35-0.38c0.82-0.62,0.9-0.6,1.85-0.01c0.33,0.2,0.85,0.5,1.07,0.37c0.51-0.3,0.79,0.25,1.34,0.16
		c0.33-0.94,0.67-1.93,0.99-2.85c0.48,0.18,0.96,0.37,1.39,0.53c0.72-0.39,1.13-0.88,0.92-1.83c0.38,0.32,0.59,0.49,0.75,0.63
		c0.39-0.11,0.75-0.16,1.06-0.31c0.3-0.14,0.74-0.35,0.79-0.6c0.2-0.9,1.22-1.25,1.35-2.22c0.91,1.92,1.71,3.81,2.46,5.73
		c0.37,0.97,0.57,2,0.96,2.96c0.31,0.77,0.77,1.48,1.23,2.17c0.18,0.28,0.64,0.66,0.83,0.59c0.89-0.32,1.99,0.23,2.77-0.84
		c0.26,0.37,0.47,0.66,0.8,1.11c-0.04-0.73-0.07-1.22-0.11-1.78c0.3,0.03,0.6,0.12,0.65,0.05c0.69-1.07,1.68-0.67,2.59-0.52
		c1.04,0.18,1.13,0.17,1.63-0.69c0.4-0.68,0.68-1.41,1.34-1.95c0.57-0.47,0.68-1.43,1.63-1.54c0.14-0.02,0.31-0.26,0.37-0.43
		c0.24-0.66,0.44-1.33,0.65-1.99c-0.29-0.04-0.49-0.07-0.69-0.1c0.28-0.49,0.55-0.88,0.72-1.31c0.41-1.02,0.78-2.05,1.16-3.08
		c0.72-1.97,1.44-3.94,2.16-5.92c0.16-0.45,0.26-0.92,0.45-1.35c0.53-1.19,1.14-2.34,1.65-3.54c0.49-1.13,0.88-2.3,1.36-3.43
		c0.36-0.83,0.85-1.61,1.21-2.45c0.48-1.14,0.86-2.31,1.33-3.46c0.41-1.03,1-2.01,1.29-3.07c0.28-1.03,0.5-2.07,1.01-3.02
		c0.2-0.39,0.35-0.81,0.59-1.17c0.17-0.26,0.1-0.47,0.11-0.73c0.03-0.8-0.59-1.39-0.54-2.19c0.01-0.25-0.37-0.57-0.64-0.76
		c-0.34-0.24-0.75-0.38-1.2-0.59c-0.38,0.55-1.03,0.49-1.35,0.04c-0.52-0.73-1.37-0.7-1.89-1.17c-0.63,0.28-1.17,0.52-1.71,0.76
		c-0.12,0.43-0.12,0.96-0.37,1.26c-0.89,1.05-1.45,2.25-1.95,3.5c-1.29,0.64-1.79,1.88-2.33,3.09c-0.23,0.5-0.56,0.96-0.74,1.47
		c-0.58,1.7-1.12,3.41-1.67,5.12c-0.58,1.81-1.12,3.63-1.71,5.43C73.57,89.87,73.21,90.75,72.88,91.64z M320.89,105.47
		c0.08-0.01,0.16-0.02,0.25-0.04c0.47,0.86,0.95,1.71,1.41,2.57c0.28,0.51,0.68,0.57,0.93,0.05c0.19-0.39,0.19-0.87,0.27-1.33
		c0.44,0.02,0.96,0.04,1.45,0.07c0.12-0.21,0.23-0.4,0.36-0.62c0.26,0.2,0.43,0.35,0.61,0.49c0.33-0.2,0.63-0.38,0.96-0.58
		c-0.09-0.31-0.1-0.66-0.27-0.81c-0.43-0.39-0.52-0.86-0.57-1.38c-0.11-1.27-0.32-2.53-0.35-3.81c-0.08-3.39-0.04-6.77-0.14-10.16
		c-0.07-2.3,0.54-4.54,0.47-6.85c-0.03-0.98,0.3-1.96,0.45-2.95c0.04-0.26,0.12-0.7,0-0.78c-0.48-0.31-0.29-0.66-0.22-1.05
		c0.08-0.43,0.12-0.87,0.11-1.31c-0.02-2.01,0.05-4.01,0.45-6c0.17-0.85,0.19-1.74,0.15-2.61c-0.02-0.38-0.32-1.01-0.58-1.06
		c-0.93-0.17-1.11-0.9-1.39-1.61c-0.43,0.13-0.79,0.24-0.99,0.31c-0.39-0.68-0.68-1.27-1.04-1.82c-0.32-0.48-1.49-0.69-1.89-0.29
		c-0.49,0.49-0.88,1.09-1.62,1.24c-0.36,0.9-1.03,0.98-1.9,0.56c-0.32,0.98-0.62,1.87-0.9,2.77c-0.13,0.42-0.22,0.78-0.7,1.02
		c-0.71,0.35-1.04,1-1.2,1.81c-0.23,1.2-0.61,2.38-1.37,3.38c-0.29,0.38-0.67,0.7-0.92,1.1c-0.95,1.55-2.38,2.31-4.12,2.52
		c-0.73,0.09-1.59,0.2-2.08-0.55c-0.5-0.76-0.98-1.56-1.29-2.41c-0.42-1.16-0.78-2.36-0.96-3.57c-0.34-2.3-1.97-3.41-3.75-4.44
		c-0.93,0.15-1.21-0.6-1.6-1.17c-0.29-0.42-0.44-0.91-1.14-0.84c-0.55,0.06-1.09-0.02-1.56,0.4c-0.38,0.34-0.83,0.6-1.24,0.88
		c-0.06,0.39-0.12,0.76-0.18,1.16c-0.66,0.05-1.24,0.09-1.67,0.12c-0.19,0.8-0.56,1.47-0.44,2.04c0.19,0.91-0.23,1.49-0.63,2.19
		c-0.29-0.28-0.55-0.53-0.81-0.78c-0.08,0.04-0.16,0.07-0.24,0.11c0.07,0.32,0.1,0.64,0.21,0.94c0.2,0.54,0.6,1.06,0.65,1.61
		c0.12,1.32,0.2,2.66,0.1,3.98c-0.11,1.4-0.58,2.77-0.47,4.21c0.02,0.23-0.03,0.49-0.14,0.7c-0.43,0.88-0.31,1.98-1.12,2.71
		c-0.13,0.11-0.16,0.37-0.17,0.56c-0.23,2.42-0.56,4.84-0.63,7.27c-0.09,2.86,0.05,5.73,0.1,8.6c0.01,0.3,0.13,0.61,0.22,0.99
		c0.38-0.07,0.7-0.12,1.01-0.18c0.15,0.28,0.29,0.57,0.43,0.83c0.38,0.06,0.79,0.02,1.06,0.2c0.5,0.33,0.93,0.44,1.52,0.23
		c0.27-0.1,0.68,0.1,0.99,0.24c0.35,0.16,0.67,0.41,1.06,0.66c0.32-0.39,1.08-0.13,1.14-0.92c-0.25-0.11-0.49-0.22-0.71-0.32
		c0-0.48,0-0.9,0-1.27c0.55-0.15,1.1-0.31,1.61-0.45c0.04-0.59-0.37-1.07,0.26-1.59c0.3,0.52,0.58,0.99,0.85,1.46
		c0.06-0.03,0.12-0.05,0.19-0.08c-0.18-0.5-0.35-1.01-0.55-1.57c0.7-0.71,1.31-1.5,0.6-2.59c-0.06-0.09-0.04-0.23-0.04-0.35
		c-0.06-2.27-0.15-4.55-0.18-6.82c-0.02-1.74,0.22-1.9,1.94-1.73c1.71,0.17,3.42,0.29,5.08-0.35c0.31-0.12,0.7-0.04,1.05-0.09
		c0.3-0.05,0.69-0.06,0.87-0.25c1.35-1.45,3.08-1.49,4.92-1.43c0,1.72-0.01,3.34,0,4.97c0.01,2.9,0,5.8,0.07,8.7
		c0.04,1.7,0.07,3.42,0.35,5.09c0.24,1.45,0.15,3.08,1.41,4.2c0.37-0.22,0.76-0.45,1.18-0.7c0.25,0.74,0.46,1.4,0.73,2.21
		c0.45-0.56,0.78-0.98,1.13-1.41c0.27,0.15,0.53,0.25,0.76,0.41c0.24,0.17,0.44,0.39,0.71,0.63c0.17-0.5,0.29-0.86,0.41-1.21
		c-0.41-0.5-0.8-0.98-0.48-1.71c0.94,0.73,0.73,1.86,1.13,2.72c0.75-0.3,1.01-0.72,0.98-1.4c-0.02-0.42-0.02-0.85,0.05-1.26
		c0.1-0.59,0.11-1.14-0.21-1.68C320.94,106,320.94,105.72,320.89,105.47z M113.28,108.72c-0.05-0.51-0.61-0.99-0.16-1.71
		c0.36-0.58,0.87-0.76,1.49-0.9c-0.22-0.49-0.41-0.89-0.64-1.39c0.46,0.03,0.77,0.04,1.07,0.06c0.31-1.25,1.2-1.42,2.31-1.23
		c-0.07-0.58-0.32-1.15-0.13-1.48c0.26-0.46,0.14-0.72-0.08-1.05c-2.28-3.39-3.78-7.1-4.58-11.09c-0.22-1.09-0.52-2.17-0.75-3.26
		c-0.08-0.38-0.14-0.79-0.13-1.18c0.02-0.48-0.65-0.1-0.66-0.68c-0.03-1.27-0.27-2.53-0.37-3.8c-0.18-2.31-0.33-4.61-0.48-6.92
		c-0.02-0.39-0.09-0.86,0.08-1.17c0.31-0.57,0.15-1.09,0.05-1.63c-0.09-0.51-0.3-0.99-0.42-1.5c-0.35-1.41-0.88-1.79-2.38-1.7
		c-0.35,0.02-0.63-0.08-0.74-0.46c-0.03-0.1-0.14-0.17-0.22-0.26c-0.33,0.08-0.63,0.15-0.95,0.23c-0.49-0.44-0.96-0.87-1.35-1.21
		c-0.43,0.05-0.81,0.08-1.18,0.14c-0.29,0.05-0.64,0.04-0.84,0.21c-1.42,1.19-2.64,2.53-3.39,4.27c-0.42,0.98-1.06,1.87-1.58,2.81
		c-0.31,0.56-0.62,1.12-0.86,1.71c-1.04,2.6-2.35,5.05-3.71,7.49c-1.8,3.24-3.58,6.5-5.28,9.79c-1.21,2.34-2.3,4.73-3.39,7.12
		c-0.9,1.95-1.98,3.84-2.34,6c-0.07,0.43-0.24,0.84-0.34,1.26c-0.11,0.46-0.21,0.93-0.29,1.4c-0.07,0.43-0.54,0.8-0.23,1.41
		c0.26-0.19,0.46-0.36,0.69-0.49c0.22-0.12,0.47-0.19,0.95-0.37c-0.32,1.01-0.56,1.79-0.83,2.64c0.6,0.06,0.48,0.76,1.08,0.95
		c1.29,0.41,2.17-0.26,2.8-1.09c0.57-0.75,1.12-1.18,2.03-1.21c1.09-0.03,1.1-1.51,2.17-1.64c0.18-0.02,0.33-0.51,0.46-0.79
		c0.1-0.22,0.15-0.45,0.21-0.68c0.79-2.67,2.51-4.31,5.28-4.83c1.06-0.2,2.12-0.44,3.18-0.58c1.59-0.21,1.64-0.2,2.09,1.35
		c0.89,3.06,2.46,5.77,4.19,8.41c0.36,0.55,0.72,0.63,1.38,0.25c-0.19-0.67-0.39-1.37-0.58-2.06c0.36-0.24,0.58-0.34,0.95,0.03
		c0.49,0.48,1.01,1.05,1.78,1.08c0.65,0.03,1.31-0.05,1.97-0.09c0.26-1.06-0.2-2.08-0.06-3.22c0.6,0.63,1.2,1.25,1.74,1.83
		C112.65,109.2,112.95,108.98,113.28,108.72z M138.01,105.37c0.3-0.52,0.63-0.9,0.75-1.34c0.28-1.02,1.02-1.79,1.74-2.35
		c0.79-0.62,1.31-1.36,1.84-2.13c0.24-0.35,0.31-0.83,0.56-1.18c1.4-1.95,2.57-4.02,3.31-6.32c0.19-0.61,0.49-1.18,0.72-1.77
		c0.21-0.56,0.44-1.11,0.59-1.69c0.57-2.21,0.84-4.46,0.82-6.75c-0.01-0.79,0.24-1.64,0.06-2.38c-0.42-1.69-1-3.35-1.59-4.99
		c-0.37-1.04-0.93-2.02-1.32-3.06c-0.28-0.74-0.4-1.54-0.65-2.3c-0.12-0.36-0.36-0.94-0.58-0.96c-1.07-0.07-1.5-1.1-2.4-1.46
		c-0.18,0.15-0.39,0.31-0.57,0.46c-0.13-0.04-0.23-0.04-0.27-0.09c-0.61-0.72-1.48-1.03-2.31-1.39c-0.57-0.24-0.99-0.09-1.29,0.46
		c-0.13,0.24-0.18,0.52-0.27,0.76c-0.25-0.06-0.5-0.11-0.76-0.17c-0.05,0.29-0.14,0.58-0.15,0.87c-0.01,0.27,0.08,0.55,0.1,0.83
		c0.01,0.11-0.07,0.22-0.1,0.32c-0.34,0.13-0.67,0.26-0.99,0.39c0.07,1,0.13,1.93,0.2,2.97c-0.29-0.19-0.46-0.29-0.72-0.46
		c0.04,0.44,0.07,0.74,0.1,1.11c-0.41-0.24-0.72-0.42-1.16-0.67c0,0.43-0.03,0.63,0,0.81c0.53,3.03,1.28,5.99,2.8,8.72
		c0.75,1.35,1.49,2.75,1.1,4.42c-0.06,0.25,0.09,0.54,0.12,0.82c0.18,1.88,0.29,3.76-0.79,5.45c-0.96,1.51-1.92,3.03-2.96,4.49
		c-0.47,0.66-1.13,1.19-1.86,1.95c-0.96-1.78-1.87-3.33-2.65-4.94c-0.32-0.67-0.37-1.46-0.53-2.21c-0.23-1.09-0.43-2.19-0.67-3.27
		c-0.06-0.25-0.26-0.47-0.48-0.85c-0.1,0.41-0.15,0.64-0.21,0.88c-0.25-0.92-0.44-1.81-0.75-2.66c-0.09-0.26-0.5-0.53-0.79-0.57
		c-0.64-0.1-1.21-0.21-1.72-0.67c-0.36-0.33-0.87-0.61-1.32,0.03c-0.09,0.13-0.43,0.15-0.65,0.14c-0.47-0.03-0.94-0.12-1.44-0.2
		c-0.34,0.48-0.78,0.82-0.87,1.51c-0.12,1.01,0.67,2.19-0.5,3.03c-0.06,0.04-0.01,0.23,0,0.35c0.04,0.48,0.1,0.95,0.13,1.43
		c0.02,0.4,0,0.8,0,1.19c-0.09,0-0.19,0.01-0.28,0.01c-0.12-0.71-0.24-1.42-0.36-2.13c-0.28,0.25-0.4,0.53-0.38,0.8
		c0.05,0.92,0.17,1.83,0.22,2.74c0.14,2.23,0.72,4.44,0.17,6.68c-0.04,0.14,0.01,0.32,0.07,0.47c0.39,0.96,0.69,1.96,1.2,2.85
		c0.73,1.27,1.65,2.44,2.43,3.69c0.63,1,1.5,1.63,2.58,2.02c0.22,0.08,0.58,0.14,0.63,0.29c0.27,0.72,0.97,0.64,1.48,0.93
		c1.51,0.85,3.08,0.62,4.66,0.31c0.06-0.01,0.12-0.1,0.2-0.17c-0.1-0.27-0.2-0.55-0.31-0.87c2-0.93,3.46-2.59,5.66-3.53
		c-0.3,0.51-0.48,0.82-0.66,1.13c0.07,0.06,0.14,0.11,0.2,0.17c0.57-0.56,1.15-1.12,1.82-1.78
		C138.56,105.46,138.33,105.43,138.01,105.37z M150.25,113.06c0.46-0.09,0.74-0.14,1.12-0.22c-0.26-0.42-0.45-0.74-0.65-1.06
		c-0.08,0.01-0.16,0.01-0.24,0.02C150.41,112.18,150.34,112.55,150.25,113.06z M314.79,110.27c-0.46,0.99,0.13,1.43,0.87,1.92
		C315.84,111.25,314.94,110.94,314.79,110.27z M111.22,78.27c-0.1,0.01-0.2,0.02-0.29,0.04c0.01,0.51-0.26,1.04,0.4,1.75
		C111.28,79.29,111.25,78.78,111.22,78.27z M348.44,102.62c0.43,0.49,0.73,0.49,1.06,0.36c0,0-0.02-0.06-0.04-0.16
		C349.22,102.77,348.95,102.71,348.44,102.62z M289.68,106.51c0.08,0,0.16,0.01,0.24,0.01c0.04-0.12,0.13-0.27,0.1-0.37
		c-0.05-0.13-0.19-0.23-0.46-0.51C289.62,106.09,289.65,106.3,289.68,106.51z M135.53,67.97c-0.09-0.01-0.18-0.03-0.27-0.04
		c-0.03,0.16-0.06,0.31-0.09,0.47c0.09,0.02,0.19,0.04,0.28,0.05C135.47,68.3,135.5,68.14,135.53,67.97z M223.09,110.24
		c0.16,0.17,0.21,0.26,0.25,0.26c0.11,0,0.22-0.04,0.33-0.06C223.52,110.39,223.37,110.34,223.09,110.24z M127.48,86.36
		c0.03,0,0.07,0,0.1,0c-0.02-0.22-0.04-0.44-0.06-0.65C127.51,85.92,127.49,86.14,127.48,86.36z M173.18,111.71
		c0.03,0.09,0.07,0.17,0.1,0.26c0.18-0.09,0.35-0.18,0.53-0.27c-0.03-0.06-0.06-0.13-0.08-0.19
		C173.54,111.58,173.36,111.64,173.18,111.71z M149.53,71.25c-0.16-0.05-0.25-0.1-0.34-0.09c-0.04,0-0.13,0.14-0.11,0.16
		c0.05,0.08,0.14,0.18,0.22,0.18C149.36,71.49,149.42,71.37,149.53,71.25z"/>
	<path class="st0" d="M195.59,15.06c-0.6,0-1.21,0-1.81,0c0-0.05-0.01-0.1-0.01-0.14c0.6-0.03,1.21-0.06,1.81-0.09
		C195.58,14.9,195.58,14.98,195.59,15.06z"/>
	<path class="st0" d="M129.49,11.06c-0.07,0.02-0.15,0.07-0.21,0.05c-0.06-0.02-0.09-0.11-0.13-0.16c0.07-0.02,0.15-0.07,0.21-0.05
		C129.42,10.91,129.45,11,129.49,11.06z"/>
	<path d="M157.39,108.5c-0.11-0.21-0.19-0.38-0.37-0.72c-0.15,0.83-0.28,1.52-0.43,2.32c-0.59,0-1.23-0.12-1.79,0.03
		c-0.59,0.16-1.08,0.68-1.73,0.5c-0.22-0.73-0.43-1.46-0.67-2.26c-0.61,0.12-1.2,0.24-1.98,0.4c0.62-1.47-0.3-2.59-0.32-3.83
		c0-0.23-0.14-0.47-0.11-0.69c0.32-1.9,0.14-3.81,0.1-5.72c-0.06-2.46,0.01-4.93,0.02-7.39c0-0.08-0.01-0.17,0.02-0.24
		c0.83-1.66,0.52-3.45,0.57-5.2c0.02-0.69-0.13-1.3-0.47-1.94c-0.4-0.75-0.8-1.59-0.36-2.64c0.59,0.99,0.31,2.22,1.19,3.2
		c0.05-0.36,0.12-0.54,0.09-0.71c-0.09-0.55-0.2-1.09-0.31-1.64c-0.05-0.23-0.03-0.57-0.18-0.68c-0.68-0.51-0.55-1.29-0.73-1.96
		c-0.37-1.37-0.72-2.75-1.03-4.14c-0.12-0.53-0.12-1.09-0.04-1.66c0.16,0.73,0.31,1.47,0.47,2.2c0.46-0.68,0.6-1.37,0.56-2.09
		c-0.04-0.82-0.17-1.59,0.29-2.4c0.26-0.45,0.42-1.1,0.12-1.73c-0.11-0.24,0.02-0.61,0.09-0.91c0.08-0.35,0.31-0.69,0.3-1.02
		c-0.04-0.82,0.37-1.07,0.94-1.02c0.43-0.54,0.8-0.98,1.13-1.44c0.15-0.22,0.25-0.48,0.34-0.73c0.2-0.61,0.73-0.95,1.11-0.53
		c0.49,0.54,0.88,0.01,1.36,0.13c0.54,1.17,1.59,1.61,2.81,1.94c0.86,0.23,1.78,0.55,1.99,1.74c0.11,0.63,0.6,1.2,0.96,1.77
		c0.98,1.53,1.89,3.13,3.02,4.55c0.99,1.24,2.2,2.31,3.38,3.37c0.83,0.74,1.78,1.34,2.75,2.05c0.23-0.3,0.42-0.49,0.53-0.73
		c0.57-1.17,1.37-2.3,1.63-3.54c0.41-1.97,1.72-3.6,1.9-5.62c0.05-0.59,0.39-0.86,0.92-0.91c1.03-0.09,1.63-0.67,1.97-1.61
		c0.09-0.24,0.32-0.44,0.51-0.64c0.33-0.36,0.66-0.34,1.04-0.03c0.55,0.44,1.13,0.84,1.76,1.29c0.01,0.2,0.04,0.52,0.06,0.84
		c0.28-0.1,0.56-0.2,0.94-0.34c0.23,0.4,0.47,0.87,1.22,0.6c0.39-0.14,0.96,0.21,1.38,0.33c0.84,2.1,0.39,4.12,0.11,6.12
		c-0.28,1.99-0.41,4.02-1.42,5.92c0.36,0.48,0.39,1,0.29,1.68c-0.42,2.71-0.65,5.45-0.96,8.17c-0.13,1.15-0.33,2.29-0.43,3.43
		c-0.06,0.63-0.01,1.27,0,1.91c0,0.16,0.09,0.33,0.04,0.47c-0.59,1.91-0.05,3.76,0.27,5.62c0.05,0.28,0.2,0.55,0.35,0.97
		c0.14-0.27,0.23-0.37,0.22-0.46c-0.43-5.18,0.91-10.03,2.81-14.77c0.95-2.36,1.92-4.72,2.91-7.14c-0.21-0.09-0.48-0.2-0.88-0.36
		c0.34-0.27,0.6-0.48,0.88-0.71c0.01-0.45-0.62-0.72-0.23-1.3c0.31-0.44,0.71-0.45,1.11-0.6c0.4-0.15,0.91-0.19,0.76-0.95
		c-0.64-0.13-1.32-0.28-2.09-0.44c0.77-1.04,1.52-2,2.49-2.78c0.36-0.29,0.62-0.71,0.94-1.1c-0.18-0.32-0.35-0.61-0.56-0.97
		c0.33-0.3,0.61-0.57,0.91-0.82c0.12-0.1,0.34-0.1,0.42-0.21c1.11-1.49,2.86-1.18,4.37-1.47c1-0.19,2.06-0.14,3.06,0.19
		c0.15,0.05,0.31,0.14,0.46,0.12c2.03-0.16,3.63,1.06,5.41,1.67c0.25,0.09,0.47,0.3,0.69,0.46c0.81,0.58,1.66,1.11,2.41,1.75
		c0.67,0.57,1.64,0.94,1.61,2.07c0,0.03,0.03,0.08,0.06,0.1c1.29,1.19,1.63,2.89,2.34,4.39c0.89,1.9,0.71,3.89,0.07,5.82
		c-0.44,1.32-1.07,2.59-0.46,4.02c0.07,0.15-0.01,0.39-0.07,0.57c-0.18,0.53-0.37,1.05-0.59,1.56c-0.55,1.25-1.25,2.4-1.47,3.83
		c-0.16,1.05-0.91,2.01-1.45,2.99c-0.78,1.42-1.77,2.73-2.36,4.27c-0.2,0.53-0.74,0.92-1.12,1.38c-1.26,1.49-2.62,2.88-4.18,4.06
		c-0.4,0.3-0.69,0.75-0.97,1.18c-0.16,0.24-0.19,0.54-0.59,0.36c-0.05-0.02-0.3,0.21-0.28,0.29c0.14,0.75-0.42,0.87-0.91,0.99
		c-0.46,0.11-0.96,0.16-1.1-0.59c-0.68,0.66-1.34,1.01-2.22,0.95c-0.58-0.04-0.97,0.45-1.39,0.89c0.18,0.2,0.33,0.36,0.66,0.73
		c-0.64-0.07-1.07-0.11-1.54-0.16c0.09-0.3,0.14-0.47,0.24-0.81c-0.28,0.18-0.6,0.3-0.6,0.41c0.01,0.6-0.38,0.87-0.84,1
		c-0.56,0.16-1.23,0.42-1.72,0.26c-1.12-0.37-2.3-0.74-3.13-1.68c-0.42-0.48-0.84-0.96-1.23-1.47c-0.21-0.27-0.48-0.54-0.04-0.91
		c0.1-0.08-0.08-0.75-0.3-0.9c-0.91-0.62-1.06-1.63-1.4-2.53c-0.21-0.56-0.34-1.14-0.53-1.8c-0.44,0.09-0.93,0.07-1.29,0.28
		c-0.44,0.27-0.82,0.57-1.36,0.38c-0.3,0.56-0.59,1.11-0.9,1.68c-0.38-0.26-0.71-0.49-1.19-0.81c-0.25,0.8-0.42,1.46-0.68,2.09
		c-0.14,0.34-0.45,0.61-0.66,0.88c-0.58-0.45-1.08-0.83-1.57-1.22c-0.28,0.47-0.28,0.47,0.53,1.64c-0.43,0.48-0.87,0.97-1.37,1.53
		c-0.63-0.89-1.24-1.77-1.87-2.64c-0.02-0.02-0.21,0.08-0.3,0.11c0.14,0.78,0.27,1.55,0.4,2.31c-0.09,0.03-0.18,0.06-0.27,0.08
		c-0.11-0.22-0.24-0.43-0.34-0.65c-0.17-0.4-0.07-1.01-0.8-0.98c-0.09,0-0.25-0.2-0.29-0.34c-0.29-1.03-0.73-2.06-0.79-3.11
		c-0.14-2.22,0.01-4.45-0.11-6.66c-0.14-2.52,0.49-4.96,0.61-7.45c0.05-1.1,0.3-2.2,0.47-3.39c-0.2,0.04-0.42,0.04-0.6,0.13
		c-0.17,0.08-0.3,0.25-0.45,0.37c-2.24,1.8-4.51,1.32-6.79,0.09c-1.08-0.58-2.15-1.17-3.34-1.83c-0.26,1.28-0.28,2.38-0.25,3.47
		c0.13,4.27,0.12,8.54-0.24,12.81c-0.08,0.89-0.77,1.42-1.18,2.11c-0.12,0.2-0.3,0.37-0.35,0.58c-0.1,0.42-0.08,0.87-0.21,1.27
		C157.86,107.84,157.61,108.14,157.39,108.5z M195.68,102.35c0.46-0.28,0.83-0.43,1.09-0.69c0.83-0.86,1.65-1.73,2.4-2.65
		c1.16-1.41,2.16-2.96,3.41-4.27c1.05-1.11,1.88-2.31,2.53-3.66c0.24-0.5,0.52-1.01,0.6-1.55c0.14-0.97,0.85-1.88,0.3-2.96
		c-0.14-0.28-0.08-0.72,0.27-1.07c0.98-0.99,1.01-1.74,0.34-2.93c-0.45-0.8-1.15-1.3-1.9-1.77c-0.33-0.21-0.67-0.43-0.91-0.72
		c-0.68-0.85-1.89-1.22-2.84-0.71c-0.3,0.16-0.4,0.64-0.67,0.88c-0.3,0.27-0.87,0.35-1.03,0.66c-0.88,1.73-1.79,3.46-2.47,5.27
		c-0.68,1.82-1.15,3.73-1.62,5.62c-0.76,3.07-0.78,6.16-0.03,9.23C195.26,101.43,195.47,101.81,195.68,102.35z M186.93,110.78
		c0.07,1.23,0.53,1.8,1.6,2.07c0.49,0.13,1.01,0.2,1.48,0.4c0.71,0.3,0.81,0.3,1.47-0.47c-0.5-0.25-1.11-0.39-1.44-0.77
		C189.18,111.02,188.02,111.06,186.93,110.78z M164.48,88.25c1.13,0.76,2.19,0.89,3.22,0.77c0.11,0.21,0.17,0.49,0.27,0.5
		c0.5,0.06,0.9-0.11,1.08-0.6c-0.75-0.37-1.42-0.74-2.12-1.05C166.16,87.53,165.45,87.86,164.48,88.25z M184.12,103.3
		c-0.09,0.01-0.18,0.02-0.27,0.02c-0.03,0.71-0.22,1.45-0.06,2.11c0.22,0.88,0.42,1.84,1.26,2.66
		C185.27,106.25,184.17,104.89,184.12,103.3z M183.34,98.57c-0.45,1.25-0.32,3.83,0.21,4.48C183.45,101.45,183.86,100,183.34,98.57z
		 M185.97,107.84c-0.17,1.26-0.17,1.26,0.72,1.57C186.41,108.81,186.19,108.32,185.97,107.84z M159.26,87.69
		c0.04,0.45,0.08,0.9,0.13,1.35C159.61,88.57,159.9,88.1,159.26,87.69z M187.22,109.22c-0.08,0.07-0.15,0.13-0.23,0.2
		c0.16,0.15,0.31,0.29,0.47,0.44c0.05-0.05,0.09-0.09,0.14-0.14C187.48,109.56,187.35,109.39,187.22,109.22z"/>
	<path d="M357.15,100.53c-1.01-0.25-1.47,0.57-2.14,0.91c-0.72,0.35-1.31,0.51-2.01,0.3c-0.53-0.16-0.98-0.05-1.32,0.3
		c-0.22,0.23-0.26,0.62-0.43,1.08c-0.14-0.08-0.43-0.26-0.74-0.4c-0.25-0.11-0.51-0.22-0.78-0.25c-1.42-0.18-2.86-0.23-4.26-0.52
		c-1.86-0.39-3.69-0.24-5.55-0.12c-1.38,0.09-2.78,0.02-4.17,0.04c-0.38,0-0.75,0.06-1.13,0.1c-0.01,0.08-0.01,0.16-0.02,0.25
		c0.47,0.12,0.94,0.24,1.45,0.38c-0.15,0.32-0.27,0.59-0.4,0.86c-1.14,0.3-1.96-0.73-3.09-0.66c-1.03,0.06-2.08-0.28-3.02-0.43
		c-0.13-0.35-0.3-0.68-0.37-1.02c-0.11-0.59-0.67-1.08-0.33-1.79c0.09-0.19-0.03-0.62-0.2-0.76c-0.58-0.49-0.41-1.07-0.35-1.66
		c0.37-3.49,0.75-6.98,1.12-10.47c0.02-0.23,0.03-0.47,0.04-0.8c-0.47-0.12-0.92-0.23-1.4-0.35c0.05-0.12,0.08-0.31,0.12-0.31
		c1-0.06,1.04-1.04,1.44-1.61c0.4-0.58-0.33-1.51-1.15-1.56c-0.37-0.03-0.75,0-1.26,0c0.9-0.97,1.13-1.98,1.08-3.14
		c0.72-0.44,1.51-0.85,2.21-1.37c0.32-0.24,0.58-0.67,0.68-1.07c0.22-0.89,0.32-1.8,0.45-2.71c0.21-1.37,0.41-2.74,0.62-4.13
		c0.54-0.08,0.96-0.14,1.45-0.22c0.04-0.41,0.07-0.79,0.13-1.35c0.78-0.14,1.58-0.3,2.49-0.46c0.39-0.8,0.24-1.06-0.74-1.05
		c-0.04,0-0.08,0-0.12,0.01c-0.47,0.05-1.08,0.21-1.11-0.48c-0.01-0.23,0.59-0.48,1.01-0.8c-0.02-0.06-0.08-0.26-0.18-0.56
		c0.19-0.14,0.43-0.31,0.7-0.52c-0.14-0.31-0.26-0.58-0.44-0.99c0.51-0.15,0.95-0.33,1.4-0.4c0.73-0.1,1.2-0.54,1.67-1.03
		c0.21-0.22,0.44-0.43,0.67-0.63c1.31-1.14,2.87-1.42,4.57-1.41c1.38,0.01,2.75-0.17,4.34-0.28c-1.15-1.12-2.21-2-3.36-2.77
		c-1.15-0.77-2.45-1.4-3.14-2.7c-0.48-0.9-0.89-1.84-1.19-2.87c0.13,0.1,0.27,0.19,0.44,0.31c0.06-0.14,0.11-0.27,0.19-0.49
		c0.26,0.11,0.52,0.22,0.91,0.4c-0.71-1.47-1.35-2.8-2-4.13c0.08-0.05,0.17-0.09,0.25-0.14c0.25,0.43,0.5,0.87,0.75,1.3
		c0.16-1.41,0.53-2.75,0.56-4.23c0.34,0.07,0.67,0.14,1.06,0.22c0.37-0.47,0.71-1.02,1.17-1.45c0.64-0.59,1.35-1.1,2.05-1.62
		c0.73-0.54,1.31-0.52,2.05,0.05c0.25,0.19,0.46,0.45,0.71,0.64c0.42,0.34,0.86,0.65,1.43,1.08c0.36,0.59,0.84,1.35,1.37,2.22
		c0.22-0.36,0.35-0.57,0.54-0.9c0.81,1.55,1.39,3.15,2.68,4.51c0.57-0.6,1.03-1.07,1.48-1.55c1.64,0.47,1.78,0.36,2.9-1
		c1.59-1.94,3.22-3.85,4.92-5.69c0.51-0.55,1.3-0.84,1.99-1.22c0.37-0.2,0.78-0.32,1.21-0.5c0.03,0.22,0.06,0.45,0.09,0.7
		c0.22,0.01,0.44,0.02,0.73,0.03c0,0.42,0,0.81,0,1.19c0,0.29-0.02,0.57-0.03,0.86c0.32-0.07,0.65-0.13,0.97-0.22
		c0.17-0.05,0.33-0.13,0.54-0.21c0.27,0.58-0.08,0.88-0.34,1.21c-0.22,0.29-0.43,0.59-0.57,0.98c0.78-0.24,1.4-1.34,2.29-0.16
		c-0.28,0.51-0.52,1.03-0.58,1.69c-0.06,0.63-0.72,1.2-1.11,1.8c-0.34,0.53-0.67,1.07-1,1.6c-0.13,0.2-0.23,0.42-0.39,0.59
		c-0.84,0.92-1.35,1.94-1.75,3.17c-0.52,1.6-1.12,3.36-2.9,4.18c-0.25,0.12-0.51,0.35-0.75,0.34c-1.74-0.09-2.96,1.4-4.65,1.47
		c-0.3,0.01-0.61,0.46-0.87,0.74c-0.2,0.23-0.33,0.52-0.54,0.85c0.86,0.33,1.71,0.7,2.53,1.34c-0.23,0.11-0.33,0.15-0.43,0.2
		c-0.1,0.05-0.21,0.09-0.46,0.2c0.58,0.24,1.09,0.36,1.48,0.64c0.35,0.26,0.57,0.69,0.85,1.06c0.07-0.09,0.18-0.22,0.33-0.41
		c0.16,1.03,1.24,0.85,1.81,1.57c-1.15,0.83-2.49,0.68-3.84,0.76c0.16,0.58,0.29,1.07,0.44,1.59c-0.69,0.12-1.28,0.22-1.98,0.33
		c0.45,0.62,0.78,1.08,1.18,1.64c-1.2-0.1-2.24-0.22-3.29-0.26c-1.11-0.04-1.35,0.18-1.68,1.32c-0.14,0.49-0.56,0.62-0.93,0.48
		c-2.76-1.03-5.54-0.31-8.31-0.14c-1.87,0.12-1.97,0.41-1.67,2.28c0.02,0.15,0.06,0.3,0.11,0.62c0.72-0.05,1.42-0.1,2.12-0.16
		c2.03-0.2,4.06-0.38,6.08-0.62c1.36-0.16,2.61,0.23,3.77,0.83c0.51,0.27,0.86,0.84,1.29,1.27c0.11,0.11,0.23,0.27,0.35,0.27
		c1.73,0.03,2.4,1.59,3.54,2.46c0.25,0.19,0.28,0.69,0.46,1.17c-1.2,0.16-2.25,0.31-3.3,0.45c-0.01,0.05-0.02,0.1-0.02,0.16
		c0.16,0.05,0.32,0.09,0.72,0.2c-0.45,0.24-0.75,0.4-1.16,0.61c0.17,0.37,0.36,0.78,0.56,1.21c-0.72,0.62-1.67,0.33-2.53,0.58
		c0.28,0.36,0.52,0.68,0.87,1.15c-1.75,0.56-3.2,1.33-4.93,1.43c-2.06,0.12-4.11,0.48-6.17,0.72c-0.59,0.07-1.19,0.1-1.78,0.15
		c-0.2,0.02-0.4,0.02-0.6,0.04c-0.98,0.12-1.06,0.28-1.44,1.32c-0.52,1.42-0.48,2.9-0.64,4.36c-0.03,0.26,0.07,0.53,0.13,0.91
		c1.03-0.08,2-0.19,2.98-0.23c2.19-0.1,4.38-0.26,6.57-0.23c1.83,0.02,3.65-0.28,5.49,0.05c0.75,0.13,1.37,0.32,1.88,0.89
		c0.58,0.65,1.24,1.12,2.1,1.46c0.96,0.38,1.84,1.09,2.6,1.81c0.39,0.37,0.44,1.09,0.64,1.65c-0.47,0.18-0.83,0.32-1.3,0.5
		c0.21,0.26,0.36,0.44,0.58,0.72c-1.11-0.12-2.01,0.15-2.72,0.96c-0.12,0.14-0.45,0.1-0.68,0.15c-0.42,0.1-0.84,0.2-1.4,0.33
		C356.64,99.87,356.84,100.12,357.15,100.53z M345.96,56.21c-0.22-1.05-1.3-1.12-1.88-1.76C344.08,55.7,345.28,55.69,345.96,56.21z
		 M341.37,70.57c-0.1,0-0.2,0-0.29,0c0,0.74,0,1.49,0,2.23C341.49,72.08,341.53,71.33,341.37,70.57z M348.55,58.38
		c-0.48-0.87-0.48-0.87-1.46-0.85C347.71,57.89,348.13,58.13,348.55,58.38z M333.33,70.56c0.1,0.01,0.19,0.03,0.29,0.04
		c0-0.2,0-0.41,0-0.61c-0.07,0-0.13-0.01-0.2-0.01C333.39,70.16,333.36,70.36,333.33,70.56z"/>
	<path d="M250.09,105.84c-0.41-2.35-0.92-4.69-1.2-7.06c-0.29-2.44-0.59-4.88-0.48-7.37c0.14-3.06-0.03-6.14-0.01-9.21
		c0.01-1.11,0.17-2.22,0.23-3.33c0.02-0.38-0.04-0.77-0.08-1.24c-0.98,0-1.85-0.01-2.72,0c-0.5,0.01-0.73,0.41-0.77,0.78
		c-0.09,1.09-0.85,1.9-1.06,2.96c-0.2,1-0.7,1.94-1.07,2.9c-0.3,0.78-0.55,1.58-0.89,2.35c-0.33,0.73-0.77,1.41-1.11,2.13
		c-0.23,0.49-0.36,1.02-0.57,1.52c-1.19,2.85-2.44,5.69-3.56,8.57c-0.39,1-0.66,2.02-1.27,2.93c-0.67,0.99-1.33,1.97-2.31,2.69
		c-0.47,0.35-0.92,0.74-1.38,1.11c-0.86-0.37-0.89-0.35-0.96,0.5c-0.01,0.19-0.01,0.47-0.13,0.55c-0.98,0.66-1.81,1.71-3.23,1.22
		c-0.16-0.06-0.37,0.03-0.67,0.06c0.18,0.68,0.06,1.17-0.67,1.37c-0.43,0.12-0.76,0.13-1.09-0.18c-0.17-0.16-0.38-0.29-0.58-0.42
		c-0.36-0.25-0.67-0.15-0.95,0.15c-0.25,0.27-0.25,0.45,0.06,1.02c-0.83-0.01-1.64,0.08-2.35-0.39c-1.06-0.7-1.84-1.63-2.33-2.8
		c-1.09-2.56-1.51-5.27-1.89-7.99c-0.51-3.59-0.71-7.21-0.58-10.84c0.07-2.07,0.16-4.14,0.21-6.2c0.04-1.62,0.01-3.24,0.03-4.86
		c0-0.26,0.09-0.51,0.36-0.79c0.09,0.73,0.17,1.45,0.26,2.18c0.07,0,0.14-0.01,0.21-0.01c0.03-0.47,0.07-0.94,0.08-1.41
		c0.02-1.12,0.26-2.13,1.08-2.99c0.33-0.35,0.45-0.93,0.61-1.42c0.25-0.78,0.66-1.33,1.58-1.3c0.2-0.68,0.19-1.44,1.09-1.7
		c0.12,0.21,0.25,0.43,0.42,0.73c0.3-0.1,0.62-0.21,1.07-0.36c0.11,0.5,0.21,0.94,0.32,1.38c0.63,0.21,1.25,0.41,1.95,0.64
		c0.12,0.47,0.26,1.04,0.42,1.7c0.69-0.55,0.04-1.23,0.28-1.86c0.48,0.41,0.28,0.87,0.32,1.27c0.04,0.43,0.23,0.75,0.43,1.13
		c0.46,0.88,0.76,1.93,0.82,2.92c0.12,1.86-0.06,3.73,0.02,5.6c0.14,3.14,0.37,6.27,0.58,9.4c0.01,0.22,0.13,0.44,0.22,0.75
		c0.49-0.21,0.71-0.59,0.88-0.97c0.37-0.84,0.69-1.7,1.07-2.53c0.26-0.57,0.6-1.1,0.86-1.67c0.18-0.39,0.28-0.82,0.39-1.23
		c0.06-0.23-0.01-0.5,0.09-0.7c0.74-1.49,0.8-3.14,1.17-4.71c0.04-0.15,0.1-0.33,0.05-0.47c-0.36-1.13,0.38-2.06,0.57-3.08
		c0.06-0.29,0.59-0.51,0.61-0.79c0.07-1.18,1.09-2.17,0.65-3.43c-0.02-0.05,0.07-0.13,0.16-0.3c0.21,0.16,0.4,0.31,0.61,0.48
		c0.58-0.08,0.81-0.39,0.92-1c0.21-1.16,1.34-1.75,2.47-1.42c1.24,0.36,1.47,0.18,1.41-1.13c0-0.12-0.03-0.23-0.05-0.46
		c0.29-0.14,0.62-0.26,0.91-0.44c0.46-0.29,0.88-0.64,1.34-0.92c0.57-0.35,1.13-0.77,1.76-0.94c2.63-0.71,5.33-0.97,8.04-0.9
		c2.51,0.06,5.02,0.27,7.52,0.47c0.56,0.04,1.19,0.07,1.55,0.72c0.12,0.21,0.56,0.25,0.85,0.37c0.84,0.35,1.68,0.69,2.51,1.07
		c0.54,0.25,1.06,0.54,1.58,0.83c0.27,0.15,0.61,0.27,0.78,0.5c0.29,0.41,0.59,0.7,1.08,0.88c0.45,0.16,0.82,0.48,0.78,1.15
		c-0.49,0-0.95,0-1.61,0c0.29,0.33,0.44,0.5,0.68,0.78c-0.81-0.05-1.5-0.09-2.24-0.13c-0.12,0.45-0.22,0.82-0.34,1.28
		c-0.65,0.17-1.33,0.35-2.02,0.54c0.24,0.72,0.92,0.84,1.56,1c-0.63,0.97-1.73,0.93-2.85,1.38c0.46,0.24,0.68,0.35,0.92,0.47
		c-0.02,0.36-0.25,0.7-0.57,0.53c-1.4-0.74-2.2,0.22-3.09,0.98c-0.06,0.05-0.09,0.13-0.22,0.3c0.26,0.25,0.53,0.51,0.79,0.75
		c-0.18,0.16-0.55,0.32-0.57,0.52c-0.11,1.05-0.2,2.12-0.17,3.17c0.12,3.99,0.63,7.94,1.22,11.87c0.17,1.11,0.69,2.16,0.98,3.26
		c0.22,0.84,0.34,1.71,0.5,2.57c0.02,0.12,0.1,0.27,0.06,0.34c-0.45,0.73-0.82,1.55-1.41,2.13c-0.36,0.35-1.07,0.37-1.64,0.45
		c-0.13,0.02-0.31-0.28-0.57-0.53c0.13,1.16,0.24,2.2,0.36,3.23c-1.17,0.04-1.15,0.03-1.62-0.93c-0.11-0.22-0.4-0.34-0.62-0.51
		c-0.67,1.02-0.18,1.95-0.13,2.99c-0.53-0.33-1.02-0.51-1.33-0.85c-0.32-0.37-0.47-0.89-0.71-1.38c-0.44,0.17-0.76,0.29-1.02,0.39
		c-0.14,0.75-0.26,1.43-0.39,2.11c-0.1,0.05-0.2,0.1-0.3,0.16c-0.14-0.33-0.28-0.66-0.4-0.93c-0.62,0.32-1.01,0.53-1.5,0.78
		c-0.39-1.07-0.73-2-1.07-2.92L250.09,105.84z M219.88,106.86c0.65,0.83,1.42,1.55,2.36,2.06c0.11,0.06,0.37-0.16,0.67-0.3
		C221.96,107.8,221.16,107,219.88,106.86z M249.27,77.41c-0.33,1.15-0.25,2.01-0.02,2.88c0.23-0.77,0.35-1.55,0.44-2.34
		C249.71,77.86,249.54,77.74,249.27,77.41z"/>
	<path d="M72.88,91.64c0.33-0.89,0.68-1.77,0.98-2.67c0.59-1.8,1.14-3.62,1.71-5.43c0.54-1.71,1.08-3.42,1.67-5.12
		c0.18-0.52,0.51-0.97,0.74-1.47c0.54-1.21,1.04-2.45,2.33-3.09c0.5-1.25,1.06-2.45,1.95-3.5c0.26-0.3,0.25-0.82,0.37-1.26
		c0.54-0.24,1.08-0.48,1.71-0.76c0.52,0.47,1.37,0.43,1.89,1.17c0.32,0.46,0.97,0.51,1.35-0.04c0.45,0.22,0.86,0.35,1.2,0.59
		c0.27,0.19,0.65,0.52,0.64,0.76c-0.04,0.8,0.57,1.4,0.54,2.19c-0.01,0.26,0.07,0.47-0.11,0.73c-0.24,0.36-0.38,0.78-0.59,1.17
		c-0.5,0.95-0.73,1.99-1.01,3.02c-0.29,1.06-0.87,2.04-1.29,3.07c-0.46,1.15-0.85,2.32-1.33,3.46c-0.35,0.84-0.85,1.61-1.21,2.45
		c-0.49,1.13-0.87,2.3-1.36,3.43c-0.52,1.19-1.12,2.35-1.65,3.54c-0.19,0.43-0.29,0.91-0.45,1.35c-0.71,1.97-1.43,3.95-2.16,5.92
		c-0.38,1.03-0.75,2.06-1.16,3.08c-0.17,0.43-0.44,0.81-0.72,1.31c0.2,0.03,0.4,0.06,0.69,0.1c-0.21,0.66-0.41,1.33-0.65,1.99
		c-0.06,0.17-0.23,0.42-0.37,0.43c-0.95,0.11-1.06,1.07-1.63,1.54c-0.66,0.54-0.95,1.27-1.34,1.95c-0.5,0.86-0.6,0.87-1.63,0.69
		c-0.91-0.16-1.89-0.56-2.59,0.52c-0.05,0.07-0.35-0.02-0.65-0.05c0.03,0.56,0.06,1.05,0.11,1.78c-0.33-0.46-0.53-0.75-0.8-1.11
		c-0.77,1.07-1.88,0.52-2.77,0.84c-0.19,0.07-0.64-0.32-0.83-0.59c-0.46-0.69-0.92-1.41-1.23-2.17c-0.39-0.96-0.59-1.99-0.96-2.96
		c-0.74-1.92-1.55-3.81-2.46-5.73c-0.12,0.97-1.14,1.32-1.35,2.22c-0.06,0.25-0.49,0.46-0.79,0.6c-0.31,0.15-0.67,0.2-1.06,0.31
		c-0.17-0.14-0.37-0.32-0.75-0.63c0.21,0.94-0.2,1.43-0.92,1.83c-0.43-0.16-0.91-0.35-1.39-0.53c-0.32,0.92-0.66,1.9-0.99,2.85
		c-0.55,0.1-0.83-0.45-1.34-0.16c-0.21,0.12-0.74-0.17-1.07-0.37c-0.96-0.59-1.04-0.61-1.85,0.01c-0.12,0.09-0.21,0.23-0.35,0.38
		c-0.16-0.11-0.34-0.32-0.47-0.3c-0.73,0.14-1.08-0.36-1.59-0.72c-0.83-0.58-1.03-1.23-0.86-2.14c0.27-1.45,0.53-2.9,0.75-4.36
		c0.42-2.84,0.79-5.69,1.22-8.53c0.24-1.54,0.58-3.06,0.87-4.58c0.6-3.13,1.17-6.26,1.8-9.39c0.28-1.39,0.42-2.85,1.45-3.99
		c0.2-0.22,0.22-0.59,0.37-0.87c0.32-0.59,0.64-1.18,1-1.76c0.33-0.53,0.78-1,1.04-1.56c0.25-0.52,0.52-0.89,1.13-0.89
		c0.83,0,1.15-0.63,1.46-1.22c0.46-0.87,0.78-1.09,1.75-1.02c0.23,0.02,0.46-0.02,0.7-0.03c0.2-0.01,0.51-0.11,0.58-0.02
		c0.78,0.98,2.08,0.67,3.04,1.37c2.16,1.56,3.5,3.63,4.61,5.95c1.74,3.65,3.21,7.37,4.07,11.34c0.38,1.73,1.09,3.39,1.65,5.09
		C72.65,91.63,72.77,91.63,72.88,91.64z"/>
	<path d="M320.89,105.47c0.05,0.25,0.05,0.53,0.17,0.73c0.31,0.54,0.31,1.09,0.21,1.68c-0.07,0.41-0.07,0.84-0.05,1.26
		c0.03,0.68-0.23,1.1-0.98,1.4c-0.4-0.86-0.19-1.99-1.13-2.72c-0.31,0.73,0.08,1.21,0.48,1.71c-0.12,0.34-0.24,0.71-0.41,1.21
		c-0.27-0.24-0.47-0.46-0.71-0.63c-0.22-0.16-0.48-0.27-0.76-0.41c-0.35,0.43-0.68,0.85-1.13,1.41c-0.27-0.82-0.49-1.47-0.73-2.21
		c-0.42,0.25-0.81,0.48-1.18,0.7c-1.26-1.12-1.17-2.75-1.41-4.2c-0.28-1.67-0.31-3.39-0.35-5.09c-0.06-2.9-0.05-5.8-0.07-8.7
		c-0.01-1.63,0-3.25,0-4.97c-1.85-0.06-3.57-0.02-4.92,1.43c-0.18,0.19-0.57,0.2-0.87,0.25c-0.35,0.05-0.73-0.03-1.05,0.09
		c-1.66,0.64-3.37,0.52-5.08,0.35c-1.72-0.17-1.97-0.01-1.94,1.73c0.03,2.27,0.12,4.55,0.18,6.82c0,0.12-0.01,0.26,0.04,0.35
		c0.71,1.08,0.1,1.87-0.6,2.59c0.2,0.56,0.38,1.07,0.55,1.57c-0.06,0.03-0.12,0.05-0.19,0.08c-0.28-0.47-0.55-0.95-0.85-1.46
		c-0.63,0.52-0.22,1-0.26,1.59c-0.51,0.14-1.06,0.3-1.61,0.45c0,0.37,0,0.79,0,1.27c0.21,0.1,0.46,0.21,0.71,0.32
		c-0.06,0.79-0.82,0.53-1.14,0.92c-0.39-0.25-0.71-0.5-1.06-0.66c-0.31-0.14-0.73-0.34-0.99-0.24c-0.59,0.22-1.02,0.1-1.52-0.23
		c-0.27-0.18-0.68-0.14-1.06-0.2c-0.14-0.27-0.28-0.55-0.43-0.83c-0.32,0.06-0.64,0.11-1.01,0.18c-0.09-0.38-0.22-0.68-0.22-0.99
		c-0.06-2.87-0.19-5.74-0.1-8.6c0.07-2.43,0.4-4.85,0.63-7.27c0.02-0.19,0.05-0.45,0.17-0.56c0.81-0.73,0.69-1.83,1.12-2.71
		c0.1-0.21,0.15-0.47,0.14-0.7c-0.11-1.44,0.36-2.81,0.47-4.21c0.1-1.32,0.03-2.66-0.1-3.98c-0.05-0.55-0.45-1.06-0.65-1.61
		c-0.11-0.3-0.15-0.63-0.21-0.94c0.08-0.04,0.16-0.07,0.24-0.11c0.26,0.25,0.51,0.5,0.81,0.78c0.4-0.7,0.81-1.28,0.63-2.19
		c-0.12-0.57,0.25-1.25,0.44-2.04c0.42-0.03,1-0.07,1.67-0.12c0.06-0.4,0.12-0.77,0.18-1.16c0.41-0.29,0.87-0.54,1.24-0.88
		c0.47-0.42,1.01-0.34,1.56-0.4c0.7-0.08,0.85,0.41,1.14,0.84c0.39,0.56,0.67,1.32,1.6,1.17c1.78,1.03,3.41,2.15,3.75,4.44
		c0.18,1.21,0.54,2.42,0.96,3.57c0.31,0.85,0.79,1.65,1.29,2.41c0.49,0.75,1.36,0.64,2.08,0.55c1.73-0.21,3.17-0.97,4.12-2.52
		c0.25-0.4,0.63-0.72,0.92-1.1c0.75-1,1.14-2.18,1.37-3.38c0.16-0.82,0.49-1.47,1.2-1.81c0.48-0.23,0.57-0.6,0.7-1.02
		c0.28-0.9,0.58-1.79,0.9-2.77c0.87,0.41,1.54,0.34,1.9-0.56c0.74-0.15,1.13-0.75,1.62-1.24c0.41-0.4,1.58-0.2,1.89,0.29
		c0.36,0.55,0.66,1.14,1.04,1.82c0.2-0.06,0.56-0.17,0.99-0.31c0.28,0.71,0.46,1.44,1.39,1.61c0.26,0.05,0.56,0.68,0.58,1.06
		c0.04,0.87,0.02,1.76-0.15,2.61c-0.4,1.99-0.47,3.99-0.45,6c0.01,0.44-0.03,0.88-0.11,1.31c-0.07,0.39-0.26,0.74,0.22,1.05
		c0.12,0.08,0.04,0.51,0,0.78c-0.15,0.98-0.48,1.97-0.45,2.95c0.07,2.3-0.54,4.54-0.47,6.85c0.1,3.38,0.06,6.77,0.14,10.16
		c0.03,1.27,0.23,2.54,0.35,3.81c0.05,0.52,0.14,1,0.57,1.38c0.17,0.16,0.17,0.5,0.27,0.81c-0.33,0.2-0.63,0.38-0.96,0.58
		c-0.18-0.14-0.35-0.28-0.61-0.49c-0.12,0.22-0.23,0.41-0.36,0.62c-0.5-0.02-1.01-0.05-1.45-0.07c-0.08,0.45-0.08,0.93-0.27,1.33
		c-0.25,0.52-0.65,0.46-0.93-0.05c-0.47-0.86-0.94-1.71-1.41-2.57C321.05,105.45,320.97,105.46,320.89,105.47z"/>
	<path d="M113.28,108.72c-0.34,0.26-0.63,0.48-0.99,0.76c-0.55-0.57-1.14-1.2-1.74-1.83c-0.15,1.15,0.32,2.17,0.06,3.22
		c-0.67,0.03-1.32,0.12-1.97,0.09c-0.76-0.03-1.29-0.6-1.78-1.08c-0.37-0.36-0.59-0.27-0.95-0.03c0.2,0.69,0.39,1.39,0.58,2.06
		c-0.66,0.38-1.02,0.3-1.38-0.25c-1.73-2.64-3.29-5.35-4.19-8.41c-0.45-1.55-0.5-1.56-2.09-1.35c-1.07,0.14-2.12,0.38-3.18,0.58
		c-2.76,0.52-4.49,2.16-5.28,4.83c-0.07,0.23-0.11,0.47-0.21,0.68c-0.13,0.29-0.27,0.77-0.46,0.79c-1.07,0.13-1.09,1.6-2.17,1.64
		c-0.91,0.03-1.47,0.47-2.03,1.21c-0.63,0.83-1.51,1.49-2.8,1.09c-0.6-0.19-0.48-0.9-1.08-0.95c0.27-0.85,0.51-1.63,0.83-2.64
		c-0.48,0.19-0.73,0.25-0.95,0.37c-0.23,0.12-0.43,0.3-0.69,0.49c-0.32-0.61,0.16-0.98,0.23-1.41c0.08-0.47,0.18-0.93,0.29-1.4
		c0.1-0.42,0.27-0.83,0.34-1.26c0.36-2.17,1.44-4.05,2.34-6c1.1-2.39,2.19-4.79,3.39-7.12c1.7-3.29,3.48-6.55,5.28-9.79
		c1.36-2.44,2.67-4.89,3.71-7.49c0.24-0.59,0.55-1.15,0.86-1.71c0.52-0.94,1.16-1.83,1.58-2.81c0.75-1.74,1.97-3.08,3.39-4.27
		c0.2-0.17,0.56-0.17,0.84-0.21c0.37-0.06,0.75-0.09,1.18-0.14c0.38,0.34,0.85,0.77,1.35,1.21c0.32-0.08,0.62-0.15,0.95-0.23
		c0.08,0.09,0.19,0.16,0.22,0.26c0.11,0.38,0.39,0.48,0.74,0.46c1.5-0.09,2.03,0.29,2.38,1.7c0.12,0.5,0.33,0.99,0.42,1.5
		c0.1,0.53,0.26,1.06-0.05,1.63c-0.17,0.32-0.11,0.78-0.08,1.17c0.15,2.31,0.29,4.62,0.48,6.92c0.1,1.27,0.35,2.53,0.37,3.8
		c0.01,0.58,0.68,0.2,0.66,0.68c-0.02,0.39,0.05,0.79,0.13,1.18c0.24,1.09,0.53,2.17,0.75,3.26c0.8,4,2.3,7.7,4.58,11.09
		c0.22,0.33,0.34,0.59,0.08,1.05c-0.18,0.33,0.06,0.89,0.13,1.48c-1.11-0.19-2-0.03-2.31,1.23c-0.31-0.02-0.61-0.03-1.07-0.06
		c0.23,0.5,0.41,0.9,0.64,1.39c-0.62,0.14-1.13,0.32-1.49,0.9C112.68,107.73,113.23,108.21,113.28,108.72z"/>
	<path d="M138.01,105.37c0.33,0.05,0.55,0.09,0.96,0.15c-0.67,0.65-1.24,1.21-1.82,1.78c-0.07-0.06-0.14-0.11-0.2-0.17
		c0.18-0.31,0.36-0.62,0.66-1.13c-2.2,0.93-3.66,2.59-5.66,3.53c0.12,0.33,0.22,0.6,0.31,0.87c-0.08,0.07-0.13,0.16-0.2,0.17
		c-1.58,0.31-3.15,0.54-4.66-0.31c-0.51-0.28-1.21-0.21-1.48-0.93c-0.06-0.16-0.41-0.21-0.63-0.29c-1.08-0.39-1.96-1.02-2.58-2.02
		c-0.78-1.25-1.7-2.41-2.43-3.69c-0.51-0.89-0.82-1.89-1.2-2.85c-0.06-0.14-0.1-0.33-0.07-0.47c0.55-2.24-0.03-4.46-0.17-6.68
		c-0.06-0.92-0.17-1.83-0.22-2.74c-0.01-0.27,0.1-0.55,0.38-0.8c0.12,0.71,0.24,1.42,0.36,2.13c0.09,0,0.19-0.01,0.28-0.01
		c0-0.4,0.02-0.8,0-1.19c-0.03-0.48-0.09-0.95-0.13-1.43c-0.01-0.12-0.05-0.31,0-0.35c1.17-0.84,0.38-2.02,0.5-3.03
		c0.08-0.69,0.53-1.03,0.87-1.51c0.5,0.07,0.97,0.16,1.44,0.2c0.22,0.02,0.55,0,0.65-0.14c0.45-0.64,0.96-0.36,1.32-0.03
		c0.51,0.46,1.09,0.57,1.72,0.67c0.3,0.05,0.7,0.31,0.79,0.57c0.31,0.85,0.5,1.74,0.75,2.66c0.06-0.24,0.11-0.48,0.21-0.88
		c0.22,0.38,0.43,0.6,0.48,0.85c0.25,1.09,0.44,2.18,0.67,3.27c0.16,0.74,0.2,1.54,0.53,2.21c0.78,1.62,1.69,3.17,2.65,4.94
		c0.73-0.75,1.39-1.28,1.86-1.95c1.04-1.46,2-2.98,2.96-4.49c1.07-1.69,0.96-3.57,0.79-5.45c-0.03-0.27-0.18-0.57-0.12-0.82
		c0.39-1.67-0.34-3.07-1.1-4.42c-1.52-2.73-2.27-5.68-2.8-8.72c-0.03-0.19,0-0.39,0-0.81c0.44,0.25,0.74,0.43,1.16,0.67
		c-0.03-0.37-0.06-0.67-0.1-1.11c0.26,0.17,0.43,0.27,0.72,0.46c-0.07-1.04-0.13-1.97-0.2-2.97c0.32-0.13,0.65-0.25,0.99-0.39
		c0.03-0.1,0.11-0.21,0.1-0.32c-0.02-0.28-0.1-0.55-0.1-0.83c0.01-0.29,0.1-0.58,0.15-0.87c0.25,0.06,0.51,0.12,0.76,0.17
		c0.08-0.24,0.14-0.52,0.27-0.76c0.3-0.55,0.72-0.7,1.29-0.46c0.83,0.35,1.7,0.66,2.31,1.39c0.04,0.05,0.14,0.05,0.27,0.09
		c0.18-0.15,0.39-0.31,0.57-0.46c0.91,0.36,1.33,1.39,2.4,1.46c0.22,0.01,0.46,0.6,0.58,0.96c0.25,0.76,0.37,1.56,0.65,2.3
		c0.39,1.04,0.94,2.02,1.32,3.06c0.59,1.64,1.17,3.3,1.59,4.99c0.18,0.74-0.07,1.58-0.06,2.38c0.02,2.29-0.25,4.54-0.82,6.75
		c-0.15,0.58-0.38,1.13-0.59,1.69c-0.23,0.6-0.53,1.17-0.72,1.77c-0.74,2.3-1.9,4.37-3.31,6.32c-0.25,0.35-0.32,0.82-0.56,1.18
		c-0.53,0.77-1.05,1.51-1.84,2.13c-0.72,0.56-1.46,1.33-1.74,2.35C138.63,104.47,138.3,104.86,138.01,105.37z"/>
	<path d="M250.07,105.81c-0.05,0.14-0.1,0.28-0.26,0.72c-0.47-1.76-0.91-3.23-1.03-4.87c0.44,0.7,0.49,0.8,0.61,1.83
		c0.09,0.83,0.23,1.64,0.71,2.36C250.09,105.84,250.07,105.81,250.07,105.81z"/>
	<path d="M150.25,113.06c0.09-0.5,0.16-0.88,0.23-1.26c0.08-0.01,0.16-0.01,0.24-0.02c0.19,0.32,0.39,0.64,0.65,1.06
		C150.99,112.91,150.7,112.97,150.25,113.06z"/>
	<path d="M314.79,110.27c0.15,0.66,1.05,0.97,0.87,1.92C314.92,111.7,314.33,111.26,314.79,110.27z"/>
	<path d="M111.22,78.27c0.03,0.51,0.06,1.02,0.1,1.79c-0.66-0.71-0.39-1.24-0.4-1.75C111.02,78.3,111.12,78.29,111.22,78.27z"/>
	<path d="M348.44,102.62c0.51,0.1,0.78,0.15,1.02,0.2c0.03,0.1,0.05,0.16,0.04,0.16C349.17,103.11,348.87,103.11,348.44,102.62z"/>
	<path d="M289.68,106.51c-0.03-0.21-0.05-0.41-0.12-0.87c0.26,0.29,0.41,0.38,0.46,0.51c0.03,0.1-0.06,0.24-0.1,0.37
		C289.84,106.51,289.76,106.51,289.68,106.51z"/>
	<path d="M135.53,67.97c-0.03,0.16-0.05,0.32-0.08,0.48c-0.09-0.02-0.19-0.04-0.28-0.05c0.03-0.16,0.06-0.31,0.09-0.47
		C135.35,67.95,135.44,67.96,135.53,67.97z"/>
	<path d="M223.09,110.24c0.29,0.1,0.44,0.15,0.58,0.2c-0.11,0.02-0.22,0.06-0.33,0.06C223.29,110.5,223.25,110.41,223.09,110.24z"/>
	<path d="M127.48,86.36c0.02-0.22,0.03-0.44,0.05-0.66c0.02,0.22,0.04,0.44,0.06,0.65C127.55,86.36,127.51,86.36,127.48,86.36z"/>
	<path d="M173.18,111.71c0.18-0.07,0.36-0.13,0.55-0.2c0.03,0.06,0.06,0.13,0.08,0.19c-0.18,0.09-0.35,0.18-0.53,0.27
		C173.25,111.88,173.21,111.8,173.18,111.71z"/>
	<path d="M149.53,71.25c-0.11,0.12-0.17,0.25-0.24,0.25c-0.07,0-0.16-0.1-0.22-0.18c-0.01-0.02,0.07-0.16,0.11-0.16
		C149.28,71.15,149.37,71.2,149.53,71.25z"/>
	<path class="st0" d="M195.68,102.35c-0.22-0.54-0.42-0.92-0.52-1.32c-0.75-3.08-0.73-6.17,0.03-9.23c0.47-1.89,0.94-3.8,1.62-5.62
		c0.68-1.81,1.59-3.54,2.47-5.27c0.16-0.31,0.73-0.39,1.03-0.66c0.27-0.24,0.38-0.73,0.67-0.88c0.95-0.51,2.16-0.14,2.84,0.71
		c0.24,0.3,0.58,0.52,0.91,0.72c0.75,0.47,1.45,0.97,1.9,1.77c0.67,1.2,0.64,1.94-0.34,2.93c-0.35,0.35-0.41,0.79-0.27,1.07
		c0.54,1.08-0.16,1.98-0.3,2.96c-0.08,0.53-0.36,1.05-0.6,1.55c-0.66,1.35-1.49,2.55-2.53,3.66c-1.25,1.32-2.25,2.86-3.41,4.27
		c-0.76,0.92-1.57,1.79-2.4,2.65C196.52,101.92,196.14,102.07,195.68,102.35z"/>
	<path class="st0" d="M186.93,110.78c1.1,0.29,2.26,0.24,3.1,1.23c0.33,0.38,0.94,0.51,1.44,0.77c-0.66,0.77-0.76,0.76-1.47,0.47
		c-0.47-0.2-0.98-0.27-1.48-0.4C187.46,112.58,187,112.01,186.93,110.78z"/>
	<path class="st0" d="M164.48,88.25c0.97-0.4,1.68-0.72,2.45-0.38c0.7,0.31,1.37,0.68,2.12,1.05c-0.18,0.49-0.58,0.66-1.08,0.6
		c-0.09-0.01-0.16-0.28-0.27-0.5C166.67,89.15,165.6,89.01,164.48,88.25z"/>
	<path class="st0" d="M184.12,103.3c0.05,1.59,1.14,2.96,0.93,4.8c-0.84-0.82-1.04-1.78-1.26-2.66c-0.16-0.66,0.03-1.4,0.06-2.11
		C183.95,103.31,184.04,103.3,184.12,103.3z"/>
	<path class="st0" d="M183.34,98.57c0.52,1.43,0.11,2.89,0.21,4.48C183.02,102.4,182.89,99.82,183.34,98.57z"/>
	<path class="st0" d="M185.97,107.84c0.22,0.49,0.44,0.97,0.72,1.57C185.8,109.09,185.8,109.09,185.97,107.84z"/>
	<path class="st0" d="M159.26,87.69c0.63,0.4,0.35,0.87,0.13,1.35C159.35,88.6,159.31,88.14,159.26,87.69z"/>
	<path class="st0" d="M187.22,109.22c0.13,0.17,0.26,0.34,0.38,0.5c-0.05,0.05-0.09,0.09-0.14,0.14c-0.16-0.15-0.31-0.29-0.47-0.44
		C187.07,109.35,187.15,109.29,187.22,109.22z"/>
	<path class="st0" d="M345.96,56.21c-0.69-0.52-1.88-0.51-1.88-1.76C344.67,55.09,345.74,55.16,345.96,56.21z"/>
	<path class="st0" d="M341.37,70.57c0.17,0.76,0.13,1.51-0.29,2.23c0-0.74,0-1.49,0-2.23C341.17,70.57,341.27,70.57,341.37,70.57z"
		/>
	<path class="st0" d="M348.55,58.38c-0.42-0.24-0.84-0.49-1.46-0.85C348.06,57.51,348.06,57.51,348.55,58.38z"/>
	<path class="st0" d="M333.33,70.56c0.03-0.2,0.06-0.39,0.09-0.59c0.07,0,0.13,0.01,0.2,0.01c0,0.2,0,0.41,0,0.61
		C333.53,70.58,333.43,70.57,333.33,70.56z"/>
	<path class="st0" d="M219.88,106.86c1.28,0.14,2.08,0.94,3.03,1.77c-0.3,0.14-0.56,0.36-0.67,0.3
		C221.31,108.42,220.54,107.7,219.88,106.86z"/>
	<path class="st0" d="M249.27,77.41c0.26,0.33,0.44,0.45,0.43,0.55c-0.09,0.79-0.22,1.57-0.44,2.34
		C249.02,79.41,248.94,78.55,249.27,77.41z"/>
</g>
</svg>
