<?xml version="1.0" encoding="utf-8"?>
<!-- Generator: Adobe Illustrator 26.4.0, SVG Export Plug-In . SVG Version: 6.00 Build 0)  -->
<svg version="1.1" id="Layer_1" xmlns="http://www.w3.org/2000/svg" xmlns:xlink="http://www.w3.org/1999/xlink" x="0px" y="0px"
	 viewBox="0 0 1173.24 705.65" style="enable-background:new 0 0 1173.24 705.65;" xml:space="preserve">
<style type="text/css">
	.st0{fill:#FFFFFF;}
</style>
<g>
	<path d="M883.69,705.65c-11-2.35-21.98-4.82-33.01-7.01c-60.01-11.91-120.03-23.76-180.05-35.61
		c-33.26-6.57-66.53-13.09-99.94-20.63c48.84-9.62,97.67-19.24,147.16-28.99c-3.81-7.06-7.4-13.74-11.03-20.41
		c-23.3-42.86-46.66-85.68-69.83-128.61c-2-3.71-3.86-4.74-8.11-3.79c-14.1,3.12-28.33,5.69-43.38,8.64
		c23.02,38.91,45.69,77.22,68.75,116.2c-13.93,2.76-27.23,5.4-41.39,8.2c1.76-21.88,3.48-43.29,5.26-65.46
		c-4.32,0.88-7.84,1.63-11.37,2.31c-8.01,1.54-16,3.25-24.05,4.49c-4.22,0.65-6,2.27-6.52,6.78c-2.98,25.81-6.34,51.58-9.58,77.36
		c-0.93,7.4-1.89,14.8-2.92,22.82c-13.12-2.57-25.78-5.06-39.37-7.72c1.63-1.94,2.97-3.47,4.25-5.05
		c19.31-23.75,28.32-50.54,22.05-81c-5.01-24.36-17.97-43.27-41.94-52.79c-13.39-5.32-27.4-4.85-41.41-2.88
		c-1.62,0.23-3.23,0.5-5.69,0.88c0.69-2.21,1.17-3.86,1.72-5.49c18.56-55.09,37.16-110.16,55.61-165.28
		c1.12-3.34,2.76-4.84,6.17-5.3c4.78-0.64,9.58-1.47,14.19-2.84c1.78-0.53,3.88-2.5,4.41-4.25c2.57-8.38,4.65-16.91,7.21-26.54
		c21.37,36.1,42.12,71.13,63.17,106.7c-14.02,2.77-27.38,5.4-41.35,8.16c1.74-21.75,3.46-43.09,5.22-65.05
		c-1.99,0.22-3.57,0.28-5.09,0.58c-10.78,2.11-21.57,4.15-32.29,6.54c-1.59,0.35-3.84,2.29-4.02,3.72
		c-4.44,33.85-8.65,67.73-12.87,101.61c-0.1,0.77,0.1,1.58,0.2,2.72c51.2-10.08,102.1-20.09,153.48-30.21
		c-0.61-1.48-0.97-2.68-1.56-3.76c-26.4-48.57-52.86-97.1-79.16-145.72c-1.81-3.34-3.45-4.32-7.31-3.55
		c-36.26,7.29-72.56,14.39-108.88,21.37c-3.71,0.71-5.12,2.41-6.03,5.93c-6.72,25.96-13.67,51.85-20.56,77.76
		c-0.42,1.56-0.93,3.1-1.72,5.73c-4.42-9.99-8.44-19.07-12.45-28.16c-6.65-15.08-13.35-30.14-19.9-45.27
		c-1.09-2.51-2.18-3.58-5.18-2.98c-39.54,7.9-79.1,15.66-118.65,23.47c-0.64,0.13-1.26,0.38-2.64,0.81c1.84,2.3,3.39,4.34,5.05,6.3
		c6.44,7.65,13.07,15.14,19.28,22.97c2.5,3.15,4.86,4.09,8.83,3.25c17.09-3.61,34.25-6.95,51.42-10.17
		c1.43-0.27,4.03,0.61,4.62,1.73c25.58,48.24,50.99,96.58,76.91,145.81c-17.31,3.43-34.16,6.76-51.64,10.23
		c0.68,13.36,1.36,26.57,2.07,40.39c12.92-2.53,25.27-5.02,37.67-7.34c6.21-1.16,12.46-2.4,18.75-2.88
		c23.39-1.8,40.97,15.95,39.4,39.49c-1.53,22.87-14.74,40.36-36.25,47.13c-3.57,1.12-7.9,0.88-11.66,0.14
		c-65.91-12.95-131.79-26.12-197.68-39.17c-61.64-12.2-123.3-24.3-184.94-36.47c-24.95-4.93-49.89-9.92-75.11-14.93
		c0-117.88,0-235.63,0-354.01c110.19-21.9,220.54-43.83,331.59-65.89c0.68,12.43,1.35,24.6,2.06,37.41
		c3.65-0.65,6.86-1.19,10.06-1.8c14.4-2.71,28.73-5.88,43.21-8.06c23.38-3.52,41.55,11.7,42.68,35.1
		c1.28,26.61-19.69,50.9-46.89,53.77c-1.08-20.9-2.16-41.77-3.27-63.37c-15.07,2.95-29.68,5.8-44.86,8.77
		c1.52,34.67,3.02,69.02,4.56,104.07c10.11-2,19.74-3.7,29.27-5.84c15.57-3.5,31.56-5.92,46.53-11.2
		c49.06-17.31,75.28-79.2,53.72-125.57c-10.07-21.67-26.57-35.51-50.96-38.61c-0.62-0.08-1.22-0.29-1.94-1.32
		c4.21-0.85,8.43-1.69,12.64-2.54c4.24-0.86,8.48-1.77,12.72-2.62c21.56-4.29,43.12-8.56,64.68-12.84c2.63-0.52,4.83-1.09,6.72,2.13
		c21.32,36.34,42.82,72.58,64.25,108.85c0.25,0.42,0.36,0.91,0.81,2.1c-13.46,2.65-26.76,5.27-40.86,8.05
		c1.76-21.78,3.49-43.08,5.25-64.81c-1.24,0-2.17-0.15-3.05,0.02c-11.6,2.26-23.21,4.47-34.76,6.98c-1.43,0.31-3.44,2.16-3.61,3.5
		c-4.45,34.19-8.7,68.4-12.97,102.62c-0.04,0.31,0.1,0.64,0.3,1.85c51.14-10.06,102.24-20.11,153.94-30.28
		c-27.58-50.76-54.8-100.85-82.39-151.62c21.2-4.21,41.68-8.28,62.63-12.44c10.61,53.89,21.13,107.3,31.8,161.46
		c14.88-2.92,29.48-5.79,44.74-8.78c-8.14-41.52-16.22-82.72-24.44-124.63c9.73-1.65,18.84-3.69,28.06-4.6
		c8.09-0.8,11.99,2.37,13.83,10.58c3.21,14.3,6,28.69,8.85,43.07c4.13,20.75,8.16,41.52,12.24,62.27c0.32,1.61,0.76,3.2,1.29,5.45
		c14.79-2.9,29.39-5.77,44.46-8.72c-2.29-11.74-4.47-22.99-6.68-34.24c-5.24-26.65-10.35-53.32-15.79-79.93
		c-2.87-14.08-8.23-27.03-21.59-34.41c-5.7-3.15-12.2-4.84-17.99-7.06c5.24-1.09,11.38-2.41,17.55-3.64
		c49.81-9.91,99.63-19.82,149.47-29.6c2.26-0.44,5.07-0.17,7.15,0.78c90.09,41.48,180.12,83.07,270.16,124.66
		c1.16,0.54,2.26,1.21,4.24,2.28c-9.57,3.69-18.31,7.09-27.07,10.43c-84.24,32.17-168.48,64.35-252.77,96.4
		c-3.85,1.46-5.19,3.26-5.18,7.47c0.15,73,0.15,146,0,219c-0.01,4.68,1.26,6.83,5.8,8.53c92.68,34.77,185.29,69.74,277.91,104.67
		c1.4,0.53,2.78,1.08,5.15,2c-2.38,1.19-4.03,2.1-5.74,2.87c-91.7,41.14-183.4,82.27-275.1,123.41c-1.95,0.87-3.8,1.96-5.7,2.95
		C885.69,705.65,884.69,705.65,883.69,705.65z M818.58,390.37c-0.13-1.28-0.15-1.94-0.27-2.58c-6.61-33.66-13.24-67.32-19.86-100.98
		c-2.09-10.62-3.76-21.41-9.59-30.82c-10.86-17.53-27.4-22.8-46.61-19.58c-27.59,4.62-55,10.31-82.49,15.58
		c-0.59,0.11-1.11,0.6-1.87,1.04c10.68,54.25,21.33,108.37,32.03,162.68c15.33-3.04,29.79-5.91,44.55-8.85
		c-8.21-41.76-16.29-82.91-24.42-124.29c6.68-1.37,12.53-2.61,18.39-3.75c2.61-0.51,5.25-0.98,7.89-1.2
		c9.68-0.81,14.04,2.1,16.05,11.66c4.61,22.01,8.91,44.08,13.31,66.13c2.86,14.35,5.68,28.71,8.62,43.64
		C789.2,396.14,803.67,393.3,818.58,390.37z M767.1,563.27c-8.25-41.87-16.37-83.07-24.56-124.64c-15.19,3-29.77,5.88-44.6,8.81
		c10.8,54.88,21.43,108.9,32.15,163.34c33.8-6.65,67.06-13.2,100.66-19.81c-2.54-13-4.98-25.51-7.55-38.64
		C804.48,555.98,786.1,559.57,767.1,563.27z"/>
</g>
<g>
	<path class="st0" d="M293.29,323.44c22.69-4.48,45.39-8.97,68.08-13.45c17.47-3.45,34.94-6.89,52.42-10.32
		c1.13-0.22,2.29-0.29,3.99-0.49c11.18,25.33,22.37,50.67,34.06,77.16c8.01-30.2,15.7-59.21,23.53-88.74
		c39.22-7.72,78.52-15.45,118.34-23.28c27.81,51.14,55.59,102.23,83.63,153.8c-51.49,10.13-102.48,20.17-153.35,30.19
		c-0.28-0.26-0.41-0.36-0.51-0.49c-0.1-0.12-0.23-0.27-0.23-0.4c-0.01-0.83-0.06-1.67,0.05-2.49c4.33-34.48,8.67-68.96,13.05-103.82
		c13.56-2.73,26.92-5.73,41.12-8.06c-1.53,22.02-3.58,43.44-5.14,65.25c13.9-2.74,27.24-5.37,41.28-8.13
		c-20.91-35.51-41.67-70.49-62.81-106.15c-2.29,4.96-3.02,9.78-4.36,14.38c-1.4,4.79-2.55,9.65-3.93,14.94
		c-7.12,2.25-14.76,2.9-22.51,4.83c-19.56,58.04-39.15,116.19-58.92,174.86c1.53-0.17,2.6-0.24,3.66-0.4
		c11.07-1.74,22.13-2.28,33.26-0.32c16.52,2.89,29.21,11.77,38.86,25.05c12.61,17.35,16.95,36.93,14.67,58.13
		c-2.25,20.9-11,38.87-24.48,54.73c-1.07,1.26-2.24,2.44-3.19,3.48c-7.65-0.56-54.17-10.04-57.45-11.74
		c2.02-0.73,3.85-1.35,5.65-2.05c18.42-7.16,28.54-20.96,32.36-40c2.37-11.82-0.11-22.5-6.96-32.19
		c-7.23-10.23-17.24-14.61-29.76-13.72c-13.68,0.97-26.89,4.53-40.31,6.92c-5.72,1.02-11.42,2.19-17.6,3.38
		c-1.81-13.42-1.22-26.81-2.61-40.28c17.36-3.42,34.14-6.73,50.7-10c0.24-0.43,0.34-0.56,0.39-0.71c0.05-0.14,0.14-0.34,0.08-0.45
		c-0.64-1.35-1.28-2.71-1.97-4.03c-25.1-47.7-50.2-95.4-75.45-143.38c-20,3.92-39.85,7.81-60.09,11.77
		c-3.99-4.67-8.11-9.43-12.16-14.25c-4.4-5.22-8.73-10.5-13.14-15.71c-0.61-0.72-1.5-1.21-2.26-1.81
		C293.29,324.78,293.29,324.11,293.29,323.44z"/>
	<path class="st0" d="M830.29,590.44c-5.83,1.28-11.64,2.65-17.5,3.82c-26.74,5.3-53.49,10.55-80.24,15.8
		c-0.79,0.16-1.62,0.15-2.92,0.25c-10.67-54.2-21.31-108.28-32.06-162.91c14.71-3.36,29.38-5.86,44.52-8.99
		c8.31,41.51,16.31,82.83,24.63,124.64c18.74-3.65,37.22-7.26,56.04-10.92c1.57,7.92,3.01,15.38,4.54,22.82
		c0.93,4.51,1.99,8.99,2.99,13.49C830.29,589.11,830.29,589.78,830.29,590.44z"/>
	<path class="st0" d="M734.06,406.68c-14.83,2.93-29.42,5.81-44.56,8.8c-10.7-54.38-21.35-108.47-32.06-162.85
		c0.84-0.37,1.52-0.83,2.27-0.98c24.97-4.93,49.92-10.01,74.94-14.66c9.97-1.85,20.15-2.78,30.14,0.3
		c10.83,3.34,19.06,9.95,24.5,19.96c4.27,7.86,6.22,16.43,7.92,25.11c5.2,26.6,10.47,53.18,15.7,79.77
		c1.79,9.12,3.52,18.25,5.38,27.87c-14.68,3.18-29.29,5.87-44.34,8.84c-1.24-6.09-2.43-11.73-3.54-17.39
		c-4.9-24.81-9.76-49.63-14.67-74.43c-1.23-6.2-2.52-12.38-3.9-18.54c-0.39-1.77-0.99-3.55-1.84-5.15
		c-1.93-3.62-4.94-5.99-9.16-5.89c-4.13,0.1-8.29,0.48-12.37,1.12c-5.58,0.88-11.1,2.12-16.64,3.25c-0.62,0.13-1.2,0.49-2.15,0.89
		C717.79,323.92,725.88,365.05,734.06,406.68z"/>
	<path class="st0" d="M334.47,172.25c14.8-2.91,29.43-5.78,44.54-8.75c1.12,21.37,2.23,42.37,3.33,63.42
		c29.53-4.65,42.15-23.06,46.05-44.17c2.55-13.81-1.44-25.68-10.8-35.82c-5.29-5.72-12.04-8.72-19.83-9.4
		c-7.9-0.68-15.57,0.98-23.23,2.41c-12.1,2.26-24.15,4.79-36.23,7.17c-1.44,0.28-2.92,0.36-4.84,0.59
		c-1.3-12.43-1.23-24.66-2.22-36.95c1.73-0.49,2.96-0.94,4.23-1.19c23.15-4.62,46.3-9.21,69.45-13.83
		c12.01-2.39,23.23,0.45,33.74,5.87c14.49,7.47,24.34,19.45,30.63,34.34c9.19,21.77,8.88,43.81,0.75,65.72
		c-7.62,20.54-20.48,37.24-38.76,49.5c-10.8,7.24-22.97,11.35-35.55,14.03c-18.05,3.83-36.21,7.14-54.32,10.66
		c-0.63,0.12-1.28,0.18-2.3,0.32c-0.21-1.23-0.52-2.29-0.56-3.36c-0.5-11.97-0.92-23.94-1.45-35.91
		c-0.83-18.61-1.75-37.23-2.6-55.84C334.36,178.41,334.47,175.75,334.47,172.25z"/>
	<path class="st0" d="M673.74,80.93c8.2,41.75,16.27,82.81,24.45,124.44c-14.8,2.95-29.42,5.86-44.62,8.89
		c-3.79-17.99-7.16-35.92-10.71-53.8c-3.53-17.79-7.05-35.58-10.54-53.38c-3.52-17.93-7.01-35.88-10.55-54.01
		c1.83-0.55,3.21-1.08,4.65-1.37c28.53-5.68,57.05-11.42,85.62-16.94c7.52-1.45,14.93-0.3,21.94,2.92
		c10.87,4.99,18.03,13.35,22.38,24.37c2.96,7.49,4.25,15.38,5.79,23.21c5.55,28.08,11.07,56.17,16.6,84.25
		c1.09,5.55,2.22,11.09,3.28,16.65c0.15,0.78,0.02,1.62,0.02,2.78c-14.66,2.87-29.27,5.73-44.16,8.64
		c-1.85-9.16-3.62-17.77-5.32-26.4c-5.16-26.29-10.28-52.59-15.47-78.87c-0.55-2.77-1.17-5.56-2.18-8.18
		c-1.97-5.11-5.53-8.24-11.38-7.96c-1.5,0.07-3.03-0.14-4.49,0.12C690.86,77.74,682.71,79.28,673.74,80.93z"/>
	<path class="st0" d="M617.75,527.99c-1.82,22.35-3.56,43.65-5.34,65.45c13.92-2.76,27.25-5.4,41.25-8.17
		c-5.5-10.13-11.35-19.49-16.93-29.01c-5.73-9.76-11.52-19.48-17.29-29.22c-5.68-9.6-11.37-19.19-17.05-28.79
		c-5.66-9.56-11.33-19.13-17.31-29.22c16.5-3.25,32.42-6.39,48.81-9.62c27.81,51.15,55.58,102.23,83.57,153.73
		c-9,1.8-17.45,3.52-25.91,5.18c-28.04,5.52-56.09,11.01-84.13,16.53c-12.22,2.41-24.43,4.91-36.67,7.21
		c-2.21,0.42-4.56,0.06-7.43,0.06c4.42-35.52,8.65-70.74,13.33-106.11C590.25,533.36,603.54,530.76,617.75,527.99z"/>
	<path class="st0" d="M500.38,139.62c13.82-2.74,27.01-5.36,40.68-8.08c0.7,7.37-0.83,14.35-1.18,21.37
		c-0.37,7.3-1.13,14.59-1.74,21.88c-0.59,7.09-1.2,14.19-1.8,21.28c4.04,0.24,34.52-5.48,41.01-7.7
		c-22.3-37.7-44.55-75.31-67.12-113.47c16.48-3.28,32.48-6.47,48.74-9.71c27.46,50.51,54.76,100.73,82.39,151.55
		C589.85,227,538.75,237,486.93,247.2C491.36,211.05,495.77,175.49,500.38,139.62z"/>
</g>
</svg>
